%TF.GenerationSoftware,KiCad,Pcbnew,9.0.7*%
%TF.CreationDate,2026-02-05T00:16:06+03:00*%
%TF.ProjectId,ISA8_Ethernet,49534138-5f45-4746-9865-726e65742e6b,1.0*%
%TF.SameCoordinates,Original*%
%TF.FileFunction,Copper,L2,Bot*%
%TF.FilePolarity,Positive*%
%FSLAX46Y46*%
G04 Gerber Fmt 4.6, Leading zero omitted, Abs format (unit mm)*
G04 Created by KiCad (PCBNEW 9.0.7) date 2026-02-05 00:16:06*
%MOMM*%
%LPD*%
G01*
G04 APERTURE LIST*
G04 Aperture macros list*
%AMRoundRect*
0 Rectangle with rounded corners*
0 $1 Rounding radius*
0 $2 $3 $4 $5 $6 $7 $8 $9 X,Y pos of 4 corners*
0 Add a 4 corners polygon primitive as box body*
4,1,4,$2,$3,$4,$5,$6,$7,$8,$9,$2,$3,0*
0 Add four circle primitives for the rounded corners*
1,1,$1+$1,$2,$3*
1,1,$1+$1,$4,$5*
1,1,$1+$1,$6,$7*
1,1,$1+$1,$8,$9*
0 Add four rect primitives between the rounded corners*
20,1,$1+$1,$2,$3,$4,$5,0*
20,1,$1+$1,$4,$5,$6,$7,0*
20,1,$1+$1,$6,$7,$8,$9,0*
20,1,$1+$1,$8,$9,$2,$3,0*%
G04 Aperture macros list end*
%TA.AperFunction,ComponentPad*%
%ADD10C,6.400000*%
%TD*%
%TA.AperFunction,ComponentPad*%
%ADD11C,1.397000*%
%TD*%
%TA.AperFunction,ComponentPad*%
%ADD12R,1.397000X1.397000*%
%TD*%
%TA.AperFunction,ComponentPad*%
%ADD13C,1.600000*%
%TD*%
%TA.AperFunction,ComponentPad*%
%ADD14O,1.600000X1.600000*%
%TD*%
%TA.AperFunction,ConnectorPad*%
%ADD15RoundRect,0.444500X-0.444500X-3.619500X0.444500X-3.619500X0.444500X3.619500X-0.444500X3.619500X0*%
%TD*%
%TA.AperFunction,ComponentPad*%
%ADD16C,2.600000*%
%TD*%
%TA.AperFunction,ComponentPad*%
%ADD17C,1.890000*%
%TD*%
%TA.AperFunction,ComponentPad*%
%ADD18R,1.900000X1.900000*%
%TD*%
%TA.AperFunction,ComponentPad*%
%ADD19C,1.900000*%
%TD*%
%TA.AperFunction,ComponentPad*%
%ADD20R,1.600000X1.600000*%
%TD*%
%TA.AperFunction,ComponentPad*%
%ADD21R,1.700000X1.700000*%
%TD*%
%TA.AperFunction,ComponentPad*%
%ADD22O,1.700000X1.700000*%
%TD*%
%TA.AperFunction,ComponentPad*%
%ADD23C,1.524000*%
%TD*%
%TA.AperFunction,ComponentPad*%
%ADD24C,1.700000*%
%TD*%
%TA.AperFunction,ComponentPad*%
%ADD25C,1.000000*%
%TD*%
%TA.AperFunction,ComponentPad*%
%ADD26RoundRect,0.250000X0.550000X-0.950000X0.550000X0.950000X-0.550000X0.950000X-0.550000X-0.950000X0*%
%TD*%
%TA.AperFunction,ComponentPad*%
%ADD27O,1.600000X2.400000*%
%TD*%
%TA.AperFunction,ViaPad*%
%ADD28C,0.600000*%
%TD*%
%TA.AperFunction,ViaPad*%
%ADD29C,0.800000*%
%TD*%
%TA.AperFunction,Conductor*%
%ADD30C,0.250000*%
%TD*%
%TA.AperFunction,Conductor*%
%ADD31C,1.000000*%
%TD*%
%TA.AperFunction,Conductor*%
%ADD32C,0.203200*%
%TD*%
G04 APERTURE END LIST*
D10*
%TO.P,HOLE1,1,1*%
%TO.N,GND*%
X201041000Y-66040000D03*
%TD*%
%TO.P,HOLE2,1,1*%
%TO.N,GND*%
X201041000Y-122555000D03*
%TD*%
D11*
%TO.P,Y1,1,1*%
%TO.N,Net-(U3-X1)*%
X154072800Y-77148140D03*
%TO.P,Y1,2,2*%
%TO.N,Net-(U3-X2)*%
X154072800Y-72266260D03*
%TD*%
D12*
%TO.P,U1,1,A18*%
%TO.N,/BA18*%
X72898000Y-71018400D03*
D11*
%TO.P,U1,2,A16*%
%TO.N,/BA16*%
X72898000Y-73558400D03*
%TO.P,U1,3,A15*%
%TO.N,/BA15*%
X72898000Y-76098400D03*
%TO.P,U1,4,A12*%
%TO.N,/A12*%
X72898000Y-78638400D03*
%TO.P,U1,5,A7*%
%TO.N,/A7*%
X72898000Y-81178400D03*
%TO.P,U1,6,A6*%
%TO.N,/A6*%
X72898000Y-83718400D03*
%TO.P,U1,7,A5*%
%TO.N,/A5*%
X72898000Y-86258400D03*
%TO.P,U1,8,A4*%
%TO.N,/A4*%
X72898000Y-88798400D03*
%TO.P,U1,9,A3*%
%TO.N,/A3*%
X72898000Y-91338400D03*
%TO.P,U1,10,A2*%
%TO.N,/A2*%
X72898000Y-93878400D03*
%TO.P,U1,11,A1*%
%TO.N,/A1*%
X72898000Y-96418400D03*
%TO.P,U1,12,A0*%
%TO.N,/A0*%
X72898000Y-98958400D03*
%TO.P,U1,13,DQ0*%
%TO.N,/BD0*%
X72898000Y-101498400D03*
%TO.P,U1,14,DQ1*%
%TO.N,/BD1*%
X72898000Y-104038400D03*
%TO.P,U1,15,DQ2*%
%TO.N,/BD2*%
X72898000Y-106578400D03*
%TO.P,U1,16,GND*%
%TO.N,GND*%
X72898000Y-109118400D03*
%TO.P,U1,17,DQ3*%
%TO.N,/BD3*%
X88138000Y-109118400D03*
%TO.P,U1,18,DQ4*%
%TO.N,/BD4*%
X88138000Y-106578400D03*
%TO.P,U1,19,DQ5*%
%TO.N,/BD5*%
X88138000Y-104038400D03*
%TO.P,U1,20,DQ6*%
%TO.N,/BD6*%
X88138000Y-101498400D03*
%TO.P,U1,21,DQ7*%
%TO.N,/BD7*%
X88138000Y-98958400D03*
%TO.P,U1,22,~{CE}*%
%TO.N,/~{BCS}*%
X88138000Y-96418400D03*
%TO.P,U1,23,A10*%
%TO.N,/A10*%
X88138000Y-93878400D03*
%TO.P,U1,24,~{OE}*%
%TO.N,/~{SMEMR}*%
X88138000Y-91338400D03*
%TO.P,U1,25,A11*%
%TO.N,/A11*%
X88138000Y-88798400D03*
%TO.P,U1,26,A9*%
%TO.N,/A9*%
X88138000Y-86258400D03*
%TO.P,U1,27,A8*%
%TO.N,/A8*%
X88138000Y-83718400D03*
%TO.P,U1,28,A13*%
%TO.N,/A13*%
X88138000Y-81178400D03*
%TO.P,U1,29,A14*%
%TO.N,/BA14*%
X88138000Y-78638400D03*
%TO.P,U1,30,A17*%
%TO.N,/BA17*%
X88138000Y-76098400D03*
%TO.P,U1,31,~{WE}*%
%TO.N,/~{SMEMW}*%
X88138000Y-73558400D03*
%TO.P,U1,32,VCC*%
%TO.N,VCC*%
X88138000Y-71018400D03*
%TD*%
D13*
%TO.P,C5,1*%
%TO.N,VCC*%
X134621400Y-96020400D03*
%TO.P,C5,2*%
%TO.N,GND*%
X139621400Y-96020400D03*
%TD*%
%TO.P,C3,1*%
%TO.N,VCC*%
X92089600Y-92710000D03*
%TO.P,C3,2*%
%TO.N,GND*%
X97089600Y-92710000D03*
%TD*%
%TO.P,R1,1*%
%TO.N,GND*%
X93370400Y-108712000D03*
D14*
%TO.P,R1,2*%
%TO.N,/~{IOCS16}*%
X103530400Y-108712000D03*
%TD*%
D13*
%TO.P,R16,1*%
%TO.N,Net-(U3-X1)*%
X158772800Y-79787200D03*
D14*
%TO.P,R16,2*%
%TO.N,Net-(U3-X2)*%
X158772800Y-69627200D03*
%TD*%
D13*
%TO.P,C2,1*%
%TO.N,VCC*%
X88199600Y-68021200D03*
%TO.P,C2,2*%
%TO.N,GND*%
X83199600Y-68021200D03*
%TD*%
%TO.P,R17,1*%
%TO.N,/TP_RX+*%
X168605200Y-83007200D03*
D14*
%TO.P,R17,2*%
%TO.N,/TP_RX-*%
X158445200Y-83007200D03*
%TD*%
D13*
%TO.P,C7,1*%
%TO.N,Net-(J5-TCT)*%
X182575200Y-95239200D03*
%TO.P,C7,2*%
%TO.N,GND*%
X182575200Y-100239200D03*
%TD*%
%TO.P,R18,1*%
%TO.N,Net-(J5-LEDY_K)*%
X200456800Y-83261200D03*
D14*
%TO.P,R18,2*%
%TO.N,/LED_CRS*%
X190296800Y-83261200D03*
%TD*%
D13*
%TO.P,C10,1*%
%TO.N,GND*%
X167272800Y-76507200D03*
%TO.P,C10,2*%
%TO.N,Net-(U3-X1)*%
X162272800Y-76507200D03*
%TD*%
%TO.P,C9,1*%
%TO.N,GND*%
X167272800Y-72907200D03*
%TO.P,C9,2*%
%TO.N,Net-(U3-X2)*%
X162272800Y-72907200D03*
%TD*%
D15*
%TO.P,BUS1,1,GND*%
%TO.N,GND*%
X180340000Y-130492500D03*
%TO.P,BUS1,2,RESET*%
%TO.N,/RSTDRV*%
X177800000Y-130492500D03*
%TO.P,BUS1,3,VCC*%
%TO.N,VCC*%
X175260000Y-130492500D03*
%TO.P,BUS1,4,IRQ2*%
%TO.N,/IRQ9*%
X172720000Y-130492500D03*
%TO.P,BUS1,5,-5V*%
%TO.N,unconnected-(BUS1--5V-Pad5)*%
X170180000Y-130492500D03*
%TO.P,BUS1,6,DRQ2*%
%TO.N,unconnected-(BUS1-DRQ2-Pad6)*%
X167640000Y-130492500D03*
%TO.P,BUS1,7,-12V*%
%TO.N,unconnected-(BUS1--12V-Pad7)*%
X165100000Y-130492500D03*
%TO.P,BUS1,8,UNUSED*%
%TO.N,unconnected-(BUS1-UNUSED-Pad8)*%
X162560000Y-130492500D03*
%TO.P,BUS1,9,+12V*%
%TO.N,unconnected-(BUS1-+12V-Pad9)*%
X160020000Y-130492500D03*
%TO.P,BUS1,10,GND*%
%TO.N,GND*%
X157480000Y-130492500D03*
%TO.P,BUS1,11,MEMW*%
%TO.N,/~{SMEMW}*%
X154940000Y-130492500D03*
%TO.P,BUS1,12,MEMR*%
%TO.N,/~{SMEMR}*%
X152400000Y-130492500D03*
%TO.P,BUS1,13,IOW*%
%TO.N,/~{IOW}*%
X149860000Y-130492500D03*
%TO.P,BUS1,14,IOR*%
%TO.N,/~{IOR}*%
X147320000Y-130492500D03*
%TO.P,BUS1,15,DACK3*%
%TO.N,unconnected-(BUS1-DACK3-Pad15)*%
X144780000Y-130492500D03*
%TO.P,BUS1,16,DRQ3*%
%TO.N,unconnected-(BUS1-DRQ3-Pad16)*%
X142240000Y-130492500D03*
%TO.P,BUS1,17,DACK1*%
%TO.N,unconnected-(BUS1-DACK1-Pad17)*%
X139700000Y-130492500D03*
%TO.P,BUS1,18,DRQ1*%
%TO.N,unconnected-(BUS1-DRQ1-Pad18)*%
X137160000Y-130492500D03*
%TO.P,BUS1,19,DACK0*%
%TO.N,unconnected-(BUS1-DACK0-Pad19)*%
X134620000Y-130492500D03*
%TO.P,BUS1,20,CLK*%
%TO.N,unconnected-(BUS1-CLK-Pad20)*%
X132080000Y-130492500D03*
%TO.P,BUS1,21,IRQ7*%
%TO.N,unconnected-(BUS1-IRQ7-Pad21)*%
X129540000Y-130492500D03*
%TO.P,BUS1,22,IRQ6*%
%TO.N,unconnected-(BUS1-IRQ6-Pad22)*%
X127000000Y-130492500D03*
%TO.P,BUS1,23,IRQ5*%
%TO.N,/IRQ5*%
X124460000Y-130492500D03*
%TO.P,BUS1,24,IRQ4*%
%TO.N,/IRQ4*%
X121920000Y-130492500D03*
%TO.P,BUS1,25,IRQ3*%
%TO.N,/IRQ3*%
X119380000Y-130492500D03*
%TO.P,BUS1,26,DACK2*%
%TO.N,unconnected-(BUS1-DACK2-Pad26)*%
X116840000Y-130492500D03*
%TO.P,BUS1,27,TC*%
%TO.N,unconnected-(BUS1-TC-Pad27)*%
X114300000Y-130492500D03*
%TO.P,BUS1,28,ALE*%
%TO.N,unconnected-(BUS1-ALE-Pad28)*%
X111760000Y-130492500D03*
%TO.P,BUS1,29,VCC*%
%TO.N,VCC*%
X109220000Y-130492500D03*
%TO.P,BUS1,30,OSC*%
%TO.N,unconnected-(BUS1-OSC-Pad30)*%
X106680000Y-130492500D03*
%TO.P,BUS1,31,GND*%
%TO.N,GND*%
X104140000Y-130492500D03*
%TD*%
D13*
%TO.P,C4,1*%
%TO.N,VCC*%
X110299000Y-113688000D03*
%TO.P,C4,2*%
%TO.N,GND*%
X105299000Y-113688000D03*
%TD*%
%TO.P,R19,1*%
%TO.N,Net-(J5-LEDG_K)*%
X200480000Y-106000000D03*
D14*
%TO.P,R19,2*%
%TO.N,/LED_LINK*%
X190320000Y-106000000D03*
%TD*%
D13*
%TO.P,C8,1*%
%TO.N,Net-(J5-RCT)*%
X182575200Y-92619200D03*
%TO.P,C8,2*%
%TO.N,GND*%
X182575200Y-87619200D03*
%TD*%
D16*
%TO.P,J5,13,SHIELD*%
%TO.N,GND*%
X192520000Y-102390000D03*
X192520000Y-86840000D03*
D17*
%TO.P,J5,L1,LEDY_A*%
%TO.N,VCC*%
X200470000Y-88290000D03*
%TO.P,J5,L2,LEDY_K*%
%TO.N,Net-(J5-LEDY_K)*%
X200470000Y-90830000D03*
%TO.P,J5,L3,LEDG_K*%
%TO.N,Net-(J5-LEDG_K)*%
X200470000Y-98400000D03*
%TO.P,J5,L4,LEDG_A*%
%TO.N,VCC*%
X200470000Y-100940000D03*
D18*
%TO.P,J5,R1,TD+*%
%TO.N,/TP_TX+*%
X189230000Y-99060000D03*
D19*
%TO.P,J5,R2,TD-*%
%TO.N,/TP_TX-*%
X186690000Y-97790000D03*
%TO.P,J5,R3,RD+*%
%TO.N,/TP_RX+*%
X189230000Y-96520000D03*
%TO.P,J5,R4,TCT*%
%TO.N,Net-(J5-TCT)*%
X186690000Y-95250000D03*
%TO.P,J5,R5,RCT*%
%TO.N,Net-(J5-RCT)*%
X189230000Y-93980000D03*
%TO.P,J5,R6,RD-*%
%TO.N,/TP_RX-*%
X186690000Y-92710000D03*
%TO.P,J5,R7,NC*%
%TO.N,unconnected-(J5-NC-PadR7)*%
X189230000Y-91440000D03*
%TO.P,J5,R8,GND*%
%TO.N,GND*%
X186690000Y-90170000D03*
%TD*%
D20*
%TO.P,C6,1*%
%TO.N,VCC*%
X190310779Y-120599200D03*
D13*
%TO.P,C6,2*%
%TO.N,GND*%
X187810779Y-120599200D03*
%TD*%
D20*
%TO.P,C1,1*%
%TO.N,VCC*%
X76606400Y-120599200D03*
D13*
%TO.P,C1,2*%
%TO.N,GND*%
X74106400Y-120599200D03*
%TD*%
%TO.P,R6,1*%
%TO.N,/BD3*%
X102463600Y-80721200D03*
D14*
%TO.P,R6,2*%
%TO.N,Net-(J3-Pin_2)*%
X102463600Y-70561200D03*
%TD*%
D21*
%TO.P,J1,1,Pin_1*%
%TO.N,VCC*%
X129641600Y-63844800D03*
D22*
%TO.P,J1,2,Pin_2*%
%TO.N,Net-(J1-Pin_2)*%
X129641600Y-66384800D03*
%TO.P,J1,3,Pin_3*%
%TO.N,VCC*%
X127101600Y-63844800D03*
%TO.P,J1,4,Pin_4*%
%TO.N,Net-(J1-Pin_4)*%
X127101600Y-66384800D03*
%TD*%
D21*
%TO.P,J2,1,Pin_1*%
%TO.N,VCC*%
X108310600Y-63844800D03*
D22*
%TO.P,J2,2,Pin_2*%
%TO.N,Net-(J2-Pin_2)*%
X108310600Y-66384800D03*
%TO.P,J2,3,Pin_3*%
%TO.N,VCC*%
X105770600Y-63844800D03*
%TO.P,J2,4,Pin_4*%
%TO.N,Net-(J2-Pin_4)*%
X105770600Y-66384800D03*
%TD*%
D13*
%TO.P,R21,1*%
%TO.N,/AS1*%
X139039600Y-70561200D03*
D14*
%TO.P,R21,2*%
%TO.N,VCC*%
X139039600Y-80721200D03*
%TD*%
D13*
%TO.P,R23,1*%
%TO.N,/~{IRQ}*%
X164185600Y-98267600D03*
D14*
%TO.P,R23,2*%
%TO.N,VCC*%
X174345600Y-98267600D03*
%TD*%
D23*
%TO.P,BT1,1,+*%
%TO.N,Net-(BT1-+)*%
X194899280Y-72999600D03*
%TO.P,BT1,2,-*%
%TO.N,GND*%
X174899320Y-72999600D03*
%TD*%
D21*
%TO.P,J4,1,Pin_1*%
%TO.N,VCC*%
X122778600Y-63844800D03*
D22*
%TO.P,J4,2,Pin_2*%
%TO.N,Net-(J4-Pin_2)*%
X122778600Y-66384800D03*
%TO.P,J4,3,Pin_3*%
%TO.N,VCC*%
X120238600Y-63844800D03*
%TO.P,J4,4,Pin_4*%
%TO.N,Net-(J4-Pin_4)*%
X120238600Y-66384800D03*
%TO.P,J4,5,Pin_5*%
%TO.N,VCC*%
X117698600Y-63844800D03*
%TO.P,J4,6,Pin_6*%
%TO.N,Net-(J4-Pin_6)*%
X117698600Y-66384800D03*
%TO.P,J4,7,Pin_7*%
%TO.N,VCC*%
X115158600Y-63844800D03*
%TO.P,J4,8,Pin_8*%
%TO.N,Net-(J4-Pin_8)*%
X115158600Y-66384800D03*
%TO.P,J4,9,Pin_9*%
%TO.N,VCC*%
X112618600Y-63844800D03*
%TO.P,J4,10,Pin_10*%
%TO.N,Net-(J4-Pin_10)*%
X112618600Y-66384800D03*
%TD*%
D13*
%TO.P,R5,1*%
%TO.N,/BD5*%
X105511600Y-80721200D03*
D14*
%TO.P,R5,2*%
%TO.N,Net-(J2-Pin_4)*%
X105511600Y-70561200D03*
%TD*%
D13*
%TO.P,R8,1*%
%TO.N,/BD1*%
X96367600Y-80721200D03*
D14*
%TO.P,R8,2*%
%TO.N,Net-(J3-Pin_6)*%
X96367600Y-70561200D03*
%TD*%
D13*
%TO.P,R10,1*%
%TO.N,/AUI*%
X132943600Y-80721200D03*
D14*
%TO.P,R10,2*%
%TO.N,GND*%
X132943600Y-70561200D03*
%TD*%
D21*
%TO.P,JP3,1,A*%
%TO.N,VCC*%
X147218400Y-91953000D03*
D24*
%TO.P,JP3,2,B*%
%TO.N,Net-(JP3-B)*%
X147218400Y-89413000D03*
%TD*%
D13*
%TO.P,R12,1*%
%TO.N,/BA19*%
X120751600Y-80721200D03*
D14*
%TO.P,R12,2*%
%TO.N,Net-(J4-Pin_4)*%
X120751600Y-70561200D03*
%TD*%
D13*
%TO.P,R9,1*%
%TO.N,/BD0*%
X93319600Y-80721200D03*
D14*
%TO.P,R9,2*%
%TO.N,Net-(J3-Pin_8)*%
X93319600Y-70561200D03*
%TD*%
D21*
%TO.P,J6,1,Pin_1*%
%TO.N,GND*%
X141579600Y-63814800D03*
D24*
%TO.P,J6,2,Pin_2*%
%TO.N,/AS2*%
X141579600Y-66354800D03*
%TO.P,J6,3,Pin_3*%
%TO.N,GND*%
X139039600Y-63814800D03*
%TO.P,J6,4,Pin_4*%
%TO.N,/AS1*%
X139039600Y-66354800D03*
%TO.P,J6,5,Pin_5*%
%TO.N,GND*%
X136499600Y-63814800D03*
%TO.P,J6,6,Pin_6*%
%TO.N,/AS0*%
X136499600Y-66354800D03*
%TD*%
D13*
%TO.P,R13,1*%
%TO.N,/BA18*%
X117703600Y-80721200D03*
D14*
%TO.P,R13,2*%
%TO.N,Net-(J4-Pin_6)*%
X117703600Y-70561200D03*
%TD*%
D21*
%TO.P,JP2,1,A*%
%TO.N,VCC*%
X182976600Y-106476800D03*
D24*
%TO.P,JP2,2,B*%
%TO.N,Net-(JP2-B)*%
X185516600Y-106476800D03*
%TD*%
D25*
%TO.P,Y2,1,1*%
%TO.N,Net-(U5-X2)*%
X148742400Y-112979200D03*
%TO.P,Y2,2,2*%
%TO.N,Net-(U5-X1)*%
X148742400Y-114679200D03*
%TD*%
D21*
%TO.P,J3,1,Pin_1*%
%TO.N,VCC*%
X101691600Y-63844800D03*
D22*
%TO.P,J3,2,Pin_2*%
%TO.N,Net-(J3-Pin_2)*%
X101691600Y-66384800D03*
%TO.P,J3,3,Pin_3*%
%TO.N,VCC*%
X99151600Y-63844800D03*
%TO.P,J3,4,Pin_4*%
%TO.N,Net-(J3-Pin_4)*%
X99151600Y-66384800D03*
%TO.P,J3,5,Pin_5*%
%TO.N,VCC*%
X96611600Y-63844800D03*
%TO.P,J3,6,Pin_6*%
%TO.N,Net-(J3-Pin_6)*%
X96611600Y-66384800D03*
%TO.P,J3,7,Pin_7*%
%TO.N,VCC*%
X94071600Y-63844800D03*
%TO.P,J3,8,Pin_8*%
%TO.N,Net-(J3-Pin_8)*%
X94071600Y-66384800D03*
%TD*%
D21*
%TO.P,JP1,1,A*%
%TO.N,Net-(JP1-A)*%
X159054800Y-98267600D03*
D24*
%TO.P,JP1,2,B*%
%TO.N,GND*%
X156514800Y-98267600D03*
%TD*%
D13*
%TO.P,R22,1*%
%TO.N,/AS2*%
X142087600Y-70561200D03*
D14*
%TO.P,R22,2*%
%TO.N,VCC*%
X142087600Y-80721200D03*
%TD*%
D13*
%TO.P,R11,1*%
%TO.N,/BA20*%
X123799600Y-80721200D03*
D14*
%TO.P,R11,2*%
%TO.N,Net-(J4-Pin_2)*%
X123799600Y-70561200D03*
%TD*%
D13*
%TO.P,R2,1*%
%TO.N,/JP*%
X129895600Y-80721200D03*
D14*
%TO.P,R2,2*%
%TO.N,Net-(J1-Pin_2)*%
X129895600Y-70561200D03*
%TD*%
D13*
%TO.P,R4,1*%
%TO.N,/BD6*%
X108559600Y-80721200D03*
D14*
%TO.P,R4,2*%
%TO.N,Net-(J2-Pin_2)*%
X108559600Y-70561200D03*
%TD*%
D13*
%TO.P,C12,1*%
%TO.N,VCC*%
X150611200Y-83007200D03*
%TO.P,C12,2*%
%TO.N,GND*%
X155611200Y-83007200D03*
%TD*%
%TO.P,C11,1*%
%TO.N,VCC*%
X182727600Y-110022000D03*
%TO.P,C11,2*%
%TO.N,GND*%
X182727600Y-115022000D03*
%TD*%
%TO.P,R14,1*%
%TO.N,/BA17*%
X114655600Y-80721200D03*
D14*
%TO.P,R14,2*%
%TO.N,Net-(J4-Pin_8)*%
X114655600Y-70561200D03*
%TD*%
D13*
%TO.P,R20,1*%
%TO.N,/AS0*%
X135991600Y-70561200D03*
D14*
%TO.P,R20,2*%
%TO.N,VCC*%
X135991600Y-80721200D03*
%TD*%
D13*
%TO.P,R15,1*%
%TO.N,/BA16*%
X111607600Y-80721200D03*
D14*
%TO.P,R15,2*%
%TO.N,Net-(J4-Pin_10)*%
X111607600Y-70561200D03*
%TD*%
D13*
%TO.P,R7,1*%
%TO.N,/BD2*%
X99415600Y-80721200D03*
D14*
%TO.P,R7,2*%
%TO.N,Net-(J3-Pin_4)*%
X99415600Y-70561200D03*
%TD*%
D13*
%TO.P,R3,1*%
%TO.N,/BA21*%
X126847600Y-80721200D03*
D14*
%TO.P,R3,2*%
%TO.N,Net-(J1-Pin_4)*%
X126847600Y-70561200D03*
%TD*%
D26*
%TO.P,U5,1,MOT*%
%TO.N,unconnected-(U5-MOT-Pad1)*%
X151429800Y-117043200D03*
D27*
%TO.P,U5,2,X1*%
%TO.N,Net-(U5-X1)*%
X153969800Y-117043200D03*
%TO.P,U5,3,X2*%
%TO.N,Net-(U5-X2)*%
X156509800Y-117043200D03*
%TO.P,U5,4,AD0*%
%TO.N,/D0*%
X159049800Y-117043200D03*
%TO.P,U5,5,AD1*%
%TO.N,/D1*%
X161589800Y-117043200D03*
%TO.P,U5,6,AD2*%
%TO.N,/D2*%
X164129800Y-117043200D03*
%TO.P,U5,7,AD3*%
%TO.N,/D3*%
X166669800Y-117043200D03*
%TO.P,U5,8,AD4*%
%TO.N,/D4*%
X169209800Y-117043200D03*
%TO.P,U5,9,AD5*%
%TO.N,/D5*%
X171749800Y-117043200D03*
%TO.P,U5,10,AD6*%
%TO.N,/D6*%
X174289800Y-117043200D03*
%TO.P,U5,11,AD7*%
%TO.N,/D7*%
X176829800Y-117043200D03*
%TO.P,U5,12,GND*%
%TO.N,GND*%
X179369800Y-117043200D03*
%TO.P,U5,13,~{CS}*%
X179369800Y-101803200D03*
%TO.P,U5,14,AS*%
%TO.N,/RTCALE*%
X176829800Y-101803200D03*
%TO.P,U5,15,R/~{W}*%
%TO.N,/RTCWR*%
X174289800Y-101803200D03*
%TO.P,U5,16,GND*%
%TO.N,GND*%
X171749800Y-101803200D03*
%TO.P,U5,17,DS*%
%TO.N,/RTCRD*%
X169209800Y-101803200D03*
%TO.P,U5,18,~{RESET}*%
%TO.N,VCC*%
X166669800Y-101803200D03*
%TO.P,U5,19,~{IRQ}*%
%TO.N,/~{IRQ}*%
X164129800Y-101803200D03*
%TO.P,U5,20,VBAT*%
%TO.N,Net-(BT1-+)*%
X161589800Y-101803200D03*
%TO.P,U5,21,~{RCLR}*%
%TO.N,Net-(JP1-A)*%
X159049800Y-101803200D03*
%TO.P,U5,22,NC*%
%TO.N,unconnected-(U5-NC-Pad22)*%
X156509800Y-101803200D03*
%TO.P,U5,23,SQW*%
%TO.N,unconnected-(U5-SQW-Pad23)*%
X153969800Y-101803200D03*
%TO.P,U5,24,VCC*%
%TO.N,Net-(JP2-B)*%
X151429800Y-101803200D03*
%TD*%
D26*
%TO.P,U4,1,I/CLK*%
%TO.N,/A0*%
X150876000Y-94488000D03*
D27*
%TO.P,U4,2,I1*%
%TO.N,/A2*%
X153416000Y-94488000D03*
%TO.P,U4,3,I2*%
%TO.N,/A3*%
X155956000Y-94488000D03*
%TO.P,U4,4,I3*%
%TO.N,/A4*%
X158496000Y-94488000D03*
%TO.P,U4,5,I4*%
%TO.N,/A5*%
X161036000Y-94488000D03*
%TO.P,U4,6,I5*%
%TO.N,/A6*%
X163576000Y-94488000D03*
%TO.P,U4,7,I6*%
%TO.N,/A7*%
X166116000Y-94488000D03*
%TO.P,U4,8,I7*%
%TO.N,/A8*%
X168656000Y-94488000D03*
%TO.P,U4,9,I8*%
%TO.N,/A9*%
X171196000Y-94488000D03*
%TO.P,U4,10,GND*%
%TO.N,GND*%
X173736000Y-94488000D03*
%TO.P,U4,11,I9/~{OE}*%
%TO.N,/AS2*%
X173736000Y-86868000D03*
%TO.P,U4,12,I/O8*%
%TO.N,/~{IOW}*%
X171196000Y-86868000D03*
%TO.P,U4,13,I/O7*%
%TO.N,/~{IOR}*%
X168656000Y-86868000D03*
%TO.P,U4,14,I/O6*%
%TO.N,/RTCALE*%
X166116000Y-86868000D03*
%TO.P,U4,15,I/O5*%
%TO.N,/RTCWR*%
X163576000Y-86868000D03*
%TO.P,U4,16,I/O4*%
%TO.N,/RTCRD*%
X161036000Y-86868000D03*
%TO.P,U4,17,I/O3*%
%TO.N,/AEN*%
X158496000Y-86868000D03*
%TO.P,U4,18,I/O2*%
%TO.N,/AS1*%
X155956000Y-86868000D03*
%TO.P,U4,19,I/O1*%
%TO.N,/AS0*%
X153416000Y-86868000D03*
%TO.P,U4,20,VCC*%
%TO.N,Net-(JP3-B)*%
X150876000Y-86868000D03*
%TD*%
D28*
%TO.N,/A0*%
X131470400Y-101904800D03*
X115265200Y-112166400D03*
X104140000Y-123190000D03*
X137414000Y-100279200D03*
X116078000Y-103174800D03*
%TO.N,/A1*%
X106680000Y-123393200D03*
%TO.N,/A10*%
X123989400Y-115961000D03*
%TO.N,/A11*%
X124639400Y-117297200D03*
%TO.N,/A12*%
X125289400Y-118059200D03*
%TO.N,/A13*%
X125939400Y-116586000D03*
%TO.N,/A2*%
X109596907Y-124184693D03*
X140932500Y-96554100D03*
X127242600Y-108601700D03*
%TO.N,/A3*%
X112637705Y-121801989D03*
X126815500Y-109493700D03*
X142074300Y-96953200D03*
%TO.N,/A4*%
X137075800Y-95643300D03*
X114336516Y-120984094D03*
X120433400Y-101187700D03*
X121548000Y-110468000D03*
X128702400Y-101538800D03*
%TO.N,/A5*%
X142797400Y-97683500D03*
X118618000Y-120802400D03*
X125409900Y-111252800D03*
%TO.N,/A6*%
X121354892Y-111877800D03*
X140716000Y-111556800D03*
X119497000Y-120316281D03*
X149555200Y-108762800D03*
%TO.N,/A7*%
X121920000Y-122529600D03*
X178257200Y-69240400D03*
X90576400Y-61366400D03*
X134414385Y-61584169D03*
%TO.N,/A8*%
X179527200Y-69240400D03*
X122682000Y-118770400D03*
X134366000Y-60198000D03*
%TO.N,/A9*%
X127000000Y-122377200D03*
X170230800Y-99110800D03*
X167944800Y-104409400D03*
X123088400Y-117957600D03*
X172974000Y-110794800D03*
X134162800Y-119024400D03*
X137363200Y-117500400D03*
%TO.N,/AEN*%
X137565105Y-111267400D03*
X156117000Y-89135500D03*
%TO.N,/~{IOR}*%
X140970000Y-116332000D03*
X147066000Y-119024400D03*
X131936512Y-116648832D03*
X147523200Y-109118400D03*
%TO.N,/~{IOW}*%
X153517600Y-121666000D03*
X150622000Y-122021600D03*
X177952400Y-121513600D03*
X151841200Y-120228200D03*
X166319200Y-104531800D03*
%TO.N,GND*%
X130226900Y-99935200D03*
X157886400Y-122224800D03*
X144242400Y-113829200D03*
X148742400Y-111506000D03*
X136855200Y-113741200D03*
D29*
X93370400Y-123799600D03*
D28*
X130588700Y-102840400D03*
D29*
%TO.N,VCC*%
X178816000Y-123799600D03*
D28*
X113487200Y-103835200D03*
X171680200Y-104530000D03*
X119024400Y-100228400D03*
X123342400Y-112689800D03*
X116189300Y-112318800D03*
D29*
X101447600Y-124510800D03*
D28*
X107764800Y-105819500D03*
%TO.N,/RSTDRV*%
X136448800Y-109982000D03*
%TO.N,/IRQ9*%
X114909600Y-115966000D03*
%TO.N,/~{SMEMW}*%
X129758900Y-109449800D03*
X155752800Y-121818400D03*
X155752800Y-119126000D03*
X136956800Y-110642400D03*
X116933200Y-75908400D03*
%TO.N,/~{SMEMR}*%
X91846400Y-116417000D03*
X92151200Y-115163600D03*
X133858000Y-112979200D03*
X154482800Y-122224800D03*
X147969600Y-115452000D03*
%TO.N,/IRQ5*%
X108458000Y-121767600D03*
%TO.N,/IRQ4*%
X109289490Y-122482693D03*
%TO.N,/IRQ3*%
X110484705Y-122665500D03*
%TO.N,/TP_RX-*%
X130403600Y-74269600D03*
X128828800Y-91694000D03*
X147116800Y-74117200D03*
%TO.N,/TP_RX+*%
X127974300Y-90698800D03*
X168646000Y-69850000D03*
X128524000Y-68986400D03*
%TO.N,/TP_TX-*%
X170281600Y-96469200D03*
X162560000Y-96418400D03*
X160731200Y-96418400D03*
%TO.N,/TP_TX+*%
X160922700Y-100133500D03*
X182016400Y-102514400D03*
%TO.N,/LED_LINK*%
X125272800Y-98196400D03*
X137464800Y-103616600D03*
%TO.N,/BD6*%
X95600200Y-99762800D03*
%TO.N,/BD4*%
X108065900Y-102957700D03*
X108197000Y-97569000D03*
X94683000Y-106293300D03*
%TO.N,/BD1*%
X112721200Y-100204100D03*
%TO.N,/BA15*%
X75768000Y-75073200D03*
X117305100Y-94017000D03*
X117075100Y-76847900D03*
%TO.N,/BA14*%
X113950900Y-99461800D03*
%TO.N,/~{BCS}*%
X109230300Y-97168600D03*
X96664500Y-98438900D03*
%TO.N,/EECS*%
X115747100Y-94335200D03*
X97255500Y-102605900D03*
%TO.N,/BD7*%
X110163500Y-97381100D03*
X97372800Y-101050100D03*
%TO.N,/LED_CRS*%
X145364300Y-82090900D03*
X149733300Y-81929200D03*
%TO.N,Net-(J5-RCT)*%
X183540400Y-90322400D03*
%TO.N,Net-(BT1-+)*%
X170180000Y-83870800D03*
X171805600Y-71882000D03*
%TO.N,/AS2*%
X171621700Y-73880100D03*
%TO.N,Net-(JP2-B)*%
X183286400Y-103159400D03*
%TD*%
D30*
%TO.N,/A0*%
X104140000Y-123190000D02*
X104140000Y-122783600D01*
X116078000Y-103174800D02*
X116078000Y-111353600D01*
X74123400Y-99218600D02*
X73863200Y-98958400D01*
X137414000Y-100279200D02*
X136601200Y-101092000D01*
X136601200Y-101092000D02*
X132283200Y-101092000D01*
X104140000Y-122783600D02*
X103829000Y-122472600D01*
X103829000Y-122472600D02*
X89249400Y-122472600D01*
X89249400Y-122472600D02*
X74123400Y-107346600D01*
X116078000Y-111353600D02*
X115265200Y-112166400D01*
X73863200Y-98958400D02*
X72898000Y-98958400D01*
X132283200Y-101092000D02*
X131470400Y-101904800D01*
X74123400Y-107346600D02*
X74123400Y-99218600D01*
%TO.N,/A1*%
X74218800Y-96418400D02*
X72898000Y-96418400D01*
X90072390Y-122003000D02*
X89434690Y-122003000D01*
X90090990Y-122021600D02*
X90072390Y-122003000D01*
X106680000Y-123393200D02*
X106680000Y-123088400D01*
X105613200Y-122021600D02*
X90090990Y-122021600D01*
X83431000Y-115993800D02*
X74574400Y-107137200D01*
X74574400Y-96774000D02*
X74218800Y-96418400D01*
X89434690Y-122003000D02*
X83431000Y-115999310D01*
X106680000Y-123088400D02*
X105613200Y-122021600D01*
X83431000Y-115999310D02*
X83431000Y-115993800D01*
X74574400Y-107137200D02*
X74574400Y-96774000D01*
%TO.N,/A10*%
X92862400Y-116535200D02*
X114593502Y-116535200D01*
X91891902Y-115789600D02*
X92116800Y-115789600D01*
X118074390Y-116185800D02*
X123764600Y-116185800D01*
X91525200Y-115198000D02*
X91525200Y-115422898D01*
X92116800Y-115789600D02*
X92862400Y-116535200D01*
X115168898Y-116592000D02*
X115225698Y-116535200D01*
X83566000Y-93878400D02*
X80480800Y-96963600D01*
X114650302Y-116592000D02*
X115168898Y-116592000D01*
X80480800Y-104153600D02*
X91525200Y-115198000D01*
X117724990Y-116535200D02*
X118074390Y-116185800D01*
X91525200Y-115422898D02*
X91891902Y-115789600D01*
X115225698Y-116535200D02*
X117724990Y-116535200D01*
X123764600Y-116185800D02*
X123989400Y-115961000D01*
X88138000Y-93878400D02*
X83566000Y-93878400D01*
X80480800Y-96963600D02*
X80480800Y-104153600D01*
X114593502Y-116535200D02*
X114650302Y-116592000D01*
%TO.N,/A11*%
X91302790Y-117493000D02*
X87941000Y-114131210D01*
X124639400Y-117297200D02*
X122863502Y-117297200D01*
X122667702Y-117493000D02*
X91302790Y-117493000D01*
X82352420Y-88798400D02*
X88138000Y-88798400D01*
X79127800Y-105301150D02*
X79127800Y-92023020D01*
X122863502Y-117297200D02*
X122667702Y-117493000D01*
X87941000Y-114114350D02*
X79127800Y-105301150D01*
X79127800Y-92023020D02*
X82352420Y-88798400D01*
X87941000Y-114131210D02*
X87941000Y-114114350D01*
%TO.N,/A12*%
X86588000Y-114674780D02*
X77774800Y-105861580D01*
X122021600Y-119430800D02*
X121436800Y-118846000D01*
X77774800Y-105861580D02*
X77774800Y-83515200D01*
X121436800Y-118846000D02*
X90742360Y-118846000D01*
X86588000Y-114691640D02*
X86588000Y-114674780D01*
X122970708Y-119430800D02*
X122021600Y-119430800D01*
X90742360Y-118846000D02*
X86588000Y-114691640D01*
X124342308Y-118059200D02*
X122970708Y-119430800D01*
X125289400Y-118059200D02*
X124342308Y-118059200D01*
X77774800Y-83515200D02*
X72898000Y-78638400D01*
%TO.N,/A13*%
X117856000Y-117042000D02*
X91489600Y-117042000D01*
X89408000Y-82448400D02*
X88138000Y-81178400D01*
X88392000Y-113944400D02*
X88392000Y-113927540D01*
X79578800Y-92209830D02*
X81720230Y-90068400D01*
X118261200Y-116636800D02*
X117856000Y-117042000D01*
X89408000Y-89255600D02*
X89408000Y-82448400D01*
X88392000Y-113927540D02*
X79578800Y-105114340D01*
X88595200Y-90068400D02*
X89408000Y-89255600D01*
X125939400Y-116586000D02*
X125888600Y-116636800D01*
X125888600Y-116636800D02*
X118261200Y-116636800D01*
X79578800Y-105114340D02*
X79578800Y-92209830D01*
X81720230Y-90068400D02*
X88595200Y-90068400D01*
X91489600Y-117042000D02*
X88392000Y-113944400D01*
%TO.N,/A2*%
X109567414Y-124155200D02*
X109321340Y-124155200D01*
X138158200Y-99328400D02*
X138158200Y-103828100D01*
X137086100Y-104900200D02*
X135195000Y-104900200D01*
X90259200Y-121552000D02*
X89621500Y-121552000D01*
X128758300Y-110117400D02*
X127242600Y-108601700D01*
X105873400Y-121570600D02*
X90277800Y-121570600D01*
X135195000Y-104900200D02*
X130163400Y-109931800D01*
X75031600Y-96012000D02*
X72898000Y-93878400D01*
X90277800Y-121570600D02*
X90259200Y-121552000D01*
X108850940Y-123684800D02*
X107987600Y-123684800D01*
X129977800Y-110117400D02*
X128758300Y-110117400D01*
X138158200Y-103828100D02*
X137086100Y-104900200D01*
X83882000Y-115812500D02*
X83882000Y-115806990D01*
X89621500Y-121552000D02*
X83882000Y-115812500D01*
X107987600Y-123684800D02*
X105873400Y-121570600D01*
X130163400Y-109931800D02*
X129977800Y-110117400D01*
X109321340Y-124155200D02*
X108850940Y-123684800D01*
X130163400Y-109931800D02*
X129977800Y-110117400D01*
X109596907Y-124184693D02*
X109567414Y-124155200D01*
X83882000Y-115806990D02*
X75031600Y-106956590D01*
X75031600Y-106956590D02*
X75031600Y-96012000D01*
X140932500Y-96554100D02*
X138158200Y-99328400D01*
%TO.N,/A3*%
X84333000Y-115625690D02*
X84333000Y-115620180D01*
X75488800Y-106775980D02*
X75488800Y-93929200D01*
X130350500Y-110383500D02*
X130164900Y-110569100D01*
X75488800Y-93929200D02*
X72898000Y-91338400D01*
X89808310Y-121101000D02*
X84333000Y-115625690D01*
X130164900Y-110569100D02*
X127890900Y-110569100D01*
X138609900Y-104092700D02*
X132583700Y-110118900D01*
X111936716Y-121101000D02*
X89808310Y-121101000D01*
X142074300Y-96953200D02*
X138609900Y-100417600D01*
X127890900Y-110569100D02*
X126815500Y-109493700D01*
X132583700Y-110118900D02*
X130615100Y-110118900D01*
X130615100Y-110118900D02*
X130350500Y-110383500D01*
X130350500Y-110383500D02*
X130164900Y-110569100D01*
X112637705Y-121801989D02*
X111936716Y-121101000D01*
X84333000Y-115620180D02*
X75488800Y-106775980D01*
X138609900Y-100417600D02*
X138609900Y-104092700D01*
%TO.N,/A4*%
X134929300Y-97789800D02*
X137075800Y-95643300D01*
X112369600Y-120650000D02*
X89995120Y-120650000D01*
X131453000Y-97789800D02*
X134929300Y-97789800D01*
X75939800Y-106589170D02*
X75939800Y-91840200D01*
X121548000Y-110468000D02*
X120433400Y-109353400D01*
X75939800Y-91840200D02*
X72898000Y-88798400D01*
X89995120Y-120650000D02*
X84784000Y-115438880D01*
X120433400Y-109353400D02*
X120433400Y-101187700D01*
X112703694Y-120984094D02*
X112369600Y-120650000D01*
X128702400Y-100540400D02*
X131453000Y-97789800D01*
X84784000Y-115438880D02*
X84784000Y-115433370D01*
X128702400Y-101538800D02*
X128702400Y-100540400D01*
X114336516Y-120984094D02*
X112703694Y-120984094D01*
X84784000Y-115433370D02*
X75939800Y-106589170D01*
%TO.N,/A5*%
X76403200Y-106414760D02*
X76403200Y-89763600D01*
X142797400Y-97683500D02*
X139061600Y-101419300D01*
X139061600Y-101419300D02*
X139061600Y-104284000D01*
X139061600Y-104284000D02*
X132252400Y-111093200D01*
X85140800Y-115152360D02*
X76403200Y-106414760D01*
X85152150Y-115152360D02*
X85140800Y-115152360D01*
X90181930Y-120199000D02*
X85235000Y-115252070D01*
X76403200Y-89763600D02*
X72898000Y-86258400D01*
X85235000Y-115252070D02*
X85235000Y-115235210D01*
X118014600Y-120199000D02*
X90181930Y-120199000D01*
X118618000Y-120802400D02*
X118014600Y-120199000D01*
X85235000Y-115235210D02*
X85152150Y-115152360D01*
X132252400Y-111093200D02*
X125569500Y-111093200D01*
X125569500Y-111093200D02*
X125409900Y-111252800D01*
%TO.N,/A6*%
X162516398Y-98145600D02*
X163576000Y-97085998D01*
X119497000Y-120316281D02*
X119468081Y-120345200D01*
X119468081Y-120345200D02*
X119380000Y-120345200D01*
X90368740Y-119748000D02*
X85686000Y-115065260D01*
X119380000Y-120345200D02*
X118782800Y-119748000D01*
X121354892Y-111877800D02*
X121541892Y-112064800D01*
X76860400Y-87680800D02*
X72898000Y-83718400D01*
X163576000Y-97085998D02*
X163576000Y-94488000D01*
X118782800Y-119748000D02*
X90368740Y-119748000D01*
X160296700Y-99874202D02*
X162025302Y-98145600D01*
X160296700Y-103914100D02*
X160296700Y-99874202D01*
X155448000Y-108762800D02*
X160296700Y-103914100D01*
X76860400Y-106222800D02*
X76860400Y-87680800D01*
X121541892Y-112064800D02*
X140208000Y-112064800D01*
X85686000Y-115065260D02*
X85686000Y-115048400D01*
X140208000Y-112064800D02*
X140716000Y-111556800D01*
X162025302Y-98145600D02*
X162516398Y-98145600D01*
X149555200Y-108762800D02*
X155448000Y-108762800D01*
X85686000Y-115048400D02*
X76860400Y-106222800D01*
%TO.N,/A7*%
X178257200Y-76250800D02*
X178257200Y-69240400D01*
X121227400Y-119297000D02*
X121920000Y-119989600D01*
X90830400Y-61620400D02*
X134112000Y-61620400D01*
X86137000Y-114861590D02*
X86137000Y-114878450D01*
X77311400Y-85591800D02*
X77311400Y-106035990D01*
X175463200Y-89204800D02*
X178257200Y-86410800D01*
X171399200Y-89204800D02*
X175463200Y-89204800D01*
X90576400Y-61366400D02*
X90830400Y-61620400D01*
X178257200Y-84480400D02*
X178257200Y-76250800D01*
X86137000Y-114878450D02*
X90555550Y-119297000D01*
X72898000Y-81178400D02*
X77311400Y-85591800D01*
X121920000Y-119989600D02*
X121920000Y-122529600D01*
X134148231Y-61584169D02*
X134414385Y-61584169D01*
X178257200Y-86410800D02*
X178257200Y-84480400D01*
X134112000Y-61620400D02*
X134148231Y-61584169D01*
X90555550Y-119297000D02*
X121227400Y-119297000D01*
X166116000Y-94488000D02*
X171399200Y-89204800D01*
X77311400Y-106035990D02*
X86137000Y-114861590D01*
%TO.N,/A8*%
X179527200Y-69240400D02*
X179527200Y-84429600D01*
X121646200Y-118395000D02*
X90929170Y-118395000D01*
X175869600Y-90474800D02*
X172669200Y-90474800D01*
X87039000Y-114504830D02*
X87039000Y-114487970D01*
X78225800Y-105674770D02*
X78225800Y-91649400D01*
X179527200Y-84429600D02*
X179476400Y-84480400D01*
X179476400Y-86868000D02*
X175869600Y-90474800D01*
X89408000Y-60248800D02*
X134315200Y-60248800D01*
X86156800Y-83718400D02*
X86156800Y-63500000D01*
X78225800Y-91649400D02*
X86156800Y-83718400D01*
X179476400Y-84480400D02*
X179476400Y-86868000D01*
X122682000Y-118770400D02*
X122021600Y-118770400D01*
X90929170Y-118395000D02*
X87039000Y-114504830D01*
X87039000Y-114487970D02*
X78225800Y-105674770D01*
X86156800Y-63500000D02*
X89408000Y-60248800D01*
X172669200Y-90474800D02*
X168656000Y-94488000D01*
X122021600Y-118770400D02*
X121646200Y-118395000D01*
X86156800Y-83718400D02*
X88138000Y-83718400D01*
X134315200Y-60248800D02*
X134366000Y-60198000D01*
%TO.N,/A9*%
X130352800Y-119024400D02*
X134162800Y-119024400D01*
X171078000Y-119752000D02*
X172974000Y-117856000D01*
X84254610Y-86258400D02*
X88138000Y-86258400D01*
X153584800Y-119752000D02*
X171078000Y-119752000D01*
X169909796Y-99110800D02*
X170230800Y-99110800D01*
X172923200Y-111201200D02*
X172923200Y-110845600D01*
X172974000Y-111252000D02*
X172923200Y-111201200D01*
X172923200Y-110845600D02*
X172974000Y-110794800D01*
X167944800Y-104409400D02*
X167944800Y-101075796D01*
X91115980Y-117944000D02*
X87490000Y-114318020D01*
X87490000Y-114318020D02*
X87490000Y-114301160D01*
X87490000Y-114301160D02*
X78676800Y-105487960D01*
X78676800Y-91836210D02*
X84254610Y-86258400D01*
X123074800Y-117944000D02*
X91115980Y-117944000D01*
X149555200Y-119227600D02*
X149606000Y-119278400D01*
X147828000Y-117500400D02*
X149555200Y-119227600D01*
X153111200Y-119278400D02*
X153584800Y-119752000D01*
X167944800Y-101075796D02*
X169909796Y-99110800D01*
X172974000Y-115874800D02*
X172974000Y-111252000D01*
X123088400Y-117957600D02*
X123074800Y-117944000D01*
X172974000Y-117856000D02*
X172974000Y-115874800D01*
X78676800Y-105487960D02*
X78676800Y-91836210D01*
X127000000Y-122377200D02*
X130352800Y-119024400D01*
X149606000Y-119278400D02*
X153111200Y-119278400D01*
X137363200Y-117500400D02*
X147828000Y-117500400D01*
%TO.N,/AEN*%
X136042400Y-111313500D02*
X136336500Y-111607600D01*
X139514800Y-104843800D02*
X135634600Y-108724000D01*
X137565105Y-111267400D02*
X137224905Y-111607600D01*
X135634600Y-108724000D02*
X135634600Y-110488600D01*
X139514800Y-103481500D02*
X139514800Y-104843800D01*
X136042400Y-110896400D02*
X136042400Y-111313500D01*
X137224905Y-111607600D02*
X136499600Y-111607600D01*
X136336500Y-111607600D02*
X136499600Y-111607600D01*
X153860800Y-89135500D02*
X139514800Y-103481500D01*
X135634600Y-110488600D02*
X136042400Y-110896400D01*
X156117000Y-89135500D02*
X153860800Y-89135500D01*
%TO.N,/~{IOR}*%
X152843800Y-103797800D02*
X147523200Y-109118400D01*
X159100700Y-91889800D02*
X157369300Y-93621200D01*
X157690800Y-98646000D02*
X157690800Y-98754716D01*
X157709800Y-98627000D02*
X157690800Y-98646000D01*
X154197896Y-99582700D02*
X152843800Y-100936796D01*
X152843800Y-100936796D02*
X152843800Y-103797800D01*
X157001916Y-99443600D02*
X156893200Y-99443600D01*
X132384800Y-116636800D02*
X132689600Y-116332000D01*
X157369300Y-93621200D02*
X157369300Y-95354800D01*
X156754100Y-99582700D02*
X154197896Y-99582700D01*
X132689600Y-116332000D02*
X140970000Y-116332000D01*
X157709800Y-95695300D02*
X157709800Y-98627000D01*
X132101416Y-116648832D02*
X132113448Y-116636800D01*
X147320000Y-130492500D02*
X147320000Y-119278400D01*
X168656000Y-86868000D02*
X163634200Y-91889800D01*
X156893200Y-99443600D02*
X156754100Y-99582700D01*
X157690800Y-98754716D02*
X157001916Y-99443600D01*
X131936512Y-116648832D02*
X132101416Y-116648832D01*
X147320000Y-119278400D02*
X147066000Y-119024400D01*
X157369300Y-95354800D02*
X157709800Y-95695300D01*
X147320000Y-130492500D02*
X147320000Y-130492000D01*
X163634200Y-91889800D02*
X159100700Y-91889800D01*
X132113448Y-116636800D02*
X132384800Y-116636800D01*
%TO.N,/~{IOW}*%
X164702000Y-93920800D02*
X164702000Y-97191595D01*
X151841200Y-120228200D02*
X176362200Y-120228200D01*
X150977600Y-121666000D02*
X150622000Y-122021600D01*
X164990000Y-93621596D02*
X164990000Y-93632800D01*
X149860000Y-122783600D02*
X149860000Y-130492500D01*
X150622000Y-122021600D02*
X149860000Y-122783600D01*
X171196000Y-87426800D02*
X165660800Y-92962000D01*
X164990000Y-93632800D02*
X164702000Y-93920800D01*
X149860000Y-130492500D02*
X149860000Y-130492000D01*
X171196000Y-86868000D02*
X171196000Y-87426800D01*
X165660800Y-92962000D02*
X165649596Y-92962000D01*
X176362200Y-120228200D02*
X177647600Y-121513600D01*
X165649596Y-92962000D02*
X164990000Y-93621596D01*
X177647600Y-121513600D02*
X177952400Y-121513600D01*
X164702000Y-97191595D02*
X165543800Y-98033395D01*
X165543800Y-98033395D02*
X165543800Y-103756400D01*
X153517600Y-121666000D02*
X150977600Y-121666000D01*
X165543800Y-103756400D02*
X166319200Y-104531800D01*
D31*
%TO.N,GND*%
X193000000Y-86360000D02*
X204724000Y-86360000D01*
X70713600Y-120548400D02*
X70764400Y-120599200D01*
D30*
X155611200Y-83007200D02*
X157103600Y-84499600D01*
D31*
X70072554Y-124644434D02*
X70161446Y-124976184D01*
X167284400Y-58826400D02*
X139039600Y-58826400D01*
X204724000Y-103124000D02*
X204724000Y-86360000D01*
X83210400Y-58826400D02*
X71475600Y-58826400D01*
D30*
X175523900Y-96275900D02*
X175523900Y-100256100D01*
X171749800Y-101803200D02*
X173296900Y-100256100D01*
D31*
X174904400Y-58826400D02*
X174904400Y-59334400D01*
D30*
X157103600Y-85341300D02*
X157103600Y-91346900D01*
D31*
X204635750Y-59703350D02*
X203758800Y-58826400D01*
X184726000Y-102390000D02*
X182575200Y-100239200D01*
X70061000Y-108915200D02*
X70061000Y-120548400D01*
X203758800Y-58826400D02*
X201117200Y-58826400D01*
D30*
X104140000Y-130492500D02*
X104140000Y-130492000D01*
D31*
X185126000Y-90170000D02*
X182575200Y-87619200D01*
X154584400Y-83007200D02*
X155611200Y-83007200D01*
X103644700Y-125933200D02*
X104140000Y-126428500D01*
X192520000Y-86840000D02*
X193000000Y-86360000D01*
X180933800Y-100239200D02*
X179369800Y-101803200D01*
D30*
X148742400Y-111506000D02*
X146565600Y-111506000D01*
X130226900Y-99935200D02*
X135706600Y-99935200D01*
D31*
X145440400Y-73863200D02*
X154584400Y-83007200D01*
D30*
X130226900Y-99935200D02*
X130226900Y-102478600D01*
D31*
X83210400Y-59283600D02*
X83199600Y-59294400D01*
X70061000Y-124290355D02*
X70072554Y-124644434D01*
D30*
X146565600Y-111506000D02*
X144242400Y-113829200D01*
D31*
X143621600Y-63814800D02*
X145440400Y-65633600D01*
X136499600Y-63814800D02*
X133594000Y-63814800D01*
X187810779Y-116639979D02*
X187810779Y-120599200D01*
X204724000Y-86360000D02*
X204724000Y-65887600D01*
X70061000Y-120548400D02*
X70061000Y-124290355D01*
X201117200Y-59385200D02*
X201041000Y-59461400D01*
X192520000Y-102390000D02*
X184726000Y-102390000D01*
X180380000Y-115022000D02*
X179369800Y-116032200D01*
D30*
X173296900Y-100256100D02*
X175523900Y-100256100D01*
X179370000Y-101803000D02*
X179369800Y-101803200D01*
D31*
X70061000Y-120548400D02*
X70713600Y-120548400D01*
X193254000Y-103124000D02*
X204724000Y-103124000D01*
X204724000Y-65887600D02*
X204724000Y-60032705D01*
X202946000Y-125984000D02*
X204724000Y-124206000D01*
X182727600Y-115022000D02*
X180380000Y-115022000D01*
X204724000Y-124206000D02*
X204724000Y-103124000D01*
D30*
X154829300Y-93621200D02*
X154829300Y-96582100D01*
D31*
X186192800Y-115022000D02*
X187810779Y-116639979D01*
X145440400Y-65633600D02*
X145440400Y-73863200D01*
X70866000Y-109118400D02*
X72898000Y-109118400D01*
X136499600Y-63814800D02*
X141579600Y-63814800D01*
X70662800Y-108915200D02*
X70866000Y-109118400D01*
X182575200Y-100239200D02*
X180933800Y-100239200D01*
D30*
X157480000Y-122631200D02*
X157886400Y-122224800D01*
D31*
X201193400Y-65887600D02*
X201041000Y-66040000D01*
X201269600Y-122783600D02*
X201041000Y-122555000D01*
X104140000Y-126428500D02*
X104140000Y-130492500D01*
X167272800Y-72907200D02*
X167272800Y-76507200D01*
X174904400Y-58826400D02*
X167284400Y-58826400D01*
D30*
X157103600Y-91346900D02*
X154829300Y-93621200D01*
D31*
X141579600Y-63814800D02*
X143621600Y-63814800D01*
X71475600Y-58826400D02*
X70061000Y-60241000D01*
X83210400Y-58826400D02*
X83210400Y-59283600D01*
D30*
X144154400Y-113741200D02*
X144242400Y-113829200D01*
D31*
X139039600Y-58826400D02*
X139039600Y-63814800D01*
X201117200Y-58826400D02*
X201117200Y-59385200D01*
X133594000Y-63814800D02*
X132943600Y-64465200D01*
X70061000Y-108915200D02*
X70662800Y-108915200D01*
X187807600Y-125984000D02*
X202946000Y-125984000D01*
D30*
X157103600Y-84499600D02*
X157103600Y-85341300D01*
D31*
X192520000Y-102390000D02*
X193254000Y-103124000D01*
X186690000Y-90170000D02*
X185126000Y-90170000D01*
X187810779Y-120599200D02*
X187810779Y-125980821D01*
X139039600Y-58826400D02*
X83210400Y-58826400D01*
X180340000Y-130492500D02*
X180340000Y-127609600D01*
D30*
X130226900Y-102478600D02*
X130588700Y-102840400D01*
D31*
X204724000Y-60032705D02*
X204635750Y-59703350D01*
X179369800Y-116032200D02*
X179369800Y-117043200D01*
X93472000Y-125933200D02*
X103644700Y-125933200D01*
X70161446Y-124976184D02*
X70966062Y-125780800D01*
D30*
X180340000Y-130492500D02*
X180340000Y-130492000D01*
D31*
X70061000Y-60241000D02*
X70061000Y-108915200D01*
X83199600Y-59294400D02*
X83199600Y-68021200D01*
X201041000Y-59461400D02*
X201041000Y-66040000D01*
X167272800Y-58838000D02*
X167272800Y-72907200D01*
X167284400Y-58826400D02*
X167272800Y-58838000D01*
X132943600Y-64465200D02*
X132943600Y-70561200D01*
X70764400Y-120599200D02*
X74106400Y-120599200D01*
D30*
X157480000Y-130492500D02*
X157480000Y-122631200D01*
D31*
X75133200Y-125933200D02*
X93472000Y-125933200D01*
X174904400Y-59334400D02*
X174899320Y-59339480D01*
X174899320Y-59339480D02*
X174899320Y-72999600D01*
D30*
X177823100Y-100256100D02*
X179370000Y-101803000D01*
X175523900Y-100256100D02*
X177823100Y-100256100D01*
D31*
X187810779Y-125980821D02*
X187807600Y-125984000D01*
X70966062Y-125780800D02*
X74980800Y-125780800D01*
X182727600Y-115022000D02*
X186192800Y-115022000D01*
X93472000Y-123901200D02*
X93370400Y-123799600D01*
D30*
X179369800Y-117043200D02*
X179370000Y-117043000D01*
X173736000Y-94488000D02*
X175523900Y-96275900D01*
D31*
X181965600Y-125984000D02*
X187807600Y-125984000D01*
X190020000Y-86840000D02*
X186690000Y-90170000D01*
X93472000Y-125933200D02*
X93472000Y-123901200D01*
D30*
X154829300Y-96582100D02*
X156514800Y-98267600D01*
D31*
X204724000Y-65887600D02*
X201193400Y-65887600D01*
X74980800Y-125780800D02*
X75133200Y-125933200D01*
X201117200Y-58826400D02*
X174904400Y-58826400D01*
D30*
X132943600Y-70561200D02*
X132944000Y-70561200D01*
D31*
X180340000Y-127609600D02*
X181965600Y-125984000D01*
D30*
X136855200Y-113741200D02*
X144154400Y-113741200D01*
X135706600Y-99935200D02*
X139621400Y-96020400D01*
D31*
X192520000Y-86840000D02*
X190020000Y-86840000D01*
D30*
%TO.N,VCC*%
X131489500Y-65692700D02*
X129641600Y-63844800D01*
X166669800Y-99827000D02*
X166669800Y-101803200D01*
X134621400Y-96020400D02*
X131489500Y-92888500D01*
X144373600Y-83007200D02*
X150611200Y-83007200D01*
X89163200Y-73983200D02*
X89163200Y-73161200D01*
X92089600Y-83676400D02*
X88120000Y-79706800D01*
X88562800Y-74583600D02*
X89163200Y-73983200D01*
X172437600Y-98267600D02*
X168229200Y-98267600D01*
X87745300Y-79706800D02*
X87112800Y-79074300D01*
X172437600Y-98267600D02*
X170585200Y-100120000D01*
D31*
X109220000Y-125222000D02*
X109220000Y-130492500D01*
X178816000Y-123799600D02*
X177088800Y-123799600D01*
D30*
X170585200Y-100120000D02*
X170585200Y-103435000D01*
X170585200Y-103435000D02*
X171680200Y-104530000D01*
X139039600Y-91602200D02*
X134621400Y-96020400D01*
X139039600Y-80721200D02*
X139039600Y-91602200D01*
X89103200Y-73101200D02*
X89103200Y-71983600D01*
X89163200Y-73161200D02*
X89103200Y-73101200D01*
X89103200Y-71983600D02*
X88138000Y-71018400D01*
X88137900Y-74583600D02*
X88562800Y-74583600D01*
X123342400Y-112689800D02*
X116560300Y-112689800D01*
D31*
X101447600Y-124510800D02*
X108508800Y-124510800D01*
D30*
X172437600Y-98267600D02*
X174345600Y-98267600D01*
X110299000Y-108353700D02*
X107764800Y-105819500D01*
X87112800Y-75608700D02*
X88137900Y-74583600D01*
D31*
X108508800Y-124510800D02*
X109220000Y-125222000D01*
D30*
X87112800Y-79074300D02*
X87112800Y-75608700D01*
X113487200Y-103835200D02*
X117094000Y-100228400D01*
X131489500Y-92888500D02*
X131489500Y-65692700D01*
D31*
X177088800Y-123799600D02*
X175260000Y-125628400D01*
D30*
X109220000Y-130492500D02*
X109220000Y-130492000D01*
X142087600Y-80721200D02*
X144373600Y-83007200D01*
X88120000Y-79706800D02*
X87745300Y-79706800D01*
X139039600Y-80721200D02*
X142087600Y-80721200D01*
X116560300Y-112689800D02*
X116189300Y-112318800D01*
X110299000Y-113688000D02*
X110299000Y-108353700D01*
X168229200Y-98267600D02*
X166669800Y-99827000D01*
D31*
X175260000Y-125628400D02*
X175260000Y-130492500D01*
D30*
X117094000Y-100228400D02*
X119024400Y-100228400D01*
X175260000Y-130492500D02*
X175260000Y-130492000D01*
X92089600Y-92710000D02*
X92089600Y-83676400D01*
X135991600Y-80721200D02*
X139039600Y-80721200D01*
%TO.N,/RSTDRV*%
X179730400Y-125272800D02*
X178562000Y-125272800D01*
X178104800Y-120751600D02*
X180035200Y-122682000D01*
X175615600Y-109982000D02*
X178104800Y-112471200D01*
X177800000Y-130492500D02*
X177800000Y-130492000D01*
X180035200Y-124968000D02*
X179730400Y-125272800D01*
X180035200Y-122682000D02*
X180035200Y-124968000D01*
X177800000Y-126034800D02*
X177800000Y-130492500D01*
X178562000Y-125272800D02*
X177800000Y-126034800D01*
X178104800Y-112471200D02*
X178104800Y-120751600D01*
X136448800Y-109982000D02*
X175615600Y-109982000D01*
%TO.N,/IRQ9*%
X147557600Y-118398400D02*
X130216800Y-118398400D01*
X125698200Y-115335000D02*
X123640600Y-115335000D01*
X114970800Y-116027200D02*
X114909600Y-115966000D01*
X172720000Y-121259600D02*
X172313600Y-120853200D01*
X130200400Y-118414800D02*
X128778000Y-118414800D01*
X128778000Y-118414800D02*
X125698200Y-115335000D01*
X117449600Y-116027200D02*
X114970800Y-116027200D01*
X172720000Y-130492500D02*
X172720000Y-121259600D01*
X172720000Y-130492500D02*
X172720000Y-130492000D01*
X150012400Y-120853200D02*
X147557600Y-118398400D01*
X123240800Y-115734800D02*
X117742000Y-115734800D01*
X130216800Y-118398400D02*
X130200400Y-118414800D01*
X123640600Y-115335000D02*
X123240800Y-115734800D01*
X117742000Y-115734800D02*
X117449600Y-116027200D01*
X172313600Y-120853200D02*
X150012400Y-120853200D01*
%TO.N,/~{SMEMW}*%
X155752800Y-119126000D02*
X155498800Y-119126000D01*
X154940000Y-123850400D02*
X154940000Y-130492500D01*
X119492800Y-99183700D02*
X119492800Y-78358400D01*
X155244800Y-118872000D02*
X155244800Y-112268000D01*
X117042800Y-75908400D02*
X116933200Y-75908400D01*
X129758900Y-109449800D02*
X119492800Y-99183700D01*
X155498800Y-119126000D02*
X155244800Y-118872000D01*
X154940000Y-130492500D02*
X154940000Y-130492000D01*
X119492800Y-78358400D02*
X117042800Y-75908400D01*
X153619200Y-110642400D02*
X136956800Y-110642400D01*
X155244800Y-112268000D02*
X153619200Y-110642400D01*
X155752800Y-121818400D02*
X155752800Y-123037600D01*
X155752800Y-123037600D02*
X154940000Y-123850400D01*
%TO.N,/~{SMEMR}*%
X82600800Y-91338400D02*
X80029800Y-93909400D01*
X133858000Y-112979200D02*
X133858000Y-113334800D01*
X88138000Y-91338400D02*
X82600800Y-91338400D01*
X80029800Y-93909400D02*
X80029800Y-104820200D01*
X154482800Y-122224800D02*
X154482800Y-123386300D01*
X133858000Y-112979200D02*
X130948800Y-112979200D01*
X152400000Y-125469100D02*
X152400000Y-130492500D01*
X91504905Y-116295305D02*
X91724705Y-116295305D01*
X135975200Y-115452000D02*
X147969600Y-115452000D01*
X80029800Y-104820200D02*
X91504905Y-116295305D01*
X91724705Y-116295305D02*
X91846400Y-116417000D01*
X130948800Y-112979200D02*
X129069200Y-114858800D01*
X133858000Y-113334800D02*
X135975200Y-115452000D01*
X92456000Y-114858800D02*
X92151200Y-115163600D01*
X129069200Y-114858800D02*
X92456000Y-114858800D01*
X154482800Y-123386300D02*
X152400000Y-125469100D01*
%TO.N,/IRQ5*%
X109852190Y-121716800D02*
X109998390Y-121570600D01*
X109998390Y-121570600D02*
X110912913Y-121570600D01*
X120764000Y-122643600D02*
X123291600Y-125171200D01*
X124155200Y-125171200D02*
X124460000Y-125476000D01*
X108458000Y-121767600D02*
X108508800Y-121716800D01*
X111667218Y-121716800D02*
X112594018Y-122643600D01*
X111059113Y-121716800D02*
X111667218Y-121716800D01*
X108508800Y-121716800D02*
X109852190Y-121716800D01*
X110912913Y-121570600D02*
X111059113Y-121716800D01*
X112594018Y-122643600D02*
X120764000Y-122643600D01*
X124460000Y-125476000D02*
X124460000Y-130492500D01*
X123291600Y-125171200D02*
X124155200Y-125171200D01*
%TO.N,/IRQ4*%
X109931200Y-122275600D02*
X110185200Y-122021600D01*
X109289490Y-122482693D02*
X109496583Y-122275600D01*
X111455200Y-122750697D02*
X111455200Y-123094600D01*
X110726103Y-122021600D02*
X111455200Y-122750697D01*
X121920000Y-125730000D02*
X121920000Y-130492500D01*
X119284600Y-123094600D02*
X121920000Y-125730000D01*
X109496583Y-122275600D02*
X109931200Y-122275600D01*
X111455200Y-123094600D02*
X119284600Y-123094600D01*
X110185200Y-122021600D02*
X110726103Y-122021600D01*
%TO.N,/IRQ3*%
X110484705Y-122665500D02*
X110484705Y-123235505D01*
X119380000Y-125120400D02*
X119380000Y-130492500D01*
X117805200Y-123545600D02*
X119380000Y-125120400D01*
X110484705Y-123235505D02*
X110794800Y-123545600D01*
X110794800Y-123545600D02*
X117805200Y-123545600D01*
%TO.N,/TP_RX-*%
X128828800Y-91694000D02*
X128828800Y-91643200D01*
X149565600Y-74127600D02*
X158445200Y-83007200D01*
X130403600Y-74473900D02*
X130403600Y-74269600D01*
X131037800Y-89434200D02*
X131037800Y-75108100D01*
X128828800Y-91643200D02*
X131037800Y-89434200D01*
X131037800Y-75108100D02*
X130403600Y-74473900D01*
X147116800Y-74117200D02*
X147127200Y-74127600D01*
X147127200Y-74127600D02*
X149565600Y-74127600D01*
%TO.N,/TP_RX+*%
X128524000Y-69130200D02*
X128473200Y-69181000D01*
X168646000Y-69850000D02*
X168646000Y-82966400D01*
X127974300Y-83912500D02*
X127974300Y-90698800D01*
X168646000Y-82966400D02*
X168605200Y-83007200D01*
X128473200Y-83413600D02*
X127974300Y-83912500D01*
X128473200Y-69181000D02*
X128473200Y-83413600D01*
X128524000Y-68986400D02*
X128524000Y-69130200D01*
D32*
%TO.N,/TP_TX-*%
X174722600Y-92985400D02*
X179527200Y-97790000D01*
X173279288Y-92985400D02*
X174722600Y-92985400D01*
X172633400Y-93631288D02*
X173279288Y-92985400D01*
X171508912Y-96469200D02*
X172633400Y-95344712D01*
X179527200Y-97790000D02*
X186690000Y-97790000D01*
X172633400Y-95344712D02*
X172633400Y-93631288D01*
X160731200Y-96418400D02*
X162560000Y-96418400D01*
X170281600Y-96469200D02*
X171508912Y-96469200D01*
D30*
%TO.N,/TP_TX+*%
X182016400Y-102514400D02*
X180652100Y-102514400D01*
X180652100Y-102514400D02*
X178009700Y-105156800D01*
X178009700Y-105156800D02*
X165437600Y-105156800D01*
X162716500Y-100929100D02*
X161920900Y-100133500D01*
X161920900Y-100133500D02*
X160922700Y-100133500D01*
X162716500Y-102435700D02*
X162716500Y-100929100D01*
X165437600Y-105156800D02*
X162716500Y-102435700D01*
%TO.N,/LED_LINK*%
X137464800Y-103616600D02*
X126679800Y-103616600D01*
X125628400Y-102565200D02*
X125272800Y-102209600D01*
X125272800Y-102209600D02*
X125272800Y-98196400D01*
X126679800Y-103616600D02*
X125628400Y-102565200D01*
%TO.N,/BD6*%
X95600200Y-99762800D02*
X95600200Y-97420800D01*
X108559600Y-84461400D02*
X108559600Y-80721200D01*
X95600200Y-97420800D02*
X108559600Y-84461400D01*
%TO.N,/BD5*%
X105511600Y-86664800D02*
X88138000Y-104038400D01*
X105511600Y-80721200D02*
X105511600Y-86664800D01*
%TO.N,/BD4*%
X108197000Y-102826600D02*
X108065900Y-102957700D01*
X108197000Y-97569000D02*
X108197000Y-102826600D01*
X88423100Y-106293300D02*
X88138000Y-106578400D01*
X94683000Y-106293300D02*
X88423100Y-106293300D01*
%TO.N,/BD3*%
X87100100Y-103565700D02*
X87897400Y-102768400D01*
X94523300Y-96612300D02*
X94523300Y-80933500D01*
X88138000Y-109118400D02*
X87100100Y-108080500D01*
X95883100Y-79573700D02*
X101316100Y-79573700D01*
X87100100Y-108080500D02*
X87100100Y-103565700D01*
X88367200Y-102768400D02*
X94523300Y-96612300D01*
X87897400Y-102768400D02*
X88367200Y-102768400D01*
X101316100Y-79573700D02*
X102463600Y-80721200D01*
X94523300Y-80933500D02*
X95883100Y-79573700D01*
%TO.N,/BD1*%
X96367600Y-80721200D02*
X97510600Y-81864200D01*
X103852000Y-81038300D02*
X103852000Y-80762900D01*
X109966600Y-80534200D02*
X109966600Y-95554000D01*
X112721200Y-98308600D02*
X112721200Y-100204100D01*
X105028700Y-79586200D02*
X109018600Y-79586200D01*
X97510600Y-81864200D02*
X103026100Y-81864200D01*
X103852000Y-80762900D02*
X105028700Y-79586200D01*
X109966600Y-95554000D02*
X112721200Y-98308600D01*
X103026100Y-81864200D02*
X103852000Y-81038300D01*
X109018600Y-79586200D02*
X109966600Y-80534200D01*
%TO.N,/BA15*%
X72898000Y-76098400D02*
X73923200Y-75073200D01*
X116553900Y-77369100D02*
X117075100Y-76847900D01*
X116553900Y-93265800D02*
X116553900Y-77369100D01*
X73923200Y-75073200D02*
X75768000Y-75073200D01*
X117305100Y-94017000D02*
X116553900Y-93265800D01*
%TO.N,/BA14*%
X113950800Y-99461800D02*
X113950900Y-99461800D01*
X110450400Y-89922500D02*
X113950800Y-93422900D01*
X108761700Y-78638400D02*
X110450400Y-80327100D01*
X110450400Y-80327100D02*
X110450400Y-89922500D01*
X88138000Y-78638400D02*
X108761700Y-78638400D01*
X113950800Y-93422900D02*
X113950800Y-99461800D01*
%TO.N,/~{BCS}*%
X108948300Y-96886600D02*
X98216800Y-96886600D01*
X109230300Y-97168600D02*
X108948300Y-96886600D01*
X98216800Y-96886600D02*
X96664500Y-98438900D01*
%TO.N,/EECS*%
X98713700Y-104064100D02*
X110234900Y-104064100D01*
X97255500Y-102605900D02*
X98713700Y-104064100D01*
X115747100Y-98551900D02*
X115747100Y-94335200D01*
X110234900Y-104064100D02*
X115747100Y-98551900D01*
%TO.N,/BD7*%
X110163500Y-97381100D02*
X110163500Y-101746600D01*
X99907700Y-103585000D02*
X97372800Y-101050100D01*
X108325100Y-103585000D02*
X99907700Y-103585000D01*
X110163500Y-101746600D02*
X108325100Y-103585000D01*
%TO.N,/LED_CRS*%
X145526000Y-81929200D02*
X149733300Y-81929200D01*
X145364300Y-82090900D02*
X145526000Y-81929200D01*
%TO.N,Net-(J5-RCT)*%
X182575000Y-92169200D02*
X182575200Y-92169400D01*
X182575200Y-91287600D02*
X182575200Y-92619200D01*
X183540400Y-90322400D02*
X182575200Y-91287600D01*
X182575200Y-92169400D02*
X182575200Y-92619200D01*
%TO.N,Net-(U3-X2)*%
X154072800Y-72266260D02*
X156133740Y-72266260D01*
X154072800Y-72266300D02*
X154073000Y-72266300D01*
X158772800Y-69627200D02*
X158773000Y-69627200D01*
X161875300Y-72509700D02*
X161875300Y-72509500D01*
X158992800Y-69627200D02*
X158772800Y-69627200D01*
X162272800Y-72907200D02*
X158992800Y-69627200D01*
X162272800Y-72907200D02*
X161875300Y-72509700D01*
X156133740Y-72266260D02*
X158772800Y-69627200D01*
%TO.N,Net-(U3-X1)*%
X158772800Y-79787200D02*
X159025200Y-79787200D01*
X156711900Y-79787200D02*
X154072800Y-77148100D01*
X162172800Y-76639600D02*
X162172800Y-76507200D01*
X159025200Y-79787200D02*
X162172800Y-76639600D01*
X158772800Y-79787200D02*
X156711900Y-79787200D01*
%TO.N,Net-(BT1-+)*%
X170180000Y-82877484D02*
X170191342Y-82866142D01*
X170180000Y-83870800D02*
X170180000Y-82877484D01*
X170191342Y-73496258D02*
X171805600Y-71882000D01*
X170191342Y-82866142D02*
X170191342Y-73496258D01*
%TO.N,Net-(JP1-A)*%
X159054800Y-98267600D02*
X159052500Y-98269900D01*
X159049800Y-101803200D02*
X159049800Y-98272600D01*
X159052500Y-98269900D02*
X159052500Y-98270100D01*
X159049800Y-101803200D02*
X159050000Y-101803000D01*
X159049800Y-98272600D02*
X159054800Y-98267600D01*
%TO.N,/AS0*%
X135991600Y-66862800D02*
X136499600Y-66354800D01*
X152321000Y-83115200D02*
X150310900Y-81105100D01*
X153416000Y-86868000D02*
X152321000Y-85773000D01*
X152321000Y-85773000D02*
X152321000Y-83115200D01*
X135991600Y-70561200D02*
X135991600Y-66862800D01*
X146535900Y-81105100D02*
X135992000Y-70561200D01*
X150310900Y-81105100D02*
X146535900Y-81105100D01*
%TO.N,/~{IRQ}*%
X164157900Y-98295300D02*
X164157900Y-98295600D01*
X164129800Y-101803200D02*
X164129800Y-98323400D01*
X164129800Y-98323400D02*
X164185600Y-98267600D01*
X164129800Y-101153300D02*
X164129800Y-101803200D01*
X164130000Y-101153100D02*
X164129800Y-101153300D01*
X164185600Y-98267600D02*
X164157900Y-98295300D01*
%TO.N,/AS1*%
X139039600Y-70561200D02*
X139039600Y-66354800D01*
X155956000Y-86868000D02*
X155956000Y-86111400D01*
X155956000Y-86111400D02*
X140398300Y-70553700D01*
X140398300Y-70553700D02*
X139047500Y-70553700D01*
%TO.N,/AS2*%
X142087600Y-66862800D02*
X141579600Y-66354800D01*
X141841500Y-70314700D02*
X142087600Y-70560800D01*
X142087600Y-70561200D02*
X142087600Y-66862800D01*
X171621700Y-73880100D02*
X173736000Y-75994400D01*
X173736000Y-75994400D02*
X173736000Y-86868000D01*
X142087600Y-70560800D02*
X142087600Y-70561200D01*
%TO.N,Net-(JP2-B)*%
X183286400Y-103159400D02*
X183286400Y-104246600D01*
X185516600Y-106476800D02*
X185516700Y-106476700D01*
X183286400Y-104246600D02*
X185516600Y-106476800D01*
%TO.N,Net-(J4-Pin_2)*%
X123193900Y-66800100D02*
X122778600Y-66384800D01*
X122778600Y-66384800D02*
X123799600Y-67405800D01*
X123799600Y-70561200D02*
X123800000Y-70561200D01*
X123799600Y-67405800D02*
X123799600Y-70561200D01*
X123194300Y-66800100D02*
X123193900Y-66800100D01*
%TO.N,Net-(J4-Pin_10)*%
X111607600Y-70561200D02*
X111608000Y-70561200D01*
X112618600Y-66385200D02*
X112618600Y-66384800D01*
X112203500Y-66800300D02*
X112618600Y-66385200D01*
X112618600Y-66384800D02*
X111607600Y-67395800D01*
X111607600Y-67395800D02*
X111607600Y-70561200D01*
%TO.N,Net-(J4-Pin_6)*%
X117698600Y-66384800D02*
X117699000Y-66384800D01*
X117698600Y-66384800D02*
X117698600Y-70556200D01*
X117703600Y-70560800D02*
X117703600Y-70561200D01*
X117701500Y-70558700D02*
X117703600Y-70560800D01*
X117698600Y-70556200D02*
X117703600Y-70561200D01*
%TO.N,Net-(J4-Pin_8)*%
X115158600Y-70058200D02*
X114655600Y-70561200D01*
X115158600Y-66859400D02*
X115158600Y-66384800D01*
X114655600Y-70561200D02*
X114656000Y-70561200D01*
X115159000Y-66859800D02*
X115158600Y-66859400D01*
X115158600Y-66384800D02*
X115158600Y-70058200D01*
%TO.N,Net-(J4-Pin_4)*%
X120238600Y-66384800D02*
X120238600Y-70048200D01*
X120238600Y-70048200D02*
X120751600Y-70561200D01*
X120238600Y-66384800D02*
X120239000Y-66384800D01*
X120495500Y-70304700D02*
X120751600Y-70560800D01*
X120751600Y-70560800D02*
X120751600Y-70561200D01*
%TO.N,Net-(J3-Pin_4)*%
X99151600Y-66384800D02*
X99151600Y-70297200D01*
X99151600Y-70297200D02*
X99415600Y-70561200D01*
%TO.N,Net-(J3-Pin_2)*%
X101691600Y-69789200D02*
X102463600Y-70561200D01*
X101691600Y-66384800D02*
X101692000Y-66384800D01*
X101691600Y-66384800D02*
X101691600Y-69789200D01*
X102463600Y-70561200D02*
X102463800Y-70561000D01*
%TO.N,Net-(J3-Pin_8)*%
X94071600Y-66384800D02*
X94071600Y-69809200D01*
X94071600Y-69809200D02*
X93319600Y-70561200D01*
%TO.N,Net-(J3-Pin_6)*%
X96367600Y-66628800D02*
X96611600Y-66384800D01*
X96367600Y-70561200D02*
X96367600Y-66628800D01*
%TO.N,Net-(J1-Pin_4)*%
X127102000Y-66859800D02*
X127101600Y-66859400D01*
X127101600Y-66384800D02*
X127101600Y-70307200D01*
X127101600Y-70307200D02*
X126847600Y-70561200D01*
X127101600Y-66859400D02*
X127101600Y-66384800D01*
X126975000Y-70434200D02*
X126974600Y-70434200D01*
X126974600Y-70434200D02*
X126847600Y-70561200D01*
%TO.N,Net-(J1-Pin_2)*%
X129895600Y-70560800D02*
X129895600Y-70561200D01*
X129641600Y-66859400D02*
X129641600Y-66384800D01*
X129641600Y-70307200D02*
X129895600Y-70561200D01*
X129641600Y-66384800D02*
X129641600Y-70307200D01*
X129769000Y-70434200D02*
X129895600Y-70560800D01*
X129642000Y-66859800D02*
X129641600Y-66859400D01*
%TO.N,Net-(J2-Pin_4)*%
X105770600Y-66384800D02*
X105770600Y-70302200D01*
X105641100Y-70431700D02*
X105511600Y-70561200D01*
X105770600Y-70302200D02*
X105511600Y-70561200D01*
X105641500Y-70431700D02*
X105641100Y-70431700D01*
X105770600Y-66384800D02*
X105771000Y-66384800D01*
%TO.N,Net-(J2-Pin_2)*%
X108435500Y-70436700D02*
X108559600Y-70560800D01*
X108310600Y-66384800D02*
X108310600Y-70312200D01*
X108559600Y-70560800D02*
X108559600Y-70561200D01*
X108310600Y-66384800D02*
X108311000Y-66384800D01*
X108310600Y-70312200D02*
X108559600Y-70561200D01*
%TD*%
M02*
