%TF.GenerationSoftware,KiCad,Pcbnew,9.0.7*%
%TF.CreationDate,2026-02-05T00:16:06+03:00*%
%TF.ProjectId,ISA8_Ethernet,49534138-5f45-4746-9865-726e65742e6b,1.0*%
%TF.SameCoordinates,Original*%
%TF.FileFunction,Copper,L1,Top*%
%TF.FilePolarity,Positive*%
%FSLAX46Y46*%
G04 Gerber Fmt 4.6, Leading zero omitted, Abs format (unit mm)*
G04 Created by KiCad (PCBNEW 9.0.7) date 2026-02-05 00:16:06*
%MOMM*%
%LPD*%
G01*
G04 APERTURE LIST*
G04 Aperture macros list*
%AMRoundRect*
0 Rectangle with rounded corners*
0 $1 Rounding radius*
0 $2 $3 $4 $5 $6 $7 $8 $9 X,Y pos of 4 corners*
0 Add a 4 corners polygon primitive as box body*
4,1,4,$2,$3,$4,$5,$6,$7,$8,$9,$2,$3,0*
0 Add four circle primitives for the rounded corners*
1,1,$1+$1,$2,$3*
1,1,$1+$1,$4,$5*
1,1,$1+$1,$6,$7*
1,1,$1+$1,$8,$9*
0 Add four rect primitives between the rounded corners*
20,1,$1+$1,$2,$3,$4,$5,0*
20,1,$1+$1,$4,$5,$6,$7,0*
20,1,$1+$1,$6,$7,$8,$9,0*
20,1,$1+$1,$8,$9,$2,$3,0*%
G04 Aperture macros list end*
%TA.AperFunction,ComponentPad*%
%ADD10C,6.400000*%
%TD*%
%TA.AperFunction,ComponentPad*%
%ADD11C,1.397000*%
%TD*%
%TA.AperFunction,ComponentPad*%
%ADD12R,1.397000X1.397000*%
%TD*%
%TA.AperFunction,SMDPad,CuDef*%
%ADD13RoundRect,0.150000X0.150000X-0.725000X0.150000X0.725000X-0.150000X0.725000X-0.150000X-0.725000X0*%
%TD*%
%TA.AperFunction,ComponentPad*%
%ADD14C,1.600000*%
%TD*%
%TA.AperFunction,ComponentPad*%
%ADD15O,1.600000X1.600000*%
%TD*%
%TA.AperFunction,SMDPad,CuDef*%
%ADD16RoundRect,0.100000X0.100000X-1.150000X0.100000X1.150000X-0.100000X1.150000X-0.100000X-1.150000X0*%
%TD*%
%TA.AperFunction,SMDPad,CuDef*%
%ADD17RoundRect,0.100000X1.150000X0.100000X-1.150000X0.100000X-1.150000X-0.100000X1.150000X-0.100000X0*%
%TD*%
%TA.AperFunction,ConnectorPad*%
%ADD18RoundRect,0.444500X-0.444500X-3.619500X0.444500X-3.619500X0.444500X3.619500X-0.444500X3.619500X0*%
%TD*%
%TA.AperFunction,ComponentPad*%
%ADD19C,2.600000*%
%TD*%
%TA.AperFunction,ComponentPad*%
%ADD20C,1.890000*%
%TD*%
%TA.AperFunction,ComponentPad*%
%ADD21R,1.900000X1.900000*%
%TD*%
%TA.AperFunction,ComponentPad*%
%ADD22C,1.900000*%
%TD*%
%TA.AperFunction,ComponentPad*%
%ADD23R,1.600000X1.600000*%
%TD*%
%TA.AperFunction,ComponentPad*%
%ADD24R,1.700000X1.700000*%
%TD*%
%TA.AperFunction,ComponentPad*%
%ADD25O,1.700000X1.700000*%
%TD*%
%TA.AperFunction,ComponentPad*%
%ADD26C,1.524000*%
%TD*%
%TA.AperFunction,ComponentPad*%
%ADD27C,1.700000*%
%TD*%
%TA.AperFunction,ComponentPad*%
%ADD28C,1.000000*%
%TD*%
%TA.AperFunction,SMDPad,CuDef*%
%ADD29RoundRect,0.250000X-2.250000X0.750000X-2.250000X-0.750000X2.250000X-0.750000X2.250000X0.750000X0*%
%TD*%
%TA.AperFunction,ComponentPad*%
%ADD30RoundRect,0.250000X0.550000X-0.950000X0.550000X0.950000X-0.550000X0.950000X-0.550000X-0.950000X0*%
%TD*%
%TA.AperFunction,ComponentPad*%
%ADD31O,1.600000X2.400000*%
%TD*%
%TA.AperFunction,ViaPad*%
%ADD32C,0.600000*%
%TD*%
%TA.AperFunction,ViaPad*%
%ADD33C,0.800000*%
%TD*%
%TA.AperFunction,Conductor*%
%ADD34C,0.250000*%
%TD*%
%TA.AperFunction,Conductor*%
%ADD35C,1.000000*%
%TD*%
%TA.AperFunction,Conductor*%
%ADD36C,0.203200*%
%TD*%
G04 APERTURE END LIST*
D10*
%TO.P,HOLE1,1,1*%
%TO.N,GND*%
X201041000Y-66040000D03*
%TD*%
%TO.P,HOLE2,1,1*%
%TO.N,GND*%
X201041000Y-122555000D03*
%TD*%
D11*
%TO.P,Y1,1,1*%
%TO.N,Net-(U3-X1)*%
X154072800Y-77148140D03*
%TO.P,Y1,2,2*%
%TO.N,Net-(U3-X2)*%
X154072800Y-72266260D03*
%TD*%
D12*
%TO.P,U1,1,A18*%
%TO.N,/BA18*%
X72898000Y-71018400D03*
D11*
%TO.P,U1,2,A16*%
%TO.N,/BA16*%
X72898000Y-73558400D03*
%TO.P,U1,3,A15*%
%TO.N,/BA15*%
X72898000Y-76098400D03*
%TO.P,U1,4,A12*%
%TO.N,/A12*%
X72898000Y-78638400D03*
%TO.P,U1,5,A7*%
%TO.N,/A7*%
X72898000Y-81178400D03*
%TO.P,U1,6,A6*%
%TO.N,/A6*%
X72898000Y-83718400D03*
%TO.P,U1,7,A5*%
%TO.N,/A5*%
X72898000Y-86258400D03*
%TO.P,U1,8,A4*%
%TO.N,/A4*%
X72898000Y-88798400D03*
%TO.P,U1,9,A3*%
%TO.N,/A3*%
X72898000Y-91338400D03*
%TO.P,U1,10,A2*%
%TO.N,/A2*%
X72898000Y-93878400D03*
%TO.P,U1,11,A1*%
%TO.N,/A1*%
X72898000Y-96418400D03*
%TO.P,U1,12,A0*%
%TO.N,/A0*%
X72898000Y-98958400D03*
%TO.P,U1,13,DQ0*%
%TO.N,/BD0*%
X72898000Y-101498400D03*
%TO.P,U1,14,DQ1*%
%TO.N,/BD1*%
X72898000Y-104038400D03*
%TO.P,U1,15,DQ2*%
%TO.N,/BD2*%
X72898000Y-106578400D03*
%TO.P,U1,16,GND*%
%TO.N,GND*%
X72898000Y-109118400D03*
%TO.P,U1,17,DQ3*%
%TO.N,/BD3*%
X88138000Y-109118400D03*
%TO.P,U1,18,DQ4*%
%TO.N,/BD4*%
X88138000Y-106578400D03*
%TO.P,U1,19,DQ5*%
%TO.N,/BD5*%
X88138000Y-104038400D03*
%TO.P,U1,20,DQ6*%
%TO.N,/BD6*%
X88138000Y-101498400D03*
%TO.P,U1,21,DQ7*%
%TO.N,/BD7*%
X88138000Y-98958400D03*
%TO.P,U1,22,~{CE}*%
%TO.N,/~{BCS}*%
X88138000Y-96418400D03*
%TO.P,U1,23,A10*%
%TO.N,/A10*%
X88138000Y-93878400D03*
%TO.P,U1,24,~{OE}*%
%TO.N,/~{SMEMR}*%
X88138000Y-91338400D03*
%TO.P,U1,25,A11*%
%TO.N,/A11*%
X88138000Y-88798400D03*
%TO.P,U1,26,A9*%
%TO.N,/A9*%
X88138000Y-86258400D03*
%TO.P,U1,27,A8*%
%TO.N,/A8*%
X88138000Y-83718400D03*
%TO.P,U1,28,A13*%
%TO.N,/A13*%
X88138000Y-81178400D03*
%TO.P,U1,29,A14*%
%TO.N,/BA14*%
X88138000Y-78638400D03*
%TO.P,U1,30,A17*%
%TO.N,/BA17*%
X88138000Y-76098400D03*
%TO.P,U1,31,~{WE}*%
%TO.N,/~{SMEMW}*%
X88138000Y-73558400D03*
%TO.P,U1,32,VCC*%
%TO.N,VCC*%
X88138000Y-71018400D03*
%TD*%
D13*
%TO.P,U2,1,CS*%
%TO.N,/EECS*%
X92684600Y-101228600D03*
%TO.P,U2,2,SCLK*%
%TO.N,/BD5*%
X93954600Y-101228600D03*
%TO.P,U2,3,DI*%
%TO.N,/BD6*%
X95224600Y-101228600D03*
%TO.P,U2,4,DO*%
%TO.N,/BD7*%
X96494600Y-101228600D03*
%TO.P,U2,5,GND*%
%TO.N,GND*%
X96494600Y-96078600D03*
%TO.P,U2,6,ORG*%
%TO.N,VCC*%
X95224600Y-96078600D03*
%TO.P,U2,7,NC*%
%TO.N,unconnected-(U2-NC-Pad7)*%
X93954600Y-96078600D03*
%TO.P,U2,8,VCC*%
%TO.N,VCC*%
X92684600Y-96078600D03*
%TD*%
D14*
%TO.P,C5,1*%
%TO.N,VCC*%
X134621400Y-96020400D03*
%TO.P,C5,2*%
%TO.N,GND*%
X139621400Y-96020400D03*
%TD*%
%TO.P,C3,1*%
%TO.N,VCC*%
X92089600Y-92710000D03*
%TO.P,C3,2*%
%TO.N,GND*%
X97089600Y-92710000D03*
%TD*%
%TO.P,R1,1*%
%TO.N,GND*%
X93370400Y-108712000D03*
D15*
%TO.P,R1,2*%
%TO.N,/~{IOCS16}*%
X103530400Y-108712000D03*
%TD*%
D14*
%TO.P,R16,1*%
%TO.N,Net-(U3-X1)*%
X158772800Y-79787200D03*
D15*
%TO.P,R16,2*%
%TO.N,Net-(U3-X2)*%
X158772800Y-69627200D03*
%TD*%
D14*
%TO.P,C2,1*%
%TO.N,VCC*%
X88199600Y-68021200D03*
%TO.P,C2,2*%
%TO.N,GND*%
X83199600Y-68021200D03*
%TD*%
D16*
%TO.P,U3,1,INT3/IRQ5*%
%TO.N,/IRQ5*%
X112964400Y-114113600D03*
%TO.P,U3,2,INT2/IRQ4*%
%TO.N,/IRQ4*%
X113614400Y-114113600D03*
%TO.P,U3,3,INT1/IRQ3*%
%TO.N,/IRQ3*%
X114264400Y-114113600D03*
%TO.P,U3,4,INT0/IRQ2/9*%
%TO.N,/IRQ9*%
X114914400Y-114113600D03*
%TO.P,U3,5,SA0*%
%TO.N,/A0*%
X115539400Y-114113600D03*
%TO.P,U3,6,VCC*%
%TO.N,VCC*%
X116189400Y-114113600D03*
%TO.P,U3,7,SA1*%
%TO.N,/A1*%
X116839400Y-114113600D03*
%TO.P,U3,8,SA2*%
%TO.N,/A2*%
X117489400Y-114113600D03*
%TO.P,U3,9,SA3*%
%TO.N,/A3*%
X118139400Y-114113600D03*
%TO.P,U3,10,SA4*%
%TO.N,/A4*%
X118789400Y-114113600D03*
%TO.P,U3,11,SA5*%
%TO.N,/A5*%
X119439400Y-114113600D03*
%TO.P,U3,12,SA6*%
%TO.N,/A6*%
X120089400Y-114113600D03*
%TO.P,U3,13,SA7*%
%TO.N,/A7*%
X120739400Y-114113600D03*
%TO.P,U3,14,GND*%
%TO.N,GND*%
X121389400Y-114113600D03*
%TO.P,U3,15,SA8*%
%TO.N,/A8*%
X122039400Y-114113600D03*
%TO.P,U3,16,SA9*%
%TO.N,/A9*%
X122689400Y-114113600D03*
%TO.P,U3,17,VCC*%
%TO.N,VCC*%
X123339400Y-114113600D03*
%TO.P,U3,18,SA10*%
%TO.N,/A10*%
X123989400Y-114113600D03*
%TO.P,U3,19,SA11*%
%TO.N,/A11*%
X124639400Y-114113600D03*
%TO.P,U3,20,SA12*%
%TO.N,/A12*%
X125289400Y-114113600D03*
%TO.P,U3,21,SA13*%
%TO.N,/A13*%
X125939400Y-114113600D03*
%TO.P,U3,22,SA14*%
%TO.N,/A14*%
X126589400Y-114113600D03*
%TO.P,U3,23,SA15*%
%TO.N,/A15*%
X127239400Y-114113600D03*
%TO.P,U3,24,SA16*%
%TO.N,/A16*%
X127889400Y-114113600D03*
%TO.P,U3,25,SA17*%
%TO.N,/A17*%
X128539400Y-114113600D03*
%TO.P,U3,26,SA18*%
%TO.N,/A18*%
X129189400Y-114113600D03*
%TO.P,U3,27,SA19*%
%TO.N,/A19*%
X129839400Y-114113600D03*
%TO.P,U3,28,GND*%
%TO.N,GND*%
X130489400Y-114113600D03*
%TO.P,U3,29,~{IORB}*%
%TO.N,/~{IOR}*%
X131139400Y-114113600D03*
%TO.P,U3,30,~{IOWB}*%
%TO.N,/~{IOW}*%
X131789400Y-114113600D03*
D17*
%TO.P,U3,31,~{SMEMRB}*%
%TO.N,/~{SMEMR}*%
X134389400Y-111288600D03*
%TO.P,U3,32,~{SMEMWB}*%
%TO.N,/~{SMEMW}*%
X134389400Y-110638600D03*
%TO.P,U3,33,RSTDRV*%
%TO.N,/RSTDRV*%
X134389400Y-109988600D03*
%TO.P,U3,34,AEN*%
%TO.N,/AEN*%
X134389400Y-109338600D03*
%TO.P,U3,35,IOCHRDY*%
%TO.N,/IOCHRDY*%
X134389400Y-108688600D03*
%TO.P,U3,36,SD0*%
%TO.N,/D0*%
X134389400Y-108038600D03*
%TO.P,U3,37,SD1*%
%TO.N,/D1*%
X134389400Y-107388600D03*
%TO.P,U3,38,SD2*%
%TO.N,/D2*%
X134389400Y-106738600D03*
%TO.P,U3,39,SD3*%
%TO.N,/D3*%
X134389400Y-106088600D03*
%TO.P,U3,40,SD4*%
%TO.N,/D4*%
X134389400Y-105438600D03*
%TO.P,U3,41,SD5*%
%TO.N,/D5*%
X134389400Y-104788600D03*
%TO.P,U3,42,SD6*%
%TO.N,/D6*%
X134389400Y-104138600D03*
%TO.P,U3,43,SD7*%
%TO.N,/D7*%
X134389400Y-103488600D03*
%TO.P,U3,44,GND*%
%TO.N,GND*%
X134389400Y-102838600D03*
%TO.P,U3,45,TPOUT+*%
%TO.N,/TP_TX+*%
X134389400Y-102188600D03*
%TO.P,U3,46,TPOUT-*%
%TO.N,/TP_TX-*%
X134389400Y-101538600D03*
%TO.P,U3,47,VCC*%
%TO.N,VCC*%
X134389400Y-100888600D03*
%TO.P,U3,48,TX-*%
%TO.N,unconnected-(U3-TX--Pad48)*%
X134389400Y-100238600D03*
%TO.P,U3,49,TX+*%
%TO.N,unconnected-(U3-TX+-Pad49)*%
X134389400Y-99588600D03*
%TO.P,U3,50,X1*%
%TO.N,Net-(U3-X1)*%
X134389400Y-98938600D03*
D16*
%TO.P,U3,51,X2*%
%TO.N,Net-(U3-X2)*%
X131814400Y-96113600D03*
%TO.P,U3,52,GND*%
%TO.N,GND*%
X131164400Y-96113600D03*
%TO.P,U3,53,CD-*%
%TO.N,unconnected-(U3-CD--Pad53)*%
X130514400Y-96113600D03*
%TO.P,U3,54,CD+*%
%TO.N,unconnected-(U3-CD+-Pad54)*%
X129864400Y-96113600D03*
%TO.P,U3,55,RX-*%
%TO.N,unconnected-(U3-RX--Pad55)*%
X129214400Y-96113600D03*
%TO.P,U3,56,RX+*%
%TO.N,unconnected-(U3-RX+-Pad56)*%
X128564400Y-96113600D03*
%TO.P,U3,57,VCC*%
%TO.N,VCC*%
X127914400Y-96113600D03*
%TO.P,U3,58,TPIN-*%
%TO.N,/TP_RX-*%
X127264400Y-96113600D03*
%TO.P,U3,59,TPIN+*%
%TO.N,/TP_RX+*%
X126614400Y-96113600D03*
%TO.P,U3,60,LEDBNC*%
%TO.N,unconnected-(U3-LEDBNC-Pad60)*%
X125964400Y-96113600D03*
%TO.P,U3,61,LED0/LED_COL/LED_LINK*%
%TO.N,/LED_LINK*%
X125314400Y-96113600D03*
%TO.P,U3,62,LED1/LED_RX/LED_CRS*%
%TO.N,/LED_CRS*%
X124664400Y-96113600D03*
%TO.P,U3,63,LED2/LED_TX*%
%TO.N,unconnected-(U3-LED2{slash}LED_TX-Pad63)*%
X124014400Y-96113600D03*
%TO.P,U3,64,AUI*%
%TO.N,/AUI*%
X123364400Y-96113600D03*
%TO.P,U3,65,JP*%
%TO.N,/JP*%
X122714400Y-96113600D03*
%TO.P,U3,66,BA21/PNP*%
%TO.N,/BA21*%
X122064400Y-96113600D03*
%TO.P,U3,67,BA20/BS0*%
%TO.N,/BA20*%
X121414400Y-96113600D03*
%TO.P,U3,68,BA19/BS1*%
%TO.N,/BA19*%
X120764400Y-96113600D03*
%TO.P,U3,69,BA18/BS2*%
%TO.N,/BA18*%
X120114400Y-96113600D03*
%TO.P,U3,70,VCC*%
%TO.N,VCC*%
X119464400Y-96113600D03*
%TO.P,U3,71,BA17/BS3*%
%TO.N,/BA17*%
X118814400Y-96113600D03*
%TO.P,U3,72,BA16/BS4*%
%TO.N,/BA16*%
X118164400Y-96113600D03*
%TO.P,U3,73,BA15*%
%TO.N,/BA15*%
X117514400Y-96113600D03*
%TO.P,U3,74,BA14/PL0*%
%TO.N,/BA14*%
X116864400Y-96113600D03*
%TO.P,U3,75,~{BCSB}*%
%TO.N,/~{BCS}*%
X116214400Y-96113600D03*
%TO.P,U3,76,EECS*%
%TO.N,/EECS*%
X115564400Y-96113600D03*
%TO.P,U3,77,BD7/PL1/EEDO*%
%TO.N,/BD7*%
X114914400Y-96113600D03*
%TO.P,U3,78,BD6/IRQS0/EEDI*%
%TO.N,/BD6*%
X114264400Y-96113600D03*
%TO.P,U3,79,BD5/IRQS1/EESK*%
%TO.N,/BD5*%
X113614400Y-96113600D03*
%TO.P,U3,80,BD4/IRQS2*%
%TO.N,/BD4*%
X112964400Y-96113600D03*
D17*
%TO.P,U3,81,BD3/IOS0*%
%TO.N,/BD3*%
X110389400Y-98938600D03*
%TO.P,U3,82,BD2/IOS1*%
%TO.N,/BD2*%
X110389400Y-99588600D03*
%TO.P,U3,83,GND*%
%TO.N,GND*%
X110389400Y-100238600D03*
%TO.P,U3,84,BD1/IOS2*%
%TO.N,/BD1*%
X110389400Y-100888600D03*
%TO.P,U3,85,BD0/IOS3*%
%TO.N,/BD0*%
X110389400Y-101538600D03*
%TO.P,U3,86,GND*%
%TO.N,GND*%
X110389400Y-102188600D03*
%TO.P,U3,87,SD15*%
%TO.N,unconnected-(U3-SD15-Pad87)*%
X110389400Y-102838600D03*
%TO.P,U3,88,SD14*%
%TO.N,unconnected-(U3-SD14-Pad88)*%
X110389400Y-103488600D03*
%TO.P,U3,89,VCC*%
%TO.N,VCC*%
X110389400Y-104138600D03*
%TO.P,U3,90,SD13*%
%TO.N,unconnected-(U3-SD13-Pad90)*%
X110389400Y-104788600D03*
%TO.P,U3,91,SD12*%
%TO.N,unconnected-(U3-SD12-Pad91)*%
X110389400Y-105438600D03*
%TO.P,U3,92,SD11*%
%TO.N,unconnected-(U3-SD11-Pad92)*%
X110389400Y-106088600D03*
%TO.P,U3,93,SD10*%
%TO.N,unconnected-(U3-SD10-Pad93)*%
X110389400Y-106738600D03*
%TO.P,U3,94,SD9*%
%TO.N,unconnected-(U3-SD9-Pad94)*%
X110389400Y-107388600D03*
%TO.P,U3,95,SD8*%
%TO.N,unconnected-(U3-SD8-Pad95)*%
X110389400Y-108038600D03*
%TO.P,U3,96,~{IOCS16B/SLOT16}*%
%TO.N,/~{IOCS16}*%
X110389400Y-108688600D03*
%TO.P,U3,97,INT7/IRQ15*%
%TO.N,unconnected-(U3-INT7{slash}IRQ15-Pad97)*%
X110389400Y-109338600D03*
%TO.P,U3,98,INT6/IRQ12*%
%TO.N,unconnected-(U3-INT6{slash}IRQ12-Pad98)*%
X110389400Y-109988600D03*
%TO.P,U3,99,INT5/IRQ11*%
%TO.N,unconnected-(U3-INT5{slash}IRQ11-Pad99)*%
X110389400Y-110638600D03*
%TO.P,U3,100,INT4/IRQ10*%
%TO.N,unconnected-(U3-INT4{slash}IRQ10-Pad100)*%
X110389400Y-111288600D03*
%TD*%
D14*
%TO.P,R17,1*%
%TO.N,/TP_RX+*%
X168605200Y-83007200D03*
D15*
%TO.P,R17,2*%
%TO.N,/TP_RX-*%
X158445200Y-83007200D03*
%TD*%
D14*
%TO.P,C7,1*%
%TO.N,Net-(J5-TCT)*%
X182575200Y-95239200D03*
%TO.P,C7,2*%
%TO.N,GND*%
X182575200Y-100239200D03*
%TD*%
%TO.P,R18,1*%
%TO.N,Net-(J5-LEDY_K)*%
X200456800Y-83261200D03*
D15*
%TO.P,R18,2*%
%TO.N,/LED_CRS*%
X190296800Y-83261200D03*
%TD*%
D14*
%TO.P,C10,1*%
%TO.N,GND*%
X167272800Y-76507200D03*
%TO.P,C10,2*%
%TO.N,Net-(U3-X1)*%
X162272800Y-76507200D03*
%TD*%
%TO.P,C9,1*%
%TO.N,GND*%
X167272800Y-72907200D03*
%TO.P,C9,2*%
%TO.N,Net-(U3-X2)*%
X162272800Y-72907200D03*
%TD*%
D18*
%TO.P,BUS1,32,IO_CH_CK*%
%TO.N,unconnected-(BUS1-IO_CH_CK-Pad32)*%
X180340000Y-130492500D03*
%TO.P,BUS1,33,SD7*%
%TO.N,/D7*%
X177800000Y-130492500D03*
%TO.P,BUS1,34,SD6*%
%TO.N,/D6*%
X175260000Y-130492500D03*
%TO.P,BUS1,35,SD5*%
%TO.N,/D5*%
X172720000Y-130492500D03*
%TO.P,BUS1,36,SD4*%
%TO.N,/D4*%
X170180000Y-130492500D03*
%TO.P,BUS1,37,SD3*%
%TO.N,/D3*%
X167640000Y-130492500D03*
%TO.P,BUS1,38,SD2*%
%TO.N,/D2*%
X165100000Y-130492500D03*
%TO.P,BUS1,39,SD1*%
%TO.N,/D1*%
X162560000Y-130492500D03*
%TO.P,BUS1,40,SD0*%
%TO.N,/D0*%
X160020000Y-130492500D03*
%TO.P,BUS1,41,IO_READY*%
%TO.N,/IOCHRDY*%
X157480000Y-130492500D03*
%TO.P,BUS1,42,AEN*%
%TO.N,/AEN*%
X154940000Y-130492500D03*
%TO.P,BUS1,43,SA19*%
%TO.N,/A19*%
X152400000Y-130492500D03*
%TO.P,BUS1,44,SA18*%
%TO.N,/A18*%
X149860000Y-130492500D03*
%TO.P,BUS1,45,SA17*%
%TO.N,/A17*%
X147320000Y-130492500D03*
%TO.P,BUS1,46,SA16*%
%TO.N,/A16*%
X144780000Y-130492500D03*
%TO.P,BUS1,47,SA15*%
%TO.N,/A15*%
X142240000Y-130492500D03*
%TO.P,BUS1,48,SA14*%
%TO.N,/A14*%
X139700000Y-130492500D03*
%TO.P,BUS1,49,SA13*%
%TO.N,/A13*%
X137160000Y-130492500D03*
%TO.P,BUS1,50,SA12*%
%TO.N,/A12*%
X134620000Y-130492500D03*
%TO.P,BUS1,51,SA11*%
%TO.N,/A11*%
X132080000Y-130492500D03*
%TO.P,BUS1,52,SA10*%
%TO.N,/A10*%
X129540000Y-130492500D03*
%TO.P,BUS1,53,SA9*%
%TO.N,/A9*%
X127000000Y-130492500D03*
%TO.P,BUS1,54,SA8*%
%TO.N,/A8*%
X124460000Y-130492500D03*
%TO.P,BUS1,55,SA7*%
%TO.N,/A7*%
X121920000Y-130492500D03*
%TO.P,BUS1,56,SA6*%
%TO.N,/A6*%
X119380000Y-130492500D03*
%TO.P,BUS1,57,SA5*%
%TO.N,/A5*%
X116840000Y-130492500D03*
%TO.P,BUS1,58,SA4*%
%TO.N,/A4*%
X114300000Y-130492500D03*
%TO.P,BUS1,59,SA3*%
%TO.N,/A3*%
X111760000Y-130492500D03*
%TO.P,BUS1,60,SA2*%
%TO.N,/A2*%
X109220000Y-130492500D03*
%TO.P,BUS1,61,SA1*%
%TO.N,/A1*%
X106680000Y-130492500D03*
%TO.P,BUS1,62,SA0*%
%TO.N,/A0*%
X104140000Y-130492500D03*
%TD*%
D14*
%TO.P,C4,1*%
%TO.N,VCC*%
X110299000Y-113688000D03*
%TO.P,C4,2*%
%TO.N,GND*%
X105299000Y-113688000D03*
%TD*%
%TO.P,R19,1*%
%TO.N,Net-(J5-LEDG_K)*%
X200480000Y-106000000D03*
D15*
%TO.P,R19,2*%
%TO.N,/LED_LINK*%
X190320000Y-106000000D03*
%TD*%
D14*
%TO.P,C8,1*%
%TO.N,Net-(J5-RCT)*%
X182575200Y-92619200D03*
%TO.P,C8,2*%
%TO.N,GND*%
X182575200Y-87619200D03*
%TD*%
D19*
%TO.P,J5,13,SHIELD*%
%TO.N,GND*%
X192520000Y-102390000D03*
X192520000Y-86840000D03*
D20*
%TO.P,J5,L1,LEDY_A*%
%TO.N,VCC*%
X200470000Y-88290000D03*
%TO.P,J5,L2,LEDY_K*%
%TO.N,Net-(J5-LEDY_K)*%
X200470000Y-90830000D03*
%TO.P,J5,L3,LEDG_K*%
%TO.N,Net-(J5-LEDG_K)*%
X200470000Y-98400000D03*
%TO.P,J5,L4,LEDG_A*%
%TO.N,VCC*%
X200470000Y-100940000D03*
D21*
%TO.P,J5,R1,TD+*%
%TO.N,/TP_TX+*%
X189230000Y-99060000D03*
D22*
%TO.P,J5,R2,TD-*%
%TO.N,/TP_TX-*%
X186690000Y-97790000D03*
%TO.P,J5,R3,RD+*%
%TO.N,/TP_RX+*%
X189230000Y-96520000D03*
%TO.P,J5,R4,TCT*%
%TO.N,Net-(J5-TCT)*%
X186690000Y-95250000D03*
%TO.P,J5,R5,RCT*%
%TO.N,Net-(J5-RCT)*%
X189230000Y-93980000D03*
%TO.P,J5,R6,RD-*%
%TO.N,/TP_RX-*%
X186690000Y-92710000D03*
%TO.P,J5,R7,NC*%
%TO.N,unconnected-(J5-NC-PadR7)*%
X189230000Y-91440000D03*
%TO.P,J5,R8,GND*%
%TO.N,GND*%
X186690000Y-90170000D03*
%TD*%
D23*
%TO.P,C6,1*%
%TO.N,VCC*%
X190310779Y-120599200D03*
D14*
%TO.P,C6,2*%
%TO.N,GND*%
X187810779Y-120599200D03*
%TD*%
D23*
%TO.P,C1,1*%
%TO.N,VCC*%
X76606400Y-120599200D03*
D14*
%TO.P,C1,2*%
%TO.N,GND*%
X74106400Y-120599200D03*
%TD*%
%TO.P,R6,1*%
%TO.N,/BD3*%
X102463600Y-80721200D03*
D15*
%TO.P,R6,2*%
%TO.N,Net-(J3-Pin_2)*%
X102463600Y-70561200D03*
%TD*%
D24*
%TO.P,J1,1,Pin_1*%
%TO.N,VCC*%
X129641600Y-63844800D03*
D25*
%TO.P,J1,2,Pin_2*%
%TO.N,Net-(J1-Pin_2)*%
X129641600Y-66384800D03*
%TO.P,J1,3,Pin_3*%
%TO.N,VCC*%
X127101600Y-63844800D03*
%TO.P,J1,4,Pin_4*%
%TO.N,Net-(J1-Pin_4)*%
X127101600Y-66384800D03*
%TD*%
D24*
%TO.P,J2,1,Pin_1*%
%TO.N,VCC*%
X108310600Y-63844800D03*
D25*
%TO.P,J2,2,Pin_2*%
%TO.N,Net-(J2-Pin_2)*%
X108310600Y-66384800D03*
%TO.P,J2,3,Pin_3*%
%TO.N,VCC*%
X105770600Y-63844800D03*
%TO.P,J2,4,Pin_4*%
%TO.N,Net-(J2-Pin_4)*%
X105770600Y-66384800D03*
%TD*%
D14*
%TO.P,R21,1*%
%TO.N,/AS1*%
X139039600Y-70561200D03*
D15*
%TO.P,R21,2*%
%TO.N,VCC*%
X139039600Y-80721200D03*
%TD*%
D14*
%TO.P,R23,1*%
%TO.N,/~{IRQ}*%
X164185600Y-98267600D03*
D15*
%TO.P,R23,2*%
%TO.N,VCC*%
X174345600Y-98267600D03*
%TD*%
D26*
%TO.P,BT1,1,+*%
%TO.N,Net-(BT1-+)*%
X194899280Y-72999600D03*
%TO.P,BT1,2,-*%
%TO.N,GND*%
X174899320Y-72999600D03*
%TD*%
D24*
%TO.P,J4,1,Pin_1*%
%TO.N,VCC*%
X122778600Y-63844800D03*
D25*
%TO.P,J4,2,Pin_2*%
%TO.N,Net-(J4-Pin_2)*%
X122778600Y-66384800D03*
%TO.P,J4,3,Pin_3*%
%TO.N,VCC*%
X120238600Y-63844800D03*
%TO.P,J4,4,Pin_4*%
%TO.N,Net-(J4-Pin_4)*%
X120238600Y-66384800D03*
%TO.P,J4,5,Pin_5*%
%TO.N,VCC*%
X117698600Y-63844800D03*
%TO.P,J4,6,Pin_6*%
%TO.N,Net-(J4-Pin_6)*%
X117698600Y-66384800D03*
%TO.P,J4,7,Pin_7*%
%TO.N,VCC*%
X115158600Y-63844800D03*
%TO.P,J4,8,Pin_8*%
%TO.N,Net-(J4-Pin_8)*%
X115158600Y-66384800D03*
%TO.P,J4,9,Pin_9*%
%TO.N,VCC*%
X112618600Y-63844800D03*
%TO.P,J4,10,Pin_10*%
%TO.N,Net-(J4-Pin_10)*%
X112618600Y-66384800D03*
%TD*%
D14*
%TO.P,R5,1*%
%TO.N,/BD5*%
X105511600Y-80721200D03*
D15*
%TO.P,R5,2*%
%TO.N,Net-(J2-Pin_4)*%
X105511600Y-70561200D03*
%TD*%
D14*
%TO.P,R8,1*%
%TO.N,/BD1*%
X96367600Y-80721200D03*
D15*
%TO.P,R8,2*%
%TO.N,Net-(J3-Pin_6)*%
X96367600Y-70561200D03*
%TD*%
D14*
%TO.P,R10,1*%
%TO.N,/AUI*%
X132943600Y-80721200D03*
D15*
%TO.P,R10,2*%
%TO.N,GND*%
X132943600Y-70561200D03*
%TD*%
D24*
%TO.P,JP3,1,A*%
%TO.N,VCC*%
X147218400Y-91953000D03*
D27*
%TO.P,JP3,2,B*%
%TO.N,Net-(JP3-B)*%
X147218400Y-89413000D03*
%TD*%
D14*
%TO.P,R12,1*%
%TO.N,/BA19*%
X120751600Y-80721200D03*
D15*
%TO.P,R12,2*%
%TO.N,Net-(J4-Pin_4)*%
X120751600Y-70561200D03*
%TD*%
D14*
%TO.P,R9,1*%
%TO.N,/BD0*%
X93319600Y-80721200D03*
D15*
%TO.P,R9,2*%
%TO.N,Net-(J3-Pin_8)*%
X93319600Y-70561200D03*
%TD*%
D24*
%TO.P,J6,1,Pin_1*%
%TO.N,GND*%
X141579600Y-63814800D03*
D27*
%TO.P,J6,2,Pin_2*%
%TO.N,/AS2*%
X141579600Y-66354800D03*
%TO.P,J6,3,Pin_3*%
%TO.N,GND*%
X139039600Y-63814800D03*
%TO.P,J6,4,Pin_4*%
%TO.N,/AS1*%
X139039600Y-66354800D03*
%TO.P,J6,5,Pin_5*%
%TO.N,GND*%
X136499600Y-63814800D03*
%TO.P,J6,6,Pin_6*%
%TO.N,/AS0*%
X136499600Y-66354800D03*
%TD*%
D14*
%TO.P,R13,1*%
%TO.N,/BA18*%
X117703600Y-80721200D03*
D15*
%TO.P,R13,2*%
%TO.N,Net-(J4-Pin_6)*%
X117703600Y-70561200D03*
%TD*%
D24*
%TO.P,JP2,1,A*%
%TO.N,VCC*%
X182976600Y-106476800D03*
D27*
%TO.P,JP2,2,B*%
%TO.N,Net-(JP2-B)*%
X185516600Y-106476800D03*
%TD*%
D28*
%TO.P,Y2,1,1*%
%TO.N,Net-(U5-X2)*%
X148742400Y-112979200D03*
%TO.P,Y2,2,2*%
%TO.N,Net-(U5-X1)*%
X148742400Y-114679200D03*
D29*
%TO.P,Y2,3,3*%
%TO.N,GND*%
X144242400Y-113829200D03*
%TD*%
D24*
%TO.P,J3,1,Pin_1*%
%TO.N,VCC*%
X101691600Y-63844800D03*
D25*
%TO.P,J3,2,Pin_2*%
%TO.N,Net-(J3-Pin_2)*%
X101691600Y-66384800D03*
%TO.P,J3,3,Pin_3*%
%TO.N,VCC*%
X99151600Y-63844800D03*
%TO.P,J3,4,Pin_4*%
%TO.N,Net-(J3-Pin_4)*%
X99151600Y-66384800D03*
%TO.P,J3,5,Pin_5*%
%TO.N,VCC*%
X96611600Y-63844800D03*
%TO.P,J3,6,Pin_6*%
%TO.N,Net-(J3-Pin_6)*%
X96611600Y-66384800D03*
%TO.P,J3,7,Pin_7*%
%TO.N,VCC*%
X94071600Y-63844800D03*
%TO.P,J3,8,Pin_8*%
%TO.N,Net-(J3-Pin_8)*%
X94071600Y-66384800D03*
%TD*%
D24*
%TO.P,JP1,1,A*%
%TO.N,Net-(JP1-A)*%
X159054800Y-98267600D03*
D27*
%TO.P,JP1,2,B*%
%TO.N,GND*%
X156514800Y-98267600D03*
%TD*%
D14*
%TO.P,R22,1*%
%TO.N,/AS2*%
X142087600Y-70561200D03*
D15*
%TO.P,R22,2*%
%TO.N,VCC*%
X142087600Y-80721200D03*
%TD*%
D14*
%TO.P,R11,1*%
%TO.N,/BA20*%
X123799600Y-80721200D03*
D15*
%TO.P,R11,2*%
%TO.N,Net-(J4-Pin_2)*%
X123799600Y-70561200D03*
%TD*%
D14*
%TO.P,R2,1*%
%TO.N,/JP*%
X129895600Y-80721200D03*
D15*
%TO.P,R2,2*%
%TO.N,Net-(J1-Pin_2)*%
X129895600Y-70561200D03*
%TD*%
D14*
%TO.P,R4,1*%
%TO.N,/BD6*%
X108559600Y-80721200D03*
D15*
%TO.P,R4,2*%
%TO.N,Net-(J2-Pin_2)*%
X108559600Y-70561200D03*
%TD*%
D14*
%TO.P,C12,1*%
%TO.N,VCC*%
X150611200Y-83007200D03*
%TO.P,C12,2*%
%TO.N,GND*%
X155611200Y-83007200D03*
%TD*%
%TO.P,C11,1*%
%TO.N,VCC*%
X182727600Y-110022000D03*
%TO.P,C11,2*%
%TO.N,GND*%
X182727600Y-115022000D03*
%TD*%
%TO.P,R14,1*%
%TO.N,/BA17*%
X114655600Y-80721200D03*
D15*
%TO.P,R14,2*%
%TO.N,Net-(J4-Pin_8)*%
X114655600Y-70561200D03*
%TD*%
D14*
%TO.P,R20,1*%
%TO.N,/AS0*%
X135991600Y-70561200D03*
D15*
%TO.P,R20,2*%
%TO.N,VCC*%
X135991600Y-80721200D03*
%TD*%
D14*
%TO.P,R15,1*%
%TO.N,/BA16*%
X111607600Y-80721200D03*
D15*
%TO.P,R15,2*%
%TO.N,Net-(J4-Pin_10)*%
X111607600Y-70561200D03*
%TD*%
D14*
%TO.P,R7,1*%
%TO.N,/BD2*%
X99415600Y-80721200D03*
D15*
%TO.P,R7,2*%
%TO.N,Net-(J3-Pin_4)*%
X99415600Y-70561200D03*
%TD*%
D14*
%TO.P,R3,1*%
%TO.N,/BA21*%
X126847600Y-80721200D03*
D15*
%TO.P,R3,2*%
%TO.N,Net-(J1-Pin_4)*%
X126847600Y-70561200D03*
%TD*%
D30*
%TO.P,U5,1,MOT*%
%TO.N,unconnected-(U5-MOT-Pad1)*%
X151429800Y-117043200D03*
D31*
%TO.P,U5,2,X1*%
%TO.N,Net-(U5-X1)*%
X153969800Y-117043200D03*
%TO.P,U5,3,X2*%
%TO.N,Net-(U5-X2)*%
X156509800Y-117043200D03*
%TO.P,U5,4,AD0*%
%TO.N,/D0*%
X159049800Y-117043200D03*
%TO.P,U5,5,AD1*%
%TO.N,/D1*%
X161589800Y-117043200D03*
%TO.P,U5,6,AD2*%
%TO.N,/D2*%
X164129800Y-117043200D03*
%TO.P,U5,7,AD3*%
%TO.N,/D3*%
X166669800Y-117043200D03*
%TO.P,U5,8,AD4*%
%TO.N,/D4*%
X169209800Y-117043200D03*
%TO.P,U5,9,AD5*%
%TO.N,/D5*%
X171749800Y-117043200D03*
%TO.P,U5,10,AD6*%
%TO.N,/D6*%
X174289800Y-117043200D03*
%TO.P,U5,11,AD7*%
%TO.N,/D7*%
X176829800Y-117043200D03*
%TO.P,U5,12,GND*%
%TO.N,GND*%
X179369800Y-117043200D03*
%TO.P,U5,13,~{CS}*%
X179369800Y-101803200D03*
%TO.P,U5,14,AS*%
%TO.N,/RTCALE*%
X176829800Y-101803200D03*
%TO.P,U5,15,R/~{W}*%
%TO.N,/RTCWR*%
X174289800Y-101803200D03*
%TO.P,U5,16,GND*%
%TO.N,GND*%
X171749800Y-101803200D03*
%TO.P,U5,17,DS*%
%TO.N,/RTCRD*%
X169209800Y-101803200D03*
%TO.P,U5,18,~{RESET}*%
%TO.N,VCC*%
X166669800Y-101803200D03*
%TO.P,U5,19,~{IRQ}*%
%TO.N,/~{IRQ}*%
X164129800Y-101803200D03*
%TO.P,U5,20,VBAT*%
%TO.N,Net-(BT1-+)*%
X161589800Y-101803200D03*
%TO.P,U5,21,~{RCLR}*%
%TO.N,Net-(JP1-A)*%
X159049800Y-101803200D03*
%TO.P,U5,22,NC*%
%TO.N,unconnected-(U5-NC-Pad22)*%
X156509800Y-101803200D03*
%TO.P,U5,23,SQW*%
%TO.N,unconnected-(U5-SQW-Pad23)*%
X153969800Y-101803200D03*
%TO.P,U5,24,VCC*%
%TO.N,Net-(JP2-B)*%
X151429800Y-101803200D03*
%TD*%
D30*
%TO.P,U4,1,I/CLK*%
%TO.N,/A0*%
X150876000Y-94488000D03*
D31*
%TO.P,U4,2,I1*%
%TO.N,/A2*%
X153416000Y-94488000D03*
%TO.P,U4,3,I2*%
%TO.N,/A3*%
X155956000Y-94488000D03*
%TO.P,U4,4,I3*%
%TO.N,/A4*%
X158496000Y-94488000D03*
%TO.P,U4,5,I4*%
%TO.N,/A5*%
X161036000Y-94488000D03*
%TO.P,U4,6,I5*%
%TO.N,/A6*%
X163576000Y-94488000D03*
%TO.P,U4,7,I6*%
%TO.N,/A7*%
X166116000Y-94488000D03*
%TO.P,U4,8,I7*%
%TO.N,/A8*%
X168656000Y-94488000D03*
%TO.P,U4,9,I8*%
%TO.N,/A9*%
X171196000Y-94488000D03*
%TO.P,U4,10,GND*%
%TO.N,GND*%
X173736000Y-94488000D03*
%TO.P,U4,11,I9/~{OE}*%
%TO.N,/AS2*%
X173736000Y-86868000D03*
%TO.P,U4,12,I/O8*%
%TO.N,/~{IOW}*%
X171196000Y-86868000D03*
%TO.P,U4,13,I/O7*%
%TO.N,/~{IOR}*%
X168656000Y-86868000D03*
%TO.P,U4,14,I/O6*%
%TO.N,/RTCALE*%
X166116000Y-86868000D03*
%TO.P,U4,15,I/O5*%
%TO.N,/RTCWR*%
X163576000Y-86868000D03*
%TO.P,U4,16,I/O4*%
%TO.N,/RTCRD*%
X161036000Y-86868000D03*
%TO.P,U4,17,I/O3*%
%TO.N,/AEN*%
X158496000Y-86868000D03*
%TO.P,U4,18,I/O2*%
%TO.N,/AS1*%
X155956000Y-86868000D03*
%TO.P,U4,19,I/O1*%
%TO.N,/AS0*%
X153416000Y-86868000D03*
%TO.P,U4,20,VCC*%
%TO.N,Net-(JP3-B)*%
X150876000Y-86868000D03*
%TD*%
D32*
%TO.N,/A0*%
X131470400Y-101904800D03*
X115265200Y-112166400D03*
X104140000Y-123190000D03*
X137414000Y-100279200D03*
X116078000Y-103174800D03*
%TO.N,/A1*%
X106680000Y-123393200D03*
%TO.N,/A10*%
X123989400Y-115961000D03*
%TO.N,/A11*%
X124639400Y-117297200D03*
%TO.N,/A12*%
X125289400Y-118059200D03*
%TO.N,/A13*%
X125939400Y-116586000D03*
%TO.N,/A2*%
X109596907Y-124184693D03*
X140932500Y-96554100D03*
X127242600Y-108601700D03*
%TO.N,/A3*%
X112637705Y-121801989D03*
X126815500Y-109493700D03*
X142074300Y-96953200D03*
%TO.N,/A4*%
X137075800Y-95643300D03*
X114336516Y-120984094D03*
X120433400Y-101187700D03*
X121548000Y-110468000D03*
X128702400Y-101538800D03*
%TO.N,/A5*%
X142797400Y-97683500D03*
X118618000Y-120802400D03*
X125409900Y-111252800D03*
%TO.N,/A6*%
X121354892Y-111877800D03*
X140716000Y-111556800D03*
X119497000Y-120316281D03*
X149555200Y-108762800D03*
%TO.N,/A7*%
X121920000Y-122529600D03*
X178257200Y-69240400D03*
X90576400Y-61366400D03*
X134414385Y-61584169D03*
%TO.N,/A8*%
X179527200Y-69240400D03*
X122682000Y-118770400D03*
X134366000Y-60198000D03*
%TO.N,/A9*%
X127000000Y-122377200D03*
X170230800Y-99110800D03*
X167944800Y-104409400D03*
X123088400Y-117957600D03*
X172974000Y-110794800D03*
X134162800Y-119024400D03*
X137363200Y-117500400D03*
%TO.N,/AEN*%
X137565105Y-111267400D03*
X156117000Y-89135500D03*
%TO.N,/~{IOR}*%
X140970000Y-116332000D03*
X147066000Y-119024400D03*
X131936512Y-116648832D03*
X147523200Y-109118400D03*
%TO.N,/~{IOW}*%
X153517600Y-121666000D03*
X150622000Y-122021600D03*
X177952400Y-121513600D03*
X151841200Y-120228200D03*
X166319200Y-104531800D03*
%TO.N,GND*%
X130226900Y-99935200D03*
X157886400Y-122224800D03*
X144242400Y-113829200D03*
X148742400Y-111506000D03*
X136855200Y-113741200D03*
D33*
X93370400Y-123799600D03*
D32*
X130588700Y-102840400D03*
D33*
%TO.N,VCC*%
X178816000Y-123799600D03*
D32*
X113487200Y-103835200D03*
X171680200Y-104530000D03*
X119024400Y-100228400D03*
X123342400Y-112689800D03*
X116189300Y-112318800D03*
D33*
X101447600Y-124510800D03*
D32*
X107764800Y-105819500D03*
%TO.N,/RSTDRV*%
X136448800Y-109982000D03*
%TO.N,/IRQ9*%
X114909600Y-115966000D03*
%TO.N,/~{SMEMW}*%
X129758900Y-109449800D03*
X155752800Y-121818400D03*
X155752800Y-119126000D03*
X136956800Y-110642400D03*
X116933200Y-75908400D03*
%TO.N,/~{SMEMR}*%
X91846400Y-116417000D03*
X92151200Y-115163600D03*
X133858000Y-112979200D03*
X154482800Y-122224800D03*
X147969600Y-115452000D03*
%TO.N,/IRQ5*%
X108458000Y-121767600D03*
%TO.N,/IRQ4*%
X109289490Y-122482693D03*
%TO.N,/IRQ3*%
X110484705Y-122665500D03*
%TO.N,/TP_RX-*%
X130403600Y-74269600D03*
X128828800Y-91694000D03*
X147116800Y-74117200D03*
%TO.N,/TP_RX+*%
X127974300Y-90698800D03*
X168646000Y-69850000D03*
X128524000Y-68986400D03*
%TO.N,/TP_TX-*%
X170281600Y-96469200D03*
X162560000Y-96418400D03*
X160731200Y-96418400D03*
%TO.N,/TP_TX+*%
X160922700Y-100133500D03*
X182016400Y-102514400D03*
%TO.N,/LED_LINK*%
X125272800Y-98196400D03*
X137464800Y-103616600D03*
%TO.N,/BD6*%
X95600200Y-99762800D03*
%TO.N,/BD4*%
X108065900Y-102957700D03*
X108197000Y-97569000D03*
X94683000Y-106293300D03*
%TO.N,/BD1*%
X112721200Y-100204100D03*
%TO.N,/BA15*%
X75768000Y-75073200D03*
X117305100Y-94017000D03*
X117075100Y-76847900D03*
%TO.N,/BA14*%
X113950900Y-99461800D03*
%TO.N,/~{BCS}*%
X109230300Y-97168600D03*
X96664500Y-98438900D03*
%TO.N,/EECS*%
X115747100Y-94335200D03*
X97255500Y-102605900D03*
%TO.N,/BD7*%
X110163500Y-97381100D03*
X97372800Y-101050100D03*
%TO.N,/LED_CRS*%
X145364300Y-82090900D03*
X149733300Y-81929200D03*
%TO.N,Net-(J5-RCT)*%
X183540400Y-90322400D03*
%TO.N,Net-(BT1-+)*%
X170180000Y-83870800D03*
X171805600Y-71882000D03*
%TO.N,/AS2*%
X171621700Y-73880100D03*
%TO.N,Net-(JP2-B)*%
X183286400Y-103159400D03*
%TD*%
D34*
%TO.N,/A0*%
X131470400Y-101904800D02*
X131210400Y-102164800D01*
X106099502Y-123088400D02*
X106420702Y-122767200D01*
X111109705Y-123050085D02*
X111109705Y-121169071D01*
X112004787Y-120273989D02*
X112254581Y-120273989D01*
X106420702Y-122767200D02*
X106939298Y-122767200D01*
X115539000Y-114765800D02*
X115539400Y-114765400D01*
X137414000Y-96635395D02*
X139561395Y-94488000D01*
X109150799Y-123107693D02*
X110043015Y-123107693D01*
X117088000Y-102164800D02*
X116078000Y-103174800D01*
X104140000Y-123190000D02*
X104140000Y-130492500D01*
X115265200Y-112166400D02*
X115539400Y-112440600D01*
X108757492Y-123501000D02*
X109150799Y-123107693D01*
X114776506Y-119005094D02*
X115539400Y-118242200D01*
X131210400Y-102164800D02*
X117088000Y-102164800D01*
X106939298Y-122767200D02*
X107673098Y-123501000D01*
X115539400Y-114765400D02*
X115539400Y-114113600D01*
X110043015Y-123107693D02*
X110436322Y-123501000D01*
X115539400Y-118242200D02*
X115539400Y-114113600D01*
X104394000Y-123190000D02*
X104495600Y-123088400D01*
X104140000Y-130492500D02*
X104140000Y-130492000D01*
X113516788Y-119005094D02*
X114776506Y-119005094D01*
X110658790Y-123501000D02*
X111109705Y-123050085D01*
X115539400Y-112440600D02*
X115539400Y-114113600D01*
X112357516Y-120171054D02*
X112357516Y-120164366D01*
X104140000Y-123190000D02*
X104394000Y-123190000D01*
X107673098Y-123501000D02*
X108757492Y-123501000D01*
X111109705Y-121169071D02*
X112004787Y-120273989D01*
X110436322Y-123501000D02*
X110658790Y-123501000D01*
X137414000Y-100279200D02*
X137414000Y-96635395D01*
X112357516Y-120164366D02*
X113516788Y-119005094D01*
X139561395Y-94488000D02*
X150876000Y-94488000D01*
X104495600Y-123088400D02*
X106099502Y-123088400D01*
X112254581Y-120273989D02*
X112357516Y-120171054D01*
%TO.N,/A1*%
X106680000Y-123393200D02*
X106680000Y-123952000D01*
X108970907Y-123925395D02*
X109337609Y-123558693D01*
X116560706Y-119456094D02*
X116839400Y-119177400D01*
X116839400Y-114879900D02*
X116839400Y-114113600D01*
X116839400Y-119177400D02*
X116839400Y-114113600D01*
X116839000Y-114880300D02*
X116839400Y-114879900D01*
X110222907Y-123952000D02*
X110845600Y-123952000D01*
X106680000Y-123952000D02*
X108970907Y-123952000D01*
X106680000Y-130492500D02*
X106680000Y-130492000D01*
X106680000Y-123393200D02*
X106680000Y-130492500D01*
X109856205Y-123558693D02*
X110222907Y-123925395D01*
X110222907Y-123925395D02*
X110222907Y-123952000D01*
X111560705Y-123236895D02*
X111560705Y-121355881D01*
X111560705Y-121355881D02*
X112191597Y-120724989D01*
X108970907Y-123952000D02*
X108970907Y-123925395D01*
X110845600Y-123952000D02*
X111560705Y-123236895D01*
X109337609Y-123558693D02*
X109856205Y-123558693D01*
X112441391Y-120724989D02*
X112808516Y-120357864D01*
X113703598Y-119456094D02*
X116560706Y-119456094D01*
X112808516Y-120357864D02*
X112808516Y-120351176D01*
X112191597Y-120724989D02*
X112441391Y-120724989D01*
X112808516Y-120351176D02*
X113703598Y-119456094D01*
%TO.N,/A10*%
X123989400Y-114113600D02*
X123989400Y-118299800D01*
X129540000Y-123850400D02*
X129540000Y-130492500D01*
X123989000Y-114880300D02*
X123989400Y-114879900D01*
X123989400Y-114879900D02*
X123989400Y-114113600D01*
X129540000Y-130492500D02*
X129540000Y-130492000D01*
X123989400Y-118299800D02*
X129540000Y-123850400D01*
%TO.N,/A11*%
X129003210Y-122675800D02*
X129991000Y-122675800D01*
X124639400Y-118311990D02*
X129003210Y-122675800D01*
X124639400Y-114754900D02*
X124639400Y-114113600D01*
X124639400Y-117297200D02*
X124639400Y-118311990D01*
X132080000Y-124764800D02*
X132080000Y-130492500D01*
X124639000Y-114755300D02*
X124639400Y-114754900D01*
X124639400Y-114113600D02*
X124639400Y-117297200D01*
X129991000Y-122675800D02*
X132080000Y-124764800D01*
%TO.N,/A12*%
X125289000Y-115392200D02*
X125289400Y-115391800D01*
X134620000Y-124663200D02*
X134620000Y-130492500D01*
X125289400Y-115391800D02*
X125289400Y-114113600D01*
X130442000Y-122466400D02*
X130905400Y-122929800D01*
X129190020Y-122224800D02*
X130177810Y-122224800D01*
X130419410Y-122466400D02*
X130442000Y-122466400D01*
X125289400Y-118324180D02*
X129190020Y-122224800D01*
X125289400Y-114113600D02*
X125289400Y-118324180D01*
X132886600Y-122929800D02*
X134620000Y-124663200D01*
X130905400Y-122929800D02*
X132886600Y-122929800D01*
X130177810Y-122224800D02*
X130419410Y-122466400D01*
%TO.N,/A13*%
X130628810Y-122015400D02*
X131092210Y-122478800D01*
X129376830Y-121773800D02*
X130364620Y-121773800D01*
X125939000Y-114880300D02*
X125939400Y-114879900D01*
X131092210Y-122478800D02*
X135077200Y-122478800D01*
X137160000Y-130492500D02*
X137160000Y-130492000D01*
X130364620Y-121773800D02*
X130606220Y-122015400D01*
X125939400Y-114879900D02*
X125939400Y-114113600D01*
X125939400Y-114113600D02*
X125939400Y-116586000D01*
X137160000Y-124561600D02*
X137160000Y-130492500D01*
X125939400Y-118336370D02*
X129376830Y-121773800D01*
X125939400Y-116586000D02*
X125939400Y-118336370D01*
X135077200Y-122478800D02*
X137160000Y-124561600D01*
X130606220Y-122015400D02*
X130628810Y-122015400D01*
%TO.N,/A14*%
X126589400Y-118348560D02*
X129563640Y-121322800D01*
X139700000Y-124561600D02*
X139700000Y-130492500D01*
X126589400Y-114113600D02*
X126589400Y-118348560D01*
X130815620Y-121564400D02*
X131279020Y-122027800D01*
X137166200Y-122027800D02*
X139700000Y-124561600D01*
X129563640Y-121322800D02*
X130551430Y-121322800D01*
X130793030Y-121564400D02*
X130815620Y-121564400D01*
X126589400Y-114113600D02*
X126589000Y-114114000D01*
X131279020Y-122027800D02*
X137166200Y-122027800D01*
X130551430Y-121322800D02*
X130793030Y-121564400D01*
X139700000Y-130492500D02*
X139700000Y-130492000D01*
%TO.N,/A15*%
X127239400Y-114113600D02*
X127239400Y-118360750D01*
X142240000Y-130492500D02*
X142240000Y-126783800D01*
X127239000Y-114880300D02*
X127239400Y-114879900D01*
X127239400Y-118360750D02*
X129750450Y-120871800D01*
X142240000Y-124510800D02*
X142240000Y-130492500D01*
X129750450Y-120871800D02*
X130738240Y-120871800D01*
X139293600Y-121564400D02*
X142240000Y-124510800D01*
X131002430Y-121113400D02*
X131453430Y-121564400D01*
X131453430Y-121564400D02*
X139293600Y-121564400D01*
X127239400Y-114879900D02*
X127239400Y-114113600D01*
X130979840Y-121113400D02*
X131002430Y-121113400D01*
X130738240Y-120871800D02*
X130979840Y-121113400D01*
%TO.N,/A16*%
X144780000Y-130492500D02*
X144780000Y-130492000D01*
X127889400Y-118339000D02*
X129971200Y-120420800D01*
X127889000Y-114880300D02*
X127889400Y-114879900D01*
X141376400Y-121056400D02*
X144780000Y-124460000D01*
X131166650Y-120662400D02*
X131189240Y-120662400D01*
X129971200Y-120420800D02*
X130925050Y-120420800D01*
X127889400Y-114879900D02*
X127889400Y-114113600D01*
X131583240Y-121056400D02*
X141376400Y-121056400D01*
X127889400Y-114113600D02*
X127889400Y-118339000D01*
X144780000Y-124460000D02*
X144780000Y-130492500D01*
X130925050Y-120420800D02*
X131166650Y-120662400D01*
X131189240Y-120662400D02*
X131583240Y-121056400D01*
%TO.N,/A17*%
X131376050Y-120211400D02*
X131763850Y-120599200D01*
X131111860Y-119969800D02*
X131353460Y-120211400D01*
X128539400Y-118328600D02*
X130180600Y-119969800D01*
X128539000Y-116221500D02*
X128539400Y-116221100D01*
X128539400Y-114113600D02*
X128539400Y-118328600D01*
X130180600Y-119969800D02*
X131111860Y-119969800D01*
X147320000Y-124510800D02*
X147320000Y-130492500D01*
X131353460Y-120211400D02*
X131376050Y-120211400D01*
X147320000Y-130492500D02*
X147320000Y-130492000D01*
X131763850Y-120599200D02*
X143408400Y-120599200D01*
X128539400Y-116221100D02*
X128539400Y-114113600D01*
X143408400Y-120599200D02*
X147320000Y-124510800D01*
%TO.N,/A18*%
X130367410Y-119518800D02*
X131298670Y-119518800D01*
X129189000Y-114880700D02*
X129189400Y-114880300D01*
X129189400Y-118340790D02*
X130367410Y-119518800D01*
X131540270Y-119760400D02*
X131562860Y-119760400D01*
X149860000Y-130492500D02*
X149860000Y-130492000D01*
X145389600Y-120142000D02*
X149860000Y-124612400D01*
X129189400Y-114113600D02*
X129189400Y-118340790D01*
X131562860Y-119760400D02*
X131944460Y-120142000D01*
X149860000Y-124612400D02*
X149860000Y-130492500D01*
X131298670Y-119518800D02*
X131540270Y-119760400D01*
X129189400Y-114880300D02*
X129189400Y-114113600D01*
X131944460Y-120142000D02*
X145389600Y-120142000D01*
%TO.N,/A19*%
X152400000Y-130492500D02*
X152400000Y-130492000D01*
X131485480Y-119067800D02*
X131727080Y-119309400D01*
X131727080Y-119309400D02*
X131749670Y-119309400D01*
X129839400Y-114880300D02*
X129839400Y-114113600D01*
X129839400Y-114113600D02*
X129839400Y-118352980D01*
X152400000Y-124815600D02*
X152400000Y-130492500D01*
X132125070Y-119684800D02*
X147269200Y-119684800D01*
X130554220Y-119067800D02*
X131485480Y-119067800D01*
X129839400Y-118352980D02*
X130554220Y-119067800D01*
X129839000Y-114880700D02*
X129839400Y-114880300D01*
X131749670Y-119309400D02*
X132125070Y-119684800D01*
X147269200Y-119684800D02*
X152400000Y-124815600D01*
%TO.N,/A2*%
X116987222Y-120045578D02*
X117489400Y-119543400D01*
X117489400Y-119543400D02*
X117489400Y-114113600D01*
X113259516Y-120537986D02*
X113890408Y-119907094D01*
X113259516Y-120544674D02*
X113259516Y-120537986D01*
X112014000Y-123444000D02*
X112014000Y-122063582D01*
X109596907Y-124184693D02*
X109973814Y-124561600D01*
X112378407Y-121175989D02*
X112628201Y-121175989D01*
X117489000Y-114880700D02*
X117489400Y-114880300D01*
X117489400Y-114880300D02*
X117489400Y-114113600D01*
X112628201Y-121175989D02*
X113259516Y-120544674D01*
X109220000Y-124561600D02*
X109220000Y-130492500D01*
X114921108Y-120045578D02*
X116987222Y-120045578D01*
X112014000Y-122063582D02*
X112011705Y-122061287D01*
X117489400Y-112815500D02*
X117489400Y-114113600D01*
X110896400Y-124561600D02*
X112014000Y-123444000D01*
X151616900Y-96287100D02*
X141199500Y-96287100D01*
X112011705Y-122061287D02*
X112011705Y-121542691D01*
X109220000Y-130492500D02*
X109220000Y-130492000D01*
X109596907Y-124184693D02*
X109220000Y-124561600D01*
X109973814Y-124561600D02*
X110896400Y-124561600D01*
X153416000Y-94488000D02*
X151616900Y-96287100D01*
X113890408Y-119907094D02*
X114782624Y-119907094D01*
X141199500Y-96287100D02*
X140932500Y-96554100D01*
X121703200Y-108601700D02*
X117489400Y-112815500D01*
X112011705Y-121542691D02*
X112378407Y-121175989D01*
X114782624Y-119907094D02*
X114921108Y-120045578D01*
X127242600Y-108601700D02*
X121703200Y-108601700D01*
%TO.N,/A3*%
X126815500Y-109493800D02*
X121460800Y-109493800D01*
X118139400Y-114879900D02*
X118139400Y-114113600D01*
X112638000Y-121802000D02*
X112638900Y-121802900D01*
X114734298Y-120496578D02*
X114595814Y-120358094D01*
X112674400Y-123494800D02*
X111760000Y-124409200D01*
X112674400Y-121767600D02*
X112674400Y-123494800D01*
X117247422Y-120496578D02*
X114734298Y-120496578D01*
X121460800Y-109493800D02*
X118139400Y-112815200D01*
X113710516Y-120724796D02*
X113710516Y-120731484D01*
X142074300Y-96953200D02*
X153490800Y-96953200D01*
X113710516Y-120731484D02*
X112674400Y-121767600D01*
X114077218Y-120358094D02*
X113710516Y-120724796D01*
X118139400Y-116150200D02*
X117970000Y-116319600D01*
X112638900Y-121802900D02*
X112639100Y-121802900D01*
X111760000Y-124409200D02*
X111760000Y-130492500D01*
X118139400Y-114113600D02*
X118139400Y-116150200D01*
X118139400Y-112815200D02*
X118139400Y-114113600D01*
X126815500Y-109493700D02*
X126815500Y-109493800D01*
X114595814Y-120358094D02*
X114077218Y-120358094D01*
X117970000Y-119774000D02*
X117247422Y-120496578D01*
X111760000Y-130492500D02*
X111760000Y-130492000D01*
X118139000Y-114880300D02*
X118139400Y-114879900D01*
X117970000Y-116319600D02*
X117970000Y-119774000D01*
X153490800Y-96953200D02*
X155956000Y-94488000D01*
%TO.N,/A4*%
X114336516Y-120984094D02*
X114300000Y-120947578D01*
X118789000Y-114880300D02*
X118789400Y-114879900D01*
X114300000Y-120947578D02*
X117507622Y-120947578D01*
X121194800Y-110468000D02*
X118789400Y-112873400D01*
X120784500Y-101538800D02*
X128702400Y-101538800D01*
X114300000Y-121020610D02*
X114300000Y-130492500D01*
X121548000Y-110468000D02*
X121194800Y-110468000D01*
X118789400Y-112873400D02*
X118789400Y-114113600D01*
X120433400Y-101187700D02*
X120784500Y-101538800D01*
X118590400Y-116337010D02*
X118590400Y-116308800D01*
X114300000Y-130492500D02*
X114300000Y-130492000D01*
X137075800Y-95643300D02*
X139467500Y-93251600D01*
X118789400Y-114879900D02*
X118789400Y-114113600D01*
X114336516Y-120984094D02*
X114300000Y-121020610D01*
X148390400Y-93251600D02*
X148730800Y-92911200D01*
X139467500Y-93251600D02*
X148390400Y-93251600D01*
X118421000Y-120034200D02*
X118421000Y-116506410D01*
X117507622Y-120947578D02*
X118421000Y-120034200D01*
X148730800Y-92911200D02*
X156919200Y-92911200D01*
X156919200Y-92911200D02*
X158496000Y-94488000D01*
X118590400Y-116308800D02*
X118789400Y-116109800D01*
X118421000Y-116506410D02*
X118590400Y-116337010D01*
X118789400Y-116109800D02*
X118789400Y-114113600D01*
%TO.N,/A5*%
X118618000Y-120802400D02*
X116840000Y-122580400D01*
X155056200Y-96469200D02*
X153841900Y-97683500D01*
X121073500Y-111252800D02*
X119439400Y-112886900D01*
X153841900Y-97683500D02*
X142797400Y-97683500D01*
X119439400Y-112886900D02*
X119439400Y-114113600D01*
X161036000Y-94488000D02*
X159054800Y-96469200D01*
X118872000Y-116693220D02*
X119041400Y-116523820D01*
X118872000Y-120548400D02*
X118872000Y-116693220D01*
X119439400Y-115116600D02*
X119439400Y-114113600D01*
X125409900Y-111252800D02*
X121073500Y-111252800D01*
X116840000Y-122580400D02*
X116840000Y-130492500D01*
X119439400Y-116120200D02*
X119439400Y-114113600D01*
X159054800Y-96469200D02*
X155056200Y-96469200D01*
X119439000Y-115117000D02*
X119439400Y-115116600D01*
X119041400Y-116523820D02*
X119041400Y-116518200D01*
X118618000Y-120802400D02*
X118872000Y-120548400D01*
X116840000Y-130492500D02*
X116840000Y-130492000D01*
X119041400Y-116518200D02*
X119439400Y-116120200D01*
%TO.N,/A6*%
X120932974Y-112064800D02*
X120089400Y-112908374D01*
X119380000Y-120433281D02*
X119380000Y-130492500D01*
X119497000Y-120316281D02*
X120089400Y-119723881D01*
X119380000Y-130492500D02*
X119380000Y-130492000D01*
X140716000Y-111556800D02*
X143779258Y-108493542D01*
X121167892Y-112064800D02*
X120932974Y-112064800D01*
X120089400Y-119723881D02*
X120089400Y-114113600D01*
X149285942Y-108493542D02*
X149555200Y-108762800D01*
X119497000Y-120316281D02*
X119380000Y-120433281D01*
X143779258Y-108493542D02*
X149285942Y-108493542D01*
X120089400Y-117992100D02*
X120089400Y-114113600D01*
X120089000Y-117992500D02*
X120089400Y-117992100D01*
X121354892Y-111877800D02*
X121167892Y-112064800D01*
X120089400Y-112908374D02*
X120089400Y-114113600D01*
%TO.N,/A7*%
X121920000Y-122529600D02*
X121920000Y-130492500D01*
X134518400Y-61417200D02*
X176987200Y-61417200D01*
X74828400Y-61264800D02*
X71780400Y-64312800D01*
X134414385Y-61521215D02*
X134518400Y-61417200D01*
X176987200Y-61417200D02*
X178257200Y-62687200D01*
X120739000Y-116131500D02*
X120739400Y-116131100D01*
X71780400Y-64312800D02*
X71780400Y-80060800D01*
X121920000Y-119329200D02*
X121920000Y-122529600D01*
X178257200Y-62687200D02*
X178257200Y-69240400D01*
X120739400Y-118148600D02*
X121920000Y-119329200D01*
X71780400Y-80060800D02*
X72898000Y-81178400D01*
X134414385Y-61584169D02*
X134414385Y-61521215D01*
X90474800Y-61264800D02*
X74828400Y-61264800D01*
X120739400Y-114113600D02*
X120739400Y-118148600D01*
X90576400Y-61366400D02*
X90474800Y-61264800D01*
X121920000Y-130492500D02*
X121920000Y-130492000D01*
X120739400Y-116131100D02*
X120739400Y-114113600D01*
%TO.N,/A8*%
X177698400Y-60248800D02*
X179120800Y-61671200D01*
X134366000Y-60198000D02*
X134416800Y-60248800D01*
X122666800Y-118770400D02*
X122039400Y-118143000D01*
X124460000Y-120497600D02*
X124460000Y-130492500D01*
X134416800Y-60248800D02*
X172161200Y-60248800D01*
X179527200Y-62077600D02*
X179527200Y-69240400D01*
X122682000Y-118770400D02*
X122666800Y-118770400D01*
X172161200Y-60248800D02*
X177698400Y-60248800D01*
X122682000Y-118770400D02*
X122732800Y-118770400D01*
X179120800Y-61671200D02*
X179527200Y-62077600D01*
X122732800Y-118770400D02*
X124460000Y-120497600D01*
X122039400Y-118143000D02*
X122039400Y-114113600D01*
X124460000Y-130492500D02*
X124460000Y-130492000D01*
%TO.N,/A9*%
X122689000Y-114229200D02*
X122689400Y-114228800D01*
X122689400Y-116638580D02*
X122689400Y-114113600D01*
X171196000Y-98145600D02*
X171196000Y-94488000D01*
X172974000Y-110794800D02*
X172974000Y-109438600D01*
X123088400Y-117957600D02*
X123088400Y-117037580D01*
X127000000Y-121970800D02*
X127000000Y-122377200D01*
X123088400Y-117957600D02*
X123088400Y-118059200D01*
X122689400Y-114228800D02*
X122689400Y-114113600D01*
X172974000Y-109438600D02*
X167944800Y-104409400D01*
X134162800Y-119024400D02*
X135686800Y-117500400D01*
X123088400Y-117037580D02*
X122689400Y-116638580D01*
X127000000Y-122377200D02*
X127000000Y-130492500D01*
X170230800Y-99110800D02*
X171196000Y-98145600D01*
X123088400Y-118059200D02*
X127000000Y-121970800D01*
X127000000Y-130492500D02*
X127000000Y-130492000D01*
X135686800Y-117500400D02*
X137363200Y-117500400D01*
%TO.N,/AEN*%
X137617200Y-115417600D02*
X137617200Y-109778800D01*
X134389800Y-109339000D02*
X134389400Y-109338600D01*
X147828000Y-117906800D02*
X140106400Y-117906800D01*
X154940000Y-130492500D02*
X154940000Y-125018800D01*
X134711600Y-109339000D02*
X134389800Y-109339000D01*
X137617200Y-109778800D02*
X137177000Y-109338600D01*
X156117000Y-89135500D02*
X156228500Y-89135500D01*
X156228500Y-89135500D02*
X158496000Y-86868000D01*
X154940000Y-130492500D02*
X154940000Y-130492000D01*
X137177000Y-109338600D02*
X134389400Y-109338600D01*
X154940000Y-125018800D02*
X147828000Y-117906800D01*
X140106400Y-117906800D02*
X137617200Y-115417600D01*
%TO.N,/D0*%
X160020000Y-118013400D02*
X159049800Y-117043200D01*
X159049800Y-117043200D02*
X159049800Y-116123800D01*
X159499500Y-117492900D02*
X159049800Y-117043200D01*
X150367600Y-107441600D02*
X137312800Y-107441600D01*
X159499900Y-117492900D02*
X159499500Y-117492900D01*
X134389800Y-108039000D02*
X134389400Y-108038600D01*
X160020000Y-130492500D02*
X160020000Y-118013400D01*
X160020000Y-130492500D02*
X160020000Y-130492000D01*
X136715800Y-108038600D02*
X134389400Y-108038600D01*
X135155700Y-108039000D02*
X134389800Y-108039000D01*
X137312800Y-107441600D02*
X136715800Y-108038600D01*
X159049800Y-116123800D02*
X150367600Y-107441600D01*
%TO.N,/D1*%
X135980436Y-106990600D02*
X151537200Y-106990600D01*
X162560000Y-130492500D02*
X162560000Y-118013400D01*
X151537200Y-106990600D02*
X161589800Y-117043200D01*
X134513400Y-107264600D02*
X135718626Y-107264600D01*
X161589800Y-117043200D02*
X161590000Y-117043000D01*
X135965400Y-107005636D02*
X135980436Y-106990600D01*
X134389400Y-107388600D02*
X134513400Y-107264600D01*
X135718626Y-107264600D02*
X135965400Y-107017826D01*
X162560000Y-118013400D02*
X161589800Y-117043200D01*
X135965400Y-107017826D02*
X135965400Y-107005636D01*
X162560000Y-130492500D02*
X162560000Y-130492000D01*
%TO.N,/D2*%
X165100000Y-118013400D02*
X164129800Y-117043200D01*
X164579900Y-117492900D02*
X164579500Y-117492900D01*
X153626200Y-106539600D02*
X164129800Y-117043200D01*
X164579500Y-117492900D02*
X164129800Y-117043200D01*
X135718626Y-106614600D02*
X135793626Y-106539600D01*
X134513400Y-106614600D02*
X135718626Y-106614600D01*
X165100000Y-130492500D02*
X165100000Y-118013400D01*
X165100000Y-130492500D02*
X165100000Y-130492000D01*
X134389400Y-106738600D02*
X134513400Y-106614600D01*
X135793626Y-106539600D02*
X153626200Y-106539600D01*
%TO.N,/D3*%
X155715200Y-106088600D02*
X166669800Y-117043200D01*
X167119500Y-117492900D02*
X166669800Y-117043200D01*
X167640000Y-130492500D02*
X167640000Y-118013400D01*
X167640000Y-118013400D02*
X166669800Y-117043200D01*
X134389400Y-106088600D02*
X155715200Y-106088600D01*
X134389800Y-106089000D02*
X134389400Y-106088600D01*
X167640000Y-130492500D02*
X167640000Y-130492000D01*
X167119900Y-117492900D02*
X167119500Y-117492900D01*
X135116500Y-106089000D02*
X134389800Y-106089000D01*
%TO.N,/D4*%
X134389400Y-105438600D02*
X134513400Y-105562600D01*
X169209800Y-117043200D02*
X169210200Y-117043200D01*
X157779800Y-105613200D02*
X169209800Y-117043200D01*
X170180000Y-118013400D02*
X169209800Y-117043200D01*
X135718626Y-105562600D02*
X135769226Y-105613200D01*
X134513400Y-105562600D02*
X135718626Y-105562600D01*
X169210200Y-117043200D02*
X170180000Y-118013000D01*
X134389400Y-105438600D02*
X134389000Y-105439000D01*
X170180000Y-130492500D02*
X170180000Y-130492000D01*
X135769226Y-105613200D02*
X157779800Y-105613200D01*
X170180000Y-130492500D02*
X170180000Y-118013400D01*
%TO.N,/D5*%
X134389400Y-104788600D02*
X134389000Y-104789000D01*
X134389400Y-104788600D02*
X134513400Y-104912600D01*
X134513400Y-104912600D02*
X135718626Y-104912600D01*
X135962026Y-105156000D02*
X159862600Y-105156000D01*
X135718626Y-104912600D02*
X135962026Y-105156000D01*
X171749800Y-117043200D02*
X171750200Y-117043200D01*
X172720000Y-118013400D02*
X171749800Y-117043200D01*
X159862600Y-105156000D02*
X171749800Y-117043200D01*
X171750200Y-117043200D02*
X172720000Y-118013000D01*
X172720000Y-130492500D02*
X172720000Y-118013400D01*
X172720000Y-130492500D02*
X172720000Y-130492000D01*
%TO.N,/D6*%
X135965400Y-104509374D02*
X135965400Y-104521564D01*
X135965400Y-104521564D02*
X136142636Y-104698800D01*
X174289800Y-117043200D02*
X174290000Y-117043000D01*
X136142636Y-104698800D02*
X161945400Y-104698800D01*
X135718626Y-104262600D02*
X135965400Y-104509374D01*
X134513400Y-104262600D02*
X135718626Y-104262600D01*
X175260000Y-130492500D02*
X175260000Y-118013400D01*
X134389400Y-104138600D02*
X134513400Y-104262600D01*
X175260000Y-118013400D02*
X174289800Y-117043200D01*
X134389400Y-104138600D02*
X134389000Y-104139000D01*
X161945400Y-104698800D02*
X174289800Y-117043200D01*
X175260000Y-130492500D02*
X175260000Y-130492000D01*
%TO.N,/D7*%
X177800000Y-130492500D02*
X177800000Y-122986800D01*
X177292000Y-117505400D02*
X176829800Y-117043200D01*
X134451000Y-103551000D02*
X134389400Y-103489400D01*
X164028200Y-104241600D02*
X176829800Y-117043200D01*
X135718626Y-103612600D02*
X135965400Y-103859374D01*
X177292000Y-122478800D02*
X177292000Y-117505400D01*
X136335436Y-104241600D02*
X164028200Y-104241600D01*
X134389400Y-103489400D02*
X134389400Y-103488600D01*
X177279500Y-117492900D02*
X176829800Y-117043200D01*
X177279900Y-117492900D02*
X177279500Y-117492900D01*
X135965400Y-103859374D02*
X135965400Y-103871564D01*
X134389400Y-103488600D02*
X134513400Y-103612600D01*
X177800000Y-130492500D02*
X177800000Y-130492000D01*
X135965400Y-103871564D02*
X136335436Y-104241600D01*
X134513400Y-103612600D02*
X135718626Y-103612600D01*
X177800000Y-122986800D02*
X177292000Y-122478800D01*
%TO.N,/~{IOR}*%
X131936512Y-116648832D02*
X131139400Y-115851720D01*
X139732780Y-118808800D02*
X137572812Y-116648832D01*
X147523200Y-114401600D02*
X145592800Y-116332000D01*
X131139000Y-114880300D02*
X131139400Y-114879900D01*
X146850400Y-118808800D02*
X139732780Y-118808800D01*
X147066000Y-119024400D02*
X146850400Y-118808800D01*
X145592800Y-116332000D02*
X140970000Y-116332000D01*
X131139400Y-114879900D02*
X131139400Y-114113600D01*
X147523200Y-109118400D02*
X147523200Y-114401600D01*
X131139400Y-115851720D02*
X131139400Y-114113600D01*
X137572812Y-116648832D02*
X131936512Y-116648832D01*
%TO.N,/~{IOW}*%
X176363396Y-115517200D02*
X166319200Y-105473004D01*
X131789400Y-114879900D02*
X131789400Y-114113600D01*
X131789000Y-114880300D02*
X131789400Y-114879900D01*
X131789400Y-115635000D02*
X131789400Y-114113600D01*
X147364600Y-118357800D02*
X139919590Y-118357800D01*
X132283200Y-116128800D02*
X131789400Y-115635000D01*
X150622000Y-121615200D02*
X147364600Y-118357800D01*
X178251000Y-117826590D02*
X178243800Y-117819390D01*
X177952400Y-121513600D02*
X178251000Y-121215000D01*
X166319200Y-105473004D02*
X166319200Y-104531800D01*
X137690590Y-116128800D02*
X132283200Y-116128800D01*
X152161400Y-120548400D02*
X152400000Y-120548400D01*
X178243800Y-116464796D02*
X177296204Y-115517200D01*
X178251000Y-121215000D02*
X178251000Y-117826590D01*
X178243800Y-117819390D02*
X178243800Y-116464796D01*
X151841200Y-120228200D02*
X152161400Y-120548400D01*
X139919590Y-118357800D02*
X137690590Y-116128800D01*
X152400000Y-120548400D02*
X153517600Y-121666000D01*
X150622000Y-122021600D02*
X150622000Y-121615200D01*
X177296204Y-115517200D02*
X176363396Y-115517200D01*
%TO.N,GND*%
X141811000Y-98318800D02*
X156463600Y-98318800D01*
X134387600Y-102840400D02*
X130588700Y-102840400D01*
X130489400Y-114113600D02*
X130489400Y-112420400D01*
X157886400Y-118465600D02*
X157886400Y-116427396D01*
X152965004Y-111506000D02*
X148742400Y-111506000D01*
X121389400Y-114113600D02*
X121389400Y-112886700D01*
D35*
X173784400Y-76507200D02*
X174899320Y-75392280D01*
D34*
X98434600Y-96078600D02*
X98450400Y-96062800D01*
X133734702Y-113741200D02*
X136855200Y-113741200D01*
X127918800Y-105169800D02*
X116364200Y-105169800D01*
X130489400Y-112420400D02*
X132413902Y-112420400D01*
X121389400Y-112886700D02*
X122396600Y-111879500D01*
D35*
X93370400Y-105156000D02*
X94742000Y-103784400D01*
D34*
X113003600Y-99529100D02*
X113383000Y-99908500D01*
X112371000Y-99529100D02*
X113003600Y-99529100D01*
X110389400Y-100238600D02*
X111661500Y-100238600D01*
X132413902Y-112420400D02*
X133734702Y-113741200D01*
X98480200Y-102188600D02*
X98450400Y-102158800D01*
X156463600Y-98318800D02*
X156514800Y-98267600D01*
X113383000Y-102188600D02*
X110389400Y-102188600D01*
X96494600Y-96078600D02*
X98434600Y-96078600D01*
X111661500Y-100238600D02*
X112371000Y-99529100D01*
X139621400Y-96020400D02*
X139621400Y-96129200D01*
D35*
X98450400Y-96062800D02*
X98450400Y-94070800D01*
X93370400Y-113741200D02*
X93370400Y-108712000D01*
D34*
X125669500Y-111879500D02*
X127918800Y-109630200D01*
X130489400Y-112420400D02*
X130489400Y-112200800D01*
X122396600Y-111879500D02*
X125669500Y-111879500D01*
X130248200Y-102840400D02*
X127918800Y-105169800D01*
X116364200Y-105169800D02*
X113383000Y-102188600D01*
D35*
X97688400Y-103784400D02*
X98450400Y-103022400D01*
X98450400Y-94070800D02*
X97089600Y-92710000D01*
X98450400Y-102158800D02*
X98450400Y-96062800D01*
D34*
X134389400Y-102838600D02*
X134387600Y-102840400D01*
D35*
X93370400Y-123799600D02*
X93370400Y-113741200D01*
D34*
X130489400Y-112200800D02*
X127918800Y-109630200D01*
D35*
X93423600Y-113688000D02*
X105299000Y-113688000D01*
D34*
X110389400Y-102188600D02*
X98480200Y-102188600D01*
X131164400Y-98997700D02*
X130226900Y-99935200D01*
X130588700Y-102840400D02*
X130248200Y-102840400D01*
D35*
X167272800Y-76507200D02*
X173784400Y-76507200D01*
D34*
X110389400Y-102188600D02*
X110389000Y-102189000D01*
X113383000Y-99908500D02*
X113383000Y-102188600D01*
D35*
X174899320Y-75392280D02*
X174899320Y-72999600D01*
D34*
X127918800Y-109630200D02*
X127918800Y-105169800D01*
X139621400Y-96129200D02*
X141811000Y-98318800D01*
D35*
X94742000Y-103784400D02*
X97688400Y-103784400D01*
X98450400Y-103022400D02*
X98450400Y-102158800D01*
X93370400Y-108712000D02*
X93370400Y-105156000D01*
D34*
X157886400Y-122224800D02*
X157886400Y-118465600D01*
X157886400Y-116427396D02*
X152965004Y-111506000D01*
D35*
X93370400Y-113741200D02*
X93423600Y-113688000D01*
D34*
X131164400Y-96113600D02*
X131164400Y-98997700D01*
%TO.N,VCC*%
X136702800Y-100279200D02*
X136702800Y-96418400D01*
X121159401Y-99058599D02*
X122989401Y-100888600D01*
D35*
X195986400Y-59944000D02*
X194818000Y-58775600D01*
D34*
X136702800Y-96418400D02*
X136304800Y-96020400D01*
D35*
X195681600Y-119989600D02*
X197713600Y-117957600D01*
D34*
X139879900Y-91953000D02*
X136305000Y-95527900D01*
D35*
X204739000Y-88188800D02*
X204637800Y-88290000D01*
D34*
X182727600Y-110022000D02*
X182728000Y-110022000D01*
X112618600Y-63844800D02*
X115158600Y-63844800D01*
X96611600Y-63844800D02*
X94071600Y-63844800D01*
D35*
X198882000Y-71069200D02*
X195986400Y-68173600D01*
X89876000Y-63844800D02*
X88199600Y-65521200D01*
D34*
X107764800Y-105555300D02*
X107764800Y-105819500D01*
X136093400Y-100888600D02*
X136702800Y-100279200D01*
D35*
X88199600Y-65521200D02*
X88199600Y-68021200D01*
X122885200Y-58775600D02*
X122885200Y-59283600D01*
X194157600Y-123799600D02*
X195681600Y-122275600D01*
X94071600Y-58938000D02*
X94071600Y-63844800D01*
X204063200Y-100940000D02*
X200470000Y-100940000D01*
X100279200Y-125679200D02*
X101447600Y-124510800D01*
X204673200Y-71932800D02*
X203809600Y-71069200D01*
X189636400Y-123799600D02*
X194157600Y-123799600D01*
D34*
X101691600Y-63844800D02*
X99151600Y-63844800D01*
X122989401Y-100888600D02*
X128879400Y-100888600D01*
D35*
X197713600Y-117754400D02*
X203047600Y-117754400D01*
D34*
X95224600Y-95719800D02*
X94340000Y-94835200D01*
X119464400Y-96113600D02*
X119464000Y-96113600D01*
D35*
X204739000Y-100939600D02*
X204063600Y-100939600D01*
X129794000Y-58775600D02*
X129641600Y-58928000D01*
D34*
X127914400Y-96113600D02*
X127914400Y-99923600D01*
X116189300Y-114113600D02*
X116189400Y-114113600D01*
X128879400Y-100888600D02*
X134389400Y-100888600D01*
D35*
X203047600Y-117754400D02*
X204739000Y-116063000D01*
D34*
X112531800Y-111455200D02*
X115620800Y-111455200D01*
D35*
X204739000Y-88188800D02*
X204739000Y-71932800D01*
X101447600Y-124510800D02*
X101447600Y-116281200D01*
D34*
X119464400Y-96113600D02*
X119464400Y-97363599D01*
X136305000Y-95527900D02*
X136305000Y-96020400D01*
D35*
X94234000Y-58775600D02*
X71678800Y-58775600D01*
X190310779Y-112688379D02*
X187644400Y-110022000D01*
X88199600Y-68021200D02*
X88199600Y-70956800D01*
X187644400Y-110022000D02*
X182727600Y-110022000D01*
X178816000Y-123799600D02*
X189636400Y-123799600D01*
X80416400Y-117906800D02*
X80416400Y-120599200D01*
X105765600Y-58775600D02*
X105770600Y-58780600D01*
D34*
X108310600Y-63844800D02*
X105770600Y-63844800D01*
D35*
X71678800Y-58775600D02*
X70154800Y-60299600D01*
X194818000Y-58775600D02*
X129794000Y-58775600D01*
D34*
X110389400Y-104138600D02*
X109181500Y-104138600D01*
D35*
X204739000Y-100939600D02*
X204739000Y-88188800D01*
X204739000Y-116063000D02*
X204739000Y-100939600D01*
D34*
X113183800Y-104138600D02*
X113487200Y-103835200D01*
D35*
X80416400Y-120599200D02*
X80416400Y-124968000D01*
D34*
X171680200Y-104530000D02*
X173627000Y-106476800D01*
X94340000Y-94835200D02*
X92684600Y-94835200D01*
X127914400Y-99923600D02*
X128879400Y-100888600D01*
D35*
X94071600Y-63844800D02*
X89876000Y-63844800D01*
D34*
X119464400Y-97363599D02*
X121159401Y-99058599D01*
X109181500Y-104138600D02*
X107764800Y-105555300D01*
D35*
X122885200Y-59283600D02*
X122778600Y-59390200D01*
X190310779Y-120599200D02*
X190310779Y-123125221D01*
X195681600Y-122275600D02*
X195681600Y-119989600D01*
D34*
X136304800Y-96020400D02*
X134621400Y-96020400D01*
D35*
X105770600Y-58780600D02*
X105770600Y-63844800D01*
X108366200Y-115620800D02*
X110299000Y-113688000D01*
X122885200Y-58775600D02*
X105765600Y-58775600D01*
X129794000Y-58775600D02*
X122885200Y-58775600D01*
X122778600Y-59390200D02*
X122778600Y-63844800D01*
X70154800Y-115112800D02*
X70866000Y-115824000D01*
X204739000Y-71932800D02*
X204673200Y-71932800D01*
X182727600Y-110022000D02*
X182727600Y-106725800D01*
X190310779Y-120599200D02*
X190310779Y-112688379D01*
X94071600Y-63844800D02*
X101691600Y-63844800D01*
D34*
X116189300Y-112318800D02*
X116189300Y-114113600D01*
X116189300Y-112023700D02*
X116189300Y-112318800D01*
X134389400Y-100888600D02*
X136093400Y-100888600D01*
X115620800Y-111455200D02*
X116189300Y-112023700D01*
D35*
X129641600Y-58928000D02*
X129641600Y-63844800D01*
X70154800Y-60299600D02*
X70154800Y-115112800D01*
X81127600Y-125679200D02*
X100279200Y-125679200D01*
D34*
X92089600Y-92710000D02*
X92089600Y-94240200D01*
X127914400Y-96113600D02*
X127914000Y-96113600D01*
D35*
X197713600Y-117957600D02*
X197713600Y-117754400D01*
D34*
X119989600Y-100228400D02*
X121159401Y-99058599D01*
X147218400Y-91953000D02*
X139879900Y-91953000D01*
X127101600Y-63844800D02*
X122778600Y-63844800D01*
X182976600Y-106476800D02*
X182976900Y-106477100D01*
X92684600Y-94835200D02*
X92684600Y-96078600D01*
D35*
X101691600Y-63844800D02*
X108310600Y-63844800D01*
D34*
X110299000Y-113688000D02*
X112531800Y-111455200D01*
D35*
X80416400Y-120599200D02*
X76606400Y-120599200D01*
D34*
X122778600Y-63844800D02*
X120238600Y-63844800D01*
D35*
X94234000Y-58775600D02*
X94071600Y-58938000D01*
X101447600Y-116281200D02*
X102108000Y-115620800D01*
D34*
X110389400Y-104138600D02*
X113183800Y-104138600D01*
X119024400Y-100228400D02*
X119989600Y-100228400D01*
D35*
X108310600Y-63844800D02*
X129641600Y-63844800D01*
X70866000Y-115824000D02*
X78333600Y-115824000D01*
X182727600Y-106725800D02*
X182976600Y-106476800D01*
D34*
X92089600Y-94240200D02*
X92684600Y-94835200D01*
X134389400Y-100888600D02*
X134389000Y-100889000D01*
D35*
X203809600Y-71069200D02*
X198882000Y-71069200D01*
X78333600Y-115824000D02*
X80416400Y-117906800D01*
D34*
X123339400Y-112692800D02*
X123342400Y-112689800D01*
X95224600Y-96078600D02*
X95224600Y-95719800D01*
D35*
X88199600Y-70956800D02*
X88138000Y-71018400D01*
D34*
X123339400Y-114113600D02*
X123339400Y-112692800D01*
X173627000Y-106476800D02*
X182976600Y-106476800D01*
X127101600Y-63844800D02*
X129641600Y-63844800D01*
D35*
X105765600Y-58775600D02*
X94234000Y-58775600D01*
X204637800Y-88290000D02*
X200470000Y-88290000D01*
X190310779Y-123125221D02*
X189636400Y-123799600D01*
X195986400Y-68173600D02*
X195986400Y-59944000D01*
X102108000Y-115620800D02*
X108366200Y-115620800D01*
X204063600Y-100939600D02*
X204063200Y-100940000D01*
X80416400Y-124968000D02*
X81127600Y-125679200D01*
D34*
%TO.N,/RSTDRV*%
X134389400Y-109988600D02*
X136442200Y-109988600D01*
X134389800Y-109989000D02*
X134389400Y-109988600D01*
X135415500Y-109989000D02*
X134389800Y-109989000D01*
X136442200Y-109988600D02*
X136448800Y-109982000D01*
%TO.N,/IRQ9*%
X114909600Y-115966000D02*
X114909600Y-114118400D01*
X114909600Y-114118400D02*
X114914400Y-114113600D01*
X114914400Y-114113600D02*
X114914000Y-114114000D01*
%TO.N,/~{SMEMW}*%
X134539700Y-110638600D02*
X134389400Y-110638600D01*
X134540100Y-110639000D02*
X134539700Y-110638600D01*
X88138000Y-73558400D02*
X114583200Y-73558400D01*
X134389400Y-110638600D02*
X136953000Y-110638600D01*
X134389400Y-110638600D02*
X130947700Y-110638600D01*
X136953000Y-110638600D02*
X136956800Y-110642400D01*
X130947700Y-110638600D02*
X129758900Y-109449800D01*
X114583200Y-73558400D02*
X116933200Y-75908400D01*
X155752800Y-119126000D02*
X155752800Y-121818400D01*
%TO.N,/~{SMEMR}*%
X133884100Y-111793900D02*
X134389400Y-111288600D01*
X133884100Y-112953100D02*
X133884100Y-111793900D01*
X150675800Y-118614300D02*
X147969600Y-115908100D01*
X154482800Y-121745902D02*
X151351198Y-118614300D01*
X133858000Y-112979200D02*
X133884100Y-112953100D01*
X151351198Y-118614300D02*
X150675800Y-118614300D01*
X91846400Y-116417000D02*
X91846400Y-115468400D01*
X154482800Y-122224800D02*
X154482800Y-121745902D01*
X147969600Y-115908100D02*
X147969600Y-115452000D01*
X91846400Y-115468400D02*
X92151200Y-115163600D01*
%TO.N,/IRQ5*%
X108458000Y-121767600D02*
X108458000Y-120294400D01*
X112964400Y-115788000D02*
X112964400Y-114113600D01*
X108458000Y-120294400D02*
X112964400Y-115788000D01*
%TO.N,/IRQ4*%
X109289490Y-122482693D02*
X109289490Y-121799710D01*
X113614400Y-116052400D02*
X113614400Y-114113600D01*
X109524800Y-121564400D02*
X109524800Y-120142000D01*
X109524800Y-120142000D02*
X113614400Y-116052400D01*
X109289490Y-121799710D02*
X109524800Y-121564400D01*
%TO.N,/IRQ3*%
X110337600Y-121578895D02*
X110337600Y-120040400D01*
X110286800Y-122467595D02*
X110286800Y-121629695D01*
X110337600Y-120040400D02*
X114264400Y-116113600D01*
X114264400Y-116113600D02*
X114264400Y-114113600D01*
X110286800Y-121629695D02*
X110337600Y-121578895D01*
X110484705Y-122665500D02*
X110286800Y-122467595D01*
%TO.N,/IOCHRDY*%
X157480000Y-130492500D02*
X157480000Y-130492000D01*
X157480000Y-130492500D02*
X157480000Y-124510800D01*
X157480000Y-124510800D02*
X156464000Y-123494800D01*
X138190105Y-115352695D02*
X138190105Y-109713895D01*
X156464000Y-123494800D02*
X154053810Y-123494800D01*
X154053810Y-123494800D02*
X147957810Y-117398800D01*
X137164810Y-108688600D02*
X134389400Y-108688600D01*
X134389800Y-108689000D02*
X134389400Y-108688600D01*
X140236210Y-117398800D02*
X138190105Y-115352695D01*
X138190105Y-109713895D02*
X137164810Y-108688600D01*
X135156100Y-108689000D02*
X134389800Y-108689000D01*
X147957810Y-117398800D02*
X140236210Y-117398800D01*
%TO.N,/~{IOCS16}*%
X110366000Y-108712000D02*
X110389400Y-108688600D01*
X110389400Y-108688600D02*
X110377700Y-108700300D01*
X103530400Y-108712000D02*
X110366000Y-108712000D01*
%TO.N,/TP_RX-*%
X147116800Y-74117200D02*
X130556000Y-74117200D01*
D36*
X183591200Y-91033600D02*
X185267600Y-92710000D01*
X172277800Y-81904600D02*
X181406800Y-91033600D01*
X159547800Y-81904600D02*
X172277800Y-81904600D01*
X158445200Y-83007200D02*
X159547800Y-81904600D01*
D34*
X127264400Y-93258400D02*
X127264400Y-96113600D01*
X158445200Y-83007200D02*
X158445100Y-83007100D01*
X128828800Y-91694000D02*
X127264400Y-93258400D01*
D36*
X185267600Y-92710000D02*
X186690000Y-92710000D01*
D34*
X130556000Y-74117200D02*
X130403600Y-74269600D01*
D36*
X181406800Y-91033600D02*
X183591200Y-91033600D01*
D34*
%TO.N,/TP_RX+*%
X127974300Y-91532500D02*
X126614400Y-92892400D01*
X126614400Y-92892400D02*
X126614400Y-96113600D01*
D36*
X182296688Y-96520000D02*
X189230000Y-96520000D01*
D34*
X128540000Y-67868800D02*
X167030400Y-67868800D01*
X127974300Y-90698800D02*
X127974300Y-91532500D01*
X168646000Y-69484400D02*
X168646000Y-69850000D01*
D36*
X181472600Y-95695912D02*
X182296688Y-96520000D01*
X181472600Y-92645288D02*
X181472600Y-95695912D01*
X168605200Y-83007200D02*
X171834512Y-83007200D01*
D34*
X128524000Y-67884800D02*
X128540000Y-67868800D01*
X167030400Y-67868800D02*
X168646000Y-69484400D01*
D36*
X171834512Y-83007200D02*
X181472600Y-92645288D01*
D34*
X128524000Y-68986400D02*
X128524000Y-67884800D01*
D36*
%TO.N,/TP_TX-*%
X160207400Y-99420200D02*
X160731200Y-98896400D01*
X162560000Y-96418400D02*
X170230800Y-96418400D01*
X170230800Y-96418400D02*
X170281600Y-96469200D01*
X150723600Y-99415600D02*
X150728200Y-99420200D01*
X134389400Y-101538600D02*
X144227182Y-101538600D01*
X146350182Y-99415600D02*
X150723600Y-99415600D01*
X144227182Y-101538600D02*
X146350182Y-99415600D01*
X160731200Y-98896400D02*
X160731200Y-96418400D01*
X150728200Y-99420200D02*
X160207400Y-99420200D01*
D34*
%TO.N,/TP_TX+*%
X153501396Y-100279200D02*
X153503396Y-100277200D01*
X156978204Y-100279200D02*
X158581396Y-100279200D01*
X159518204Y-100279200D02*
X160777000Y-100279200D01*
X158583396Y-100277200D02*
X159516204Y-100277200D01*
X183161500Y-101369300D02*
X186920700Y-101369300D01*
X134389400Y-102188600D02*
X144181900Y-102188600D01*
X160777000Y-100279200D02*
X160922700Y-100133500D01*
X156043396Y-100277200D02*
X156976204Y-100277200D01*
X156976204Y-100277200D02*
X156978204Y-100279200D01*
X144181900Y-102188600D02*
X146091300Y-100279200D01*
X146091300Y-100279200D02*
X150961396Y-100279200D01*
X186920700Y-101369300D02*
X189230000Y-99060000D01*
X159516204Y-100277200D02*
X159518204Y-100279200D01*
X158581396Y-100279200D02*
X158583396Y-100277200D01*
X154438204Y-100279200D02*
X156041396Y-100279200D01*
X153503396Y-100277200D02*
X154436204Y-100277200D01*
X150963396Y-100277200D02*
X151896204Y-100277200D01*
X151898204Y-100279200D02*
X153501396Y-100279200D01*
X154436204Y-100277200D02*
X154438204Y-100279200D01*
X182016400Y-102514400D02*
X183161500Y-101369300D01*
X150961396Y-100279200D02*
X150963396Y-100277200D01*
X151896204Y-100277200D02*
X151898204Y-100279200D01*
X156041396Y-100279200D02*
X156043396Y-100277200D01*
%TO.N,/LED_LINK*%
X190320000Y-106000000D02*
X188104400Y-103784400D01*
X188104400Y-103784400D02*
X137632600Y-103784400D01*
X125323600Y-96122800D02*
X125314400Y-96113600D01*
X125323600Y-98145600D02*
X125323600Y-96122800D01*
X125272800Y-98196400D02*
X125323600Y-98145600D01*
X125314400Y-96113600D02*
X125319400Y-96118600D01*
X137632600Y-103784400D02*
X137464800Y-103616600D01*
%TO.N,/JP*%
X122714400Y-96113600D02*
X122714000Y-96113600D01*
X122714400Y-87902400D02*
X122714400Y-96113600D01*
X129895600Y-80721200D02*
X122714400Y-87902400D01*
X129895600Y-80721600D02*
X129804100Y-80813100D01*
X129895600Y-80721200D02*
X129895600Y-80721600D01*
%TO.N,/BA18*%
X117703600Y-80721200D02*
X117703600Y-73507600D01*
X116238900Y-72042900D02*
X73922500Y-72042900D01*
X117703600Y-80721200D02*
X117704000Y-80721200D01*
X73922500Y-72042900D02*
X72898000Y-71018400D01*
X117703600Y-73507600D02*
X116238900Y-72042900D01*
X120114000Y-95347100D02*
X120114400Y-95347500D01*
X117703600Y-80721200D02*
X120114400Y-83132000D01*
X120114400Y-95347500D02*
X120114400Y-96113600D01*
X120114400Y-83132000D02*
X120114400Y-96113600D01*
%TO.N,/BA17*%
X114655600Y-80721200D02*
X118814400Y-84880000D01*
X118814400Y-84880000D02*
X118814400Y-96113600D01*
X118814000Y-95347100D02*
X118814400Y-95347500D01*
X114655600Y-80721200D02*
X114656000Y-80721200D01*
X114655600Y-80721200D02*
X110032800Y-76098400D01*
X110032800Y-76098400D02*
X88138000Y-76098400D01*
X118814400Y-95347500D02*
X118814400Y-96113600D01*
%TO.N,/BA16*%
X111607600Y-80721200D02*
X111608000Y-80721200D01*
X111607600Y-80721200D02*
X118164400Y-87278000D01*
X118164000Y-95347100D02*
X118164400Y-95347500D01*
X111607600Y-80721200D02*
X108009300Y-77122900D01*
X108009300Y-77122900D02*
X76462500Y-77122900D01*
X118164400Y-95347500D02*
X118164400Y-96113600D01*
X76462500Y-77122900D02*
X72898000Y-73558400D01*
X118164400Y-87278000D02*
X118164400Y-96113600D01*
%TO.N,/BD6*%
X108559600Y-80721200D02*
X114264400Y-86426000D01*
X88138000Y-101498000D02*
X88138000Y-101498400D01*
X95224600Y-100353601D02*
X94280399Y-99409400D01*
X95224600Y-101228600D02*
X95224600Y-100353601D01*
X114264400Y-95347500D02*
X114264400Y-96113600D01*
X108559600Y-80721200D02*
X108560000Y-80721200D01*
X114264000Y-95347100D02*
X114264400Y-95347500D01*
X95600000Y-99762800D02*
X95116700Y-100246100D01*
X94280399Y-99409400D02*
X90227000Y-99409400D01*
X90227000Y-99409400D02*
X88138000Y-101498400D01*
X114264400Y-86426000D02*
X114264400Y-96113600D01*
X95600200Y-99762800D02*
X95600000Y-99762800D01*
%TO.N,/BD5*%
X105511600Y-80721200D02*
X105512000Y-80721200D01*
X89103200Y-104038400D02*
X88138000Y-104038400D01*
X89763600Y-103378000D02*
X89103200Y-104038400D01*
X91236800Y-99923600D02*
X89763600Y-101396800D01*
X113614400Y-96113600D02*
X113614000Y-96113600D01*
X92964000Y-99923600D02*
X91236800Y-99923600D01*
X105511600Y-80721200D02*
X113614400Y-88824000D01*
X89763600Y-101396800D02*
X89763600Y-103378000D01*
X88138000Y-104038400D02*
X88138000Y-104038000D01*
X113614400Y-88824000D02*
X113614400Y-96113600D01*
X93954600Y-101228600D02*
X93954600Y-100914200D01*
X93954600Y-100914200D02*
X92964000Y-99923600D01*
%TO.N,/BD4*%
X109399100Y-96113600D02*
X108197000Y-97315700D01*
X104730300Y-106293300D02*
X94683000Y-106293300D01*
X108065900Y-102957700D02*
X104730300Y-106293300D01*
X112964400Y-96113600D02*
X109399100Y-96113600D01*
X108197000Y-97315700D02*
X108197000Y-97569000D01*
%TO.N,/BD3*%
X108465021Y-98938600D02*
X110389400Y-98938600D01*
X102463600Y-92937179D02*
X108465021Y-98938600D01*
X102463600Y-80721200D02*
X102463600Y-92937179D01*
X110389400Y-98938600D02*
X110389000Y-98938600D01*
%TO.N,/BD2*%
X71380200Y-100600390D02*
X71997690Y-99982900D01*
X71380200Y-105060600D02*
X71380200Y-100600390D01*
X72898000Y-106578400D02*
X72898000Y-106578000D01*
X74210300Y-99982900D02*
X74574400Y-99618800D01*
X74574400Y-99618800D02*
X74574400Y-81635600D01*
X99415600Y-80721200D02*
X99415600Y-90526989D01*
X99415600Y-79248000D02*
X99415600Y-80721200D01*
X72898000Y-106578400D02*
X71380200Y-105060600D01*
X108477211Y-99588600D02*
X110389400Y-99588600D01*
X97781500Y-77613900D02*
X99415600Y-79248000D01*
X71997690Y-99982900D02*
X74210300Y-99982900D01*
X74574400Y-81635600D02*
X78596100Y-77613900D01*
X110389400Y-99588600D02*
X110389000Y-99588600D01*
X99415600Y-90526989D02*
X108477211Y-99588600D01*
X78596100Y-77613900D02*
X97781500Y-77613900D01*
%TO.N,/BD1*%
X95241600Y-79595200D02*
X88630062Y-79595200D01*
X112036700Y-100888600D02*
X112721200Y-100204100D01*
X96367600Y-80721200D02*
X96367600Y-88116799D01*
X71831200Y-102971600D02*
X72898000Y-104038400D01*
X88562362Y-79662900D02*
X77382490Y-79662900D01*
X73322362Y-100473900D02*
X72473638Y-100473900D01*
X75545800Y-98913800D02*
X75545800Y-99341600D01*
X72136000Y-100482400D02*
X71831200Y-100787200D01*
X72465138Y-100482400D02*
X72136000Y-100482400D01*
X74405000Y-100482400D02*
X73330862Y-100482400D01*
X73330862Y-100482400D02*
X73322362Y-100473900D01*
X110389400Y-100888600D02*
X112036700Y-100888600D01*
X96367600Y-88116799D02*
X109139401Y-100888600D01*
X75545800Y-99341600D02*
X74405000Y-100482400D01*
X77382490Y-79662900D02*
X75539600Y-81505790D01*
X72898000Y-104038400D02*
X72898000Y-104038000D01*
X109139401Y-100888600D02*
X110389400Y-100888600D01*
X88630062Y-79595200D02*
X88562362Y-79662900D01*
X71831200Y-100787200D02*
X71831200Y-102971600D01*
X96367600Y-80721200D02*
X95241600Y-79595200D01*
X75539600Y-81505790D02*
X75539600Y-98907600D01*
X72473638Y-100473900D02*
X72465138Y-100482400D01*
X75539600Y-98907600D02*
X75545800Y-98913800D01*
%TO.N,/BD0*%
X75996800Y-100330000D02*
X74828400Y-101498400D01*
X93319600Y-80721200D02*
X93319600Y-85706609D01*
X87713638Y-80153900D02*
X87705138Y-80162400D01*
X74828400Y-101498400D02*
X72898000Y-101498400D01*
X92760800Y-80162400D02*
X88570862Y-80162400D01*
X110389400Y-101538600D02*
X110389000Y-101539000D01*
X88562362Y-80153900D02*
X87713638Y-80153900D01*
X93319600Y-80721200D02*
X92760800Y-80162400D01*
X77520800Y-80162400D02*
X75996800Y-81686400D01*
X75996800Y-81686400D02*
X75996800Y-100330000D01*
X87705138Y-80162400D02*
X77520800Y-80162400D01*
X88570862Y-80162400D02*
X88562362Y-80153900D01*
X72898000Y-101498400D02*
X72898000Y-101498000D01*
X109151591Y-101538600D02*
X110389400Y-101538600D01*
X93319600Y-85706609D02*
X109151591Y-101538600D01*
%TO.N,/BA15*%
X115300400Y-75073200D02*
X75768000Y-75073200D01*
X117075100Y-76847900D02*
X116762300Y-76535100D01*
X116306500Y-76167900D02*
X116673700Y-76535100D01*
X116673700Y-76535100D02*
X116762300Y-76535100D01*
X116306500Y-76079300D02*
X116306500Y-76167900D01*
X117514400Y-94226300D02*
X117305100Y-94017000D01*
X116306500Y-76079300D02*
X115300400Y-75073200D01*
X117514400Y-96113600D02*
X117514400Y-94226300D01*
X117075100Y-76847900D02*
X116762300Y-76535100D01*
X116762300Y-76535100D02*
X117075100Y-76847900D01*
%TO.N,/BA14*%
X113950900Y-99461800D02*
X114766800Y-99461800D01*
X114766800Y-99461800D02*
X116864400Y-97364200D01*
X116864400Y-97364200D02*
X116864400Y-96113600D01*
%TO.N,/~{BCS}*%
X90158500Y-98438900D02*
X88138000Y-96418400D01*
X96664500Y-98438900D02*
X90158500Y-98438900D01*
X109230300Y-97334100D02*
X109230300Y-97168600D01*
X116214400Y-97338700D02*
X115400700Y-98152400D01*
X115400700Y-98152400D02*
X110048600Y-98152400D01*
X110048600Y-98152400D02*
X109230300Y-97334100D01*
X116214400Y-96113600D02*
X116214400Y-97338700D01*
%TO.N,/EECS*%
X92684600Y-101228600D02*
X92684600Y-101528800D01*
X115564400Y-94517900D02*
X115564400Y-96113600D01*
X92684600Y-101528800D02*
X93761700Y-102605900D01*
X93761700Y-102605900D02*
X97255500Y-102605900D01*
X115747100Y-94335200D02*
X115564400Y-94517900D01*
%TO.N,/BD7*%
X114914400Y-97322500D02*
X114536200Y-97700700D01*
X114914400Y-96113600D02*
X114914400Y-97322500D01*
X110483100Y-97700700D02*
X110163500Y-97381100D01*
X97372800Y-101050100D02*
X96494600Y-101050100D01*
X96494600Y-101228600D02*
X96494600Y-99491800D01*
X95961200Y-98958400D02*
X88138000Y-98958400D01*
X114536200Y-97700700D02*
X110483100Y-97700700D01*
X96494600Y-99491800D02*
X95961200Y-98958400D01*
%TO.N,/BA19*%
X120764400Y-96113600D02*
X120764000Y-96113600D01*
X120751600Y-96100800D02*
X120764400Y-96113600D01*
X120751600Y-80721200D02*
X120751600Y-96100800D01*
X120751600Y-80721200D02*
X120752000Y-80721200D01*
%TO.N,/BA20*%
X123799600Y-80721200D02*
X121414400Y-83106400D01*
X123799600Y-80721200D02*
X123402100Y-81118700D01*
X121414000Y-95347100D02*
X121414400Y-95347500D01*
X121414400Y-95347500D02*
X121414400Y-96113600D01*
X121414400Y-83106400D02*
X121414400Y-96113600D01*
X123402100Y-81118700D02*
X123402100Y-81119000D01*
%TO.N,/BA21*%
X126847600Y-80721200D02*
X126847800Y-80721400D01*
X122064400Y-95347500D02*
X122064400Y-96113600D01*
X122064000Y-95347100D02*
X122064400Y-95347500D01*
X126847600Y-80721200D02*
X122064400Y-85504400D01*
X122064400Y-85504400D02*
X122064400Y-96113600D01*
%TO.N,/LED_CRS*%
X134830500Y-89700200D02*
X142439800Y-82090900D01*
X153045300Y-78617200D02*
X185652800Y-78617200D01*
X149733300Y-81929200D02*
X153045300Y-78617200D01*
X142439800Y-82090900D02*
X145364300Y-82090900D01*
X185652800Y-78617200D02*
X190296800Y-83261200D01*
X128019300Y-89700200D02*
X134830500Y-89700200D01*
X124664400Y-96113600D02*
X124664400Y-93055100D01*
X124664400Y-93055100D02*
X128019300Y-89700200D01*
%TO.N,/AUI*%
X123364400Y-90300400D02*
X123364400Y-96113600D01*
X132943600Y-80721200D02*
X132546200Y-81118600D01*
X123364400Y-96113600D02*
X123364000Y-96113600D01*
X132546200Y-81118600D02*
X132546200Y-81119000D01*
X132943600Y-80721200D02*
X123364400Y-90300400D01*
%TO.N,Net-(J5-TCT)*%
X182575200Y-95239200D02*
X186679200Y-95239200D01*
X186679200Y-95239200D02*
X186690000Y-95250000D01*
%TO.N,Net-(J5-RCT)*%
X189230000Y-93244537D02*
X187954000Y-91968537D01*
X187966000Y-89641463D02*
X187218537Y-88894000D01*
X187966000Y-90698537D02*
X187966000Y-89641463D01*
X189230000Y-93980000D02*
X189230000Y-93244537D01*
X184968800Y-88894000D02*
X183540400Y-90322400D01*
X187954000Y-90710537D02*
X187966000Y-90698537D01*
X187954000Y-91968537D02*
X187954000Y-90710537D01*
X187218537Y-88894000D02*
X184968800Y-88894000D01*
%TO.N,Net-(U3-X2)*%
X131814400Y-93483600D02*
X141986000Y-83312000D01*
X146354800Y-76809600D02*
X150898140Y-72266260D01*
X131814400Y-96113600D02*
X131814400Y-93483600D01*
X146354800Y-83312000D02*
X146354800Y-76809600D01*
X141986000Y-83312000D02*
X146354800Y-83312000D01*
X150898140Y-72266260D02*
X154072800Y-72266260D01*
X131814400Y-96113600D02*
X131814000Y-96113600D01*
%TO.N,Net-(U3-X1)*%
X132842000Y-94030800D02*
X132842000Y-98704400D01*
X147320000Y-79095600D02*
X147320000Y-83210400D01*
X134389400Y-98938600D02*
X134389000Y-98938600D01*
X149267460Y-77148140D02*
X147320000Y-79095600D01*
X145491200Y-85039200D02*
X141833600Y-85039200D01*
X141833600Y-85039200D02*
X132842000Y-94030800D01*
X147320000Y-83210400D02*
X145491200Y-85039200D01*
X154072800Y-77148140D02*
X149267460Y-77148140D01*
X133076200Y-98938600D02*
X134389400Y-98938600D01*
X132842000Y-98704400D02*
X133076200Y-98938600D01*
%TO.N,Net-(J5-LEDY_K)*%
X200456800Y-83261200D02*
X198424800Y-85293200D01*
X198424800Y-85293200D02*
X198424800Y-88784800D01*
X200059300Y-83658900D02*
X200456800Y-83261400D01*
X200456800Y-83261400D02*
X200456800Y-83261200D01*
X198424800Y-88784800D02*
X200470000Y-90830000D01*
%TO.N,Net-(J5-LEDG_K)*%
X198323200Y-103843200D02*
X198323200Y-100546800D01*
X200480000Y-106000000D02*
X198323200Y-103843200D01*
X198323200Y-100546800D02*
X200470000Y-98400000D01*
%TO.N,Net-(BT1-+)*%
X162162000Y-95354404D02*
X161589800Y-95926604D01*
X159816800Y-91236800D02*
X162162000Y-93582000D01*
X161589800Y-95926604D02*
X161589800Y-101803200D01*
X192328800Y-71882000D02*
X193446400Y-72999600D01*
X170180000Y-83870800D02*
X169773600Y-84277200D01*
X169773600Y-84277200D02*
X161239200Y-84277200D01*
X161589800Y-101803200D02*
X161590000Y-101803000D01*
X162162000Y-93582000D02*
X162162000Y-95354404D01*
X193446400Y-72999600D02*
X194899280Y-72999600D01*
X171805600Y-71882000D02*
X192328800Y-71882000D01*
X161239200Y-84277200D02*
X159816800Y-85699600D01*
X159816800Y-85699600D02*
X159816800Y-91236800D01*
%TO.N,/AS2*%
X142087600Y-70561200D02*
X142087600Y-69189600D01*
X142951200Y-68326000D02*
X166067600Y-68326000D01*
X166067600Y-68326000D02*
X171621700Y-73880100D01*
X142087600Y-69189600D02*
X142951200Y-68326000D01*
%TO.N,/RTCRD*%
X172466000Y-98547000D02*
X172466000Y-90678000D01*
X169209800Y-101803200D02*
X169210000Y-101803000D01*
X162496800Y-90513200D02*
X161036000Y-89052400D01*
X169209800Y-101803200D02*
X172466000Y-98547000D01*
X172466000Y-90678000D02*
X172301200Y-90513200D01*
X161036000Y-89052400D02*
X161036000Y-86868000D01*
X172301200Y-90513200D02*
X162496800Y-90513200D01*
%TO.N,/RTCWR*%
X176377600Y-99720400D02*
X176377600Y-90474800D01*
X174294800Y-101803200D02*
X176377600Y-99720400D01*
X164484200Y-90062200D02*
X163576000Y-89154000D01*
X174289800Y-101803200D02*
X174294800Y-101803200D01*
X176377600Y-90474800D02*
X175965000Y-90062200D01*
X174289800Y-101803200D02*
X174290000Y-101803000D01*
X163576000Y-89154000D02*
X163576000Y-86868000D01*
X175965000Y-90062200D02*
X164484200Y-90062200D01*
%TO.N,/RTCALE*%
X176829800Y-101153300D02*
X176829800Y-101803200D01*
X176829800Y-90012600D02*
X176428400Y-89611200D01*
X176829800Y-101803200D02*
X176829800Y-90012600D01*
X166878000Y-89611200D02*
X166116000Y-88849200D01*
X166116000Y-88849200D02*
X166116000Y-86868000D01*
X176830000Y-101153100D02*
X176829800Y-101153300D01*
X176428400Y-89611200D02*
X166878000Y-89611200D01*
%TO.N,Net-(U5-X2)*%
X148742400Y-112979200D02*
X152445800Y-112979200D01*
X148742600Y-112979000D02*
X148742400Y-112979200D01*
X156509800Y-117042800D02*
X156509800Y-117043200D01*
X156059900Y-116592900D02*
X156509800Y-117042800D01*
X152445800Y-112979200D02*
X156509800Y-117043200D01*
X149042200Y-112979000D02*
X148742600Y-112979000D01*
%TO.N,Net-(U5-X1)*%
X153969800Y-117043200D02*
X153970000Y-117043000D01*
X148742600Y-114679000D02*
X148742400Y-114679200D01*
X153969800Y-117043200D02*
X151605800Y-114679200D01*
X151605800Y-114679200D02*
X148742400Y-114679200D01*
X149042200Y-114679000D02*
X148742600Y-114679000D01*
%TO.N,Net-(JP2-B)*%
X151429800Y-101803200D02*
X152955800Y-103329200D01*
X151429800Y-101803200D02*
X151430000Y-101803000D01*
X183116600Y-103329200D02*
X183286400Y-103159400D01*
X152955800Y-103329200D02*
X183116600Y-103329200D01*
%TO.N,Net-(JP3-B)*%
X149763400Y-86868000D02*
X147218400Y-89413000D01*
X150876000Y-86868000D02*
X149763400Y-86868000D01*
%TD*%
M02*
