M48
; DRILL file {KiCad 9.0.7} date 2026-02-05T00:16:08+0300
; FORMAT={-:-/ absolute / metric / decimal}
; #@! TF.CreationDate,2026-02-05T00:16:08+03:00
; #@! TF.GenerationSoftware,Kicad,Pcbnew,9.0.7
; #@! TF.FileFunction,Plated,1,2,PTH
FMAT,2
METRIC
; #@! TA.AperFunction,Plated,PTH,ViaDrill
T1C0.300
; #@! TA.AperFunction,Plated,PTH,ComponentDrill
T2C0.500
; #@! TA.AperFunction,Plated,PTH,ViaDrill
T3C0.600
; #@! TA.AperFunction,Plated,PTH,ComponentDrill
T4C0.800
; #@! TA.AperFunction,Plated,PTH,ComponentDrill
T5C0.813
; #@! TA.AperFunction,Plated,PTH,ComponentDrill
T6C0.890
; #@! TA.AperFunction,Plated,PTH,ComponentDrill
T7C0.900
; #@! TA.AperFunction,Plated,PTH,ComponentDrill
T8C1.000
; #@! TA.AperFunction,Plated,PTH,ComponentDrill
T9C1.016
; #@! TA.AperFunction,Plated,PTH,ComponentDrill
T10C1.600
; #@! TA.AperFunction,Plated,PTH,ComponentDrill
T11C3.200
%
G90
G05
T1
X75.768Y-75.073
X90.576Y-61.366
X91.846Y-116.417
X92.151Y-115.164
X94.683Y-106.293
X95.6Y-99.763
X96.664Y-98.439
X97.255Y-102.606
X97.373Y-101.05
X104.14Y-123.19
X106.68Y-123.393
X107.765Y-105.819
X108.066Y-102.958
X108.197Y-97.569
X108.458Y-121.768
X109.23Y-97.169
X109.289Y-122.483
X109.597Y-124.185
X110.163Y-97.381
X110.485Y-122.665
X112.638Y-121.802
X112.721Y-100.204
X113.487Y-103.835
X113.951Y-99.462
X114.337Y-120.984
X114.91Y-115.966
X115.265Y-112.166
X115.747Y-94.335
X116.078Y-103.175
X116.189Y-112.319
X116.933Y-75.908
X117.075Y-76.848
X117.305Y-94.017
X118.618Y-120.802
X119.024Y-100.228
X119.497Y-120.316
X120.433Y-101.188
X121.355Y-111.878
X121.548Y-110.468
X121.92Y-122.53
X122.682Y-118.77
X123.088Y-117.958
X123.342Y-112.69
X123.989Y-115.961
X124.639Y-117.297
X125.273Y-98.196
X125.289Y-118.059
X125.41Y-111.253
X125.939Y-116.586
X126.816Y-109.494
X127.0Y-122.377
X127.243Y-108.602
X127.974Y-90.699
X128.524Y-68.986
X128.702Y-101.539
X128.829Y-91.694
X129.759Y-109.45
X130.227Y-99.935
X130.404Y-74.27
X130.589Y-102.84
X131.47Y-101.905
X131.937Y-116.649
X133.858Y-112.979
X134.163Y-119.024
X134.366Y-60.198
X134.414Y-61.584
X136.449Y-109.982
X136.855Y-113.741
X136.957Y-110.642
X137.076Y-95.643
X137.363Y-117.5
X137.414Y-100.279
X137.465Y-103.617
X137.565Y-111.267
X140.716Y-111.557
X140.933Y-96.554
X140.97Y-116.332
X142.074Y-96.953
X142.797Y-97.683
X144.242Y-113.829
X145.364Y-82.091
X147.066Y-119.024
X147.117Y-74.117
X147.523Y-109.118
X147.97Y-115.452
X148.742Y-111.506
X149.555Y-108.763
X149.733Y-81.929
X150.622Y-122.022
X151.841Y-120.228
X153.518Y-121.666
X154.483Y-122.225
X155.753Y-119.126
X155.753Y-121.818
X156.117Y-89.135
X157.886Y-122.225
X160.731Y-96.418
X160.923Y-100.133
X162.56Y-96.418
X166.319Y-104.532
X167.945Y-104.409
X168.646Y-69.85
X170.18Y-83.871
X170.231Y-99.111
X170.282Y-96.469
X171.622Y-73.88
X171.68Y-104.53
X171.806Y-71.882
X172.974Y-110.795
X177.952Y-121.514
X178.257Y-69.24
X179.527Y-69.24
X182.016Y-102.514
X183.286Y-103.159
X183.54Y-90.322
T2
X148.742Y-112.979
X148.742Y-114.679
T3
X93.37Y-123.8
X101.448Y-124.511
X178.816Y-123.8
T4
X74.106Y-120.599
X76.606Y-120.599
X83.2Y-68.021
X88.2Y-68.021
X92.09Y-92.71
X93.32Y-70.561
X93.32Y-80.721
X93.37Y-108.712
X96.368Y-70.561
X96.368Y-80.721
X97.09Y-92.71
X99.416Y-70.561
X99.416Y-80.721
X102.464Y-70.561
X102.464Y-80.721
X103.53Y-108.712
X105.299Y-113.688
X105.512Y-70.561
X105.512Y-80.721
X108.56Y-70.561
X108.56Y-80.721
X110.299Y-113.688
X111.608Y-70.561
X111.608Y-80.721
X114.656Y-70.561
X114.656Y-80.721
X117.704Y-70.561
X117.704Y-80.721
X120.752Y-70.561
X120.752Y-80.721
X123.8Y-70.561
X123.8Y-80.721
X126.848Y-70.561
X126.848Y-80.721
X129.896Y-70.561
X129.896Y-80.721
X132.944Y-70.561
X132.944Y-80.721
X134.621Y-96.02
X135.992Y-70.561
X135.992Y-80.721
X139.04Y-70.561
X139.04Y-80.721
X139.621Y-96.02
X142.088Y-70.561
X142.088Y-80.721
X150.611Y-83.007
X150.876Y-86.868
X150.876Y-94.488
X151.43Y-101.803
X151.43Y-117.043
X153.416Y-86.868
X153.416Y-94.488
X153.97Y-101.803
X153.97Y-117.043
X155.611Y-83.007
X155.956Y-86.868
X155.956Y-94.488
X156.51Y-101.803
X156.51Y-117.043
X158.445Y-83.007
X158.496Y-86.868
X158.496Y-94.488
X158.773Y-69.627
X158.773Y-79.787
X159.05Y-101.803
X159.05Y-117.043
X161.036Y-86.868
X161.036Y-94.488
X161.59Y-101.803
X161.59Y-117.043
X162.273Y-72.907
X162.273Y-76.507
X163.576Y-86.868
X163.576Y-94.488
X164.13Y-101.803
X164.13Y-117.043
X164.186Y-98.268
X166.116Y-86.868
X166.116Y-94.488
X166.67Y-101.803
X166.67Y-117.043
X167.273Y-72.907
X167.273Y-76.507
X168.605Y-83.007
X168.656Y-86.868
X168.656Y-94.488
X169.21Y-101.803
X169.21Y-117.043
X171.196Y-86.868
X171.196Y-94.488
X171.75Y-101.803
X171.75Y-117.043
X173.736Y-86.868
X173.736Y-94.488
X174.29Y-101.803
X174.29Y-117.043
X174.346Y-98.268
X176.83Y-101.803
X176.83Y-117.043
X179.37Y-101.803
X179.37Y-117.043
X182.575Y-87.619
X182.575Y-92.619
X182.575Y-95.239
X182.575Y-100.239
X182.728Y-110.022
X182.728Y-115.022
X187.811Y-120.599
X190.297Y-83.261
X190.311Y-120.599
X190.32Y-106.0
X200.457Y-83.261
X200.48Y-106.0
T5
X72.898Y-71.018
X72.898Y-73.558
X72.898Y-76.098
X72.898Y-78.638
X72.898Y-81.178
X72.898Y-83.718
X72.898Y-86.258
X72.898Y-88.798
X72.898Y-91.338
X72.898Y-93.878
X72.898Y-96.418
X72.898Y-98.958
X72.898Y-101.498
X72.898Y-104.038
X72.898Y-106.578
X72.898Y-109.118
X88.138Y-71.018
X88.138Y-73.558
X88.138Y-76.098
X88.138Y-78.638
X88.138Y-81.178
X88.138Y-83.718
X88.138Y-86.258
X88.138Y-88.798
X88.138Y-91.338
X88.138Y-93.878
X88.138Y-96.418
X88.138Y-98.958
X88.138Y-101.498
X88.138Y-104.038
X88.138Y-106.578
X88.138Y-109.118
X154.073Y-72.266
X154.073Y-77.148
T6
X200.47Y-88.29
X200.47Y-90.83
X200.47Y-98.4
X200.47Y-100.94
T7
X186.69Y-90.17
X186.69Y-92.71
X186.69Y-95.25
X186.69Y-97.79
X189.23Y-91.44
X189.23Y-93.98
X189.23Y-96.52
X189.23Y-99.06
T8
X94.072Y-63.845
X94.072Y-66.385
X96.612Y-63.845
X96.612Y-66.385
X99.152Y-63.845
X99.152Y-66.385
X101.692Y-63.845
X101.692Y-66.385
X105.771Y-63.845
X105.771Y-66.385
X108.311Y-63.845
X108.311Y-66.385
X112.619Y-63.845
X112.619Y-66.385
X115.159Y-63.845
X115.159Y-66.385
X117.699Y-63.845
X117.699Y-66.385
X120.239Y-63.845
X120.239Y-66.385
X122.779Y-63.845
X122.779Y-66.385
X127.102Y-63.845
X127.102Y-66.385
X129.642Y-63.845
X129.642Y-66.385
X136.5Y-63.815
X136.5Y-66.355
X139.04Y-63.815
X139.04Y-66.355
X141.58Y-63.815
X141.58Y-66.355
X147.218Y-89.413
X147.218Y-91.953
X156.515Y-98.268
X159.055Y-98.268
X182.977Y-106.477
X185.517Y-106.477
T9
X174.899Y-73.0
X194.899Y-73.0
T10
X192.52Y-86.84
X192.52Y-102.39
T11
X201.041Y-66.04
X201.041Y-122.555
M30
