%TF.GenerationSoftware,KiCad,Pcbnew,7.0.11*%
%TF.CreationDate,2024-10-11T23:56:48+03:00*%
%TF.ProjectId,ISA8_Ethernet,49534138-5f45-4746-9865-726e65742e6b,1.0*%
%TF.SameCoordinates,Original*%
%TF.FileFunction,Legend,Bot*%
%TF.FilePolarity,Positive*%
%FSLAX46Y46*%
G04 Gerber Fmt 4.6, Leading zero omitted, Abs format (unit mm)*
G04 Created by KiCad (PCBNEW 7.0.11) date 2024-10-11 23:56:48*
%MOMM*%
%LPD*%
G01*
G04 APERTURE LIST*
%ADD10C,0.150000*%
G04 APERTURE END LIST*
D10*
X133985000Y-93980000D02*
X178752500Y-93980000D01*
X174838878Y-97976142D02*
X174838878Y-96776142D01*
X174410307Y-97919000D02*
X174267450Y-97976142D01*
X174267450Y-97976142D02*
X174029355Y-97976142D01*
X174029355Y-97976142D02*
X173934117Y-97919000D01*
X173934117Y-97919000D02*
X173886498Y-97861857D01*
X173886498Y-97861857D02*
X173838879Y-97747571D01*
X173838879Y-97747571D02*
X173838879Y-97633285D01*
X173838879Y-97633285D02*
X173886498Y-97519000D01*
X173886498Y-97519000D02*
X173934117Y-97461857D01*
X173934117Y-97461857D02*
X174029355Y-97404714D01*
X174029355Y-97404714D02*
X174219831Y-97347571D01*
X174219831Y-97347571D02*
X174315069Y-97290428D01*
X174315069Y-97290428D02*
X174362688Y-97233285D01*
X174362688Y-97233285D02*
X174410307Y-97119000D01*
X174410307Y-97119000D02*
X174410307Y-97004714D01*
X174410307Y-97004714D02*
X174362688Y-96890428D01*
X174362688Y-96890428D02*
X174315069Y-96833285D01*
X174315069Y-96833285D02*
X174219831Y-96776142D01*
X174219831Y-96776142D02*
X173981736Y-96776142D01*
X173981736Y-96776142D02*
X173838879Y-96833285D01*
X173457926Y-97633285D02*
X172981736Y-97633285D01*
X173553164Y-97976142D02*
X173219831Y-96776142D01*
X173219831Y-96776142D02*
X172886498Y-97976142D01*
X171648402Y-97290428D02*
X171743640Y-97233285D01*
X171743640Y-97233285D02*
X171791259Y-97176142D01*
X171791259Y-97176142D02*
X171838878Y-97061857D01*
X171838878Y-97061857D02*
X171838878Y-97004714D01*
X171838878Y-97004714D02*
X171791259Y-96890428D01*
X171791259Y-96890428D02*
X171743640Y-96833285D01*
X171743640Y-96833285D02*
X171648402Y-96776142D01*
X171648402Y-96776142D02*
X171457926Y-96776142D01*
X171457926Y-96776142D02*
X171362688Y-96833285D01*
X171362688Y-96833285D02*
X171315069Y-96890428D01*
X171315069Y-96890428D02*
X171267450Y-97004714D01*
X171267450Y-97004714D02*
X171267450Y-97061857D01*
X171267450Y-97061857D02*
X171315069Y-97176142D01*
X171315069Y-97176142D02*
X171362688Y-97233285D01*
X171362688Y-97233285D02*
X171457926Y-97290428D01*
X171457926Y-97290428D02*
X171648402Y-97290428D01*
X171648402Y-97290428D02*
X171743640Y-97347571D01*
X171743640Y-97347571D02*
X171791259Y-97404714D01*
X171791259Y-97404714D02*
X171838878Y-97519000D01*
X171838878Y-97519000D02*
X171838878Y-97747571D01*
X171838878Y-97747571D02*
X171791259Y-97861857D01*
X171791259Y-97861857D02*
X171743640Y-97919000D01*
X171743640Y-97919000D02*
X171648402Y-97976142D01*
X171648402Y-97976142D02*
X171457926Y-97976142D01*
X171457926Y-97976142D02*
X171362688Y-97919000D01*
X171362688Y-97919000D02*
X171315069Y-97861857D01*
X171315069Y-97861857D02*
X171267450Y-97747571D01*
X171267450Y-97747571D02*
X171267450Y-97519000D01*
X171267450Y-97519000D02*
X171315069Y-97404714D01*
X171315069Y-97404714D02*
X171362688Y-97347571D01*
X171362688Y-97347571D02*
X171457926Y-97290428D01*
X170838878Y-97519000D02*
X170076974Y-97519000D01*
X169600783Y-97976142D02*
X169600783Y-96776142D01*
X169600783Y-97233285D02*
X169505545Y-97176142D01*
X169505545Y-97176142D02*
X169315069Y-97176142D01*
X169315069Y-97176142D02*
X169219831Y-97233285D01*
X169219831Y-97233285D02*
X169172212Y-97290428D01*
X169172212Y-97290428D02*
X169124593Y-97404714D01*
X169124593Y-97404714D02*
X169124593Y-97747571D01*
X169124593Y-97747571D02*
X169172212Y-97861857D01*
X169172212Y-97861857D02*
X169219831Y-97919000D01*
X169219831Y-97919000D02*
X169315069Y-97976142D01*
X169315069Y-97976142D02*
X169505545Y-97976142D01*
X169505545Y-97976142D02*
X169600783Y-97919000D01*
X168696021Y-97976142D02*
X168696021Y-97176142D01*
X168696021Y-96776142D02*
X168743640Y-96833285D01*
X168743640Y-96833285D02*
X168696021Y-96890428D01*
X168696021Y-96890428D02*
X168648402Y-96833285D01*
X168648402Y-96833285D02*
X168696021Y-96776142D01*
X168696021Y-96776142D02*
X168696021Y-96890428D01*
X168362688Y-97176142D02*
X167981736Y-97176142D01*
X168219831Y-96776142D02*
X168219831Y-97804714D01*
X168219831Y-97804714D02*
X168172212Y-97919000D01*
X168172212Y-97919000D02*
X168076974Y-97976142D01*
X168076974Y-97976142D02*
X167981736Y-97976142D01*
X166886497Y-97347571D02*
X166553164Y-97347571D01*
X166410307Y-97976142D02*
X166886497Y-97976142D01*
X166886497Y-97976142D02*
X166886497Y-96776142D01*
X166886497Y-96776142D02*
X166410307Y-96776142D01*
X166124592Y-97176142D02*
X165743640Y-97176142D01*
X165981735Y-96776142D02*
X165981735Y-97804714D01*
X165981735Y-97804714D02*
X165934116Y-97919000D01*
X165934116Y-97919000D02*
X165838878Y-97976142D01*
X165838878Y-97976142D02*
X165743640Y-97976142D01*
X165410306Y-97976142D02*
X165410306Y-96776142D01*
X164981735Y-97976142D02*
X164981735Y-97347571D01*
X164981735Y-97347571D02*
X165029354Y-97233285D01*
X165029354Y-97233285D02*
X165124592Y-97176142D01*
X165124592Y-97176142D02*
X165267449Y-97176142D01*
X165267449Y-97176142D02*
X165362687Y-97233285D01*
X165362687Y-97233285D02*
X165410306Y-97290428D01*
X164124592Y-97919000D02*
X164219830Y-97976142D01*
X164219830Y-97976142D02*
X164410306Y-97976142D01*
X164410306Y-97976142D02*
X164505544Y-97919000D01*
X164505544Y-97919000D02*
X164553163Y-97804714D01*
X164553163Y-97804714D02*
X164553163Y-97347571D01*
X164553163Y-97347571D02*
X164505544Y-97233285D01*
X164505544Y-97233285D02*
X164410306Y-97176142D01*
X164410306Y-97176142D02*
X164219830Y-97176142D01*
X164219830Y-97176142D02*
X164124592Y-97233285D01*
X164124592Y-97233285D02*
X164076973Y-97347571D01*
X164076973Y-97347571D02*
X164076973Y-97461857D01*
X164076973Y-97461857D02*
X164553163Y-97576142D01*
X163648401Y-97976142D02*
X163648401Y-97176142D01*
X163648401Y-97404714D02*
X163600782Y-97290428D01*
X163600782Y-97290428D02*
X163553163Y-97233285D01*
X163553163Y-97233285D02*
X163457925Y-97176142D01*
X163457925Y-97176142D02*
X163362687Y-97176142D01*
X163029353Y-97176142D02*
X163029353Y-97976142D01*
X163029353Y-97290428D02*
X162981734Y-97233285D01*
X162981734Y-97233285D02*
X162886496Y-97176142D01*
X162886496Y-97176142D02*
X162743639Y-97176142D01*
X162743639Y-97176142D02*
X162648401Y-97233285D01*
X162648401Y-97233285D02*
X162600782Y-97347571D01*
X162600782Y-97347571D02*
X162600782Y-97976142D01*
X161743639Y-97919000D02*
X161838877Y-97976142D01*
X161838877Y-97976142D02*
X162029353Y-97976142D01*
X162029353Y-97976142D02*
X162124591Y-97919000D01*
X162124591Y-97919000D02*
X162172210Y-97804714D01*
X162172210Y-97804714D02*
X162172210Y-97347571D01*
X162172210Y-97347571D02*
X162124591Y-97233285D01*
X162124591Y-97233285D02*
X162029353Y-97176142D01*
X162029353Y-97176142D02*
X161838877Y-97176142D01*
X161838877Y-97176142D02*
X161743639Y-97233285D01*
X161743639Y-97233285D02*
X161696020Y-97347571D01*
X161696020Y-97347571D02*
X161696020Y-97461857D01*
X161696020Y-97461857D02*
X162172210Y-97576142D01*
X161410305Y-97176142D02*
X161029353Y-97176142D01*
X161267448Y-96776142D02*
X161267448Y-97804714D01*
X161267448Y-97804714D02*
X161219829Y-97919000D01*
X161219829Y-97919000D02*
X161124591Y-97976142D01*
X161124591Y-97976142D02*
X161029353Y-97976142D01*
X159362686Y-97861857D02*
X159410305Y-97919000D01*
X159410305Y-97919000D02*
X159553162Y-97976142D01*
X159553162Y-97976142D02*
X159648400Y-97976142D01*
X159648400Y-97976142D02*
X159791257Y-97919000D01*
X159791257Y-97919000D02*
X159886495Y-97804714D01*
X159886495Y-97804714D02*
X159934114Y-97690428D01*
X159934114Y-97690428D02*
X159981733Y-97461857D01*
X159981733Y-97461857D02*
X159981733Y-97290428D01*
X159981733Y-97290428D02*
X159934114Y-97061857D01*
X159934114Y-97061857D02*
X159886495Y-96947571D01*
X159886495Y-96947571D02*
X159791257Y-96833285D01*
X159791257Y-96833285D02*
X159648400Y-96776142D01*
X159648400Y-96776142D02*
X159553162Y-96776142D01*
X159553162Y-96776142D02*
X159410305Y-96833285D01*
X159410305Y-96833285D02*
X159362686Y-96890428D01*
X158791257Y-97976142D02*
X158886495Y-97919000D01*
X158886495Y-97919000D02*
X158934114Y-97861857D01*
X158934114Y-97861857D02*
X158981733Y-97747571D01*
X158981733Y-97747571D02*
X158981733Y-97404714D01*
X158981733Y-97404714D02*
X158934114Y-97290428D01*
X158934114Y-97290428D02*
X158886495Y-97233285D01*
X158886495Y-97233285D02*
X158791257Y-97176142D01*
X158791257Y-97176142D02*
X158648400Y-97176142D01*
X158648400Y-97176142D02*
X158553162Y-97233285D01*
X158553162Y-97233285D02*
X158505543Y-97290428D01*
X158505543Y-97290428D02*
X158457924Y-97404714D01*
X158457924Y-97404714D02*
X158457924Y-97747571D01*
X158457924Y-97747571D02*
X158505543Y-97861857D01*
X158505543Y-97861857D02*
X158553162Y-97919000D01*
X158553162Y-97919000D02*
X158648400Y-97976142D01*
X158648400Y-97976142D02*
X158791257Y-97976142D01*
X158029352Y-97176142D02*
X158029352Y-97976142D01*
X158029352Y-97290428D02*
X157981733Y-97233285D01*
X157981733Y-97233285D02*
X157886495Y-97176142D01*
X157886495Y-97176142D02*
X157743638Y-97176142D01*
X157743638Y-97176142D02*
X157648400Y-97233285D01*
X157648400Y-97233285D02*
X157600781Y-97347571D01*
X157600781Y-97347571D02*
X157600781Y-97976142D01*
X157267447Y-97176142D02*
X156886495Y-97176142D01*
X157124590Y-96776142D02*
X157124590Y-97804714D01*
X157124590Y-97804714D02*
X157076971Y-97919000D01*
X157076971Y-97919000D02*
X156981733Y-97976142D01*
X156981733Y-97976142D02*
X156886495Y-97976142D01*
X156553161Y-97976142D02*
X156553161Y-97176142D01*
X156553161Y-97404714D02*
X156505542Y-97290428D01*
X156505542Y-97290428D02*
X156457923Y-97233285D01*
X156457923Y-97233285D02*
X156362685Y-97176142D01*
X156362685Y-97176142D02*
X156267447Y-97176142D01*
X155791256Y-97976142D02*
X155886494Y-97919000D01*
X155886494Y-97919000D02*
X155934113Y-97861857D01*
X155934113Y-97861857D02*
X155981732Y-97747571D01*
X155981732Y-97747571D02*
X155981732Y-97404714D01*
X155981732Y-97404714D02*
X155934113Y-97290428D01*
X155934113Y-97290428D02*
X155886494Y-97233285D01*
X155886494Y-97233285D02*
X155791256Y-97176142D01*
X155791256Y-97176142D02*
X155648399Y-97176142D01*
X155648399Y-97176142D02*
X155553161Y-97233285D01*
X155553161Y-97233285D02*
X155505542Y-97290428D01*
X155505542Y-97290428D02*
X155457923Y-97404714D01*
X155457923Y-97404714D02*
X155457923Y-97747571D01*
X155457923Y-97747571D02*
X155505542Y-97861857D01*
X155505542Y-97861857D02*
X155553161Y-97919000D01*
X155553161Y-97919000D02*
X155648399Y-97976142D01*
X155648399Y-97976142D02*
X155791256Y-97976142D01*
X154886494Y-97976142D02*
X154981732Y-97919000D01*
X154981732Y-97919000D02*
X155029351Y-97804714D01*
X155029351Y-97804714D02*
X155029351Y-96776142D01*
X154362684Y-97976142D02*
X154457922Y-97919000D01*
X154457922Y-97919000D02*
X154505541Y-97804714D01*
X154505541Y-97804714D02*
X154505541Y-96776142D01*
X153600779Y-97919000D02*
X153696017Y-97976142D01*
X153696017Y-97976142D02*
X153886493Y-97976142D01*
X153886493Y-97976142D02*
X153981731Y-97919000D01*
X153981731Y-97919000D02*
X154029350Y-97804714D01*
X154029350Y-97804714D02*
X154029350Y-97347571D01*
X154029350Y-97347571D02*
X153981731Y-97233285D01*
X153981731Y-97233285D02*
X153886493Y-97176142D01*
X153886493Y-97176142D02*
X153696017Y-97176142D01*
X153696017Y-97176142D02*
X153600779Y-97233285D01*
X153600779Y-97233285D02*
X153553160Y-97347571D01*
X153553160Y-97347571D02*
X153553160Y-97461857D01*
X153553160Y-97461857D02*
X154029350Y-97576142D01*
X153124588Y-97976142D02*
X153124588Y-97176142D01*
X153124588Y-97404714D02*
X153076969Y-97290428D01*
X153076969Y-97290428D02*
X153029350Y-97233285D01*
X153029350Y-97233285D02*
X152934112Y-97176142D01*
X152934112Y-97176142D02*
X152838874Y-97176142D01*
X151457921Y-98433285D02*
X151505540Y-98376142D01*
X151505540Y-98376142D02*
X151600778Y-98204714D01*
X151600778Y-98204714D02*
X151648397Y-98090428D01*
X151648397Y-98090428D02*
X151696016Y-97919000D01*
X151696016Y-97919000D02*
X151743635Y-97633285D01*
X151743635Y-97633285D02*
X151743635Y-97404714D01*
X151743635Y-97404714D02*
X151696016Y-97119000D01*
X151696016Y-97119000D02*
X151648397Y-96947571D01*
X151648397Y-96947571D02*
X151600778Y-96833285D01*
X151600778Y-96833285D02*
X151505540Y-96661857D01*
X151505540Y-96661857D02*
X151457921Y-96604714D01*
X151219825Y-96776142D02*
X150648397Y-96776142D01*
X150934111Y-97976142D02*
X150934111Y-96776142D01*
X150457920Y-96776142D02*
X149886492Y-96776142D01*
X150172206Y-97976142D02*
X150172206Y-96776142D01*
X149553158Y-97976142D02*
X149553158Y-96776142D01*
X149553158Y-97347571D02*
X148981730Y-97347571D01*
X148981730Y-97976142D02*
X148981730Y-96776142D01*
X147362682Y-97919000D02*
X147457920Y-97976142D01*
X147457920Y-97976142D02*
X147648396Y-97976142D01*
X147648396Y-97976142D02*
X147743634Y-97919000D01*
X147743634Y-97919000D02*
X147791253Y-97804714D01*
X147791253Y-97804714D02*
X147791253Y-97347571D01*
X147791253Y-97347571D02*
X147743634Y-97233285D01*
X147743634Y-97233285D02*
X147648396Y-97176142D01*
X147648396Y-97176142D02*
X147457920Y-97176142D01*
X147457920Y-97176142D02*
X147362682Y-97233285D01*
X147362682Y-97233285D02*
X147315063Y-97347571D01*
X147315063Y-97347571D02*
X147315063Y-97461857D01*
X147315063Y-97461857D02*
X147791253Y-97576142D01*
X146457920Y-97976142D02*
X146457920Y-96776142D01*
X146457920Y-97919000D02*
X146553158Y-97976142D01*
X146553158Y-97976142D02*
X146743634Y-97976142D01*
X146743634Y-97976142D02*
X146838872Y-97919000D01*
X146838872Y-97919000D02*
X146886491Y-97861857D01*
X146886491Y-97861857D02*
X146934110Y-97747571D01*
X146934110Y-97747571D02*
X146934110Y-97404714D01*
X146934110Y-97404714D02*
X146886491Y-97290428D01*
X146886491Y-97290428D02*
X146838872Y-97233285D01*
X146838872Y-97233285D02*
X146743634Y-97176142D01*
X146743634Y-97176142D02*
X146553158Y-97176142D01*
X146553158Y-97176142D02*
X146457920Y-97233285D01*
X145981729Y-97976142D02*
X145981729Y-97176142D01*
X145981729Y-96776142D02*
X146029348Y-96833285D01*
X146029348Y-96833285D02*
X145981729Y-96890428D01*
X145981729Y-96890428D02*
X145934110Y-96833285D01*
X145934110Y-96833285D02*
X145981729Y-96776142D01*
X145981729Y-96776142D02*
X145981729Y-96890428D01*
X145648396Y-97176142D02*
X145267444Y-97176142D01*
X145505539Y-96776142D02*
X145505539Y-97804714D01*
X145505539Y-97804714D02*
X145457920Y-97919000D01*
X145457920Y-97919000D02*
X145362682Y-97976142D01*
X145362682Y-97976142D02*
X145267444Y-97976142D01*
X144934110Y-97976142D02*
X144934110Y-97176142D01*
X144934110Y-96776142D02*
X144981729Y-96833285D01*
X144981729Y-96833285D02*
X144934110Y-96890428D01*
X144934110Y-96890428D02*
X144886491Y-96833285D01*
X144886491Y-96833285D02*
X144934110Y-96776142D01*
X144934110Y-96776142D02*
X144934110Y-96890428D01*
X144315063Y-97976142D02*
X144410301Y-97919000D01*
X144410301Y-97919000D02*
X144457920Y-97861857D01*
X144457920Y-97861857D02*
X144505539Y-97747571D01*
X144505539Y-97747571D02*
X144505539Y-97404714D01*
X144505539Y-97404714D02*
X144457920Y-97290428D01*
X144457920Y-97290428D02*
X144410301Y-97233285D01*
X144410301Y-97233285D02*
X144315063Y-97176142D01*
X144315063Y-97176142D02*
X144172206Y-97176142D01*
X144172206Y-97176142D02*
X144076968Y-97233285D01*
X144076968Y-97233285D02*
X144029349Y-97290428D01*
X144029349Y-97290428D02*
X143981730Y-97404714D01*
X143981730Y-97404714D02*
X143981730Y-97747571D01*
X143981730Y-97747571D02*
X144029349Y-97861857D01*
X144029349Y-97861857D02*
X144076968Y-97919000D01*
X144076968Y-97919000D02*
X144172206Y-97976142D01*
X144172206Y-97976142D02*
X144315063Y-97976142D01*
X143553158Y-97176142D02*
X143553158Y-97976142D01*
X143553158Y-97290428D02*
X143505539Y-97233285D01*
X143505539Y-97233285D02*
X143410301Y-97176142D01*
X143410301Y-97176142D02*
X143267444Y-97176142D01*
X143267444Y-97176142D02*
X143172206Y-97233285D01*
X143172206Y-97233285D02*
X143124587Y-97347571D01*
X143124587Y-97347571D02*
X143124587Y-97976142D01*
X142743634Y-98433285D02*
X142696015Y-98376142D01*
X142696015Y-98376142D02*
X142600777Y-98204714D01*
X142600777Y-98204714D02*
X142553158Y-98090428D01*
X142553158Y-98090428D02*
X142505539Y-97919000D01*
X142505539Y-97919000D02*
X142457920Y-97633285D01*
X142457920Y-97633285D02*
X142457920Y-97404714D01*
X142457920Y-97404714D02*
X142505539Y-97119000D01*
X142505539Y-97119000D02*
X142553158Y-96947571D01*
X142553158Y-96947571D02*
X142600777Y-96833285D01*
X142600777Y-96833285D02*
X142696015Y-96661857D01*
X142696015Y-96661857D02*
X142743634Y-96604714D01*
X175934116Y-100365285D02*
X175981735Y-100308142D01*
X175981735Y-100308142D02*
X176076973Y-100136714D01*
X176076973Y-100136714D02*
X176124592Y-100022428D01*
X176124592Y-100022428D02*
X176172211Y-99851000D01*
X176172211Y-99851000D02*
X176219830Y-99565285D01*
X176219830Y-99565285D02*
X176219830Y-99336714D01*
X176219830Y-99336714D02*
X176172211Y-99051000D01*
X176172211Y-99051000D02*
X176124592Y-98879571D01*
X176124592Y-98879571D02*
X176076973Y-98765285D01*
X176076973Y-98765285D02*
X175981735Y-98593857D01*
X175981735Y-98593857D02*
X175934116Y-98536714D01*
X175362687Y-98708142D02*
X175172211Y-98708142D01*
X175172211Y-98708142D02*
X175076973Y-98765285D01*
X175076973Y-98765285D02*
X174981735Y-98879571D01*
X174981735Y-98879571D02*
X174934116Y-99108142D01*
X174934116Y-99108142D02*
X174934116Y-99508142D01*
X174934116Y-99508142D02*
X174981735Y-99736714D01*
X174981735Y-99736714D02*
X175076973Y-99851000D01*
X175076973Y-99851000D02*
X175172211Y-99908142D01*
X175172211Y-99908142D02*
X175362687Y-99908142D01*
X175362687Y-99908142D02*
X175457925Y-99851000D01*
X175457925Y-99851000D02*
X175553163Y-99736714D01*
X175553163Y-99736714D02*
X175600782Y-99508142D01*
X175600782Y-99508142D02*
X175600782Y-99108142D01*
X175600782Y-99108142D02*
X175553163Y-98879571D01*
X175553163Y-98879571D02*
X175457925Y-98765285D01*
X175457925Y-98765285D02*
X175362687Y-98708142D01*
X174505544Y-99908142D02*
X174505544Y-99108142D01*
X174505544Y-99336714D02*
X174457925Y-99222428D01*
X174457925Y-99222428D02*
X174410306Y-99165285D01*
X174410306Y-99165285D02*
X174315068Y-99108142D01*
X174315068Y-99108142D02*
X174219830Y-99108142D01*
X173886496Y-99908142D02*
X173886496Y-99108142D01*
X173886496Y-98708142D02*
X173934115Y-98765285D01*
X173934115Y-98765285D02*
X173886496Y-98822428D01*
X173886496Y-98822428D02*
X173838877Y-98765285D01*
X173838877Y-98765285D02*
X173886496Y-98708142D01*
X173886496Y-98708142D02*
X173886496Y-98822428D01*
X172981735Y-99108142D02*
X172981735Y-100079571D01*
X172981735Y-100079571D02*
X173029354Y-100193857D01*
X173029354Y-100193857D02*
X173076973Y-100251000D01*
X173076973Y-100251000D02*
X173172211Y-100308142D01*
X173172211Y-100308142D02*
X173315068Y-100308142D01*
X173315068Y-100308142D02*
X173410306Y-100251000D01*
X172981735Y-99851000D02*
X173076973Y-99908142D01*
X173076973Y-99908142D02*
X173267449Y-99908142D01*
X173267449Y-99908142D02*
X173362687Y-99851000D01*
X173362687Y-99851000D02*
X173410306Y-99793857D01*
X173410306Y-99793857D02*
X173457925Y-99679571D01*
X173457925Y-99679571D02*
X173457925Y-99336714D01*
X173457925Y-99336714D02*
X173410306Y-99222428D01*
X173410306Y-99222428D02*
X173362687Y-99165285D01*
X173362687Y-99165285D02*
X173267449Y-99108142D01*
X173267449Y-99108142D02*
X173076973Y-99108142D01*
X173076973Y-99108142D02*
X172981735Y-99165285D01*
X172505544Y-99908142D02*
X172505544Y-99108142D01*
X172505544Y-98708142D02*
X172553163Y-98765285D01*
X172553163Y-98765285D02*
X172505544Y-98822428D01*
X172505544Y-98822428D02*
X172457925Y-98765285D01*
X172457925Y-98765285D02*
X172505544Y-98708142D01*
X172505544Y-98708142D02*
X172505544Y-98822428D01*
X172029354Y-99108142D02*
X172029354Y-99908142D01*
X172029354Y-99222428D02*
X171981735Y-99165285D01*
X171981735Y-99165285D02*
X171886497Y-99108142D01*
X171886497Y-99108142D02*
X171743640Y-99108142D01*
X171743640Y-99108142D02*
X171648402Y-99165285D01*
X171648402Y-99165285D02*
X171600783Y-99279571D01*
X171600783Y-99279571D02*
X171600783Y-99908142D01*
X170696021Y-99908142D02*
X170696021Y-99279571D01*
X170696021Y-99279571D02*
X170743640Y-99165285D01*
X170743640Y-99165285D02*
X170838878Y-99108142D01*
X170838878Y-99108142D02*
X171029354Y-99108142D01*
X171029354Y-99108142D02*
X171124592Y-99165285D01*
X170696021Y-99851000D02*
X170791259Y-99908142D01*
X170791259Y-99908142D02*
X171029354Y-99908142D01*
X171029354Y-99908142D02*
X171124592Y-99851000D01*
X171124592Y-99851000D02*
X171172211Y-99736714D01*
X171172211Y-99736714D02*
X171172211Y-99622428D01*
X171172211Y-99622428D02*
X171124592Y-99508142D01*
X171124592Y-99508142D02*
X171029354Y-99451000D01*
X171029354Y-99451000D02*
X170791259Y-99451000D01*
X170791259Y-99451000D02*
X170696021Y-99393857D01*
X170076973Y-99908142D02*
X170172211Y-99851000D01*
X170172211Y-99851000D02*
X170219830Y-99736714D01*
X170219830Y-99736714D02*
X170219830Y-98708142D01*
X169029353Y-99108142D02*
X168791258Y-99908142D01*
X168791258Y-99908142D02*
X168553163Y-99108142D01*
X167791258Y-99851000D02*
X167886496Y-99908142D01*
X167886496Y-99908142D02*
X168076972Y-99908142D01*
X168076972Y-99908142D02*
X168172210Y-99851000D01*
X168172210Y-99851000D02*
X168219829Y-99736714D01*
X168219829Y-99736714D02*
X168219829Y-99279571D01*
X168219829Y-99279571D02*
X168172210Y-99165285D01*
X168172210Y-99165285D02*
X168076972Y-99108142D01*
X168076972Y-99108142D02*
X167886496Y-99108142D01*
X167886496Y-99108142D02*
X167791258Y-99165285D01*
X167791258Y-99165285D02*
X167743639Y-99279571D01*
X167743639Y-99279571D02*
X167743639Y-99393857D01*
X167743639Y-99393857D02*
X168219829Y-99508142D01*
X167315067Y-99908142D02*
X167315067Y-99108142D01*
X167315067Y-99336714D02*
X167267448Y-99222428D01*
X167267448Y-99222428D02*
X167219829Y-99165285D01*
X167219829Y-99165285D02*
X167124591Y-99108142D01*
X167124591Y-99108142D02*
X167029353Y-99108142D01*
X166743638Y-99851000D02*
X166648400Y-99908142D01*
X166648400Y-99908142D02*
X166457924Y-99908142D01*
X166457924Y-99908142D02*
X166362686Y-99851000D01*
X166362686Y-99851000D02*
X166315067Y-99736714D01*
X166315067Y-99736714D02*
X166315067Y-99679571D01*
X166315067Y-99679571D02*
X166362686Y-99565285D01*
X166362686Y-99565285D02*
X166457924Y-99508142D01*
X166457924Y-99508142D02*
X166600781Y-99508142D01*
X166600781Y-99508142D02*
X166696019Y-99451000D01*
X166696019Y-99451000D02*
X166743638Y-99336714D01*
X166743638Y-99336714D02*
X166743638Y-99279571D01*
X166743638Y-99279571D02*
X166696019Y-99165285D01*
X166696019Y-99165285D02*
X166600781Y-99108142D01*
X166600781Y-99108142D02*
X166457924Y-99108142D01*
X166457924Y-99108142D02*
X166362686Y-99165285D01*
X165886495Y-99908142D02*
X165886495Y-99108142D01*
X165886495Y-98708142D02*
X165934114Y-98765285D01*
X165934114Y-98765285D02*
X165886495Y-98822428D01*
X165886495Y-98822428D02*
X165838876Y-98765285D01*
X165838876Y-98765285D02*
X165886495Y-98708142D01*
X165886495Y-98708142D02*
X165886495Y-98822428D01*
X165267448Y-99908142D02*
X165362686Y-99851000D01*
X165362686Y-99851000D02*
X165410305Y-99793857D01*
X165410305Y-99793857D02*
X165457924Y-99679571D01*
X165457924Y-99679571D02*
X165457924Y-99336714D01*
X165457924Y-99336714D02*
X165410305Y-99222428D01*
X165410305Y-99222428D02*
X165362686Y-99165285D01*
X165362686Y-99165285D02*
X165267448Y-99108142D01*
X165267448Y-99108142D02*
X165124591Y-99108142D01*
X165124591Y-99108142D02*
X165029353Y-99165285D01*
X165029353Y-99165285D02*
X164981734Y-99222428D01*
X164981734Y-99222428D02*
X164934115Y-99336714D01*
X164934115Y-99336714D02*
X164934115Y-99679571D01*
X164934115Y-99679571D02*
X164981734Y-99793857D01*
X164981734Y-99793857D02*
X165029353Y-99851000D01*
X165029353Y-99851000D02*
X165124591Y-99908142D01*
X165124591Y-99908142D02*
X165267448Y-99908142D01*
X164505543Y-99108142D02*
X164505543Y-99908142D01*
X164505543Y-99222428D02*
X164457924Y-99165285D01*
X164457924Y-99165285D02*
X164362686Y-99108142D01*
X164362686Y-99108142D02*
X164219829Y-99108142D01*
X164219829Y-99108142D02*
X164124591Y-99165285D01*
X164124591Y-99165285D02*
X164076972Y-99279571D01*
X164076972Y-99279571D02*
X164076972Y-99908142D01*
X162838876Y-99908142D02*
X162838876Y-98708142D01*
X162838876Y-99165285D02*
X162743638Y-99108142D01*
X162743638Y-99108142D02*
X162553162Y-99108142D01*
X162553162Y-99108142D02*
X162457924Y-99165285D01*
X162457924Y-99165285D02*
X162410305Y-99222428D01*
X162410305Y-99222428D02*
X162362686Y-99336714D01*
X162362686Y-99336714D02*
X162362686Y-99679571D01*
X162362686Y-99679571D02*
X162410305Y-99793857D01*
X162410305Y-99793857D02*
X162457924Y-99851000D01*
X162457924Y-99851000D02*
X162553162Y-99908142D01*
X162553162Y-99908142D02*
X162743638Y-99908142D01*
X162743638Y-99908142D02*
X162838876Y-99851000D01*
X162029352Y-99108142D02*
X161791257Y-99908142D01*
X161553162Y-99108142D02*
X161791257Y-99908142D01*
X161791257Y-99908142D02*
X161886495Y-100193857D01*
X161886495Y-100193857D02*
X161934114Y-100251000D01*
X161934114Y-100251000D02*
X162029352Y-100308142D01*
X160457923Y-99851000D02*
X160315066Y-99908142D01*
X160315066Y-99908142D02*
X160076971Y-99908142D01*
X160076971Y-99908142D02*
X159981733Y-99851000D01*
X159981733Y-99851000D02*
X159934114Y-99793857D01*
X159934114Y-99793857D02*
X159886495Y-99679571D01*
X159886495Y-99679571D02*
X159886495Y-99565285D01*
X159886495Y-99565285D02*
X159934114Y-99451000D01*
X159934114Y-99451000D02*
X159981733Y-99393857D01*
X159981733Y-99393857D02*
X160076971Y-99336714D01*
X160076971Y-99336714D02*
X160267447Y-99279571D01*
X160267447Y-99279571D02*
X160362685Y-99222428D01*
X160362685Y-99222428D02*
X160410304Y-99165285D01*
X160410304Y-99165285D02*
X160457923Y-99051000D01*
X160457923Y-99051000D02*
X160457923Y-98936714D01*
X160457923Y-98936714D02*
X160410304Y-98822428D01*
X160410304Y-98822428D02*
X160362685Y-98765285D01*
X160362685Y-98765285D02*
X160267447Y-98708142D01*
X160267447Y-98708142D02*
X160029352Y-98708142D01*
X160029352Y-98708142D02*
X159886495Y-98765285D01*
X159076971Y-99851000D02*
X159172209Y-99908142D01*
X159172209Y-99908142D02*
X159362685Y-99908142D01*
X159362685Y-99908142D02*
X159457923Y-99851000D01*
X159457923Y-99851000D02*
X159505542Y-99736714D01*
X159505542Y-99736714D02*
X159505542Y-99279571D01*
X159505542Y-99279571D02*
X159457923Y-99165285D01*
X159457923Y-99165285D02*
X159362685Y-99108142D01*
X159362685Y-99108142D02*
X159172209Y-99108142D01*
X159172209Y-99108142D02*
X159076971Y-99165285D01*
X159076971Y-99165285D02*
X159029352Y-99279571D01*
X159029352Y-99279571D02*
X159029352Y-99393857D01*
X159029352Y-99393857D02*
X159505542Y-99508142D01*
X158600780Y-99908142D02*
X158600780Y-99108142D01*
X158600780Y-99336714D02*
X158553161Y-99222428D01*
X158553161Y-99222428D02*
X158505542Y-99165285D01*
X158505542Y-99165285D02*
X158410304Y-99108142D01*
X158410304Y-99108142D02*
X158315066Y-99108142D01*
X157553161Y-99108142D02*
X157553161Y-100079571D01*
X157553161Y-100079571D02*
X157600780Y-100193857D01*
X157600780Y-100193857D02*
X157648399Y-100251000D01*
X157648399Y-100251000D02*
X157743637Y-100308142D01*
X157743637Y-100308142D02*
X157886494Y-100308142D01*
X157886494Y-100308142D02*
X157981732Y-100251000D01*
X157553161Y-99851000D02*
X157648399Y-99908142D01*
X157648399Y-99908142D02*
X157838875Y-99908142D01*
X157838875Y-99908142D02*
X157934113Y-99851000D01*
X157934113Y-99851000D02*
X157981732Y-99793857D01*
X157981732Y-99793857D02*
X158029351Y-99679571D01*
X158029351Y-99679571D02*
X158029351Y-99336714D01*
X158029351Y-99336714D02*
X157981732Y-99222428D01*
X157981732Y-99222428D02*
X157934113Y-99165285D01*
X157934113Y-99165285D02*
X157838875Y-99108142D01*
X157838875Y-99108142D02*
X157648399Y-99108142D01*
X157648399Y-99108142D02*
X157553161Y-99165285D01*
X156696018Y-99851000D02*
X156791256Y-99908142D01*
X156791256Y-99908142D02*
X156981732Y-99908142D01*
X156981732Y-99908142D02*
X157076970Y-99851000D01*
X157076970Y-99851000D02*
X157124589Y-99736714D01*
X157124589Y-99736714D02*
X157124589Y-99279571D01*
X157124589Y-99279571D02*
X157076970Y-99165285D01*
X157076970Y-99165285D02*
X156981732Y-99108142D01*
X156981732Y-99108142D02*
X156791256Y-99108142D01*
X156791256Y-99108142D02*
X156696018Y-99165285D01*
X156696018Y-99165285D02*
X156648399Y-99279571D01*
X156648399Y-99279571D02*
X156648399Y-99393857D01*
X156648399Y-99393857D02*
X157124589Y-99508142D01*
X156315065Y-99108142D02*
X156076970Y-99908142D01*
X155838875Y-99108142D02*
X156076970Y-99908142D01*
X156076970Y-99908142D02*
X156172208Y-100193857D01*
X156172208Y-100193857D02*
X156219827Y-100251000D01*
X156219827Y-100251000D02*
X156315065Y-100308142D01*
X154696017Y-99908142D02*
X154696017Y-98708142D01*
X154124589Y-99908142D02*
X154553160Y-99222428D01*
X154124589Y-98708142D02*
X154696017Y-99393857D01*
X153696017Y-99908142D02*
X153696017Y-99108142D01*
X153696017Y-98708142D02*
X153743636Y-98765285D01*
X153743636Y-98765285D02*
X153696017Y-98822428D01*
X153696017Y-98822428D02*
X153648398Y-98765285D01*
X153648398Y-98765285D02*
X153696017Y-98708142D01*
X153696017Y-98708142D02*
X153696017Y-98822428D01*
X153267446Y-99851000D02*
X153172208Y-99908142D01*
X153172208Y-99908142D02*
X152981732Y-99908142D01*
X152981732Y-99908142D02*
X152886494Y-99851000D01*
X152886494Y-99851000D02*
X152838875Y-99736714D01*
X152838875Y-99736714D02*
X152838875Y-99679571D01*
X152838875Y-99679571D02*
X152886494Y-99565285D01*
X152886494Y-99565285D02*
X152981732Y-99508142D01*
X152981732Y-99508142D02*
X153124589Y-99508142D01*
X153124589Y-99508142D02*
X153219827Y-99451000D01*
X153219827Y-99451000D02*
X153267446Y-99336714D01*
X153267446Y-99336714D02*
X153267446Y-99279571D01*
X153267446Y-99279571D02*
X153219827Y-99165285D01*
X153219827Y-99165285D02*
X153124589Y-99108142D01*
X153124589Y-99108142D02*
X152981732Y-99108142D01*
X152981732Y-99108142D02*
X152886494Y-99165285D01*
X152029351Y-99851000D02*
X152124589Y-99908142D01*
X152124589Y-99908142D02*
X152315065Y-99908142D01*
X152315065Y-99908142D02*
X152410303Y-99851000D01*
X152410303Y-99851000D02*
X152457922Y-99736714D01*
X152457922Y-99736714D02*
X152457922Y-99279571D01*
X152457922Y-99279571D02*
X152410303Y-99165285D01*
X152410303Y-99165285D02*
X152315065Y-99108142D01*
X152315065Y-99108142D02*
X152124589Y-99108142D01*
X152124589Y-99108142D02*
X152029351Y-99165285D01*
X152029351Y-99165285D02*
X151981732Y-99279571D01*
X151981732Y-99279571D02*
X151981732Y-99393857D01*
X151981732Y-99393857D02*
X152457922Y-99508142D01*
X151410303Y-99908142D02*
X151505541Y-99851000D01*
X151505541Y-99851000D02*
X151553160Y-99736714D01*
X151553160Y-99736714D02*
X151553160Y-98708142D01*
X150648398Y-99851000D02*
X150743636Y-99908142D01*
X150743636Y-99908142D02*
X150934112Y-99908142D01*
X150934112Y-99908142D02*
X151029350Y-99851000D01*
X151029350Y-99851000D02*
X151076969Y-99736714D01*
X151076969Y-99736714D02*
X151076969Y-99279571D01*
X151076969Y-99279571D02*
X151029350Y-99165285D01*
X151029350Y-99165285D02*
X150934112Y-99108142D01*
X150934112Y-99108142D02*
X150743636Y-99108142D01*
X150743636Y-99108142D02*
X150648398Y-99165285D01*
X150648398Y-99165285D02*
X150600779Y-99279571D01*
X150600779Y-99279571D02*
X150600779Y-99393857D01*
X150600779Y-99393857D02*
X151076969Y-99508142D01*
X150267445Y-99108142D02*
X150029350Y-99908142D01*
X150029350Y-99908142D02*
X149791255Y-99108142D01*
X148362683Y-100365285D02*
X148410302Y-100308142D01*
X148410302Y-100308142D02*
X148505540Y-100136714D01*
X148505540Y-100136714D02*
X148553159Y-100022428D01*
X148553159Y-100022428D02*
X148600778Y-99851000D01*
X148600778Y-99851000D02*
X148648397Y-99565285D01*
X148648397Y-99565285D02*
X148648397Y-99336714D01*
X148648397Y-99336714D02*
X148600778Y-99051000D01*
X148600778Y-99051000D02*
X148553159Y-98879571D01*
X148553159Y-98879571D02*
X148505540Y-98765285D01*
X148505540Y-98765285D02*
X148410302Y-98593857D01*
X148410302Y-98593857D02*
X148362683Y-98536714D01*
X147410302Y-99793857D02*
X147457921Y-99851000D01*
X147457921Y-99851000D02*
X147600778Y-99908142D01*
X147600778Y-99908142D02*
X147696016Y-99908142D01*
X147696016Y-99908142D02*
X147838873Y-99851000D01*
X147838873Y-99851000D02*
X147934111Y-99736714D01*
X147934111Y-99736714D02*
X147981730Y-99622428D01*
X147981730Y-99622428D02*
X148029349Y-99393857D01*
X148029349Y-99393857D02*
X148029349Y-99222428D01*
X148029349Y-99222428D02*
X147981730Y-98993857D01*
X147981730Y-98993857D02*
X147934111Y-98879571D01*
X147934111Y-98879571D02*
X147838873Y-98765285D01*
X147838873Y-98765285D02*
X147696016Y-98708142D01*
X147696016Y-98708142D02*
X147600778Y-98708142D01*
X147600778Y-98708142D02*
X147457921Y-98765285D01*
X147457921Y-98765285D02*
X147410302Y-98822428D01*
X147076968Y-100365285D02*
X147029349Y-100308142D01*
X147029349Y-100308142D02*
X146934111Y-100136714D01*
X146934111Y-100136714D02*
X146886492Y-100022428D01*
X146886492Y-100022428D02*
X146838873Y-99851000D01*
X146838873Y-99851000D02*
X146791254Y-99565285D01*
X146791254Y-99565285D02*
X146791254Y-99336714D01*
X146791254Y-99336714D02*
X146838873Y-99051000D01*
X146838873Y-99051000D02*
X146886492Y-98879571D01*
X146886492Y-98879571D02*
X146934111Y-98765285D01*
X146934111Y-98765285D02*
X147029349Y-98593857D01*
X147029349Y-98593857D02*
X147076968Y-98536714D01*
X146267444Y-99851000D02*
X146267444Y-99908142D01*
X146267444Y-99908142D02*
X146315063Y-100022428D01*
X146315063Y-100022428D02*
X146362682Y-100079571D01*
X145124587Y-98822428D02*
X145076968Y-98765285D01*
X145076968Y-98765285D02*
X144981730Y-98708142D01*
X144981730Y-98708142D02*
X144743635Y-98708142D01*
X144743635Y-98708142D02*
X144648397Y-98765285D01*
X144648397Y-98765285D02*
X144600778Y-98822428D01*
X144600778Y-98822428D02*
X144553159Y-98936714D01*
X144553159Y-98936714D02*
X144553159Y-99051000D01*
X144553159Y-99051000D02*
X144600778Y-99222428D01*
X144600778Y-99222428D02*
X145172206Y-99908142D01*
X145172206Y-99908142D02*
X144553159Y-99908142D01*
X143934111Y-98708142D02*
X143838873Y-98708142D01*
X143838873Y-98708142D02*
X143743635Y-98765285D01*
X143743635Y-98765285D02*
X143696016Y-98822428D01*
X143696016Y-98822428D02*
X143648397Y-98936714D01*
X143648397Y-98936714D02*
X143600778Y-99165285D01*
X143600778Y-99165285D02*
X143600778Y-99451000D01*
X143600778Y-99451000D02*
X143648397Y-99679571D01*
X143648397Y-99679571D02*
X143696016Y-99793857D01*
X143696016Y-99793857D02*
X143743635Y-99851000D01*
X143743635Y-99851000D02*
X143838873Y-99908142D01*
X143838873Y-99908142D02*
X143934111Y-99908142D01*
X143934111Y-99908142D02*
X144029349Y-99851000D01*
X144029349Y-99851000D02*
X144076968Y-99793857D01*
X144076968Y-99793857D02*
X144124587Y-99679571D01*
X144124587Y-99679571D02*
X144172206Y-99451000D01*
X144172206Y-99451000D02*
X144172206Y-99165285D01*
X144172206Y-99165285D02*
X144124587Y-98936714D01*
X144124587Y-98936714D02*
X144076968Y-98822428D01*
X144076968Y-98822428D02*
X144029349Y-98765285D01*
X144029349Y-98765285D02*
X143934111Y-98708142D01*
X143219825Y-98822428D02*
X143172206Y-98765285D01*
X143172206Y-98765285D02*
X143076968Y-98708142D01*
X143076968Y-98708142D02*
X142838873Y-98708142D01*
X142838873Y-98708142D02*
X142743635Y-98765285D01*
X142743635Y-98765285D02*
X142696016Y-98822428D01*
X142696016Y-98822428D02*
X142648397Y-98936714D01*
X142648397Y-98936714D02*
X142648397Y-99051000D01*
X142648397Y-99051000D02*
X142696016Y-99222428D01*
X142696016Y-99222428D02*
X143267444Y-99908142D01*
X143267444Y-99908142D02*
X142648397Y-99908142D01*
X141696016Y-99908142D02*
X142267444Y-99908142D01*
X141981730Y-99908142D02*
X141981730Y-98708142D01*
X141981730Y-98708142D02*
X142076968Y-98879571D01*
X142076968Y-98879571D02*
X142172206Y-98993857D01*
X142172206Y-98993857D02*
X142267444Y-99051000D01*
X141362682Y-100365285D02*
X141315063Y-100308142D01*
X141315063Y-100308142D02*
X141219825Y-100136714D01*
X141219825Y-100136714D02*
X141172206Y-100022428D01*
X141172206Y-100022428D02*
X141124587Y-99851000D01*
X141124587Y-99851000D02*
X141076968Y-99565285D01*
X141076968Y-99565285D02*
X141076968Y-99336714D01*
X141076968Y-99336714D02*
X141124587Y-99051000D01*
X141124587Y-99051000D02*
X141172206Y-98879571D01*
X141172206Y-98879571D02*
X141219825Y-98765285D01*
X141219825Y-98765285D02*
X141315063Y-98593857D01*
X141315063Y-98593857D02*
X141362682Y-98536714D01*
X170148400Y-102572142D02*
X169576972Y-102572142D01*
X169862686Y-103772142D02*
X169862686Y-102572142D01*
X169386495Y-102572142D02*
X168815067Y-102572142D01*
X169100781Y-103772142D02*
X169100781Y-102572142D01*
X168481733Y-103772142D02*
X168481733Y-102572142D01*
X168481733Y-103143571D02*
X167910305Y-103143571D01*
X167910305Y-103772142D02*
X167910305Y-102572142D01*
X166291257Y-103715000D02*
X166386495Y-103772142D01*
X166386495Y-103772142D02*
X166576971Y-103772142D01*
X166576971Y-103772142D02*
X166672209Y-103715000D01*
X166672209Y-103715000D02*
X166719828Y-103600714D01*
X166719828Y-103600714D02*
X166719828Y-103143571D01*
X166719828Y-103143571D02*
X166672209Y-103029285D01*
X166672209Y-103029285D02*
X166576971Y-102972142D01*
X166576971Y-102972142D02*
X166386495Y-102972142D01*
X166386495Y-102972142D02*
X166291257Y-103029285D01*
X166291257Y-103029285D02*
X166243638Y-103143571D01*
X166243638Y-103143571D02*
X166243638Y-103257857D01*
X166243638Y-103257857D02*
X166719828Y-103372142D01*
X165386495Y-103772142D02*
X165386495Y-102572142D01*
X165386495Y-103715000D02*
X165481733Y-103772142D01*
X165481733Y-103772142D02*
X165672209Y-103772142D01*
X165672209Y-103772142D02*
X165767447Y-103715000D01*
X165767447Y-103715000D02*
X165815066Y-103657857D01*
X165815066Y-103657857D02*
X165862685Y-103543571D01*
X165862685Y-103543571D02*
X165862685Y-103200714D01*
X165862685Y-103200714D02*
X165815066Y-103086428D01*
X165815066Y-103086428D02*
X165767447Y-103029285D01*
X165767447Y-103029285D02*
X165672209Y-102972142D01*
X165672209Y-102972142D02*
X165481733Y-102972142D01*
X165481733Y-102972142D02*
X165386495Y-103029285D01*
X164910304Y-103772142D02*
X164910304Y-102972142D01*
X164910304Y-102572142D02*
X164957923Y-102629285D01*
X164957923Y-102629285D02*
X164910304Y-102686428D01*
X164910304Y-102686428D02*
X164862685Y-102629285D01*
X164862685Y-102629285D02*
X164910304Y-102572142D01*
X164910304Y-102572142D02*
X164910304Y-102686428D01*
X164576971Y-102972142D02*
X164196019Y-102972142D01*
X164434114Y-102572142D02*
X164434114Y-103600714D01*
X164434114Y-103600714D02*
X164386495Y-103715000D01*
X164386495Y-103715000D02*
X164291257Y-103772142D01*
X164291257Y-103772142D02*
X164196019Y-103772142D01*
X163862685Y-103772142D02*
X163862685Y-102972142D01*
X163862685Y-102572142D02*
X163910304Y-102629285D01*
X163910304Y-102629285D02*
X163862685Y-102686428D01*
X163862685Y-102686428D02*
X163815066Y-102629285D01*
X163815066Y-102629285D02*
X163862685Y-102572142D01*
X163862685Y-102572142D02*
X163862685Y-102686428D01*
X163243638Y-103772142D02*
X163338876Y-103715000D01*
X163338876Y-103715000D02*
X163386495Y-103657857D01*
X163386495Y-103657857D02*
X163434114Y-103543571D01*
X163434114Y-103543571D02*
X163434114Y-103200714D01*
X163434114Y-103200714D02*
X163386495Y-103086428D01*
X163386495Y-103086428D02*
X163338876Y-103029285D01*
X163338876Y-103029285D02*
X163243638Y-102972142D01*
X163243638Y-102972142D02*
X163100781Y-102972142D01*
X163100781Y-102972142D02*
X163005543Y-103029285D01*
X163005543Y-103029285D02*
X162957924Y-103086428D01*
X162957924Y-103086428D02*
X162910305Y-103200714D01*
X162910305Y-103200714D02*
X162910305Y-103543571D01*
X162910305Y-103543571D02*
X162957924Y-103657857D01*
X162957924Y-103657857D02*
X163005543Y-103715000D01*
X163005543Y-103715000D02*
X163100781Y-103772142D01*
X163100781Y-103772142D02*
X163243638Y-103772142D01*
X162481733Y-102972142D02*
X162481733Y-103772142D01*
X162481733Y-103086428D02*
X162434114Y-103029285D01*
X162434114Y-103029285D02*
X162338876Y-102972142D01*
X162338876Y-102972142D02*
X162196019Y-102972142D01*
X162196019Y-102972142D02*
X162100781Y-103029285D01*
X162100781Y-103029285D02*
X162053162Y-103143571D01*
X162053162Y-103143571D02*
X162053162Y-103772142D01*
X160910304Y-102972142D02*
X160672209Y-103772142D01*
X160672209Y-103772142D02*
X160434114Y-102972142D01*
X159672209Y-103715000D02*
X159767447Y-103772142D01*
X159767447Y-103772142D02*
X159957923Y-103772142D01*
X159957923Y-103772142D02*
X160053161Y-103715000D01*
X160053161Y-103715000D02*
X160100780Y-103600714D01*
X160100780Y-103600714D02*
X160100780Y-103143571D01*
X160100780Y-103143571D02*
X160053161Y-103029285D01*
X160053161Y-103029285D02*
X159957923Y-102972142D01*
X159957923Y-102972142D02*
X159767447Y-102972142D01*
X159767447Y-102972142D02*
X159672209Y-103029285D01*
X159672209Y-103029285D02*
X159624590Y-103143571D01*
X159624590Y-103143571D02*
X159624590Y-103257857D01*
X159624590Y-103257857D02*
X160100780Y-103372142D01*
X159196018Y-103772142D02*
X159196018Y-102972142D01*
X159196018Y-103200714D02*
X159148399Y-103086428D01*
X159148399Y-103086428D02*
X159100780Y-103029285D01*
X159100780Y-103029285D02*
X159005542Y-102972142D01*
X159005542Y-102972142D02*
X158910304Y-102972142D01*
X157624589Y-102572142D02*
X157529351Y-102572142D01*
X157529351Y-102572142D02*
X157434113Y-102629285D01*
X157434113Y-102629285D02*
X157386494Y-102686428D01*
X157386494Y-102686428D02*
X157338875Y-102800714D01*
X157338875Y-102800714D02*
X157291256Y-103029285D01*
X157291256Y-103029285D02*
X157291256Y-103315000D01*
X157291256Y-103315000D02*
X157338875Y-103543571D01*
X157338875Y-103543571D02*
X157386494Y-103657857D01*
X157386494Y-103657857D02*
X157434113Y-103715000D01*
X157434113Y-103715000D02*
X157529351Y-103772142D01*
X157529351Y-103772142D02*
X157624589Y-103772142D01*
X157624589Y-103772142D02*
X157719827Y-103715000D01*
X157719827Y-103715000D02*
X157767446Y-103657857D01*
X157767446Y-103657857D02*
X157815065Y-103543571D01*
X157815065Y-103543571D02*
X157862684Y-103315000D01*
X157862684Y-103315000D02*
X157862684Y-103029285D01*
X157862684Y-103029285D02*
X157815065Y-102800714D01*
X157815065Y-102800714D02*
X157767446Y-102686428D01*
X157767446Y-102686428D02*
X157719827Y-102629285D01*
X157719827Y-102629285D02*
X157624589Y-102572142D01*
X156862684Y-103657857D02*
X156815065Y-103715000D01*
X156815065Y-103715000D02*
X156862684Y-103772142D01*
X156862684Y-103772142D02*
X156910303Y-103715000D01*
X156910303Y-103715000D02*
X156862684Y-103657857D01*
X156862684Y-103657857D02*
X156862684Y-103772142D01*
X155862685Y-103772142D02*
X156434113Y-103772142D01*
X156148399Y-103772142D02*
X156148399Y-102572142D01*
X156148399Y-102572142D02*
X156243637Y-102743571D01*
X156243637Y-102743571D02*
X156338875Y-102857857D01*
X156338875Y-102857857D02*
X156434113Y-102915000D01*
X154672208Y-103772142D02*
X154672208Y-102572142D01*
X154672208Y-103029285D02*
X154576970Y-102972142D01*
X154576970Y-102972142D02*
X154386494Y-102972142D01*
X154386494Y-102972142D02*
X154291256Y-103029285D01*
X154291256Y-103029285D02*
X154243637Y-103086428D01*
X154243637Y-103086428D02*
X154196018Y-103200714D01*
X154196018Y-103200714D02*
X154196018Y-103543571D01*
X154196018Y-103543571D02*
X154243637Y-103657857D01*
X154243637Y-103657857D02*
X154291256Y-103715000D01*
X154291256Y-103715000D02*
X154386494Y-103772142D01*
X154386494Y-103772142D02*
X154576970Y-103772142D01*
X154576970Y-103772142D02*
X154672208Y-103715000D01*
X153862684Y-102972142D02*
X153624589Y-103772142D01*
X153386494Y-102972142D02*
X153624589Y-103772142D01*
X153624589Y-103772142D02*
X153719827Y-104057857D01*
X153719827Y-104057857D02*
X153767446Y-104115000D01*
X153767446Y-104115000D02*
X153862684Y-104172142D01*
X152243636Y-103772142D02*
X152243636Y-102572142D01*
X152243636Y-102572142D02*
X151910303Y-103429285D01*
X151910303Y-103429285D02*
X151576970Y-102572142D01*
X151576970Y-102572142D02*
X151576970Y-103772142D01*
X150672208Y-103772142D02*
X150672208Y-103143571D01*
X150672208Y-103143571D02*
X150719827Y-103029285D01*
X150719827Y-103029285D02*
X150815065Y-102972142D01*
X150815065Y-102972142D02*
X151005541Y-102972142D01*
X151005541Y-102972142D02*
X151100779Y-103029285D01*
X150672208Y-103715000D02*
X150767446Y-103772142D01*
X150767446Y-103772142D02*
X151005541Y-103772142D01*
X151005541Y-103772142D02*
X151100779Y-103715000D01*
X151100779Y-103715000D02*
X151148398Y-103600714D01*
X151148398Y-103600714D02*
X151148398Y-103486428D01*
X151148398Y-103486428D02*
X151100779Y-103372142D01*
X151100779Y-103372142D02*
X151005541Y-103315000D01*
X151005541Y-103315000D02*
X150767446Y-103315000D01*
X150767446Y-103315000D02*
X150672208Y-103257857D01*
X149767446Y-103772142D02*
X149767446Y-102572142D01*
X149767446Y-103715000D02*
X149862684Y-103772142D01*
X149862684Y-103772142D02*
X150053160Y-103772142D01*
X150053160Y-103772142D02*
X150148398Y-103715000D01*
X150148398Y-103715000D02*
X150196017Y-103657857D01*
X150196017Y-103657857D02*
X150243636Y-103543571D01*
X150243636Y-103543571D02*
X150243636Y-103200714D01*
X150243636Y-103200714D02*
X150196017Y-103086428D01*
X150196017Y-103086428D02*
X150148398Y-103029285D01*
X150148398Y-103029285D02*
X150053160Y-102972142D01*
X150053160Y-102972142D02*
X149862684Y-102972142D01*
X149862684Y-102972142D02*
X149767446Y-103029285D01*
X148719827Y-103657857D02*
X148767446Y-103715000D01*
X148767446Y-103715000D02*
X148910303Y-103772142D01*
X148910303Y-103772142D02*
X149005541Y-103772142D01*
X149005541Y-103772142D02*
X149148398Y-103715000D01*
X149148398Y-103715000D02*
X149243636Y-103600714D01*
X149243636Y-103600714D02*
X149291255Y-103486428D01*
X149291255Y-103486428D02*
X149338874Y-103257857D01*
X149338874Y-103257857D02*
X149338874Y-103086428D01*
X149338874Y-103086428D02*
X149291255Y-102857857D01*
X149291255Y-102857857D02*
X149243636Y-102743571D01*
X149243636Y-102743571D02*
X149148398Y-102629285D01*
X149148398Y-102629285D02*
X149005541Y-102572142D01*
X149005541Y-102572142D02*
X148910303Y-102572142D01*
X148910303Y-102572142D02*
X148767446Y-102629285D01*
X148767446Y-102629285D02*
X148719827Y-102686428D01*
X147862684Y-103772142D02*
X147862684Y-103143571D01*
X147862684Y-103143571D02*
X147910303Y-103029285D01*
X147910303Y-103029285D02*
X148005541Y-102972142D01*
X148005541Y-102972142D02*
X148196017Y-102972142D01*
X148196017Y-102972142D02*
X148291255Y-103029285D01*
X147862684Y-103715000D02*
X147957922Y-103772142D01*
X147957922Y-103772142D02*
X148196017Y-103772142D01*
X148196017Y-103772142D02*
X148291255Y-103715000D01*
X148291255Y-103715000D02*
X148338874Y-103600714D01*
X148338874Y-103600714D02*
X148338874Y-103486428D01*
X148338874Y-103486428D02*
X148291255Y-103372142D01*
X148291255Y-103372142D02*
X148196017Y-103315000D01*
X148196017Y-103315000D02*
X147957922Y-103315000D01*
X147957922Y-103315000D02*
X147862684Y-103257857D01*
X147529350Y-102972142D02*
X147148398Y-102972142D01*
X147386493Y-102572142D02*
X147386493Y-103600714D01*
X147386493Y-103600714D02*
X147338874Y-103715000D01*
X147338874Y-103715000D02*
X147243636Y-103772142D01*
X147243636Y-103772142D02*
X147148398Y-103772142D01*
X174457925Y-105704142D02*
X174457925Y-104504142D01*
X174029354Y-105704142D02*
X174029354Y-105075571D01*
X174029354Y-105075571D02*
X174076973Y-104961285D01*
X174076973Y-104961285D02*
X174172211Y-104904142D01*
X174172211Y-104904142D02*
X174315068Y-104904142D01*
X174315068Y-104904142D02*
X174410306Y-104961285D01*
X174410306Y-104961285D02*
X174457925Y-105018428D01*
X173696020Y-104904142D02*
X173315068Y-104904142D01*
X173553163Y-104504142D02*
X173553163Y-105532714D01*
X173553163Y-105532714D02*
X173505544Y-105647000D01*
X173505544Y-105647000D02*
X173410306Y-105704142D01*
X173410306Y-105704142D02*
X173315068Y-105704142D01*
X173124591Y-104904142D02*
X172743639Y-104904142D01*
X172981734Y-104504142D02*
X172981734Y-105532714D01*
X172981734Y-105532714D02*
X172934115Y-105647000D01*
X172934115Y-105647000D02*
X172838877Y-105704142D01*
X172838877Y-105704142D02*
X172743639Y-105704142D01*
X172410305Y-104904142D02*
X172410305Y-106104142D01*
X172410305Y-104961285D02*
X172315067Y-104904142D01*
X172315067Y-104904142D02*
X172124591Y-104904142D01*
X172124591Y-104904142D02*
X172029353Y-104961285D01*
X172029353Y-104961285D02*
X171981734Y-105018428D01*
X171981734Y-105018428D02*
X171934115Y-105132714D01*
X171934115Y-105132714D02*
X171934115Y-105475571D01*
X171934115Y-105475571D02*
X171981734Y-105589857D01*
X171981734Y-105589857D02*
X172029353Y-105647000D01*
X172029353Y-105647000D02*
X172124591Y-105704142D01*
X172124591Y-105704142D02*
X172315067Y-105704142D01*
X172315067Y-105704142D02*
X172410305Y-105647000D01*
X171553162Y-105647000D02*
X171457924Y-105704142D01*
X171457924Y-105704142D02*
X171267448Y-105704142D01*
X171267448Y-105704142D02*
X171172210Y-105647000D01*
X171172210Y-105647000D02*
X171124591Y-105532714D01*
X171124591Y-105532714D02*
X171124591Y-105475571D01*
X171124591Y-105475571D02*
X171172210Y-105361285D01*
X171172210Y-105361285D02*
X171267448Y-105304142D01*
X171267448Y-105304142D02*
X171410305Y-105304142D01*
X171410305Y-105304142D02*
X171505543Y-105247000D01*
X171505543Y-105247000D02*
X171553162Y-105132714D01*
X171553162Y-105132714D02*
X171553162Y-105075571D01*
X171553162Y-105075571D02*
X171505543Y-104961285D01*
X171505543Y-104961285D02*
X171410305Y-104904142D01*
X171410305Y-104904142D02*
X171267448Y-104904142D01*
X171267448Y-104904142D02*
X171172210Y-104961285D01*
X170696019Y-105589857D02*
X170648400Y-105647000D01*
X170648400Y-105647000D02*
X170696019Y-105704142D01*
X170696019Y-105704142D02*
X170743638Y-105647000D01*
X170743638Y-105647000D02*
X170696019Y-105589857D01*
X170696019Y-105589857D02*
X170696019Y-105704142D01*
X170696019Y-104961285D02*
X170648400Y-105018428D01*
X170648400Y-105018428D02*
X170696019Y-105075571D01*
X170696019Y-105075571D02*
X170743638Y-105018428D01*
X170743638Y-105018428D02*
X170696019Y-104961285D01*
X170696019Y-104961285D02*
X170696019Y-105075571D01*
X169505544Y-104447000D02*
X170362686Y-105989857D01*
X168457925Y-104447000D02*
X169315067Y-105989857D01*
X167696020Y-104904142D02*
X167696020Y-105875571D01*
X167696020Y-105875571D02*
X167743639Y-105989857D01*
X167743639Y-105989857D02*
X167791258Y-106047000D01*
X167791258Y-106047000D02*
X167886496Y-106104142D01*
X167886496Y-106104142D02*
X168029353Y-106104142D01*
X168029353Y-106104142D02*
X168124591Y-106047000D01*
X167696020Y-105647000D02*
X167791258Y-105704142D01*
X167791258Y-105704142D02*
X167981734Y-105704142D01*
X167981734Y-105704142D02*
X168076972Y-105647000D01*
X168076972Y-105647000D02*
X168124591Y-105589857D01*
X168124591Y-105589857D02*
X168172210Y-105475571D01*
X168172210Y-105475571D02*
X168172210Y-105132714D01*
X168172210Y-105132714D02*
X168124591Y-105018428D01*
X168124591Y-105018428D02*
X168076972Y-104961285D01*
X168076972Y-104961285D02*
X167981734Y-104904142D01*
X167981734Y-104904142D02*
X167791258Y-104904142D01*
X167791258Y-104904142D02*
X167696020Y-104961285D01*
X167219829Y-105704142D02*
X167219829Y-104904142D01*
X167219829Y-104504142D02*
X167267448Y-104561285D01*
X167267448Y-104561285D02*
X167219829Y-104618428D01*
X167219829Y-104618428D02*
X167172210Y-104561285D01*
X167172210Y-104561285D02*
X167219829Y-104504142D01*
X167219829Y-104504142D02*
X167219829Y-104618428D01*
X166886496Y-104904142D02*
X166505544Y-104904142D01*
X166743639Y-104504142D02*
X166743639Y-105532714D01*
X166743639Y-105532714D02*
X166696020Y-105647000D01*
X166696020Y-105647000D02*
X166600782Y-105704142D01*
X166600782Y-105704142D02*
X166505544Y-105704142D01*
X166172210Y-105704142D02*
X166172210Y-104504142D01*
X165743639Y-105704142D02*
X165743639Y-105075571D01*
X165743639Y-105075571D02*
X165791258Y-104961285D01*
X165791258Y-104961285D02*
X165886496Y-104904142D01*
X165886496Y-104904142D02*
X166029353Y-104904142D01*
X166029353Y-104904142D02*
X166124591Y-104961285D01*
X166124591Y-104961285D02*
X166172210Y-105018428D01*
X164838877Y-104904142D02*
X164838877Y-105704142D01*
X165267448Y-104904142D02*
X165267448Y-105532714D01*
X165267448Y-105532714D02*
X165219829Y-105647000D01*
X165219829Y-105647000D02*
X165124591Y-105704142D01*
X165124591Y-105704142D02*
X164981734Y-105704142D01*
X164981734Y-105704142D02*
X164886496Y-105647000D01*
X164886496Y-105647000D02*
X164838877Y-105589857D01*
X164362686Y-105704142D02*
X164362686Y-104504142D01*
X164362686Y-104961285D02*
X164267448Y-104904142D01*
X164267448Y-104904142D02*
X164076972Y-104904142D01*
X164076972Y-104904142D02*
X163981734Y-104961285D01*
X163981734Y-104961285D02*
X163934115Y-105018428D01*
X163934115Y-105018428D02*
X163886496Y-105132714D01*
X163886496Y-105132714D02*
X163886496Y-105475571D01*
X163886496Y-105475571D02*
X163934115Y-105589857D01*
X163934115Y-105589857D02*
X163981734Y-105647000D01*
X163981734Y-105647000D02*
X164076972Y-105704142D01*
X164076972Y-105704142D02*
X164267448Y-105704142D01*
X164267448Y-105704142D02*
X164362686Y-105647000D01*
X163457924Y-105589857D02*
X163410305Y-105647000D01*
X163410305Y-105647000D02*
X163457924Y-105704142D01*
X163457924Y-105704142D02*
X163505543Y-105647000D01*
X163505543Y-105647000D02*
X163457924Y-105589857D01*
X163457924Y-105589857D02*
X163457924Y-105704142D01*
X162553163Y-105647000D02*
X162648401Y-105704142D01*
X162648401Y-105704142D02*
X162838877Y-105704142D01*
X162838877Y-105704142D02*
X162934115Y-105647000D01*
X162934115Y-105647000D02*
X162981734Y-105589857D01*
X162981734Y-105589857D02*
X163029353Y-105475571D01*
X163029353Y-105475571D02*
X163029353Y-105132714D01*
X163029353Y-105132714D02*
X162981734Y-105018428D01*
X162981734Y-105018428D02*
X162934115Y-104961285D01*
X162934115Y-104961285D02*
X162838877Y-104904142D01*
X162838877Y-104904142D02*
X162648401Y-104904142D01*
X162648401Y-104904142D02*
X162553163Y-104961285D01*
X161981734Y-105704142D02*
X162076972Y-105647000D01*
X162076972Y-105647000D02*
X162124591Y-105589857D01*
X162124591Y-105589857D02*
X162172210Y-105475571D01*
X162172210Y-105475571D02*
X162172210Y-105132714D01*
X162172210Y-105132714D02*
X162124591Y-105018428D01*
X162124591Y-105018428D02*
X162076972Y-104961285D01*
X162076972Y-104961285D02*
X161981734Y-104904142D01*
X161981734Y-104904142D02*
X161838877Y-104904142D01*
X161838877Y-104904142D02*
X161743639Y-104961285D01*
X161743639Y-104961285D02*
X161696020Y-105018428D01*
X161696020Y-105018428D02*
X161648401Y-105132714D01*
X161648401Y-105132714D02*
X161648401Y-105475571D01*
X161648401Y-105475571D02*
X161696020Y-105589857D01*
X161696020Y-105589857D02*
X161743639Y-105647000D01*
X161743639Y-105647000D02*
X161838877Y-105704142D01*
X161838877Y-105704142D02*
X161981734Y-105704142D01*
X161219829Y-105704142D02*
X161219829Y-104904142D01*
X161219829Y-105018428D02*
X161172210Y-104961285D01*
X161172210Y-104961285D02*
X161076972Y-104904142D01*
X161076972Y-104904142D02*
X160934115Y-104904142D01*
X160934115Y-104904142D02*
X160838877Y-104961285D01*
X160838877Y-104961285D02*
X160791258Y-105075571D01*
X160791258Y-105075571D02*
X160791258Y-105704142D01*
X160791258Y-105075571D02*
X160743639Y-104961285D01*
X160743639Y-104961285D02*
X160648401Y-104904142D01*
X160648401Y-104904142D02*
X160505544Y-104904142D01*
X160505544Y-104904142D02*
X160410305Y-104961285D01*
X160410305Y-104961285D02*
X160362686Y-105075571D01*
X160362686Y-105075571D02*
X160362686Y-105704142D01*
X159172211Y-104447000D02*
X160029353Y-105989857D01*
X158838877Y-105704142D02*
X158838877Y-104904142D01*
X158838877Y-105018428D02*
X158791258Y-104961285D01*
X158791258Y-104961285D02*
X158696020Y-104904142D01*
X158696020Y-104904142D02*
X158553163Y-104904142D01*
X158553163Y-104904142D02*
X158457925Y-104961285D01*
X158457925Y-104961285D02*
X158410306Y-105075571D01*
X158410306Y-105075571D02*
X158410306Y-105704142D01*
X158410306Y-105075571D02*
X158362687Y-104961285D01*
X158362687Y-104961285D02*
X158267449Y-104904142D01*
X158267449Y-104904142D02*
X158124592Y-104904142D01*
X158124592Y-104904142D02*
X158029353Y-104961285D01*
X158029353Y-104961285D02*
X157981734Y-105075571D01*
X157981734Y-105075571D02*
X157981734Y-105704142D01*
X157076973Y-105704142D02*
X157076973Y-105075571D01*
X157076973Y-105075571D02*
X157124592Y-104961285D01*
X157124592Y-104961285D02*
X157219830Y-104904142D01*
X157219830Y-104904142D02*
X157410306Y-104904142D01*
X157410306Y-104904142D02*
X157505544Y-104961285D01*
X157076973Y-105647000D02*
X157172211Y-105704142D01*
X157172211Y-105704142D02*
X157410306Y-105704142D01*
X157410306Y-105704142D02*
X157505544Y-105647000D01*
X157505544Y-105647000D02*
X157553163Y-105532714D01*
X157553163Y-105532714D02*
X157553163Y-105418428D01*
X157553163Y-105418428D02*
X157505544Y-105304142D01*
X157505544Y-105304142D02*
X157410306Y-105247000D01*
X157410306Y-105247000D02*
X157172211Y-105247000D01*
X157172211Y-105247000D02*
X157076973Y-105189857D01*
X156172211Y-105704142D02*
X156172211Y-104504142D01*
X156172211Y-105647000D02*
X156267449Y-105704142D01*
X156267449Y-105704142D02*
X156457925Y-105704142D01*
X156457925Y-105704142D02*
X156553163Y-105647000D01*
X156553163Y-105647000D02*
X156600782Y-105589857D01*
X156600782Y-105589857D02*
X156648401Y-105475571D01*
X156648401Y-105475571D02*
X156648401Y-105132714D01*
X156648401Y-105132714D02*
X156600782Y-105018428D01*
X156600782Y-105018428D02*
X156553163Y-104961285D01*
X156553163Y-104961285D02*
X156457925Y-104904142D01*
X156457925Y-104904142D02*
X156267449Y-104904142D01*
X156267449Y-104904142D02*
X156172211Y-104961285D01*
X155267449Y-105647000D02*
X155362687Y-105704142D01*
X155362687Y-105704142D02*
X155553163Y-105704142D01*
X155553163Y-105704142D02*
X155648401Y-105647000D01*
X155648401Y-105647000D02*
X155696020Y-105589857D01*
X155696020Y-105589857D02*
X155743639Y-105475571D01*
X155743639Y-105475571D02*
X155743639Y-105132714D01*
X155743639Y-105132714D02*
X155696020Y-105018428D01*
X155696020Y-105018428D02*
X155648401Y-104961285D01*
X155648401Y-104961285D02*
X155553163Y-104904142D01*
X155553163Y-104904142D02*
X155362687Y-104904142D01*
X155362687Y-104904142D02*
X155267449Y-104961285D01*
X154410306Y-105704142D02*
X154410306Y-105075571D01*
X154410306Y-105075571D02*
X154457925Y-104961285D01*
X154457925Y-104961285D02*
X154553163Y-104904142D01*
X154553163Y-104904142D02*
X154743639Y-104904142D01*
X154743639Y-104904142D02*
X154838877Y-104961285D01*
X154410306Y-105647000D02*
X154505544Y-105704142D01*
X154505544Y-105704142D02*
X154743639Y-105704142D01*
X154743639Y-105704142D02*
X154838877Y-105647000D01*
X154838877Y-105647000D02*
X154886496Y-105532714D01*
X154886496Y-105532714D02*
X154886496Y-105418428D01*
X154886496Y-105418428D02*
X154838877Y-105304142D01*
X154838877Y-105304142D02*
X154743639Y-105247000D01*
X154743639Y-105247000D02*
X154505544Y-105247000D01*
X154505544Y-105247000D02*
X154410306Y-105189857D01*
X154076972Y-104904142D02*
X153696020Y-104904142D01*
X153934115Y-104504142D02*
X153934115Y-105532714D01*
X153934115Y-105532714D02*
X153886496Y-105647000D01*
X153886496Y-105647000D02*
X153791258Y-105704142D01*
X153791258Y-105704142D02*
X153696020Y-105704142D01*
X153410305Y-105647000D02*
X153315067Y-105704142D01*
X153315067Y-105704142D02*
X153124591Y-105704142D01*
X153124591Y-105704142D02*
X153029353Y-105647000D01*
X153029353Y-105647000D02*
X152981734Y-105532714D01*
X152981734Y-105532714D02*
X152981734Y-105475571D01*
X152981734Y-105475571D02*
X153029353Y-105361285D01*
X153029353Y-105361285D02*
X153124591Y-105304142D01*
X153124591Y-105304142D02*
X153267448Y-105304142D01*
X153267448Y-105304142D02*
X153362686Y-105247000D01*
X153362686Y-105247000D02*
X153410305Y-105132714D01*
X153410305Y-105132714D02*
X153410305Y-105075571D01*
X153410305Y-105075571D02*
X153362686Y-104961285D01*
X153362686Y-104961285D02*
X153267448Y-104904142D01*
X153267448Y-104904142D02*
X153124591Y-104904142D01*
X153124591Y-104904142D02*
X153029353Y-104961285D01*
X152172210Y-105647000D02*
X152267448Y-105704142D01*
X152267448Y-105704142D02*
X152457924Y-105704142D01*
X152457924Y-105704142D02*
X152553162Y-105647000D01*
X152553162Y-105647000D02*
X152600781Y-105532714D01*
X152600781Y-105532714D02*
X152600781Y-105075571D01*
X152600781Y-105075571D02*
X152553162Y-104961285D01*
X152553162Y-104961285D02*
X152457924Y-104904142D01*
X152457924Y-104904142D02*
X152267448Y-104904142D01*
X152267448Y-104904142D02*
X152172210Y-104961285D01*
X152172210Y-104961285D02*
X152124591Y-105075571D01*
X152124591Y-105075571D02*
X152124591Y-105189857D01*
X152124591Y-105189857D02*
X152600781Y-105304142D01*
X150981734Y-104447000D02*
X151838876Y-105989857D01*
X150743638Y-105704142D02*
X150219829Y-104904142D01*
X150743638Y-104904142D02*
X150219829Y-105704142D01*
X149981733Y-104904142D02*
X149600781Y-104904142D01*
X149838876Y-104504142D02*
X149838876Y-105532714D01*
X149838876Y-105532714D02*
X149791257Y-105647000D01*
X149791257Y-105647000D02*
X149696019Y-105704142D01*
X149696019Y-105704142D02*
X149600781Y-105704142D01*
X149505543Y-105818428D02*
X148743638Y-105818428D01*
X148124590Y-105647000D02*
X148219828Y-105704142D01*
X148219828Y-105704142D02*
X148410304Y-105704142D01*
X148410304Y-105704142D02*
X148505542Y-105647000D01*
X148505542Y-105647000D02*
X148553161Y-105532714D01*
X148553161Y-105532714D02*
X148553161Y-105075571D01*
X148553161Y-105075571D02*
X148505542Y-104961285D01*
X148505542Y-104961285D02*
X148410304Y-104904142D01*
X148410304Y-104904142D02*
X148219828Y-104904142D01*
X148219828Y-104904142D02*
X148124590Y-104961285D01*
X148124590Y-104961285D02*
X148076971Y-105075571D01*
X148076971Y-105075571D02*
X148076971Y-105189857D01*
X148076971Y-105189857D02*
X148553161Y-105304142D01*
X147791256Y-104904142D02*
X147410304Y-104904142D01*
X147648399Y-104504142D02*
X147648399Y-105532714D01*
X147648399Y-105532714D02*
X147600780Y-105647000D01*
X147600780Y-105647000D02*
X147505542Y-105704142D01*
X147505542Y-105704142D02*
X147410304Y-105704142D01*
X147076970Y-105704142D02*
X147076970Y-104504142D01*
X146648399Y-105704142D02*
X146648399Y-105075571D01*
X146648399Y-105075571D02*
X146696018Y-104961285D01*
X146696018Y-104961285D02*
X146791256Y-104904142D01*
X146791256Y-104904142D02*
X146934113Y-104904142D01*
X146934113Y-104904142D02*
X147029351Y-104961285D01*
X147029351Y-104961285D02*
X147076970Y-105018428D01*
X145791256Y-105647000D02*
X145886494Y-105704142D01*
X145886494Y-105704142D02*
X146076970Y-105704142D01*
X146076970Y-105704142D02*
X146172208Y-105647000D01*
X146172208Y-105647000D02*
X146219827Y-105532714D01*
X146219827Y-105532714D02*
X146219827Y-105075571D01*
X146219827Y-105075571D02*
X146172208Y-104961285D01*
X146172208Y-104961285D02*
X146076970Y-104904142D01*
X146076970Y-104904142D02*
X145886494Y-104904142D01*
X145886494Y-104904142D02*
X145791256Y-104961285D01*
X145791256Y-104961285D02*
X145743637Y-105075571D01*
X145743637Y-105075571D02*
X145743637Y-105189857D01*
X145743637Y-105189857D02*
X146219827Y-105304142D01*
X145315065Y-105704142D02*
X145315065Y-104904142D01*
X145315065Y-105132714D02*
X145267446Y-105018428D01*
X145267446Y-105018428D02*
X145219827Y-104961285D01*
X145219827Y-104961285D02*
X145124589Y-104904142D01*
X145124589Y-104904142D02*
X145029351Y-104904142D01*
X144696017Y-104904142D02*
X144696017Y-105704142D01*
X144696017Y-105018428D02*
X144648398Y-104961285D01*
X144648398Y-104961285D02*
X144553160Y-104904142D01*
X144553160Y-104904142D02*
X144410303Y-104904142D01*
X144410303Y-104904142D02*
X144315065Y-104961285D01*
X144315065Y-104961285D02*
X144267446Y-105075571D01*
X144267446Y-105075571D02*
X144267446Y-105704142D01*
X143410303Y-105647000D02*
X143505541Y-105704142D01*
X143505541Y-105704142D02*
X143696017Y-105704142D01*
X143696017Y-105704142D02*
X143791255Y-105647000D01*
X143791255Y-105647000D02*
X143838874Y-105532714D01*
X143838874Y-105532714D02*
X143838874Y-105075571D01*
X143838874Y-105075571D02*
X143791255Y-104961285D01*
X143791255Y-104961285D02*
X143696017Y-104904142D01*
X143696017Y-104904142D02*
X143505541Y-104904142D01*
X143505541Y-104904142D02*
X143410303Y-104961285D01*
X143410303Y-104961285D02*
X143362684Y-105075571D01*
X143362684Y-105075571D02*
X143362684Y-105189857D01*
X143362684Y-105189857D02*
X143838874Y-105304142D01*
X143076969Y-104904142D02*
X142696017Y-104904142D01*
X142934112Y-104504142D02*
X142934112Y-105532714D01*
X142934112Y-105532714D02*
X142886493Y-105647000D01*
X142886493Y-105647000D02*
X142791255Y-105704142D01*
X142791255Y-105704142D02*
X142696017Y-105704142D01*
X167291257Y-107636142D02*
X167291257Y-106436142D01*
X166862686Y-107636142D02*
X166862686Y-107007571D01*
X166862686Y-107007571D02*
X166910305Y-106893285D01*
X166910305Y-106893285D02*
X167005543Y-106836142D01*
X167005543Y-106836142D02*
X167148400Y-106836142D01*
X167148400Y-106836142D02*
X167243638Y-106893285D01*
X167243638Y-106893285D02*
X167291257Y-106950428D01*
X166529352Y-106836142D02*
X166148400Y-106836142D01*
X166386495Y-106436142D02*
X166386495Y-107464714D01*
X166386495Y-107464714D02*
X166338876Y-107579000D01*
X166338876Y-107579000D02*
X166243638Y-107636142D01*
X166243638Y-107636142D02*
X166148400Y-107636142D01*
X165957923Y-106836142D02*
X165576971Y-106836142D01*
X165815066Y-106436142D02*
X165815066Y-107464714D01*
X165815066Y-107464714D02*
X165767447Y-107579000D01*
X165767447Y-107579000D02*
X165672209Y-107636142D01*
X165672209Y-107636142D02*
X165576971Y-107636142D01*
X165243637Y-106836142D02*
X165243637Y-108036142D01*
X165243637Y-106893285D02*
X165148399Y-106836142D01*
X165148399Y-106836142D02*
X164957923Y-106836142D01*
X164957923Y-106836142D02*
X164862685Y-106893285D01*
X164862685Y-106893285D02*
X164815066Y-106950428D01*
X164815066Y-106950428D02*
X164767447Y-107064714D01*
X164767447Y-107064714D02*
X164767447Y-107407571D01*
X164767447Y-107407571D02*
X164815066Y-107521857D01*
X164815066Y-107521857D02*
X164862685Y-107579000D01*
X164862685Y-107579000D02*
X164957923Y-107636142D01*
X164957923Y-107636142D02*
X165148399Y-107636142D01*
X165148399Y-107636142D02*
X165243637Y-107579000D01*
X164386494Y-107579000D02*
X164291256Y-107636142D01*
X164291256Y-107636142D02*
X164100780Y-107636142D01*
X164100780Y-107636142D02*
X164005542Y-107579000D01*
X164005542Y-107579000D02*
X163957923Y-107464714D01*
X163957923Y-107464714D02*
X163957923Y-107407571D01*
X163957923Y-107407571D02*
X164005542Y-107293285D01*
X164005542Y-107293285D02*
X164100780Y-107236142D01*
X164100780Y-107236142D02*
X164243637Y-107236142D01*
X164243637Y-107236142D02*
X164338875Y-107179000D01*
X164338875Y-107179000D02*
X164386494Y-107064714D01*
X164386494Y-107064714D02*
X164386494Y-107007571D01*
X164386494Y-107007571D02*
X164338875Y-106893285D01*
X164338875Y-106893285D02*
X164243637Y-106836142D01*
X164243637Y-106836142D02*
X164100780Y-106836142D01*
X164100780Y-106836142D02*
X164005542Y-106893285D01*
X163529351Y-107521857D02*
X163481732Y-107579000D01*
X163481732Y-107579000D02*
X163529351Y-107636142D01*
X163529351Y-107636142D02*
X163576970Y-107579000D01*
X163576970Y-107579000D02*
X163529351Y-107521857D01*
X163529351Y-107521857D02*
X163529351Y-107636142D01*
X163529351Y-106893285D02*
X163481732Y-106950428D01*
X163481732Y-106950428D02*
X163529351Y-107007571D01*
X163529351Y-107007571D02*
X163576970Y-106950428D01*
X163576970Y-106950428D02*
X163529351Y-106893285D01*
X163529351Y-106893285D02*
X163529351Y-107007571D01*
X162338876Y-106379000D02*
X163196018Y-107921857D01*
X161291257Y-106379000D02*
X162148399Y-107921857D01*
X161100780Y-106836142D02*
X160719828Y-106836142D01*
X160957923Y-106436142D02*
X160957923Y-107464714D01*
X160957923Y-107464714D02*
X160910304Y-107579000D01*
X160910304Y-107579000D02*
X160815066Y-107636142D01*
X160815066Y-107636142D02*
X160719828Y-107636142D01*
X160386494Y-107521857D02*
X160338875Y-107579000D01*
X160338875Y-107579000D02*
X160386494Y-107636142D01*
X160386494Y-107636142D02*
X160434113Y-107579000D01*
X160434113Y-107579000D02*
X160386494Y-107521857D01*
X160386494Y-107521857D02*
X160386494Y-107636142D01*
X159910304Y-107636142D02*
X159910304Y-106836142D01*
X159910304Y-106950428D02*
X159862685Y-106893285D01*
X159862685Y-106893285D02*
X159767447Y-106836142D01*
X159767447Y-106836142D02*
X159624590Y-106836142D01*
X159624590Y-106836142D02*
X159529352Y-106893285D01*
X159529352Y-106893285D02*
X159481733Y-107007571D01*
X159481733Y-107007571D02*
X159481733Y-107636142D01*
X159481733Y-107007571D02*
X159434114Y-106893285D01*
X159434114Y-106893285D02*
X159338876Y-106836142D01*
X159338876Y-106836142D02*
X159196019Y-106836142D01*
X159196019Y-106836142D02*
X159100780Y-106893285D01*
X159100780Y-106893285D02*
X159053161Y-107007571D01*
X159053161Y-107007571D02*
X159053161Y-107636142D01*
X158196019Y-107579000D02*
X158291257Y-107636142D01*
X158291257Y-107636142D02*
X158481733Y-107636142D01*
X158481733Y-107636142D02*
X158576971Y-107579000D01*
X158576971Y-107579000D02*
X158624590Y-107464714D01*
X158624590Y-107464714D02*
X158624590Y-107007571D01*
X158624590Y-107007571D02*
X158576971Y-106893285D01*
X158576971Y-106893285D02*
X158481733Y-106836142D01*
X158481733Y-106836142D02*
X158291257Y-106836142D01*
X158291257Y-106836142D02*
X158196019Y-106893285D01*
X158196019Y-106893285D02*
X158148400Y-107007571D01*
X158148400Y-107007571D02*
X158148400Y-107121857D01*
X158148400Y-107121857D02*
X158624590Y-107236142D01*
X157005543Y-106379000D02*
X157862685Y-107921857D01*
X156672209Y-107636142D02*
X156672209Y-106836142D01*
X156672209Y-106950428D02*
X156624590Y-106893285D01*
X156624590Y-106893285D02*
X156529352Y-106836142D01*
X156529352Y-106836142D02*
X156386495Y-106836142D01*
X156386495Y-106836142D02*
X156291257Y-106893285D01*
X156291257Y-106893285D02*
X156243638Y-107007571D01*
X156243638Y-107007571D02*
X156243638Y-107636142D01*
X156243638Y-107007571D02*
X156196019Y-106893285D01*
X156196019Y-106893285D02*
X156100781Y-106836142D01*
X156100781Y-106836142D02*
X155957924Y-106836142D01*
X155957924Y-106836142D02*
X155862685Y-106893285D01*
X155862685Y-106893285D02*
X155815066Y-107007571D01*
X155815066Y-107007571D02*
X155815066Y-107636142D01*
X154910305Y-107636142D02*
X154910305Y-107007571D01*
X154910305Y-107007571D02*
X154957924Y-106893285D01*
X154957924Y-106893285D02*
X155053162Y-106836142D01*
X155053162Y-106836142D02*
X155243638Y-106836142D01*
X155243638Y-106836142D02*
X155338876Y-106893285D01*
X154910305Y-107579000D02*
X155005543Y-107636142D01*
X155005543Y-107636142D02*
X155243638Y-107636142D01*
X155243638Y-107636142D02*
X155338876Y-107579000D01*
X155338876Y-107579000D02*
X155386495Y-107464714D01*
X155386495Y-107464714D02*
X155386495Y-107350428D01*
X155386495Y-107350428D02*
X155338876Y-107236142D01*
X155338876Y-107236142D02*
X155243638Y-107179000D01*
X155243638Y-107179000D02*
X155005543Y-107179000D01*
X155005543Y-107179000D02*
X154910305Y-107121857D01*
X154005543Y-107636142D02*
X154005543Y-106436142D01*
X154005543Y-107579000D02*
X154100781Y-107636142D01*
X154100781Y-107636142D02*
X154291257Y-107636142D01*
X154291257Y-107636142D02*
X154386495Y-107579000D01*
X154386495Y-107579000D02*
X154434114Y-107521857D01*
X154434114Y-107521857D02*
X154481733Y-107407571D01*
X154481733Y-107407571D02*
X154481733Y-107064714D01*
X154481733Y-107064714D02*
X154434114Y-106950428D01*
X154434114Y-106950428D02*
X154386495Y-106893285D01*
X154386495Y-106893285D02*
X154291257Y-106836142D01*
X154291257Y-106836142D02*
X154100781Y-106836142D01*
X154100781Y-106836142D02*
X154005543Y-106893285D01*
X153100781Y-107579000D02*
X153196019Y-107636142D01*
X153196019Y-107636142D02*
X153386495Y-107636142D01*
X153386495Y-107636142D02*
X153481733Y-107579000D01*
X153481733Y-107579000D02*
X153529352Y-107521857D01*
X153529352Y-107521857D02*
X153576971Y-107407571D01*
X153576971Y-107407571D02*
X153576971Y-107064714D01*
X153576971Y-107064714D02*
X153529352Y-106950428D01*
X153529352Y-106950428D02*
X153481733Y-106893285D01*
X153481733Y-106893285D02*
X153386495Y-106836142D01*
X153386495Y-106836142D02*
X153196019Y-106836142D01*
X153196019Y-106836142D02*
X153100781Y-106893285D01*
X152243638Y-107636142D02*
X152243638Y-107007571D01*
X152243638Y-107007571D02*
X152291257Y-106893285D01*
X152291257Y-106893285D02*
X152386495Y-106836142D01*
X152386495Y-106836142D02*
X152576971Y-106836142D01*
X152576971Y-106836142D02*
X152672209Y-106893285D01*
X152243638Y-107579000D02*
X152338876Y-107636142D01*
X152338876Y-107636142D02*
X152576971Y-107636142D01*
X152576971Y-107636142D02*
X152672209Y-107579000D01*
X152672209Y-107579000D02*
X152719828Y-107464714D01*
X152719828Y-107464714D02*
X152719828Y-107350428D01*
X152719828Y-107350428D02*
X152672209Y-107236142D01*
X152672209Y-107236142D02*
X152576971Y-107179000D01*
X152576971Y-107179000D02*
X152338876Y-107179000D01*
X152338876Y-107179000D02*
X152243638Y-107121857D01*
X151910304Y-106836142D02*
X151529352Y-106836142D01*
X151767447Y-106436142D02*
X151767447Y-107464714D01*
X151767447Y-107464714D02*
X151719828Y-107579000D01*
X151719828Y-107579000D02*
X151624590Y-107636142D01*
X151624590Y-107636142D02*
X151529352Y-107636142D01*
X151243637Y-107579000D02*
X151148399Y-107636142D01*
X151148399Y-107636142D02*
X150957923Y-107636142D01*
X150957923Y-107636142D02*
X150862685Y-107579000D01*
X150862685Y-107579000D02*
X150815066Y-107464714D01*
X150815066Y-107464714D02*
X150815066Y-107407571D01*
X150815066Y-107407571D02*
X150862685Y-107293285D01*
X150862685Y-107293285D02*
X150957923Y-107236142D01*
X150957923Y-107236142D02*
X151100780Y-107236142D01*
X151100780Y-107236142D02*
X151196018Y-107179000D01*
X151196018Y-107179000D02*
X151243637Y-107064714D01*
X151243637Y-107064714D02*
X151243637Y-107007571D01*
X151243637Y-107007571D02*
X151196018Y-106893285D01*
X151196018Y-106893285D02*
X151100780Y-106836142D01*
X151100780Y-106836142D02*
X150957923Y-106836142D01*
X150957923Y-106836142D02*
X150862685Y-106893285D01*
X150005542Y-107579000D02*
X150100780Y-107636142D01*
X150100780Y-107636142D02*
X150291256Y-107636142D01*
X150291256Y-107636142D02*
X150386494Y-107579000D01*
X150386494Y-107579000D02*
X150434113Y-107464714D01*
X150434113Y-107464714D02*
X150434113Y-107007571D01*
X150434113Y-107007571D02*
X150386494Y-106893285D01*
X150386494Y-106893285D02*
X150291256Y-106836142D01*
X150291256Y-106836142D02*
X150100780Y-106836142D01*
X150100780Y-106836142D02*
X150005542Y-106893285D01*
X150005542Y-106893285D02*
X149957923Y-107007571D01*
X149957923Y-107007571D02*
X149957923Y-107121857D01*
X149957923Y-107121857D02*
X150434113Y-107236142D01*
X172886495Y-109568142D02*
X172886495Y-108368142D01*
X172457924Y-109568142D02*
X172457924Y-108939571D01*
X172457924Y-108939571D02*
X172505543Y-108825285D01*
X172505543Y-108825285D02*
X172600781Y-108768142D01*
X172600781Y-108768142D02*
X172743638Y-108768142D01*
X172743638Y-108768142D02*
X172838876Y-108825285D01*
X172838876Y-108825285D02*
X172886495Y-108882428D01*
X172124590Y-108768142D02*
X171743638Y-108768142D01*
X171981733Y-108368142D02*
X171981733Y-109396714D01*
X171981733Y-109396714D02*
X171934114Y-109511000D01*
X171934114Y-109511000D02*
X171838876Y-109568142D01*
X171838876Y-109568142D02*
X171743638Y-109568142D01*
X171553161Y-108768142D02*
X171172209Y-108768142D01*
X171410304Y-108368142D02*
X171410304Y-109396714D01*
X171410304Y-109396714D02*
X171362685Y-109511000D01*
X171362685Y-109511000D02*
X171267447Y-109568142D01*
X171267447Y-109568142D02*
X171172209Y-109568142D01*
X170838875Y-108768142D02*
X170838875Y-109968142D01*
X170838875Y-108825285D02*
X170743637Y-108768142D01*
X170743637Y-108768142D02*
X170553161Y-108768142D01*
X170553161Y-108768142D02*
X170457923Y-108825285D01*
X170457923Y-108825285D02*
X170410304Y-108882428D01*
X170410304Y-108882428D02*
X170362685Y-108996714D01*
X170362685Y-108996714D02*
X170362685Y-109339571D01*
X170362685Y-109339571D02*
X170410304Y-109453857D01*
X170410304Y-109453857D02*
X170457923Y-109511000D01*
X170457923Y-109511000D02*
X170553161Y-109568142D01*
X170553161Y-109568142D02*
X170743637Y-109568142D01*
X170743637Y-109568142D02*
X170838875Y-109511000D01*
X169981732Y-109511000D02*
X169886494Y-109568142D01*
X169886494Y-109568142D02*
X169696018Y-109568142D01*
X169696018Y-109568142D02*
X169600780Y-109511000D01*
X169600780Y-109511000D02*
X169553161Y-109396714D01*
X169553161Y-109396714D02*
X169553161Y-109339571D01*
X169553161Y-109339571D02*
X169600780Y-109225285D01*
X169600780Y-109225285D02*
X169696018Y-109168142D01*
X169696018Y-109168142D02*
X169838875Y-109168142D01*
X169838875Y-109168142D02*
X169934113Y-109111000D01*
X169934113Y-109111000D02*
X169981732Y-108996714D01*
X169981732Y-108996714D02*
X169981732Y-108939571D01*
X169981732Y-108939571D02*
X169934113Y-108825285D01*
X169934113Y-108825285D02*
X169838875Y-108768142D01*
X169838875Y-108768142D02*
X169696018Y-108768142D01*
X169696018Y-108768142D02*
X169600780Y-108825285D01*
X169124589Y-109453857D02*
X169076970Y-109511000D01*
X169076970Y-109511000D02*
X169124589Y-109568142D01*
X169124589Y-109568142D02*
X169172208Y-109511000D01*
X169172208Y-109511000D02*
X169124589Y-109453857D01*
X169124589Y-109453857D02*
X169124589Y-109568142D01*
X169124589Y-108825285D02*
X169076970Y-108882428D01*
X169076970Y-108882428D02*
X169124589Y-108939571D01*
X169124589Y-108939571D02*
X169172208Y-108882428D01*
X169172208Y-108882428D02*
X169124589Y-108825285D01*
X169124589Y-108825285D02*
X169124589Y-108939571D01*
X167934114Y-108311000D02*
X168791256Y-109853857D01*
X166886495Y-108311000D02*
X167743637Y-109853857D01*
X166648399Y-108768142D02*
X166457923Y-109568142D01*
X166457923Y-109568142D02*
X166267447Y-108996714D01*
X166267447Y-108996714D02*
X166076971Y-109568142D01*
X166076971Y-109568142D02*
X165886495Y-108768142D01*
X165600780Y-108768142D02*
X165410304Y-109568142D01*
X165410304Y-109568142D02*
X165219828Y-108996714D01*
X165219828Y-108996714D02*
X165029352Y-109568142D01*
X165029352Y-109568142D02*
X164838876Y-108768142D01*
X164553161Y-108768142D02*
X164362685Y-109568142D01*
X164362685Y-109568142D02*
X164172209Y-108996714D01*
X164172209Y-108996714D02*
X163981733Y-109568142D01*
X163981733Y-109568142D02*
X163791257Y-108768142D01*
X163410304Y-109453857D02*
X163362685Y-109511000D01*
X163362685Y-109511000D02*
X163410304Y-109568142D01*
X163410304Y-109568142D02*
X163457923Y-109511000D01*
X163457923Y-109511000D02*
X163410304Y-109453857D01*
X163410304Y-109453857D02*
X163410304Y-109568142D01*
X163029352Y-108768142D02*
X162791257Y-109568142D01*
X162553162Y-108768142D02*
X162791257Y-109568142D01*
X162791257Y-109568142D02*
X162886495Y-109853857D01*
X162886495Y-109853857D02*
X162934114Y-109911000D01*
X162934114Y-109911000D02*
X163029352Y-109968142D01*
X162029352Y-109568142D02*
X162124590Y-109511000D01*
X162124590Y-109511000D02*
X162172209Y-109453857D01*
X162172209Y-109453857D02*
X162219828Y-109339571D01*
X162219828Y-109339571D02*
X162219828Y-108996714D01*
X162219828Y-108996714D02*
X162172209Y-108882428D01*
X162172209Y-108882428D02*
X162124590Y-108825285D01*
X162124590Y-108825285D02*
X162029352Y-108768142D01*
X162029352Y-108768142D02*
X161886495Y-108768142D01*
X161886495Y-108768142D02*
X161791257Y-108825285D01*
X161791257Y-108825285D02*
X161743638Y-108882428D01*
X161743638Y-108882428D02*
X161696019Y-108996714D01*
X161696019Y-108996714D02*
X161696019Y-109339571D01*
X161696019Y-109339571D02*
X161743638Y-109453857D01*
X161743638Y-109453857D02*
X161791257Y-109511000D01*
X161791257Y-109511000D02*
X161886495Y-109568142D01*
X161886495Y-109568142D02*
X162029352Y-109568142D01*
X160838876Y-108768142D02*
X160838876Y-109568142D01*
X161267447Y-108768142D02*
X161267447Y-109396714D01*
X161267447Y-109396714D02*
X161219828Y-109511000D01*
X161219828Y-109511000D02*
X161124590Y-109568142D01*
X161124590Y-109568142D02*
X160981733Y-109568142D01*
X160981733Y-109568142D02*
X160886495Y-109511000D01*
X160886495Y-109511000D02*
X160838876Y-109453857D01*
X160505542Y-108768142D02*
X160124590Y-108768142D01*
X160362685Y-108368142D02*
X160362685Y-109396714D01*
X160362685Y-109396714D02*
X160315066Y-109511000D01*
X160315066Y-109511000D02*
X160219828Y-109568142D01*
X160219828Y-109568142D02*
X160124590Y-109568142D01*
X159362685Y-108768142D02*
X159362685Y-109568142D01*
X159791256Y-108768142D02*
X159791256Y-109396714D01*
X159791256Y-109396714D02*
X159743637Y-109511000D01*
X159743637Y-109511000D02*
X159648399Y-109568142D01*
X159648399Y-109568142D02*
X159505542Y-109568142D01*
X159505542Y-109568142D02*
X159410304Y-109511000D01*
X159410304Y-109511000D02*
X159362685Y-109453857D01*
X158886494Y-109568142D02*
X158886494Y-108368142D01*
X158886494Y-108825285D02*
X158791256Y-108768142D01*
X158791256Y-108768142D02*
X158600780Y-108768142D01*
X158600780Y-108768142D02*
X158505542Y-108825285D01*
X158505542Y-108825285D02*
X158457923Y-108882428D01*
X158457923Y-108882428D02*
X158410304Y-108996714D01*
X158410304Y-108996714D02*
X158410304Y-109339571D01*
X158410304Y-109339571D02*
X158457923Y-109453857D01*
X158457923Y-109453857D02*
X158505542Y-109511000D01*
X158505542Y-109511000D02*
X158600780Y-109568142D01*
X158600780Y-109568142D02*
X158791256Y-109568142D01*
X158791256Y-109568142D02*
X158886494Y-109511000D01*
X157600780Y-109511000D02*
X157696018Y-109568142D01*
X157696018Y-109568142D02*
X157886494Y-109568142D01*
X157886494Y-109568142D02*
X157981732Y-109511000D01*
X157981732Y-109511000D02*
X158029351Y-109396714D01*
X158029351Y-109396714D02*
X158029351Y-108939571D01*
X158029351Y-108939571D02*
X157981732Y-108825285D01*
X157981732Y-108825285D02*
X157886494Y-108768142D01*
X157886494Y-108768142D02*
X157696018Y-108768142D01*
X157696018Y-108768142D02*
X157600780Y-108825285D01*
X157600780Y-108825285D02*
X157553161Y-108939571D01*
X157553161Y-108939571D02*
X157553161Y-109053857D01*
X157553161Y-109053857D02*
X158029351Y-109168142D01*
X157124589Y-109453857D02*
X157076970Y-109511000D01*
X157076970Y-109511000D02*
X157124589Y-109568142D01*
X157124589Y-109568142D02*
X157172208Y-109511000D01*
X157172208Y-109511000D02*
X157124589Y-109453857D01*
X157124589Y-109453857D02*
X157124589Y-109568142D01*
X156219828Y-109511000D02*
X156315066Y-109568142D01*
X156315066Y-109568142D02*
X156505542Y-109568142D01*
X156505542Y-109568142D02*
X156600780Y-109511000D01*
X156600780Y-109511000D02*
X156648399Y-109453857D01*
X156648399Y-109453857D02*
X156696018Y-109339571D01*
X156696018Y-109339571D02*
X156696018Y-108996714D01*
X156696018Y-108996714D02*
X156648399Y-108882428D01*
X156648399Y-108882428D02*
X156600780Y-108825285D01*
X156600780Y-108825285D02*
X156505542Y-108768142D01*
X156505542Y-108768142D02*
X156315066Y-108768142D01*
X156315066Y-108768142D02*
X156219828Y-108825285D01*
X155648399Y-109568142D02*
X155743637Y-109511000D01*
X155743637Y-109511000D02*
X155791256Y-109453857D01*
X155791256Y-109453857D02*
X155838875Y-109339571D01*
X155838875Y-109339571D02*
X155838875Y-108996714D01*
X155838875Y-108996714D02*
X155791256Y-108882428D01*
X155791256Y-108882428D02*
X155743637Y-108825285D01*
X155743637Y-108825285D02*
X155648399Y-108768142D01*
X155648399Y-108768142D02*
X155505542Y-108768142D01*
X155505542Y-108768142D02*
X155410304Y-108825285D01*
X155410304Y-108825285D02*
X155362685Y-108882428D01*
X155362685Y-108882428D02*
X155315066Y-108996714D01*
X155315066Y-108996714D02*
X155315066Y-109339571D01*
X155315066Y-109339571D02*
X155362685Y-109453857D01*
X155362685Y-109453857D02*
X155410304Y-109511000D01*
X155410304Y-109511000D02*
X155505542Y-109568142D01*
X155505542Y-109568142D02*
X155648399Y-109568142D01*
X154886494Y-109568142D02*
X154886494Y-108768142D01*
X154886494Y-108882428D02*
X154838875Y-108825285D01*
X154838875Y-108825285D02*
X154743637Y-108768142D01*
X154743637Y-108768142D02*
X154600780Y-108768142D01*
X154600780Y-108768142D02*
X154505542Y-108825285D01*
X154505542Y-108825285D02*
X154457923Y-108939571D01*
X154457923Y-108939571D02*
X154457923Y-109568142D01*
X154457923Y-108939571D02*
X154410304Y-108825285D01*
X154410304Y-108825285D02*
X154315066Y-108768142D01*
X154315066Y-108768142D02*
X154172209Y-108768142D01*
X154172209Y-108768142D02*
X154076970Y-108825285D01*
X154076970Y-108825285D02*
X154029351Y-108939571D01*
X154029351Y-108939571D02*
X154029351Y-109568142D01*
X152838876Y-108311000D02*
X153696018Y-109853857D01*
X151886495Y-108996714D02*
X151934114Y-108939571D01*
X151934114Y-108939571D02*
X152029352Y-108882428D01*
X152029352Y-108882428D02*
X152124590Y-108882428D01*
X152124590Y-108882428D02*
X152219828Y-108939571D01*
X152219828Y-108939571D02*
X152267447Y-108996714D01*
X152267447Y-108996714D02*
X152315066Y-109111000D01*
X152315066Y-109111000D02*
X152315066Y-109225285D01*
X152315066Y-109225285D02*
X152267447Y-109339571D01*
X152267447Y-109339571D02*
X152219828Y-109396714D01*
X152219828Y-109396714D02*
X152124590Y-109453857D01*
X152124590Y-109453857D02*
X152029352Y-109453857D01*
X152029352Y-109453857D02*
X151934114Y-109396714D01*
X151934114Y-109396714D02*
X151886495Y-109339571D01*
X151886495Y-108882428D02*
X151886495Y-109339571D01*
X151886495Y-109339571D02*
X151838876Y-109396714D01*
X151838876Y-109396714D02*
X151791257Y-109396714D01*
X151791257Y-109396714D02*
X151696018Y-109339571D01*
X151696018Y-109339571D02*
X151648399Y-109225285D01*
X151648399Y-109225285D02*
X151648399Y-108939571D01*
X151648399Y-108939571D02*
X151743638Y-108768142D01*
X151743638Y-108768142D02*
X151886495Y-108653857D01*
X151886495Y-108653857D02*
X152076971Y-108596714D01*
X152076971Y-108596714D02*
X152267447Y-108653857D01*
X152267447Y-108653857D02*
X152410304Y-108768142D01*
X152410304Y-108768142D02*
X152505542Y-108939571D01*
X152505542Y-108939571D02*
X152553161Y-109168142D01*
X152553161Y-109168142D02*
X152505542Y-109396714D01*
X152505542Y-109396714D02*
X152410304Y-109568142D01*
X152410304Y-109568142D02*
X152267447Y-109682428D01*
X152267447Y-109682428D02*
X152076971Y-109739571D01*
X152076971Y-109739571D02*
X151886495Y-109682428D01*
X151886495Y-109682428D02*
X151743638Y-109568142D01*
X151219828Y-109568142D02*
X151219828Y-108368142D01*
X151219828Y-108368142D02*
X150886495Y-109225285D01*
X150886495Y-109225285D02*
X150553162Y-108368142D01*
X150553162Y-108368142D02*
X150553162Y-109568142D01*
X149648400Y-109568142D02*
X149648400Y-108939571D01*
X149648400Y-108939571D02*
X149696019Y-108825285D01*
X149696019Y-108825285D02*
X149791257Y-108768142D01*
X149791257Y-108768142D02*
X149981733Y-108768142D01*
X149981733Y-108768142D02*
X150076971Y-108825285D01*
X149648400Y-109511000D02*
X149743638Y-109568142D01*
X149743638Y-109568142D02*
X149981733Y-109568142D01*
X149981733Y-109568142D02*
X150076971Y-109511000D01*
X150076971Y-109511000D02*
X150124590Y-109396714D01*
X150124590Y-109396714D02*
X150124590Y-109282428D01*
X150124590Y-109282428D02*
X150076971Y-109168142D01*
X150076971Y-109168142D02*
X149981733Y-109111000D01*
X149981733Y-109111000D02*
X149743638Y-109111000D01*
X149743638Y-109111000D02*
X149648400Y-109053857D01*
X148743638Y-109568142D02*
X148743638Y-108368142D01*
X148743638Y-109511000D02*
X148838876Y-109568142D01*
X148838876Y-109568142D02*
X149029352Y-109568142D01*
X149029352Y-109568142D02*
X149124590Y-109511000D01*
X149124590Y-109511000D02*
X149172209Y-109453857D01*
X149172209Y-109453857D02*
X149219828Y-109339571D01*
X149219828Y-109339571D02*
X149219828Y-108996714D01*
X149219828Y-108996714D02*
X149172209Y-108882428D01*
X149172209Y-108882428D02*
X149124590Y-108825285D01*
X149124590Y-108825285D02*
X149029352Y-108768142D01*
X149029352Y-108768142D02*
X148838876Y-108768142D01*
X148838876Y-108768142D02*
X148743638Y-108825285D01*
X147696019Y-109453857D02*
X147743638Y-109511000D01*
X147743638Y-109511000D02*
X147886495Y-109568142D01*
X147886495Y-109568142D02*
X147981733Y-109568142D01*
X147981733Y-109568142D02*
X148124590Y-109511000D01*
X148124590Y-109511000D02*
X148219828Y-109396714D01*
X148219828Y-109396714D02*
X148267447Y-109282428D01*
X148267447Y-109282428D02*
X148315066Y-109053857D01*
X148315066Y-109053857D02*
X148315066Y-108882428D01*
X148315066Y-108882428D02*
X148267447Y-108653857D01*
X148267447Y-108653857D02*
X148219828Y-108539571D01*
X148219828Y-108539571D02*
X148124590Y-108425285D01*
X148124590Y-108425285D02*
X147981733Y-108368142D01*
X147981733Y-108368142D02*
X147886495Y-108368142D01*
X147886495Y-108368142D02*
X147743638Y-108425285D01*
X147743638Y-108425285D02*
X147696019Y-108482428D01*
X146838876Y-109568142D02*
X146838876Y-108939571D01*
X146838876Y-108939571D02*
X146886495Y-108825285D01*
X146886495Y-108825285D02*
X146981733Y-108768142D01*
X146981733Y-108768142D02*
X147172209Y-108768142D01*
X147172209Y-108768142D02*
X147267447Y-108825285D01*
X146838876Y-109511000D02*
X146934114Y-109568142D01*
X146934114Y-109568142D02*
X147172209Y-109568142D01*
X147172209Y-109568142D02*
X147267447Y-109511000D01*
X147267447Y-109511000D02*
X147315066Y-109396714D01*
X147315066Y-109396714D02*
X147315066Y-109282428D01*
X147315066Y-109282428D02*
X147267447Y-109168142D01*
X147267447Y-109168142D02*
X147172209Y-109111000D01*
X147172209Y-109111000D02*
X146934114Y-109111000D01*
X146934114Y-109111000D02*
X146838876Y-109053857D01*
X146505542Y-108768142D02*
X146124590Y-108768142D01*
X146362685Y-108368142D02*
X146362685Y-109396714D01*
X146362685Y-109396714D02*
X146315066Y-109511000D01*
X146315066Y-109511000D02*
X146219828Y-109568142D01*
X146219828Y-109568142D02*
X146124590Y-109568142D01*
X145838875Y-109511000D02*
X145696018Y-109568142D01*
X145696018Y-109568142D02*
X145457923Y-109568142D01*
X145457923Y-109568142D02*
X145362685Y-109511000D01*
X145362685Y-109511000D02*
X145315066Y-109453857D01*
X145315066Y-109453857D02*
X145267447Y-109339571D01*
X145267447Y-109339571D02*
X145267447Y-109225285D01*
X145267447Y-109225285D02*
X145315066Y-109111000D01*
X145315066Y-109111000D02*
X145362685Y-109053857D01*
X145362685Y-109053857D02*
X145457923Y-108996714D01*
X145457923Y-108996714D02*
X145648399Y-108939571D01*
X145648399Y-108939571D02*
X145743637Y-108882428D01*
X145743637Y-108882428D02*
X145791256Y-108825285D01*
X145791256Y-108825285D02*
X145838875Y-108711000D01*
X145838875Y-108711000D02*
X145838875Y-108596714D01*
X145838875Y-108596714D02*
X145791256Y-108482428D01*
X145791256Y-108482428D02*
X145743637Y-108425285D01*
X145743637Y-108425285D02*
X145648399Y-108368142D01*
X145648399Y-108368142D02*
X145410304Y-108368142D01*
X145410304Y-108368142D02*
X145267447Y-108425285D01*
X144838875Y-108939571D02*
X144505542Y-108939571D01*
X144362685Y-109568142D02*
X144838875Y-109568142D01*
X144838875Y-109568142D02*
X144838875Y-108368142D01*
X144838875Y-108368142D02*
X144362685Y-108368142D01*
M02*
