%TF.GenerationSoftware,KiCad,Pcbnew,7.0.11*%
%TF.CreationDate,2024-10-11T23:56:48+03:00*%
%TF.ProjectId,ISA8_Ethernet,49534138-5f45-4746-9865-726e65742e6b,1.0*%
%TF.SameCoordinates,Original*%
%TF.FileFunction,Soldermask,Bot*%
%TF.FilePolarity,Negative*%
%FSLAX46Y46*%
G04 Gerber Fmt 4.6, Leading zero omitted, Abs format (unit mm)*
G04 Created by KiCad (PCBNEW 7.0.11) date 2024-10-11 23:56:48*
%MOMM*%
%LPD*%
G01*
G04 APERTURE LIST*
G04 Aperture macros list*
%AMRoundRect*
0 Rectangle with rounded corners*
0 $1 Rounding radius*
0 $2 $3 $4 $5 $6 $7 $8 $9 X,Y pos of 4 corners*
0 Add a 4 corners polygon primitive as box body*
4,1,4,$2,$3,$4,$5,$6,$7,$8,$9,$2,$3,0*
0 Add four circle primitives for the rounded corners*
1,1,$1+$1,$2,$3*
1,1,$1+$1,$4,$5*
1,1,$1+$1,$6,$7*
1,1,$1+$1,$8,$9*
0 Add four rect primitives between the rounded corners*
20,1,$1+$1,$2,$3,$4,$5,0*
20,1,$1+$1,$4,$5,$6,$7,0*
20,1,$1+$1,$6,$7,$8,$9,0*
20,1,$1+$1,$8,$9,$2,$3,0*%
G04 Aperture macros list end*
%ADD10C,3.250000*%
%ADD11C,2.600000*%
%ADD12C,1.890000*%
%ADD13R,1.900000X1.900000*%
%ADD14C,1.900000*%
%ADD15C,6.400000*%
%ADD16C,1.397000*%
%ADD17R,1.397000X1.397000*%
%ADD18C,1.600000*%
%ADD19O,1.600000X1.600000*%
%ADD20RoundRect,0.444500X-0.444500X-3.619500X0.444500X-3.619500X0.444500X3.619500X-0.444500X3.619500X0*%
%ADD21R,1.600000X1.600000*%
%ADD22R,1.700000X1.700000*%
%ADD23O,1.700000X1.700000*%
G04 APERTURE END LIST*
D10*
%TO.C,J1*%
X195570000Y-100330000D03*
X195570000Y-88900000D03*
D11*
X192520000Y-102390000D03*
X192520000Y-86840000D03*
D12*
X198950000Y-88290000D03*
X200470000Y-90830000D03*
X198950000Y-98400000D03*
X200470000Y-100940000D03*
D13*
X189230000Y-99060000D03*
D14*
X186690000Y-97790000D03*
X189230000Y-96520000D03*
X186690000Y-95250000D03*
X189230000Y-93980000D03*
X186690000Y-92710000D03*
X189230000Y-91440000D03*
X186690000Y-90170000D03*
%TD*%
D15*
%TO.C,HOLE1*%
X201041000Y-66040000D03*
%TD*%
%TO.C,HOLE2*%
X201041000Y-122555000D03*
%TD*%
D16*
%TO.C,Y1*%
X180200000Y-73040940D03*
X180200000Y-68159060D03*
%TD*%
D17*
%TO.C,U2*%
X105460000Y-74400000D03*
D16*
X105460000Y-76940000D03*
X105460000Y-79480000D03*
X105460000Y-82020000D03*
X105460000Y-84560000D03*
X105460000Y-87100000D03*
X105460000Y-89640000D03*
X105460000Y-92180000D03*
X105460000Y-94720000D03*
X105460000Y-97260000D03*
X105460000Y-99800000D03*
X105460000Y-102340000D03*
X105460000Y-104880000D03*
X105460000Y-107420000D03*
X105460000Y-109960000D03*
X105460000Y-112500000D03*
X120700000Y-112500000D03*
X120700000Y-109960000D03*
X120700000Y-107420000D03*
X120700000Y-104880000D03*
X120700000Y-102340000D03*
X120700000Y-99800000D03*
X120700000Y-97260000D03*
X120700000Y-94720000D03*
X120700000Y-92180000D03*
X120700000Y-89640000D03*
X120700000Y-87100000D03*
X120700000Y-84560000D03*
X120700000Y-82020000D03*
X120700000Y-79480000D03*
X120700000Y-76940000D03*
X120700000Y-74400000D03*
%TD*%
D18*
%TO.C,C5*%
X160000000Y-89300000D03*
X165000000Y-89300000D03*
%TD*%
%TO.C,C8*%
X124600000Y-90600000D03*
X129600000Y-90600000D03*
%TD*%
%TO.C,R6*%
X125020000Y-106100000D03*
D19*
X135180000Y-106100000D03*
%TD*%
D18*
%TO.C,R7*%
X184900000Y-75380000D03*
D19*
X184900000Y-65220000D03*
%TD*%
D18*
%TO.C,C7*%
X120800000Y-71400000D03*
X115800000Y-71400000D03*
%TD*%
%TO.C,R1*%
X194580000Y-78600000D03*
D19*
X184420000Y-78600000D03*
%TD*%
D18*
%TO.C,C3*%
X182600000Y-95100000D03*
X182600000Y-90100000D03*
%TD*%
%TO.C,R3*%
X200480000Y-83400000D03*
D19*
X190320000Y-83400000D03*
%TD*%
D18*
%TO.C,C1*%
X193300000Y-72100000D03*
X188300000Y-72100000D03*
%TD*%
%TO.C,C2*%
X193400000Y-68500000D03*
X188400000Y-68500000D03*
%TD*%
D20*
%TO.C,BUS1*%
X180340000Y-130492500D03*
X177800000Y-130492500D03*
X175260000Y-130492500D03*
X172720000Y-130492500D03*
X170180000Y-130492500D03*
X167640000Y-130492500D03*
X165100000Y-130492500D03*
X162560000Y-130492500D03*
X160020000Y-130492500D03*
X157480000Y-130492500D03*
X154940000Y-130492500D03*
X152400000Y-130492500D03*
X149860000Y-130492500D03*
X147320000Y-130492500D03*
X144780000Y-130492500D03*
X142240000Y-130492500D03*
X139700000Y-130492500D03*
X137160000Y-130492500D03*
X134620000Y-130492500D03*
X132080000Y-130492500D03*
X129540000Y-130492500D03*
X127000000Y-130492500D03*
X124460000Y-130492500D03*
X121920000Y-130492500D03*
X119380000Y-130492500D03*
X116840000Y-130492500D03*
X114300000Y-130492500D03*
X111760000Y-130492500D03*
X109220000Y-130492500D03*
X106680000Y-130492500D03*
X104140000Y-130492500D03*
%TD*%
D18*
%TO.C,C6*%
X143600000Y-116900000D03*
X148600000Y-116900000D03*
%TD*%
%TO.C,R2*%
X200480000Y-106000000D03*
D19*
X190320000Y-106000000D03*
%TD*%
D18*
%TO.C,C4*%
X182600000Y-97800000D03*
X182600000Y-102800000D03*
%TD*%
D21*
%TO.C,C9*%
X179000000Y-121100000D03*
D18*
X181500000Y-121100000D03*
%TD*%
D21*
%TO.C,C10*%
X105400000Y-119700000D03*
D18*
X107900000Y-119700000D03*
%TD*%
%TO.C,R10*%
X141100000Y-78715000D03*
D19*
X141100000Y-68555000D03*
%TD*%
D22*
%TO.C,J4*%
X126560000Y-65640000D03*
D23*
X126560000Y-63100000D03*
X129100000Y-65640000D03*
X129100000Y-63100000D03*
%TD*%
D22*
%TO.C,J7*%
X133950000Y-65640000D03*
D23*
X133950000Y-63100000D03*
X136490000Y-65640000D03*
X136490000Y-63100000D03*
%TD*%
D22*
%TO.C,J10*%
X159720000Y-65600000D03*
D23*
X159720000Y-63060000D03*
X162260000Y-65600000D03*
X162260000Y-63060000D03*
X164800000Y-65600000D03*
X164800000Y-63060000D03*
X167340000Y-65600000D03*
X167340000Y-63060000D03*
X169880000Y-65600000D03*
X169880000Y-63060000D03*
%TD*%
D18*
%TO.C,R9*%
X136800000Y-78780000D03*
D19*
X136800000Y-68620000D03*
%TD*%
D18*
%TO.C,R12*%
X147300000Y-78715000D03*
D19*
X147300000Y-68555000D03*
%TD*%
D18*
%TO.C,R18*%
X154400000Y-89680000D03*
D19*
X154400000Y-79520000D03*
%TD*%
D18*
%TO.C,R15*%
X161700000Y-78680000D03*
D19*
X161700000Y-68520000D03*
%TD*%
D18*
%TO.C,R13*%
X150400000Y-78715000D03*
D19*
X150400000Y-68555000D03*
%TD*%
D18*
%TO.C,R16*%
X164800000Y-78680000D03*
D19*
X164800000Y-68520000D03*
%TD*%
D22*
%TO.C,J9*%
X142020000Y-65575000D03*
D23*
X142020000Y-63035000D03*
X144560000Y-65575000D03*
X144560000Y-63035000D03*
X147100000Y-65575000D03*
X147100000Y-63035000D03*
X149640000Y-65575000D03*
X149640000Y-63035000D03*
%TD*%
D18*
%TO.C,R14*%
X158600000Y-78680000D03*
D19*
X158600000Y-68520000D03*
%TD*%
D18*
%TO.C,R4*%
X126240000Y-78780000D03*
D19*
X126240000Y-68620000D03*
%TD*%
D18*
%TO.C,R8*%
X133650000Y-78780000D03*
D19*
X133650000Y-68620000D03*
%TD*%
D18*
%TO.C,R17*%
X167900000Y-78680000D03*
D19*
X167900000Y-68520000D03*
%TD*%
D18*
%TO.C,R19*%
X171000000Y-78680000D03*
D19*
X171000000Y-68520000D03*
%TD*%
D18*
%TO.C,R11*%
X144200000Y-78715000D03*
D19*
X144200000Y-68555000D03*
%TD*%
D18*
%TO.C,R5*%
X129400000Y-78780000D03*
D19*
X129400000Y-68620000D03*
%TD*%
M02*
