M48
; DRILL file {KiCad 7.0.11} date Fri Oct 11 23:56:50 2024
; FORMAT={-:-/ absolute / metric / decimal}
; #@! TF.CreationDate,2024-10-11T23:56:50+03:00
; #@! TF.GenerationSoftware,Kicad,Pcbnew,7.0.11
; #@! TF.FileFunction,Plated,1,2,PTH
FMAT,2
METRIC
; #@! TA.AperFunction,Plated,PTH,ViaDrill
T1C0.635
; #@! TA.AperFunction,Plated,PTH,ComponentDrill
T2C0.800
; #@! TA.AperFunction,Plated,PTH,ComponentDrill
T3C0.813
; #@! TA.AperFunction,Plated,PTH,ComponentDrill
T4C0.890
; #@! TA.AperFunction,Plated,PTH,ComponentDrill
T5C0.900
; #@! TA.AperFunction,Plated,PTH,ComponentDrill
T6C1.000
; #@! TA.AperFunction,Plated,PTH,ComponentDrill
T7C1.600
; #@! TA.AperFunction,Plated,PTH,ComponentDrill
T8C3.200
%
G90
G05
T1
X110.117Y-102.298
X110.863Y-119.661
X112.379Y-120.764
X115.954Y-121.326
X117.741Y-122.157
X119.292Y-101.309
X120.192Y-122.793
X120.995Y-123.595
X123.814Y-86.694
X126.66Y-118.515
X127.474Y-119.425
X128.076Y-118.485
X130.531Y-96.671
X133.957Y-97.324
X133.977Y-96.233
X134.299Y-121.451
X134.77Y-92.728
X135.242Y-125.629
X135.302Y-122.05
X137.43Y-122.917
X138.388Y-125.696
X138.769Y-121.846
X139.757Y-93.7
X140.4Y-98.445
X141.212Y-99.293
X144.136Y-113.606
X148.775Y-95.606
X148.895Y-91.79
X151.18Y-109.794
X152.453Y-124.896
X153.112Y-125.78
X154.114Y-125.196
X158.937Y-104.523
X159.374Y-98.475
X160.386Y-97.446
X161.093Y-92.633
X162.724Y-95.672
X164.298Y-108.185
X187.776Y-101.313
T2
X105.4Y-119.7
X107.9Y-119.7
X115.8Y-71.4
X120.8Y-71.4
X124.6Y-90.6
X125.02Y-106.1
X126.24Y-68.62
X126.24Y-78.78
X129.4Y-68.62
X129.4Y-78.78
X129.6Y-90.6
X133.65Y-68.62
X133.65Y-78.78
X135.18Y-106.1
X136.8Y-68.62
X136.8Y-78.78
X141.1Y-68.555
X141.1Y-78.715
X143.6Y-116.9
X144.2Y-68.555
X144.2Y-78.715
X147.3Y-68.555
X147.3Y-78.715
X148.6Y-116.9
X150.4Y-68.555
X150.4Y-78.715
X154.4Y-79.52
X154.4Y-89.68
X158.6Y-68.52
X158.6Y-78.68
X160.0Y-89.3
X161.7Y-68.52
X161.7Y-78.68
X164.8Y-68.52
X164.8Y-78.68
X165.0Y-89.3
X167.9Y-68.52
X167.9Y-78.68
X171.0Y-68.52
X171.0Y-78.68
X179.0Y-121.1
X181.5Y-121.1
X182.6Y-90.1
X182.6Y-95.1
X182.6Y-97.8
X182.6Y-102.8
X184.42Y-78.6
X184.9Y-65.22
X184.9Y-75.38
X188.3Y-72.1
X188.4Y-68.5
X190.32Y-83.4
X190.32Y-106.0
X193.3Y-72.1
X193.4Y-68.5
X194.58Y-78.6
X200.48Y-83.4
X200.48Y-106.0
T3
X105.46Y-74.4
X105.46Y-76.94
X105.46Y-79.48
X105.46Y-82.02
X105.46Y-84.56
X105.46Y-87.1
X105.46Y-89.64
X105.46Y-92.18
X105.46Y-94.72
X105.46Y-97.26
X105.46Y-99.8
X105.46Y-102.34
X105.46Y-104.88
X105.46Y-107.42
X105.46Y-109.96
X105.46Y-112.5
X120.7Y-74.4
X120.7Y-76.94
X120.7Y-79.48
X120.7Y-82.02
X120.7Y-84.56
X120.7Y-87.1
X120.7Y-89.64
X120.7Y-92.18
X120.7Y-94.72
X120.7Y-97.26
X120.7Y-99.8
X120.7Y-102.34
X120.7Y-104.88
X120.7Y-107.42
X120.7Y-109.96
X120.7Y-112.5
X180.2Y-68.159
X180.2Y-73.041
T4
X198.95Y-88.29
X198.95Y-98.4
X200.47Y-90.83
X200.47Y-100.94
T5
X186.69Y-90.17
X186.69Y-92.71
X186.69Y-95.25
X186.69Y-97.79
X189.23Y-91.44
X189.23Y-93.98
X189.23Y-96.52
X189.23Y-99.06
T6
X126.56Y-63.1
X126.56Y-65.64
X129.1Y-63.1
X129.1Y-65.64
X133.95Y-63.1
X133.95Y-65.64
X136.49Y-63.1
X136.49Y-65.64
X142.02Y-63.035
X142.02Y-65.575
X144.56Y-63.035
X144.56Y-65.575
X147.1Y-63.035
X147.1Y-65.575
X149.64Y-63.035
X149.64Y-65.575
X159.72Y-63.06
X159.72Y-65.6
X162.26Y-63.06
X162.26Y-65.6
X164.8Y-63.06
X164.8Y-65.6
X167.34Y-63.06
X167.34Y-65.6
X169.88Y-63.06
X169.88Y-65.6
T7
X192.52Y-86.84
X192.52Y-102.39
T8
X201.041Y-66.04
X201.041Y-122.555
M30
