%TF.GenerationSoftware,KiCad,Pcbnew,7.0.11*%
%TF.CreationDate,2024-10-11T23:56:48+03:00*%
%TF.ProjectId,ISA8_Ethernet,49534138-5f45-4746-9865-726e65742e6b,1.0*%
%TF.SameCoordinates,Original*%
%TF.FileFunction,Copper,L1,Top*%
%TF.FilePolarity,Positive*%
%FSLAX46Y46*%
G04 Gerber Fmt 4.6, Leading zero omitted, Abs format (unit mm)*
G04 Created by KiCad (PCBNEW 7.0.11) date 2024-10-11 23:56:48*
%MOMM*%
%LPD*%
G01*
G04 APERTURE LIST*
G04 Aperture macros list*
%AMRoundRect*
0 Rectangle with rounded corners*
0 $1 Rounding radius*
0 $2 $3 $4 $5 $6 $7 $8 $9 X,Y pos of 4 corners*
0 Add a 4 corners polygon primitive as box body*
4,1,4,$2,$3,$4,$5,$6,$7,$8,$9,$2,$3,0*
0 Add four circle primitives for the rounded corners*
1,1,$1+$1,$2,$3*
1,1,$1+$1,$4,$5*
1,1,$1+$1,$6,$7*
1,1,$1+$1,$8,$9*
0 Add four rect primitives between the rounded corners*
20,1,$1+$1,$2,$3,$4,$5,0*
20,1,$1+$1,$4,$5,$6,$7,0*
20,1,$1+$1,$6,$7,$8,$9,0*
20,1,$1+$1,$8,$9,$2,$3,0*%
G04 Aperture macros list end*
%TA.AperFunction,ComponentPad*%
%ADD10C,2.600000*%
%TD*%
%TA.AperFunction,ComponentPad*%
%ADD11C,1.890000*%
%TD*%
%TA.AperFunction,ComponentPad*%
%ADD12R,1.900000X1.900000*%
%TD*%
%TA.AperFunction,ComponentPad*%
%ADD13C,1.900000*%
%TD*%
%TA.AperFunction,ComponentPad*%
%ADD14C,6.400000*%
%TD*%
%TA.AperFunction,ComponentPad*%
%ADD15C,1.397000*%
%TD*%
%TA.AperFunction,ComponentPad*%
%ADD16R,1.397000X1.397000*%
%TD*%
%TA.AperFunction,SMDPad,CuDef*%
%ADD17RoundRect,0.150000X0.150000X-0.725000X0.150000X0.725000X-0.150000X0.725000X-0.150000X-0.725000X0*%
%TD*%
%TA.AperFunction,ComponentPad*%
%ADD18C,1.600000*%
%TD*%
%TA.AperFunction,ComponentPad*%
%ADD19O,1.600000X1.600000*%
%TD*%
%TA.AperFunction,SMDPad,CuDef*%
%ADD20RoundRect,0.100000X0.100000X-1.150000X0.100000X1.150000X-0.100000X1.150000X-0.100000X-1.150000X0*%
%TD*%
%TA.AperFunction,SMDPad,CuDef*%
%ADD21RoundRect,0.100000X1.150000X0.100000X-1.150000X0.100000X-1.150000X-0.100000X1.150000X-0.100000X0*%
%TD*%
%TA.AperFunction,ConnectorPad*%
%ADD22RoundRect,0.444500X-0.444500X-3.619500X0.444500X-3.619500X0.444500X3.619500X-0.444500X3.619500X0*%
%TD*%
%TA.AperFunction,ComponentPad*%
%ADD23R,1.600000X1.600000*%
%TD*%
%TA.AperFunction,ComponentPad*%
%ADD24R,1.700000X1.700000*%
%TD*%
%TA.AperFunction,ComponentPad*%
%ADD25O,1.700000X1.700000*%
%TD*%
%TA.AperFunction,ViaPad*%
%ADD26C,0.889000*%
%TD*%
%TA.AperFunction,Conductor*%
%ADD27C,0.368400*%
%TD*%
G04 APERTURE END LIST*
D10*
%TO.P,J1,13,SHIELD*%
%TO.N,GND*%
X192520000Y-102390000D03*
X192520000Y-86840000D03*
D11*
%TO.P,J1,L1,LEDY_A*%
%TO.N,VCC*%
X198950000Y-88290000D03*
%TO.P,J1,L2,LEDY_K*%
%TO.N,Net-(J1-LEDY_K)*%
X200470000Y-90830000D03*
%TO.P,J1,L3,LEDG_K*%
%TO.N,Net-(J1-LEDG_K)*%
X198950000Y-98400000D03*
%TO.P,J1,L4,LEDG_A*%
%TO.N,VCC*%
X200470000Y-100940000D03*
D12*
%TO.P,J1,R1,TD+*%
%TO.N,/TP_TX+*%
X189230000Y-99060000D03*
D13*
%TO.P,J1,R2,TD-*%
%TO.N,/TP_TX-*%
X186690000Y-97790000D03*
%TO.P,J1,R3,RD+*%
%TO.N,/TP_RX+*%
X189230000Y-96520000D03*
%TO.P,J1,R4,TCT*%
%TO.N,Net-(J1-TCT)*%
X186690000Y-95250000D03*
%TO.P,J1,R5,RCT*%
%TO.N,Net-(J1-RCT)*%
X189230000Y-93980000D03*
%TO.P,J1,R6,RD-*%
%TO.N,/TP_RX-*%
X186690000Y-92710000D03*
%TO.P,J1,R7,NC*%
%TO.N,unconnected-(J1-NC-PadR7)*%
X189230000Y-91440000D03*
%TO.P,J1,R8,GND*%
%TO.N,GND*%
X186690000Y-90170000D03*
%TD*%
D14*
%TO.P,HOLE1,1,1*%
%TO.N,GND*%
X201041000Y-66040000D03*
%TD*%
%TO.P,HOLE2,1,1*%
%TO.N,GND*%
X201041000Y-122555000D03*
%TD*%
D15*
%TO.P,Y1,1,1*%
%TO.N,Net-(U1-X1)*%
X180200000Y-73040940D03*
%TO.P,Y1,2,2*%
%TO.N,Net-(U1-X2)*%
X180200000Y-68159060D03*
%TD*%
D16*
%TO.P,U2,1,A18*%
%TO.N,/BA18*%
X105460000Y-74400000D03*
D15*
%TO.P,U2,2,A16*%
%TO.N,/BA16*%
X105460000Y-76940000D03*
%TO.P,U2,3,A15*%
%TO.N,/BA15*%
X105460000Y-79480000D03*
%TO.P,U2,4,A12*%
%TO.N,/A12*%
X105460000Y-82020000D03*
%TO.P,U2,5,A7*%
%TO.N,/A7*%
X105460000Y-84560000D03*
%TO.P,U2,6,A6*%
%TO.N,/A6*%
X105460000Y-87100000D03*
%TO.P,U2,7,A5*%
%TO.N,/A5*%
X105460000Y-89640000D03*
%TO.P,U2,8,A4*%
%TO.N,/A4*%
X105460000Y-92180000D03*
%TO.P,U2,9,A3*%
%TO.N,/A3*%
X105460000Y-94720000D03*
%TO.P,U2,10,A2*%
%TO.N,/A2*%
X105460000Y-97260000D03*
%TO.P,U2,11,A1*%
%TO.N,/A1*%
X105460000Y-99800000D03*
%TO.P,U2,12,A0*%
%TO.N,/A0*%
X105460000Y-102340000D03*
%TO.P,U2,13,DQ0*%
%TO.N,/BD0*%
X105460000Y-104880000D03*
%TO.P,U2,14,DQ1*%
%TO.N,/BD1*%
X105460000Y-107420000D03*
%TO.P,U2,15,DQ2*%
%TO.N,/BD2*%
X105460000Y-109960000D03*
%TO.P,U2,16,GND*%
%TO.N,GND*%
X105460000Y-112500000D03*
%TO.P,U2,17,DQ3*%
%TO.N,/BD3*%
X120700000Y-112500000D03*
%TO.P,U2,18,DQ4*%
%TO.N,/BD4*%
X120700000Y-109960000D03*
%TO.P,U2,19,DQ5*%
%TO.N,/BD5*%
X120700000Y-107420000D03*
%TO.P,U2,20,DQ6*%
%TO.N,/BD6*%
X120700000Y-104880000D03*
%TO.P,U2,21,DQ7*%
%TO.N,/BD7*%
X120700000Y-102340000D03*
%TO.P,U2,22,~{CE}*%
%TO.N,/~{BCS}*%
X120700000Y-99800000D03*
%TO.P,U2,23,A10*%
%TO.N,/A10*%
X120700000Y-97260000D03*
%TO.P,U2,24,~{OE}*%
%TO.N,/~{SMEMR}*%
X120700000Y-94720000D03*
%TO.P,U2,25,A11*%
%TO.N,/A11*%
X120700000Y-92180000D03*
%TO.P,U2,26,A9*%
%TO.N,/A9*%
X120700000Y-89640000D03*
%TO.P,U2,27,A8*%
%TO.N,/A8*%
X120700000Y-87100000D03*
%TO.P,U2,28,A13*%
%TO.N,/A13*%
X120700000Y-84560000D03*
%TO.P,U2,29,A14*%
%TO.N,/BA14*%
X120700000Y-82020000D03*
%TO.P,U2,30,A17*%
%TO.N,/BA17*%
X120700000Y-79480000D03*
%TO.P,U2,31,~{WE}*%
%TO.N,/~{SMEMW}*%
X120700000Y-76940000D03*
%TO.P,U2,32,VCC*%
%TO.N,VCC*%
X120700000Y-74400000D03*
%TD*%
D17*
%TO.P,U3,1,CS*%
%TO.N,/EECS*%
X125195000Y-98775000D03*
%TO.P,U3,2,SCLK*%
%TO.N,/BD5*%
X126465000Y-98775000D03*
%TO.P,U3,3,DI*%
%TO.N,/BD6*%
X127735000Y-98775000D03*
%TO.P,U3,4,DO*%
%TO.N,/BD7*%
X129005000Y-98775000D03*
%TO.P,U3,5,GND*%
%TO.N,GND*%
X129005000Y-93625000D03*
%TO.P,U3,6,ORG*%
%TO.N,VCC*%
X127735000Y-93625000D03*
%TO.P,U3,7,NC*%
%TO.N,unconnected-(U3-NC-Pad7)*%
X126465000Y-93625000D03*
%TO.P,U3,8,VCC*%
%TO.N,VCC*%
X125195000Y-93625000D03*
%TD*%
D18*
%TO.P,C5,1*%
%TO.N,VCC*%
X160000000Y-89300000D03*
%TO.P,C5,2*%
%TO.N,GND*%
X165000000Y-89300000D03*
%TD*%
%TO.P,C8,1*%
%TO.N,VCC*%
X124600000Y-90600000D03*
%TO.P,C8,2*%
%TO.N,GND*%
X129600000Y-90600000D03*
%TD*%
%TO.P,R6,1*%
%TO.N,GND*%
X125020000Y-106100000D03*
D19*
%TO.P,R6,2*%
%TO.N,/~{IOCS16}*%
X135180000Y-106100000D03*
%TD*%
D18*
%TO.P,R7,1*%
%TO.N,Net-(U1-X1)*%
X184900000Y-75380000D03*
D19*
%TO.P,R7,2*%
%TO.N,Net-(U1-X2)*%
X184900000Y-65220000D03*
%TD*%
D18*
%TO.P,C7,1*%
%TO.N,VCC*%
X120800000Y-71400000D03*
%TO.P,C7,2*%
%TO.N,GND*%
X115800000Y-71400000D03*
%TD*%
D20*
%TO.P,U1,1,INT3/IRQ5*%
%TO.N,/IRQ5*%
X140975000Y-111700000D03*
%TO.P,U1,2,INT2/IRQ4*%
%TO.N,/IRQ4*%
X141625000Y-111700000D03*
%TO.P,U1,3,INT1/IRQ3*%
%TO.N,/IRQ3*%
X142275000Y-111700000D03*
%TO.P,U1,4,INT0/IRQ2/9*%
%TO.N,/IRQ9*%
X142925000Y-111700000D03*
%TO.P,U1,5,SA0*%
%TO.N,/A0*%
X143550000Y-111700000D03*
%TO.P,U1,6,VCC*%
%TO.N,VCC*%
X144200000Y-111700000D03*
%TO.P,U1,7,SA1*%
%TO.N,/A1*%
X144850000Y-111700000D03*
%TO.P,U1,8,SA2*%
%TO.N,/A2*%
X145500000Y-111700000D03*
%TO.P,U1,9,SA3*%
%TO.N,/A3*%
X146150000Y-111700000D03*
%TO.P,U1,10,SA4*%
%TO.N,/A4*%
X146800000Y-111700000D03*
%TO.P,U1,11,SA5*%
%TO.N,/A5*%
X147450000Y-111700000D03*
%TO.P,U1,12,SA6*%
%TO.N,/A6*%
X148100000Y-111700000D03*
%TO.P,U1,13,SA7*%
%TO.N,/A7*%
X148750000Y-111700000D03*
%TO.P,U1,14,GND*%
%TO.N,GND*%
X149400000Y-111700000D03*
%TO.P,U1,15,SA8*%
%TO.N,/A8*%
X150050000Y-111700000D03*
%TO.P,U1,16,SA9*%
%TO.N,/A9*%
X150700000Y-111700000D03*
%TO.P,U1,17,VCC*%
%TO.N,VCC*%
X151350000Y-111700000D03*
%TO.P,U1,18,SA10*%
%TO.N,/A10*%
X152000000Y-111700000D03*
%TO.P,U1,19,SA11*%
%TO.N,/A11*%
X152650000Y-111700000D03*
%TO.P,U1,20,SA12*%
%TO.N,/A12*%
X153300000Y-111700000D03*
%TO.P,U1,21,SA13*%
%TO.N,/A13*%
X153950000Y-111700000D03*
%TO.P,U1,22,SA14*%
%TO.N,/A14*%
X154600000Y-111700000D03*
%TO.P,U1,23,SA15*%
%TO.N,/A15*%
X155250000Y-111700000D03*
%TO.P,U1,24,SA16*%
%TO.N,/A16*%
X155900000Y-111700000D03*
%TO.P,U1,25,SA17*%
%TO.N,/A17*%
X156550000Y-111700000D03*
%TO.P,U1,26,SA18*%
%TO.N,/A18*%
X157200000Y-111700000D03*
%TO.P,U1,27,SA19*%
%TO.N,/A19*%
X157850000Y-111700000D03*
%TO.P,U1,28,GND*%
%TO.N,GND*%
X158500000Y-111700000D03*
%TO.P,U1,29,~{IORB}*%
%TO.N,/~{IOR}*%
X159150000Y-111700000D03*
%TO.P,U1,30,~{IOWB}*%
%TO.N,/~{IOW}*%
X159800000Y-111700000D03*
D21*
%TO.P,U1,31,~{SMEMRB}*%
%TO.N,/~{SMEMR}*%
X162400000Y-108875000D03*
%TO.P,U1,32,~{SMEMWB}*%
%TO.N,/~{SMEMW}*%
X162400000Y-108225000D03*
%TO.P,U1,33,RSTDRV*%
%TO.N,/RSTDRV*%
X162400000Y-107575000D03*
%TO.P,U1,34,AEN*%
%TO.N,/AEN*%
X162400000Y-106925000D03*
%TO.P,U1,35,IOCHRDY*%
%TO.N,/IOCHRDY*%
X162400000Y-106275000D03*
%TO.P,U1,36,SD0*%
%TO.N,/D0*%
X162400000Y-105625000D03*
%TO.P,U1,37,SD1*%
%TO.N,/D1*%
X162400000Y-104975000D03*
%TO.P,U1,38,SD2*%
%TO.N,/D2*%
X162400000Y-104325000D03*
%TO.P,U1,39,SD3*%
%TO.N,/D3*%
X162400000Y-103675000D03*
%TO.P,U1,40,SD4*%
%TO.N,/D4*%
X162400000Y-103025000D03*
%TO.P,U1,41,SD5*%
%TO.N,/D5*%
X162400000Y-102375000D03*
%TO.P,U1,42,SD6*%
%TO.N,/D6*%
X162400000Y-101725000D03*
%TO.P,U1,43,SD7*%
%TO.N,/D7*%
X162400000Y-101075000D03*
%TO.P,U1,44,GND*%
%TO.N,GND*%
X162400000Y-100425000D03*
%TO.P,U1,45,TPOUT+*%
%TO.N,/TP_TX+*%
X162400000Y-99775000D03*
%TO.P,U1,46,TPOUT-*%
%TO.N,/TP_TX-*%
X162400000Y-99125000D03*
%TO.P,U1,47,VCC*%
%TO.N,VCC*%
X162400000Y-98475000D03*
%TO.P,U1,48,TX-*%
%TO.N,unconnected-(U1-TX--Pad48)*%
X162400000Y-97825000D03*
%TO.P,U1,49,TX+*%
%TO.N,unconnected-(U1-TX+-Pad49)*%
X162400000Y-97175000D03*
%TO.P,U1,50,X1*%
%TO.N,Net-(U1-X1)*%
X162400000Y-96525000D03*
D20*
%TO.P,U1,51,X2*%
%TO.N,Net-(U1-X2)*%
X159825000Y-93700000D03*
%TO.P,U1,52,GND*%
%TO.N,GND*%
X159175000Y-93700000D03*
%TO.P,U1,53,CD-*%
%TO.N,unconnected-(U1-CD--Pad53)*%
X158525000Y-93700000D03*
%TO.P,U1,54,CD+*%
%TO.N,unconnected-(U1-CD+-Pad54)*%
X157875000Y-93700000D03*
%TO.P,U1,55,RX-*%
%TO.N,unconnected-(U1-RX--Pad55)*%
X157225000Y-93700000D03*
%TO.P,U1,56,RX+*%
%TO.N,unconnected-(U1-RX+-Pad56)*%
X156575000Y-93700000D03*
%TO.P,U1,57,VCC*%
%TO.N,VCC*%
X155925000Y-93700000D03*
%TO.P,U1,58,TPIN-*%
%TO.N,/TP_RX-*%
X155275000Y-93700000D03*
%TO.P,U1,59,TPIN+*%
%TO.N,/TP_RX+*%
X154625000Y-93700000D03*
%TO.P,U1,60,LEDBNC*%
%TO.N,unconnected-(U1-LEDBNC-Pad60)*%
X153975000Y-93700000D03*
%TO.P,U1,61,LED0/LED_COL/LED_LINK*%
%TO.N,/LED_LINK*%
X153325000Y-93700000D03*
%TO.P,U1,62,LED1/LED_RX/LED_CRS*%
%TO.N,/LED_CRS*%
X152675000Y-93700000D03*
%TO.P,U1,63,LED2/LED_TX*%
%TO.N,unconnected-(U1-LED2{slash}LED_TX-Pad63)*%
X152025000Y-93700000D03*
%TO.P,U1,64,AUI*%
%TO.N,/AUI*%
X151375000Y-93700000D03*
%TO.P,U1,65,JP*%
%TO.N,/JP*%
X150725000Y-93700000D03*
%TO.P,U1,66,BA21/PNP*%
%TO.N,/BA21*%
X150075000Y-93700000D03*
%TO.P,U1,67,BA20/BS0*%
%TO.N,/BA20*%
X149425000Y-93700000D03*
%TO.P,U1,68,BA19/BS1*%
%TO.N,/BA19*%
X148775000Y-93700000D03*
%TO.P,U1,69,BA18/BS2*%
%TO.N,/BA18*%
X148125000Y-93700000D03*
%TO.P,U1,70,VCC*%
%TO.N,VCC*%
X147475000Y-93700000D03*
%TO.P,U1,71,BA17/BS3*%
%TO.N,/BA17*%
X146825000Y-93700000D03*
%TO.P,U1,72,BA16/BS4*%
%TO.N,/BA16*%
X146175000Y-93700000D03*
%TO.P,U1,73,BA15*%
%TO.N,/BA15*%
X145525000Y-93700000D03*
%TO.P,U1,74,BA14/PL0*%
%TO.N,/BA14*%
X144875000Y-93700000D03*
%TO.P,U1,75,~{BCSB}*%
%TO.N,/~{BCS}*%
X144225000Y-93700000D03*
%TO.P,U1,76,EECS*%
%TO.N,/EECS*%
X143575000Y-93700000D03*
%TO.P,U1,77,BD7/PL1/EEDO*%
%TO.N,/BD7*%
X142925000Y-93700000D03*
%TO.P,U1,78,BD6/IRQS0/EEDI*%
%TO.N,/BD6*%
X142275000Y-93700000D03*
%TO.P,U1,79,BD5/IRQS1/EESK*%
%TO.N,/BD5*%
X141625000Y-93700000D03*
%TO.P,U1,80,BD4/IRQS2*%
%TO.N,/BD4*%
X140975000Y-93700000D03*
D21*
%TO.P,U1,81,BD3/IOS0*%
%TO.N,/BD3*%
X138400000Y-96525000D03*
%TO.P,U1,82,BD2/IOS1*%
%TO.N,/BD2*%
X138400000Y-97175000D03*
%TO.P,U1,83,GND*%
%TO.N,GND*%
X138400000Y-97825000D03*
%TO.P,U1,84,BD1/IOS2*%
%TO.N,/BD1*%
X138400000Y-98475000D03*
%TO.P,U1,85,BD0/IOS3*%
%TO.N,/BD0*%
X138400000Y-99125000D03*
%TO.P,U1,86,GND*%
%TO.N,GND*%
X138400000Y-99775000D03*
%TO.P,U1,87,SD15*%
%TO.N,unconnected-(U1-SD15-Pad87)*%
X138400000Y-100425000D03*
%TO.P,U1,88,SD14*%
%TO.N,unconnected-(U1-SD14-Pad88)*%
X138400000Y-101075000D03*
%TO.P,U1,89,VCC*%
%TO.N,VCC*%
X138400000Y-101725000D03*
%TO.P,U1,90,SD13*%
%TO.N,unconnected-(U1-SD13-Pad90)*%
X138400000Y-102375000D03*
%TO.P,U1,91,SD12*%
%TO.N,unconnected-(U1-SD12-Pad91)*%
X138400000Y-103025000D03*
%TO.P,U1,92,SD11*%
%TO.N,unconnected-(U1-SD11-Pad92)*%
X138400000Y-103675000D03*
%TO.P,U1,93,SD10*%
%TO.N,unconnected-(U1-SD10-Pad93)*%
X138400000Y-104325000D03*
%TO.P,U1,94,SD9*%
%TO.N,unconnected-(U1-SD9-Pad94)*%
X138400000Y-104975000D03*
%TO.P,U1,95,SD8*%
%TO.N,unconnected-(U1-SD8-Pad95)*%
X138400000Y-105625000D03*
%TO.P,U1,96,~{IOCS16B/SLOT16}*%
%TO.N,/~{IOCS16}*%
X138400000Y-106275000D03*
%TO.P,U1,97,INT7/IRQ15*%
%TO.N,unconnected-(U1-INT7{slash}IRQ15-Pad97)*%
X138400000Y-106925000D03*
%TO.P,U1,98,INT6/IRQ12*%
%TO.N,unconnected-(U1-INT6{slash}IRQ12-Pad98)*%
X138400000Y-107575000D03*
%TO.P,U1,99,INT5/IRQ11*%
%TO.N,unconnected-(U1-INT5{slash}IRQ11-Pad99)*%
X138400000Y-108225000D03*
%TO.P,U1,100,INT4/IRQ10*%
%TO.N,unconnected-(U1-INT4{slash}IRQ10-Pad100)*%
X138400000Y-108875000D03*
%TD*%
D18*
%TO.P,R1,1*%
%TO.N,/TP_RX+*%
X194580000Y-78600000D03*
D19*
%TO.P,R1,2*%
%TO.N,/TP_RX-*%
X184420000Y-78600000D03*
%TD*%
D18*
%TO.P,C3,1*%
%TO.N,Net-(J1-TCT)*%
X182600000Y-95100000D03*
%TO.P,C3,2*%
%TO.N,GND*%
X182600000Y-90100000D03*
%TD*%
%TO.P,R3,1*%
%TO.N,Net-(J1-LEDY_K)*%
X200480000Y-83400000D03*
D19*
%TO.P,R3,2*%
%TO.N,/LED_CRS*%
X190320000Y-83400000D03*
%TD*%
D18*
%TO.P,C1,1*%
%TO.N,GND*%
X193300000Y-72100000D03*
%TO.P,C1,2*%
%TO.N,Net-(U1-X1)*%
X188300000Y-72100000D03*
%TD*%
%TO.P,C2,1*%
%TO.N,GND*%
X193400000Y-68500000D03*
%TO.P,C2,2*%
%TO.N,Net-(U1-X2)*%
X188400000Y-68500000D03*
%TD*%
D22*
%TO.P,BUS1,32,IO_CH_CK*%
%TO.N,unconnected-(BUS1-IO_CH_CK-Pad32)*%
X180340000Y-130492500D03*
%TO.P,BUS1,33,SD7*%
%TO.N,/D7*%
X177800000Y-130492500D03*
%TO.P,BUS1,34,SD6*%
%TO.N,/D6*%
X175260000Y-130492500D03*
%TO.P,BUS1,35,SD5*%
%TO.N,/D5*%
X172720000Y-130492500D03*
%TO.P,BUS1,36,SD4*%
%TO.N,/D4*%
X170180000Y-130492500D03*
%TO.P,BUS1,37,SD3*%
%TO.N,/D3*%
X167640000Y-130492500D03*
%TO.P,BUS1,38,SD2*%
%TO.N,/D2*%
X165100000Y-130492500D03*
%TO.P,BUS1,39,SD1*%
%TO.N,/D1*%
X162560000Y-130492500D03*
%TO.P,BUS1,40,SD0*%
%TO.N,/D0*%
X160020000Y-130492500D03*
%TO.P,BUS1,41,IO_READY*%
%TO.N,/IOCHRDY*%
X157480000Y-130492500D03*
%TO.P,BUS1,42,AEN*%
%TO.N,/AEN*%
X154940000Y-130492500D03*
%TO.P,BUS1,43,SA19*%
%TO.N,/A19*%
X152400000Y-130492500D03*
%TO.P,BUS1,44,SA18*%
%TO.N,/A18*%
X149860000Y-130492500D03*
%TO.P,BUS1,45,SA17*%
%TO.N,/A17*%
X147320000Y-130492500D03*
%TO.P,BUS1,46,SA16*%
%TO.N,/A16*%
X144780000Y-130492500D03*
%TO.P,BUS1,47,SA15*%
%TO.N,/A15*%
X142240000Y-130492500D03*
%TO.P,BUS1,48,SA14*%
%TO.N,/A14*%
X139700000Y-130492500D03*
%TO.P,BUS1,49,SA13*%
%TO.N,/A13*%
X137160000Y-130492500D03*
%TO.P,BUS1,50,SA12*%
%TO.N,/A12*%
X134620000Y-130492500D03*
%TO.P,BUS1,51,SA11*%
%TO.N,/A11*%
X132080000Y-130492500D03*
%TO.P,BUS1,52,SA10*%
%TO.N,/A10*%
X129540000Y-130492500D03*
%TO.P,BUS1,53,SA9*%
%TO.N,/A9*%
X127000000Y-130492500D03*
%TO.P,BUS1,54,SA8*%
%TO.N,/A8*%
X124460000Y-130492500D03*
%TO.P,BUS1,55,SA7*%
%TO.N,/A7*%
X121920000Y-130492500D03*
%TO.P,BUS1,56,SA6*%
%TO.N,/A6*%
X119380000Y-130492500D03*
%TO.P,BUS1,57,SA5*%
%TO.N,/A5*%
X116840000Y-130492500D03*
%TO.P,BUS1,58,SA4*%
%TO.N,/A4*%
X114300000Y-130492500D03*
%TO.P,BUS1,59,SA3*%
%TO.N,/A3*%
X111760000Y-130492500D03*
%TO.P,BUS1,60,SA2*%
%TO.N,/A2*%
X109220000Y-130492500D03*
%TO.P,BUS1,61,SA1*%
%TO.N,/A1*%
X106680000Y-130492500D03*
%TO.P,BUS1,62,SA0*%
%TO.N,/A0*%
X104140000Y-130492500D03*
%TD*%
D18*
%TO.P,C6,1*%
%TO.N,VCC*%
X143600000Y-116900000D03*
%TO.P,C6,2*%
%TO.N,GND*%
X148600000Y-116900000D03*
%TD*%
%TO.P,R2,1*%
%TO.N,Net-(J1-LEDG_K)*%
X200480000Y-106000000D03*
D19*
%TO.P,R2,2*%
%TO.N,/LED_LINK*%
X190320000Y-106000000D03*
%TD*%
D18*
%TO.P,C4,1*%
%TO.N,Net-(J1-RCT)*%
X182600000Y-97800000D03*
%TO.P,C4,2*%
%TO.N,GND*%
X182600000Y-102800000D03*
%TD*%
D23*
%TO.P,C9,1*%
%TO.N,VCC*%
X179000000Y-121100000D03*
D18*
%TO.P,C9,2*%
%TO.N,GND*%
X181500000Y-121100000D03*
%TD*%
D23*
%TO.P,C10,1*%
%TO.N,VCC*%
X105400000Y-119700000D03*
D18*
%TO.P,C10,2*%
%TO.N,GND*%
X107900000Y-119700000D03*
%TD*%
%TO.P,R10,1*%
%TO.N,/BD3*%
X141100000Y-78715000D03*
D19*
%TO.P,R10,2*%
%TO.N,Net-(J9-Pin_1)*%
X141100000Y-68555000D03*
%TD*%
D24*
%TO.P,J4,1,Pin_1*%
%TO.N,Net-(J4-Pin_1)*%
X126560000Y-65640000D03*
D25*
%TO.P,J4,2,Pin_2*%
%TO.N,VCC*%
X126560000Y-63100000D03*
%TO.P,J4,3,Pin_3*%
%TO.N,Net-(J4-Pin_3)*%
X129100000Y-65640000D03*
%TO.P,J4,4,Pin_4*%
%TO.N,VCC*%
X129100000Y-63100000D03*
%TD*%
D24*
%TO.P,J7,1,Pin_1*%
%TO.N,Net-(J7-Pin_1)*%
X133950000Y-65640000D03*
D25*
%TO.P,J7,2,Pin_2*%
%TO.N,VCC*%
X133950000Y-63100000D03*
%TO.P,J7,3,Pin_3*%
%TO.N,Net-(J7-Pin_3)*%
X136490000Y-65640000D03*
%TO.P,J7,4,Pin_4*%
%TO.N,VCC*%
X136490000Y-63100000D03*
%TD*%
D24*
%TO.P,J10,1,Pin_1*%
%TO.N,Net-(J10-Pin_1)*%
X159720000Y-65600000D03*
D25*
%TO.P,J10,2,Pin_2*%
%TO.N,VCC*%
X159720000Y-63060000D03*
%TO.P,J10,3,Pin_3*%
%TO.N,Net-(J10-Pin_3)*%
X162260000Y-65600000D03*
%TO.P,J10,4,Pin_4*%
%TO.N,VCC*%
X162260000Y-63060000D03*
%TO.P,J10,5,Pin_5*%
%TO.N,Net-(J10-Pin_5)*%
X164800000Y-65600000D03*
%TO.P,J10,6,Pin_6*%
%TO.N,VCC*%
X164800000Y-63060000D03*
%TO.P,J10,7,Pin_7*%
%TO.N,Net-(J10-Pin_7)*%
X167340000Y-65600000D03*
%TO.P,J10,8,Pin_8*%
%TO.N,VCC*%
X167340000Y-63060000D03*
%TO.P,J10,9,Pin_9*%
%TO.N,Net-(J10-Pin_9)*%
X169880000Y-65600000D03*
%TO.P,J10,10,Pin_10*%
%TO.N,VCC*%
X169880000Y-63060000D03*
%TD*%
D18*
%TO.P,R9,1*%
%TO.N,/BD5*%
X136800000Y-78780000D03*
D19*
%TO.P,R9,2*%
%TO.N,Net-(J7-Pin_3)*%
X136800000Y-68620000D03*
%TD*%
D18*
%TO.P,R12,1*%
%TO.N,/BD1*%
X147300000Y-78715000D03*
D19*
%TO.P,R12,2*%
%TO.N,Net-(J9-Pin_5)*%
X147300000Y-68555000D03*
%TD*%
D18*
%TO.P,R18,1*%
%TO.N,/AUI*%
X154400000Y-89680000D03*
D19*
%TO.P,R18,2*%
%TO.N,GND*%
X154400000Y-79520000D03*
%TD*%
D18*
%TO.P,R15,1*%
%TO.N,/BA19*%
X161700000Y-78680000D03*
D19*
%TO.P,R15,2*%
%TO.N,Net-(J10-Pin_3)*%
X161700000Y-68520000D03*
%TD*%
D18*
%TO.P,R13,1*%
%TO.N,/BD0*%
X150400000Y-78715000D03*
D19*
%TO.P,R13,2*%
%TO.N,Net-(J9-Pin_7)*%
X150400000Y-68555000D03*
%TD*%
D18*
%TO.P,R16,1*%
%TO.N,/BA18*%
X164800000Y-78680000D03*
D19*
%TO.P,R16,2*%
%TO.N,Net-(J10-Pin_5)*%
X164800000Y-68520000D03*
%TD*%
D24*
%TO.P,J9,1,Pin_1*%
%TO.N,Net-(J9-Pin_1)*%
X142020000Y-65575000D03*
D25*
%TO.P,J9,2,Pin_2*%
%TO.N,VCC*%
X142020000Y-63035000D03*
%TO.P,J9,3,Pin_3*%
%TO.N,Net-(J9-Pin_3)*%
X144560000Y-65575000D03*
%TO.P,J9,4,Pin_4*%
%TO.N,VCC*%
X144560000Y-63035000D03*
%TO.P,J9,5,Pin_5*%
%TO.N,Net-(J9-Pin_5)*%
X147100000Y-65575000D03*
%TO.P,J9,6,Pin_6*%
%TO.N,VCC*%
X147100000Y-63035000D03*
%TO.P,J9,7,Pin_7*%
%TO.N,Net-(J9-Pin_7)*%
X149640000Y-65575000D03*
%TO.P,J9,8,Pin_8*%
%TO.N,VCC*%
X149640000Y-63035000D03*
%TD*%
D18*
%TO.P,R14,1*%
%TO.N,/BA20*%
X158600000Y-78680000D03*
D19*
%TO.P,R14,2*%
%TO.N,Net-(J10-Pin_1)*%
X158600000Y-68520000D03*
%TD*%
D18*
%TO.P,R4,1*%
%TO.N,/JP*%
X126240000Y-78780000D03*
D19*
%TO.P,R4,2*%
%TO.N,Net-(J4-Pin_1)*%
X126240000Y-68620000D03*
%TD*%
D18*
%TO.P,R8,1*%
%TO.N,/BD6*%
X133650000Y-78780000D03*
D19*
%TO.P,R8,2*%
%TO.N,Net-(J7-Pin_1)*%
X133650000Y-68620000D03*
%TD*%
D18*
%TO.P,R17,1*%
%TO.N,/BA17*%
X167900000Y-78680000D03*
D19*
%TO.P,R17,2*%
%TO.N,Net-(J10-Pin_7)*%
X167900000Y-68520000D03*
%TD*%
D18*
%TO.P,R19,1*%
%TO.N,/BA16*%
X171000000Y-78680000D03*
D19*
%TO.P,R19,2*%
%TO.N,Net-(J10-Pin_9)*%
X171000000Y-68520000D03*
%TD*%
D18*
%TO.P,R11,1*%
%TO.N,/BD2*%
X144200000Y-78715000D03*
D19*
%TO.P,R11,2*%
%TO.N,Net-(J9-Pin_3)*%
X144200000Y-68555000D03*
%TD*%
D18*
%TO.P,R5,1*%
%TO.N,/BA21*%
X129400000Y-78780000D03*
D19*
%TO.P,R5,2*%
%TO.N,Net-(J4-Pin_3)*%
X129400000Y-68620000D03*
%TD*%
D26*
%TO.N,/A10*%
X138768900Y-121846400D03*
%TO.N,/A11*%
X137430000Y-122917300D03*
%TO.N,/A12*%
X135241900Y-125628800D03*
%TO.N,/A13*%
X138388200Y-125696200D03*
%TO.N,/A2*%
X110862900Y-119661000D03*
%TO.N,/A3*%
X112378800Y-120763800D03*
%TO.N,/A4*%
X115954300Y-121325600D03*
%TO.N,/A5*%
X117741300Y-122157400D03*
%TO.N,/A6*%
X120192500Y-122792800D03*
%TO.N,/A7*%
X120994700Y-123595000D03*
%TO.N,/A8*%
X134298800Y-121451200D03*
%TO.N,/A9*%
X135302300Y-122049900D03*
%TO.N,/~{IOR}*%
X152452600Y-124896400D03*
%TO.N,/~{IOW}*%
X153112500Y-125779600D03*
%TO.N,VCC*%
X159373900Y-98475000D03*
X151179700Y-109794100D03*
X110117200Y-102297900D03*
%TO.N,/RSTDRV*%
X164297800Y-108184800D03*
%TO.N,/IRQ9*%
X144136400Y-113605600D03*
%TO.N,/~{SMEMW}*%
X158937000Y-104523500D03*
%TO.N,/~{SMEMR}*%
X154113900Y-125196400D03*
%TO.N,/IRQ5*%
X128076300Y-118484600D03*
%TO.N,/IRQ4*%
X127473900Y-119425200D03*
%TO.N,/IRQ3*%
X126660100Y-118515300D03*
%TO.N,Net-(U1-X1)*%
X162723500Y-95671800D03*
%TO.N,Net-(U1-X2)*%
X161093400Y-92633000D03*
%TO.N,Net-(J1-RCT)*%
X187776300Y-101312900D03*
%TO.N,/LED_LINK*%
X160386400Y-97446200D03*
%TO.N,/BD6*%
X130531500Y-96671400D03*
%TO.N,/BD5*%
X134770100Y-92728400D03*
%TO.N,/BD4*%
X139757000Y-93700000D03*
%TO.N,/BD3*%
X133976600Y-96233300D03*
%TO.N,/BD2*%
X133957500Y-97324300D03*
%TO.N,/BD1*%
X119292500Y-101309100D03*
X140399600Y-98445100D03*
%TO.N,/BD0*%
X141212300Y-99292800D03*
%TO.N,/BA14*%
X123814300Y-86694000D03*
%TO.N,/BA19*%
X148775000Y-95606500D03*
%TO.N,/BA20*%
X148895200Y-91790200D03*
%TD*%
D27*
%TO.N,/A0*%
X103657400Y-130009900D02*
X104140000Y-130492500D01*
X102627800Y-125157600D02*
X103657400Y-126187200D01*
X102627800Y-101069700D02*
X102627800Y-125157600D01*
X103657400Y-126187200D02*
X103657400Y-130009900D01*
X106013400Y-98714400D02*
X104983100Y-98714400D01*
X106578100Y-99279100D02*
X106013400Y-98714400D01*
X104983100Y-98714400D02*
X102627800Y-101069700D01*
X106578100Y-101221900D02*
X106578100Y-99279100D01*
X105460000Y-102340000D02*
X106578100Y-101221900D01*
%TO.N,/D1*%
X166881400Y-107010000D02*
X164846400Y-104975000D01*
X166881400Y-109566000D02*
X166881400Y-107010000D01*
X163781300Y-120336338D02*
X163781300Y-112666100D01*
X164846400Y-104975000D02*
X162400000Y-104975000D01*
X162560000Y-121557638D02*
X163781300Y-120336338D01*
X163781300Y-112666100D02*
X166881400Y-109566000D01*
X162560000Y-130492500D02*
X162560000Y-121557638D01*
%TO.N,/A0*%
X142633100Y-109466200D02*
X122926800Y-109466200D01*
X108263900Y-111230000D02*
X105909300Y-113584600D01*
X143550000Y-111700000D02*
X143550000Y-110383100D01*
X121163000Y-111230000D02*
X108263900Y-111230000D01*
X143550000Y-110383100D02*
X142633100Y-109466200D01*
X103768400Y-112405600D02*
X103768400Y-104031600D01*
X103768400Y-104031600D02*
X105460000Y-102340000D01*
X105909300Y-113584600D02*
X104947400Y-113584600D01*
X122926800Y-109466200D02*
X121163000Y-111230000D01*
X104947400Y-113584600D02*
X103768400Y-112405600D01*
%TO.N,/A1*%
X106680000Y-118499300D02*
X106680000Y-130492500D01*
X125244100Y-118370000D02*
X127129900Y-120255800D01*
X105460000Y-99800000D02*
X103198100Y-102061900D01*
X144480500Y-114436200D02*
X144967000Y-113949700D01*
X127129900Y-120255800D02*
X128827100Y-120255800D01*
X103198100Y-102061900D02*
X103198100Y-114758800D01*
X144967000Y-113949700D02*
X144967000Y-113261500D01*
X144967000Y-113261500D02*
X144850000Y-113144500D01*
X134646700Y-114436200D02*
X144480500Y-114436200D01*
X144850000Y-113144500D02*
X144850000Y-111700000D01*
X106809300Y-118370000D02*
X125244100Y-118370000D01*
X103198100Y-114758800D02*
X106809300Y-118370000D01*
X128827100Y-120255800D02*
X134646700Y-114436200D01*
X106809300Y-118370000D02*
X106680000Y-118499300D01*
%TO.N,/A10*%
X152000000Y-111700000D02*
X152000000Y-116841400D01*
X139098900Y-121516400D02*
X138768900Y-121846400D01*
X134375000Y-124446400D02*
X136975000Y-121846400D01*
X152000000Y-116841400D02*
X147325000Y-121516400D01*
X129540000Y-130492500D02*
X129540000Y-127786300D01*
X147325000Y-121516400D02*
X139098900Y-121516400D01*
X132879900Y-124446400D02*
X134375000Y-124446400D01*
X136975000Y-121846400D02*
X138768900Y-121846400D01*
X129540000Y-127786300D02*
X132879900Y-124446400D01*
%TO.N,/A11*%
X152650000Y-111700000D02*
X152650000Y-116998000D01*
X139742700Y-122086700D02*
X138912100Y-122917300D01*
X138912100Y-122917300D02*
X137430000Y-122917300D01*
X136778800Y-122917300D02*
X132080000Y-127616100D01*
X147561300Y-122086700D02*
X139742700Y-122086700D01*
X137430000Y-122917300D02*
X136778800Y-122917300D01*
X152650000Y-116998000D02*
X147561300Y-122086700D01*
X132080000Y-127616100D02*
X132080000Y-130492500D01*
%TO.N,/A12*%
X147816800Y-122657000D02*
X141427400Y-122657000D01*
X140322200Y-123762200D02*
X137108500Y-123762200D01*
X153300000Y-117173800D02*
X147816800Y-122657000D01*
X141427400Y-122657000D02*
X140322200Y-123762200D01*
X134620000Y-126250700D02*
X135241900Y-125628800D01*
X137108500Y-123762200D02*
X135241900Y-125628800D01*
X153300000Y-111700000D02*
X153300000Y-117173800D01*
X134620000Y-130492500D02*
X134620000Y-126250700D01*
%TO.N,/A13*%
X139194700Y-125696200D02*
X138388200Y-125696200D01*
X137160000Y-126924400D02*
X138388200Y-125696200D01*
X141663600Y-123227300D02*
X139194700Y-125696200D01*
X153950000Y-111700000D02*
X153950000Y-117330800D01*
X148053500Y-123227300D02*
X141663600Y-123227300D01*
X153950000Y-117330800D02*
X148053500Y-123227300D01*
X137160000Y-130492500D02*
X137160000Y-126924400D01*
%TO.N,/A14*%
X154600000Y-117487300D02*
X148289700Y-123797600D01*
X139700000Y-127785500D02*
X139700000Y-130492500D01*
X143687900Y-123797600D02*
X139700000Y-127785500D01*
X154600000Y-111700000D02*
X154600000Y-117487300D01*
X148289700Y-123797600D02*
X143687900Y-123797600D01*
%TO.N,/A15*%
X155250000Y-117643800D02*
X148525900Y-124367900D01*
X142240000Y-127752900D02*
X142240000Y-130492500D01*
X155250000Y-111700000D02*
X155250000Y-117643800D01*
X145625000Y-124367900D02*
X142240000Y-127752900D01*
X148525900Y-124367900D02*
X145625000Y-124367900D01*
%TO.N,/A16*%
X147633300Y-124938200D02*
X144780000Y-127791500D01*
X144780000Y-127791500D02*
X144780000Y-130492500D01*
X148762200Y-124938200D02*
X147633300Y-124938200D01*
X155900000Y-111700000D02*
X155900000Y-117800400D01*
X155900000Y-117800400D02*
X148762200Y-124938200D01*
%TO.N,/A17*%
X156550000Y-111700000D02*
X156550000Y-117958800D01*
X147320000Y-127188800D02*
X147320000Y-130492500D01*
X156550000Y-117958800D02*
X147320000Y-127188800D01*
%TO.N,/A18*%
X149860000Y-125481500D02*
X149860000Y-130492500D01*
X157200000Y-118141500D02*
X149860000Y-125481500D01*
X157200000Y-111700000D02*
X157200000Y-118141500D01*
%TO.N,/A19*%
X151622000Y-129714500D02*
X152400000Y-130492500D01*
X157850000Y-118324400D02*
X151622000Y-124552400D01*
X157850000Y-111700000D02*
X157850000Y-118324400D01*
X151622000Y-124552400D02*
X151622000Y-129714500D01*
%TO.N,/A2*%
X109220000Y-121303900D02*
X110862900Y-119661000D01*
X125416600Y-119661000D02*
X126581700Y-120826100D01*
X134933000Y-115006500D02*
X144716700Y-115006500D01*
X144716700Y-115006500D02*
X145537300Y-114185900D01*
X126581700Y-120826100D02*
X129113400Y-120826100D01*
X109220000Y-130492500D02*
X109220000Y-121303900D01*
X110862900Y-119661000D02*
X125416600Y-119661000D01*
X145537300Y-111737300D02*
X145500000Y-111700000D01*
X129113400Y-120826100D02*
X134933000Y-115006500D01*
X145537300Y-114185900D02*
X145537300Y-111737300D01*
%TO.N,/A3*%
X129349600Y-121396400D02*
X135032100Y-115713900D01*
X144815800Y-115713900D02*
X146150000Y-114379700D01*
X111760000Y-130492500D02*
X111760000Y-121382600D01*
X135032100Y-115713900D02*
X144815800Y-115713900D01*
X125406200Y-120457100D02*
X126345500Y-121396400D01*
X111760000Y-121382600D02*
X112378800Y-120763800D01*
X112378800Y-120763800D02*
X112685500Y-120457100D01*
X146150000Y-114379700D02*
X146150000Y-111700000D01*
X126345500Y-121396400D02*
X129349600Y-121396400D01*
X112685500Y-120457100D02*
X125406200Y-120457100D01*
%TO.N,/A4*%
X133459900Y-118092600D02*
X144100700Y-118092600D01*
X129585800Y-121966700D02*
X133459900Y-118092600D01*
X144100700Y-118092600D02*
X145428500Y-116764800D01*
X114300000Y-122979900D02*
X115954300Y-121325600D01*
X125468200Y-121325600D02*
X126109300Y-121966700D01*
X145428500Y-115907700D02*
X146800000Y-114536200D01*
X115954300Y-121325600D02*
X125468200Y-121325600D01*
X146800000Y-114536200D02*
X146800000Y-111700000D01*
X145428500Y-116764800D02*
X145428500Y-115907700D01*
X114300000Y-130492500D02*
X114300000Y-122979900D01*
X126109300Y-121966700D02*
X129585800Y-121966700D01*
%TO.N,/A5*%
X117741300Y-122157400D02*
X117936600Y-121962100D01*
X117936600Y-121962100D02*
X125298200Y-121962100D01*
X116840000Y-123058700D02*
X117741300Y-122157400D01*
X133696000Y-118663000D02*
X144396200Y-118663000D01*
X145998800Y-117060400D02*
X145998800Y-116143900D01*
X147450000Y-114692700D02*
X147450000Y-111700000D01*
X144396200Y-118663000D02*
X145998800Y-117060400D01*
X125873100Y-122537000D02*
X129822000Y-122537000D01*
X125298200Y-121962100D02*
X125873100Y-122537000D01*
X129822000Y-122537000D02*
X133696000Y-118663000D01*
X145998800Y-116143900D02*
X147450000Y-114692700D01*
X116840000Y-130492500D02*
X116840000Y-123058700D01*
%TO.N,/A6*%
X120192500Y-122792800D02*
X120265500Y-122719800D01*
X130058200Y-123107300D02*
X133932100Y-119233400D01*
X146570500Y-116415200D02*
X148100000Y-114885700D01*
X125249400Y-122719800D02*
X125636900Y-123107300D01*
X119380000Y-123605300D02*
X120192500Y-122792800D01*
X146570500Y-117322700D02*
X146570500Y-116415200D01*
X133932100Y-119233400D02*
X144659800Y-119233400D01*
X119380000Y-130492500D02*
X119380000Y-123605300D01*
X125636900Y-123107300D02*
X130058200Y-123107300D01*
X144659800Y-119233400D02*
X146570500Y-117322700D01*
X148100000Y-114885700D02*
X148100000Y-111700000D01*
X120265500Y-122719800D02*
X125249400Y-122719800D01*
%TO.N,/A7*%
X121920000Y-130492500D02*
X121920000Y-126055100D01*
X121920000Y-126055100D02*
X122687400Y-125287700D01*
X147413900Y-117312400D02*
X147413900Y-116394700D01*
X130418800Y-123677600D02*
X134292600Y-119803800D01*
X122687400Y-125287700D02*
X124297500Y-123677600D01*
X147413900Y-116394700D02*
X148750000Y-115058600D01*
X122687400Y-125287700D02*
X120994700Y-123595000D01*
X124297500Y-123677600D02*
X130418800Y-123677600D01*
X134292600Y-119803800D02*
X144922500Y-119803800D01*
X144922500Y-119803800D02*
X147413900Y-117312400D01*
X148750000Y-115058600D02*
X148750000Y-111700000D01*
%TO.N,/A8*%
X131070100Y-124247900D02*
X133866800Y-121451200D01*
X146852600Y-120375800D02*
X135374200Y-120375800D01*
X150050000Y-111700000D02*
X150050000Y-117178400D01*
X135374200Y-120375800D02*
X134298800Y-121451200D01*
X124460000Y-130492500D02*
X124460000Y-127753200D01*
X124460000Y-127753200D02*
X127965300Y-124247900D01*
X133866800Y-121451200D02*
X134298800Y-121451200D01*
X127965300Y-124247900D02*
X131070100Y-124247900D01*
X150050000Y-117178400D02*
X146852600Y-120375800D01*
%TO.N,/A9*%
X136406100Y-120946100D02*
X135302300Y-122049900D01*
X147088800Y-120946100D02*
X136406100Y-120946100D01*
X127000000Y-127721000D02*
X129569400Y-125151600D01*
X150700000Y-117334900D02*
X147088800Y-120946100D01*
X127000000Y-130492500D02*
X127000000Y-127721000D01*
X150700000Y-111700000D02*
X150700000Y-117334900D01*
X129569400Y-125151600D02*
X131187700Y-125151600D01*
X133760300Y-123591900D02*
X135302300Y-122049900D01*
X131187700Y-125151600D02*
X132747400Y-123591900D01*
X132747400Y-123591900D02*
X133760300Y-123591900D01*
%TO.N,/AEN*%
X161489000Y-112536800D02*
X165167500Y-108858300D01*
X154940000Y-130492500D02*
X154940000Y-126661300D01*
X165167500Y-108858300D02*
X165167500Y-107820300D01*
X165167500Y-107820300D02*
X164272200Y-106925000D01*
X164272200Y-106925000D02*
X162400000Y-106925000D01*
X161489000Y-120112300D02*
X161489000Y-112536800D01*
X154940000Y-126661300D02*
X161489000Y-120112300D01*
%TO.N,/D0*%
X160020000Y-123293800D02*
X163212900Y-120100900D01*
X164689900Y-105625000D02*
X162400000Y-105625000D01*
X166311100Y-109329800D02*
X166311100Y-107246200D01*
X160020000Y-130492500D02*
X160020000Y-123293800D01*
X166311100Y-107246200D02*
X164689900Y-105625000D01*
X163212900Y-120100900D02*
X163212900Y-112428000D01*
X163212900Y-112428000D02*
X166311100Y-109329800D01*
%TO.N,/D2*%
X167451700Y-106773800D02*
X165002900Y-104325000D01*
X165100000Y-112153900D02*
X167451700Y-109802200D01*
X167451700Y-109802200D02*
X167451700Y-106773800D01*
X165100000Y-130492500D02*
X165100000Y-112153900D01*
X165002900Y-104325000D02*
X162400000Y-104325000D01*
%TO.N,/D3*%
X165159400Y-103675000D02*
X162400000Y-103675000D01*
X167640000Y-130492500D02*
X168022000Y-130110500D01*
X168022000Y-106537600D02*
X165159400Y-103675000D01*
X168022000Y-130110500D02*
X168022000Y-106537600D01*
%TO.N,/D4*%
X170180000Y-130492500D02*
X170180000Y-107889100D01*
X170180000Y-107889100D02*
X165315900Y-103025000D01*
X165315900Y-103025000D02*
X162400000Y-103025000D01*
%TO.N,/D5*%
X172719900Y-109622500D02*
X165472400Y-102375000D01*
X172719900Y-130492500D02*
X172719900Y-109622500D01*
X165472400Y-102375000D02*
X162400000Y-102375000D01*
X172720000Y-130492500D02*
X172719900Y-130492500D01*
%TO.N,/D6*%
X175260000Y-111356100D02*
X165628900Y-101725000D01*
X175260000Y-130492500D02*
X175260000Y-111356100D01*
X165628900Y-101725000D02*
X162400000Y-101725000D01*
%TO.N,/D7*%
X177800000Y-113089600D02*
X165785400Y-101075000D01*
X177800000Y-130492500D02*
X177800000Y-113089600D01*
X165785400Y-101075000D02*
X162400000Y-101075000D01*
%TO.N,/~{IOR}*%
X152452600Y-124854700D02*
X152452600Y-124896400D01*
X159150000Y-111700000D02*
X159150000Y-118157300D01*
X159150000Y-118157300D02*
X152452600Y-124854700D01*
%TO.N,/~{IOW}*%
X153283300Y-125608800D02*
X153112500Y-125779600D01*
X159800000Y-118335700D02*
X153283300Y-124852400D01*
X153283300Y-124852400D02*
X153283300Y-125608800D01*
X159800000Y-111700000D02*
X159800000Y-118335700D01*
%TO.N,GND*%
X140049100Y-100136100D02*
X139688000Y-99775000D01*
X200338100Y-121852100D02*
X201041000Y-122555000D01*
X192520000Y-102390000D02*
X192110000Y-102800000D01*
X195772800Y-82337200D02*
X195772800Y-78066300D01*
X141574700Y-100136100D02*
X140049100Y-100136100D01*
X199343900Y-67737100D02*
X200338100Y-67737100D01*
X150837900Y-108917700D02*
X149400000Y-110355600D01*
X129005000Y-91195000D02*
X129005000Y-93625000D01*
X155977700Y-79911600D02*
X185488400Y-79911600D01*
X202738100Y-124252100D02*
X201743900Y-124252100D01*
X193300000Y-72100000D02*
X193400000Y-72000000D01*
X135697600Y-99775000D02*
X138400000Y-99775000D01*
X200338100Y-120857900D02*
X200338100Y-121852100D01*
X200338100Y-67737100D02*
X201041000Y-68440000D01*
X200338100Y-120857900D02*
X201041000Y-120155000D01*
X159175000Y-93700000D02*
X159175000Y-92407700D01*
X191553300Y-73846700D02*
X193300000Y-72100000D01*
X186620000Y-90100000D02*
X182600000Y-90100000D01*
X201743900Y-66742900D02*
X201041000Y-66040000D01*
X201743900Y-67737100D02*
X201743900Y-66742900D01*
X155586100Y-79520000D02*
X155977700Y-79911600D01*
X192110000Y-102800000D02*
X182600000Y-102800000D01*
X129600000Y-90600000D02*
X129005000Y-91195000D01*
X201743900Y-64342900D02*
X201041000Y-63640000D01*
X140720800Y-97585500D02*
X142079600Y-98944300D01*
X202738100Y-64342900D02*
X201743900Y-64342900D01*
X199343900Y-120857900D02*
X200338100Y-120857900D01*
X122492900Y-108627100D02*
X125020000Y-106100000D01*
X193400000Y-72000000D02*
X193400000Y-68500000D01*
X201743900Y-120857900D02*
X201041000Y-120155000D01*
X192520000Y-85590000D02*
X195772800Y-82337200D01*
X139927500Y-97585500D02*
X140720800Y-97585500D01*
X142079600Y-99631200D02*
X141574700Y-100136100D01*
X125020000Y-106100000D02*
X129372600Y-106100000D01*
X149400000Y-110355600D02*
X149400000Y-111700000D01*
X129372600Y-106100000D02*
X135697600Y-99775000D01*
X158106400Y-108917700D02*
X150837900Y-108917700D01*
X182600000Y-90100000D02*
X165800000Y-90100000D01*
X186690000Y-90170000D02*
X186620000Y-90100000D01*
X109332900Y-108627100D02*
X122492900Y-108627100D01*
X181500000Y-121100000D02*
X181500000Y-104042200D01*
X165800000Y-90100000D02*
X165000000Y-89300000D01*
X139688000Y-97825000D02*
X139927500Y-97585500D01*
X158106400Y-108917700D02*
X158106400Y-103418800D01*
X181500000Y-104042200D02*
X181428900Y-103971100D01*
X159175000Y-92407700D02*
X162282700Y-89300000D01*
X201743900Y-67737100D02*
X201041000Y-68440000D01*
X158500000Y-109311300D02*
X158106400Y-108917700D01*
X162282700Y-89300000D02*
X165000000Y-89300000D01*
X202738100Y-120857900D02*
X201743900Y-120857900D01*
X177882800Y-100425000D02*
X162400000Y-100425000D01*
X148600000Y-116900000D02*
X149400000Y-116100000D01*
X158500000Y-111700000D02*
X158500000Y-109311300D01*
X138400000Y-97825000D02*
X139688000Y-97825000D01*
X192520000Y-86840000D02*
X190020000Y-86840000D01*
X158106400Y-103418800D02*
X161100200Y-100425000D01*
X139688000Y-99775000D02*
X138400000Y-99775000D01*
X142079600Y-98944300D02*
X142079600Y-99631200D01*
X201743900Y-124252100D02*
X201041000Y-124955000D01*
X154400000Y-79520000D02*
X155586100Y-79520000D01*
X185488400Y-79911600D02*
X191553300Y-73846700D01*
X161100200Y-100425000D02*
X162400000Y-100425000D01*
X149400000Y-116100000D02*
X149400000Y-111700000D01*
X192520000Y-86840000D02*
X192520000Y-85590000D01*
X105460000Y-112500000D02*
X109332900Y-108627100D01*
X202738100Y-67737100D02*
X201743900Y-67737100D01*
X190020000Y-86840000D02*
X186690000Y-90170000D01*
X195772800Y-78066300D02*
X191553300Y-73846700D01*
X182600000Y-102800000D02*
X181428900Y-103971100D01*
X181428900Y-103971100D02*
X177882800Y-100425000D01*
%TO.N,VCC*%
X136490000Y-63100000D02*
X137726100Y-63100000D01*
X142020000Y-63035000D02*
X137791100Y-63035000D01*
X138400000Y-101725000D02*
X144200000Y-101725000D01*
X159032100Y-89300000D02*
X160000000Y-89300000D01*
X137791100Y-63035000D02*
X137726100Y-63100000D01*
X133950000Y-63100000D02*
X129100000Y-63100000D01*
X144200000Y-101725000D02*
X144225000Y-101725000D01*
X180186100Y-121470700D02*
X181037200Y-122321800D01*
X200470000Y-95086700D02*
X198950000Y-93566700D01*
X200470000Y-100940000D02*
X200470000Y-95086700D01*
X149640000Y-63035000D02*
X158458900Y-63035000D01*
X147100000Y-63035000D02*
X144560000Y-63035000D01*
X125195000Y-92327300D02*
X126843100Y-92327300D01*
X181037200Y-122321800D02*
X181968300Y-122321800D01*
X144560000Y-63035000D02*
X142020000Y-63035000D01*
X180186100Y-121100000D02*
X180186100Y-121470700D01*
X125195000Y-93625000D02*
X118790100Y-93625000D01*
X159720000Y-63060000D02*
X158483900Y-63060000D01*
X162260000Y-63060000D02*
X159720000Y-63060000D01*
X198950000Y-93566700D02*
X198950000Y-88290000D01*
X136490000Y-63100000D02*
X133950000Y-63100000D01*
X179000000Y-121100000D02*
X180186100Y-121100000D01*
X155925000Y-92407100D02*
X159032100Y-89300000D01*
X124600000Y-90600000D02*
X124600000Y-91732300D01*
X151350000Y-111700000D02*
X151350000Y-109964400D01*
X147100000Y-63035000D02*
X149640000Y-63035000D01*
X167340000Y-63060000D02*
X164800000Y-63060000D01*
X124600000Y-91732300D02*
X125195000Y-92327300D01*
X147475000Y-98475000D02*
X147475000Y-93700000D01*
X200470000Y-103820100D02*
X200470000Y-100940000D01*
X144200000Y-101725000D02*
X144200000Y-111700000D01*
X181968300Y-122321800D02*
X200470000Y-103820100D01*
X144225000Y-101725000D02*
X147475000Y-98475000D01*
X118790100Y-93625000D02*
X110117200Y-102297900D01*
X159373900Y-98475000D02*
X147475000Y-98475000D01*
X126843100Y-92327300D02*
X127735000Y-93219200D01*
X164800000Y-63060000D02*
X162260000Y-63060000D01*
X162400000Y-98475000D02*
X159373900Y-98475000D01*
X151350000Y-109964400D02*
X151179700Y-109794100D01*
X127735000Y-93219200D02*
X127735000Y-93625000D01*
X155925000Y-93700000D02*
X155925000Y-92407100D01*
X158458900Y-63035000D02*
X158483900Y-63060000D01*
X125195000Y-92327300D02*
X125195000Y-93625000D01*
%TO.N,/RSTDRV*%
X164297800Y-108184800D02*
X163688000Y-107575000D01*
X163688000Y-107575000D02*
X162400000Y-107575000D01*
%TO.N,/IRQ9*%
X143481800Y-113605600D02*
X142925000Y-113048800D01*
X142925000Y-113048800D02*
X142925000Y-111700000D01*
X144136400Y-113605600D02*
X143481800Y-113605600D01*
%TO.N,/~{SMEMW}*%
X158937000Y-106062900D02*
X158937000Y-104523500D01*
X162400000Y-108225000D02*
X161099100Y-108225000D01*
X161099100Y-108225000D02*
X158937000Y-106062900D01*
%TO.N,/~{SMEMR}*%
X160451400Y-110823600D02*
X160451400Y-118858900D01*
X162400000Y-108875000D02*
X160451400Y-110823600D01*
X160451400Y-118858900D02*
X154113900Y-125196400D01*
%TO.N,/IRQ5*%
X140975000Y-111700000D02*
X134860900Y-111700000D01*
X134860900Y-111700000D02*
X128076300Y-118484600D01*
%TO.N,/IRQ4*%
X127473900Y-119425200D02*
X128310400Y-119425200D01*
X140835400Y-113805800D02*
X141625000Y-113016200D01*
X128310400Y-119425200D02*
X133929800Y-113805800D01*
X141625000Y-113016200D02*
X141625000Y-111700000D01*
X133929800Y-113805800D02*
X140835400Y-113805800D01*
%TO.N,/IRQ3*%
X126660100Y-118515300D02*
X135138900Y-110036500D01*
X135138900Y-110036500D02*
X141927200Y-110036500D01*
X142275000Y-110384300D02*
X142275000Y-111700000D01*
X141927200Y-110036500D02*
X142275000Y-110384300D01*
%TO.N,/IOCHRDY*%
X157480000Y-130492500D02*
X157480000Y-124931300D01*
X165739300Y-109095100D02*
X165739300Y-107517000D01*
X164497300Y-106275000D02*
X162400000Y-106275000D01*
X165739300Y-107517000D02*
X164497300Y-106275000D01*
X162626900Y-119784400D02*
X162626900Y-112207500D01*
X162626900Y-112207500D02*
X165739300Y-109095100D01*
X157480000Y-124931300D02*
X162626900Y-119784400D01*
%TO.N,/~{IOCS16}*%
X135180000Y-106100000D02*
X136366100Y-106100000D01*
X136541100Y-106275000D02*
X136366100Y-106100000D01*
X138400000Y-106275000D02*
X136541100Y-106275000D01*
%TO.N,Net-(U1-X1)*%
X184900000Y-75380000D02*
X185020000Y-75380000D01*
X162400000Y-96525000D02*
X162723500Y-96201500D01*
X185020000Y-75380000D02*
X188300000Y-72100000D01*
X162723500Y-96201500D02*
X162723500Y-95671800D01*
%TO.N,Net-(U1-X2)*%
X184900000Y-65220000D02*
X186086100Y-65220000D01*
X186086100Y-65220000D02*
X186086100Y-66186100D01*
X160026400Y-93700000D02*
X161093400Y-92633000D01*
X159825000Y-93700000D02*
X160026400Y-93700000D01*
X186086100Y-66186100D02*
X188400000Y-68500000D01*
%TO.N,Net-(J1-TCT)*%
X186690000Y-95250000D02*
X182750000Y-95250000D01*
X182750000Y-95250000D02*
X182600000Y-95100000D01*
%TO.N,Net-(J1-RCT)*%
X187776300Y-101312900D02*
X189437500Y-101312900D01*
X190632600Y-100117800D02*
X190632600Y-95382600D01*
X189437500Y-101312900D02*
X190632600Y-100117800D01*
X190632600Y-95382600D02*
X189230000Y-93980000D01*
%TO.N,/TP_RX-*%
X155275000Y-95005000D02*
X155275000Y-93700000D01*
X160126500Y-95336500D02*
X155606500Y-95336500D01*
X186690000Y-92710000D02*
X162753000Y-92710000D01*
X162753000Y-92710000D02*
X160126500Y-95336500D01*
X155606500Y-95336500D02*
X155275000Y-95005000D01*
%TO.N,/TP_RX+*%
X194580000Y-80826000D02*
X188416600Y-86989400D01*
X188416600Y-86989400D02*
X160046800Y-86989400D01*
X194580000Y-78600000D02*
X194580000Y-80826000D01*
X154625000Y-92411200D02*
X154625000Y-93700000D01*
X160046800Y-86989400D02*
X154625000Y-92411200D01*
%TO.N,/TP_TX-*%
X185355000Y-99125000D02*
X162400000Y-99125000D01*
X186690000Y-97790000D02*
X185355000Y-99125000D01*
%TO.N,/TP_TX+*%
X187893900Y-99060000D02*
X187178900Y-99775000D01*
X187178900Y-99775000D02*
X162400000Y-99775000D01*
X189230000Y-99060000D02*
X187893900Y-99060000D01*
%TO.N,/LED_LINK*%
X153325000Y-94992900D02*
X153325000Y-93700000D01*
X155778300Y-97446200D02*
X153325000Y-94992900D01*
X160386400Y-97446200D02*
X155778300Y-97446200D01*
%TO.N,/JP*%
X141830000Y-82700000D02*
X135841700Y-82700000D01*
X127449000Y-77571000D02*
X126240000Y-78780000D01*
X130712700Y-77571000D02*
X127449000Y-77571000D01*
X150725000Y-91595000D02*
X141830000Y-82700000D01*
X135841700Y-82700000D02*
X130712700Y-77571000D01*
X150725000Y-93700000D02*
X150725000Y-91595000D01*
%TO.N,/BA18*%
X139956100Y-83840600D02*
X148064500Y-91949000D01*
X105460000Y-74400000D02*
X106544600Y-74400000D01*
X164800000Y-78680000D02*
X163096400Y-76976400D01*
X126330600Y-76976400D02*
X125024700Y-78282300D01*
X129570600Y-83840600D02*
X139956100Y-83840600D01*
X125024700Y-78282300D02*
X110426900Y-78282300D01*
X125024700Y-79294700D02*
X129570600Y-83840600D01*
X148064500Y-91949000D02*
X148064500Y-93639500D01*
X163096400Y-76976400D02*
X126330600Y-76976400D01*
X125024700Y-78282300D02*
X125024700Y-79294700D01*
X148064500Y-93639500D02*
X148125000Y-93700000D01*
X110426900Y-78282300D02*
X106544600Y-74400000D01*
%TO.N,/BA17*%
X127182300Y-84569200D02*
X139787300Y-84569200D01*
X120700000Y-79480000D02*
X122093100Y-79480000D01*
X146825000Y-91606900D02*
X146825000Y-93700000D01*
X122093100Y-79480000D02*
X127182300Y-84569200D01*
X139787300Y-84569200D02*
X146825000Y-91606900D01*
%TO.N,/BA16*%
X125957400Y-85139500D02*
X139549200Y-85139500D01*
X123958100Y-83140200D02*
X125957400Y-85139500D01*
X104375400Y-73477000D02*
X104546000Y-73306400D01*
X105460000Y-76940000D02*
X111660200Y-83140200D01*
X146175000Y-91765300D02*
X146175000Y-93700000D01*
X105460000Y-76940000D02*
X104375400Y-75855400D01*
X104546000Y-73306400D02*
X165626400Y-73306400D01*
X104375400Y-75855400D02*
X104375400Y-73477000D01*
X111660200Y-83140200D02*
X123958100Y-83140200D01*
X165626400Y-73306400D02*
X171000000Y-78680000D01*
X139549200Y-85139500D02*
X146175000Y-91765300D01*
%TO.N,/BD6*%
X132373900Y-94829000D02*
X130531500Y-96671400D01*
X135804200Y-95339300D02*
X135293900Y-94829000D01*
X141923700Y-95339300D02*
X135804200Y-95339300D01*
X129126700Y-97010600D02*
X127735000Y-98402300D01*
X142275000Y-94988000D02*
X141923700Y-95339300D01*
X142275000Y-93700000D02*
X142275000Y-94988000D01*
X135293900Y-94829000D02*
X132373900Y-94829000D01*
X127735000Y-98402300D02*
X127735000Y-98775000D01*
X130192300Y-97010600D02*
X129126700Y-97010600D01*
X130531500Y-96671400D02*
X130192300Y-97010600D01*
%TO.N,/BD5*%
X129588000Y-96440300D02*
X128379200Y-96440300D01*
X141625000Y-93700000D02*
X141625000Y-92391600D01*
X133299900Y-92728400D02*
X129588000Y-96440300D01*
X141625000Y-92391600D02*
X141296900Y-92063500D01*
X135435000Y-92063500D02*
X134770100Y-92728400D01*
X141296900Y-92063500D02*
X135435000Y-92063500D01*
X134770100Y-92728400D02*
X133299900Y-92728400D01*
X128379200Y-96440300D02*
X126465000Y-98354500D01*
X126465000Y-98354500D02*
X126465000Y-98775000D01*
%TO.N,/BD4*%
X140975000Y-93700000D02*
X139757000Y-93700000D01*
%TO.N,/BD3*%
X138400000Y-96525000D02*
X134587400Y-96525000D01*
X134587400Y-96525000D02*
X134295700Y-96233300D01*
X134295700Y-96233300D02*
X133976600Y-96233300D01*
%TO.N,/BD2*%
X138400000Y-97175000D02*
X134106800Y-97175000D01*
X134106800Y-97175000D02*
X133957500Y-97324300D01*
X111810000Y-103610000D02*
X105460000Y-109960000D01*
X127671800Y-103610000D02*
X111810000Y-103610000D01*
X133957500Y-97324300D02*
X127671800Y-103610000D01*
%TO.N,/BD1*%
X138400000Y-98475000D02*
X140369700Y-98475000D01*
X140369700Y-98475000D02*
X140399600Y-98445100D01*
X106853100Y-107420000D02*
X112964000Y-101309100D01*
X105460000Y-107420000D02*
X106853100Y-107420000D01*
X112964000Y-101309100D02*
X119292500Y-101309100D01*
%TO.N,/BD0*%
X124682300Y-104270700D02*
X122803000Y-106150000D01*
X129044600Y-104270700D02*
X124682300Y-104270700D01*
X140072700Y-99292800D02*
X139904900Y-99125000D01*
X106019600Y-111095600D02*
X105018300Y-111095600D01*
X139904900Y-99125000D02*
X138400000Y-99125000D01*
X110965200Y-106150000D02*
X106019600Y-111095600D01*
X141212300Y-99292800D02*
X140072700Y-99292800D01*
X138400000Y-99125000D02*
X134190300Y-99125000D01*
X104341600Y-105998400D02*
X105460000Y-104880000D01*
X122803000Y-106150000D02*
X110965200Y-106150000D01*
X104341600Y-110418900D02*
X104341600Y-105998400D01*
X105018300Y-111095600D02*
X104341600Y-110418900D01*
X134190300Y-99125000D02*
X129044600Y-104270700D01*
%TO.N,/BA15*%
X111810000Y-85830000D02*
X139424600Y-85830000D01*
X145525000Y-91930400D02*
X145525000Y-93700000D01*
X105460000Y-79480000D02*
X111810000Y-85830000D01*
X139424600Y-85830000D02*
X145525000Y-91930400D01*
%TO.N,/BA14*%
X139482100Y-86694000D02*
X123814300Y-86694000D01*
X144875000Y-93700000D02*
X144875000Y-92086900D01*
X144875000Y-92086900D02*
X139482100Y-86694000D01*
%TO.N,/~{BCS}*%
X128975300Y-95299700D02*
X133386400Y-90888600D01*
X125200300Y-95299700D02*
X128975300Y-95299700D01*
X120700000Y-99800000D02*
X125200300Y-95299700D01*
X144225000Y-92253500D02*
X144225000Y-93700000D01*
X133386400Y-90888600D02*
X142860100Y-90888600D01*
X142860100Y-90888600D02*
X144225000Y-92253500D01*
%TO.N,/EECS*%
X142623900Y-91458900D02*
X143575000Y-92410000D01*
X133762900Y-91458900D02*
X142623900Y-91458900D01*
X143575000Y-92410000D02*
X143575000Y-93700000D01*
X125195000Y-98775000D02*
X125195000Y-98401800D01*
X129351800Y-95870000D02*
X133762900Y-91458900D01*
X127726800Y-95870000D02*
X129351800Y-95870000D01*
X125195000Y-98401800D02*
X127726800Y-95870000D01*
%TO.N,/BD7*%
X135584600Y-95932100D02*
X135055100Y-95402600D01*
X130220800Y-98775000D02*
X129005000Y-98775000D01*
X142925000Y-95159700D02*
X142152600Y-95932100D01*
X142152600Y-95932100D02*
X135584600Y-95932100D01*
X125819900Y-102340000D02*
X120700000Y-102340000D01*
X135055100Y-95402600D02*
X133593200Y-95402600D01*
X129005000Y-99154900D02*
X125819900Y-102340000D01*
X142925000Y-93700000D02*
X142925000Y-95159700D01*
X133593200Y-95402600D02*
X130220800Y-98775000D01*
X129005000Y-98775000D02*
X129005000Y-99154900D01*
%TO.N,/BA19*%
X148775000Y-93700000D02*
X148775000Y-95606500D01*
%TO.N,/BA20*%
X149425000Y-93700000D02*
X149425000Y-92320000D01*
X149425000Y-92320000D02*
X148895200Y-91790200D01*
%TO.N,/BA21*%
X129400000Y-78780000D02*
X133890300Y-83270300D01*
X133890300Y-83270300D02*
X141593800Y-83270300D01*
X150075000Y-91751500D02*
X150075000Y-93700000D01*
X141593800Y-83270300D02*
X150075000Y-91751500D01*
%TO.N,/LED_CRS*%
X153127600Y-91889400D02*
X152675000Y-92342000D01*
X190320000Y-83400000D02*
X162657200Y-83400000D01*
X162657200Y-83400000D02*
X154167800Y-91889400D01*
X152675000Y-92342000D02*
X152675000Y-93700000D01*
X154167800Y-91889400D02*
X153127600Y-91889400D01*
%TO.N,/AUI*%
X151375000Y-92386300D02*
X154081300Y-89680000D01*
X151375000Y-93700000D02*
X151375000Y-92386300D01*
X154081300Y-89680000D02*
X154400000Y-89680000D01*
%TO.N,Net-(J4-Pin_3)*%
X129100000Y-65640000D02*
X129100000Y-67133900D01*
X129100000Y-67133900D02*
X129400000Y-67433900D01*
X129400000Y-68620000D02*
X129400000Y-67433900D01*
%TO.N,Net-(J9-Pin_1)*%
X141100000Y-68555000D02*
X141100000Y-67368900D01*
X142020000Y-65575000D02*
X142020000Y-66811100D01*
X141462200Y-67368900D02*
X141100000Y-67368900D01*
X142020000Y-66811100D02*
X141462200Y-67368900D01*
%TO.N,Net-(J9-Pin_3)*%
X144560000Y-67008900D02*
X144200000Y-67368900D01*
X144560000Y-65575000D02*
X144560000Y-67008900D01*
X144200000Y-68555000D02*
X144200000Y-67368900D01*
%TD*%
M02*
