%TF.GenerationSoftware,KiCad,Pcbnew,7.0.11*%
%TF.CreationDate,2024-10-11T23:56:48+03:00*%
%TF.ProjectId,ISA8_Ethernet,49534138-5f45-4746-9865-726e65742e6b,1.0*%
%TF.SameCoordinates,Original*%
%TF.FileFunction,Legend,Top*%
%TF.FilePolarity,Positive*%
%FSLAX46Y46*%
G04 Gerber Fmt 4.6, Leading zero omitted, Abs format (unit mm)*
G04 Created by KiCad (PCBNEW 7.0.11) date 2024-10-11 23:56:48*
%MOMM*%
%LPD*%
G01*
G04 APERTURE LIST*
%ADD10C,0.150000*%
%ADD11C,0.100000*%
%ADD12C,0.120000*%
G04 APERTURE END LIST*
D10*
X162766598Y-61442200D02*
X162980884Y-61513628D01*
X162980884Y-61513628D02*
X163338026Y-61513628D01*
X163338026Y-61513628D02*
X163480884Y-61442200D01*
X163480884Y-61442200D02*
X163552312Y-61370771D01*
X163552312Y-61370771D02*
X163623741Y-61227914D01*
X163623741Y-61227914D02*
X163623741Y-61085057D01*
X163623741Y-61085057D02*
X163552312Y-60942200D01*
X163552312Y-60942200D02*
X163480884Y-60870771D01*
X163480884Y-60870771D02*
X163338026Y-60799342D01*
X163338026Y-60799342D02*
X163052312Y-60727914D01*
X163052312Y-60727914D02*
X162909455Y-60656485D01*
X162909455Y-60656485D02*
X162838026Y-60585057D01*
X162838026Y-60585057D02*
X162766598Y-60442200D01*
X162766598Y-60442200D02*
X162766598Y-60299342D01*
X162766598Y-60299342D02*
X162838026Y-60156485D01*
X162838026Y-60156485D02*
X162909455Y-60085057D01*
X162909455Y-60085057D02*
X163052312Y-60013628D01*
X163052312Y-60013628D02*
X163409455Y-60013628D01*
X163409455Y-60013628D02*
X163623741Y-60085057D01*
X164123740Y-60013628D02*
X164480883Y-61513628D01*
X164480883Y-61513628D02*
X164766597Y-60442200D01*
X164766597Y-60442200D02*
X165052312Y-61513628D01*
X165052312Y-61513628D02*
X165409455Y-60013628D01*
X166623741Y-60513628D02*
X166623741Y-61513628D01*
X166266598Y-59942200D02*
X165909455Y-61013628D01*
X165909455Y-61013628D02*
X166838026Y-61013628D01*
X143886798Y-61442200D02*
X144101084Y-61513628D01*
X144101084Y-61513628D02*
X144458226Y-61513628D01*
X144458226Y-61513628D02*
X144601084Y-61442200D01*
X144601084Y-61442200D02*
X144672512Y-61370771D01*
X144672512Y-61370771D02*
X144743941Y-61227914D01*
X144743941Y-61227914D02*
X144743941Y-61085057D01*
X144743941Y-61085057D02*
X144672512Y-60942200D01*
X144672512Y-60942200D02*
X144601084Y-60870771D01*
X144601084Y-60870771D02*
X144458226Y-60799342D01*
X144458226Y-60799342D02*
X144172512Y-60727914D01*
X144172512Y-60727914D02*
X144029655Y-60656485D01*
X144029655Y-60656485D02*
X143958226Y-60585057D01*
X143958226Y-60585057D02*
X143886798Y-60442200D01*
X143886798Y-60442200D02*
X143886798Y-60299342D01*
X143886798Y-60299342D02*
X143958226Y-60156485D01*
X143958226Y-60156485D02*
X144029655Y-60085057D01*
X144029655Y-60085057D02*
X144172512Y-60013628D01*
X144172512Y-60013628D02*
X144529655Y-60013628D01*
X144529655Y-60013628D02*
X144743941Y-60085057D01*
X145243940Y-60013628D02*
X145601083Y-61513628D01*
X145601083Y-61513628D02*
X145886797Y-60442200D01*
X145886797Y-60442200D02*
X146172512Y-61513628D01*
X146172512Y-61513628D02*
X146529655Y-60013628D01*
X146958226Y-60013628D02*
X147886798Y-60013628D01*
X147886798Y-60013628D02*
X147386798Y-60585057D01*
X147386798Y-60585057D02*
X147601083Y-60585057D01*
X147601083Y-60585057D02*
X147743941Y-60656485D01*
X147743941Y-60656485D02*
X147815369Y-60727914D01*
X147815369Y-60727914D02*
X147886798Y-60870771D01*
X147886798Y-60870771D02*
X147886798Y-61227914D01*
X147886798Y-61227914D02*
X147815369Y-61370771D01*
X147815369Y-61370771D02*
X147743941Y-61442200D01*
X147743941Y-61442200D02*
X147601083Y-61513628D01*
X147601083Y-61513628D02*
X147172512Y-61513628D01*
X147172512Y-61513628D02*
X147029655Y-61442200D01*
X147029655Y-61442200D02*
X146958226Y-61370771D01*
X133327998Y-61484600D02*
X133542284Y-61556028D01*
X133542284Y-61556028D02*
X133899426Y-61556028D01*
X133899426Y-61556028D02*
X134042284Y-61484600D01*
X134042284Y-61484600D02*
X134113712Y-61413171D01*
X134113712Y-61413171D02*
X134185141Y-61270314D01*
X134185141Y-61270314D02*
X134185141Y-61127457D01*
X134185141Y-61127457D02*
X134113712Y-60984600D01*
X134113712Y-60984600D02*
X134042284Y-60913171D01*
X134042284Y-60913171D02*
X133899426Y-60841742D01*
X133899426Y-60841742D02*
X133613712Y-60770314D01*
X133613712Y-60770314D02*
X133470855Y-60698885D01*
X133470855Y-60698885D02*
X133399426Y-60627457D01*
X133399426Y-60627457D02*
X133327998Y-60484600D01*
X133327998Y-60484600D02*
X133327998Y-60341742D01*
X133327998Y-60341742D02*
X133399426Y-60198885D01*
X133399426Y-60198885D02*
X133470855Y-60127457D01*
X133470855Y-60127457D02*
X133613712Y-60056028D01*
X133613712Y-60056028D02*
X133970855Y-60056028D01*
X133970855Y-60056028D02*
X134185141Y-60127457D01*
X134685140Y-60056028D02*
X135042283Y-61556028D01*
X135042283Y-61556028D02*
X135327997Y-60484600D01*
X135327997Y-60484600D02*
X135613712Y-61556028D01*
X135613712Y-61556028D02*
X135970855Y-60056028D01*
X136470855Y-60198885D02*
X136542283Y-60127457D01*
X136542283Y-60127457D02*
X136685141Y-60056028D01*
X136685141Y-60056028D02*
X137042283Y-60056028D01*
X137042283Y-60056028D02*
X137185141Y-60127457D01*
X137185141Y-60127457D02*
X137256569Y-60198885D01*
X137256569Y-60198885D02*
X137327998Y-60341742D01*
X137327998Y-60341742D02*
X137327998Y-60484600D01*
X137327998Y-60484600D02*
X137256569Y-60698885D01*
X137256569Y-60698885D02*
X136399426Y-61556028D01*
X136399426Y-61556028D02*
X137327998Y-61556028D01*
X125860398Y-61484600D02*
X126074684Y-61556028D01*
X126074684Y-61556028D02*
X126431826Y-61556028D01*
X126431826Y-61556028D02*
X126574684Y-61484600D01*
X126574684Y-61484600D02*
X126646112Y-61413171D01*
X126646112Y-61413171D02*
X126717541Y-61270314D01*
X126717541Y-61270314D02*
X126717541Y-61127457D01*
X126717541Y-61127457D02*
X126646112Y-60984600D01*
X126646112Y-60984600D02*
X126574684Y-60913171D01*
X126574684Y-60913171D02*
X126431826Y-60841742D01*
X126431826Y-60841742D02*
X126146112Y-60770314D01*
X126146112Y-60770314D02*
X126003255Y-60698885D01*
X126003255Y-60698885D02*
X125931826Y-60627457D01*
X125931826Y-60627457D02*
X125860398Y-60484600D01*
X125860398Y-60484600D02*
X125860398Y-60341742D01*
X125860398Y-60341742D02*
X125931826Y-60198885D01*
X125931826Y-60198885D02*
X126003255Y-60127457D01*
X126003255Y-60127457D02*
X126146112Y-60056028D01*
X126146112Y-60056028D02*
X126503255Y-60056028D01*
X126503255Y-60056028D02*
X126717541Y-60127457D01*
X127217540Y-60056028D02*
X127574683Y-61556028D01*
X127574683Y-61556028D02*
X127860397Y-60484600D01*
X127860397Y-60484600D02*
X128146112Y-61556028D01*
X128146112Y-61556028D02*
X128503255Y-60056028D01*
X129860398Y-61556028D02*
X129003255Y-61556028D01*
X129431826Y-61556028D02*
X129431826Y-60056028D01*
X129431826Y-60056028D02*
X129288969Y-60270314D01*
X129288969Y-60270314D02*
X129146112Y-60413171D01*
X129146112Y-60413171D02*
X129003255Y-60484600D01*
X185721666Y-104547319D02*
X185721666Y-105261604D01*
X185721666Y-105261604D02*
X185674047Y-105404461D01*
X185674047Y-105404461D02*
X185578809Y-105499700D01*
X185578809Y-105499700D02*
X185435952Y-105547319D01*
X185435952Y-105547319D02*
X185340714Y-105547319D01*
X186721666Y-105547319D02*
X186150238Y-105547319D01*
X186435952Y-105547319D02*
X186435952Y-104547319D01*
X186435952Y-104547319D02*
X186340714Y-104690176D01*
X186340714Y-104690176D02*
X186245476Y-104785414D01*
X186245476Y-104785414D02*
X186150238Y-104833033D01*
X191487047Y-93774419D02*
X191213237Y-93298228D01*
X190915618Y-93774419D02*
X191040618Y-92774419D01*
X191040618Y-92774419D02*
X191421571Y-92774419D01*
X191421571Y-92774419D02*
X191510856Y-92822038D01*
X191510856Y-92822038D02*
X191552523Y-92869657D01*
X191552523Y-92869657D02*
X191588237Y-92964895D01*
X191588237Y-92964895D02*
X191570380Y-93107752D01*
X191570380Y-93107752D02*
X191510856Y-93202990D01*
X191510856Y-93202990D02*
X191457285Y-93250609D01*
X191457285Y-93250609D02*
X191356095Y-93298228D01*
X191356095Y-93298228D02*
X190975142Y-93298228D01*
X192326333Y-92774419D02*
X192237047Y-93488704D01*
X192237047Y-93488704D02*
X192171571Y-93631561D01*
X192171571Y-93631561D02*
X192064428Y-93726800D01*
X192064428Y-93726800D02*
X191915618Y-93774419D01*
X191915618Y-93774419D02*
X191820380Y-93774419D01*
X192677523Y-93774419D02*
X192802523Y-92774419D01*
X192802523Y-92774419D02*
X193046571Y-93488704D01*
X193046571Y-93488704D02*
X193469190Y-92774419D01*
X193469190Y-92774419D02*
X193344190Y-93774419D01*
X194463238Y-92822038D02*
X194373952Y-92774419D01*
X194373952Y-92774419D02*
X194231095Y-92774419D01*
X194231095Y-92774419D02*
X194082285Y-92822038D01*
X194082285Y-92822038D02*
X193975142Y-92917276D01*
X193975142Y-92917276D02*
X193915618Y-93012514D01*
X193915618Y-93012514D02*
X193844190Y-93202990D01*
X193844190Y-93202990D02*
X193826333Y-93345847D01*
X193826333Y-93345847D02*
X193850142Y-93536323D01*
X193850142Y-93536323D02*
X193885857Y-93631561D01*
X193885857Y-93631561D02*
X193969190Y-93726800D01*
X193969190Y-93726800D02*
X194106095Y-93774419D01*
X194106095Y-93774419D02*
X194201333Y-93774419D01*
X194201333Y-93774419D02*
X194350142Y-93726800D01*
X194350142Y-93726800D02*
X194403714Y-93679180D01*
X194403714Y-93679180D02*
X194445380Y-93345847D01*
X194445380Y-93345847D02*
X194254904Y-93345847D01*
X195344190Y-93774419D02*
X194772761Y-93774419D01*
X195058476Y-93774419D02*
X195183476Y-92774419D01*
X195183476Y-92774419D02*
X195070380Y-92917276D01*
X195070380Y-92917276D02*
X194963238Y-93012514D01*
X194963238Y-93012514D02*
X194862047Y-93060133D01*
X196171571Y-93250609D02*
X196308476Y-93298228D01*
X196308476Y-93298228D02*
X196350142Y-93345847D01*
X196350142Y-93345847D02*
X196385857Y-93441085D01*
X196385857Y-93441085D02*
X196367999Y-93583942D01*
X196367999Y-93583942D02*
X196308476Y-93679180D01*
X196308476Y-93679180D02*
X196254904Y-93726800D01*
X196254904Y-93726800D02*
X196153714Y-93774419D01*
X196153714Y-93774419D02*
X195772761Y-93774419D01*
X195772761Y-93774419D02*
X195897761Y-92774419D01*
X195897761Y-92774419D02*
X196231095Y-92774419D01*
X196231095Y-92774419D02*
X196320380Y-92822038D01*
X196320380Y-92822038D02*
X196362047Y-92869657D01*
X196362047Y-92869657D02*
X196397761Y-92964895D01*
X196397761Y-92964895D02*
X196385857Y-93060133D01*
X196385857Y-93060133D02*
X196326333Y-93155371D01*
X196326333Y-93155371D02*
X196272761Y-93202990D01*
X196272761Y-93202990D02*
X196171571Y-93250609D01*
X196171571Y-93250609D02*
X195838238Y-93250609D01*
X196772761Y-93774419D02*
X196897761Y-92774419D01*
X196897761Y-92774419D02*
X197135857Y-92774419D01*
X197135857Y-92774419D02*
X197272761Y-92822038D01*
X197272761Y-92822038D02*
X197356095Y-92917276D01*
X197356095Y-92917276D02*
X197391809Y-93012514D01*
X197391809Y-93012514D02*
X197415619Y-93202990D01*
X197415619Y-93202990D02*
X197397761Y-93345847D01*
X197397761Y-93345847D02*
X197326333Y-93536323D01*
X197326333Y-93536323D02*
X197266809Y-93631561D01*
X197266809Y-93631561D02*
X197159666Y-93726800D01*
X197159666Y-93726800D02*
X197010857Y-93774419D01*
X197010857Y-93774419D02*
X196772761Y-93774419D01*
X197802523Y-92774419D02*
X198421571Y-92774419D01*
X198421571Y-92774419D02*
X198040619Y-93155371D01*
X198040619Y-93155371D02*
X198183476Y-93155371D01*
X198183476Y-93155371D02*
X198272761Y-93202990D01*
X198272761Y-93202990D02*
X198314428Y-93250609D01*
X198314428Y-93250609D02*
X198350142Y-93345847D01*
X198350142Y-93345847D02*
X198320380Y-93583942D01*
X198320380Y-93583942D02*
X198260857Y-93679180D01*
X198260857Y-93679180D02*
X198207285Y-93726800D01*
X198207285Y-93726800D02*
X198106095Y-93774419D01*
X198106095Y-93774419D02*
X197820380Y-93774419D01*
X197820380Y-93774419D02*
X197731095Y-93726800D01*
X197731095Y-93726800D02*
X197689428Y-93679180D01*
X199123952Y-93250609D02*
X199260857Y-93298228D01*
X199260857Y-93298228D02*
X199302523Y-93345847D01*
X199302523Y-93345847D02*
X199338238Y-93441085D01*
X199338238Y-93441085D02*
X199320380Y-93583942D01*
X199320380Y-93583942D02*
X199260857Y-93679180D01*
X199260857Y-93679180D02*
X199207285Y-93726800D01*
X199207285Y-93726800D02*
X199106095Y-93774419D01*
X199106095Y-93774419D02*
X198725142Y-93774419D01*
X198725142Y-93774419D02*
X198850142Y-92774419D01*
X198850142Y-92774419D02*
X199183476Y-92774419D01*
X199183476Y-92774419D02*
X199272761Y-92822038D01*
X199272761Y-92822038D02*
X199314428Y-92869657D01*
X199314428Y-92869657D02*
X199350142Y-92964895D01*
X199350142Y-92964895D02*
X199338238Y-93060133D01*
X199338238Y-93060133D02*
X199278714Y-93155371D01*
X199278714Y-93155371D02*
X199225142Y-93202990D01*
X199225142Y-93202990D02*
X199123952Y-93250609D01*
X199123952Y-93250609D02*
X198790619Y-93250609D01*
X199939428Y-93202990D02*
X199850142Y-93155371D01*
X199850142Y-93155371D02*
X199808476Y-93107752D01*
X199808476Y-93107752D02*
X199772761Y-93012514D01*
X199772761Y-93012514D02*
X199778714Y-92964895D01*
X199778714Y-92964895D02*
X199838238Y-92869657D01*
X199838238Y-92869657D02*
X199891809Y-92822038D01*
X199891809Y-92822038D02*
X199993000Y-92774419D01*
X199993000Y-92774419D02*
X200183476Y-92774419D01*
X200183476Y-92774419D02*
X200272761Y-92822038D01*
X200272761Y-92822038D02*
X200314428Y-92869657D01*
X200314428Y-92869657D02*
X200350142Y-92964895D01*
X200350142Y-92964895D02*
X200344190Y-93012514D01*
X200344190Y-93012514D02*
X200284666Y-93107752D01*
X200284666Y-93107752D02*
X200231095Y-93155371D01*
X200231095Y-93155371D02*
X200129904Y-93202990D01*
X200129904Y-93202990D02*
X199939428Y-93202990D01*
X199939428Y-93202990D02*
X199838238Y-93250609D01*
X199838238Y-93250609D02*
X199784666Y-93298228D01*
X199784666Y-93298228D02*
X199725142Y-93393466D01*
X199725142Y-93393466D02*
X199701333Y-93583942D01*
X199701333Y-93583942D02*
X199737047Y-93679180D01*
X199737047Y-93679180D02*
X199778714Y-93726800D01*
X199778714Y-93726800D02*
X199868000Y-93774419D01*
X199868000Y-93774419D02*
X200058476Y-93774419D01*
X200058476Y-93774419D02*
X200159666Y-93726800D01*
X200159666Y-93726800D02*
X200213238Y-93679180D01*
X200213238Y-93679180D02*
X200272761Y-93583942D01*
X200272761Y-93583942D02*
X200296571Y-93393466D01*
X200296571Y-93393466D02*
X200260857Y-93298228D01*
X200260857Y-93298228D02*
X200219190Y-93250609D01*
X200219190Y-93250609D02*
X200129904Y-93202990D01*
X200677523Y-93774419D02*
X200802523Y-92774419D01*
X201248952Y-93774419D02*
X200891809Y-93202990D01*
X201373952Y-92774419D02*
X200731095Y-93345847D01*
X202201333Y-93774419D02*
X201629904Y-93774419D01*
X201915619Y-93774419D02*
X202040619Y-92774419D01*
X202040619Y-92774419D02*
X201927523Y-92917276D01*
X201927523Y-92917276D02*
X201820381Y-93012514D01*
X201820381Y-93012514D02*
X201719190Y-93060133D01*
X202618000Y-93488704D02*
X203094190Y-93488704D01*
X202487047Y-93774419D02*
X202945381Y-92774419D01*
X202945381Y-92774419D02*
X203153714Y-93774419D01*
X203487047Y-93774419D02*
X203612047Y-92774419D01*
X203612047Y-92774419D02*
X204058476Y-93774419D01*
X204058476Y-93774419D02*
X204183476Y-92774419D01*
X205106095Y-93774419D02*
X204832285Y-93298228D01*
X204534666Y-93774419D02*
X204659666Y-92774419D01*
X204659666Y-92774419D02*
X205040619Y-92774419D01*
X205040619Y-92774419D02*
X205129904Y-92822038D01*
X205129904Y-92822038D02*
X205171571Y-92869657D01*
X205171571Y-92869657D02*
X205207285Y-92964895D01*
X205207285Y-92964895D02*
X205189428Y-93107752D01*
X205189428Y-93107752D02*
X205129904Y-93202990D01*
X205129904Y-93202990D02*
X205076333Y-93250609D01*
X205076333Y-93250609D02*
X204975143Y-93298228D01*
X204975143Y-93298228D02*
X204594190Y-93298228D01*
X176978628Y-71076190D02*
X177454819Y-71076190D01*
X176454819Y-71409523D02*
X176978628Y-71076190D01*
X176978628Y-71076190D02*
X176454819Y-70742857D01*
X177454819Y-69885714D02*
X177454819Y-70457142D01*
X177454819Y-70171428D02*
X176454819Y-70171428D01*
X176454819Y-70171428D02*
X176597676Y-70266666D01*
X176597676Y-70266666D02*
X176692914Y-70361904D01*
X176692914Y-70361904D02*
X176740533Y-70457142D01*
X178289857Y-72842961D02*
X178242238Y-72789390D01*
X178242238Y-72789390D02*
X178194619Y-72688200D01*
X178194619Y-72688200D02*
X178194619Y-72450104D01*
X178194619Y-72450104D02*
X178242238Y-72360819D01*
X178242238Y-72360819D02*
X178289857Y-72319152D01*
X178289857Y-72319152D02*
X178385095Y-72283438D01*
X178385095Y-72283438D02*
X178480333Y-72295342D01*
X178480333Y-72295342D02*
X178623190Y-72360819D01*
X178623190Y-72360819D02*
X179194619Y-73003676D01*
X179194619Y-73003676D02*
X179194619Y-72384628D01*
X178194619Y-71640580D02*
X178194619Y-71545342D01*
X178194619Y-71545342D02*
X178242238Y-71456057D01*
X178242238Y-71456057D02*
X178289857Y-71414390D01*
X178289857Y-71414390D02*
X178385095Y-71378676D01*
X178385095Y-71378676D02*
X178575571Y-71354866D01*
X178575571Y-71354866D02*
X178813666Y-71384628D01*
X178813666Y-71384628D02*
X179004142Y-71456057D01*
X179004142Y-71456057D02*
X179099380Y-71515580D01*
X179099380Y-71515580D02*
X179147000Y-71569152D01*
X179147000Y-71569152D02*
X179194619Y-71670342D01*
X179194619Y-71670342D02*
X179194619Y-71765580D01*
X179194619Y-71765580D02*
X179147000Y-71854866D01*
X179147000Y-71854866D02*
X179099380Y-71896533D01*
X179099380Y-71896533D02*
X179004142Y-71932247D01*
X179004142Y-71932247D02*
X178813666Y-71956057D01*
X178813666Y-71956057D02*
X178575571Y-71926295D01*
X178575571Y-71926295D02*
X178385095Y-71854866D01*
X178385095Y-71854866D02*
X178289857Y-71795342D01*
X178289857Y-71795342D02*
X178242238Y-71741771D01*
X178242238Y-71741771D02*
X178194619Y-71640580D01*
X179194619Y-71003676D02*
X178194619Y-70878676D01*
X178194619Y-70878676D02*
X178908904Y-70634628D01*
X178908904Y-70634628D02*
X178194619Y-70212009D01*
X178194619Y-70212009D02*
X179194619Y-70337009D01*
X179194619Y-69860819D02*
X178194619Y-69735819D01*
X178670809Y-69795342D02*
X178670809Y-69223914D01*
X179194619Y-69289390D02*
X178194619Y-69164390D01*
X178527952Y-68825104D02*
X178527952Y-68301295D01*
X178527952Y-68301295D02*
X179194619Y-68908438D01*
X179194619Y-68908438D02*
X179194619Y-68384628D01*
X104380595Y-71632319D02*
X104380595Y-72441842D01*
X104380595Y-72441842D02*
X104428214Y-72537080D01*
X104428214Y-72537080D02*
X104475833Y-72584700D01*
X104475833Y-72584700D02*
X104571071Y-72632319D01*
X104571071Y-72632319D02*
X104761547Y-72632319D01*
X104761547Y-72632319D02*
X104856785Y-72584700D01*
X104856785Y-72584700D02*
X104904404Y-72537080D01*
X104904404Y-72537080D02*
X104952023Y-72441842D01*
X104952023Y-72441842D02*
X104952023Y-71632319D01*
X105380595Y-71727557D02*
X105428214Y-71679938D01*
X105428214Y-71679938D02*
X105523452Y-71632319D01*
X105523452Y-71632319D02*
X105761547Y-71632319D01*
X105761547Y-71632319D02*
X105856785Y-71679938D01*
X105856785Y-71679938D02*
X105904404Y-71727557D01*
X105904404Y-71727557D02*
X105952023Y-71822795D01*
X105952023Y-71822795D02*
X105952023Y-71918033D01*
X105952023Y-71918033D02*
X105904404Y-72060890D01*
X105904404Y-72060890D02*
X105332976Y-72632319D01*
X105332976Y-72632319D02*
X105952023Y-72632319D01*
X104841428Y-115129700D02*
X104978332Y-115177319D01*
X104978332Y-115177319D02*
X105216428Y-115177319D01*
X105216428Y-115177319D02*
X105317618Y-115129700D01*
X105317618Y-115129700D02*
X105371190Y-115082080D01*
X105371190Y-115082080D02*
X105430713Y-114986842D01*
X105430713Y-114986842D02*
X105442618Y-114891604D01*
X105442618Y-114891604D02*
X105406904Y-114796366D01*
X105406904Y-114796366D02*
X105365237Y-114748747D01*
X105365237Y-114748747D02*
X105275952Y-114701128D01*
X105275952Y-114701128D02*
X105091428Y-114653509D01*
X105091428Y-114653509D02*
X105002142Y-114605890D01*
X105002142Y-114605890D02*
X104960475Y-114558271D01*
X104960475Y-114558271D02*
X104924761Y-114463033D01*
X104924761Y-114463033D02*
X104936666Y-114367795D01*
X104936666Y-114367795D02*
X104996190Y-114272557D01*
X104996190Y-114272557D02*
X105049761Y-114224938D01*
X105049761Y-114224938D02*
X105150952Y-114177319D01*
X105150952Y-114177319D02*
X105389047Y-114177319D01*
X105389047Y-114177319D02*
X105525952Y-114224938D01*
X105793809Y-115129700D02*
X105930713Y-115177319D01*
X105930713Y-115177319D02*
X106168809Y-115177319D01*
X106168809Y-115177319D02*
X106269999Y-115129700D01*
X106269999Y-115129700D02*
X106323571Y-115082080D01*
X106323571Y-115082080D02*
X106383094Y-114986842D01*
X106383094Y-114986842D02*
X106394999Y-114891604D01*
X106394999Y-114891604D02*
X106359285Y-114796366D01*
X106359285Y-114796366D02*
X106317618Y-114748747D01*
X106317618Y-114748747D02*
X106228333Y-114701128D01*
X106228333Y-114701128D02*
X106043809Y-114653509D01*
X106043809Y-114653509D02*
X105954523Y-114605890D01*
X105954523Y-114605890D02*
X105912856Y-114558271D01*
X105912856Y-114558271D02*
X105877142Y-114463033D01*
X105877142Y-114463033D02*
X105889047Y-114367795D01*
X105889047Y-114367795D02*
X105948571Y-114272557D01*
X105948571Y-114272557D02*
X106002142Y-114224938D01*
X106002142Y-114224938D02*
X106103333Y-114177319D01*
X106103333Y-114177319D02*
X106341428Y-114177319D01*
X106341428Y-114177319D02*
X106478333Y-114224938D01*
X106769999Y-114177319D02*
X107341428Y-114177319D01*
X106930714Y-115177319D02*
X107055714Y-114177319D01*
X107579523Y-114177319D02*
X108198571Y-114177319D01*
X108198571Y-114177319D02*
X107817619Y-114558271D01*
X107817619Y-114558271D02*
X107960476Y-114558271D01*
X107960476Y-114558271D02*
X108049761Y-114605890D01*
X108049761Y-114605890D02*
X108091428Y-114653509D01*
X108091428Y-114653509D02*
X108127142Y-114748747D01*
X108127142Y-114748747D02*
X108097380Y-114986842D01*
X108097380Y-114986842D02*
X108037857Y-115082080D01*
X108037857Y-115082080D02*
X107984285Y-115129700D01*
X107984285Y-115129700D02*
X107883095Y-115177319D01*
X107883095Y-115177319D02*
X107597380Y-115177319D01*
X107597380Y-115177319D02*
X107508095Y-115129700D01*
X107508095Y-115129700D02*
X107466428Y-115082080D01*
X108549761Y-115177319D02*
X108740238Y-115177319D01*
X108740238Y-115177319D02*
X108841428Y-115129700D01*
X108841428Y-115129700D02*
X108895000Y-115082080D01*
X108895000Y-115082080D02*
X109008095Y-114939223D01*
X109008095Y-114939223D02*
X109079523Y-114748747D01*
X109079523Y-114748747D02*
X109127142Y-114367795D01*
X109127142Y-114367795D02*
X109091428Y-114272557D01*
X109091428Y-114272557D02*
X109049761Y-114224938D01*
X109049761Y-114224938D02*
X108960476Y-114177319D01*
X108960476Y-114177319D02*
X108770000Y-114177319D01*
X108770000Y-114177319D02*
X108668809Y-114224938D01*
X108668809Y-114224938D02*
X108615238Y-114272557D01*
X108615238Y-114272557D02*
X108555714Y-114367795D01*
X108555714Y-114367795D02*
X108525952Y-114605890D01*
X108525952Y-114605890D02*
X108561666Y-114701128D01*
X108561666Y-114701128D02*
X108603333Y-114748747D01*
X108603333Y-114748747D02*
X108692619Y-114796366D01*
X108692619Y-114796366D02*
X108883095Y-114796366D01*
X108883095Y-114796366D02*
X108984285Y-114748747D01*
X108984285Y-114748747D02*
X109037857Y-114701128D01*
X109037857Y-114701128D02*
X109097380Y-114605890D01*
X109412857Y-115129700D02*
X109549761Y-115177319D01*
X109549761Y-115177319D02*
X109787857Y-115177319D01*
X109787857Y-115177319D02*
X109889047Y-115129700D01*
X109889047Y-115129700D02*
X109942619Y-115082080D01*
X109942619Y-115082080D02*
X110002142Y-114986842D01*
X110002142Y-114986842D02*
X110014047Y-114891604D01*
X110014047Y-114891604D02*
X109978333Y-114796366D01*
X109978333Y-114796366D02*
X109936666Y-114748747D01*
X109936666Y-114748747D02*
X109847381Y-114701128D01*
X109847381Y-114701128D02*
X109662857Y-114653509D01*
X109662857Y-114653509D02*
X109573571Y-114605890D01*
X109573571Y-114605890D02*
X109531904Y-114558271D01*
X109531904Y-114558271D02*
X109496190Y-114463033D01*
X109496190Y-114463033D02*
X109508095Y-114367795D01*
X109508095Y-114367795D02*
X109567619Y-114272557D01*
X109567619Y-114272557D02*
X109621190Y-114224938D01*
X109621190Y-114224938D02*
X109722381Y-114177319D01*
X109722381Y-114177319D02*
X109960476Y-114177319D01*
X109960476Y-114177319D02*
X110097381Y-114224938D01*
X110805714Y-114653509D02*
X110472381Y-114653509D01*
X110406904Y-115177319D02*
X110531904Y-114177319D01*
X110531904Y-114177319D02*
X111008095Y-114177319D01*
X111579524Y-114177319D02*
X111674762Y-114177319D01*
X111674762Y-114177319D02*
X111764047Y-114224938D01*
X111764047Y-114224938D02*
X111805714Y-114272557D01*
X111805714Y-114272557D02*
X111841428Y-114367795D01*
X111841428Y-114367795D02*
X111865238Y-114558271D01*
X111865238Y-114558271D02*
X111835476Y-114796366D01*
X111835476Y-114796366D02*
X111764047Y-114986842D01*
X111764047Y-114986842D02*
X111704524Y-115082080D01*
X111704524Y-115082080D02*
X111650952Y-115129700D01*
X111650952Y-115129700D02*
X111549762Y-115177319D01*
X111549762Y-115177319D02*
X111454524Y-115177319D01*
X111454524Y-115177319D02*
X111365238Y-115129700D01*
X111365238Y-115129700D02*
X111323571Y-115082080D01*
X111323571Y-115082080D02*
X111287857Y-114986842D01*
X111287857Y-114986842D02*
X111264047Y-114796366D01*
X111264047Y-114796366D02*
X111293809Y-114558271D01*
X111293809Y-114558271D02*
X111365238Y-114367795D01*
X111365238Y-114367795D02*
X111424762Y-114272557D01*
X111424762Y-114272557D02*
X111478333Y-114224938D01*
X111478333Y-114224938D02*
X111579524Y-114177319D01*
X112728333Y-114510652D02*
X112645000Y-115177319D01*
X112537857Y-114129700D02*
X112210476Y-114843985D01*
X112210476Y-114843985D02*
X112829524Y-114843985D01*
X113484286Y-114177319D02*
X113579524Y-114177319D01*
X113579524Y-114177319D02*
X113668809Y-114224938D01*
X113668809Y-114224938D02*
X113710476Y-114272557D01*
X113710476Y-114272557D02*
X113746190Y-114367795D01*
X113746190Y-114367795D02*
X113770000Y-114558271D01*
X113770000Y-114558271D02*
X113740238Y-114796366D01*
X113740238Y-114796366D02*
X113668809Y-114986842D01*
X113668809Y-114986842D02*
X113609286Y-115082080D01*
X113609286Y-115082080D02*
X113555714Y-115129700D01*
X113555714Y-115129700D02*
X113454524Y-115177319D01*
X113454524Y-115177319D02*
X113359286Y-115177319D01*
X113359286Y-115177319D02*
X113270000Y-115129700D01*
X113270000Y-115129700D02*
X113228333Y-115082080D01*
X113228333Y-115082080D02*
X113192619Y-114986842D01*
X113192619Y-114986842D02*
X113168809Y-114796366D01*
X113168809Y-114796366D02*
X113198571Y-114558271D01*
X113198571Y-114558271D02*
X113270000Y-114367795D01*
X113270000Y-114367795D02*
X113329524Y-114272557D01*
X113329524Y-114272557D02*
X113383095Y-114224938D01*
X113383095Y-114224938D02*
X113484286Y-114177319D01*
X131077619Y-97053304D02*
X131887142Y-97053304D01*
X131887142Y-97053304D02*
X131982380Y-97005685D01*
X131982380Y-97005685D02*
X132030000Y-96958066D01*
X132030000Y-96958066D02*
X132077619Y-96862828D01*
X132077619Y-96862828D02*
X132077619Y-96672352D01*
X132077619Y-96672352D02*
X132030000Y-96577114D01*
X132030000Y-96577114D02*
X131982380Y-96529495D01*
X131982380Y-96529495D02*
X131887142Y-96481876D01*
X131887142Y-96481876D02*
X131077619Y-96481876D01*
X131077619Y-96100923D02*
X131077619Y-95481876D01*
X131077619Y-95481876D02*
X131458571Y-95815209D01*
X131458571Y-95815209D02*
X131458571Y-95672352D01*
X131458571Y-95672352D02*
X131506190Y-95577114D01*
X131506190Y-95577114D02*
X131553809Y-95529495D01*
X131553809Y-95529495D02*
X131649047Y-95481876D01*
X131649047Y-95481876D02*
X131887142Y-95481876D01*
X131887142Y-95481876D02*
X131982380Y-95529495D01*
X131982380Y-95529495D02*
X132030000Y-95577114D01*
X132030000Y-95577114D02*
X132077619Y-95672352D01*
X132077619Y-95672352D02*
X132077619Y-95958066D01*
X132077619Y-95958066D02*
X132030000Y-96053304D01*
X132030000Y-96053304D02*
X131982380Y-96100923D01*
X124084819Y-99279762D02*
X124084819Y-99089285D01*
X124084819Y-99089285D02*
X124037200Y-98988095D01*
X124037200Y-98988095D02*
X123989580Y-98934524D01*
X123989580Y-98934524D02*
X123846723Y-98821428D01*
X123846723Y-98821428D02*
X123656247Y-98750000D01*
X123656247Y-98750000D02*
X123275295Y-98702381D01*
X123275295Y-98702381D02*
X123180057Y-98738095D01*
X123180057Y-98738095D02*
X123132438Y-98779762D01*
X123132438Y-98779762D02*
X123084819Y-98869047D01*
X123084819Y-98869047D02*
X123084819Y-99059524D01*
X123084819Y-99059524D02*
X123132438Y-99160714D01*
X123132438Y-99160714D02*
X123180057Y-99214285D01*
X123180057Y-99214285D02*
X123275295Y-99273809D01*
X123275295Y-99273809D02*
X123513390Y-99303571D01*
X123513390Y-99303571D02*
X123608628Y-99267857D01*
X123608628Y-99267857D02*
X123656247Y-99226190D01*
X123656247Y-99226190D02*
X123703866Y-99136904D01*
X123703866Y-99136904D02*
X123703866Y-98946428D01*
X123703866Y-98946428D02*
X123656247Y-98845238D01*
X123656247Y-98845238D02*
X123608628Y-98791666D01*
X123608628Y-98791666D02*
X123513390Y-98732143D01*
X123084819Y-98345238D02*
X123084819Y-97726190D01*
X123084819Y-97726190D02*
X123465771Y-98107143D01*
X123465771Y-98107143D02*
X123465771Y-97964285D01*
X123465771Y-97964285D02*
X123513390Y-97875000D01*
X123513390Y-97875000D02*
X123561009Y-97833333D01*
X123561009Y-97833333D02*
X123656247Y-97797619D01*
X123656247Y-97797619D02*
X123894342Y-97827381D01*
X123894342Y-97827381D02*
X123989580Y-97886904D01*
X123989580Y-97886904D02*
X124037200Y-97940476D01*
X124037200Y-97940476D02*
X124084819Y-98041666D01*
X124084819Y-98041666D02*
X124084819Y-98327381D01*
X124084819Y-98327381D02*
X124037200Y-98416666D01*
X124037200Y-98416666D02*
X123989580Y-98458333D01*
X124084819Y-96946428D02*
X124084819Y-97422619D01*
X124084819Y-97422619D02*
X123084819Y-97297619D01*
X123989580Y-96029761D02*
X124037200Y-96083333D01*
X124037200Y-96083333D02*
X124084819Y-96232142D01*
X124084819Y-96232142D02*
X124084819Y-96327380D01*
X124084819Y-96327380D02*
X124037200Y-96464285D01*
X124037200Y-96464285D02*
X123941961Y-96547618D01*
X123941961Y-96547618D02*
X123846723Y-96583333D01*
X123846723Y-96583333D02*
X123656247Y-96607142D01*
X123656247Y-96607142D02*
X123513390Y-96589285D01*
X123513390Y-96589285D02*
X123322914Y-96517857D01*
X123322914Y-96517857D02*
X123227676Y-96458333D01*
X123227676Y-96458333D02*
X123132438Y-96351190D01*
X123132438Y-96351190D02*
X123084819Y-96202380D01*
X123084819Y-96202380D02*
X123084819Y-96107142D01*
X123084819Y-96107142D02*
X123132438Y-95970238D01*
X123132438Y-95970238D02*
X123180057Y-95928571D01*
X123418152Y-95101190D02*
X124084819Y-95184523D01*
X123037200Y-95291666D02*
X123751485Y-95619047D01*
X123751485Y-95619047D02*
X123751485Y-94999999D01*
X123084819Y-94107142D02*
X123084819Y-94297618D01*
X123084819Y-94297618D02*
X123132438Y-94398809D01*
X123132438Y-94398809D02*
X123180057Y-94452380D01*
X123180057Y-94452380D02*
X123322914Y-94565476D01*
X123322914Y-94565476D02*
X123513390Y-94636904D01*
X123513390Y-94636904D02*
X123894342Y-94684523D01*
X123894342Y-94684523D02*
X123989580Y-94648809D01*
X123989580Y-94648809D02*
X124037200Y-94607142D01*
X124037200Y-94607142D02*
X124084819Y-94517857D01*
X124084819Y-94517857D02*
X124084819Y-94327380D01*
X124084819Y-94327380D02*
X124037200Y-94226190D01*
X124037200Y-94226190D02*
X123989580Y-94172618D01*
X123989580Y-94172618D02*
X123894342Y-94113095D01*
X123894342Y-94113095D02*
X123656247Y-94083333D01*
X123656247Y-94083333D02*
X123561009Y-94119047D01*
X123561009Y-94119047D02*
X123513390Y-94160714D01*
X123513390Y-94160714D02*
X123465771Y-94249999D01*
X123465771Y-94249999D02*
X123465771Y-94440476D01*
X123465771Y-94440476D02*
X123513390Y-94541666D01*
X123513390Y-94541666D02*
X123561009Y-94595237D01*
X123561009Y-94595237D02*
X123656247Y-94654761D01*
X123989580Y-93124999D02*
X124037200Y-93178571D01*
X124037200Y-93178571D02*
X124084819Y-93327380D01*
X124084819Y-93327380D02*
X124084819Y-93422618D01*
X124084819Y-93422618D02*
X124037200Y-93559523D01*
X124037200Y-93559523D02*
X123941961Y-93642856D01*
X123941961Y-93642856D02*
X123846723Y-93678571D01*
X123846723Y-93678571D02*
X123656247Y-93702380D01*
X123656247Y-93702380D02*
X123513390Y-93684523D01*
X123513390Y-93684523D02*
X123322914Y-93613095D01*
X123322914Y-93613095D02*
X123227676Y-93553571D01*
X123227676Y-93553571D02*
X123132438Y-93446428D01*
X123132438Y-93446428D02*
X123084819Y-93297618D01*
X123084819Y-93297618D02*
X123084819Y-93202380D01*
X123084819Y-93202380D02*
X123132438Y-93065476D01*
X123132438Y-93065476D02*
X123180057Y-93023809D01*
X162333333Y-87159580D02*
X162285714Y-87207200D01*
X162285714Y-87207200D02*
X162142857Y-87254819D01*
X162142857Y-87254819D02*
X162047619Y-87254819D01*
X162047619Y-87254819D02*
X161904762Y-87207200D01*
X161904762Y-87207200D02*
X161809524Y-87111961D01*
X161809524Y-87111961D02*
X161761905Y-87016723D01*
X161761905Y-87016723D02*
X161714286Y-86826247D01*
X161714286Y-86826247D02*
X161714286Y-86683390D01*
X161714286Y-86683390D02*
X161761905Y-86492914D01*
X161761905Y-86492914D02*
X161809524Y-86397676D01*
X161809524Y-86397676D02*
X161904762Y-86302438D01*
X161904762Y-86302438D02*
X162047619Y-86254819D01*
X162047619Y-86254819D02*
X162142857Y-86254819D01*
X162142857Y-86254819D02*
X162285714Y-86302438D01*
X162285714Y-86302438D02*
X162333333Y-86350057D01*
X163238095Y-86254819D02*
X162761905Y-86254819D01*
X162761905Y-86254819D02*
X162714286Y-86731009D01*
X162714286Y-86731009D02*
X162761905Y-86683390D01*
X162761905Y-86683390D02*
X162857143Y-86635771D01*
X162857143Y-86635771D02*
X163095238Y-86635771D01*
X163095238Y-86635771D02*
X163190476Y-86683390D01*
X163190476Y-86683390D02*
X163238095Y-86731009D01*
X163238095Y-86731009D02*
X163285714Y-86826247D01*
X163285714Y-86826247D02*
X163285714Y-87064342D01*
X163285714Y-87064342D02*
X163238095Y-87159580D01*
X163238095Y-87159580D02*
X163190476Y-87207200D01*
X163190476Y-87207200D02*
X163095238Y-87254819D01*
X163095238Y-87254819D02*
X162857143Y-87254819D01*
X162857143Y-87254819D02*
X162761905Y-87207200D01*
X162761905Y-87207200D02*
X162714286Y-87159580D01*
D11*
X161267857Y-88181764D02*
X161339286Y-88181764D01*
X161339286Y-88181764D02*
X161410714Y-88217478D01*
X161410714Y-88217478D02*
X161446429Y-88253192D01*
X161446429Y-88253192D02*
X161482143Y-88324621D01*
X161482143Y-88324621D02*
X161517857Y-88467478D01*
X161517857Y-88467478D02*
X161517857Y-88646050D01*
X161517857Y-88646050D02*
X161482143Y-88788907D01*
X161482143Y-88788907D02*
X161446429Y-88860335D01*
X161446429Y-88860335D02*
X161410714Y-88896050D01*
X161410714Y-88896050D02*
X161339286Y-88931764D01*
X161339286Y-88931764D02*
X161267857Y-88931764D01*
X161267857Y-88931764D02*
X161196429Y-88896050D01*
X161196429Y-88896050D02*
X161160714Y-88860335D01*
X161160714Y-88860335D02*
X161125000Y-88788907D01*
X161125000Y-88788907D02*
X161089286Y-88646050D01*
X161089286Y-88646050D02*
X161089286Y-88467478D01*
X161089286Y-88467478D02*
X161125000Y-88324621D01*
X161125000Y-88324621D02*
X161160714Y-88253192D01*
X161160714Y-88253192D02*
X161196429Y-88217478D01*
X161196429Y-88217478D02*
X161267857Y-88181764D01*
X161839286Y-88860335D02*
X161875000Y-88896050D01*
X161875000Y-88896050D02*
X161839286Y-88931764D01*
X161839286Y-88931764D02*
X161803572Y-88896050D01*
X161803572Y-88896050D02*
X161839286Y-88860335D01*
X161839286Y-88860335D02*
X161839286Y-88931764D01*
X162589286Y-88931764D02*
X162160715Y-88931764D01*
X162375000Y-88931764D02*
X162375000Y-88181764D01*
X162375000Y-88181764D02*
X162303572Y-88288907D01*
X162303572Y-88288907D02*
X162232143Y-88360335D01*
X162232143Y-88360335D02*
X162160715Y-88396050D01*
X163232144Y-88431764D02*
X163232144Y-88931764D01*
X162910715Y-88431764D02*
X162910715Y-88824621D01*
X162910715Y-88824621D02*
X162946429Y-88896050D01*
X162946429Y-88896050D02*
X163017858Y-88931764D01*
X163017858Y-88931764D02*
X163125001Y-88931764D01*
X163125001Y-88931764D02*
X163196429Y-88896050D01*
X163196429Y-88896050D02*
X163232144Y-88860335D01*
X163839286Y-88538907D02*
X163589286Y-88538907D01*
X163589286Y-88931764D02*
X163589286Y-88181764D01*
X163589286Y-88181764D02*
X163946429Y-88181764D01*
D10*
X126933333Y-88459580D02*
X126885714Y-88507200D01*
X126885714Y-88507200D02*
X126742857Y-88554819D01*
X126742857Y-88554819D02*
X126647619Y-88554819D01*
X126647619Y-88554819D02*
X126504762Y-88507200D01*
X126504762Y-88507200D02*
X126409524Y-88411961D01*
X126409524Y-88411961D02*
X126361905Y-88316723D01*
X126361905Y-88316723D02*
X126314286Y-88126247D01*
X126314286Y-88126247D02*
X126314286Y-87983390D01*
X126314286Y-87983390D02*
X126361905Y-87792914D01*
X126361905Y-87792914D02*
X126409524Y-87697676D01*
X126409524Y-87697676D02*
X126504762Y-87602438D01*
X126504762Y-87602438D02*
X126647619Y-87554819D01*
X126647619Y-87554819D02*
X126742857Y-87554819D01*
X126742857Y-87554819D02*
X126885714Y-87602438D01*
X126885714Y-87602438D02*
X126933333Y-87650057D01*
X127504762Y-87983390D02*
X127409524Y-87935771D01*
X127409524Y-87935771D02*
X127361905Y-87888152D01*
X127361905Y-87888152D02*
X127314286Y-87792914D01*
X127314286Y-87792914D02*
X127314286Y-87745295D01*
X127314286Y-87745295D02*
X127361905Y-87650057D01*
X127361905Y-87650057D02*
X127409524Y-87602438D01*
X127409524Y-87602438D02*
X127504762Y-87554819D01*
X127504762Y-87554819D02*
X127695238Y-87554819D01*
X127695238Y-87554819D02*
X127790476Y-87602438D01*
X127790476Y-87602438D02*
X127838095Y-87650057D01*
X127838095Y-87650057D02*
X127885714Y-87745295D01*
X127885714Y-87745295D02*
X127885714Y-87792914D01*
X127885714Y-87792914D02*
X127838095Y-87888152D01*
X127838095Y-87888152D02*
X127790476Y-87935771D01*
X127790476Y-87935771D02*
X127695238Y-87983390D01*
X127695238Y-87983390D02*
X127504762Y-87983390D01*
X127504762Y-87983390D02*
X127409524Y-88031009D01*
X127409524Y-88031009D02*
X127361905Y-88078628D01*
X127361905Y-88078628D02*
X127314286Y-88173866D01*
X127314286Y-88173866D02*
X127314286Y-88364342D01*
X127314286Y-88364342D02*
X127361905Y-88459580D01*
X127361905Y-88459580D02*
X127409524Y-88507200D01*
X127409524Y-88507200D02*
X127504762Y-88554819D01*
X127504762Y-88554819D02*
X127695238Y-88554819D01*
X127695238Y-88554819D02*
X127790476Y-88507200D01*
X127790476Y-88507200D02*
X127838095Y-88459580D01*
X127838095Y-88459580D02*
X127885714Y-88364342D01*
X127885714Y-88364342D02*
X127885714Y-88173866D01*
X127885714Y-88173866D02*
X127838095Y-88078628D01*
X127838095Y-88078628D02*
X127790476Y-88031009D01*
X127790476Y-88031009D02*
X127695238Y-87983390D01*
D11*
X125867857Y-89481764D02*
X125939286Y-89481764D01*
X125939286Y-89481764D02*
X126010714Y-89517478D01*
X126010714Y-89517478D02*
X126046429Y-89553192D01*
X126046429Y-89553192D02*
X126082143Y-89624621D01*
X126082143Y-89624621D02*
X126117857Y-89767478D01*
X126117857Y-89767478D02*
X126117857Y-89946050D01*
X126117857Y-89946050D02*
X126082143Y-90088907D01*
X126082143Y-90088907D02*
X126046429Y-90160335D01*
X126046429Y-90160335D02*
X126010714Y-90196050D01*
X126010714Y-90196050D02*
X125939286Y-90231764D01*
X125939286Y-90231764D02*
X125867857Y-90231764D01*
X125867857Y-90231764D02*
X125796429Y-90196050D01*
X125796429Y-90196050D02*
X125760714Y-90160335D01*
X125760714Y-90160335D02*
X125725000Y-90088907D01*
X125725000Y-90088907D02*
X125689286Y-89946050D01*
X125689286Y-89946050D02*
X125689286Y-89767478D01*
X125689286Y-89767478D02*
X125725000Y-89624621D01*
X125725000Y-89624621D02*
X125760714Y-89553192D01*
X125760714Y-89553192D02*
X125796429Y-89517478D01*
X125796429Y-89517478D02*
X125867857Y-89481764D01*
X126439286Y-90160335D02*
X126475000Y-90196050D01*
X126475000Y-90196050D02*
X126439286Y-90231764D01*
X126439286Y-90231764D02*
X126403572Y-90196050D01*
X126403572Y-90196050D02*
X126439286Y-90160335D01*
X126439286Y-90160335D02*
X126439286Y-90231764D01*
X127189286Y-90231764D02*
X126760715Y-90231764D01*
X126975000Y-90231764D02*
X126975000Y-89481764D01*
X126975000Y-89481764D02*
X126903572Y-89588907D01*
X126903572Y-89588907D02*
X126832143Y-89660335D01*
X126832143Y-89660335D02*
X126760715Y-89696050D01*
X127832144Y-89731764D02*
X127832144Y-90231764D01*
X127510715Y-89731764D02*
X127510715Y-90124621D01*
X127510715Y-90124621D02*
X127546429Y-90196050D01*
X127546429Y-90196050D02*
X127617858Y-90231764D01*
X127617858Y-90231764D02*
X127725001Y-90231764D01*
X127725001Y-90231764D02*
X127796429Y-90196050D01*
X127796429Y-90196050D02*
X127832144Y-90160335D01*
X128439286Y-89838907D02*
X128189286Y-89838907D01*
X128189286Y-90231764D02*
X128189286Y-89481764D01*
X128189286Y-89481764D02*
X128546429Y-89481764D01*
D10*
X129881333Y-104264619D02*
X129548000Y-103788428D01*
X129309905Y-104264619D02*
X129309905Y-103264619D01*
X129309905Y-103264619D02*
X129690857Y-103264619D01*
X129690857Y-103264619D02*
X129786095Y-103312238D01*
X129786095Y-103312238D02*
X129833714Y-103359857D01*
X129833714Y-103359857D02*
X129881333Y-103455095D01*
X129881333Y-103455095D02*
X129881333Y-103597952D01*
X129881333Y-103597952D02*
X129833714Y-103693190D01*
X129833714Y-103693190D02*
X129786095Y-103740809D01*
X129786095Y-103740809D02*
X129690857Y-103788428D01*
X129690857Y-103788428D02*
X129309905Y-103788428D01*
X130738476Y-103264619D02*
X130548000Y-103264619D01*
X130548000Y-103264619D02*
X130452762Y-103312238D01*
X130452762Y-103312238D02*
X130405143Y-103359857D01*
X130405143Y-103359857D02*
X130309905Y-103502714D01*
X130309905Y-103502714D02*
X130262286Y-103693190D01*
X130262286Y-103693190D02*
X130262286Y-104074142D01*
X130262286Y-104074142D02*
X130309905Y-104169380D01*
X130309905Y-104169380D02*
X130357524Y-104217000D01*
X130357524Y-104217000D02*
X130452762Y-104264619D01*
X130452762Y-104264619D02*
X130643238Y-104264619D01*
X130643238Y-104264619D02*
X130738476Y-104217000D01*
X130738476Y-104217000D02*
X130786095Y-104169380D01*
X130786095Y-104169380D02*
X130833714Y-104074142D01*
X130833714Y-104074142D02*
X130833714Y-103836047D01*
X130833714Y-103836047D02*
X130786095Y-103740809D01*
X130786095Y-103740809D02*
X130738476Y-103693190D01*
X130738476Y-103693190D02*
X130643238Y-103645571D01*
X130643238Y-103645571D02*
X130452762Y-103645571D01*
X130452762Y-103645571D02*
X130357524Y-103693190D01*
X130357524Y-103693190D02*
X130309905Y-103740809D01*
X130309905Y-103740809D02*
X130262286Y-103836047D01*
D11*
X129105000Y-105773192D02*
X129140714Y-105737478D01*
X129140714Y-105737478D02*
X129212143Y-105701764D01*
X129212143Y-105701764D02*
X129390714Y-105701764D01*
X129390714Y-105701764D02*
X129462143Y-105737478D01*
X129462143Y-105737478D02*
X129497857Y-105773192D01*
X129497857Y-105773192D02*
X129533571Y-105844621D01*
X129533571Y-105844621D02*
X129533571Y-105916050D01*
X129533571Y-105916050D02*
X129497857Y-106023192D01*
X129497857Y-106023192D02*
X129069285Y-106451764D01*
X129069285Y-106451764D02*
X129533571Y-106451764D01*
X129783571Y-105701764D02*
X130283571Y-105701764D01*
X130283571Y-105701764D02*
X129962143Y-106451764D01*
X130569286Y-106451764D02*
X130569286Y-105701764D01*
X130640715Y-106166050D02*
X130855000Y-106451764D01*
X130855000Y-105951764D02*
X130569286Y-106237478D01*
D10*
X184669133Y-63827819D02*
X184335800Y-63351628D01*
X184097705Y-63827819D02*
X184097705Y-62827819D01*
X184097705Y-62827819D02*
X184478657Y-62827819D01*
X184478657Y-62827819D02*
X184573895Y-62875438D01*
X184573895Y-62875438D02*
X184621514Y-62923057D01*
X184621514Y-62923057D02*
X184669133Y-63018295D01*
X184669133Y-63018295D02*
X184669133Y-63161152D01*
X184669133Y-63161152D02*
X184621514Y-63256390D01*
X184621514Y-63256390D02*
X184573895Y-63304009D01*
X184573895Y-63304009D02*
X184478657Y-63351628D01*
X184478657Y-63351628D02*
X184097705Y-63351628D01*
X185002467Y-62827819D02*
X185669133Y-62827819D01*
X185669133Y-62827819D02*
X185240562Y-63827819D01*
D11*
X185251764Y-70634285D02*
X185251764Y-71062856D01*
X185251764Y-70848571D02*
X184501764Y-70848571D01*
X184501764Y-70848571D02*
X184608907Y-70919999D01*
X184608907Y-70919999D02*
X184680335Y-70991428D01*
X184680335Y-70991428D02*
X184716050Y-71062856D01*
X185251764Y-70312856D02*
X184501764Y-70312856D01*
X184501764Y-70312856D02*
X185037478Y-70062856D01*
X185037478Y-70062856D02*
X184501764Y-69812856D01*
X184501764Y-69812856D02*
X185251764Y-69812856D01*
D10*
X118222733Y-69447580D02*
X118175114Y-69495200D01*
X118175114Y-69495200D02*
X118032257Y-69542819D01*
X118032257Y-69542819D02*
X117937019Y-69542819D01*
X117937019Y-69542819D02*
X117794162Y-69495200D01*
X117794162Y-69495200D02*
X117698924Y-69399961D01*
X117698924Y-69399961D02*
X117651305Y-69304723D01*
X117651305Y-69304723D02*
X117603686Y-69114247D01*
X117603686Y-69114247D02*
X117603686Y-68971390D01*
X117603686Y-68971390D02*
X117651305Y-68780914D01*
X117651305Y-68780914D02*
X117698924Y-68685676D01*
X117698924Y-68685676D02*
X117794162Y-68590438D01*
X117794162Y-68590438D02*
X117937019Y-68542819D01*
X117937019Y-68542819D02*
X118032257Y-68542819D01*
X118032257Y-68542819D02*
X118175114Y-68590438D01*
X118175114Y-68590438D02*
X118222733Y-68638057D01*
X118556067Y-68542819D02*
X119222733Y-68542819D01*
X119222733Y-68542819D02*
X118794162Y-69542819D01*
D11*
X117067857Y-71701764D02*
X117139286Y-71701764D01*
X117139286Y-71701764D02*
X117210714Y-71737478D01*
X117210714Y-71737478D02*
X117246429Y-71773192D01*
X117246429Y-71773192D02*
X117282143Y-71844621D01*
X117282143Y-71844621D02*
X117317857Y-71987478D01*
X117317857Y-71987478D02*
X117317857Y-72166050D01*
X117317857Y-72166050D02*
X117282143Y-72308907D01*
X117282143Y-72308907D02*
X117246429Y-72380335D01*
X117246429Y-72380335D02*
X117210714Y-72416050D01*
X117210714Y-72416050D02*
X117139286Y-72451764D01*
X117139286Y-72451764D02*
X117067857Y-72451764D01*
X117067857Y-72451764D02*
X116996429Y-72416050D01*
X116996429Y-72416050D02*
X116960714Y-72380335D01*
X116960714Y-72380335D02*
X116925000Y-72308907D01*
X116925000Y-72308907D02*
X116889286Y-72166050D01*
X116889286Y-72166050D02*
X116889286Y-71987478D01*
X116889286Y-71987478D02*
X116925000Y-71844621D01*
X116925000Y-71844621D02*
X116960714Y-71773192D01*
X116960714Y-71773192D02*
X116996429Y-71737478D01*
X116996429Y-71737478D02*
X117067857Y-71701764D01*
X117639286Y-72380335D02*
X117675000Y-72416050D01*
X117675000Y-72416050D02*
X117639286Y-72451764D01*
X117639286Y-72451764D02*
X117603572Y-72416050D01*
X117603572Y-72416050D02*
X117639286Y-72380335D01*
X117639286Y-72380335D02*
X117639286Y-72451764D01*
X118389286Y-72451764D02*
X117960715Y-72451764D01*
X118175000Y-72451764D02*
X118175000Y-71701764D01*
X118175000Y-71701764D02*
X118103572Y-71808907D01*
X118103572Y-71808907D02*
X118032143Y-71880335D01*
X118032143Y-71880335D02*
X117960715Y-71916050D01*
X119032144Y-71951764D02*
X119032144Y-72451764D01*
X118710715Y-71951764D02*
X118710715Y-72344621D01*
X118710715Y-72344621D02*
X118746429Y-72416050D01*
X118746429Y-72416050D02*
X118817858Y-72451764D01*
X118817858Y-72451764D02*
X118925001Y-72451764D01*
X118925001Y-72451764D02*
X118996429Y-72416050D01*
X118996429Y-72416050D02*
X119032144Y-72380335D01*
X119639286Y-72058907D02*
X119389286Y-72058907D01*
X119389286Y-72451764D02*
X119389286Y-71701764D01*
X119389286Y-71701764D02*
X119746429Y-71701764D01*
D10*
X137820495Y-111392619D02*
X137820495Y-112202142D01*
X137820495Y-112202142D02*
X137868114Y-112297380D01*
X137868114Y-112297380D02*
X137915733Y-112345000D01*
X137915733Y-112345000D02*
X138010971Y-112392619D01*
X138010971Y-112392619D02*
X138201447Y-112392619D01*
X138201447Y-112392619D02*
X138296685Y-112345000D01*
X138296685Y-112345000D02*
X138344304Y-112297380D01*
X138344304Y-112297380D02*
X138391923Y-112202142D01*
X138391923Y-112202142D02*
X138391923Y-111392619D01*
X139391923Y-112392619D02*
X138820495Y-112392619D01*
X139106209Y-112392619D02*
X139106209Y-111392619D01*
X139106209Y-111392619D02*
X139010971Y-111535476D01*
X139010971Y-111535476D02*
X138915733Y-111630714D01*
X138915733Y-111630714D02*
X138820495Y-111678333D01*
X151235833Y-114584819D02*
X150962023Y-114108628D01*
X150664404Y-114584819D02*
X150789404Y-113584819D01*
X150789404Y-113584819D02*
X151170357Y-113584819D01*
X151170357Y-113584819D02*
X151259642Y-113632438D01*
X151259642Y-113632438D02*
X151301309Y-113680057D01*
X151301309Y-113680057D02*
X151337023Y-113775295D01*
X151337023Y-113775295D02*
X151319166Y-113918152D01*
X151319166Y-113918152D02*
X151259642Y-114013390D01*
X151259642Y-114013390D02*
X151206071Y-114061009D01*
X151206071Y-114061009D02*
X151104881Y-114108628D01*
X151104881Y-114108628D02*
X150723928Y-114108628D01*
X151646547Y-113584819D02*
X152217976Y-113584819D01*
X151807262Y-114584819D02*
X151932262Y-113584819D01*
X152902500Y-114584819D02*
X152426309Y-114584819D01*
X152426309Y-114584819D02*
X152551309Y-113584819D01*
X153450119Y-114013390D02*
X153360833Y-113965771D01*
X153360833Y-113965771D02*
X153319167Y-113918152D01*
X153319167Y-113918152D02*
X153283452Y-113822914D01*
X153283452Y-113822914D02*
X153289405Y-113775295D01*
X153289405Y-113775295D02*
X153348929Y-113680057D01*
X153348929Y-113680057D02*
X153402500Y-113632438D01*
X153402500Y-113632438D02*
X153503691Y-113584819D01*
X153503691Y-113584819D02*
X153694167Y-113584819D01*
X153694167Y-113584819D02*
X153783452Y-113632438D01*
X153783452Y-113632438D02*
X153825119Y-113680057D01*
X153825119Y-113680057D02*
X153860833Y-113775295D01*
X153860833Y-113775295D02*
X153854881Y-113822914D01*
X153854881Y-113822914D02*
X153795357Y-113918152D01*
X153795357Y-113918152D02*
X153741786Y-113965771D01*
X153741786Y-113965771D02*
X153640595Y-114013390D01*
X153640595Y-114013390D02*
X153450119Y-114013390D01*
X153450119Y-114013390D02*
X153348929Y-114061009D01*
X153348929Y-114061009D02*
X153295357Y-114108628D01*
X153295357Y-114108628D02*
X153235833Y-114203866D01*
X153235833Y-114203866D02*
X153212024Y-114394342D01*
X153212024Y-114394342D02*
X153247738Y-114489580D01*
X153247738Y-114489580D02*
X153289405Y-114537200D01*
X153289405Y-114537200D02*
X153378691Y-114584819D01*
X153378691Y-114584819D02*
X153569167Y-114584819D01*
X153569167Y-114584819D02*
X153670357Y-114537200D01*
X153670357Y-114537200D02*
X153723929Y-114489580D01*
X153723929Y-114489580D02*
X153783452Y-114394342D01*
X153783452Y-114394342D02*
X153807262Y-114203866D01*
X153807262Y-114203866D02*
X153771548Y-114108628D01*
X153771548Y-114108628D02*
X153729881Y-114061009D01*
X153729881Y-114061009D02*
X153640595Y-114013390D01*
X154503691Y-113584819D02*
X154598929Y-113584819D01*
X154598929Y-113584819D02*
X154688214Y-113632438D01*
X154688214Y-113632438D02*
X154729881Y-113680057D01*
X154729881Y-113680057D02*
X154765595Y-113775295D01*
X154765595Y-113775295D02*
X154789405Y-113965771D01*
X154789405Y-113965771D02*
X154759643Y-114203866D01*
X154759643Y-114203866D02*
X154688214Y-114394342D01*
X154688214Y-114394342D02*
X154628691Y-114489580D01*
X154628691Y-114489580D02*
X154575119Y-114537200D01*
X154575119Y-114537200D02*
X154473929Y-114584819D01*
X154473929Y-114584819D02*
X154378691Y-114584819D01*
X154378691Y-114584819D02*
X154289405Y-114537200D01*
X154289405Y-114537200D02*
X154247738Y-114489580D01*
X154247738Y-114489580D02*
X154212024Y-114394342D01*
X154212024Y-114394342D02*
X154188214Y-114203866D01*
X154188214Y-114203866D02*
X154217976Y-113965771D01*
X154217976Y-113965771D02*
X154289405Y-113775295D01*
X154289405Y-113775295D02*
X154348929Y-113680057D01*
X154348929Y-113680057D02*
X154402500Y-113632438D01*
X154402500Y-113632438D02*
X154503691Y-113584819D01*
X155664405Y-114584819D02*
X155092976Y-114584819D01*
X155378691Y-114584819D02*
X155503691Y-113584819D01*
X155503691Y-113584819D02*
X155390595Y-113727676D01*
X155390595Y-113727676D02*
X155283453Y-113822914D01*
X155283453Y-113822914D02*
X155182262Y-113870533D01*
X156140595Y-114584819D02*
X156331072Y-114584819D01*
X156331072Y-114584819D02*
X156432262Y-114537200D01*
X156432262Y-114537200D02*
X156485834Y-114489580D01*
X156485834Y-114489580D02*
X156598929Y-114346723D01*
X156598929Y-114346723D02*
X156670357Y-114156247D01*
X156670357Y-114156247D02*
X156717976Y-113775295D01*
X156717976Y-113775295D02*
X156682262Y-113680057D01*
X156682262Y-113680057D02*
X156640595Y-113632438D01*
X156640595Y-113632438D02*
X156551310Y-113584819D01*
X156551310Y-113584819D02*
X156360834Y-113584819D01*
X156360834Y-113584819D02*
X156259643Y-113632438D01*
X156259643Y-113632438D02*
X156206072Y-113680057D01*
X156206072Y-113680057D02*
X156146548Y-113775295D01*
X156146548Y-113775295D02*
X156116786Y-114013390D01*
X156116786Y-114013390D02*
X156152500Y-114108628D01*
X156152500Y-114108628D02*
X156194167Y-114156247D01*
X156194167Y-114156247D02*
X156283453Y-114203866D01*
X156283453Y-114203866D02*
X156473929Y-114203866D01*
X156473929Y-114203866D02*
X156575119Y-114156247D01*
X156575119Y-114156247D02*
X156628691Y-114108628D01*
X156628691Y-114108628D02*
X156688214Y-114013390D01*
X157033453Y-114299104D02*
X157509643Y-114299104D01*
X156902500Y-114584819D02*
X157360834Y-113584819D01*
X157360834Y-113584819D02*
X157569167Y-114584819D01*
X157860834Y-114537200D02*
X157997738Y-114584819D01*
X157997738Y-114584819D02*
X158235834Y-114584819D01*
X158235834Y-114584819D02*
X158337024Y-114537200D01*
X158337024Y-114537200D02*
X158390596Y-114489580D01*
X158390596Y-114489580D02*
X158450119Y-114394342D01*
X158450119Y-114394342D02*
X158462024Y-114299104D01*
X158462024Y-114299104D02*
X158426310Y-114203866D01*
X158426310Y-114203866D02*
X158384643Y-114156247D01*
X158384643Y-114156247D02*
X158295358Y-114108628D01*
X158295358Y-114108628D02*
X158110834Y-114061009D01*
X158110834Y-114061009D02*
X158021548Y-114013390D01*
X158021548Y-114013390D02*
X157979881Y-113965771D01*
X157979881Y-113965771D02*
X157944167Y-113870533D01*
X157944167Y-113870533D02*
X157956072Y-113775295D01*
X157956072Y-113775295D02*
X158015596Y-113680057D01*
X158015596Y-113680057D02*
X158069167Y-113632438D01*
X158069167Y-113632438D02*
X158170358Y-113584819D01*
X158170358Y-113584819D02*
X158408453Y-113584819D01*
X158408453Y-113584819D02*
X158545358Y-113632438D01*
X189444333Y-76731019D02*
X189111000Y-76254828D01*
X188872905Y-76731019D02*
X188872905Y-75731019D01*
X188872905Y-75731019D02*
X189253857Y-75731019D01*
X189253857Y-75731019D02*
X189349095Y-75778638D01*
X189349095Y-75778638D02*
X189396714Y-75826257D01*
X189396714Y-75826257D02*
X189444333Y-75921495D01*
X189444333Y-75921495D02*
X189444333Y-76064352D01*
X189444333Y-76064352D02*
X189396714Y-76159590D01*
X189396714Y-76159590D02*
X189349095Y-76207209D01*
X189349095Y-76207209D02*
X189253857Y-76254828D01*
X189253857Y-76254828D02*
X188872905Y-76254828D01*
X190396714Y-76731019D02*
X189825286Y-76731019D01*
X190111000Y-76731019D02*
X190111000Y-75731019D01*
X190111000Y-75731019D02*
X190015762Y-75873876D01*
X190015762Y-75873876D02*
X189920524Y-75969114D01*
X189920524Y-75969114D02*
X189825286Y-76016733D01*
D11*
X188691428Y-78253192D02*
X188727142Y-78217478D01*
X188727142Y-78217478D02*
X188798571Y-78181764D01*
X188798571Y-78181764D02*
X188977142Y-78181764D01*
X188977142Y-78181764D02*
X189048571Y-78217478D01*
X189048571Y-78217478D02*
X189084285Y-78253192D01*
X189084285Y-78253192D02*
X189119999Y-78324621D01*
X189119999Y-78324621D02*
X189119999Y-78396050D01*
X189119999Y-78396050D02*
X189084285Y-78503192D01*
X189084285Y-78503192D02*
X188655713Y-78931764D01*
X188655713Y-78931764D02*
X189119999Y-78931764D01*
X189584285Y-78181764D02*
X189655714Y-78181764D01*
X189655714Y-78181764D02*
X189727142Y-78217478D01*
X189727142Y-78217478D02*
X189762857Y-78253192D01*
X189762857Y-78253192D02*
X189798571Y-78324621D01*
X189798571Y-78324621D02*
X189834285Y-78467478D01*
X189834285Y-78467478D02*
X189834285Y-78646050D01*
X189834285Y-78646050D02*
X189798571Y-78788907D01*
X189798571Y-78788907D02*
X189762857Y-78860335D01*
X189762857Y-78860335D02*
X189727142Y-78896050D01*
X189727142Y-78896050D02*
X189655714Y-78931764D01*
X189655714Y-78931764D02*
X189584285Y-78931764D01*
X189584285Y-78931764D02*
X189512857Y-78896050D01*
X189512857Y-78896050D02*
X189477142Y-78860335D01*
X189477142Y-78860335D02*
X189441428Y-78788907D01*
X189441428Y-78788907D02*
X189405714Y-78646050D01*
X189405714Y-78646050D02*
X189405714Y-78467478D01*
X189405714Y-78467478D02*
X189441428Y-78324621D01*
X189441428Y-78324621D02*
X189477142Y-78253192D01*
X189477142Y-78253192D02*
X189512857Y-78217478D01*
X189512857Y-78217478D02*
X189584285Y-78181764D01*
X190298571Y-78181764D02*
X190370000Y-78181764D01*
X190370000Y-78181764D02*
X190441428Y-78217478D01*
X190441428Y-78217478D02*
X190477143Y-78253192D01*
X190477143Y-78253192D02*
X190512857Y-78324621D01*
X190512857Y-78324621D02*
X190548571Y-78467478D01*
X190548571Y-78467478D02*
X190548571Y-78646050D01*
X190548571Y-78646050D02*
X190512857Y-78788907D01*
X190512857Y-78788907D02*
X190477143Y-78860335D01*
X190477143Y-78860335D02*
X190441428Y-78896050D01*
X190441428Y-78896050D02*
X190370000Y-78931764D01*
X190370000Y-78931764D02*
X190298571Y-78931764D01*
X190298571Y-78931764D02*
X190227143Y-78896050D01*
X190227143Y-78896050D02*
X190191428Y-78860335D01*
X190191428Y-78860335D02*
X190155714Y-78788907D01*
X190155714Y-78788907D02*
X190120000Y-78646050D01*
X190120000Y-78646050D02*
X190120000Y-78467478D01*
X190120000Y-78467478D02*
X190155714Y-78324621D01*
X190155714Y-78324621D02*
X190191428Y-78253192D01*
X190191428Y-78253192D02*
X190227143Y-78217478D01*
X190227143Y-78217478D02*
X190298571Y-78181764D01*
D10*
X180459580Y-92766666D02*
X180507200Y-92814285D01*
X180507200Y-92814285D02*
X180554819Y-92957142D01*
X180554819Y-92957142D02*
X180554819Y-93052380D01*
X180554819Y-93052380D02*
X180507200Y-93195237D01*
X180507200Y-93195237D02*
X180411961Y-93290475D01*
X180411961Y-93290475D02*
X180316723Y-93338094D01*
X180316723Y-93338094D02*
X180126247Y-93385713D01*
X180126247Y-93385713D02*
X179983390Y-93385713D01*
X179983390Y-93385713D02*
X179792914Y-93338094D01*
X179792914Y-93338094D02*
X179697676Y-93290475D01*
X179697676Y-93290475D02*
X179602438Y-93195237D01*
X179602438Y-93195237D02*
X179554819Y-93052380D01*
X179554819Y-93052380D02*
X179554819Y-92957142D01*
X179554819Y-92957142D02*
X179602438Y-92814285D01*
X179602438Y-92814285D02*
X179650057Y-92766666D01*
X179554819Y-92433332D02*
X179554819Y-91814285D01*
X179554819Y-91814285D02*
X179935771Y-92147618D01*
X179935771Y-92147618D02*
X179935771Y-92004761D01*
X179935771Y-92004761D02*
X179983390Y-91909523D01*
X179983390Y-91909523D02*
X180031009Y-91861904D01*
X180031009Y-91861904D02*
X180126247Y-91814285D01*
X180126247Y-91814285D02*
X180364342Y-91814285D01*
X180364342Y-91814285D02*
X180459580Y-91861904D01*
X180459580Y-91861904D02*
X180507200Y-91909523D01*
X180507200Y-91909523D02*
X180554819Y-92004761D01*
X180554819Y-92004761D02*
X180554819Y-92290475D01*
X180554819Y-92290475D02*
X180507200Y-92385713D01*
X180507200Y-92385713D02*
X180459580Y-92433332D01*
D11*
X181481764Y-94189285D02*
X181481764Y-94117856D01*
X181481764Y-94117856D02*
X181517478Y-94046428D01*
X181517478Y-94046428D02*
X181553192Y-94010714D01*
X181553192Y-94010714D02*
X181624621Y-93974999D01*
X181624621Y-93974999D02*
X181767478Y-93939285D01*
X181767478Y-93939285D02*
X181946050Y-93939285D01*
X181946050Y-93939285D02*
X182088907Y-93974999D01*
X182088907Y-93974999D02*
X182160335Y-94010714D01*
X182160335Y-94010714D02*
X182196050Y-94046428D01*
X182196050Y-94046428D02*
X182231764Y-94117856D01*
X182231764Y-94117856D02*
X182231764Y-94189285D01*
X182231764Y-94189285D02*
X182196050Y-94260714D01*
X182196050Y-94260714D02*
X182160335Y-94296428D01*
X182160335Y-94296428D02*
X182088907Y-94332142D01*
X182088907Y-94332142D02*
X181946050Y-94367856D01*
X181946050Y-94367856D02*
X181767478Y-94367856D01*
X181767478Y-94367856D02*
X181624621Y-94332142D01*
X181624621Y-94332142D02*
X181553192Y-94296428D01*
X181553192Y-94296428D02*
X181517478Y-94260714D01*
X181517478Y-94260714D02*
X181481764Y-94189285D01*
X182160335Y-93617856D02*
X182196050Y-93582142D01*
X182196050Y-93582142D02*
X182231764Y-93617856D01*
X182231764Y-93617856D02*
X182196050Y-93653570D01*
X182196050Y-93653570D02*
X182160335Y-93617856D01*
X182160335Y-93617856D02*
X182231764Y-93617856D01*
X181481764Y-93117856D02*
X181481764Y-93046427D01*
X181481764Y-93046427D02*
X181517478Y-92974999D01*
X181517478Y-92974999D02*
X181553192Y-92939285D01*
X181553192Y-92939285D02*
X181624621Y-92903570D01*
X181624621Y-92903570D02*
X181767478Y-92867856D01*
X181767478Y-92867856D02*
X181946050Y-92867856D01*
X181946050Y-92867856D02*
X182088907Y-92903570D01*
X182088907Y-92903570D02*
X182160335Y-92939285D01*
X182160335Y-92939285D02*
X182196050Y-92974999D01*
X182196050Y-92974999D02*
X182231764Y-93046427D01*
X182231764Y-93046427D02*
X182231764Y-93117856D01*
X182231764Y-93117856D02*
X182196050Y-93189285D01*
X182196050Y-93189285D02*
X182160335Y-93224999D01*
X182160335Y-93224999D02*
X182088907Y-93260713D01*
X182088907Y-93260713D02*
X181946050Y-93296427D01*
X181946050Y-93296427D02*
X181767478Y-93296427D01*
X181767478Y-93296427D02*
X181624621Y-93260713D01*
X181624621Y-93260713D02*
X181553192Y-93224999D01*
X181553192Y-93224999D02*
X181517478Y-93189285D01*
X181517478Y-93189285D02*
X181481764Y-93117856D01*
X182231764Y-92153570D02*
X182231764Y-92582141D01*
X182231764Y-92367856D02*
X181481764Y-92367856D01*
X181481764Y-92367856D02*
X181588907Y-92439284D01*
X181588907Y-92439284D02*
X181660335Y-92510713D01*
X181660335Y-92510713D02*
X181696050Y-92582141D01*
X181731764Y-91510713D02*
X182231764Y-91510713D01*
X181731764Y-91832141D02*
X182124621Y-91832141D01*
X182124621Y-91832141D02*
X182196050Y-91796427D01*
X182196050Y-91796427D02*
X182231764Y-91724998D01*
X182231764Y-91724998D02*
X182231764Y-91617855D01*
X182231764Y-91617855D02*
X182196050Y-91546427D01*
X182196050Y-91546427D02*
X182160335Y-91510713D01*
X181838907Y-90903570D02*
X181838907Y-91153570D01*
X182231764Y-91153570D02*
X181481764Y-91153570D01*
X181481764Y-91153570D02*
X181481764Y-90796427D01*
D10*
X195362533Y-81658619D02*
X195029200Y-81182428D01*
X194791105Y-81658619D02*
X194791105Y-80658619D01*
X194791105Y-80658619D02*
X195172057Y-80658619D01*
X195172057Y-80658619D02*
X195267295Y-80706238D01*
X195267295Y-80706238D02*
X195314914Y-80753857D01*
X195314914Y-80753857D02*
X195362533Y-80849095D01*
X195362533Y-80849095D02*
X195362533Y-80991952D01*
X195362533Y-80991952D02*
X195314914Y-81087190D01*
X195314914Y-81087190D02*
X195267295Y-81134809D01*
X195267295Y-81134809D02*
X195172057Y-81182428D01*
X195172057Y-81182428D02*
X194791105Y-81182428D01*
X195695867Y-80658619D02*
X196314914Y-80658619D01*
X196314914Y-80658619D02*
X195981581Y-81039571D01*
X195981581Y-81039571D02*
X196124438Y-81039571D01*
X196124438Y-81039571D02*
X196219676Y-81087190D01*
X196219676Y-81087190D02*
X196267295Y-81134809D01*
X196267295Y-81134809D02*
X196314914Y-81230047D01*
X196314914Y-81230047D02*
X196314914Y-81468142D01*
X196314914Y-81468142D02*
X196267295Y-81563380D01*
X196267295Y-81563380D02*
X196219676Y-81611000D01*
X196219676Y-81611000D02*
X196124438Y-81658619D01*
X196124438Y-81658619D02*
X195838724Y-81658619D01*
X195838724Y-81658619D02*
X195743486Y-81611000D01*
X195743486Y-81611000D02*
X195695867Y-81563380D01*
D11*
X194948571Y-83231764D02*
X194948571Y-83731764D01*
X194769999Y-82946050D02*
X194591428Y-83481764D01*
X194591428Y-83481764D02*
X195055713Y-83481764D01*
X195269999Y-82981764D02*
X195769999Y-82981764D01*
X195769999Y-82981764D02*
X195448571Y-83731764D01*
X196198571Y-82981764D02*
X196270000Y-82981764D01*
X196270000Y-82981764D02*
X196341428Y-83017478D01*
X196341428Y-83017478D02*
X196377143Y-83053192D01*
X196377143Y-83053192D02*
X196412857Y-83124621D01*
X196412857Y-83124621D02*
X196448571Y-83267478D01*
X196448571Y-83267478D02*
X196448571Y-83446050D01*
X196448571Y-83446050D02*
X196412857Y-83588907D01*
X196412857Y-83588907D02*
X196377143Y-83660335D01*
X196377143Y-83660335D02*
X196341428Y-83696050D01*
X196341428Y-83696050D02*
X196270000Y-83731764D01*
X196270000Y-83731764D02*
X196198571Y-83731764D01*
X196198571Y-83731764D02*
X196127143Y-83696050D01*
X196127143Y-83696050D02*
X196091428Y-83660335D01*
X196091428Y-83660335D02*
X196055714Y-83588907D01*
X196055714Y-83588907D02*
X196020000Y-83446050D01*
X196020000Y-83446050D02*
X196020000Y-83267478D01*
X196020000Y-83267478D02*
X196055714Y-83124621D01*
X196055714Y-83124621D02*
X196091428Y-83053192D01*
X196091428Y-83053192D02*
X196127143Y-83017478D01*
X196127143Y-83017478D02*
X196198571Y-82981764D01*
D10*
X195667333Y-72470180D02*
X195619714Y-72517800D01*
X195619714Y-72517800D02*
X195476857Y-72565419D01*
X195476857Y-72565419D02*
X195381619Y-72565419D01*
X195381619Y-72565419D02*
X195238762Y-72517800D01*
X195238762Y-72517800D02*
X195143524Y-72422561D01*
X195143524Y-72422561D02*
X195095905Y-72327323D01*
X195095905Y-72327323D02*
X195048286Y-72136847D01*
X195048286Y-72136847D02*
X195048286Y-71993990D01*
X195048286Y-71993990D02*
X195095905Y-71803514D01*
X195095905Y-71803514D02*
X195143524Y-71708276D01*
X195143524Y-71708276D02*
X195238762Y-71613038D01*
X195238762Y-71613038D02*
X195381619Y-71565419D01*
X195381619Y-71565419D02*
X195476857Y-71565419D01*
X195476857Y-71565419D02*
X195619714Y-71613038D01*
X195619714Y-71613038D02*
X195667333Y-71660657D01*
X196619714Y-72565419D02*
X196048286Y-72565419D01*
X196334000Y-72565419D02*
X196334000Y-71565419D01*
X196334000Y-71565419D02*
X196238762Y-71708276D01*
X196238762Y-71708276D02*
X196143524Y-71803514D01*
X196143524Y-71803514D02*
X196048286Y-71851133D01*
D11*
X190026628Y-72426964D02*
X189598057Y-72426964D01*
X189812342Y-72426964D02*
X189812342Y-71676964D01*
X189812342Y-71676964D02*
X189740914Y-71784107D01*
X189740914Y-71784107D02*
X189669485Y-71855535D01*
X189669485Y-71855535D02*
X189598057Y-71891250D01*
X190490914Y-71676964D02*
X190562343Y-71676964D01*
X190562343Y-71676964D02*
X190633771Y-71712678D01*
X190633771Y-71712678D02*
X190669486Y-71748392D01*
X190669486Y-71748392D02*
X190705200Y-71819821D01*
X190705200Y-71819821D02*
X190740914Y-71962678D01*
X190740914Y-71962678D02*
X190740914Y-72141250D01*
X190740914Y-72141250D02*
X190705200Y-72284107D01*
X190705200Y-72284107D02*
X190669486Y-72355535D01*
X190669486Y-72355535D02*
X190633771Y-72391250D01*
X190633771Y-72391250D02*
X190562343Y-72426964D01*
X190562343Y-72426964D02*
X190490914Y-72426964D01*
X190490914Y-72426964D02*
X190419486Y-72391250D01*
X190419486Y-72391250D02*
X190383771Y-72355535D01*
X190383771Y-72355535D02*
X190348057Y-72284107D01*
X190348057Y-72284107D02*
X190312343Y-72141250D01*
X190312343Y-72141250D02*
X190312343Y-71962678D01*
X190312343Y-71962678D02*
X190348057Y-71819821D01*
X190348057Y-71819821D02*
X190383771Y-71748392D01*
X190383771Y-71748392D02*
X190419486Y-71712678D01*
X190419486Y-71712678D02*
X190490914Y-71676964D01*
X191062343Y-71926964D02*
X191062343Y-72676964D01*
X191062343Y-71962678D02*
X191133772Y-71926964D01*
X191133772Y-71926964D02*
X191276629Y-71926964D01*
X191276629Y-71926964D02*
X191348057Y-71962678D01*
X191348057Y-71962678D02*
X191383772Y-71998392D01*
X191383772Y-71998392D02*
X191419486Y-72069821D01*
X191419486Y-72069821D02*
X191419486Y-72284107D01*
X191419486Y-72284107D02*
X191383772Y-72355535D01*
X191383772Y-72355535D02*
X191348057Y-72391250D01*
X191348057Y-72391250D02*
X191276629Y-72426964D01*
X191276629Y-72426964D02*
X191133772Y-72426964D01*
X191133772Y-72426964D02*
X191062343Y-72391250D01*
X191990914Y-72034107D02*
X191740914Y-72034107D01*
X191740914Y-72426964D02*
X191740914Y-71676964D01*
X191740914Y-71676964D02*
X192098057Y-71676964D01*
D10*
X195767333Y-68870180D02*
X195719714Y-68917800D01*
X195719714Y-68917800D02*
X195576857Y-68965419D01*
X195576857Y-68965419D02*
X195481619Y-68965419D01*
X195481619Y-68965419D02*
X195338762Y-68917800D01*
X195338762Y-68917800D02*
X195243524Y-68822561D01*
X195243524Y-68822561D02*
X195195905Y-68727323D01*
X195195905Y-68727323D02*
X195148286Y-68536847D01*
X195148286Y-68536847D02*
X195148286Y-68393990D01*
X195148286Y-68393990D02*
X195195905Y-68203514D01*
X195195905Y-68203514D02*
X195243524Y-68108276D01*
X195243524Y-68108276D02*
X195338762Y-68013038D01*
X195338762Y-68013038D02*
X195481619Y-67965419D01*
X195481619Y-67965419D02*
X195576857Y-67965419D01*
X195576857Y-67965419D02*
X195719714Y-68013038D01*
X195719714Y-68013038D02*
X195767333Y-68060657D01*
X196148286Y-68060657D02*
X196195905Y-68013038D01*
X196195905Y-68013038D02*
X196291143Y-67965419D01*
X196291143Y-67965419D02*
X196529238Y-67965419D01*
X196529238Y-67965419D02*
X196624476Y-68013038D01*
X196624476Y-68013038D02*
X196672095Y-68060657D01*
X196672095Y-68060657D02*
X196719714Y-68155895D01*
X196719714Y-68155895D02*
X196719714Y-68251133D01*
X196719714Y-68251133D02*
X196672095Y-68393990D01*
X196672095Y-68393990D02*
X196100667Y-68965419D01*
X196100667Y-68965419D02*
X196719714Y-68965419D01*
D11*
X190126628Y-68826964D02*
X189698057Y-68826964D01*
X189912342Y-68826964D02*
X189912342Y-68076964D01*
X189912342Y-68076964D02*
X189840914Y-68184107D01*
X189840914Y-68184107D02*
X189769485Y-68255535D01*
X189769485Y-68255535D02*
X189698057Y-68291250D01*
X190590914Y-68076964D02*
X190662343Y-68076964D01*
X190662343Y-68076964D02*
X190733771Y-68112678D01*
X190733771Y-68112678D02*
X190769486Y-68148392D01*
X190769486Y-68148392D02*
X190805200Y-68219821D01*
X190805200Y-68219821D02*
X190840914Y-68362678D01*
X190840914Y-68362678D02*
X190840914Y-68541250D01*
X190840914Y-68541250D02*
X190805200Y-68684107D01*
X190805200Y-68684107D02*
X190769486Y-68755535D01*
X190769486Y-68755535D02*
X190733771Y-68791250D01*
X190733771Y-68791250D02*
X190662343Y-68826964D01*
X190662343Y-68826964D02*
X190590914Y-68826964D01*
X190590914Y-68826964D02*
X190519486Y-68791250D01*
X190519486Y-68791250D02*
X190483771Y-68755535D01*
X190483771Y-68755535D02*
X190448057Y-68684107D01*
X190448057Y-68684107D02*
X190412343Y-68541250D01*
X190412343Y-68541250D02*
X190412343Y-68362678D01*
X190412343Y-68362678D02*
X190448057Y-68219821D01*
X190448057Y-68219821D02*
X190483771Y-68148392D01*
X190483771Y-68148392D02*
X190519486Y-68112678D01*
X190519486Y-68112678D02*
X190590914Y-68076964D01*
X191162343Y-68326964D02*
X191162343Y-69076964D01*
X191162343Y-68362678D02*
X191233772Y-68326964D01*
X191233772Y-68326964D02*
X191376629Y-68326964D01*
X191376629Y-68326964D02*
X191448057Y-68362678D01*
X191448057Y-68362678D02*
X191483772Y-68398392D01*
X191483772Y-68398392D02*
X191519486Y-68469821D01*
X191519486Y-68469821D02*
X191519486Y-68684107D01*
X191519486Y-68684107D02*
X191483772Y-68755535D01*
X191483772Y-68755535D02*
X191448057Y-68791250D01*
X191448057Y-68791250D02*
X191376629Y-68826964D01*
X191376629Y-68826964D02*
X191233772Y-68826964D01*
X191233772Y-68826964D02*
X191162343Y-68791250D01*
X192090914Y-68434107D02*
X191840914Y-68434107D01*
X191840914Y-68826964D02*
X191840914Y-68076964D01*
X191840914Y-68076964D02*
X192198057Y-68076964D01*
D10*
X146086533Y-119739580D02*
X146038914Y-119787200D01*
X146038914Y-119787200D02*
X145896057Y-119834819D01*
X145896057Y-119834819D02*
X145800819Y-119834819D01*
X145800819Y-119834819D02*
X145657962Y-119787200D01*
X145657962Y-119787200D02*
X145562724Y-119691961D01*
X145562724Y-119691961D02*
X145515105Y-119596723D01*
X145515105Y-119596723D02*
X145467486Y-119406247D01*
X145467486Y-119406247D02*
X145467486Y-119263390D01*
X145467486Y-119263390D02*
X145515105Y-119072914D01*
X145515105Y-119072914D02*
X145562724Y-118977676D01*
X145562724Y-118977676D02*
X145657962Y-118882438D01*
X145657962Y-118882438D02*
X145800819Y-118834819D01*
X145800819Y-118834819D02*
X145896057Y-118834819D01*
X145896057Y-118834819D02*
X146038914Y-118882438D01*
X146038914Y-118882438D02*
X146086533Y-118930057D01*
X146943676Y-118834819D02*
X146753200Y-118834819D01*
X146753200Y-118834819D02*
X146657962Y-118882438D01*
X146657962Y-118882438D02*
X146610343Y-118930057D01*
X146610343Y-118930057D02*
X146515105Y-119072914D01*
X146515105Y-119072914D02*
X146467486Y-119263390D01*
X146467486Y-119263390D02*
X146467486Y-119644342D01*
X146467486Y-119644342D02*
X146515105Y-119739580D01*
X146515105Y-119739580D02*
X146562724Y-119787200D01*
X146562724Y-119787200D02*
X146657962Y-119834819D01*
X146657962Y-119834819D02*
X146848438Y-119834819D01*
X146848438Y-119834819D02*
X146943676Y-119787200D01*
X146943676Y-119787200D02*
X146991295Y-119739580D01*
X146991295Y-119739580D02*
X147038914Y-119644342D01*
X147038914Y-119644342D02*
X147038914Y-119406247D01*
X147038914Y-119406247D02*
X146991295Y-119311009D01*
X146991295Y-119311009D02*
X146943676Y-119263390D01*
X146943676Y-119263390D02*
X146848438Y-119215771D01*
X146848438Y-119215771D02*
X146657962Y-119215771D01*
X146657962Y-119215771D02*
X146562724Y-119263390D01*
X146562724Y-119263390D02*
X146515105Y-119311009D01*
X146515105Y-119311009D02*
X146467486Y-119406247D01*
D11*
X144894057Y-116431764D02*
X144965486Y-116431764D01*
X144965486Y-116431764D02*
X145036914Y-116467478D01*
X145036914Y-116467478D02*
X145072629Y-116503192D01*
X145072629Y-116503192D02*
X145108343Y-116574621D01*
X145108343Y-116574621D02*
X145144057Y-116717478D01*
X145144057Y-116717478D02*
X145144057Y-116896050D01*
X145144057Y-116896050D02*
X145108343Y-117038907D01*
X145108343Y-117038907D02*
X145072629Y-117110335D01*
X145072629Y-117110335D02*
X145036914Y-117146050D01*
X145036914Y-117146050D02*
X144965486Y-117181764D01*
X144965486Y-117181764D02*
X144894057Y-117181764D01*
X144894057Y-117181764D02*
X144822629Y-117146050D01*
X144822629Y-117146050D02*
X144786914Y-117110335D01*
X144786914Y-117110335D02*
X144751200Y-117038907D01*
X144751200Y-117038907D02*
X144715486Y-116896050D01*
X144715486Y-116896050D02*
X144715486Y-116717478D01*
X144715486Y-116717478D02*
X144751200Y-116574621D01*
X144751200Y-116574621D02*
X144786914Y-116503192D01*
X144786914Y-116503192D02*
X144822629Y-116467478D01*
X144822629Y-116467478D02*
X144894057Y-116431764D01*
X145465486Y-117110335D02*
X145501200Y-117146050D01*
X145501200Y-117146050D02*
X145465486Y-117181764D01*
X145465486Y-117181764D02*
X145429772Y-117146050D01*
X145429772Y-117146050D02*
X145465486Y-117110335D01*
X145465486Y-117110335D02*
X145465486Y-117181764D01*
X146215486Y-117181764D02*
X145786915Y-117181764D01*
X146001200Y-117181764D02*
X146001200Y-116431764D01*
X146001200Y-116431764D02*
X145929772Y-116538907D01*
X145929772Y-116538907D02*
X145858343Y-116610335D01*
X145858343Y-116610335D02*
X145786915Y-116646050D01*
X146858344Y-116681764D02*
X146858344Y-117181764D01*
X146536915Y-116681764D02*
X146536915Y-117074621D01*
X146536915Y-117074621D02*
X146572629Y-117146050D01*
X146572629Y-117146050D02*
X146644058Y-117181764D01*
X146644058Y-117181764D02*
X146751201Y-117181764D01*
X146751201Y-117181764D02*
X146822629Y-117146050D01*
X146822629Y-117146050D02*
X146858344Y-117110335D01*
X147465486Y-116788907D02*
X147215486Y-116788907D01*
X147215486Y-117181764D02*
X147215486Y-116431764D01*
X147215486Y-116431764D02*
X147572629Y-116431764D01*
D10*
X194963333Y-108644819D02*
X194630000Y-108168628D01*
X194391905Y-108644819D02*
X194391905Y-107644819D01*
X194391905Y-107644819D02*
X194772857Y-107644819D01*
X194772857Y-107644819D02*
X194868095Y-107692438D01*
X194868095Y-107692438D02*
X194915714Y-107740057D01*
X194915714Y-107740057D02*
X194963333Y-107835295D01*
X194963333Y-107835295D02*
X194963333Y-107978152D01*
X194963333Y-107978152D02*
X194915714Y-108073390D01*
X194915714Y-108073390D02*
X194868095Y-108121009D01*
X194868095Y-108121009D02*
X194772857Y-108168628D01*
X194772857Y-108168628D02*
X194391905Y-108168628D01*
X195344286Y-107740057D02*
X195391905Y-107692438D01*
X195391905Y-107692438D02*
X195487143Y-107644819D01*
X195487143Y-107644819D02*
X195725238Y-107644819D01*
X195725238Y-107644819D02*
X195820476Y-107692438D01*
X195820476Y-107692438D02*
X195868095Y-107740057D01*
X195868095Y-107740057D02*
X195915714Y-107835295D01*
X195915714Y-107835295D02*
X195915714Y-107930533D01*
X195915714Y-107930533D02*
X195868095Y-108073390D01*
X195868095Y-108073390D02*
X195296667Y-108644819D01*
X195296667Y-108644819D02*
X195915714Y-108644819D01*
D11*
X194948571Y-105831764D02*
X194948571Y-106331764D01*
X194769999Y-105546050D02*
X194591428Y-106081764D01*
X194591428Y-106081764D02*
X195055713Y-106081764D01*
X195269999Y-105581764D02*
X195769999Y-105581764D01*
X195769999Y-105581764D02*
X195448571Y-106331764D01*
X196198571Y-105581764D02*
X196270000Y-105581764D01*
X196270000Y-105581764D02*
X196341428Y-105617478D01*
X196341428Y-105617478D02*
X196377143Y-105653192D01*
X196377143Y-105653192D02*
X196412857Y-105724621D01*
X196412857Y-105724621D02*
X196448571Y-105867478D01*
X196448571Y-105867478D02*
X196448571Y-106046050D01*
X196448571Y-106046050D02*
X196412857Y-106188907D01*
X196412857Y-106188907D02*
X196377143Y-106260335D01*
X196377143Y-106260335D02*
X196341428Y-106296050D01*
X196341428Y-106296050D02*
X196270000Y-106331764D01*
X196270000Y-106331764D02*
X196198571Y-106331764D01*
X196198571Y-106331764D02*
X196127143Y-106296050D01*
X196127143Y-106296050D02*
X196091428Y-106260335D01*
X196091428Y-106260335D02*
X196055714Y-106188907D01*
X196055714Y-106188907D02*
X196020000Y-106046050D01*
X196020000Y-106046050D02*
X196020000Y-105867478D01*
X196020000Y-105867478D02*
X196055714Y-105724621D01*
X196055714Y-105724621D02*
X196091428Y-105653192D01*
X196091428Y-105653192D02*
X196127143Y-105617478D01*
X196127143Y-105617478D02*
X196198571Y-105581764D01*
D10*
X180572580Y-100445866D02*
X180620200Y-100493485D01*
X180620200Y-100493485D02*
X180667819Y-100636342D01*
X180667819Y-100636342D02*
X180667819Y-100731580D01*
X180667819Y-100731580D02*
X180620200Y-100874437D01*
X180620200Y-100874437D02*
X180524961Y-100969675D01*
X180524961Y-100969675D02*
X180429723Y-101017294D01*
X180429723Y-101017294D02*
X180239247Y-101064913D01*
X180239247Y-101064913D02*
X180096390Y-101064913D01*
X180096390Y-101064913D02*
X179905914Y-101017294D01*
X179905914Y-101017294D02*
X179810676Y-100969675D01*
X179810676Y-100969675D02*
X179715438Y-100874437D01*
X179715438Y-100874437D02*
X179667819Y-100731580D01*
X179667819Y-100731580D02*
X179667819Y-100636342D01*
X179667819Y-100636342D02*
X179715438Y-100493485D01*
X179715438Y-100493485D02*
X179763057Y-100445866D01*
X180001152Y-99588723D02*
X180667819Y-99588723D01*
X179620200Y-99826818D02*
X180334485Y-100064913D01*
X180334485Y-100064913D02*
X180334485Y-99445866D01*
D11*
X181430364Y-101817685D02*
X181430364Y-101746256D01*
X181430364Y-101746256D02*
X181466078Y-101674828D01*
X181466078Y-101674828D02*
X181501792Y-101639114D01*
X181501792Y-101639114D02*
X181573221Y-101603399D01*
X181573221Y-101603399D02*
X181716078Y-101567685D01*
X181716078Y-101567685D02*
X181894650Y-101567685D01*
X181894650Y-101567685D02*
X182037507Y-101603399D01*
X182037507Y-101603399D02*
X182108935Y-101639114D01*
X182108935Y-101639114D02*
X182144650Y-101674828D01*
X182144650Y-101674828D02*
X182180364Y-101746256D01*
X182180364Y-101746256D02*
X182180364Y-101817685D01*
X182180364Y-101817685D02*
X182144650Y-101889114D01*
X182144650Y-101889114D02*
X182108935Y-101924828D01*
X182108935Y-101924828D02*
X182037507Y-101960542D01*
X182037507Y-101960542D02*
X181894650Y-101996256D01*
X181894650Y-101996256D02*
X181716078Y-101996256D01*
X181716078Y-101996256D02*
X181573221Y-101960542D01*
X181573221Y-101960542D02*
X181501792Y-101924828D01*
X181501792Y-101924828D02*
X181466078Y-101889114D01*
X181466078Y-101889114D02*
X181430364Y-101817685D01*
X182108935Y-101246256D02*
X182144650Y-101210542D01*
X182144650Y-101210542D02*
X182180364Y-101246256D01*
X182180364Y-101246256D02*
X182144650Y-101281970D01*
X182144650Y-101281970D02*
X182108935Y-101246256D01*
X182108935Y-101246256D02*
X182180364Y-101246256D01*
X181430364Y-100746256D02*
X181430364Y-100674827D01*
X181430364Y-100674827D02*
X181466078Y-100603399D01*
X181466078Y-100603399D02*
X181501792Y-100567685D01*
X181501792Y-100567685D02*
X181573221Y-100531970D01*
X181573221Y-100531970D02*
X181716078Y-100496256D01*
X181716078Y-100496256D02*
X181894650Y-100496256D01*
X181894650Y-100496256D02*
X182037507Y-100531970D01*
X182037507Y-100531970D02*
X182108935Y-100567685D01*
X182108935Y-100567685D02*
X182144650Y-100603399D01*
X182144650Y-100603399D02*
X182180364Y-100674827D01*
X182180364Y-100674827D02*
X182180364Y-100746256D01*
X182180364Y-100746256D02*
X182144650Y-100817685D01*
X182144650Y-100817685D02*
X182108935Y-100853399D01*
X182108935Y-100853399D02*
X182037507Y-100889113D01*
X182037507Y-100889113D02*
X181894650Y-100924827D01*
X181894650Y-100924827D02*
X181716078Y-100924827D01*
X181716078Y-100924827D02*
X181573221Y-100889113D01*
X181573221Y-100889113D02*
X181501792Y-100853399D01*
X181501792Y-100853399D02*
X181466078Y-100817685D01*
X181466078Y-100817685D02*
X181430364Y-100746256D01*
X182180364Y-99781970D02*
X182180364Y-100210541D01*
X182180364Y-99996256D02*
X181430364Y-99996256D01*
X181430364Y-99996256D02*
X181537507Y-100067684D01*
X181537507Y-100067684D02*
X181608935Y-100139113D01*
X181608935Y-100139113D02*
X181644650Y-100210541D01*
X181680364Y-99139113D02*
X182180364Y-99139113D01*
X181680364Y-99460541D02*
X182073221Y-99460541D01*
X182073221Y-99460541D02*
X182144650Y-99424827D01*
X182144650Y-99424827D02*
X182180364Y-99353398D01*
X182180364Y-99353398D02*
X182180364Y-99246255D01*
X182180364Y-99246255D02*
X182144650Y-99174827D01*
X182144650Y-99174827D02*
X182108935Y-99139113D01*
X181787507Y-98531970D02*
X181787507Y-98781970D01*
X182180364Y-98781970D02*
X181430364Y-98781970D01*
X181430364Y-98781970D02*
X181430364Y-98424827D01*
D10*
X176733333Y-117859580D02*
X176685714Y-117907200D01*
X176685714Y-117907200D02*
X176542857Y-117954819D01*
X176542857Y-117954819D02*
X176447619Y-117954819D01*
X176447619Y-117954819D02*
X176304762Y-117907200D01*
X176304762Y-117907200D02*
X176209524Y-117811961D01*
X176209524Y-117811961D02*
X176161905Y-117716723D01*
X176161905Y-117716723D02*
X176114286Y-117526247D01*
X176114286Y-117526247D02*
X176114286Y-117383390D01*
X176114286Y-117383390D02*
X176161905Y-117192914D01*
X176161905Y-117192914D02*
X176209524Y-117097676D01*
X176209524Y-117097676D02*
X176304762Y-117002438D01*
X176304762Y-117002438D02*
X176447619Y-116954819D01*
X176447619Y-116954819D02*
X176542857Y-116954819D01*
X176542857Y-116954819D02*
X176685714Y-117002438D01*
X176685714Y-117002438D02*
X176733333Y-117050057D01*
X177209524Y-117954819D02*
X177400000Y-117954819D01*
X177400000Y-117954819D02*
X177495238Y-117907200D01*
X177495238Y-117907200D02*
X177542857Y-117859580D01*
X177542857Y-117859580D02*
X177638095Y-117716723D01*
X177638095Y-117716723D02*
X177685714Y-117526247D01*
X177685714Y-117526247D02*
X177685714Y-117145295D01*
X177685714Y-117145295D02*
X177638095Y-117050057D01*
X177638095Y-117050057D02*
X177590476Y-117002438D01*
X177590476Y-117002438D02*
X177495238Y-116954819D01*
X177495238Y-116954819D02*
X177304762Y-116954819D01*
X177304762Y-116954819D02*
X177209524Y-117002438D01*
X177209524Y-117002438D02*
X177161905Y-117050057D01*
X177161905Y-117050057D02*
X177114286Y-117145295D01*
X177114286Y-117145295D02*
X177114286Y-117383390D01*
X177114286Y-117383390D02*
X177161905Y-117478628D01*
X177161905Y-117478628D02*
X177209524Y-117526247D01*
X177209524Y-117526247D02*
X177304762Y-117573866D01*
X177304762Y-117573866D02*
X177495238Y-117573866D01*
X177495238Y-117573866D02*
X177590476Y-117526247D01*
X177590476Y-117526247D02*
X177638095Y-117478628D01*
X177638095Y-117478628D02*
X177685714Y-117383390D01*
X178519343Y-124822857D02*
X178566962Y-124775238D01*
X178566962Y-124775238D02*
X178662200Y-124727619D01*
X178662200Y-124727619D02*
X178900295Y-124727619D01*
X178900295Y-124727619D02*
X178995533Y-124775238D01*
X178995533Y-124775238D02*
X179043152Y-124822857D01*
X179043152Y-124822857D02*
X179090771Y-124918095D01*
X179090771Y-124918095D02*
X179090771Y-125013333D01*
X179090771Y-125013333D02*
X179043152Y-125156190D01*
X179043152Y-125156190D02*
X178471724Y-125727619D01*
X178471724Y-125727619D02*
X179090771Y-125727619D01*
X179471724Y-124822857D02*
X179519343Y-124775238D01*
X179519343Y-124775238D02*
X179614581Y-124727619D01*
X179614581Y-124727619D02*
X179852676Y-124727619D01*
X179852676Y-124727619D02*
X179947914Y-124775238D01*
X179947914Y-124775238D02*
X179995533Y-124822857D01*
X179995533Y-124822857D02*
X180043152Y-124918095D01*
X180043152Y-124918095D02*
X180043152Y-125013333D01*
X180043152Y-125013333D02*
X179995533Y-125156190D01*
X179995533Y-125156190D02*
X179424105Y-125727619D01*
X179424105Y-125727619D02*
X180043152Y-125727619D01*
X180900295Y-125060952D02*
X180900295Y-125727619D01*
X180471724Y-125060952D02*
X180471724Y-125584761D01*
X180471724Y-125584761D02*
X180519343Y-125680000D01*
X180519343Y-125680000D02*
X180614581Y-125727619D01*
X180614581Y-125727619D02*
X180757438Y-125727619D01*
X180757438Y-125727619D02*
X180852676Y-125680000D01*
X180852676Y-125680000D02*
X180900295Y-125632380D01*
X181709819Y-125203809D02*
X181376486Y-125203809D01*
X181376486Y-125727619D02*
X181376486Y-124727619D01*
X181376486Y-124727619D02*
X181852676Y-124727619D01*
X110939342Y-118190180D02*
X110891723Y-118237800D01*
X110891723Y-118237800D02*
X110748866Y-118285419D01*
X110748866Y-118285419D02*
X110653628Y-118285419D01*
X110653628Y-118285419D02*
X110510771Y-118237800D01*
X110510771Y-118237800D02*
X110415533Y-118142561D01*
X110415533Y-118142561D02*
X110367914Y-118047323D01*
X110367914Y-118047323D02*
X110320295Y-117856847D01*
X110320295Y-117856847D02*
X110320295Y-117713990D01*
X110320295Y-117713990D02*
X110367914Y-117523514D01*
X110367914Y-117523514D02*
X110415533Y-117428276D01*
X110415533Y-117428276D02*
X110510771Y-117333038D01*
X110510771Y-117333038D02*
X110653628Y-117285419D01*
X110653628Y-117285419D02*
X110748866Y-117285419D01*
X110748866Y-117285419D02*
X110891723Y-117333038D01*
X110891723Y-117333038D02*
X110939342Y-117380657D01*
X111891723Y-118285419D02*
X111320295Y-118285419D01*
X111606009Y-118285419D02*
X111606009Y-117285419D01*
X111606009Y-117285419D02*
X111510771Y-117428276D01*
X111510771Y-117428276D02*
X111415533Y-117523514D01*
X111415533Y-117523514D02*
X111320295Y-117571133D01*
X112510771Y-117285419D02*
X112606009Y-117285419D01*
X112606009Y-117285419D02*
X112701247Y-117333038D01*
X112701247Y-117333038D02*
X112748866Y-117380657D01*
X112748866Y-117380657D02*
X112796485Y-117475895D01*
X112796485Y-117475895D02*
X112844104Y-117666371D01*
X112844104Y-117666371D02*
X112844104Y-117904466D01*
X112844104Y-117904466D02*
X112796485Y-118094942D01*
X112796485Y-118094942D02*
X112748866Y-118190180D01*
X112748866Y-118190180D02*
X112701247Y-118237800D01*
X112701247Y-118237800D02*
X112606009Y-118285419D01*
X112606009Y-118285419D02*
X112510771Y-118285419D01*
X112510771Y-118285419D02*
X112415533Y-118237800D01*
X112415533Y-118237800D02*
X112367914Y-118190180D01*
X112367914Y-118190180D02*
X112320295Y-118094942D01*
X112320295Y-118094942D02*
X112272676Y-117904466D01*
X112272676Y-117904466D02*
X112272676Y-117666371D01*
X112272676Y-117666371D02*
X112320295Y-117475895D01*
X112320295Y-117475895D02*
X112367914Y-117380657D01*
X112367914Y-117380657D02*
X112415533Y-117333038D01*
X112415533Y-117333038D02*
X112510771Y-117285419D01*
X105007143Y-123650057D02*
X105054762Y-123602438D01*
X105054762Y-123602438D02*
X105150000Y-123554819D01*
X105150000Y-123554819D02*
X105388095Y-123554819D01*
X105388095Y-123554819D02*
X105483333Y-123602438D01*
X105483333Y-123602438D02*
X105530952Y-123650057D01*
X105530952Y-123650057D02*
X105578571Y-123745295D01*
X105578571Y-123745295D02*
X105578571Y-123840533D01*
X105578571Y-123840533D02*
X105530952Y-123983390D01*
X105530952Y-123983390D02*
X104959524Y-124554819D01*
X104959524Y-124554819D02*
X105578571Y-124554819D01*
X105959524Y-123650057D02*
X106007143Y-123602438D01*
X106007143Y-123602438D02*
X106102381Y-123554819D01*
X106102381Y-123554819D02*
X106340476Y-123554819D01*
X106340476Y-123554819D02*
X106435714Y-123602438D01*
X106435714Y-123602438D02*
X106483333Y-123650057D01*
X106483333Y-123650057D02*
X106530952Y-123745295D01*
X106530952Y-123745295D02*
X106530952Y-123840533D01*
X106530952Y-123840533D02*
X106483333Y-123983390D01*
X106483333Y-123983390D02*
X105911905Y-124554819D01*
X105911905Y-124554819D02*
X106530952Y-124554819D01*
X107388095Y-123888152D02*
X107388095Y-124554819D01*
X106959524Y-123888152D02*
X106959524Y-124411961D01*
X106959524Y-124411961D02*
X107007143Y-124507200D01*
X107007143Y-124507200D02*
X107102381Y-124554819D01*
X107102381Y-124554819D02*
X107245238Y-124554819D01*
X107245238Y-124554819D02*
X107340476Y-124507200D01*
X107340476Y-124507200D02*
X107388095Y-124459580D01*
X108197619Y-124031009D02*
X107864286Y-124031009D01*
X107864286Y-124554819D02*
X107864286Y-123554819D01*
X107864286Y-123554819D02*
X108340476Y-123554819D01*
X141573619Y-82126057D02*
X141097428Y-82459390D01*
X141573619Y-82697485D02*
X140573619Y-82697485D01*
X140573619Y-82697485D02*
X140573619Y-82316533D01*
X140573619Y-82316533D02*
X140621238Y-82221295D01*
X140621238Y-82221295D02*
X140668857Y-82173676D01*
X140668857Y-82173676D02*
X140764095Y-82126057D01*
X140764095Y-82126057D02*
X140906952Y-82126057D01*
X140906952Y-82126057D02*
X141002190Y-82173676D01*
X141002190Y-82173676D02*
X141049809Y-82221295D01*
X141049809Y-82221295D02*
X141097428Y-82316533D01*
X141097428Y-82316533D02*
X141097428Y-82697485D01*
X141573619Y-81173676D02*
X141573619Y-81745104D01*
X141573619Y-81459390D02*
X140573619Y-81459390D01*
X140573619Y-81459390D02*
X140716476Y-81554628D01*
X140716476Y-81554628D02*
X140811714Y-81649866D01*
X140811714Y-81649866D02*
X140859333Y-81745104D01*
X140573619Y-80554628D02*
X140573619Y-80459390D01*
X140573619Y-80459390D02*
X140621238Y-80364152D01*
X140621238Y-80364152D02*
X140668857Y-80316533D01*
X140668857Y-80316533D02*
X140764095Y-80268914D01*
X140764095Y-80268914D02*
X140954571Y-80221295D01*
X140954571Y-80221295D02*
X141192666Y-80221295D01*
X141192666Y-80221295D02*
X141383142Y-80268914D01*
X141383142Y-80268914D02*
X141478380Y-80316533D01*
X141478380Y-80316533D02*
X141526000Y-80364152D01*
X141526000Y-80364152D02*
X141573619Y-80459390D01*
X141573619Y-80459390D02*
X141573619Y-80554628D01*
X141573619Y-80554628D02*
X141526000Y-80649866D01*
X141526000Y-80649866D02*
X141478380Y-80697485D01*
X141478380Y-80697485D02*
X141383142Y-80745104D01*
X141383142Y-80745104D02*
X141192666Y-80792723D01*
X141192666Y-80792723D02*
X140954571Y-80792723D01*
X140954571Y-80792723D02*
X140764095Y-80745104D01*
X140764095Y-80745104D02*
X140668857Y-80697485D01*
X140668857Y-80697485D02*
X140621238Y-80649866D01*
X140621238Y-80649866D02*
X140573619Y-80554628D01*
D11*
X141451764Y-74272857D02*
X141451764Y-74701428D01*
X141451764Y-74487143D02*
X140701764Y-74487143D01*
X140701764Y-74487143D02*
X140808907Y-74558571D01*
X140808907Y-74558571D02*
X140880335Y-74630000D01*
X140880335Y-74630000D02*
X140916050Y-74701428D01*
X140701764Y-73808571D02*
X140701764Y-73737142D01*
X140701764Y-73737142D02*
X140737478Y-73665714D01*
X140737478Y-73665714D02*
X140773192Y-73630000D01*
X140773192Y-73630000D02*
X140844621Y-73594285D01*
X140844621Y-73594285D02*
X140987478Y-73558571D01*
X140987478Y-73558571D02*
X141166050Y-73558571D01*
X141166050Y-73558571D02*
X141308907Y-73594285D01*
X141308907Y-73594285D02*
X141380335Y-73630000D01*
X141380335Y-73630000D02*
X141416050Y-73665714D01*
X141416050Y-73665714D02*
X141451764Y-73737142D01*
X141451764Y-73737142D02*
X141451764Y-73808571D01*
X141451764Y-73808571D02*
X141416050Y-73880000D01*
X141416050Y-73880000D02*
X141380335Y-73915714D01*
X141380335Y-73915714D02*
X141308907Y-73951428D01*
X141308907Y-73951428D02*
X141166050Y-73987142D01*
X141166050Y-73987142D02*
X140987478Y-73987142D01*
X140987478Y-73987142D02*
X140844621Y-73951428D01*
X140844621Y-73951428D02*
X140773192Y-73915714D01*
X140773192Y-73915714D02*
X140737478Y-73880000D01*
X140737478Y-73880000D02*
X140701764Y-73808571D01*
X141451764Y-73237142D02*
X140701764Y-73237142D01*
X141451764Y-72808571D02*
X141023192Y-73129999D01*
X140701764Y-72808571D02*
X141130335Y-73237142D01*
D10*
X123584619Y-64900133D02*
X124298904Y-64900133D01*
X124298904Y-64900133D02*
X124441761Y-64947752D01*
X124441761Y-64947752D02*
X124537000Y-65042990D01*
X124537000Y-65042990D02*
X124584619Y-65185847D01*
X124584619Y-65185847D02*
X124584619Y-65281085D01*
X123917952Y-63995371D02*
X124584619Y-63995371D01*
X123537000Y-64233466D02*
X124251285Y-64471561D01*
X124251285Y-64471561D02*
X124251285Y-63852514D01*
X131077619Y-64874733D02*
X131791904Y-64874733D01*
X131791904Y-64874733D02*
X131934761Y-64922352D01*
X131934761Y-64922352D02*
X132030000Y-65017590D01*
X132030000Y-65017590D02*
X132077619Y-65160447D01*
X132077619Y-65160447D02*
X132077619Y-65255685D01*
X131077619Y-64493780D02*
X131077619Y-63827114D01*
X131077619Y-63827114D02*
X132077619Y-64255685D01*
X156680819Y-65096923D02*
X157395104Y-65096923D01*
X157395104Y-65096923D02*
X157537961Y-65144542D01*
X157537961Y-65144542D02*
X157633200Y-65239780D01*
X157633200Y-65239780D02*
X157680819Y-65382637D01*
X157680819Y-65382637D02*
X157680819Y-65477875D01*
X157680819Y-64096923D02*
X157680819Y-64668351D01*
X157680819Y-64382637D02*
X156680819Y-64382637D01*
X156680819Y-64382637D02*
X156823676Y-64477875D01*
X156823676Y-64477875D02*
X156918914Y-64573113D01*
X156918914Y-64573113D02*
X156966533Y-64668351D01*
X156680819Y-63477875D02*
X156680819Y-63382637D01*
X156680819Y-63382637D02*
X156728438Y-63287399D01*
X156728438Y-63287399D02*
X156776057Y-63239780D01*
X156776057Y-63239780D02*
X156871295Y-63192161D01*
X156871295Y-63192161D02*
X157061771Y-63144542D01*
X157061771Y-63144542D02*
X157299866Y-63144542D01*
X157299866Y-63144542D02*
X157490342Y-63192161D01*
X157490342Y-63192161D02*
X157585580Y-63239780D01*
X157585580Y-63239780D02*
X157633200Y-63287399D01*
X157633200Y-63287399D02*
X157680819Y-63382637D01*
X157680819Y-63382637D02*
X157680819Y-63477875D01*
X157680819Y-63477875D02*
X157633200Y-63573113D01*
X157633200Y-63573113D02*
X157585580Y-63620732D01*
X157585580Y-63620732D02*
X157490342Y-63668351D01*
X157490342Y-63668351D02*
X157299866Y-63715970D01*
X157299866Y-63715970D02*
X157061771Y-63715970D01*
X157061771Y-63715970D02*
X156871295Y-63668351D01*
X156871295Y-63668351D02*
X156776057Y-63620732D01*
X156776057Y-63620732D02*
X156728438Y-63573113D01*
X156728438Y-63573113D02*
X156680819Y-63477875D01*
X137259219Y-81319666D02*
X136783028Y-81652999D01*
X137259219Y-81891094D02*
X136259219Y-81891094D01*
X136259219Y-81891094D02*
X136259219Y-81510142D01*
X136259219Y-81510142D02*
X136306838Y-81414904D01*
X136306838Y-81414904D02*
X136354457Y-81367285D01*
X136354457Y-81367285D02*
X136449695Y-81319666D01*
X136449695Y-81319666D02*
X136592552Y-81319666D01*
X136592552Y-81319666D02*
X136687790Y-81367285D01*
X136687790Y-81367285D02*
X136735409Y-81414904D01*
X136735409Y-81414904D02*
X136783028Y-81510142D01*
X136783028Y-81510142D02*
X136783028Y-81891094D01*
X137259219Y-80843475D02*
X137259219Y-80652999D01*
X137259219Y-80652999D02*
X137211600Y-80557761D01*
X137211600Y-80557761D02*
X137163980Y-80510142D01*
X137163980Y-80510142D02*
X137021123Y-80414904D01*
X137021123Y-80414904D02*
X136830647Y-80367285D01*
X136830647Y-80367285D02*
X136449695Y-80367285D01*
X136449695Y-80367285D02*
X136354457Y-80414904D01*
X136354457Y-80414904D02*
X136306838Y-80462523D01*
X136306838Y-80462523D02*
X136259219Y-80557761D01*
X136259219Y-80557761D02*
X136259219Y-80748237D01*
X136259219Y-80748237D02*
X136306838Y-80843475D01*
X136306838Y-80843475D02*
X136354457Y-80891094D01*
X136354457Y-80891094D02*
X136449695Y-80938713D01*
X136449695Y-80938713D02*
X136687790Y-80938713D01*
X136687790Y-80938713D02*
X136783028Y-80891094D01*
X136783028Y-80891094D02*
X136830647Y-80843475D01*
X136830647Y-80843475D02*
X136878266Y-80748237D01*
X136878266Y-80748237D02*
X136878266Y-80557761D01*
X136878266Y-80557761D02*
X136830647Y-80462523D01*
X136830647Y-80462523D02*
X136783028Y-80414904D01*
X136783028Y-80414904D02*
X136687790Y-80367285D01*
D11*
X137151764Y-74337857D02*
X137151764Y-74766428D01*
X137151764Y-74552143D02*
X136401764Y-74552143D01*
X136401764Y-74552143D02*
X136508907Y-74623571D01*
X136508907Y-74623571D02*
X136580335Y-74695000D01*
X136580335Y-74695000D02*
X136616050Y-74766428D01*
X136401764Y-73873571D02*
X136401764Y-73802142D01*
X136401764Y-73802142D02*
X136437478Y-73730714D01*
X136437478Y-73730714D02*
X136473192Y-73695000D01*
X136473192Y-73695000D02*
X136544621Y-73659285D01*
X136544621Y-73659285D02*
X136687478Y-73623571D01*
X136687478Y-73623571D02*
X136866050Y-73623571D01*
X136866050Y-73623571D02*
X137008907Y-73659285D01*
X137008907Y-73659285D02*
X137080335Y-73695000D01*
X137080335Y-73695000D02*
X137116050Y-73730714D01*
X137116050Y-73730714D02*
X137151764Y-73802142D01*
X137151764Y-73802142D02*
X137151764Y-73873571D01*
X137151764Y-73873571D02*
X137116050Y-73945000D01*
X137116050Y-73945000D02*
X137080335Y-73980714D01*
X137080335Y-73980714D02*
X137008907Y-74016428D01*
X137008907Y-74016428D02*
X136866050Y-74052142D01*
X136866050Y-74052142D02*
X136687478Y-74052142D01*
X136687478Y-74052142D02*
X136544621Y-74016428D01*
X136544621Y-74016428D02*
X136473192Y-73980714D01*
X136473192Y-73980714D02*
X136437478Y-73945000D01*
X136437478Y-73945000D02*
X136401764Y-73873571D01*
X137151764Y-73302142D02*
X136401764Y-73302142D01*
X137151764Y-72873571D02*
X136723192Y-73194999D01*
X136401764Y-72873571D02*
X136830335Y-73302142D01*
D10*
X147773619Y-82126057D02*
X147297428Y-82459390D01*
X147773619Y-82697485D02*
X146773619Y-82697485D01*
X146773619Y-82697485D02*
X146773619Y-82316533D01*
X146773619Y-82316533D02*
X146821238Y-82221295D01*
X146821238Y-82221295D02*
X146868857Y-82173676D01*
X146868857Y-82173676D02*
X146964095Y-82126057D01*
X146964095Y-82126057D02*
X147106952Y-82126057D01*
X147106952Y-82126057D02*
X147202190Y-82173676D01*
X147202190Y-82173676D02*
X147249809Y-82221295D01*
X147249809Y-82221295D02*
X147297428Y-82316533D01*
X147297428Y-82316533D02*
X147297428Y-82697485D01*
X147773619Y-81173676D02*
X147773619Y-81745104D01*
X147773619Y-81459390D02*
X146773619Y-81459390D01*
X146773619Y-81459390D02*
X146916476Y-81554628D01*
X146916476Y-81554628D02*
X147011714Y-81649866D01*
X147011714Y-81649866D02*
X147059333Y-81745104D01*
X146868857Y-80792723D02*
X146821238Y-80745104D01*
X146821238Y-80745104D02*
X146773619Y-80649866D01*
X146773619Y-80649866D02*
X146773619Y-80411771D01*
X146773619Y-80411771D02*
X146821238Y-80316533D01*
X146821238Y-80316533D02*
X146868857Y-80268914D01*
X146868857Y-80268914D02*
X146964095Y-80221295D01*
X146964095Y-80221295D02*
X147059333Y-80221295D01*
X147059333Y-80221295D02*
X147202190Y-80268914D01*
X147202190Y-80268914D02*
X147773619Y-80840342D01*
X147773619Y-80840342D02*
X147773619Y-80221295D01*
D11*
X147651764Y-74272857D02*
X147651764Y-74701428D01*
X147651764Y-74487143D02*
X146901764Y-74487143D01*
X146901764Y-74487143D02*
X147008907Y-74558571D01*
X147008907Y-74558571D02*
X147080335Y-74630000D01*
X147080335Y-74630000D02*
X147116050Y-74701428D01*
X146901764Y-73808571D02*
X146901764Y-73737142D01*
X146901764Y-73737142D02*
X146937478Y-73665714D01*
X146937478Y-73665714D02*
X146973192Y-73630000D01*
X146973192Y-73630000D02*
X147044621Y-73594285D01*
X147044621Y-73594285D02*
X147187478Y-73558571D01*
X147187478Y-73558571D02*
X147366050Y-73558571D01*
X147366050Y-73558571D02*
X147508907Y-73594285D01*
X147508907Y-73594285D02*
X147580335Y-73630000D01*
X147580335Y-73630000D02*
X147616050Y-73665714D01*
X147616050Y-73665714D02*
X147651764Y-73737142D01*
X147651764Y-73737142D02*
X147651764Y-73808571D01*
X147651764Y-73808571D02*
X147616050Y-73880000D01*
X147616050Y-73880000D02*
X147580335Y-73915714D01*
X147580335Y-73915714D02*
X147508907Y-73951428D01*
X147508907Y-73951428D02*
X147366050Y-73987142D01*
X147366050Y-73987142D02*
X147187478Y-73987142D01*
X147187478Y-73987142D02*
X147044621Y-73951428D01*
X147044621Y-73951428D02*
X146973192Y-73915714D01*
X146973192Y-73915714D02*
X146937478Y-73880000D01*
X146937478Y-73880000D02*
X146901764Y-73808571D01*
X147651764Y-73237142D02*
X146901764Y-73237142D01*
X147651764Y-72808571D02*
X147223192Y-73129999D01*
X146901764Y-72808571D02*
X147330335Y-73237142D01*
D10*
X152664819Y-84972857D02*
X152188628Y-85306190D01*
X152664819Y-85544285D02*
X151664819Y-85544285D01*
X151664819Y-85544285D02*
X151664819Y-85163333D01*
X151664819Y-85163333D02*
X151712438Y-85068095D01*
X151712438Y-85068095D02*
X151760057Y-85020476D01*
X151760057Y-85020476D02*
X151855295Y-84972857D01*
X151855295Y-84972857D02*
X151998152Y-84972857D01*
X151998152Y-84972857D02*
X152093390Y-85020476D01*
X152093390Y-85020476D02*
X152141009Y-85068095D01*
X152141009Y-85068095D02*
X152188628Y-85163333D01*
X152188628Y-85163333D02*
X152188628Y-85544285D01*
X152664819Y-84020476D02*
X152664819Y-84591904D01*
X152664819Y-84306190D02*
X151664819Y-84306190D01*
X151664819Y-84306190D02*
X151807676Y-84401428D01*
X151807676Y-84401428D02*
X151902914Y-84496666D01*
X151902914Y-84496666D02*
X151950533Y-84591904D01*
X152093390Y-83449047D02*
X152045771Y-83544285D01*
X152045771Y-83544285D02*
X151998152Y-83591904D01*
X151998152Y-83591904D02*
X151902914Y-83639523D01*
X151902914Y-83639523D02*
X151855295Y-83639523D01*
X151855295Y-83639523D02*
X151760057Y-83591904D01*
X151760057Y-83591904D02*
X151712438Y-83544285D01*
X151712438Y-83544285D02*
X151664819Y-83449047D01*
X151664819Y-83449047D02*
X151664819Y-83258571D01*
X151664819Y-83258571D02*
X151712438Y-83163333D01*
X151712438Y-83163333D02*
X151760057Y-83115714D01*
X151760057Y-83115714D02*
X151855295Y-83068095D01*
X151855295Y-83068095D02*
X151902914Y-83068095D01*
X151902914Y-83068095D02*
X151998152Y-83115714D01*
X151998152Y-83115714D02*
X152045771Y-83163333D01*
X152045771Y-83163333D02*
X152093390Y-83258571D01*
X152093390Y-83258571D02*
X152093390Y-83449047D01*
X152093390Y-83449047D02*
X152141009Y-83544285D01*
X152141009Y-83544285D02*
X152188628Y-83591904D01*
X152188628Y-83591904D02*
X152283866Y-83639523D01*
X152283866Y-83639523D02*
X152474342Y-83639523D01*
X152474342Y-83639523D02*
X152569580Y-83591904D01*
X152569580Y-83591904D02*
X152617200Y-83544285D01*
X152617200Y-83544285D02*
X152664819Y-83449047D01*
X152664819Y-83449047D02*
X152664819Y-83258571D01*
X152664819Y-83258571D02*
X152617200Y-83163333D01*
X152617200Y-83163333D02*
X152569580Y-83115714D01*
X152569580Y-83115714D02*
X152474342Y-83068095D01*
X152474342Y-83068095D02*
X152283866Y-83068095D01*
X152283866Y-83068095D02*
X152188628Y-83115714D01*
X152188628Y-83115714D02*
X152141009Y-83163333D01*
X152141009Y-83163333D02*
X152093390Y-83258571D01*
D11*
X154751764Y-85237857D02*
X154751764Y-85666428D01*
X154751764Y-85452143D02*
X154001764Y-85452143D01*
X154001764Y-85452143D02*
X154108907Y-85523571D01*
X154108907Y-85523571D02*
X154180335Y-85595000D01*
X154180335Y-85595000D02*
X154216050Y-85666428D01*
X154001764Y-84773571D02*
X154001764Y-84702142D01*
X154001764Y-84702142D02*
X154037478Y-84630714D01*
X154037478Y-84630714D02*
X154073192Y-84595000D01*
X154073192Y-84595000D02*
X154144621Y-84559285D01*
X154144621Y-84559285D02*
X154287478Y-84523571D01*
X154287478Y-84523571D02*
X154466050Y-84523571D01*
X154466050Y-84523571D02*
X154608907Y-84559285D01*
X154608907Y-84559285D02*
X154680335Y-84595000D01*
X154680335Y-84595000D02*
X154716050Y-84630714D01*
X154716050Y-84630714D02*
X154751764Y-84702142D01*
X154751764Y-84702142D02*
X154751764Y-84773571D01*
X154751764Y-84773571D02*
X154716050Y-84845000D01*
X154716050Y-84845000D02*
X154680335Y-84880714D01*
X154680335Y-84880714D02*
X154608907Y-84916428D01*
X154608907Y-84916428D02*
X154466050Y-84952142D01*
X154466050Y-84952142D02*
X154287478Y-84952142D01*
X154287478Y-84952142D02*
X154144621Y-84916428D01*
X154144621Y-84916428D02*
X154073192Y-84880714D01*
X154073192Y-84880714D02*
X154037478Y-84845000D01*
X154037478Y-84845000D02*
X154001764Y-84773571D01*
X154751764Y-84202142D02*
X154001764Y-84202142D01*
X154751764Y-83773571D02*
X154323192Y-84094999D01*
X154001764Y-83773571D02*
X154430335Y-84202142D01*
D10*
X162147619Y-82227657D02*
X161671428Y-82560990D01*
X162147619Y-82799085D02*
X161147619Y-82799085D01*
X161147619Y-82799085D02*
X161147619Y-82418133D01*
X161147619Y-82418133D02*
X161195238Y-82322895D01*
X161195238Y-82322895D02*
X161242857Y-82275276D01*
X161242857Y-82275276D02*
X161338095Y-82227657D01*
X161338095Y-82227657D02*
X161480952Y-82227657D01*
X161480952Y-82227657D02*
X161576190Y-82275276D01*
X161576190Y-82275276D02*
X161623809Y-82322895D01*
X161623809Y-82322895D02*
X161671428Y-82418133D01*
X161671428Y-82418133D02*
X161671428Y-82799085D01*
X162147619Y-81275276D02*
X162147619Y-81846704D01*
X162147619Y-81560990D02*
X161147619Y-81560990D01*
X161147619Y-81560990D02*
X161290476Y-81656228D01*
X161290476Y-81656228D02*
X161385714Y-81751466D01*
X161385714Y-81751466D02*
X161433333Y-81846704D01*
X161147619Y-80370514D02*
X161147619Y-80846704D01*
X161147619Y-80846704D02*
X161623809Y-80894323D01*
X161623809Y-80894323D02*
X161576190Y-80846704D01*
X161576190Y-80846704D02*
X161528571Y-80751466D01*
X161528571Y-80751466D02*
X161528571Y-80513371D01*
X161528571Y-80513371D02*
X161576190Y-80418133D01*
X161576190Y-80418133D02*
X161623809Y-80370514D01*
X161623809Y-80370514D02*
X161719047Y-80322895D01*
X161719047Y-80322895D02*
X161957142Y-80322895D01*
X161957142Y-80322895D02*
X162052380Y-80370514D01*
X162052380Y-80370514D02*
X162100000Y-80418133D01*
X162100000Y-80418133D02*
X162147619Y-80513371D01*
X162147619Y-80513371D02*
X162147619Y-80751466D01*
X162147619Y-80751466D02*
X162100000Y-80846704D01*
X162100000Y-80846704D02*
X162052380Y-80894323D01*
D11*
X162051764Y-74237857D02*
X162051764Y-74666428D01*
X162051764Y-74452143D02*
X161301764Y-74452143D01*
X161301764Y-74452143D02*
X161408907Y-74523571D01*
X161408907Y-74523571D02*
X161480335Y-74595000D01*
X161480335Y-74595000D02*
X161516050Y-74666428D01*
X161301764Y-73773571D02*
X161301764Y-73702142D01*
X161301764Y-73702142D02*
X161337478Y-73630714D01*
X161337478Y-73630714D02*
X161373192Y-73595000D01*
X161373192Y-73595000D02*
X161444621Y-73559285D01*
X161444621Y-73559285D02*
X161587478Y-73523571D01*
X161587478Y-73523571D02*
X161766050Y-73523571D01*
X161766050Y-73523571D02*
X161908907Y-73559285D01*
X161908907Y-73559285D02*
X161980335Y-73595000D01*
X161980335Y-73595000D02*
X162016050Y-73630714D01*
X162016050Y-73630714D02*
X162051764Y-73702142D01*
X162051764Y-73702142D02*
X162051764Y-73773571D01*
X162051764Y-73773571D02*
X162016050Y-73845000D01*
X162016050Y-73845000D02*
X161980335Y-73880714D01*
X161980335Y-73880714D02*
X161908907Y-73916428D01*
X161908907Y-73916428D02*
X161766050Y-73952142D01*
X161766050Y-73952142D02*
X161587478Y-73952142D01*
X161587478Y-73952142D02*
X161444621Y-73916428D01*
X161444621Y-73916428D02*
X161373192Y-73880714D01*
X161373192Y-73880714D02*
X161337478Y-73845000D01*
X161337478Y-73845000D02*
X161301764Y-73773571D01*
X162051764Y-73202142D02*
X161301764Y-73202142D01*
X162051764Y-72773571D02*
X161623192Y-73094999D01*
X161301764Y-72773571D02*
X161730335Y-73202142D01*
D10*
X150873619Y-82126057D02*
X150397428Y-82459390D01*
X150873619Y-82697485D02*
X149873619Y-82697485D01*
X149873619Y-82697485D02*
X149873619Y-82316533D01*
X149873619Y-82316533D02*
X149921238Y-82221295D01*
X149921238Y-82221295D02*
X149968857Y-82173676D01*
X149968857Y-82173676D02*
X150064095Y-82126057D01*
X150064095Y-82126057D02*
X150206952Y-82126057D01*
X150206952Y-82126057D02*
X150302190Y-82173676D01*
X150302190Y-82173676D02*
X150349809Y-82221295D01*
X150349809Y-82221295D02*
X150397428Y-82316533D01*
X150397428Y-82316533D02*
X150397428Y-82697485D01*
X150873619Y-81173676D02*
X150873619Y-81745104D01*
X150873619Y-81459390D02*
X149873619Y-81459390D01*
X149873619Y-81459390D02*
X150016476Y-81554628D01*
X150016476Y-81554628D02*
X150111714Y-81649866D01*
X150111714Y-81649866D02*
X150159333Y-81745104D01*
X149873619Y-80840342D02*
X149873619Y-80221295D01*
X149873619Y-80221295D02*
X150254571Y-80554628D01*
X150254571Y-80554628D02*
X150254571Y-80411771D01*
X150254571Y-80411771D02*
X150302190Y-80316533D01*
X150302190Y-80316533D02*
X150349809Y-80268914D01*
X150349809Y-80268914D02*
X150445047Y-80221295D01*
X150445047Y-80221295D02*
X150683142Y-80221295D01*
X150683142Y-80221295D02*
X150778380Y-80268914D01*
X150778380Y-80268914D02*
X150826000Y-80316533D01*
X150826000Y-80316533D02*
X150873619Y-80411771D01*
X150873619Y-80411771D02*
X150873619Y-80697485D01*
X150873619Y-80697485D02*
X150826000Y-80792723D01*
X150826000Y-80792723D02*
X150778380Y-80840342D01*
D11*
X150751764Y-74272857D02*
X150751764Y-74701428D01*
X150751764Y-74487143D02*
X150001764Y-74487143D01*
X150001764Y-74487143D02*
X150108907Y-74558571D01*
X150108907Y-74558571D02*
X150180335Y-74630000D01*
X150180335Y-74630000D02*
X150216050Y-74701428D01*
X150001764Y-73808571D02*
X150001764Y-73737142D01*
X150001764Y-73737142D02*
X150037478Y-73665714D01*
X150037478Y-73665714D02*
X150073192Y-73630000D01*
X150073192Y-73630000D02*
X150144621Y-73594285D01*
X150144621Y-73594285D02*
X150287478Y-73558571D01*
X150287478Y-73558571D02*
X150466050Y-73558571D01*
X150466050Y-73558571D02*
X150608907Y-73594285D01*
X150608907Y-73594285D02*
X150680335Y-73630000D01*
X150680335Y-73630000D02*
X150716050Y-73665714D01*
X150716050Y-73665714D02*
X150751764Y-73737142D01*
X150751764Y-73737142D02*
X150751764Y-73808571D01*
X150751764Y-73808571D02*
X150716050Y-73880000D01*
X150716050Y-73880000D02*
X150680335Y-73915714D01*
X150680335Y-73915714D02*
X150608907Y-73951428D01*
X150608907Y-73951428D02*
X150466050Y-73987142D01*
X150466050Y-73987142D02*
X150287478Y-73987142D01*
X150287478Y-73987142D02*
X150144621Y-73951428D01*
X150144621Y-73951428D02*
X150073192Y-73915714D01*
X150073192Y-73915714D02*
X150037478Y-73880000D01*
X150037478Y-73880000D02*
X150001764Y-73808571D01*
X150751764Y-73237142D02*
X150001764Y-73237142D01*
X150751764Y-72808571D02*
X150323192Y-73129999D01*
X150001764Y-72808571D02*
X150430335Y-73237142D01*
D10*
X165247619Y-82227657D02*
X164771428Y-82560990D01*
X165247619Y-82799085D02*
X164247619Y-82799085D01*
X164247619Y-82799085D02*
X164247619Y-82418133D01*
X164247619Y-82418133D02*
X164295238Y-82322895D01*
X164295238Y-82322895D02*
X164342857Y-82275276D01*
X164342857Y-82275276D02*
X164438095Y-82227657D01*
X164438095Y-82227657D02*
X164580952Y-82227657D01*
X164580952Y-82227657D02*
X164676190Y-82275276D01*
X164676190Y-82275276D02*
X164723809Y-82322895D01*
X164723809Y-82322895D02*
X164771428Y-82418133D01*
X164771428Y-82418133D02*
X164771428Y-82799085D01*
X165247619Y-81275276D02*
X165247619Y-81846704D01*
X165247619Y-81560990D02*
X164247619Y-81560990D01*
X164247619Y-81560990D02*
X164390476Y-81656228D01*
X164390476Y-81656228D02*
X164485714Y-81751466D01*
X164485714Y-81751466D02*
X164533333Y-81846704D01*
X164247619Y-80418133D02*
X164247619Y-80608609D01*
X164247619Y-80608609D02*
X164295238Y-80703847D01*
X164295238Y-80703847D02*
X164342857Y-80751466D01*
X164342857Y-80751466D02*
X164485714Y-80846704D01*
X164485714Y-80846704D02*
X164676190Y-80894323D01*
X164676190Y-80894323D02*
X165057142Y-80894323D01*
X165057142Y-80894323D02*
X165152380Y-80846704D01*
X165152380Y-80846704D02*
X165200000Y-80799085D01*
X165200000Y-80799085D02*
X165247619Y-80703847D01*
X165247619Y-80703847D02*
X165247619Y-80513371D01*
X165247619Y-80513371D02*
X165200000Y-80418133D01*
X165200000Y-80418133D02*
X165152380Y-80370514D01*
X165152380Y-80370514D02*
X165057142Y-80322895D01*
X165057142Y-80322895D02*
X164819047Y-80322895D01*
X164819047Y-80322895D02*
X164723809Y-80370514D01*
X164723809Y-80370514D02*
X164676190Y-80418133D01*
X164676190Y-80418133D02*
X164628571Y-80513371D01*
X164628571Y-80513371D02*
X164628571Y-80703847D01*
X164628571Y-80703847D02*
X164676190Y-80799085D01*
X164676190Y-80799085D02*
X164723809Y-80846704D01*
X164723809Y-80846704D02*
X164819047Y-80894323D01*
D11*
X165151764Y-74237857D02*
X165151764Y-74666428D01*
X165151764Y-74452143D02*
X164401764Y-74452143D01*
X164401764Y-74452143D02*
X164508907Y-74523571D01*
X164508907Y-74523571D02*
X164580335Y-74595000D01*
X164580335Y-74595000D02*
X164616050Y-74666428D01*
X164401764Y-73773571D02*
X164401764Y-73702142D01*
X164401764Y-73702142D02*
X164437478Y-73630714D01*
X164437478Y-73630714D02*
X164473192Y-73595000D01*
X164473192Y-73595000D02*
X164544621Y-73559285D01*
X164544621Y-73559285D02*
X164687478Y-73523571D01*
X164687478Y-73523571D02*
X164866050Y-73523571D01*
X164866050Y-73523571D02*
X165008907Y-73559285D01*
X165008907Y-73559285D02*
X165080335Y-73595000D01*
X165080335Y-73595000D02*
X165116050Y-73630714D01*
X165116050Y-73630714D02*
X165151764Y-73702142D01*
X165151764Y-73702142D02*
X165151764Y-73773571D01*
X165151764Y-73773571D02*
X165116050Y-73845000D01*
X165116050Y-73845000D02*
X165080335Y-73880714D01*
X165080335Y-73880714D02*
X165008907Y-73916428D01*
X165008907Y-73916428D02*
X164866050Y-73952142D01*
X164866050Y-73952142D02*
X164687478Y-73952142D01*
X164687478Y-73952142D02*
X164544621Y-73916428D01*
X164544621Y-73916428D02*
X164473192Y-73880714D01*
X164473192Y-73880714D02*
X164437478Y-73845000D01*
X164437478Y-73845000D02*
X164401764Y-73773571D01*
X165151764Y-73202142D02*
X164401764Y-73202142D01*
X165151764Y-72773571D02*
X164723192Y-73094999D01*
X164401764Y-72773571D02*
X164830335Y-73202142D01*
D10*
X139053219Y-64773133D02*
X139767504Y-64773133D01*
X139767504Y-64773133D02*
X139910361Y-64820752D01*
X139910361Y-64820752D02*
X140005600Y-64915990D01*
X140005600Y-64915990D02*
X140053219Y-65058847D01*
X140053219Y-65058847D02*
X140053219Y-65154085D01*
X140053219Y-64249323D02*
X140053219Y-64058847D01*
X140053219Y-64058847D02*
X140005600Y-63963609D01*
X140005600Y-63963609D02*
X139957980Y-63915990D01*
X139957980Y-63915990D02*
X139815123Y-63820752D01*
X139815123Y-63820752D02*
X139624647Y-63773133D01*
X139624647Y-63773133D02*
X139243695Y-63773133D01*
X139243695Y-63773133D02*
X139148457Y-63820752D01*
X139148457Y-63820752D02*
X139100838Y-63868371D01*
X139100838Y-63868371D02*
X139053219Y-63963609D01*
X139053219Y-63963609D02*
X139053219Y-64154085D01*
X139053219Y-64154085D02*
X139100838Y-64249323D01*
X139100838Y-64249323D02*
X139148457Y-64296942D01*
X139148457Y-64296942D02*
X139243695Y-64344561D01*
X139243695Y-64344561D02*
X139481790Y-64344561D01*
X139481790Y-64344561D02*
X139577028Y-64296942D01*
X139577028Y-64296942D02*
X139624647Y-64249323D01*
X139624647Y-64249323D02*
X139672266Y-64154085D01*
X139672266Y-64154085D02*
X139672266Y-63963609D01*
X139672266Y-63963609D02*
X139624647Y-63868371D01*
X139624647Y-63868371D02*
X139577028Y-63820752D01*
X139577028Y-63820752D02*
X139481790Y-63773133D01*
X159047619Y-82227657D02*
X158571428Y-82560990D01*
X159047619Y-82799085D02*
X158047619Y-82799085D01*
X158047619Y-82799085D02*
X158047619Y-82418133D01*
X158047619Y-82418133D02*
X158095238Y-82322895D01*
X158095238Y-82322895D02*
X158142857Y-82275276D01*
X158142857Y-82275276D02*
X158238095Y-82227657D01*
X158238095Y-82227657D02*
X158380952Y-82227657D01*
X158380952Y-82227657D02*
X158476190Y-82275276D01*
X158476190Y-82275276D02*
X158523809Y-82322895D01*
X158523809Y-82322895D02*
X158571428Y-82418133D01*
X158571428Y-82418133D02*
X158571428Y-82799085D01*
X159047619Y-81275276D02*
X159047619Y-81846704D01*
X159047619Y-81560990D02*
X158047619Y-81560990D01*
X158047619Y-81560990D02*
X158190476Y-81656228D01*
X158190476Y-81656228D02*
X158285714Y-81751466D01*
X158285714Y-81751466D02*
X158333333Y-81846704D01*
X158380952Y-80418133D02*
X159047619Y-80418133D01*
X158000000Y-80656228D02*
X158714285Y-80894323D01*
X158714285Y-80894323D02*
X158714285Y-80275276D01*
D11*
X158951764Y-74237857D02*
X158951764Y-74666428D01*
X158951764Y-74452143D02*
X158201764Y-74452143D01*
X158201764Y-74452143D02*
X158308907Y-74523571D01*
X158308907Y-74523571D02*
X158380335Y-74595000D01*
X158380335Y-74595000D02*
X158416050Y-74666428D01*
X158201764Y-73773571D02*
X158201764Y-73702142D01*
X158201764Y-73702142D02*
X158237478Y-73630714D01*
X158237478Y-73630714D02*
X158273192Y-73595000D01*
X158273192Y-73595000D02*
X158344621Y-73559285D01*
X158344621Y-73559285D02*
X158487478Y-73523571D01*
X158487478Y-73523571D02*
X158666050Y-73523571D01*
X158666050Y-73523571D02*
X158808907Y-73559285D01*
X158808907Y-73559285D02*
X158880335Y-73595000D01*
X158880335Y-73595000D02*
X158916050Y-73630714D01*
X158916050Y-73630714D02*
X158951764Y-73702142D01*
X158951764Y-73702142D02*
X158951764Y-73773571D01*
X158951764Y-73773571D02*
X158916050Y-73845000D01*
X158916050Y-73845000D02*
X158880335Y-73880714D01*
X158880335Y-73880714D02*
X158808907Y-73916428D01*
X158808907Y-73916428D02*
X158666050Y-73952142D01*
X158666050Y-73952142D02*
X158487478Y-73952142D01*
X158487478Y-73952142D02*
X158344621Y-73916428D01*
X158344621Y-73916428D02*
X158273192Y-73880714D01*
X158273192Y-73880714D02*
X158237478Y-73845000D01*
X158237478Y-73845000D02*
X158201764Y-73773571D01*
X158951764Y-73202142D02*
X158201764Y-73202142D01*
X158951764Y-72773571D02*
X158523192Y-73094999D01*
X158201764Y-72773571D02*
X158630335Y-73202142D01*
D10*
X126758619Y-81268866D02*
X126282428Y-81602199D01*
X126758619Y-81840294D02*
X125758619Y-81840294D01*
X125758619Y-81840294D02*
X125758619Y-81459342D01*
X125758619Y-81459342D02*
X125806238Y-81364104D01*
X125806238Y-81364104D02*
X125853857Y-81316485D01*
X125853857Y-81316485D02*
X125949095Y-81268866D01*
X125949095Y-81268866D02*
X126091952Y-81268866D01*
X126091952Y-81268866D02*
X126187190Y-81316485D01*
X126187190Y-81316485D02*
X126234809Y-81364104D01*
X126234809Y-81364104D02*
X126282428Y-81459342D01*
X126282428Y-81459342D02*
X126282428Y-81840294D01*
X126091952Y-80411723D02*
X126758619Y-80411723D01*
X125711000Y-80649818D02*
X126425285Y-80887913D01*
X126425285Y-80887913D02*
X126425285Y-80268866D01*
D11*
X126591764Y-74337857D02*
X126591764Y-74766428D01*
X126591764Y-74552143D02*
X125841764Y-74552143D01*
X125841764Y-74552143D02*
X125948907Y-74623571D01*
X125948907Y-74623571D02*
X126020335Y-74695000D01*
X126020335Y-74695000D02*
X126056050Y-74766428D01*
X125841764Y-73873571D02*
X125841764Y-73802142D01*
X125841764Y-73802142D02*
X125877478Y-73730714D01*
X125877478Y-73730714D02*
X125913192Y-73695000D01*
X125913192Y-73695000D02*
X125984621Y-73659285D01*
X125984621Y-73659285D02*
X126127478Y-73623571D01*
X126127478Y-73623571D02*
X126306050Y-73623571D01*
X126306050Y-73623571D02*
X126448907Y-73659285D01*
X126448907Y-73659285D02*
X126520335Y-73695000D01*
X126520335Y-73695000D02*
X126556050Y-73730714D01*
X126556050Y-73730714D02*
X126591764Y-73802142D01*
X126591764Y-73802142D02*
X126591764Y-73873571D01*
X126591764Y-73873571D02*
X126556050Y-73945000D01*
X126556050Y-73945000D02*
X126520335Y-73980714D01*
X126520335Y-73980714D02*
X126448907Y-74016428D01*
X126448907Y-74016428D02*
X126306050Y-74052142D01*
X126306050Y-74052142D02*
X126127478Y-74052142D01*
X126127478Y-74052142D02*
X125984621Y-74016428D01*
X125984621Y-74016428D02*
X125913192Y-73980714D01*
X125913192Y-73980714D02*
X125877478Y-73945000D01*
X125877478Y-73945000D02*
X125841764Y-73873571D01*
X126591764Y-73302142D02*
X125841764Y-73302142D01*
X126591764Y-72873571D02*
X126163192Y-73194999D01*
X125841764Y-72873571D02*
X126270335Y-73302142D01*
D10*
X134109219Y-81319666D02*
X133633028Y-81652999D01*
X134109219Y-81891094D02*
X133109219Y-81891094D01*
X133109219Y-81891094D02*
X133109219Y-81510142D01*
X133109219Y-81510142D02*
X133156838Y-81414904D01*
X133156838Y-81414904D02*
X133204457Y-81367285D01*
X133204457Y-81367285D02*
X133299695Y-81319666D01*
X133299695Y-81319666D02*
X133442552Y-81319666D01*
X133442552Y-81319666D02*
X133537790Y-81367285D01*
X133537790Y-81367285D02*
X133585409Y-81414904D01*
X133585409Y-81414904D02*
X133633028Y-81510142D01*
X133633028Y-81510142D02*
X133633028Y-81891094D01*
X133537790Y-80748237D02*
X133490171Y-80843475D01*
X133490171Y-80843475D02*
X133442552Y-80891094D01*
X133442552Y-80891094D02*
X133347314Y-80938713D01*
X133347314Y-80938713D02*
X133299695Y-80938713D01*
X133299695Y-80938713D02*
X133204457Y-80891094D01*
X133204457Y-80891094D02*
X133156838Y-80843475D01*
X133156838Y-80843475D02*
X133109219Y-80748237D01*
X133109219Y-80748237D02*
X133109219Y-80557761D01*
X133109219Y-80557761D02*
X133156838Y-80462523D01*
X133156838Y-80462523D02*
X133204457Y-80414904D01*
X133204457Y-80414904D02*
X133299695Y-80367285D01*
X133299695Y-80367285D02*
X133347314Y-80367285D01*
X133347314Y-80367285D02*
X133442552Y-80414904D01*
X133442552Y-80414904D02*
X133490171Y-80462523D01*
X133490171Y-80462523D02*
X133537790Y-80557761D01*
X133537790Y-80557761D02*
X133537790Y-80748237D01*
X133537790Y-80748237D02*
X133585409Y-80843475D01*
X133585409Y-80843475D02*
X133633028Y-80891094D01*
X133633028Y-80891094D02*
X133728266Y-80938713D01*
X133728266Y-80938713D02*
X133918742Y-80938713D01*
X133918742Y-80938713D02*
X134013980Y-80891094D01*
X134013980Y-80891094D02*
X134061600Y-80843475D01*
X134061600Y-80843475D02*
X134109219Y-80748237D01*
X134109219Y-80748237D02*
X134109219Y-80557761D01*
X134109219Y-80557761D02*
X134061600Y-80462523D01*
X134061600Y-80462523D02*
X134013980Y-80414904D01*
X134013980Y-80414904D02*
X133918742Y-80367285D01*
X133918742Y-80367285D02*
X133728266Y-80367285D01*
X133728266Y-80367285D02*
X133633028Y-80414904D01*
X133633028Y-80414904D02*
X133585409Y-80462523D01*
X133585409Y-80462523D02*
X133537790Y-80557761D01*
D11*
X134001764Y-74337857D02*
X134001764Y-74766428D01*
X134001764Y-74552143D02*
X133251764Y-74552143D01*
X133251764Y-74552143D02*
X133358907Y-74623571D01*
X133358907Y-74623571D02*
X133430335Y-74695000D01*
X133430335Y-74695000D02*
X133466050Y-74766428D01*
X133251764Y-73873571D02*
X133251764Y-73802142D01*
X133251764Y-73802142D02*
X133287478Y-73730714D01*
X133287478Y-73730714D02*
X133323192Y-73695000D01*
X133323192Y-73695000D02*
X133394621Y-73659285D01*
X133394621Y-73659285D02*
X133537478Y-73623571D01*
X133537478Y-73623571D02*
X133716050Y-73623571D01*
X133716050Y-73623571D02*
X133858907Y-73659285D01*
X133858907Y-73659285D02*
X133930335Y-73695000D01*
X133930335Y-73695000D02*
X133966050Y-73730714D01*
X133966050Y-73730714D02*
X134001764Y-73802142D01*
X134001764Y-73802142D02*
X134001764Y-73873571D01*
X134001764Y-73873571D02*
X133966050Y-73945000D01*
X133966050Y-73945000D02*
X133930335Y-73980714D01*
X133930335Y-73980714D02*
X133858907Y-74016428D01*
X133858907Y-74016428D02*
X133716050Y-74052142D01*
X133716050Y-74052142D02*
X133537478Y-74052142D01*
X133537478Y-74052142D02*
X133394621Y-74016428D01*
X133394621Y-74016428D02*
X133323192Y-73980714D01*
X133323192Y-73980714D02*
X133287478Y-73945000D01*
X133287478Y-73945000D02*
X133251764Y-73873571D01*
X134001764Y-73302142D02*
X133251764Y-73302142D01*
X134001764Y-72873571D02*
X133573192Y-73194999D01*
X133251764Y-72873571D02*
X133680335Y-73302142D01*
D10*
X168347619Y-82227657D02*
X167871428Y-82560990D01*
X168347619Y-82799085D02*
X167347619Y-82799085D01*
X167347619Y-82799085D02*
X167347619Y-82418133D01*
X167347619Y-82418133D02*
X167395238Y-82322895D01*
X167395238Y-82322895D02*
X167442857Y-82275276D01*
X167442857Y-82275276D02*
X167538095Y-82227657D01*
X167538095Y-82227657D02*
X167680952Y-82227657D01*
X167680952Y-82227657D02*
X167776190Y-82275276D01*
X167776190Y-82275276D02*
X167823809Y-82322895D01*
X167823809Y-82322895D02*
X167871428Y-82418133D01*
X167871428Y-82418133D02*
X167871428Y-82799085D01*
X168347619Y-81275276D02*
X168347619Y-81846704D01*
X168347619Y-81560990D02*
X167347619Y-81560990D01*
X167347619Y-81560990D02*
X167490476Y-81656228D01*
X167490476Y-81656228D02*
X167585714Y-81751466D01*
X167585714Y-81751466D02*
X167633333Y-81846704D01*
X167347619Y-80941942D02*
X167347619Y-80275276D01*
X167347619Y-80275276D02*
X168347619Y-80703847D01*
D11*
X168251764Y-74237857D02*
X168251764Y-74666428D01*
X168251764Y-74452143D02*
X167501764Y-74452143D01*
X167501764Y-74452143D02*
X167608907Y-74523571D01*
X167608907Y-74523571D02*
X167680335Y-74595000D01*
X167680335Y-74595000D02*
X167716050Y-74666428D01*
X167501764Y-73773571D02*
X167501764Y-73702142D01*
X167501764Y-73702142D02*
X167537478Y-73630714D01*
X167537478Y-73630714D02*
X167573192Y-73595000D01*
X167573192Y-73595000D02*
X167644621Y-73559285D01*
X167644621Y-73559285D02*
X167787478Y-73523571D01*
X167787478Y-73523571D02*
X167966050Y-73523571D01*
X167966050Y-73523571D02*
X168108907Y-73559285D01*
X168108907Y-73559285D02*
X168180335Y-73595000D01*
X168180335Y-73595000D02*
X168216050Y-73630714D01*
X168216050Y-73630714D02*
X168251764Y-73702142D01*
X168251764Y-73702142D02*
X168251764Y-73773571D01*
X168251764Y-73773571D02*
X168216050Y-73845000D01*
X168216050Y-73845000D02*
X168180335Y-73880714D01*
X168180335Y-73880714D02*
X168108907Y-73916428D01*
X168108907Y-73916428D02*
X167966050Y-73952142D01*
X167966050Y-73952142D02*
X167787478Y-73952142D01*
X167787478Y-73952142D02*
X167644621Y-73916428D01*
X167644621Y-73916428D02*
X167573192Y-73880714D01*
X167573192Y-73880714D02*
X167537478Y-73845000D01*
X167537478Y-73845000D02*
X167501764Y-73773571D01*
X168251764Y-73202142D02*
X167501764Y-73202142D01*
X168251764Y-72773571D02*
X167823192Y-73094999D01*
X167501764Y-72773571D02*
X167930335Y-73202142D01*
D10*
X171447619Y-82227657D02*
X170971428Y-82560990D01*
X171447619Y-82799085D02*
X170447619Y-82799085D01*
X170447619Y-82799085D02*
X170447619Y-82418133D01*
X170447619Y-82418133D02*
X170495238Y-82322895D01*
X170495238Y-82322895D02*
X170542857Y-82275276D01*
X170542857Y-82275276D02*
X170638095Y-82227657D01*
X170638095Y-82227657D02*
X170780952Y-82227657D01*
X170780952Y-82227657D02*
X170876190Y-82275276D01*
X170876190Y-82275276D02*
X170923809Y-82322895D01*
X170923809Y-82322895D02*
X170971428Y-82418133D01*
X170971428Y-82418133D02*
X170971428Y-82799085D01*
X171447619Y-81275276D02*
X171447619Y-81846704D01*
X171447619Y-81560990D02*
X170447619Y-81560990D01*
X170447619Y-81560990D02*
X170590476Y-81656228D01*
X170590476Y-81656228D02*
X170685714Y-81751466D01*
X170685714Y-81751466D02*
X170733333Y-81846704D01*
X171447619Y-80799085D02*
X171447619Y-80608609D01*
X171447619Y-80608609D02*
X171400000Y-80513371D01*
X171400000Y-80513371D02*
X171352380Y-80465752D01*
X171352380Y-80465752D02*
X171209523Y-80370514D01*
X171209523Y-80370514D02*
X171019047Y-80322895D01*
X171019047Y-80322895D02*
X170638095Y-80322895D01*
X170638095Y-80322895D02*
X170542857Y-80370514D01*
X170542857Y-80370514D02*
X170495238Y-80418133D01*
X170495238Y-80418133D02*
X170447619Y-80513371D01*
X170447619Y-80513371D02*
X170447619Y-80703847D01*
X170447619Y-80703847D02*
X170495238Y-80799085D01*
X170495238Y-80799085D02*
X170542857Y-80846704D01*
X170542857Y-80846704D02*
X170638095Y-80894323D01*
X170638095Y-80894323D02*
X170876190Y-80894323D01*
X170876190Y-80894323D02*
X170971428Y-80846704D01*
X170971428Y-80846704D02*
X171019047Y-80799085D01*
X171019047Y-80799085D02*
X171066666Y-80703847D01*
X171066666Y-80703847D02*
X171066666Y-80513371D01*
X171066666Y-80513371D02*
X171019047Y-80418133D01*
X171019047Y-80418133D02*
X170971428Y-80370514D01*
X170971428Y-80370514D02*
X170876190Y-80322895D01*
D11*
X171351764Y-74237857D02*
X171351764Y-74666428D01*
X171351764Y-74452143D02*
X170601764Y-74452143D01*
X170601764Y-74452143D02*
X170708907Y-74523571D01*
X170708907Y-74523571D02*
X170780335Y-74595000D01*
X170780335Y-74595000D02*
X170816050Y-74666428D01*
X170601764Y-73773571D02*
X170601764Y-73702142D01*
X170601764Y-73702142D02*
X170637478Y-73630714D01*
X170637478Y-73630714D02*
X170673192Y-73595000D01*
X170673192Y-73595000D02*
X170744621Y-73559285D01*
X170744621Y-73559285D02*
X170887478Y-73523571D01*
X170887478Y-73523571D02*
X171066050Y-73523571D01*
X171066050Y-73523571D02*
X171208907Y-73559285D01*
X171208907Y-73559285D02*
X171280335Y-73595000D01*
X171280335Y-73595000D02*
X171316050Y-73630714D01*
X171316050Y-73630714D02*
X171351764Y-73702142D01*
X171351764Y-73702142D02*
X171351764Y-73773571D01*
X171351764Y-73773571D02*
X171316050Y-73845000D01*
X171316050Y-73845000D02*
X171280335Y-73880714D01*
X171280335Y-73880714D02*
X171208907Y-73916428D01*
X171208907Y-73916428D02*
X171066050Y-73952142D01*
X171066050Y-73952142D02*
X170887478Y-73952142D01*
X170887478Y-73952142D02*
X170744621Y-73916428D01*
X170744621Y-73916428D02*
X170673192Y-73880714D01*
X170673192Y-73880714D02*
X170637478Y-73845000D01*
X170637478Y-73845000D02*
X170601764Y-73773571D01*
X171351764Y-73202142D02*
X170601764Y-73202142D01*
X171351764Y-72773571D02*
X170923192Y-73094999D01*
X170601764Y-72773571D02*
X171030335Y-73202142D01*
D10*
X144673619Y-82126057D02*
X144197428Y-82459390D01*
X144673619Y-82697485D02*
X143673619Y-82697485D01*
X143673619Y-82697485D02*
X143673619Y-82316533D01*
X143673619Y-82316533D02*
X143721238Y-82221295D01*
X143721238Y-82221295D02*
X143768857Y-82173676D01*
X143768857Y-82173676D02*
X143864095Y-82126057D01*
X143864095Y-82126057D02*
X144006952Y-82126057D01*
X144006952Y-82126057D02*
X144102190Y-82173676D01*
X144102190Y-82173676D02*
X144149809Y-82221295D01*
X144149809Y-82221295D02*
X144197428Y-82316533D01*
X144197428Y-82316533D02*
X144197428Y-82697485D01*
X144673619Y-81173676D02*
X144673619Y-81745104D01*
X144673619Y-81459390D02*
X143673619Y-81459390D01*
X143673619Y-81459390D02*
X143816476Y-81554628D01*
X143816476Y-81554628D02*
X143911714Y-81649866D01*
X143911714Y-81649866D02*
X143959333Y-81745104D01*
X144673619Y-80221295D02*
X144673619Y-80792723D01*
X144673619Y-80507009D02*
X143673619Y-80507009D01*
X143673619Y-80507009D02*
X143816476Y-80602247D01*
X143816476Y-80602247D02*
X143911714Y-80697485D01*
X143911714Y-80697485D02*
X143959333Y-80792723D01*
D11*
X144551764Y-74272857D02*
X144551764Y-74701428D01*
X144551764Y-74487143D02*
X143801764Y-74487143D01*
X143801764Y-74487143D02*
X143908907Y-74558571D01*
X143908907Y-74558571D02*
X143980335Y-74630000D01*
X143980335Y-74630000D02*
X144016050Y-74701428D01*
X143801764Y-73808571D02*
X143801764Y-73737142D01*
X143801764Y-73737142D02*
X143837478Y-73665714D01*
X143837478Y-73665714D02*
X143873192Y-73630000D01*
X143873192Y-73630000D02*
X143944621Y-73594285D01*
X143944621Y-73594285D02*
X144087478Y-73558571D01*
X144087478Y-73558571D02*
X144266050Y-73558571D01*
X144266050Y-73558571D02*
X144408907Y-73594285D01*
X144408907Y-73594285D02*
X144480335Y-73630000D01*
X144480335Y-73630000D02*
X144516050Y-73665714D01*
X144516050Y-73665714D02*
X144551764Y-73737142D01*
X144551764Y-73737142D02*
X144551764Y-73808571D01*
X144551764Y-73808571D02*
X144516050Y-73880000D01*
X144516050Y-73880000D02*
X144480335Y-73915714D01*
X144480335Y-73915714D02*
X144408907Y-73951428D01*
X144408907Y-73951428D02*
X144266050Y-73987142D01*
X144266050Y-73987142D02*
X144087478Y-73987142D01*
X144087478Y-73987142D02*
X143944621Y-73951428D01*
X143944621Y-73951428D02*
X143873192Y-73915714D01*
X143873192Y-73915714D02*
X143837478Y-73880000D01*
X143837478Y-73880000D02*
X143801764Y-73808571D01*
X144551764Y-73237142D02*
X143801764Y-73237142D01*
X144551764Y-72808571D02*
X144123192Y-73129999D01*
X143801764Y-72808571D02*
X144230335Y-73237142D01*
D10*
X129918619Y-81268866D02*
X129442428Y-81602199D01*
X129918619Y-81840294D02*
X128918619Y-81840294D01*
X128918619Y-81840294D02*
X128918619Y-81459342D01*
X128918619Y-81459342D02*
X128966238Y-81364104D01*
X128966238Y-81364104D02*
X129013857Y-81316485D01*
X129013857Y-81316485D02*
X129109095Y-81268866D01*
X129109095Y-81268866D02*
X129251952Y-81268866D01*
X129251952Y-81268866D02*
X129347190Y-81316485D01*
X129347190Y-81316485D02*
X129394809Y-81364104D01*
X129394809Y-81364104D02*
X129442428Y-81459342D01*
X129442428Y-81459342D02*
X129442428Y-81840294D01*
X128918619Y-80364104D02*
X128918619Y-80840294D01*
X128918619Y-80840294D02*
X129394809Y-80887913D01*
X129394809Y-80887913D02*
X129347190Y-80840294D01*
X129347190Y-80840294D02*
X129299571Y-80745056D01*
X129299571Y-80745056D02*
X129299571Y-80506961D01*
X129299571Y-80506961D02*
X129347190Y-80411723D01*
X129347190Y-80411723D02*
X129394809Y-80364104D01*
X129394809Y-80364104D02*
X129490047Y-80316485D01*
X129490047Y-80316485D02*
X129728142Y-80316485D01*
X129728142Y-80316485D02*
X129823380Y-80364104D01*
X129823380Y-80364104D02*
X129871000Y-80411723D01*
X129871000Y-80411723D02*
X129918619Y-80506961D01*
X129918619Y-80506961D02*
X129918619Y-80745056D01*
X129918619Y-80745056D02*
X129871000Y-80840294D01*
X129871000Y-80840294D02*
X129823380Y-80887913D01*
D11*
X129751764Y-74337857D02*
X129751764Y-74766428D01*
X129751764Y-74552143D02*
X129001764Y-74552143D01*
X129001764Y-74552143D02*
X129108907Y-74623571D01*
X129108907Y-74623571D02*
X129180335Y-74695000D01*
X129180335Y-74695000D02*
X129216050Y-74766428D01*
X129001764Y-73873571D02*
X129001764Y-73802142D01*
X129001764Y-73802142D02*
X129037478Y-73730714D01*
X129037478Y-73730714D02*
X129073192Y-73695000D01*
X129073192Y-73695000D02*
X129144621Y-73659285D01*
X129144621Y-73659285D02*
X129287478Y-73623571D01*
X129287478Y-73623571D02*
X129466050Y-73623571D01*
X129466050Y-73623571D02*
X129608907Y-73659285D01*
X129608907Y-73659285D02*
X129680335Y-73695000D01*
X129680335Y-73695000D02*
X129716050Y-73730714D01*
X129716050Y-73730714D02*
X129751764Y-73802142D01*
X129751764Y-73802142D02*
X129751764Y-73873571D01*
X129751764Y-73873571D02*
X129716050Y-73945000D01*
X129716050Y-73945000D02*
X129680335Y-73980714D01*
X129680335Y-73980714D02*
X129608907Y-74016428D01*
X129608907Y-74016428D02*
X129466050Y-74052142D01*
X129466050Y-74052142D02*
X129287478Y-74052142D01*
X129287478Y-74052142D02*
X129144621Y-74016428D01*
X129144621Y-74016428D02*
X129073192Y-73980714D01*
X129073192Y-73980714D02*
X129037478Y-73945000D01*
X129037478Y-73945000D02*
X129001764Y-73873571D01*
X129751764Y-73302142D02*
X129001764Y-73302142D01*
X129751764Y-72873571D02*
X129323192Y-73194999D01*
X129001764Y-72873571D02*
X129430335Y-73302142D01*
D12*
%TO.C,J1*%
X188230000Y-102790000D02*
X190230000Y-102790000D01*
X184640000Y-102590000D02*
X184640000Y-86640000D01*
X190920000Y-102590000D02*
X184640000Y-102590000D01*
X204230000Y-102590000D02*
X194120000Y-102590000D01*
X184640000Y-86640000D02*
X190920000Y-86640000D01*
X194120000Y-86640000D02*
X204230000Y-86640000D01*
%TO.C,Y1*%
X182613000Y-74029000D02*
X182613000Y-67171000D01*
X177787000Y-67171000D02*
X177787000Y-74029000D01*
X177787000Y-74029000D02*
G75*
G03*
X180200000Y-76442000I2412999J-1D01*
G01*
X180200000Y-76442000D02*
G75*
G03*
X182613000Y-74029000I1J2412999D01*
G01*
X180200000Y-64758000D02*
G75*
G03*
X177787000Y-67171000I0J-2413000D01*
G01*
X182613000Y-67171000D02*
G75*
G03*
X180200000Y-64758000I-2413000J0D01*
G01*
%TO.C,U2*%
X121970000Y-73130000D02*
X121970000Y-113770000D01*
X104190000Y-73130000D02*
X121970000Y-73130000D01*
X121970000Y-113770000D02*
X104190000Y-113770000D01*
X104190000Y-113770000D02*
X104190000Y-73130000D01*
X113080000Y-74146000D02*
G75*
G03*
X114096000Y-73130000I-2J1016002D01*
G01*
X112064000Y-73130000D02*
G75*
G03*
X113080000Y-74146000I1016002J2D01*
G01*
%TO.C,U3*%
X124540000Y-96200000D02*
X124540000Y-99650000D01*
X124540000Y-96200000D02*
X124540000Y-94250000D01*
X129660000Y-96200000D02*
X129660000Y-98150000D01*
X129660000Y-96200000D02*
X129660000Y-94250000D01*
%TO.C,C5*%
X158880000Y-87930000D02*
X158880000Y-90670000D01*
X158880000Y-87930000D02*
X166120000Y-87930000D01*
X158880000Y-90670000D02*
X166120000Y-90670000D01*
X166120000Y-87930000D02*
X166120000Y-90670000D01*
%TO.C,C8*%
X123480000Y-89230000D02*
X123480000Y-91970000D01*
X123480000Y-89230000D02*
X130720000Y-89230000D01*
X123480000Y-91970000D02*
X130720000Y-91970000D01*
X130720000Y-89230000D02*
X130720000Y-91970000D01*
%TO.C,R6*%
X126060000Y-106100000D02*
X126830000Y-106100000D01*
X126830000Y-104730000D02*
X126830000Y-107470000D01*
X126830000Y-107470000D02*
X133370000Y-107470000D01*
X133370000Y-104730000D02*
X126830000Y-104730000D01*
X133370000Y-107470000D02*
X133370000Y-104730000D01*
X134140000Y-106100000D02*
X133370000Y-106100000D01*
%TO.C,R7*%
X184900000Y-74340000D02*
X184900000Y-73570000D01*
X183530000Y-73570000D02*
X186270000Y-73570000D01*
X186270000Y-73570000D02*
X186270000Y-67030000D01*
X183530000Y-67030000D02*
X183530000Y-73570000D01*
X186270000Y-67030000D02*
X183530000Y-67030000D01*
X184900000Y-66260000D02*
X184900000Y-67030000D01*
%TO.C,C7*%
X121920000Y-72770000D02*
X121920000Y-70030000D01*
X121920000Y-72770000D02*
X114680000Y-72770000D01*
X121920000Y-70030000D02*
X114680000Y-70030000D01*
X114680000Y-72770000D02*
X114680000Y-70030000D01*
%TO.C,U1*%
X140290000Y-109810000D02*
X140515000Y-109810000D01*
X140515000Y-109810000D02*
X140515000Y-111700000D01*
X160510000Y-109810000D02*
X160285000Y-109810000D01*
X140290000Y-109335000D02*
X140290000Y-109810000D01*
X160510000Y-109335000D02*
X160510000Y-109810000D01*
X140290000Y-96065000D02*
X140290000Y-95590000D01*
X160510000Y-96065000D02*
X160510000Y-95590000D01*
X140290000Y-95590000D02*
X140515000Y-95590000D01*
X160510000Y-95590000D02*
X160285000Y-95590000D01*
%TO.C,R1*%
X193540000Y-78600000D02*
X192770000Y-78600000D01*
X192770000Y-79970000D02*
X192770000Y-77230000D01*
X192770000Y-77230000D02*
X186230000Y-77230000D01*
X186230000Y-79970000D02*
X192770000Y-79970000D01*
X186230000Y-77230000D02*
X186230000Y-79970000D01*
X185460000Y-78600000D02*
X186230000Y-78600000D01*
%TO.C,C3*%
X181230000Y-96220000D02*
X183970000Y-96220000D01*
X181230000Y-96220000D02*
X181230000Y-88980000D01*
X183970000Y-96220000D02*
X183970000Y-88980000D01*
X181230000Y-88980000D02*
X183970000Y-88980000D01*
%TO.C,R3*%
X199440000Y-83400000D02*
X198670000Y-83400000D01*
X198670000Y-84770000D02*
X198670000Y-82030000D01*
X198670000Y-82030000D02*
X192130000Y-82030000D01*
X192130000Y-84770000D02*
X198670000Y-84770000D01*
X192130000Y-82030000D02*
X192130000Y-84770000D01*
X191360000Y-83400000D02*
X192130000Y-83400000D01*
%TO.C,C1*%
X194420000Y-73470000D02*
X194420000Y-70730000D01*
X194420000Y-73470000D02*
X187180000Y-73470000D01*
X194420000Y-70730000D02*
X187180000Y-70730000D01*
X187180000Y-73470000D02*
X187180000Y-70730000D01*
%TO.C,C2*%
X194520000Y-69870000D02*
X194520000Y-67130000D01*
X194520000Y-69870000D02*
X187280000Y-69870000D01*
X194520000Y-67130000D02*
X187280000Y-67130000D01*
X187280000Y-69870000D02*
X187280000Y-67130000D01*
%TO.C,C6*%
X142480000Y-115530000D02*
X142480000Y-118270000D01*
X142480000Y-115530000D02*
X149720000Y-115530000D01*
X142480000Y-118270000D02*
X149720000Y-118270000D01*
X149720000Y-115530000D02*
X149720000Y-118270000D01*
%TO.C,R2*%
X199440000Y-106000000D02*
X198670000Y-106000000D01*
X198670000Y-107370000D02*
X198670000Y-104630000D01*
X198670000Y-104630000D02*
X192130000Y-104630000D01*
X192130000Y-107370000D02*
X198670000Y-107370000D01*
X192130000Y-104630000D02*
X192130000Y-107370000D01*
X191360000Y-106000000D02*
X192130000Y-106000000D01*
%TO.C,C4*%
X183970000Y-96680000D02*
X181230000Y-96680000D01*
X183970000Y-96680000D02*
X183970000Y-103920000D01*
X181230000Y-96680000D02*
X181230000Y-103920000D01*
X183970000Y-103920000D02*
X181230000Y-103920000D01*
%TO.C,C9*%
X176749759Y-119261000D02*
X177379759Y-119261000D01*
X177064759Y-118946000D02*
X177064759Y-119576000D01*
X180250000Y-117870000D02*
X180250000Y-124330000D01*
X180290000Y-117870000D02*
X180290000Y-124330000D01*
X180330000Y-117870000D02*
X180330000Y-124330000D01*
X180370000Y-117872000D02*
X180370000Y-124328000D01*
X180410000Y-117873000D02*
X180410000Y-124327000D01*
X180450000Y-117876000D02*
X180450000Y-124324000D01*
X180490000Y-117878000D02*
X180490000Y-120060000D01*
X180490000Y-122140000D02*
X180490000Y-124322000D01*
X180530000Y-117882000D02*
X180530000Y-120060000D01*
X180530000Y-122140000D02*
X180530000Y-124318000D01*
X180570000Y-117885000D02*
X180570000Y-120060000D01*
X180570000Y-122140000D02*
X180570000Y-124315000D01*
X180610000Y-117889000D02*
X180610000Y-120060000D01*
X180610000Y-122140000D02*
X180610000Y-124311000D01*
X180650000Y-117894000D02*
X180650000Y-120060000D01*
X180650000Y-122140000D02*
X180650000Y-124306000D01*
X180690000Y-117899000D02*
X180690000Y-120060000D01*
X180690000Y-122140000D02*
X180690000Y-124301000D01*
X180730000Y-117905000D02*
X180730000Y-120060000D01*
X180730000Y-122140000D02*
X180730000Y-124295000D01*
X180770000Y-117911000D02*
X180770000Y-120060000D01*
X180770000Y-122140000D02*
X180770000Y-124289000D01*
X180810000Y-117918000D02*
X180810000Y-120060000D01*
X180810000Y-122140000D02*
X180810000Y-124282000D01*
X180850000Y-117925000D02*
X180850000Y-120060000D01*
X180850000Y-122140000D02*
X180850000Y-124275000D01*
X180890000Y-117933000D02*
X180890000Y-120060000D01*
X180890000Y-122140000D02*
X180890000Y-124267000D01*
X180930000Y-117941000D02*
X180930000Y-120060000D01*
X180930000Y-122140000D02*
X180930000Y-124259000D01*
X180971000Y-117950000D02*
X180971000Y-120060000D01*
X180971000Y-122140000D02*
X180971000Y-124250000D01*
X181011000Y-117959000D02*
X181011000Y-120060000D01*
X181011000Y-122140000D02*
X181011000Y-124241000D01*
X181051000Y-117969000D02*
X181051000Y-120060000D01*
X181051000Y-122140000D02*
X181051000Y-124231000D01*
X181091000Y-117979000D02*
X181091000Y-120060000D01*
X181091000Y-122140000D02*
X181091000Y-124221000D01*
X181131000Y-117990000D02*
X181131000Y-120060000D01*
X181131000Y-122140000D02*
X181131000Y-124210000D01*
X181171000Y-118002000D02*
X181171000Y-120060000D01*
X181171000Y-122140000D02*
X181171000Y-124198000D01*
X181211000Y-118014000D02*
X181211000Y-120060000D01*
X181211000Y-122140000D02*
X181211000Y-124186000D01*
X181251000Y-118026000D02*
X181251000Y-120060000D01*
X181251000Y-122140000D02*
X181251000Y-124174000D01*
X181291000Y-118039000D02*
X181291000Y-120060000D01*
X181291000Y-122140000D02*
X181291000Y-124161000D01*
X181331000Y-118053000D02*
X181331000Y-120060000D01*
X181331000Y-122140000D02*
X181331000Y-124147000D01*
X181371000Y-118067000D02*
X181371000Y-120060000D01*
X181371000Y-122140000D02*
X181371000Y-124133000D01*
X181411000Y-118082000D02*
X181411000Y-120060000D01*
X181411000Y-122140000D02*
X181411000Y-124118000D01*
X181451000Y-118098000D02*
X181451000Y-120060000D01*
X181451000Y-122140000D02*
X181451000Y-124102000D01*
X181491000Y-118114000D02*
X181491000Y-120060000D01*
X181491000Y-122140000D02*
X181491000Y-124086000D01*
X181531000Y-118130000D02*
X181531000Y-120060000D01*
X181531000Y-122140000D02*
X181531000Y-124070000D01*
X181571000Y-118148000D02*
X181571000Y-120060000D01*
X181571000Y-122140000D02*
X181571000Y-124052000D01*
X181611000Y-118166000D02*
X181611000Y-120060000D01*
X181611000Y-122140000D02*
X181611000Y-124034000D01*
X181651000Y-118184000D02*
X181651000Y-120060000D01*
X181651000Y-122140000D02*
X181651000Y-124016000D01*
X181691000Y-118204000D02*
X181691000Y-120060000D01*
X181691000Y-122140000D02*
X181691000Y-123996000D01*
X181731000Y-118224000D02*
X181731000Y-120060000D01*
X181731000Y-122140000D02*
X181731000Y-123976000D01*
X181771000Y-118244000D02*
X181771000Y-120060000D01*
X181771000Y-122140000D02*
X181771000Y-123956000D01*
X181811000Y-118266000D02*
X181811000Y-120060000D01*
X181811000Y-122140000D02*
X181811000Y-123934000D01*
X181851000Y-118288000D02*
X181851000Y-120060000D01*
X181851000Y-122140000D02*
X181851000Y-123912000D01*
X181891000Y-118310000D02*
X181891000Y-120060000D01*
X181891000Y-122140000D02*
X181891000Y-123890000D01*
X181931000Y-118334000D02*
X181931000Y-120060000D01*
X181931000Y-122140000D02*
X181931000Y-123866000D01*
X181971000Y-118358000D02*
X181971000Y-120060000D01*
X181971000Y-122140000D02*
X181971000Y-123842000D01*
X182011000Y-118384000D02*
X182011000Y-120060000D01*
X182011000Y-122140000D02*
X182011000Y-123816000D01*
X182051000Y-118410000D02*
X182051000Y-120060000D01*
X182051000Y-122140000D02*
X182051000Y-123790000D01*
X182091000Y-118436000D02*
X182091000Y-120060000D01*
X182091000Y-122140000D02*
X182091000Y-123764000D01*
X182131000Y-118464000D02*
X182131000Y-120060000D01*
X182131000Y-122140000D02*
X182131000Y-123736000D01*
X182171000Y-118493000D02*
X182171000Y-120060000D01*
X182171000Y-122140000D02*
X182171000Y-123707000D01*
X182211000Y-118522000D02*
X182211000Y-120060000D01*
X182211000Y-122140000D02*
X182211000Y-123678000D01*
X182251000Y-118552000D02*
X182251000Y-120060000D01*
X182251000Y-122140000D02*
X182251000Y-123648000D01*
X182291000Y-118584000D02*
X182291000Y-120060000D01*
X182291000Y-122140000D02*
X182291000Y-123616000D01*
X182331000Y-118616000D02*
X182331000Y-120060000D01*
X182331000Y-122140000D02*
X182331000Y-123584000D01*
X182371000Y-118650000D02*
X182371000Y-120060000D01*
X182371000Y-122140000D02*
X182371000Y-123550000D01*
X182411000Y-118684000D02*
X182411000Y-120060000D01*
X182411000Y-122140000D02*
X182411000Y-123516000D01*
X182451000Y-118720000D02*
X182451000Y-120060000D01*
X182451000Y-122140000D02*
X182451000Y-123480000D01*
X182491000Y-118757000D02*
X182491000Y-120060000D01*
X182491000Y-122140000D02*
X182491000Y-123443000D01*
X182531000Y-118795000D02*
X182531000Y-120060000D01*
X182531000Y-122140000D02*
X182531000Y-123405000D01*
X182571000Y-118835000D02*
X182571000Y-123365000D01*
X182611000Y-118876000D02*
X182611000Y-123324000D01*
X182651000Y-118918000D02*
X182651000Y-123282000D01*
X182691000Y-118963000D02*
X182691000Y-123237000D01*
X182731000Y-119008000D02*
X182731000Y-123192000D01*
X182771000Y-119056000D02*
X182771000Y-123144000D01*
X182811000Y-119105000D02*
X182811000Y-123095000D01*
X182851000Y-119156000D02*
X182851000Y-123044000D01*
X182891000Y-119210000D02*
X182891000Y-122990000D01*
X182931000Y-119266000D02*
X182931000Y-122934000D01*
X182971000Y-119324000D02*
X182971000Y-122876000D01*
X183011000Y-119386000D02*
X183011000Y-122814000D01*
X183051000Y-119450000D02*
X183051000Y-122750000D01*
X183091000Y-119519000D02*
X183091000Y-122681000D01*
X183131000Y-119591000D02*
X183131000Y-122609000D01*
X183171000Y-119668000D02*
X183171000Y-122532000D01*
X183211000Y-119750000D02*
X183211000Y-122450000D01*
X183251000Y-119838000D02*
X183251000Y-122362000D01*
X183291000Y-119935000D02*
X183291000Y-122265000D01*
X183331000Y-120041000D02*
X183331000Y-122159000D01*
X183371000Y-120160000D02*
X183371000Y-122040000D01*
X183411000Y-120298000D02*
X183411000Y-121902000D01*
X183451000Y-120467000D02*
X183451000Y-121733000D01*
X183491000Y-120698000D02*
X183491000Y-121502000D01*
X183520000Y-121100000D02*
G75*
G03*
X176980000Y-121100000I-3270000J0D01*
G01*
X176980000Y-121100000D02*
G75*
G03*
X183520000Y-121100000I3270000J0D01*
G01*
%TO.C,C10*%
X103149759Y-117861000D02*
X103779759Y-117861000D01*
X103464759Y-117546000D02*
X103464759Y-118176000D01*
X106650000Y-116470000D02*
X106650000Y-122930000D01*
X106690000Y-116470000D02*
X106690000Y-122930000D01*
X106730000Y-116470000D02*
X106730000Y-122930000D01*
X106770000Y-116472000D02*
X106770000Y-122928000D01*
X106810000Y-116473000D02*
X106810000Y-122927000D01*
X106850000Y-116476000D02*
X106850000Y-122924000D01*
X106890000Y-116478000D02*
X106890000Y-118660000D01*
X106890000Y-120740000D02*
X106890000Y-122922000D01*
X106930000Y-116482000D02*
X106930000Y-118660000D01*
X106930000Y-120740000D02*
X106930000Y-122918000D01*
X106970000Y-116485000D02*
X106970000Y-118660000D01*
X106970000Y-120740000D02*
X106970000Y-122915000D01*
X107010000Y-116489000D02*
X107010000Y-118660000D01*
X107010000Y-120740000D02*
X107010000Y-122911000D01*
X107050000Y-116494000D02*
X107050000Y-118660000D01*
X107050000Y-120740000D02*
X107050000Y-122906000D01*
X107090000Y-116499000D02*
X107090000Y-118660000D01*
X107090000Y-120740000D02*
X107090000Y-122901000D01*
X107130000Y-116505000D02*
X107130000Y-118660000D01*
X107130000Y-120740000D02*
X107130000Y-122895000D01*
X107170000Y-116511000D02*
X107170000Y-118660000D01*
X107170000Y-120740000D02*
X107170000Y-122889000D01*
X107210000Y-116518000D02*
X107210000Y-118660000D01*
X107210000Y-120740000D02*
X107210000Y-122882000D01*
X107250000Y-116525000D02*
X107250000Y-118660000D01*
X107250000Y-120740000D02*
X107250000Y-122875000D01*
X107290000Y-116533000D02*
X107290000Y-118660000D01*
X107290000Y-120740000D02*
X107290000Y-122867000D01*
X107330000Y-116541000D02*
X107330000Y-118660000D01*
X107330000Y-120740000D02*
X107330000Y-122859000D01*
X107371000Y-116550000D02*
X107371000Y-118660000D01*
X107371000Y-120740000D02*
X107371000Y-122850000D01*
X107411000Y-116559000D02*
X107411000Y-118660000D01*
X107411000Y-120740000D02*
X107411000Y-122841000D01*
X107451000Y-116569000D02*
X107451000Y-118660000D01*
X107451000Y-120740000D02*
X107451000Y-122831000D01*
X107491000Y-116579000D02*
X107491000Y-118660000D01*
X107491000Y-120740000D02*
X107491000Y-122821000D01*
X107531000Y-116590000D02*
X107531000Y-118660000D01*
X107531000Y-120740000D02*
X107531000Y-122810000D01*
X107571000Y-116602000D02*
X107571000Y-118660000D01*
X107571000Y-120740000D02*
X107571000Y-122798000D01*
X107611000Y-116614000D02*
X107611000Y-118660000D01*
X107611000Y-120740000D02*
X107611000Y-122786000D01*
X107651000Y-116626000D02*
X107651000Y-118660000D01*
X107651000Y-120740000D02*
X107651000Y-122774000D01*
X107691000Y-116639000D02*
X107691000Y-118660000D01*
X107691000Y-120740000D02*
X107691000Y-122761000D01*
X107731000Y-116653000D02*
X107731000Y-118660000D01*
X107731000Y-120740000D02*
X107731000Y-122747000D01*
X107771000Y-116667000D02*
X107771000Y-118660000D01*
X107771000Y-120740000D02*
X107771000Y-122733000D01*
X107811000Y-116682000D02*
X107811000Y-118660000D01*
X107811000Y-120740000D02*
X107811000Y-122718000D01*
X107851000Y-116698000D02*
X107851000Y-118660000D01*
X107851000Y-120740000D02*
X107851000Y-122702000D01*
X107891000Y-116714000D02*
X107891000Y-118660000D01*
X107891000Y-120740000D02*
X107891000Y-122686000D01*
X107931000Y-116730000D02*
X107931000Y-118660000D01*
X107931000Y-120740000D02*
X107931000Y-122670000D01*
X107971000Y-116748000D02*
X107971000Y-118660000D01*
X107971000Y-120740000D02*
X107971000Y-122652000D01*
X108011000Y-116766000D02*
X108011000Y-118660000D01*
X108011000Y-120740000D02*
X108011000Y-122634000D01*
X108051000Y-116784000D02*
X108051000Y-118660000D01*
X108051000Y-120740000D02*
X108051000Y-122616000D01*
X108091000Y-116804000D02*
X108091000Y-118660000D01*
X108091000Y-120740000D02*
X108091000Y-122596000D01*
X108131000Y-116824000D02*
X108131000Y-118660000D01*
X108131000Y-120740000D02*
X108131000Y-122576000D01*
X108171000Y-116844000D02*
X108171000Y-118660000D01*
X108171000Y-120740000D02*
X108171000Y-122556000D01*
X108211000Y-116866000D02*
X108211000Y-118660000D01*
X108211000Y-120740000D02*
X108211000Y-122534000D01*
X108251000Y-116888000D02*
X108251000Y-118660000D01*
X108251000Y-120740000D02*
X108251000Y-122512000D01*
X108291000Y-116910000D02*
X108291000Y-118660000D01*
X108291000Y-120740000D02*
X108291000Y-122490000D01*
X108331000Y-116934000D02*
X108331000Y-118660000D01*
X108331000Y-120740000D02*
X108331000Y-122466000D01*
X108371000Y-116958000D02*
X108371000Y-118660000D01*
X108371000Y-120740000D02*
X108371000Y-122442000D01*
X108411000Y-116984000D02*
X108411000Y-118660000D01*
X108411000Y-120740000D02*
X108411000Y-122416000D01*
X108451000Y-117010000D02*
X108451000Y-118660000D01*
X108451000Y-120740000D02*
X108451000Y-122390000D01*
X108491000Y-117036000D02*
X108491000Y-118660000D01*
X108491000Y-120740000D02*
X108491000Y-122364000D01*
X108531000Y-117064000D02*
X108531000Y-118660000D01*
X108531000Y-120740000D02*
X108531000Y-122336000D01*
X108571000Y-117093000D02*
X108571000Y-118660000D01*
X108571000Y-120740000D02*
X108571000Y-122307000D01*
X108611000Y-117122000D02*
X108611000Y-118660000D01*
X108611000Y-120740000D02*
X108611000Y-122278000D01*
X108651000Y-117152000D02*
X108651000Y-118660000D01*
X108651000Y-120740000D02*
X108651000Y-122248000D01*
X108691000Y-117184000D02*
X108691000Y-118660000D01*
X108691000Y-120740000D02*
X108691000Y-122216000D01*
X108731000Y-117216000D02*
X108731000Y-118660000D01*
X108731000Y-120740000D02*
X108731000Y-122184000D01*
X108771000Y-117250000D02*
X108771000Y-118660000D01*
X108771000Y-120740000D02*
X108771000Y-122150000D01*
X108811000Y-117284000D02*
X108811000Y-118660000D01*
X108811000Y-120740000D02*
X108811000Y-122116000D01*
X108851000Y-117320000D02*
X108851000Y-118660000D01*
X108851000Y-120740000D02*
X108851000Y-122080000D01*
X108891000Y-117357000D02*
X108891000Y-118660000D01*
X108891000Y-120740000D02*
X108891000Y-122043000D01*
X108931000Y-117395000D02*
X108931000Y-118660000D01*
X108931000Y-120740000D02*
X108931000Y-122005000D01*
X108971000Y-117435000D02*
X108971000Y-121965000D01*
X109011000Y-117476000D02*
X109011000Y-121924000D01*
X109051000Y-117518000D02*
X109051000Y-121882000D01*
X109091000Y-117563000D02*
X109091000Y-121837000D01*
X109131000Y-117608000D02*
X109131000Y-121792000D01*
X109171000Y-117656000D02*
X109171000Y-121744000D01*
X109211000Y-117705000D02*
X109211000Y-121695000D01*
X109251000Y-117756000D02*
X109251000Y-121644000D01*
X109291000Y-117810000D02*
X109291000Y-121590000D01*
X109331000Y-117866000D02*
X109331000Y-121534000D01*
X109371000Y-117924000D02*
X109371000Y-121476000D01*
X109411000Y-117986000D02*
X109411000Y-121414000D01*
X109451000Y-118050000D02*
X109451000Y-121350000D01*
X109491000Y-118119000D02*
X109491000Y-121281000D01*
X109531000Y-118191000D02*
X109531000Y-121209000D01*
X109571000Y-118268000D02*
X109571000Y-121132000D01*
X109611000Y-118350000D02*
X109611000Y-121050000D01*
X109651000Y-118438000D02*
X109651000Y-120962000D01*
X109691000Y-118535000D02*
X109691000Y-120865000D01*
X109731000Y-118641000D02*
X109731000Y-120759000D01*
X109771000Y-118760000D02*
X109771000Y-120640000D01*
X109811000Y-118898000D02*
X109811000Y-120502000D01*
X109851000Y-119067000D02*
X109851000Y-120333000D01*
X109891000Y-119298000D02*
X109891000Y-120102000D01*
X109920000Y-119700000D02*
G75*
G03*
X103380000Y-119700000I-3270000J0D01*
G01*
X103380000Y-119700000D02*
G75*
G03*
X109920000Y-119700000I3270000J0D01*
G01*
%TO.C,R10*%
X141100000Y-77675000D02*
X141100000Y-76905000D01*
X139730000Y-76905000D02*
X142470000Y-76905000D01*
X142470000Y-76905000D02*
X142470000Y-70365000D01*
X139730000Y-70365000D02*
X139730000Y-76905000D01*
X142470000Y-70365000D02*
X139730000Y-70365000D01*
X141100000Y-69595000D02*
X141100000Y-70365000D01*
%TO.C,J4*%
X125230000Y-66970000D02*
X125230000Y-65640000D01*
X126560000Y-66970000D02*
X125230000Y-66970000D01*
X127830000Y-66970000D02*
X130430000Y-66970000D01*
X127830000Y-66970000D02*
X127830000Y-64370000D01*
X130430000Y-66970000D02*
X130430000Y-61770000D01*
X125230000Y-64370000D02*
X125230000Y-61770000D01*
X127830000Y-64370000D02*
X125230000Y-64370000D01*
X125230000Y-61770000D02*
X130430000Y-61770000D01*
%TO.C,J7*%
X132620000Y-66970000D02*
X132620000Y-65640000D01*
X133950000Y-66970000D02*
X132620000Y-66970000D01*
X135220000Y-66970000D02*
X137820000Y-66970000D01*
X135220000Y-66970000D02*
X135220000Y-64370000D01*
X137820000Y-66970000D02*
X137820000Y-61770000D01*
X132620000Y-64370000D02*
X132620000Y-61770000D01*
X135220000Y-64370000D02*
X132620000Y-64370000D01*
X132620000Y-61770000D02*
X137820000Y-61770000D01*
%TO.C,J10*%
X158390000Y-66930000D02*
X158390000Y-65600000D01*
X159720000Y-66930000D02*
X158390000Y-66930000D01*
X160990000Y-66930000D02*
X171210000Y-66930000D01*
X160990000Y-66930000D02*
X160990000Y-64330000D01*
X171210000Y-66930000D02*
X171210000Y-61730000D01*
X158390000Y-64330000D02*
X158390000Y-61730000D01*
X160990000Y-64330000D02*
X158390000Y-64330000D01*
X158390000Y-61730000D02*
X171210000Y-61730000D01*
%TO.C,R9*%
X136800000Y-77740000D02*
X136800000Y-76970000D01*
X135430000Y-76970000D02*
X138170000Y-76970000D01*
X138170000Y-76970000D02*
X138170000Y-70430000D01*
X135430000Y-70430000D02*
X135430000Y-76970000D01*
X138170000Y-70430000D02*
X135430000Y-70430000D01*
X136800000Y-69660000D02*
X136800000Y-70430000D01*
%TO.C,R12*%
X147300000Y-77675000D02*
X147300000Y-76905000D01*
X145930000Y-76905000D02*
X148670000Y-76905000D01*
X148670000Y-76905000D02*
X148670000Y-70365000D01*
X145930000Y-70365000D02*
X145930000Y-76905000D01*
X148670000Y-70365000D02*
X145930000Y-70365000D01*
X147300000Y-69595000D02*
X147300000Y-70365000D01*
%TO.C,R18*%
X154400000Y-88640000D02*
X154400000Y-87870000D01*
X153030000Y-87870000D02*
X155770000Y-87870000D01*
X155770000Y-87870000D02*
X155770000Y-81330000D01*
X153030000Y-81330000D02*
X153030000Y-87870000D01*
X155770000Y-81330000D02*
X153030000Y-81330000D01*
X154400000Y-80560000D02*
X154400000Y-81330000D01*
%TO.C,R15*%
X161700000Y-77640000D02*
X161700000Y-76870000D01*
X160330000Y-76870000D02*
X163070000Y-76870000D01*
X163070000Y-76870000D02*
X163070000Y-70330000D01*
X160330000Y-70330000D02*
X160330000Y-76870000D01*
X163070000Y-70330000D02*
X160330000Y-70330000D01*
X161700000Y-69560000D02*
X161700000Y-70330000D01*
%TO.C,R13*%
X150400000Y-77675000D02*
X150400000Y-76905000D01*
X149030000Y-76905000D02*
X151770000Y-76905000D01*
X151770000Y-76905000D02*
X151770000Y-70365000D01*
X149030000Y-70365000D02*
X149030000Y-76905000D01*
X151770000Y-70365000D02*
X149030000Y-70365000D01*
X150400000Y-69595000D02*
X150400000Y-70365000D01*
%TO.C,R16*%
X164800000Y-77640000D02*
X164800000Y-76870000D01*
X163430000Y-76870000D02*
X166170000Y-76870000D01*
X166170000Y-76870000D02*
X166170000Y-70330000D01*
X163430000Y-70330000D02*
X163430000Y-76870000D01*
X166170000Y-70330000D02*
X163430000Y-70330000D01*
X164800000Y-69560000D02*
X164800000Y-70330000D01*
%TO.C,J9*%
X140690000Y-66905000D02*
X140690000Y-65575000D01*
X142020000Y-66905000D02*
X140690000Y-66905000D01*
X143290000Y-66905000D02*
X150970000Y-66905000D01*
X143290000Y-66905000D02*
X143290000Y-64305000D01*
X150970000Y-66905000D02*
X150970000Y-61705000D01*
X140690000Y-64305000D02*
X140690000Y-61705000D01*
X143290000Y-64305000D02*
X140690000Y-64305000D01*
X140690000Y-61705000D02*
X150970000Y-61705000D01*
%TO.C,R14*%
X158600000Y-77640000D02*
X158600000Y-76870000D01*
X157230000Y-76870000D02*
X159970000Y-76870000D01*
X159970000Y-76870000D02*
X159970000Y-70330000D01*
X157230000Y-70330000D02*
X157230000Y-76870000D01*
X159970000Y-70330000D02*
X157230000Y-70330000D01*
X158600000Y-69560000D02*
X158600000Y-70330000D01*
%TO.C,R4*%
X126240000Y-77740000D02*
X126240000Y-76970000D01*
X124870000Y-76970000D02*
X127610000Y-76970000D01*
X127610000Y-76970000D02*
X127610000Y-70430000D01*
X124870000Y-70430000D02*
X124870000Y-76970000D01*
X127610000Y-70430000D02*
X124870000Y-70430000D01*
X126240000Y-69660000D02*
X126240000Y-70430000D01*
%TO.C,R8*%
X133650000Y-77740000D02*
X133650000Y-76970000D01*
X132280000Y-76970000D02*
X135020000Y-76970000D01*
X135020000Y-76970000D02*
X135020000Y-70430000D01*
X132280000Y-70430000D02*
X132280000Y-76970000D01*
X135020000Y-70430000D02*
X132280000Y-70430000D01*
X133650000Y-69660000D02*
X133650000Y-70430000D01*
%TO.C,R17*%
X167900000Y-77640000D02*
X167900000Y-76870000D01*
X166530000Y-76870000D02*
X169270000Y-76870000D01*
X169270000Y-76870000D02*
X169270000Y-70330000D01*
X166530000Y-70330000D02*
X166530000Y-76870000D01*
X169270000Y-70330000D02*
X166530000Y-70330000D01*
X167900000Y-69560000D02*
X167900000Y-70330000D01*
%TO.C,R19*%
X171000000Y-77640000D02*
X171000000Y-76870000D01*
X169630000Y-76870000D02*
X172370000Y-76870000D01*
X172370000Y-76870000D02*
X172370000Y-70330000D01*
X169630000Y-70330000D02*
X169630000Y-76870000D01*
X172370000Y-70330000D02*
X169630000Y-70330000D01*
X171000000Y-69560000D02*
X171000000Y-70330000D01*
%TO.C,R11*%
X144200000Y-77675000D02*
X144200000Y-76905000D01*
X142830000Y-76905000D02*
X145570000Y-76905000D01*
X145570000Y-76905000D02*
X145570000Y-70365000D01*
X142830000Y-70365000D02*
X142830000Y-76905000D01*
X145570000Y-70365000D02*
X142830000Y-70365000D01*
X144200000Y-69595000D02*
X144200000Y-70365000D01*
%TO.C,R5*%
X129400000Y-77740000D02*
X129400000Y-76970000D01*
X128030000Y-76970000D02*
X130770000Y-76970000D01*
X130770000Y-76970000D02*
X130770000Y-70430000D01*
X128030000Y-70430000D02*
X128030000Y-76970000D01*
X130770000Y-70430000D02*
X128030000Y-70430000D01*
X129400000Y-69660000D02*
X129400000Y-70430000D01*
%TD*%
M02*
