%TF.GenerationSoftware,KiCad,Pcbnew,7.0.11*%
%TF.CreationDate,2024-10-11T23:56:51+03:00*%
%TF.ProjectId,ISA8_Ethernet,49534138-5f45-4746-9865-726e65742e6b,1.0*%
%TF.SameCoordinates,Original*%
%TF.FileFunction,Drillmap*%
%TF.FilePolarity,Positive*%
%FSLAX45Y45*%
G04 Gerber Fmt 4.5, Leading zero omitted, Abs format (unit mm)*
G04 Created by KiCad (PCBNEW 7.0.11) date 2024-10-11 23:56:51*
%MOMM*%
%LPD*%
G01*
G04 APERTURE LIST*
%ADD10C,0.381000*%
%ADD11C,0.200000*%
%ADD12C,0.100000*%
%ADD13C,0.160000*%
%ADD14C,0.320000*%
G04 APERTURE END LIST*
D10*
X10160000Y-13398500D02*
X10160000Y-6223000D01*
X20320000Y-5969000D02*
X10414000Y-5969000D01*
X20320000Y-12700000D02*
G75*
G03*
X20574000Y-12446000I0J254000D01*
G01*
X18288000Y-13398500D02*
X18288000Y-12700000D01*
X10223500Y-13462000D02*
X18224500Y-13462000D01*
X20320000Y-12700000D02*
X18288000Y-12700000D01*
X20574000Y-6223000D02*
G75*
G03*
X20320000Y-5969000I-254000J0D01*
G01*
X18224500Y-13462000D02*
G75*
G03*
X18288000Y-13398500I0J63500D01*
G01*
X20574000Y-12446000D02*
X20574000Y-6223000D01*
X10414000Y-5969000D02*
G75*
G03*
X10160000Y-6223000I0J-254000D01*
G01*
X10160000Y-13398500D02*
G75*
G03*
X10223500Y-13462000I63500J0D01*
G01*
D11*
D12*
X10979970Y-10198040D02*
X11043470Y-10261540D01*
X11043470Y-10198040D02*
X10979970Y-10261540D01*
X11054540Y-11934350D02*
X11118040Y-11997850D01*
X11118040Y-11934350D02*
X11054540Y-11997850D01*
X11206130Y-12044630D02*
X11269630Y-12108130D01*
X11269630Y-12044630D02*
X11206130Y-12108130D01*
X11563680Y-12100810D02*
X11627180Y-12164310D01*
X11627180Y-12100810D02*
X11563680Y-12164310D01*
X11742380Y-12183990D02*
X11805880Y-12247490D01*
X11805880Y-12183990D02*
X11742380Y-12247490D01*
X11897500Y-10099160D02*
X11961000Y-10162660D01*
X11961000Y-10099160D02*
X11897500Y-10162660D01*
X11987500Y-12247530D02*
X12051000Y-12311030D01*
X12051000Y-12247530D02*
X11987500Y-12311030D01*
X12067720Y-12327750D02*
X12131220Y-12391250D01*
X12131220Y-12327750D02*
X12067720Y-12391250D01*
X12349680Y-8637650D02*
X12413180Y-8701150D01*
X12413180Y-8637650D02*
X12349680Y-8701150D01*
X12634260Y-11819780D02*
X12697760Y-11883280D01*
X12697760Y-11819780D02*
X12634260Y-11883280D01*
X12715640Y-11910770D02*
X12779140Y-11974270D01*
X12779140Y-11910770D02*
X12715640Y-11974270D01*
X12775880Y-11816710D02*
X12839380Y-11880210D01*
X12839380Y-11816710D02*
X12775880Y-11880210D01*
X13021400Y-9635390D02*
X13084900Y-9698890D01*
X13084900Y-9635390D02*
X13021400Y-9698890D01*
X13364000Y-9700680D02*
X13427500Y-9764180D01*
X13427500Y-9700680D02*
X13364000Y-9764180D01*
X13365910Y-9591580D02*
X13429410Y-9655080D01*
X13429410Y-9591580D02*
X13365910Y-9655080D01*
X13398130Y-12113370D02*
X13461630Y-12176870D01*
X13461630Y-12113370D02*
X13398130Y-12176870D01*
X13445260Y-9241090D02*
X13508760Y-9304590D01*
X13508760Y-9241090D02*
X13445260Y-9304590D01*
X13492440Y-12531130D02*
X13555940Y-12594630D01*
X13555940Y-12531130D02*
X13492440Y-12594630D01*
X13498480Y-12173240D02*
X13561980Y-12236740D01*
X13561980Y-12173240D02*
X13498480Y-12236740D01*
X13711250Y-12259980D02*
X13774750Y-12323480D01*
X13774750Y-12259980D02*
X13711250Y-12323480D01*
X13807070Y-12537870D02*
X13870570Y-12601370D01*
X13870570Y-12537870D02*
X13807070Y-12601370D01*
X13845140Y-12152890D02*
X13908640Y-12216390D01*
X13908640Y-12152890D02*
X13845140Y-12216390D01*
X13943950Y-9338250D02*
X14007450Y-9401750D01*
X14007450Y-9338250D02*
X13943950Y-9401750D01*
X14008210Y-9812760D02*
X14071710Y-9876260D01*
X14071710Y-9812760D02*
X14008210Y-9876260D01*
X14089480Y-9897530D02*
X14152980Y-9961030D01*
X14152980Y-9897530D02*
X14089480Y-9961030D01*
X14381890Y-11328810D02*
X14445390Y-11392310D01*
X14445390Y-11328810D02*
X14381890Y-11392310D01*
X14845750Y-9528900D02*
X14909250Y-9592400D01*
X14909250Y-9528900D02*
X14845750Y-9592400D01*
X14857770Y-9147270D02*
X14921270Y-9210770D01*
X14921270Y-9147270D02*
X14857770Y-9210770D01*
X15086220Y-10947660D02*
X15149720Y-11011160D01*
X15149720Y-10947660D02*
X15086220Y-11011160D01*
X15213510Y-12457890D02*
X15277010Y-12521390D01*
X15277010Y-12457890D02*
X15213510Y-12521390D01*
X15279500Y-12546210D02*
X15343000Y-12609710D01*
X15343000Y-12546210D02*
X15279500Y-12609710D01*
X15379640Y-12487890D02*
X15443140Y-12551390D01*
X15443140Y-12487890D02*
X15379640Y-12551390D01*
X15861950Y-10420600D02*
X15925450Y-10484100D01*
X15925450Y-10420600D02*
X15861950Y-10484100D01*
X15905640Y-9815750D02*
X15969140Y-9879250D01*
X15969140Y-9815750D02*
X15905640Y-9879250D01*
X16006890Y-9712870D02*
X16070390Y-9776370D01*
X16070390Y-9712870D02*
X16006890Y-9776370D01*
X16077590Y-9231550D02*
X16141090Y-9295050D01*
X16141090Y-9231550D02*
X16077590Y-9295050D01*
X16240600Y-9535430D02*
X16304100Y-9598930D01*
X16304100Y-9535430D02*
X16240600Y-9598930D01*
X16398030Y-10786730D02*
X16461530Y-10850230D01*
X16461530Y-10786730D02*
X16398030Y-10850230D01*
X18745880Y-10099540D02*
X18809380Y-10163040D01*
X18809380Y-10099540D02*
X18745880Y-10163040D01*
X10580000Y-11970000D02*
G75*
G03*
X10500000Y-11970000I-40000J0D01*
G01*
X10500000Y-11970000D02*
G75*
G03*
X10580000Y-11970000I40000J0D01*
G01*
X10830000Y-11970000D02*
G75*
G03*
X10750000Y-11970000I-40000J0D01*
G01*
X10750000Y-11970000D02*
G75*
G03*
X10830000Y-11970000I40000J0D01*
G01*
X11620000Y-7140000D02*
G75*
G03*
X11540000Y-7140000I-40000J0D01*
G01*
X11540000Y-7140000D02*
G75*
G03*
X11620000Y-7140000I40000J0D01*
G01*
X12120000Y-7140000D02*
G75*
G03*
X12040000Y-7140000I-40000J0D01*
G01*
X12040000Y-7140000D02*
G75*
G03*
X12120000Y-7140000I40000J0D01*
G01*
X12500000Y-9060000D02*
G75*
G03*
X12420000Y-9060000I-40000J0D01*
G01*
X12420000Y-9060000D02*
G75*
G03*
X12500000Y-9060000I40000J0D01*
G01*
X12542000Y-10610000D02*
G75*
G03*
X12462000Y-10610000I-40000J0D01*
G01*
X12462000Y-10610000D02*
G75*
G03*
X12542000Y-10610000I40000J0D01*
G01*
X12664000Y-6862000D02*
G75*
G03*
X12584000Y-6862000I-40000J0D01*
G01*
X12584000Y-6862000D02*
G75*
G03*
X12664000Y-6862000I40000J0D01*
G01*
X12664000Y-7878000D02*
G75*
G03*
X12584000Y-7878000I-40000J0D01*
G01*
X12584000Y-7878000D02*
G75*
G03*
X12664000Y-7878000I40000J0D01*
G01*
X12980000Y-6862000D02*
G75*
G03*
X12900000Y-6862000I-40000J0D01*
G01*
X12900000Y-6862000D02*
G75*
G03*
X12980000Y-6862000I40000J0D01*
G01*
X12980000Y-7878000D02*
G75*
G03*
X12900000Y-7878000I-40000J0D01*
G01*
X12900000Y-7878000D02*
G75*
G03*
X12980000Y-7878000I40000J0D01*
G01*
X13000000Y-9060000D02*
G75*
G03*
X12920000Y-9060000I-40000J0D01*
G01*
X12920000Y-9060000D02*
G75*
G03*
X13000000Y-9060000I40000J0D01*
G01*
X13405000Y-6862000D02*
G75*
G03*
X13325000Y-6862000I-40000J0D01*
G01*
X13325000Y-6862000D02*
G75*
G03*
X13405000Y-6862000I40000J0D01*
G01*
X13405000Y-7878000D02*
G75*
G03*
X13325000Y-7878000I-40000J0D01*
G01*
X13325000Y-7878000D02*
G75*
G03*
X13405000Y-7878000I40000J0D01*
G01*
X13558000Y-10610000D02*
G75*
G03*
X13478000Y-10610000I-40000J0D01*
G01*
X13478000Y-10610000D02*
G75*
G03*
X13558000Y-10610000I40000J0D01*
G01*
X13720000Y-6862000D02*
G75*
G03*
X13640000Y-6862000I-40000J0D01*
G01*
X13640000Y-6862000D02*
G75*
G03*
X13720000Y-6862000I40000J0D01*
G01*
X13720000Y-7878000D02*
G75*
G03*
X13640000Y-7878000I-40000J0D01*
G01*
X13640000Y-7878000D02*
G75*
G03*
X13720000Y-7878000I40000J0D01*
G01*
X14150000Y-6855500D02*
G75*
G03*
X14070000Y-6855500I-40000J0D01*
G01*
X14070000Y-6855500D02*
G75*
G03*
X14150000Y-6855500I40000J0D01*
G01*
X14150000Y-7871500D02*
G75*
G03*
X14070000Y-7871500I-40000J0D01*
G01*
X14070000Y-7871500D02*
G75*
G03*
X14150000Y-7871500I40000J0D01*
G01*
X14400000Y-11690000D02*
G75*
G03*
X14320000Y-11690000I-40000J0D01*
G01*
X14320000Y-11690000D02*
G75*
G03*
X14400000Y-11690000I40000J0D01*
G01*
X14460000Y-6855500D02*
G75*
G03*
X14380000Y-6855500I-40000J0D01*
G01*
X14380000Y-6855500D02*
G75*
G03*
X14460000Y-6855500I40000J0D01*
G01*
X14460000Y-7871500D02*
G75*
G03*
X14380000Y-7871500I-40000J0D01*
G01*
X14380000Y-7871500D02*
G75*
G03*
X14460000Y-7871500I40000J0D01*
G01*
X14770000Y-6855500D02*
G75*
G03*
X14690000Y-6855500I-40000J0D01*
G01*
X14690000Y-6855500D02*
G75*
G03*
X14770000Y-6855500I40000J0D01*
G01*
X14770000Y-7871500D02*
G75*
G03*
X14690000Y-7871500I-40000J0D01*
G01*
X14690000Y-7871500D02*
G75*
G03*
X14770000Y-7871500I40000J0D01*
G01*
X14900000Y-11690000D02*
G75*
G03*
X14820000Y-11690000I-40000J0D01*
G01*
X14820000Y-11690000D02*
G75*
G03*
X14900000Y-11690000I40000J0D01*
G01*
X15080000Y-6855500D02*
G75*
G03*
X15000000Y-6855500I-40000J0D01*
G01*
X15000000Y-6855500D02*
G75*
G03*
X15080000Y-6855500I40000J0D01*
G01*
X15080000Y-7871500D02*
G75*
G03*
X15000000Y-7871500I-40000J0D01*
G01*
X15000000Y-7871500D02*
G75*
G03*
X15080000Y-7871500I40000J0D01*
G01*
X15480000Y-7952000D02*
G75*
G03*
X15400000Y-7952000I-40000J0D01*
G01*
X15400000Y-7952000D02*
G75*
G03*
X15480000Y-7952000I40000J0D01*
G01*
X15480000Y-8968000D02*
G75*
G03*
X15400000Y-8968000I-40000J0D01*
G01*
X15400000Y-8968000D02*
G75*
G03*
X15480000Y-8968000I40000J0D01*
G01*
X15900000Y-6852000D02*
G75*
G03*
X15820000Y-6852000I-40000J0D01*
G01*
X15820000Y-6852000D02*
G75*
G03*
X15900000Y-6852000I40000J0D01*
G01*
X15900000Y-7868000D02*
G75*
G03*
X15820000Y-7868000I-40000J0D01*
G01*
X15820000Y-7868000D02*
G75*
G03*
X15900000Y-7868000I40000J0D01*
G01*
X16040000Y-8930000D02*
G75*
G03*
X15960000Y-8930000I-40000J0D01*
G01*
X15960000Y-8930000D02*
G75*
G03*
X16040000Y-8930000I40000J0D01*
G01*
X16210000Y-6852000D02*
G75*
G03*
X16130000Y-6852000I-40000J0D01*
G01*
X16130000Y-6852000D02*
G75*
G03*
X16210000Y-6852000I40000J0D01*
G01*
X16210000Y-7868000D02*
G75*
G03*
X16130000Y-7868000I-40000J0D01*
G01*
X16130000Y-7868000D02*
G75*
G03*
X16210000Y-7868000I40000J0D01*
G01*
X16520000Y-6852000D02*
G75*
G03*
X16440000Y-6852000I-40000J0D01*
G01*
X16440000Y-6852000D02*
G75*
G03*
X16520000Y-6852000I40000J0D01*
G01*
X16520000Y-7868000D02*
G75*
G03*
X16440000Y-7868000I-40000J0D01*
G01*
X16440000Y-7868000D02*
G75*
G03*
X16520000Y-7868000I40000J0D01*
G01*
X16540000Y-8930000D02*
G75*
G03*
X16460000Y-8930000I-40000J0D01*
G01*
X16460000Y-8930000D02*
G75*
G03*
X16540000Y-8930000I40000J0D01*
G01*
X16830000Y-6852000D02*
G75*
G03*
X16750000Y-6852000I-40000J0D01*
G01*
X16750000Y-6852000D02*
G75*
G03*
X16830000Y-6852000I40000J0D01*
G01*
X16830000Y-7868000D02*
G75*
G03*
X16750000Y-7868000I-40000J0D01*
G01*
X16750000Y-7868000D02*
G75*
G03*
X16830000Y-7868000I40000J0D01*
G01*
X17140000Y-6852000D02*
G75*
G03*
X17060000Y-6852000I-40000J0D01*
G01*
X17060000Y-6852000D02*
G75*
G03*
X17140000Y-6852000I40000J0D01*
G01*
X17140000Y-7868000D02*
G75*
G03*
X17060000Y-7868000I-40000J0D01*
G01*
X17060000Y-7868000D02*
G75*
G03*
X17140000Y-7868000I40000J0D01*
G01*
X17940000Y-12110000D02*
G75*
G03*
X17860000Y-12110000I-40000J0D01*
G01*
X17860000Y-12110000D02*
G75*
G03*
X17940000Y-12110000I40000J0D01*
G01*
X18190000Y-12110000D02*
G75*
G03*
X18110000Y-12110000I-40000J0D01*
G01*
X18110000Y-12110000D02*
G75*
G03*
X18190000Y-12110000I40000J0D01*
G01*
X18300000Y-9010000D02*
G75*
G03*
X18220000Y-9010000I-40000J0D01*
G01*
X18220000Y-9010000D02*
G75*
G03*
X18300000Y-9010000I40000J0D01*
G01*
X18300000Y-9510000D02*
G75*
G03*
X18220000Y-9510000I-40000J0D01*
G01*
X18220000Y-9510000D02*
G75*
G03*
X18300000Y-9510000I40000J0D01*
G01*
X18300000Y-9780000D02*
G75*
G03*
X18220000Y-9780000I-40000J0D01*
G01*
X18220000Y-9780000D02*
G75*
G03*
X18300000Y-9780000I40000J0D01*
G01*
X18300000Y-10280000D02*
G75*
G03*
X18220000Y-10280000I-40000J0D01*
G01*
X18220000Y-10280000D02*
G75*
G03*
X18300000Y-10280000I40000J0D01*
G01*
X18482000Y-7860000D02*
G75*
G03*
X18402000Y-7860000I-40000J0D01*
G01*
X18402000Y-7860000D02*
G75*
G03*
X18482000Y-7860000I40000J0D01*
G01*
X18530000Y-6522000D02*
G75*
G03*
X18450000Y-6522000I-40000J0D01*
G01*
X18450000Y-6522000D02*
G75*
G03*
X18530000Y-6522000I40000J0D01*
G01*
X18530000Y-7538000D02*
G75*
G03*
X18450000Y-7538000I-40000J0D01*
G01*
X18450000Y-7538000D02*
G75*
G03*
X18530000Y-7538000I40000J0D01*
G01*
X18870000Y-7210000D02*
G75*
G03*
X18790000Y-7210000I-40000J0D01*
G01*
X18790000Y-7210000D02*
G75*
G03*
X18870000Y-7210000I40000J0D01*
G01*
X18880000Y-6850000D02*
G75*
G03*
X18800000Y-6850000I-40000J0D01*
G01*
X18800000Y-6850000D02*
G75*
G03*
X18880000Y-6850000I40000J0D01*
G01*
X19072000Y-8340000D02*
G75*
G03*
X18992000Y-8340000I-40000J0D01*
G01*
X18992000Y-8340000D02*
G75*
G03*
X19072000Y-8340000I40000J0D01*
G01*
X19072000Y-10600000D02*
G75*
G03*
X18992000Y-10600000I-40000J0D01*
G01*
X18992000Y-10600000D02*
G75*
G03*
X19072000Y-10600000I40000J0D01*
G01*
X19370000Y-7210000D02*
G75*
G03*
X19290000Y-7210000I-40000J0D01*
G01*
X19290000Y-7210000D02*
G75*
G03*
X19370000Y-7210000I40000J0D01*
G01*
X19380000Y-6850000D02*
G75*
G03*
X19300000Y-6850000I-40000J0D01*
G01*
X19300000Y-6850000D02*
G75*
G03*
X19380000Y-6850000I40000J0D01*
G01*
X19498000Y-7860000D02*
G75*
G03*
X19418000Y-7860000I-40000J0D01*
G01*
X19418000Y-7860000D02*
G75*
G03*
X19498000Y-7860000I40000J0D01*
G01*
X20088000Y-8340000D02*
G75*
G03*
X20008000Y-8340000I-40000J0D01*
G01*
X20008000Y-8340000D02*
G75*
G03*
X20088000Y-8340000I40000J0D01*
G01*
X20088000Y-10600000D02*
G75*
G03*
X20008000Y-10600000I-40000J0D01*
G01*
X20008000Y-10600000D02*
G75*
G03*
X20088000Y-10600000I40000J0D01*
G01*
X10546000Y-7399360D02*
X10546000Y-7480640D01*
X10505360Y-7440000D02*
X10586640Y-7440000D01*
X10546000Y-7653360D02*
X10546000Y-7734640D01*
X10505360Y-7694000D02*
X10586640Y-7694000D01*
X10546000Y-7907360D02*
X10546000Y-7988640D01*
X10505360Y-7948000D02*
X10586640Y-7948000D01*
X10546000Y-8161360D02*
X10546000Y-8242640D01*
X10505360Y-8202000D02*
X10586640Y-8202000D01*
X10546000Y-8415360D02*
X10546000Y-8496640D01*
X10505360Y-8456000D02*
X10586640Y-8456000D01*
X10546000Y-8669360D02*
X10546000Y-8750640D01*
X10505360Y-8710000D02*
X10586640Y-8710000D01*
X10546000Y-8923360D02*
X10546000Y-9004640D01*
X10505360Y-8964000D02*
X10586640Y-8964000D01*
X10546000Y-9177360D02*
X10546000Y-9258640D01*
X10505360Y-9218000D02*
X10586640Y-9218000D01*
X10546000Y-9431360D02*
X10546000Y-9512640D01*
X10505360Y-9472000D02*
X10586640Y-9472000D01*
X10546000Y-9685360D02*
X10546000Y-9766640D01*
X10505360Y-9726000D02*
X10586640Y-9726000D01*
X10546000Y-9939360D02*
X10546000Y-10020640D01*
X10505360Y-9980000D02*
X10586640Y-9980000D01*
X10546000Y-10193360D02*
X10546000Y-10274640D01*
X10505360Y-10234000D02*
X10586640Y-10234000D01*
X10546000Y-10447360D02*
X10546000Y-10528640D01*
X10505360Y-10488000D02*
X10586640Y-10488000D01*
X10546000Y-10701360D02*
X10546000Y-10782640D01*
X10505360Y-10742000D02*
X10586640Y-10742000D01*
X10546000Y-10955360D02*
X10546000Y-11036640D01*
X10505360Y-10996000D02*
X10586640Y-10996000D01*
X10546000Y-11209360D02*
X10546000Y-11290640D01*
X10505360Y-11250000D02*
X10586640Y-11250000D01*
X12070000Y-7399360D02*
X12070000Y-7480640D01*
X12029360Y-7440000D02*
X12110640Y-7440000D01*
X12070000Y-7653360D02*
X12070000Y-7734640D01*
X12029360Y-7694000D02*
X12110640Y-7694000D01*
X12070000Y-7907360D02*
X12070000Y-7988640D01*
X12029360Y-7948000D02*
X12110640Y-7948000D01*
X12070000Y-8161360D02*
X12070000Y-8242640D01*
X12029360Y-8202000D02*
X12110640Y-8202000D01*
X12070000Y-8415360D02*
X12070000Y-8496640D01*
X12029360Y-8456000D02*
X12110640Y-8456000D01*
X12070000Y-8669360D02*
X12070000Y-8750640D01*
X12029360Y-8710000D02*
X12110640Y-8710000D01*
X12070000Y-8923360D02*
X12070000Y-9004640D01*
X12029360Y-8964000D02*
X12110640Y-8964000D01*
X12070000Y-9177360D02*
X12070000Y-9258640D01*
X12029360Y-9218000D02*
X12110640Y-9218000D01*
X12070000Y-9431360D02*
X12070000Y-9512640D01*
X12029360Y-9472000D02*
X12110640Y-9472000D01*
X12070000Y-9685360D02*
X12070000Y-9766640D01*
X12029360Y-9726000D02*
X12110640Y-9726000D01*
X12070000Y-9939360D02*
X12070000Y-10020640D01*
X12029360Y-9980000D02*
X12110640Y-9980000D01*
X12070000Y-10193360D02*
X12070000Y-10274640D01*
X12029360Y-10234000D02*
X12110640Y-10234000D01*
X12070000Y-10447360D02*
X12070000Y-10528640D01*
X12029360Y-10488000D02*
X12110640Y-10488000D01*
X12070000Y-10701360D02*
X12070000Y-10782640D01*
X12029360Y-10742000D02*
X12110640Y-10742000D01*
X12070000Y-10955360D02*
X12070000Y-11036640D01*
X12029360Y-10996000D02*
X12110640Y-10996000D01*
X12070000Y-11209360D02*
X12070000Y-11290640D01*
X12029360Y-11250000D02*
X12110640Y-11250000D01*
X18020000Y-6775266D02*
X18020000Y-6856546D01*
X17979360Y-6815906D02*
X18060640Y-6815906D01*
X18020000Y-7263454D02*
X18020000Y-7344734D01*
X17979360Y-7304094D02*
X18060640Y-7304094D01*
X19926467Y-8860467D02*
X19926467Y-8797533D01*
X19863533Y-8797533D01*
X19863533Y-8860467D01*
X19926467Y-8860467D01*
X19926467Y-9871467D02*
X19926467Y-9808533D01*
X19863533Y-9808533D01*
X19863533Y-9871467D01*
X19926467Y-9871467D01*
X20078467Y-9114467D02*
X20078467Y-9051533D01*
X20015533Y-9051533D01*
X20015533Y-9114467D01*
X20078467Y-9114467D01*
X20078467Y-10125467D02*
X20078467Y-10062533D01*
X20015533Y-10062533D01*
X20015533Y-10125467D01*
X20078467Y-10125467D01*
X18669000Y-9062000D02*
X18714000Y-9017000D01*
X18669000Y-8972000D01*
X18624000Y-9017000D01*
X18669000Y-9062000D01*
X18669000Y-9316000D02*
X18714000Y-9271000D01*
X18669000Y-9226000D01*
X18624000Y-9271000D01*
X18669000Y-9316000D01*
X18669000Y-9570000D02*
X18714000Y-9525000D01*
X18669000Y-9480000D01*
X18624000Y-9525000D01*
X18669000Y-9570000D01*
X18669000Y-9824000D02*
X18714000Y-9779000D01*
X18669000Y-9734000D01*
X18624000Y-9779000D01*
X18669000Y-9824000D01*
X18923000Y-9189000D02*
X18968000Y-9144000D01*
X18923000Y-9099000D01*
X18878000Y-9144000D01*
X18923000Y-9189000D01*
X18923000Y-9443000D02*
X18968000Y-9398000D01*
X18923000Y-9353000D01*
X18878000Y-9398000D01*
X18923000Y-9443000D01*
X18923000Y-9697000D02*
X18968000Y-9652000D01*
X18923000Y-9607000D01*
X18878000Y-9652000D01*
X18923000Y-9697000D01*
X18923000Y-9951000D02*
X18968000Y-9906000D01*
X18923000Y-9861000D01*
X18878000Y-9906000D01*
X18923000Y-9951000D01*
X12606000Y-6260000D02*
X12706000Y-6360000D01*
X12706000Y-6260000D02*
X12606000Y-6360000D01*
X12706000Y-6310000D02*
G75*
G03*
X12606000Y-6310000I-50000J0D01*
G01*
X12606000Y-6310000D02*
G75*
G03*
X12706000Y-6310000I50000J0D01*
G01*
X12606000Y-6514000D02*
X12706000Y-6614000D01*
X12706000Y-6514000D02*
X12606000Y-6614000D01*
X12706000Y-6564000D02*
G75*
G03*
X12606000Y-6564000I-50000J0D01*
G01*
X12606000Y-6564000D02*
G75*
G03*
X12706000Y-6564000I50000J0D01*
G01*
X12860000Y-6260000D02*
X12960000Y-6360000D01*
X12960000Y-6260000D02*
X12860000Y-6360000D01*
X12960000Y-6310000D02*
G75*
G03*
X12860000Y-6310000I-50000J0D01*
G01*
X12860000Y-6310000D02*
G75*
G03*
X12960000Y-6310000I50000J0D01*
G01*
X12860000Y-6514000D02*
X12960000Y-6614000D01*
X12960000Y-6514000D02*
X12860000Y-6614000D01*
X12960000Y-6564000D02*
G75*
G03*
X12860000Y-6564000I-50000J0D01*
G01*
X12860000Y-6564000D02*
G75*
G03*
X12960000Y-6564000I50000J0D01*
G01*
X13345000Y-6260000D02*
X13445000Y-6360000D01*
X13445000Y-6260000D02*
X13345000Y-6360000D01*
X13445000Y-6310000D02*
G75*
G03*
X13345000Y-6310000I-50000J0D01*
G01*
X13345000Y-6310000D02*
G75*
G03*
X13445000Y-6310000I50000J0D01*
G01*
X13345000Y-6514000D02*
X13445000Y-6614000D01*
X13445000Y-6514000D02*
X13345000Y-6614000D01*
X13445000Y-6564000D02*
G75*
G03*
X13345000Y-6564000I-50000J0D01*
G01*
X13345000Y-6564000D02*
G75*
G03*
X13445000Y-6564000I50000J0D01*
G01*
X13599000Y-6260000D02*
X13699000Y-6360000D01*
X13699000Y-6260000D02*
X13599000Y-6360000D01*
X13699000Y-6310000D02*
G75*
G03*
X13599000Y-6310000I-50000J0D01*
G01*
X13599000Y-6310000D02*
G75*
G03*
X13699000Y-6310000I50000J0D01*
G01*
X13599000Y-6514000D02*
X13699000Y-6614000D01*
X13699000Y-6514000D02*
X13599000Y-6614000D01*
X13699000Y-6564000D02*
G75*
G03*
X13599000Y-6564000I-50000J0D01*
G01*
X13599000Y-6564000D02*
G75*
G03*
X13699000Y-6564000I50000J0D01*
G01*
X14152000Y-6253500D02*
X14252000Y-6353500D01*
X14252000Y-6253500D02*
X14152000Y-6353500D01*
X14252000Y-6303500D02*
G75*
G03*
X14152000Y-6303500I-50000J0D01*
G01*
X14152000Y-6303500D02*
G75*
G03*
X14252000Y-6303500I50000J0D01*
G01*
X14152000Y-6507500D02*
X14252000Y-6607500D01*
X14252000Y-6507500D02*
X14152000Y-6607500D01*
X14252000Y-6557500D02*
G75*
G03*
X14152000Y-6557500I-50000J0D01*
G01*
X14152000Y-6557500D02*
G75*
G03*
X14252000Y-6557500I50000J0D01*
G01*
X14406000Y-6253500D02*
X14506000Y-6353500D01*
X14506000Y-6253500D02*
X14406000Y-6353500D01*
X14506000Y-6303500D02*
G75*
G03*
X14406000Y-6303500I-50000J0D01*
G01*
X14406000Y-6303500D02*
G75*
G03*
X14506000Y-6303500I50000J0D01*
G01*
X14406000Y-6507500D02*
X14506000Y-6607500D01*
X14506000Y-6507500D02*
X14406000Y-6607500D01*
X14506000Y-6557500D02*
G75*
G03*
X14406000Y-6557500I-50000J0D01*
G01*
X14406000Y-6557500D02*
G75*
G03*
X14506000Y-6557500I50000J0D01*
G01*
X14660000Y-6253500D02*
X14760000Y-6353500D01*
X14760000Y-6253500D02*
X14660000Y-6353500D01*
X14760000Y-6303500D02*
G75*
G03*
X14660000Y-6303500I-50000J0D01*
G01*
X14660000Y-6303500D02*
G75*
G03*
X14760000Y-6303500I50000J0D01*
G01*
X14660000Y-6507500D02*
X14760000Y-6607500D01*
X14760000Y-6507500D02*
X14660000Y-6607500D01*
X14760000Y-6557500D02*
G75*
G03*
X14660000Y-6557500I-50000J0D01*
G01*
X14660000Y-6557500D02*
G75*
G03*
X14760000Y-6557500I50000J0D01*
G01*
X14914000Y-6253500D02*
X15014000Y-6353500D01*
X15014000Y-6253500D02*
X14914000Y-6353500D01*
X15014000Y-6303500D02*
G75*
G03*
X14914000Y-6303500I-50000J0D01*
G01*
X14914000Y-6303500D02*
G75*
G03*
X15014000Y-6303500I50000J0D01*
G01*
X14914000Y-6507500D02*
X15014000Y-6607500D01*
X15014000Y-6507500D02*
X14914000Y-6607500D01*
X15014000Y-6557500D02*
G75*
G03*
X14914000Y-6557500I-50000J0D01*
G01*
X14914000Y-6557500D02*
G75*
G03*
X15014000Y-6557500I50000J0D01*
G01*
X15922000Y-6256000D02*
X16022000Y-6356000D01*
X16022000Y-6256000D02*
X15922000Y-6356000D01*
X16022000Y-6306000D02*
G75*
G03*
X15922000Y-6306000I-50000J0D01*
G01*
X15922000Y-6306000D02*
G75*
G03*
X16022000Y-6306000I50000J0D01*
G01*
X15922000Y-6510000D02*
X16022000Y-6610000D01*
X16022000Y-6510000D02*
X15922000Y-6610000D01*
X16022000Y-6560000D02*
G75*
G03*
X15922000Y-6560000I-50000J0D01*
G01*
X15922000Y-6560000D02*
G75*
G03*
X16022000Y-6560000I50000J0D01*
G01*
X16176000Y-6256000D02*
X16276000Y-6356000D01*
X16276000Y-6256000D02*
X16176000Y-6356000D01*
X16276000Y-6306000D02*
G75*
G03*
X16176000Y-6306000I-50000J0D01*
G01*
X16176000Y-6306000D02*
G75*
G03*
X16276000Y-6306000I50000J0D01*
G01*
X16176000Y-6510000D02*
X16276000Y-6610000D01*
X16276000Y-6510000D02*
X16176000Y-6610000D01*
X16276000Y-6560000D02*
G75*
G03*
X16176000Y-6560000I-50000J0D01*
G01*
X16176000Y-6560000D02*
G75*
G03*
X16276000Y-6560000I50000J0D01*
G01*
X16430000Y-6256000D02*
X16530000Y-6356000D01*
X16530000Y-6256000D02*
X16430000Y-6356000D01*
X16530000Y-6306000D02*
G75*
G03*
X16430000Y-6306000I-50000J0D01*
G01*
X16430000Y-6306000D02*
G75*
G03*
X16530000Y-6306000I50000J0D01*
G01*
X16430000Y-6510000D02*
X16530000Y-6610000D01*
X16530000Y-6510000D02*
X16430000Y-6610000D01*
X16530000Y-6560000D02*
G75*
G03*
X16430000Y-6560000I-50000J0D01*
G01*
X16430000Y-6560000D02*
G75*
G03*
X16530000Y-6560000I50000J0D01*
G01*
X16684000Y-6256000D02*
X16784000Y-6356000D01*
X16784000Y-6256000D02*
X16684000Y-6356000D01*
X16784000Y-6306000D02*
G75*
G03*
X16684000Y-6306000I-50000J0D01*
G01*
X16684000Y-6306000D02*
G75*
G03*
X16784000Y-6306000I50000J0D01*
G01*
X16684000Y-6510000D02*
X16784000Y-6610000D01*
X16784000Y-6510000D02*
X16684000Y-6610000D01*
X16784000Y-6560000D02*
G75*
G03*
X16684000Y-6560000I-50000J0D01*
G01*
X16684000Y-6560000D02*
G75*
G03*
X16784000Y-6560000I50000J0D01*
G01*
X16938000Y-6256000D02*
X17038000Y-6356000D01*
X17038000Y-6256000D02*
X16938000Y-6356000D01*
X17038000Y-6306000D02*
G75*
G03*
X16938000Y-6306000I-50000J0D01*
G01*
X16938000Y-6306000D02*
G75*
G03*
X17038000Y-6306000I50000J0D01*
G01*
X16938000Y-6510000D02*
X17038000Y-6610000D01*
X17038000Y-6510000D02*
X16938000Y-6610000D01*
X17038000Y-6560000D02*
G75*
G03*
X16938000Y-6560000I-50000J0D01*
G01*
X16938000Y-6560000D02*
G75*
G03*
X17038000Y-6560000I50000J0D01*
G01*
D13*
X19172000Y-8604000D02*
X19332000Y-8764000D01*
X19332000Y-8604000D02*
X19172000Y-8764000D01*
X19252000Y-8604000D02*
X19252000Y-8764000D01*
X19172000Y-8684000D02*
X19332000Y-8684000D01*
X19172000Y-10159000D02*
X19332000Y-10319000D01*
X19332000Y-10159000D02*
X19172000Y-10319000D01*
X19252000Y-10159000D02*
X19252000Y-10319000D01*
X19172000Y-10239000D02*
X19332000Y-10239000D01*
D14*
X19944100Y-6444000D02*
X20264100Y-6764000D01*
X20264100Y-6444000D02*
X19944100Y-6764000D01*
X20217238Y-6717138D02*
X20217238Y-6490862D01*
X19990962Y-6490862D01*
X19990962Y-6717138D01*
X20217238Y-6717138D01*
X19944100Y-12095500D02*
X20264100Y-12415500D01*
X20264100Y-12095500D02*
X19944100Y-12415500D01*
X20217238Y-12368638D02*
X20217238Y-12142362D01*
X19990962Y-12142362D01*
X19990962Y-12368638D01*
X20217238Y-12368638D01*
D11*
X10401727Y-13792534D02*
X10401727Y-13592534D01*
X10401727Y-13592534D02*
X10449346Y-13592534D01*
X10449346Y-13592534D02*
X10477917Y-13602058D01*
X10477917Y-13602058D02*
X10496965Y-13621105D01*
X10496965Y-13621105D02*
X10506489Y-13640153D01*
X10506489Y-13640153D02*
X10516013Y-13678248D01*
X10516013Y-13678248D02*
X10516013Y-13706819D01*
X10516013Y-13706819D02*
X10506489Y-13744915D01*
X10506489Y-13744915D02*
X10496965Y-13763962D01*
X10496965Y-13763962D02*
X10477917Y-13783010D01*
X10477917Y-13783010D02*
X10449346Y-13792534D01*
X10449346Y-13792534D02*
X10401727Y-13792534D01*
X10601727Y-13792534D02*
X10601727Y-13659200D01*
X10601727Y-13697296D02*
X10611251Y-13678248D01*
X10611251Y-13678248D02*
X10620774Y-13668724D01*
X10620774Y-13668724D02*
X10639822Y-13659200D01*
X10639822Y-13659200D02*
X10658870Y-13659200D01*
X10725536Y-13792534D02*
X10725536Y-13659200D01*
X10725536Y-13592534D02*
X10716013Y-13602058D01*
X10716013Y-13602058D02*
X10725536Y-13611581D01*
X10725536Y-13611581D02*
X10735060Y-13602058D01*
X10735060Y-13602058D02*
X10725536Y-13592534D01*
X10725536Y-13592534D02*
X10725536Y-13611581D01*
X10849346Y-13792534D02*
X10830298Y-13783010D01*
X10830298Y-13783010D02*
X10820774Y-13763962D01*
X10820774Y-13763962D02*
X10820774Y-13592534D01*
X10954108Y-13792534D02*
X10935060Y-13783010D01*
X10935060Y-13783010D02*
X10925536Y-13763962D01*
X10925536Y-13763962D02*
X10925536Y-13592534D01*
X11182679Y-13792534D02*
X11182679Y-13592534D01*
X11182679Y-13592534D02*
X11249346Y-13735391D01*
X11249346Y-13735391D02*
X11316012Y-13592534D01*
X11316012Y-13592534D02*
X11316012Y-13792534D01*
X11496965Y-13792534D02*
X11496965Y-13687772D01*
X11496965Y-13687772D02*
X11487441Y-13668724D01*
X11487441Y-13668724D02*
X11468393Y-13659200D01*
X11468393Y-13659200D02*
X11430298Y-13659200D01*
X11430298Y-13659200D02*
X11411251Y-13668724D01*
X11496965Y-13783010D02*
X11477917Y-13792534D01*
X11477917Y-13792534D02*
X11430298Y-13792534D01*
X11430298Y-13792534D02*
X11411251Y-13783010D01*
X11411251Y-13783010D02*
X11401727Y-13763962D01*
X11401727Y-13763962D02*
X11401727Y-13744915D01*
X11401727Y-13744915D02*
X11411251Y-13725867D01*
X11411251Y-13725867D02*
X11430298Y-13716343D01*
X11430298Y-13716343D02*
X11477917Y-13716343D01*
X11477917Y-13716343D02*
X11496965Y-13706819D01*
X11592203Y-13659200D02*
X11592203Y-13859200D01*
X11592203Y-13668724D02*
X11611251Y-13659200D01*
X11611251Y-13659200D02*
X11649346Y-13659200D01*
X11649346Y-13659200D02*
X11668393Y-13668724D01*
X11668393Y-13668724D02*
X11677917Y-13678248D01*
X11677917Y-13678248D02*
X11687441Y-13697296D01*
X11687441Y-13697296D02*
X11687441Y-13754438D01*
X11687441Y-13754438D02*
X11677917Y-13773486D01*
X11677917Y-13773486D02*
X11668393Y-13783010D01*
X11668393Y-13783010D02*
X11649346Y-13792534D01*
X11649346Y-13792534D02*
X11611251Y-13792534D01*
X11611251Y-13792534D02*
X11592203Y-13783010D01*
X11773155Y-13773486D02*
X11782679Y-13783010D01*
X11782679Y-13783010D02*
X11773155Y-13792534D01*
X11773155Y-13792534D02*
X11763632Y-13783010D01*
X11763632Y-13783010D02*
X11773155Y-13773486D01*
X11773155Y-13773486D02*
X11773155Y-13792534D01*
X11773155Y-13668724D02*
X11782679Y-13678248D01*
X11782679Y-13678248D02*
X11773155Y-13687772D01*
X11773155Y-13687772D02*
X11763632Y-13678248D01*
X11763632Y-13678248D02*
X11773155Y-13668724D01*
X11773155Y-13668724D02*
X11773155Y-13687772D01*
D12*
X10077450Y-14089300D02*
X10140950Y-14152800D01*
X10140950Y-14089300D02*
X10077450Y-14152800D01*
D11*
X10439822Y-14012534D02*
X10458870Y-14012534D01*
X10458870Y-14012534D02*
X10477917Y-14022058D01*
X10477917Y-14022058D02*
X10487441Y-14031581D01*
X10487441Y-14031581D02*
X10496965Y-14050629D01*
X10496965Y-14050629D02*
X10506489Y-14088724D01*
X10506489Y-14088724D02*
X10506489Y-14136343D01*
X10506489Y-14136343D02*
X10496965Y-14174438D01*
X10496965Y-14174438D02*
X10487441Y-14193486D01*
X10487441Y-14193486D02*
X10477917Y-14203010D01*
X10477917Y-14203010D02*
X10458870Y-14212534D01*
X10458870Y-14212534D02*
X10439822Y-14212534D01*
X10439822Y-14212534D02*
X10420774Y-14203010D01*
X10420774Y-14203010D02*
X10411251Y-14193486D01*
X10411251Y-14193486D02*
X10401727Y-14174438D01*
X10401727Y-14174438D02*
X10392203Y-14136343D01*
X10392203Y-14136343D02*
X10392203Y-14088724D01*
X10392203Y-14088724D02*
X10401727Y-14050629D01*
X10401727Y-14050629D02*
X10411251Y-14031581D01*
X10411251Y-14031581D02*
X10420774Y-14022058D01*
X10420774Y-14022058D02*
X10439822Y-14012534D01*
X10592203Y-14193486D02*
X10601727Y-14203010D01*
X10601727Y-14203010D02*
X10592203Y-14212534D01*
X10592203Y-14212534D02*
X10582679Y-14203010D01*
X10582679Y-14203010D02*
X10592203Y-14193486D01*
X10592203Y-14193486D02*
X10592203Y-14212534D01*
X10773155Y-14012534D02*
X10735060Y-14012534D01*
X10735060Y-14012534D02*
X10716013Y-14022058D01*
X10716013Y-14022058D02*
X10706489Y-14031581D01*
X10706489Y-14031581D02*
X10687441Y-14060153D01*
X10687441Y-14060153D02*
X10677917Y-14098248D01*
X10677917Y-14098248D02*
X10677917Y-14174438D01*
X10677917Y-14174438D02*
X10687441Y-14193486D01*
X10687441Y-14193486D02*
X10696965Y-14203010D01*
X10696965Y-14203010D02*
X10716013Y-14212534D01*
X10716013Y-14212534D02*
X10754108Y-14212534D01*
X10754108Y-14212534D02*
X10773155Y-14203010D01*
X10773155Y-14203010D02*
X10782679Y-14193486D01*
X10782679Y-14193486D02*
X10792203Y-14174438D01*
X10792203Y-14174438D02*
X10792203Y-14126819D01*
X10792203Y-14126819D02*
X10782679Y-14107772D01*
X10782679Y-14107772D02*
X10773155Y-14098248D01*
X10773155Y-14098248D02*
X10754108Y-14088724D01*
X10754108Y-14088724D02*
X10716013Y-14088724D01*
X10716013Y-14088724D02*
X10696965Y-14098248D01*
X10696965Y-14098248D02*
X10687441Y-14107772D01*
X10687441Y-14107772D02*
X10677917Y-14126819D01*
X10858870Y-14012534D02*
X10982679Y-14012534D01*
X10982679Y-14012534D02*
X10916013Y-14088724D01*
X10916013Y-14088724D02*
X10944584Y-14088724D01*
X10944584Y-14088724D02*
X10963632Y-14098248D01*
X10963632Y-14098248D02*
X10973155Y-14107772D01*
X10973155Y-14107772D02*
X10982679Y-14126819D01*
X10982679Y-14126819D02*
X10982679Y-14174438D01*
X10982679Y-14174438D02*
X10973155Y-14193486D01*
X10973155Y-14193486D02*
X10963632Y-14203010D01*
X10963632Y-14203010D02*
X10944584Y-14212534D01*
X10944584Y-14212534D02*
X10887441Y-14212534D01*
X10887441Y-14212534D02*
X10868394Y-14203010D01*
X10868394Y-14203010D02*
X10858870Y-14193486D01*
X11163632Y-14012534D02*
X11068394Y-14012534D01*
X11068394Y-14012534D02*
X11058870Y-14107772D01*
X11058870Y-14107772D02*
X11068394Y-14098248D01*
X11068394Y-14098248D02*
X11087441Y-14088724D01*
X11087441Y-14088724D02*
X11135060Y-14088724D01*
X11135060Y-14088724D02*
X11154108Y-14098248D01*
X11154108Y-14098248D02*
X11163632Y-14107772D01*
X11163632Y-14107772D02*
X11173155Y-14126819D01*
X11173155Y-14126819D02*
X11173155Y-14174438D01*
X11173155Y-14174438D02*
X11163632Y-14193486D01*
X11163632Y-14193486D02*
X11154108Y-14203010D01*
X11154108Y-14203010D02*
X11135060Y-14212534D01*
X11135060Y-14212534D02*
X11087441Y-14212534D01*
X11087441Y-14212534D02*
X11068394Y-14203010D01*
X11068394Y-14203010D02*
X11058870Y-14193486D01*
X11258870Y-14212534D02*
X11258870Y-14079200D01*
X11258870Y-14098248D02*
X11268393Y-14088724D01*
X11268393Y-14088724D02*
X11287441Y-14079200D01*
X11287441Y-14079200D02*
X11316013Y-14079200D01*
X11316013Y-14079200D02*
X11335060Y-14088724D01*
X11335060Y-14088724D02*
X11344584Y-14107772D01*
X11344584Y-14107772D02*
X11344584Y-14212534D01*
X11344584Y-14107772D02*
X11354108Y-14088724D01*
X11354108Y-14088724D02*
X11373155Y-14079200D01*
X11373155Y-14079200D02*
X11401727Y-14079200D01*
X11401727Y-14079200D02*
X11420774Y-14088724D01*
X11420774Y-14088724D02*
X11430298Y-14107772D01*
X11430298Y-14107772D02*
X11430298Y-14212534D01*
X11525536Y-14212534D02*
X11525536Y-14079200D01*
X11525536Y-14098248D02*
X11535060Y-14088724D01*
X11535060Y-14088724D02*
X11554108Y-14079200D01*
X11554108Y-14079200D02*
X11582679Y-14079200D01*
X11582679Y-14079200D02*
X11601727Y-14088724D01*
X11601727Y-14088724D02*
X11611251Y-14107772D01*
X11611251Y-14107772D02*
X11611251Y-14212534D01*
X11611251Y-14107772D02*
X11620774Y-14088724D01*
X11620774Y-14088724D02*
X11639822Y-14079200D01*
X11639822Y-14079200D02*
X11668393Y-14079200D01*
X11668393Y-14079200D02*
X11687441Y-14088724D01*
X11687441Y-14088724D02*
X11696965Y-14107772D01*
X11696965Y-14107772D02*
X11696965Y-14212534D01*
X12087441Y-14003010D02*
X11916013Y-14260153D01*
X12344584Y-14012534D02*
X12363632Y-14012534D01*
X12363632Y-14012534D02*
X12382679Y-14022058D01*
X12382679Y-14022058D02*
X12392203Y-14031581D01*
X12392203Y-14031581D02*
X12401727Y-14050629D01*
X12401727Y-14050629D02*
X12411251Y-14088724D01*
X12411251Y-14088724D02*
X12411251Y-14136343D01*
X12411251Y-14136343D02*
X12401727Y-14174438D01*
X12401727Y-14174438D02*
X12392203Y-14193486D01*
X12392203Y-14193486D02*
X12382679Y-14203010D01*
X12382679Y-14203010D02*
X12363632Y-14212534D01*
X12363632Y-14212534D02*
X12344584Y-14212534D01*
X12344584Y-14212534D02*
X12325536Y-14203010D01*
X12325536Y-14203010D02*
X12316013Y-14193486D01*
X12316013Y-14193486D02*
X12306489Y-14174438D01*
X12306489Y-14174438D02*
X12296965Y-14136343D01*
X12296965Y-14136343D02*
X12296965Y-14088724D01*
X12296965Y-14088724D02*
X12306489Y-14050629D01*
X12306489Y-14050629D02*
X12316013Y-14031581D01*
X12316013Y-14031581D02*
X12325536Y-14022058D01*
X12325536Y-14022058D02*
X12344584Y-14012534D01*
X12496965Y-14193486D02*
X12506489Y-14203010D01*
X12506489Y-14203010D02*
X12496965Y-14212534D01*
X12496965Y-14212534D02*
X12487441Y-14203010D01*
X12487441Y-14203010D02*
X12496965Y-14193486D01*
X12496965Y-14193486D02*
X12496965Y-14212534D01*
X12630298Y-14012534D02*
X12649346Y-14012534D01*
X12649346Y-14012534D02*
X12668394Y-14022058D01*
X12668394Y-14022058D02*
X12677917Y-14031581D01*
X12677917Y-14031581D02*
X12687441Y-14050629D01*
X12687441Y-14050629D02*
X12696965Y-14088724D01*
X12696965Y-14088724D02*
X12696965Y-14136343D01*
X12696965Y-14136343D02*
X12687441Y-14174438D01*
X12687441Y-14174438D02*
X12677917Y-14193486D01*
X12677917Y-14193486D02*
X12668394Y-14203010D01*
X12668394Y-14203010D02*
X12649346Y-14212534D01*
X12649346Y-14212534D02*
X12630298Y-14212534D01*
X12630298Y-14212534D02*
X12611251Y-14203010D01*
X12611251Y-14203010D02*
X12601727Y-14193486D01*
X12601727Y-14193486D02*
X12592203Y-14174438D01*
X12592203Y-14174438D02*
X12582679Y-14136343D01*
X12582679Y-14136343D02*
X12582679Y-14088724D01*
X12582679Y-14088724D02*
X12592203Y-14050629D01*
X12592203Y-14050629D02*
X12601727Y-14031581D01*
X12601727Y-14031581D02*
X12611251Y-14022058D01*
X12611251Y-14022058D02*
X12630298Y-14012534D01*
X12773156Y-14031581D02*
X12782679Y-14022058D01*
X12782679Y-14022058D02*
X12801727Y-14012534D01*
X12801727Y-14012534D02*
X12849346Y-14012534D01*
X12849346Y-14012534D02*
X12868394Y-14022058D01*
X12868394Y-14022058D02*
X12877917Y-14031581D01*
X12877917Y-14031581D02*
X12887441Y-14050629D01*
X12887441Y-14050629D02*
X12887441Y-14069677D01*
X12887441Y-14069677D02*
X12877917Y-14098248D01*
X12877917Y-14098248D02*
X12763632Y-14212534D01*
X12763632Y-14212534D02*
X12887441Y-14212534D01*
X13068394Y-14012534D02*
X12973156Y-14012534D01*
X12973156Y-14012534D02*
X12963632Y-14107772D01*
X12963632Y-14107772D02*
X12973156Y-14098248D01*
X12973156Y-14098248D02*
X12992203Y-14088724D01*
X12992203Y-14088724D02*
X13039822Y-14088724D01*
X13039822Y-14088724D02*
X13058870Y-14098248D01*
X13058870Y-14098248D02*
X13068394Y-14107772D01*
X13068394Y-14107772D02*
X13077917Y-14126819D01*
X13077917Y-14126819D02*
X13077917Y-14174438D01*
X13077917Y-14174438D02*
X13068394Y-14193486D01*
X13068394Y-14193486D02*
X13058870Y-14203010D01*
X13058870Y-14203010D02*
X13039822Y-14212534D01*
X13039822Y-14212534D02*
X12992203Y-14212534D01*
X12992203Y-14212534D02*
X12973156Y-14203010D01*
X12973156Y-14203010D02*
X12963632Y-14193486D01*
X13201727Y-14012534D02*
X13220775Y-14012534D01*
X13220775Y-14012534D02*
X13239822Y-14022058D01*
X13239822Y-14022058D02*
X13249346Y-14031581D01*
X13249346Y-14031581D02*
X13258870Y-14050629D01*
X13258870Y-14050629D02*
X13268394Y-14088724D01*
X13268394Y-14088724D02*
X13268394Y-14136343D01*
X13268394Y-14136343D02*
X13258870Y-14174438D01*
X13258870Y-14174438D02*
X13249346Y-14193486D01*
X13249346Y-14193486D02*
X13239822Y-14203010D01*
X13239822Y-14203010D02*
X13220775Y-14212534D01*
X13220775Y-14212534D02*
X13201727Y-14212534D01*
X13201727Y-14212534D02*
X13182679Y-14203010D01*
X13182679Y-14203010D02*
X13173156Y-14193486D01*
X13173156Y-14193486D02*
X13163632Y-14174438D01*
X13163632Y-14174438D02*
X13154108Y-14136343D01*
X13154108Y-14136343D02*
X13154108Y-14088724D01*
X13154108Y-14088724D02*
X13163632Y-14050629D01*
X13163632Y-14050629D02*
X13173156Y-14031581D01*
X13173156Y-14031581D02*
X13182679Y-14022058D01*
X13182679Y-14022058D02*
X13201727Y-14012534D01*
X13344584Y-14012534D02*
X13344584Y-14050629D01*
X13420775Y-14012534D02*
X13420775Y-14050629D01*
X13716013Y-14288724D02*
X13706489Y-14279200D01*
X13706489Y-14279200D02*
X13687441Y-14250629D01*
X13687441Y-14250629D02*
X13677918Y-14231581D01*
X13677918Y-14231581D02*
X13668394Y-14203010D01*
X13668394Y-14203010D02*
X13658870Y-14155391D01*
X13658870Y-14155391D02*
X13658870Y-14117296D01*
X13658870Y-14117296D02*
X13668394Y-14069677D01*
X13668394Y-14069677D02*
X13677918Y-14041105D01*
X13677918Y-14041105D02*
X13687441Y-14022058D01*
X13687441Y-14022058D02*
X13706489Y-13993486D01*
X13706489Y-13993486D02*
X13716013Y-13983962D01*
X13773156Y-14012534D02*
X13896965Y-14012534D01*
X13896965Y-14012534D02*
X13830298Y-14088724D01*
X13830298Y-14088724D02*
X13858870Y-14088724D01*
X13858870Y-14088724D02*
X13877918Y-14098248D01*
X13877918Y-14098248D02*
X13887441Y-14107772D01*
X13887441Y-14107772D02*
X13896965Y-14126819D01*
X13896965Y-14126819D02*
X13896965Y-14174438D01*
X13896965Y-14174438D02*
X13887441Y-14193486D01*
X13887441Y-14193486D02*
X13877918Y-14203010D01*
X13877918Y-14203010D02*
X13858870Y-14212534D01*
X13858870Y-14212534D02*
X13801727Y-14212534D01*
X13801727Y-14212534D02*
X13782679Y-14203010D01*
X13782679Y-14203010D02*
X13773156Y-14193486D01*
X13992203Y-14212534D02*
X14030298Y-14212534D01*
X14030298Y-14212534D02*
X14049346Y-14203010D01*
X14049346Y-14203010D02*
X14058870Y-14193486D01*
X14058870Y-14193486D02*
X14077918Y-14164915D01*
X14077918Y-14164915D02*
X14087441Y-14126819D01*
X14087441Y-14126819D02*
X14087441Y-14050629D01*
X14087441Y-14050629D02*
X14077918Y-14031581D01*
X14077918Y-14031581D02*
X14068394Y-14022058D01*
X14068394Y-14022058D02*
X14049346Y-14012534D01*
X14049346Y-14012534D02*
X14011251Y-14012534D01*
X14011251Y-14012534D02*
X13992203Y-14022058D01*
X13992203Y-14022058D02*
X13982679Y-14031581D01*
X13982679Y-14031581D02*
X13973156Y-14050629D01*
X13973156Y-14050629D02*
X13973156Y-14098248D01*
X13973156Y-14098248D02*
X13982679Y-14117296D01*
X13982679Y-14117296D02*
X13992203Y-14126819D01*
X13992203Y-14126819D02*
X14011251Y-14136343D01*
X14011251Y-14136343D02*
X14049346Y-14136343D01*
X14049346Y-14136343D02*
X14068394Y-14126819D01*
X14068394Y-14126819D02*
X14077918Y-14117296D01*
X14077918Y-14117296D02*
X14087441Y-14098248D01*
X14325537Y-14212534D02*
X14325537Y-14012534D01*
X14411251Y-14212534D02*
X14411251Y-14107772D01*
X14411251Y-14107772D02*
X14401727Y-14088724D01*
X14401727Y-14088724D02*
X14382680Y-14079200D01*
X14382680Y-14079200D02*
X14354108Y-14079200D01*
X14354108Y-14079200D02*
X14335060Y-14088724D01*
X14335060Y-14088724D02*
X14325537Y-14098248D01*
X14535060Y-14212534D02*
X14516013Y-14203010D01*
X14516013Y-14203010D02*
X14506489Y-14193486D01*
X14506489Y-14193486D02*
X14496965Y-14174438D01*
X14496965Y-14174438D02*
X14496965Y-14117296D01*
X14496965Y-14117296D02*
X14506489Y-14098248D01*
X14506489Y-14098248D02*
X14516013Y-14088724D01*
X14516013Y-14088724D02*
X14535060Y-14079200D01*
X14535060Y-14079200D02*
X14563632Y-14079200D01*
X14563632Y-14079200D02*
X14582680Y-14088724D01*
X14582680Y-14088724D02*
X14592203Y-14098248D01*
X14592203Y-14098248D02*
X14601727Y-14117296D01*
X14601727Y-14117296D02*
X14601727Y-14174438D01*
X14601727Y-14174438D02*
X14592203Y-14193486D01*
X14592203Y-14193486D02*
X14582680Y-14203010D01*
X14582680Y-14203010D02*
X14563632Y-14212534D01*
X14563632Y-14212534D02*
X14535060Y-14212534D01*
X14716013Y-14212534D02*
X14696965Y-14203010D01*
X14696965Y-14203010D02*
X14687441Y-14183962D01*
X14687441Y-14183962D02*
X14687441Y-14012534D01*
X14868394Y-14203010D02*
X14849346Y-14212534D01*
X14849346Y-14212534D02*
X14811251Y-14212534D01*
X14811251Y-14212534D02*
X14792203Y-14203010D01*
X14792203Y-14203010D02*
X14782680Y-14183962D01*
X14782680Y-14183962D02*
X14782680Y-14107772D01*
X14782680Y-14107772D02*
X14792203Y-14088724D01*
X14792203Y-14088724D02*
X14811251Y-14079200D01*
X14811251Y-14079200D02*
X14849346Y-14079200D01*
X14849346Y-14079200D02*
X14868394Y-14088724D01*
X14868394Y-14088724D02*
X14877918Y-14107772D01*
X14877918Y-14107772D02*
X14877918Y-14126819D01*
X14877918Y-14126819D02*
X14782680Y-14145867D01*
X14954108Y-14203010D02*
X14973156Y-14212534D01*
X14973156Y-14212534D02*
X15011251Y-14212534D01*
X15011251Y-14212534D02*
X15030299Y-14203010D01*
X15030299Y-14203010D02*
X15039822Y-14183962D01*
X15039822Y-14183962D02*
X15039822Y-14174438D01*
X15039822Y-14174438D02*
X15030299Y-14155391D01*
X15030299Y-14155391D02*
X15011251Y-14145867D01*
X15011251Y-14145867D02*
X14982680Y-14145867D01*
X14982680Y-14145867D02*
X14963632Y-14136343D01*
X14963632Y-14136343D02*
X14954108Y-14117296D01*
X14954108Y-14117296D02*
X14954108Y-14107772D01*
X14954108Y-14107772D02*
X14963632Y-14088724D01*
X14963632Y-14088724D02*
X14982680Y-14079200D01*
X14982680Y-14079200D02*
X15011251Y-14079200D01*
X15011251Y-14079200D02*
X15030299Y-14088724D01*
X15106489Y-14288724D02*
X15116013Y-14279200D01*
X15116013Y-14279200D02*
X15135061Y-14250629D01*
X15135061Y-14250629D02*
X15144584Y-14231581D01*
X15144584Y-14231581D02*
X15154108Y-14203010D01*
X15154108Y-14203010D02*
X15163632Y-14155391D01*
X15163632Y-14155391D02*
X15163632Y-14117296D01*
X15163632Y-14117296D02*
X15154108Y-14069677D01*
X15154108Y-14069677D02*
X15144584Y-14041105D01*
X15144584Y-14041105D02*
X15135061Y-14022058D01*
X15135061Y-14022058D02*
X15116013Y-13993486D01*
X15116013Y-13993486D02*
X15106489Y-13983962D01*
D12*
X10140950Y-14385050D02*
G75*
G03*
X10060950Y-14385050I-40000J0D01*
G01*
X10060950Y-14385050D02*
G75*
G03*
X10140950Y-14385050I40000J0D01*
G01*
D11*
X10439822Y-14276534D02*
X10458870Y-14276534D01*
X10458870Y-14276534D02*
X10477917Y-14286058D01*
X10477917Y-14286058D02*
X10487441Y-14295581D01*
X10487441Y-14295581D02*
X10496965Y-14314629D01*
X10496965Y-14314629D02*
X10506489Y-14352724D01*
X10506489Y-14352724D02*
X10506489Y-14400343D01*
X10506489Y-14400343D02*
X10496965Y-14438438D01*
X10496965Y-14438438D02*
X10487441Y-14457486D01*
X10487441Y-14457486D02*
X10477917Y-14467010D01*
X10477917Y-14467010D02*
X10458870Y-14476534D01*
X10458870Y-14476534D02*
X10439822Y-14476534D01*
X10439822Y-14476534D02*
X10420774Y-14467010D01*
X10420774Y-14467010D02*
X10411251Y-14457486D01*
X10411251Y-14457486D02*
X10401727Y-14438438D01*
X10401727Y-14438438D02*
X10392203Y-14400343D01*
X10392203Y-14400343D02*
X10392203Y-14352724D01*
X10392203Y-14352724D02*
X10401727Y-14314629D01*
X10401727Y-14314629D02*
X10411251Y-14295581D01*
X10411251Y-14295581D02*
X10420774Y-14286058D01*
X10420774Y-14286058D02*
X10439822Y-14276534D01*
X10592203Y-14457486D02*
X10601727Y-14467010D01*
X10601727Y-14467010D02*
X10592203Y-14476534D01*
X10592203Y-14476534D02*
X10582679Y-14467010D01*
X10582679Y-14467010D02*
X10592203Y-14457486D01*
X10592203Y-14457486D02*
X10592203Y-14476534D01*
X10716013Y-14362248D02*
X10696965Y-14352724D01*
X10696965Y-14352724D02*
X10687441Y-14343200D01*
X10687441Y-14343200D02*
X10677917Y-14324153D01*
X10677917Y-14324153D02*
X10677917Y-14314629D01*
X10677917Y-14314629D02*
X10687441Y-14295581D01*
X10687441Y-14295581D02*
X10696965Y-14286058D01*
X10696965Y-14286058D02*
X10716013Y-14276534D01*
X10716013Y-14276534D02*
X10754108Y-14276534D01*
X10754108Y-14276534D02*
X10773155Y-14286058D01*
X10773155Y-14286058D02*
X10782679Y-14295581D01*
X10782679Y-14295581D02*
X10792203Y-14314629D01*
X10792203Y-14314629D02*
X10792203Y-14324153D01*
X10792203Y-14324153D02*
X10782679Y-14343200D01*
X10782679Y-14343200D02*
X10773155Y-14352724D01*
X10773155Y-14352724D02*
X10754108Y-14362248D01*
X10754108Y-14362248D02*
X10716013Y-14362248D01*
X10716013Y-14362248D02*
X10696965Y-14371772D01*
X10696965Y-14371772D02*
X10687441Y-14381296D01*
X10687441Y-14381296D02*
X10677917Y-14400343D01*
X10677917Y-14400343D02*
X10677917Y-14438438D01*
X10677917Y-14438438D02*
X10687441Y-14457486D01*
X10687441Y-14457486D02*
X10696965Y-14467010D01*
X10696965Y-14467010D02*
X10716013Y-14476534D01*
X10716013Y-14476534D02*
X10754108Y-14476534D01*
X10754108Y-14476534D02*
X10773155Y-14467010D01*
X10773155Y-14467010D02*
X10782679Y-14457486D01*
X10782679Y-14457486D02*
X10792203Y-14438438D01*
X10792203Y-14438438D02*
X10792203Y-14400343D01*
X10792203Y-14400343D02*
X10782679Y-14381296D01*
X10782679Y-14381296D02*
X10773155Y-14371772D01*
X10773155Y-14371772D02*
X10754108Y-14362248D01*
X10916013Y-14276534D02*
X10935060Y-14276534D01*
X10935060Y-14276534D02*
X10954108Y-14286058D01*
X10954108Y-14286058D02*
X10963632Y-14295581D01*
X10963632Y-14295581D02*
X10973155Y-14314629D01*
X10973155Y-14314629D02*
X10982679Y-14352724D01*
X10982679Y-14352724D02*
X10982679Y-14400343D01*
X10982679Y-14400343D02*
X10973155Y-14438438D01*
X10973155Y-14438438D02*
X10963632Y-14457486D01*
X10963632Y-14457486D02*
X10954108Y-14467010D01*
X10954108Y-14467010D02*
X10935060Y-14476534D01*
X10935060Y-14476534D02*
X10916013Y-14476534D01*
X10916013Y-14476534D02*
X10896965Y-14467010D01*
X10896965Y-14467010D02*
X10887441Y-14457486D01*
X10887441Y-14457486D02*
X10877917Y-14438438D01*
X10877917Y-14438438D02*
X10868394Y-14400343D01*
X10868394Y-14400343D02*
X10868394Y-14352724D01*
X10868394Y-14352724D02*
X10877917Y-14314629D01*
X10877917Y-14314629D02*
X10887441Y-14295581D01*
X10887441Y-14295581D02*
X10896965Y-14286058D01*
X10896965Y-14286058D02*
X10916013Y-14276534D01*
X11106489Y-14276534D02*
X11125536Y-14276534D01*
X11125536Y-14276534D02*
X11144584Y-14286058D01*
X11144584Y-14286058D02*
X11154108Y-14295581D01*
X11154108Y-14295581D02*
X11163632Y-14314629D01*
X11163632Y-14314629D02*
X11173155Y-14352724D01*
X11173155Y-14352724D02*
X11173155Y-14400343D01*
X11173155Y-14400343D02*
X11163632Y-14438438D01*
X11163632Y-14438438D02*
X11154108Y-14457486D01*
X11154108Y-14457486D02*
X11144584Y-14467010D01*
X11144584Y-14467010D02*
X11125536Y-14476534D01*
X11125536Y-14476534D02*
X11106489Y-14476534D01*
X11106489Y-14476534D02*
X11087441Y-14467010D01*
X11087441Y-14467010D02*
X11077917Y-14457486D01*
X11077917Y-14457486D02*
X11068394Y-14438438D01*
X11068394Y-14438438D02*
X11058870Y-14400343D01*
X11058870Y-14400343D02*
X11058870Y-14352724D01*
X11058870Y-14352724D02*
X11068394Y-14314629D01*
X11068394Y-14314629D02*
X11077917Y-14295581D01*
X11077917Y-14295581D02*
X11087441Y-14286058D01*
X11087441Y-14286058D02*
X11106489Y-14276534D01*
X11258870Y-14476534D02*
X11258870Y-14343200D01*
X11258870Y-14362248D02*
X11268393Y-14352724D01*
X11268393Y-14352724D02*
X11287441Y-14343200D01*
X11287441Y-14343200D02*
X11316013Y-14343200D01*
X11316013Y-14343200D02*
X11335060Y-14352724D01*
X11335060Y-14352724D02*
X11344584Y-14371772D01*
X11344584Y-14371772D02*
X11344584Y-14476534D01*
X11344584Y-14371772D02*
X11354108Y-14352724D01*
X11354108Y-14352724D02*
X11373155Y-14343200D01*
X11373155Y-14343200D02*
X11401727Y-14343200D01*
X11401727Y-14343200D02*
X11420774Y-14352724D01*
X11420774Y-14352724D02*
X11430298Y-14371772D01*
X11430298Y-14371772D02*
X11430298Y-14476534D01*
X11525536Y-14476534D02*
X11525536Y-14343200D01*
X11525536Y-14362248D02*
X11535060Y-14352724D01*
X11535060Y-14352724D02*
X11554108Y-14343200D01*
X11554108Y-14343200D02*
X11582679Y-14343200D01*
X11582679Y-14343200D02*
X11601727Y-14352724D01*
X11601727Y-14352724D02*
X11611251Y-14371772D01*
X11611251Y-14371772D02*
X11611251Y-14476534D01*
X11611251Y-14371772D02*
X11620774Y-14352724D01*
X11620774Y-14352724D02*
X11639822Y-14343200D01*
X11639822Y-14343200D02*
X11668393Y-14343200D01*
X11668393Y-14343200D02*
X11687441Y-14352724D01*
X11687441Y-14352724D02*
X11696965Y-14371772D01*
X11696965Y-14371772D02*
X11696965Y-14476534D01*
X12087441Y-14267010D02*
X11916013Y-14524153D01*
X12344584Y-14276534D02*
X12363632Y-14276534D01*
X12363632Y-14276534D02*
X12382679Y-14286058D01*
X12382679Y-14286058D02*
X12392203Y-14295581D01*
X12392203Y-14295581D02*
X12401727Y-14314629D01*
X12401727Y-14314629D02*
X12411251Y-14352724D01*
X12411251Y-14352724D02*
X12411251Y-14400343D01*
X12411251Y-14400343D02*
X12401727Y-14438438D01*
X12401727Y-14438438D02*
X12392203Y-14457486D01*
X12392203Y-14457486D02*
X12382679Y-14467010D01*
X12382679Y-14467010D02*
X12363632Y-14476534D01*
X12363632Y-14476534D02*
X12344584Y-14476534D01*
X12344584Y-14476534D02*
X12325536Y-14467010D01*
X12325536Y-14467010D02*
X12316013Y-14457486D01*
X12316013Y-14457486D02*
X12306489Y-14438438D01*
X12306489Y-14438438D02*
X12296965Y-14400343D01*
X12296965Y-14400343D02*
X12296965Y-14352724D01*
X12296965Y-14352724D02*
X12306489Y-14314629D01*
X12306489Y-14314629D02*
X12316013Y-14295581D01*
X12316013Y-14295581D02*
X12325536Y-14286058D01*
X12325536Y-14286058D02*
X12344584Y-14276534D01*
X12496965Y-14457486D02*
X12506489Y-14467010D01*
X12506489Y-14467010D02*
X12496965Y-14476534D01*
X12496965Y-14476534D02*
X12487441Y-14467010D01*
X12487441Y-14467010D02*
X12496965Y-14457486D01*
X12496965Y-14457486D02*
X12496965Y-14476534D01*
X12630298Y-14276534D02*
X12649346Y-14276534D01*
X12649346Y-14276534D02*
X12668394Y-14286058D01*
X12668394Y-14286058D02*
X12677917Y-14295581D01*
X12677917Y-14295581D02*
X12687441Y-14314629D01*
X12687441Y-14314629D02*
X12696965Y-14352724D01*
X12696965Y-14352724D02*
X12696965Y-14400343D01*
X12696965Y-14400343D02*
X12687441Y-14438438D01*
X12687441Y-14438438D02*
X12677917Y-14457486D01*
X12677917Y-14457486D02*
X12668394Y-14467010D01*
X12668394Y-14467010D02*
X12649346Y-14476534D01*
X12649346Y-14476534D02*
X12630298Y-14476534D01*
X12630298Y-14476534D02*
X12611251Y-14467010D01*
X12611251Y-14467010D02*
X12601727Y-14457486D01*
X12601727Y-14457486D02*
X12592203Y-14438438D01*
X12592203Y-14438438D02*
X12582679Y-14400343D01*
X12582679Y-14400343D02*
X12582679Y-14352724D01*
X12582679Y-14352724D02*
X12592203Y-14314629D01*
X12592203Y-14314629D02*
X12601727Y-14295581D01*
X12601727Y-14295581D02*
X12611251Y-14286058D01*
X12611251Y-14286058D02*
X12630298Y-14276534D01*
X12763632Y-14276534D02*
X12887441Y-14276534D01*
X12887441Y-14276534D02*
X12820775Y-14352724D01*
X12820775Y-14352724D02*
X12849346Y-14352724D01*
X12849346Y-14352724D02*
X12868394Y-14362248D01*
X12868394Y-14362248D02*
X12877917Y-14371772D01*
X12877917Y-14371772D02*
X12887441Y-14390819D01*
X12887441Y-14390819D02*
X12887441Y-14438438D01*
X12887441Y-14438438D02*
X12877917Y-14457486D01*
X12877917Y-14457486D02*
X12868394Y-14467010D01*
X12868394Y-14467010D02*
X12849346Y-14476534D01*
X12849346Y-14476534D02*
X12792203Y-14476534D01*
X12792203Y-14476534D02*
X12773156Y-14467010D01*
X12773156Y-14467010D02*
X12763632Y-14457486D01*
X13077917Y-14476534D02*
X12963632Y-14476534D01*
X13020775Y-14476534D02*
X13020775Y-14276534D01*
X13020775Y-14276534D02*
X13001727Y-14305105D01*
X13001727Y-14305105D02*
X12982679Y-14324153D01*
X12982679Y-14324153D02*
X12963632Y-14333677D01*
X13258870Y-14276534D02*
X13163632Y-14276534D01*
X13163632Y-14276534D02*
X13154108Y-14371772D01*
X13154108Y-14371772D02*
X13163632Y-14362248D01*
X13163632Y-14362248D02*
X13182679Y-14352724D01*
X13182679Y-14352724D02*
X13230298Y-14352724D01*
X13230298Y-14352724D02*
X13249346Y-14362248D01*
X13249346Y-14362248D02*
X13258870Y-14371772D01*
X13258870Y-14371772D02*
X13268394Y-14390819D01*
X13268394Y-14390819D02*
X13268394Y-14438438D01*
X13268394Y-14438438D02*
X13258870Y-14457486D01*
X13258870Y-14457486D02*
X13249346Y-14467010D01*
X13249346Y-14467010D02*
X13230298Y-14476534D01*
X13230298Y-14476534D02*
X13182679Y-14476534D01*
X13182679Y-14476534D02*
X13163632Y-14467010D01*
X13163632Y-14467010D02*
X13154108Y-14457486D01*
X13344584Y-14276534D02*
X13344584Y-14314629D01*
X13420775Y-14276534D02*
X13420775Y-14314629D01*
X13716013Y-14552724D02*
X13706489Y-14543200D01*
X13706489Y-14543200D02*
X13687441Y-14514629D01*
X13687441Y-14514629D02*
X13677918Y-14495581D01*
X13677918Y-14495581D02*
X13668394Y-14467010D01*
X13668394Y-14467010D02*
X13658870Y-14419391D01*
X13658870Y-14419391D02*
X13658870Y-14381296D01*
X13658870Y-14381296D02*
X13668394Y-14333677D01*
X13668394Y-14333677D02*
X13677918Y-14305105D01*
X13677918Y-14305105D02*
X13687441Y-14286058D01*
X13687441Y-14286058D02*
X13706489Y-14257486D01*
X13706489Y-14257486D02*
X13716013Y-14247962D01*
X13887441Y-14276534D02*
X13792203Y-14276534D01*
X13792203Y-14276534D02*
X13782679Y-14371772D01*
X13782679Y-14371772D02*
X13792203Y-14362248D01*
X13792203Y-14362248D02*
X13811251Y-14352724D01*
X13811251Y-14352724D02*
X13858870Y-14352724D01*
X13858870Y-14352724D02*
X13877918Y-14362248D01*
X13877918Y-14362248D02*
X13887441Y-14371772D01*
X13887441Y-14371772D02*
X13896965Y-14390819D01*
X13896965Y-14390819D02*
X13896965Y-14438438D01*
X13896965Y-14438438D02*
X13887441Y-14457486D01*
X13887441Y-14457486D02*
X13877918Y-14467010D01*
X13877918Y-14467010D02*
X13858870Y-14476534D01*
X13858870Y-14476534D02*
X13811251Y-14476534D01*
X13811251Y-14476534D02*
X13792203Y-14467010D01*
X13792203Y-14467010D02*
X13782679Y-14457486D01*
X14011251Y-14362248D02*
X13992203Y-14352724D01*
X13992203Y-14352724D02*
X13982679Y-14343200D01*
X13982679Y-14343200D02*
X13973156Y-14324153D01*
X13973156Y-14324153D02*
X13973156Y-14314629D01*
X13973156Y-14314629D02*
X13982679Y-14295581D01*
X13982679Y-14295581D02*
X13992203Y-14286058D01*
X13992203Y-14286058D02*
X14011251Y-14276534D01*
X14011251Y-14276534D02*
X14049346Y-14276534D01*
X14049346Y-14276534D02*
X14068394Y-14286058D01*
X14068394Y-14286058D02*
X14077918Y-14295581D01*
X14077918Y-14295581D02*
X14087441Y-14314629D01*
X14087441Y-14314629D02*
X14087441Y-14324153D01*
X14087441Y-14324153D02*
X14077918Y-14343200D01*
X14077918Y-14343200D02*
X14068394Y-14352724D01*
X14068394Y-14352724D02*
X14049346Y-14362248D01*
X14049346Y-14362248D02*
X14011251Y-14362248D01*
X14011251Y-14362248D02*
X13992203Y-14371772D01*
X13992203Y-14371772D02*
X13982679Y-14381296D01*
X13982679Y-14381296D02*
X13973156Y-14400343D01*
X13973156Y-14400343D02*
X13973156Y-14438438D01*
X13973156Y-14438438D02*
X13982679Y-14457486D01*
X13982679Y-14457486D02*
X13992203Y-14467010D01*
X13992203Y-14467010D02*
X14011251Y-14476534D01*
X14011251Y-14476534D02*
X14049346Y-14476534D01*
X14049346Y-14476534D02*
X14068394Y-14467010D01*
X14068394Y-14467010D02*
X14077918Y-14457486D01*
X14077918Y-14457486D02*
X14087441Y-14438438D01*
X14087441Y-14438438D02*
X14087441Y-14400343D01*
X14087441Y-14400343D02*
X14077918Y-14381296D01*
X14077918Y-14381296D02*
X14068394Y-14371772D01*
X14068394Y-14371772D02*
X14049346Y-14362248D01*
X14325537Y-14476534D02*
X14325537Y-14276534D01*
X14411251Y-14476534D02*
X14411251Y-14371772D01*
X14411251Y-14371772D02*
X14401727Y-14352724D01*
X14401727Y-14352724D02*
X14382680Y-14343200D01*
X14382680Y-14343200D02*
X14354108Y-14343200D01*
X14354108Y-14343200D02*
X14335060Y-14352724D01*
X14335060Y-14352724D02*
X14325537Y-14362248D01*
X14535060Y-14476534D02*
X14516013Y-14467010D01*
X14516013Y-14467010D02*
X14506489Y-14457486D01*
X14506489Y-14457486D02*
X14496965Y-14438438D01*
X14496965Y-14438438D02*
X14496965Y-14381296D01*
X14496965Y-14381296D02*
X14506489Y-14362248D01*
X14506489Y-14362248D02*
X14516013Y-14352724D01*
X14516013Y-14352724D02*
X14535060Y-14343200D01*
X14535060Y-14343200D02*
X14563632Y-14343200D01*
X14563632Y-14343200D02*
X14582680Y-14352724D01*
X14582680Y-14352724D02*
X14592203Y-14362248D01*
X14592203Y-14362248D02*
X14601727Y-14381296D01*
X14601727Y-14381296D02*
X14601727Y-14438438D01*
X14601727Y-14438438D02*
X14592203Y-14457486D01*
X14592203Y-14457486D02*
X14582680Y-14467010D01*
X14582680Y-14467010D02*
X14563632Y-14476534D01*
X14563632Y-14476534D02*
X14535060Y-14476534D01*
X14716013Y-14476534D02*
X14696965Y-14467010D01*
X14696965Y-14467010D02*
X14687441Y-14447962D01*
X14687441Y-14447962D02*
X14687441Y-14276534D01*
X14868394Y-14467010D02*
X14849346Y-14476534D01*
X14849346Y-14476534D02*
X14811251Y-14476534D01*
X14811251Y-14476534D02*
X14792203Y-14467010D01*
X14792203Y-14467010D02*
X14782680Y-14447962D01*
X14782680Y-14447962D02*
X14782680Y-14371772D01*
X14782680Y-14371772D02*
X14792203Y-14352724D01*
X14792203Y-14352724D02*
X14811251Y-14343200D01*
X14811251Y-14343200D02*
X14849346Y-14343200D01*
X14849346Y-14343200D02*
X14868394Y-14352724D01*
X14868394Y-14352724D02*
X14877918Y-14371772D01*
X14877918Y-14371772D02*
X14877918Y-14390819D01*
X14877918Y-14390819D02*
X14782680Y-14409867D01*
X14954108Y-14467010D02*
X14973156Y-14476534D01*
X14973156Y-14476534D02*
X15011251Y-14476534D01*
X15011251Y-14476534D02*
X15030299Y-14467010D01*
X15030299Y-14467010D02*
X15039822Y-14447962D01*
X15039822Y-14447962D02*
X15039822Y-14438438D01*
X15039822Y-14438438D02*
X15030299Y-14419391D01*
X15030299Y-14419391D02*
X15011251Y-14409867D01*
X15011251Y-14409867D02*
X14982680Y-14409867D01*
X14982680Y-14409867D02*
X14963632Y-14400343D01*
X14963632Y-14400343D02*
X14954108Y-14381296D01*
X14954108Y-14381296D02*
X14954108Y-14371772D01*
X14954108Y-14371772D02*
X14963632Y-14352724D01*
X14963632Y-14352724D02*
X14982680Y-14343200D01*
X14982680Y-14343200D02*
X15011251Y-14343200D01*
X15011251Y-14343200D02*
X15030299Y-14352724D01*
X15106489Y-14552724D02*
X15116013Y-14543200D01*
X15116013Y-14543200D02*
X15135061Y-14514629D01*
X15135061Y-14514629D02*
X15144584Y-14495581D01*
X15144584Y-14495581D02*
X15154108Y-14467010D01*
X15154108Y-14467010D02*
X15163632Y-14419391D01*
X15163632Y-14419391D02*
X15163632Y-14381296D01*
X15163632Y-14381296D02*
X15154108Y-14333677D01*
X15154108Y-14333677D02*
X15144584Y-14305105D01*
X15144584Y-14305105D02*
X15135061Y-14286058D01*
X15135061Y-14286058D02*
X15116013Y-14257486D01*
X15116013Y-14257486D02*
X15106489Y-14247962D01*
D12*
X10100310Y-14608410D02*
X10100310Y-14689690D01*
X10059670Y-14649050D02*
X10140950Y-14649050D01*
D11*
X10439822Y-14540534D02*
X10458870Y-14540534D01*
X10458870Y-14540534D02*
X10477917Y-14550058D01*
X10477917Y-14550058D02*
X10487441Y-14559581D01*
X10487441Y-14559581D02*
X10496965Y-14578629D01*
X10496965Y-14578629D02*
X10506489Y-14616724D01*
X10506489Y-14616724D02*
X10506489Y-14664343D01*
X10506489Y-14664343D02*
X10496965Y-14702438D01*
X10496965Y-14702438D02*
X10487441Y-14721486D01*
X10487441Y-14721486D02*
X10477917Y-14731010D01*
X10477917Y-14731010D02*
X10458870Y-14740534D01*
X10458870Y-14740534D02*
X10439822Y-14740534D01*
X10439822Y-14740534D02*
X10420774Y-14731010D01*
X10420774Y-14731010D02*
X10411251Y-14721486D01*
X10411251Y-14721486D02*
X10401727Y-14702438D01*
X10401727Y-14702438D02*
X10392203Y-14664343D01*
X10392203Y-14664343D02*
X10392203Y-14616724D01*
X10392203Y-14616724D02*
X10401727Y-14578629D01*
X10401727Y-14578629D02*
X10411251Y-14559581D01*
X10411251Y-14559581D02*
X10420774Y-14550058D01*
X10420774Y-14550058D02*
X10439822Y-14540534D01*
X10592203Y-14721486D02*
X10601727Y-14731010D01*
X10601727Y-14731010D02*
X10592203Y-14740534D01*
X10592203Y-14740534D02*
X10582679Y-14731010D01*
X10582679Y-14731010D02*
X10592203Y-14721486D01*
X10592203Y-14721486D02*
X10592203Y-14740534D01*
X10716013Y-14626248D02*
X10696965Y-14616724D01*
X10696965Y-14616724D02*
X10687441Y-14607200D01*
X10687441Y-14607200D02*
X10677917Y-14588153D01*
X10677917Y-14588153D02*
X10677917Y-14578629D01*
X10677917Y-14578629D02*
X10687441Y-14559581D01*
X10687441Y-14559581D02*
X10696965Y-14550058D01*
X10696965Y-14550058D02*
X10716013Y-14540534D01*
X10716013Y-14540534D02*
X10754108Y-14540534D01*
X10754108Y-14540534D02*
X10773155Y-14550058D01*
X10773155Y-14550058D02*
X10782679Y-14559581D01*
X10782679Y-14559581D02*
X10792203Y-14578629D01*
X10792203Y-14578629D02*
X10792203Y-14588153D01*
X10792203Y-14588153D02*
X10782679Y-14607200D01*
X10782679Y-14607200D02*
X10773155Y-14616724D01*
X10773155Y-14616724D02*
X10754108Y-14626248D01*
X10754108Y-14626248D02*
X10716013Y-14626248D01*
X10716013Y-14626248D02*
X10696965Y-14635772D01*
X10696965Y-14635772D02*
X10687441Y-14645296D01*
X10687441Y-14645296D02*
X10677917Y-14664343D01*
X10677917Y-14664343D02*
X10677917Y-14702438D01*
X10677917Y-14702438D02*
X10687441Y-14721486D01*
X10687441Y-14721486D02*
X10696965Y-14731010D01*
X10696965Y-14731010D02*
X10716013Y-14740534D01*
X10716013Y-14740534D02*
X10754108Y-14740534D01*
X10754108Y-14740534D02*
X10773155Y-14731010D01*
X10773155Y-14731010D02*
X10782679Y-14721486D01*
X10782679Y-14721486D02*
X10792203Y-14702438D01*
X10792203Y-14702438D02*
X10792203Y-14664343D01*
X10792203Y-14664343D02*
X10782679Y-14645296D01*
X10782679Y-14645296D02*
X10773155Y-14635772D01*
X10773155Y-14635772D02*
X10754108Y-14626248D01*
X10982679Y-14740534D02*
X10868394Y-14740534D01*
X10925536Y-14740534D02*
X10925536Y-14540534D01*
X10925536Y-14540534D02*
X10906489Y-14569105D01*
X10906489Y-14569105D02*
X10887441Y-14588153D01*
X10887441Y-14588153D02*
X10868394Y-14597677D01*
X11049346Y-14540534D02*
X11173155Y-14540534D01*
X11173155Y-14540534D02*
X11106489Y-14616724D01*
X11106489Y-14616724D02*
X11135060Y-14616724D01*
X11135060Y-14616724D02*
X11154108Y-14626248D01*
X11154108Y-14626248D02*
X11163632Y-14635772D01*
X11163632Y-14635772D02*
X11173155Y-14654819D01*
X11173155Y-14654819D02*
X11173155Y-14702438D01*
X11173155Y-14702438D02*
X11163632Y-14721486D01*
X11163632Y-14721486D02*
X11154108Y-14731010D01*
X11154108Y-14731010D02*
X11135060Y-14740534D01*
X11135060Y-14740534D02*
X11077917Y-14740534D01*
X11077917Y-14740534D02*
X11058870Y-14731010D01*
X11058870Y-14731010D02*
X11049346Y-14721486D01*
X11258870Y-14740534D02*
X11258870Y-14607200D01*
X11258870Y-14626248D02*
X11268393Y-14616724D01*
X11268393Y-14616724D02*
X11287441Y-14607200D01*
X11287441Y-14607200D02*
X11316013Y-14607200D01*
X11316013Y-14607200D02*
X11335060Y-14616724D01*
X11335060Y-14616724D02*
X11344584Y-14635772D01*
X11344584Y-14635772D02*
X11344584Y-14740534D01*
X11344584Y-14635772D02*
X11354108Y-14616724D01*
X11354108Y-14616724D02*
X11373155Y-14607200D01*
X11373155Y-14607200D02*
X11401727Y-14607200D01*
X11401727Y-14607200D02*
X11420774Y-14616724D01*
X11420774Y-14616724D02*
X11430298Y-14635772D01*
X11430298Y-14635772D02*
X11430298Y-14740534D01*
X11525536Y-14740534D02*
X11525536Y-14607200D01*
X11525536Y-14626248D02*
X11535060Y-14616724D01*
X11535060Y-14616724D02*
X11554108Y-14607200D01*
X11554108Y-14607200D02*
X11582679Y-14607200D01*
X11582679Y-14607200D02*
X11601727Y-14616724D01*
X11601727Y-14616724D02*
X11611251Y-14635772D01*
X11611251Y-14635772D02*
X11611251Y-14740534D01*
X11611251Y-14635772D02*
X11620774Y-14616724D01*
X11620774Y-14616724D02*
X11639822Y-14607200D01*
X11639822Y-14607200D02*
X11668393Y-14607200D01*
X11668393Y-14607200D02*
X11687441Y-14616724D01*
X11687441Y-14616724D02*
X11696965Y-14635772D01*
X11696965Y-14635772D02*
X11696965Y-14740534D01*
X12087441Y-14531010D02*
X11916013Y-14788153D01*
X12344584Y-14540534D02*
X12363632Y-14540534D01*
X12363632Y-14540534D02*
X12382679Y-14550058D01*
X12382679Y-14550058D02*
X12392203Y-14559581D01*
X12392203Y-14559581D02*
X12401727Y-14578629D01*
X12401727Y-14578629D02*
X12411251Y-14616724D01*
X12411251Y-14616724D02*
X12411251Y-14664343D01*
X12411251Y-14664343D02*
X12401727Y-14702438D01*
X12401727Y-14702438D02*
X12392203Y-14721486D01*
X12392203Y-14721486D02*
X12382679Y-14731010D01*
X12382679Y-14731010D02*
X12363632Y-14740534D01*
X12363632Y-14740534D02*
X12344584Y-14740534D01*
X12344584Y-14740534D02*
X12325536Y-14731010D01*
X12325536Y-14731010D02*
X12316013Y-14721486D01*
X12316013Y-14721486D02*
X12306489Y-14702438D01*
X12306489Y-14702438D02*
X12296965Y-14664343D01*
X12296965Y-14664343D02*
X12296965Y-14616724D01*
X12296965Y-14616724D02*
X12306489Y-14578629D01*
X12306489Y-14578629D02*
X12316013Y-14559581D01*
X12316013Y-14559581D02*
X12325536Y-14550058D01*
X12325536Y-14550058D02*
X12344584Y-14540534D01*
X12496965Y-14721486D02*
X12506489Y-14731010D01*
X12506489Y-14731010D02*
X12496965Y-14740534D01*
X12496965Y-14740534D02*
X12487441Y-14731010D01*
X12487441Y-14731010D02*
X12496965Y-14721486D01*
X12496965Y-14721486D02*
X12496965Y-14740534D01*
X12630298Y-14540534D02*
X12649346Y-14540534D01*
X12649346Y-14540534D02*
X12668394Y-14550058D01*
X12668394Y-14550058D02*
X12677917Y-14559581D01*
X12677917Y-14559581D02*
X12687441Y-14578629D01*
X12687441Y-14578629D02*
X12696965Y-14616724D01*
X12696965Y-14616724D02*
X12696965Y-14664343D01*
X12696965Y-14664343D02*
X12687441Y-14702438D01*
X12687441Y-14702438D02*
X12677917Y-14721486D01*
X12677917Y-14721486D02*
X12668394Y-14731010D01*
X12668394Y-14731010D02*
X12649346Y-14740534D01*
X12649346Y-14740534D02*
X12630298Y-14740534D01*
X12630298Y-14740534D02*
X12611251Y-14731010D01*
X12611251Y-14731010D02*
X12601727Y-14721486D01*
X12601727Y-14721486D02*
X12592203Y-14702438D01*
X12592203Y-14702438D02*
X12582679Y-14664343D01*
X12582679Y-14664343D02*
X12582679Y-14616724D01*
X12582679Y-14616724D02*
X12592203Y-14578629D01*
X12592203Y-14578629D02*
X12601727Y-14559581D01*
X12601727Y-14559581D02*
X12611251Y-14550058D01*
X12611251Y-14550058D02*
X12630298Y-14540534D01*
X12763632Y-14540534D02*
X12887441Y-14540534D01*
X12887441Y-14540534D02*
X12820775Y-14616724D01*
X12820775Y-14616724D02*
X12849346Y-14616724D01*
X12849346Y-14616724D02*
X12868394Y-14626248D01*
X12868394Y-14626248D02*
X12877917Y-14635772D01*
X12877917Y-14635772D02*
X12887441Y-14654819D01*
X12887441Y-14654819D02*
X12887441Y-14702438D01*
X12887441Y-14702438D02*
X12877917Y-14721486D01*
X12877917Y-14721486D02*
X12868394Y-14731010D01*
X12868394Y-14731010D02*
X12849346Y-14740534D01*
X12849346Y-14740534D02*
X12792203Y-14740534D01*
X12792203Y-14740534D02*
X12773156Y-14731010D01*
X12773156Y-14731010D02*
X12763632Y-14721486D01*
X12963632Y-14559581D02*
X12973156Y-14550058D01*
X12973156Y-14550058D02*
X12992203Y-14540534D01*
X12992203Y-14540534D02*
X13039822Y-14540534D01*
X13039822Y-14540534D02*
X13058870Y-14550058D01*
X13058870Y-14550058D02*
X13068394Y-14559581D01*
X13068394Y-14559581D02*
X13077917Y-14578629D01*
X13077917Y-14578629D02*
X13077917Y-14597677D01*
X13077917Y-14597677D02*
X13068394Y-14626248D01*
X13068394Y-14626248D02*
X12954108Y-14740534D01*
X12954108Y-14740534D02*
X13077917Y-14740534D01*
X13201727Y-14540534D02*
X13220775Y-14540534D01*
X13220775Y-14540534D02*
X13239822Y-14550058D01*
X13239822Y-14550058D02*
X13249346Y-14559581D01*
X13249346Y-14559581D02*
X13258870Y-14578629D01*
X13258870Y-14578629D02*
X13268394Y-14616724D01*
X13268394Y-14616724D02*
X13268394Y-14664343D01*
X13268394Y-14664343D02*
X13258870Y-14702438D01*
X13258870Y-14702438D02*
X13249346Y-14721486D01*
X13249346Y-14721486D02*
X13239822Y-14731010D01*
X13239822Y-14731010D02*
X13220775Y-14740534D01*
X13220775Y-14740534D02*
X13201727Y-14740534D01*
X13201727Y-14740534D02*
X13182679Y-14731010D01*
X13182679Y-14731010D02*
X13173156Y-14721486D01*
X13173156Y-14721486D02*
X13163632Y-14702438D01*
X13163632Y-14702438D02*
X13154108Y-14664343D01*
X13154108Y-14664343D02*
X13154108Y-14616724D01*
X13154108Y-14616724D02*
X13163632Y-14578629D01*
X13163632Y-14578629D02*
X13173156Y-14559581D01*
X13173156Y-14559581D02*
X13182679Y-14550058D01*
X13182679Y-14550058D02*
X13201727Y-14540534D01*
X13344584Y-14540534D02*
X13344584Y-14578629D01*
X13420775Y-14540534D02*
X13420775Y-14578629D01*
X13716013Y-14816724D02*
X13706489Y-14807200D01*
X13706489Y-14807200D02*
X13687441Y-14778629D01*
X13687441Y-14778629D02*
X13677918Y-14759581D01*
X13677918Y-14759581D02*
X13668394Y-14731010D01*
X13668394Y-14731010D02*
X13658870Y-14683391D01*
X13658870Y-14683391D02*
X13658870Y-14645296D01*
X13658870Y-14645296D02*
X13668394Y-14597677D01*
X13668394Y-14597677D02*
X13677918Y-14569105D01*
X13677918Y-14569105D02*
X13687441Y-14550058D01*
X13687441Y-14550058D02*
X13706489Y-14521486D01*
X13706489Y-14521486D02*
X13716013Y-14511962D01*
X13773156Y-14540534D02*
X13896965Y-14540534D01*
X13896965Y-14540534D02*
X13830298Y-14616724D01*
X13830298Y-14616724D02*
X13858870Y-14616724D01*
X13858870Y-14616724D02*
X13877918Y-14626248D01*
X13877918Y-14626248D02*
X13887441Y-14635772D01*
X13887441Y-14635772D02*
X13896965Y-14654819D01*
X13896965Y-14654819D02*
X13896965Y-14702438D01*
X13896965Y-14702438D02*
X13887441Y-14721486D01*
X13887441Y-14721486D02*
X13877918Y-14731010D01*
X13877918Y-14731010D02*
X13858870Y-14740534D01*
X13858870Y-14740534D02*
X13801727Y-14740534D01*
X13801727Y-14740534D02*
X13782679Y-14731010D01*
X13782679Y-14731010D02*
X13773156Y-14721486D01*
X14068394Y-14607200D02*
X14068394Y-14740534D01*
X14020775Y-14531010D02*
X13973156Y-14673867D01*
X13973156Y-14673867D02*
X14096965Y-14673867D01*
X14325537Y-14740534D02*
X14325537Y-14540534D01*
X14411251Y-14740534D02*
X14411251Y-14635772D01*
X14411251Y-14635772D02*
X14401727Y-14616724D01*
X14401727Y-14616724D02*
X14382680Y-14607200D01*
X14382680Y-14607200D02*
X14354108Y-14607200D01*
X14354108Y-14607200D02*
X14335060Y-14616724D01*
X14335060Y-14616724D02*
X14325537Y-14626248D01*
X14535060Y-14740534D02*
X14516013Y-14731010D01*
X14516013Y-14731010D02*
X14506489Y-14721486D01*
X14506489Y-14721486D02*
X14496965Y-14702438D01*
X14496965Y-14702438D02*
X14496965Y-14645296D01*
X14496965Y-14645296D02*
X14506489Y-14626248D01*
X14506489Y-14626248D02*
X14516013Y-14616724D01*
X14516013Y-14616724D02*
X14535060Y-14607200D01*
X14535060Y-14607200D02*
X14563632Y-14607200D01*
X14563632Y-14607200D02*
X14582680Y-14616724D01*
X14582680Y-14616724D02*
X14592203Y-14626248D01*
X14592203Y-14626248D02*
X14601727Y-14645296D01*
X14601727Y-14645296D02*
X14601727Y-14702438D01*
X14601727Y-14702438D02*
X14592203Y-14721486D01*
X14592203Y-14721486D02*
X14582680Y-14731010D01*
X14582680Y-14731010D02*
X14563632Y-14740534D01*
X14563632Y-14740534D02*
X14535060Y-14740534D01*
X14716013Y-14740534D02*
X14696965Y-14731010D01*
X14696965Y-14731010D02*
X14687441Y-14711962D01*
X14687441Y-14711962D02*
X14687441Y-14540534D01*
X14868394Y-14731010D02*
X14849346Y-14740534D01*
X14849346Y-14740534D02*
X14811251Y-14740534D01*
X14811251Y-14740534D02*
X14792203Y-14731010D01*
X14792203Y-14731010D02*
X14782680Y-14711962D01*
X14782680Y-14711962D02*
X14782680Y-14635772D01*
X14782680Y-14635772D02*
X14792203Y-14616724D01*
X14792203Y-14616724D02*
X14811251Y-14607200D01*
X14811251Y-14607200D02*
X14849346Y-14607200D01*
X14849346Y-14607200D02*
X14868394Y-14616724D01*
X14868394Y-14616724D02*
X14877918Y-14635772D01*
X14877918Y-14635772D02*
X14877918Y-14654819D01*
X14877918Y-14654819D02*
X14782680Y-14673867D01*
X14954108Y-14731010D02*
X14973156Y-14740534D01*
X14973156Y-14740534D02*
X15011251Y-14740534D01*
X15011251Y-14740534D02*
X15030299Y-14731010D01*
X15030299Y-14731010D02*
X15039822Y-14711962D01*
X15039822Y-14711962D02*
X15039822Y-14702438D01*
X15039822Y-14702438D02*
X15030299Y-14683391D01*
X15030299Y-14683391D02*
X15011251Y-14673867D01*
X15011251Y-14673867D02*
X14982680Y-14673867D01*
X14982680Y-14673867D02*
X14963632Y-14664343D01*
X14963632Y-14664343D02*
X14954108Y-14645296D01*
X14954108Y-14645296D02*
X14954108Y-14635772D01*
X14954108Y-14635772D02*
X14963632Y-14616724D01*
X14963632Y-14616724D02*
X14982680Y-14607200D01*
X14982680Y-14607200D02*
X15011251Y-14607200D01*
X15011251Y-14607200D02*
X15030299Y-14616724D01*
X15106489Y-14816724D02*
X15116013Y-14807200D01*
X15116013Y-14807200D02*
X15135061Y-14778629D01*
X15135061Y-14778629D02*
X15144584Y-14759581D01*
X15144584Y-14759581D02*
X15154108Y-14731010D01*
X15154108Y-14731010D02*
X15163632Y-14683391D01*
X15163632Y-14683391D02*
X15163632Y-14645296D01*
X15163632Y-14645296D02*
X15154108Y-14597677D01*
X15154108Y-14597677D02*
X15144584Y-14569105D01*
X15144584Y-14569105D02*
X15135061Y-14550058D01*
X15135061Y-14550058D02*
X15116013Y-14521486D01*
X15116013Y-14521486D02*
X15106489Y-14511962D01*
D12*
X10127917Y-14944517D02*
X10127917Y-14881583D01*
X10064983Y-14881583D01*
X10064983Y-14944517D01*
X10127917Y-14944517D01*
D11*
X10439822Y-14804534D02*
X10458870Y-14804534D01*
X10458870Y-14804534D02*
X10477917Y-14814058D01*
X10477917Y-14814058D02*
X10487441Y-14823581D01*
X10487441Y-14823581D02*
X10496965Y-14842629D01*
X10496965Y-14842629D02*
X10506489Y-14880724D01*
X10506489Y-14880724D02*
X10506489Y-14928343D01*
X10506489Y-14928343D02*
X10496965Y-14966438D01*
X10496965Y-14966438D02*
X10487441Y-14985486D01*
X10487441Y-14985486D02*
X10477917Y-14995010D01*
X10477917Y-14995010D02*
X10458870Y-15004534D01*
X10458870Y-15004534D02*
X10439822Y-15004534D01*
X10439822Y-15004534D02*
X10420774Y-14995010D01*
X10420774Y-14995010D02*
X10411251Y-14985486D01*
X10411251Y-14985486D02*
X10401727Y-14966438D01*
X10401727Y-14966438D02*
X10392203Y-14928343D01*
X10392203Y-14928343D02*
X10392203Y-14880724D01*
X10392203Y-14880724D02*
X10401727Y-14842629D01*
X10401727Y-14842629D02*
X10411251Y-14823581D01*
X10411251Y-14823581D02*
X10420774Y-14814058D01*
X10420774Y-14814058D02*
X10439822Y-14804534D01*
X10592203Y-14985486D02*
X10601727Y-14995010D01*
X10601727Y-14995010D02*
X10592203Y-15004534D01*
X10592203Y-15004534D02*
X10582679Y-14995010D01*
X10582679Y-14995010D02*
X10592203Y-14985486D01*
X10592203Y-14985486D02*
X10592203Y-15004534D01*
X10716013Y-14890248D02*
X10696965Y-14880724D01*
X10696965Y-14880724D02*
X10687441Y-14871200D01*
X10687441Y-14871200D02*
X10677917Y-14852153D01*
X10677917Y-14852153D02*
X10677917Y-14842629D01*
X10677917Y-14842629D02*
X10687441Y-14823581D01*
X10687441Y-14823581D02*
X10696965Y-14814058D01*
X10696965Y-14814058D02*
X10716013Y-14804534D01*
X10716013Y-14804534D02*
X10754108Y-14804534D01*
X10754108Y-14804534D02*
X10773155Y-14814058D01*
X10773155Y-14814058D02*
X10782679Y-14823581D01*
X10782679Y-14823581D02*
X10792203Y-14842629D01*
X10792203Y-14842629D02*
X10792203Y-14852153D01*
X10792203Y-14852153D02*
X10782679Y-14871200D01*
X10782679Y-14871200D02*
X10773155Y-14880724D01*
X10773155Y-14880724D02*
X10754108Y-14890248D01*
X10754108Y-14890248D02*
X10716013Y-14890248D01*
X10716013Y-14890248D02*
X10696965Y-14899772D01*
X10696965Y-14899772D02*
X10687441Y-14909296D01*
X10687441Y-14909296D02*
X10677917Y-14928343D01*
X10677917Y-14928343D02*
X10677917Y-14966438D01*
X10677917Y-14966438D02*
X10687441Y-14985486D01*
X10687441Y-14985486D02*
X10696965Y-14995010D01*
X10696965Y-14995010D02*
X10716013Y-15004534D01*
X10716013Y-15004534D02*
X10754108Y-15004534D01*
X10754108Y-15004534D02*
X10773155Y-14995010D01*
X10773155Y-14995010D02*
X10782679Y-14985486D01*
X10782679Y-14985486D02*
X10792203Y-14966438D01*
X10792203Y-14966438D02*
X10792203Y-14928343D01*
X10792203Y-14928343D02*
X10782679Y-14909296D01*
X10782679Y-14909296D02*
X10773155Y-14899772D01*
X10773155Y-14899772D02*
X10754108Y-14890248D01*
X10887441Y-15004534D02*
X10925536Y-15004534D01*
X10925536Y-15004534D02*
X10944584Y-14995010D01*
X10944584Y-14995010D02*
X10954108Y-14985486D01*
X10954108Y-14985486D02*
X10973155Y-14956915D01*
X10973155Y-14956915D02*
X10982679Y-14918819D01*
X10982679Y-14918819D02*
X10982679Y-14842629D01*
X10982679Y-14842629D02*
X10973155Y-14823581D01*
X10973155Y-14823581D02*
X10963632Y-14814058D01*
X10963632Y-14814058D02*
X10944584Y-14804534D01*
X10944584Y-14804534D02*
X10906489Y-14804534D01*
X10906489Y-14804534D02*
X10887441Y-14814058D01*
X10887441Y-14814058D02*
X10877917Y-14823581D01*
X10877917Y-14823581D02*
X10868394Y-14842629D01*
X10868394Y-14842629D02*
X10868394Y-14890248D01*
X10868394Y-14890248D02*
X10877917Y-14909296D01*
X10877917Y-14909296D02*
X10887441Y-14918819D01*
X10887441Y-14918819D02*
X10906489Y-14928343D01*
X10906489Y-14928343D02*
X10944584Y-14928343D01*
X10944584Y-14928343D02*
X10963632Y-14918819D01*
X10963632Y-14918819D02*
X10973155Y-14909296D01*
X10973155Y-14909296D02*
X10982679Y-14890248D01*
X11106489Y-14804534D02*
X11125536Y-14804534D01*
X11125536Y-14804534D02*
X11144584Y-14814058D01*
X11144584Y-14814058D02*
X11154108Y-14823581D01*
X11154108Y-14823581D02*
X11163632Y-14842629D01*
X11163632Y-14842629D02*
X11173155Y-14880724D01*
X11173155Y-14880724D02*
X11173155Y-14928343D01*
X11173155Y-14928343D02*
X11163632Y-14966438D01*
X11163632Y-14966438D02*
X11154108Y-14985486D01*
X11154108Y-14985486D02*
X11144584Y-14995010D01*
X11144584Y-14995010D02*
X11125536Y-15004534D01*
X11125536Y-15004534D02*
X11106489Y-15004534D01*
X11106489Y-15004534D02*
X11087441Y-14995010D01*
X11087441Y-14995010D02*
X11077917Y-14985486D01*
X11077917Y-14985486D02*
X11068394Y-14966438D01*
X11068394Y-14966438D02*
X11058870Y-14928343D01*
X11058870Y-14928343D02*
X11058870Y-14880724D01*
X11058870Y-14880724D02*
X11068394Y-14842629D01*
X11068394Y-14842629D02*
X11077917Y-14823581D01*
X11077917Y-14823581D02*
X11087441Y-14814058D01*
X11087441Y-14814058D02*
X11106489Y-14804534D01*
X11258870Y-15004534D02*
X11258870Y-14871200D01*
X11258870Y-14890248D02*
X11268393Y-14880724D01*
X11268393Y-14880724D02*
X11287441Y-14871200D01*
X11287441Y-14871200D02*
X11316013Y-14871200D01*
X11316013Y-14871200D02*
X11335060Y-14880724D01*
X11335060Y-14880724D02*
X11344584Y-14899772D01*
X11344584Y-14899772D02*
X11344584Y-15004534D01*
X11344584Y-14899772D02*
X11354108Y-14880724D01*
X11354108Y-14880724D02*
X11373155Y-14871200D01*
X11373155Y-14871200D02*
X11401727Y-14871200D01*
X11401727Y-14871200D02*
X11420774Y-14880724D01*
X11420774Y-14880724D02*
X11430298Y-14899772D01*
X11430298Y-14899772D02*
X11430298Y-15004534D01*
X11525536Y-15004534D02*
X11525536Y-14871200D01*
X11525536Y-14890248D02*
X11535060Y-14880724D01*
X11535060Y-14880724D02*
X11554108Y-14871200D01*
X11554108Y-14871200D02*
X11582679Y-14871200D01*
X11582679Y-14871200D02*
X11601727Y-14880724D01*
X11601727Y-14880724D02*
X11611251Y-14899772D01*
X11611251Y-14899772D02*
X11611251Y-15004534D01*
X11611251Y-14899772D02*
X11620774Y-14880724D01*
X11620774Y-14880724D02*
X11639822Y-14871200D01*
X11639822Y-14871200D02*
X11668393Y-14871200D01*
X11668393Y-14871200D02*
X11687441Y-14880724D01*
X11687441Y-14880724D02*
X11696965Y-14899772D01*
X11696965Y-14899772D02*
X11696965Y-15004534D01*
X12087441Y-14795010D02*
X11916013Y-15052153D01*
X12344584Y-14804534D02*
X12363632Y-14804534D01*
X12363632Y-14804534D02*
X12382679Y-14814058D01*
X12382679Y-14814058D02*
X12392203Y-14823581D01*
X12392203Y-14823581D02*
X12401727Y-14842629D01*
X12401727Y-14842629D02*
X12411251Y-14880724D01*
X12411251Y-14880724D02*
X12411251Y-14928343D01*
X12411251Y-14928343D02*
X12401727Y-14966438D01*
X12401727Y-14966438D02*
X12392203Y-14985486D01*
X12392203Y-14985486D02*
X12382679Y-14995010D01*
X12382679Y-14995010D02*
X12363632Y-15004534D01*
X12363632Y-15004534D02*
X12344584Y-15004534D01*
X12344584Y-15004534D02*
X12325536Y-14995010D01*
X12325536Y-14995010D02*
X12316013Y-14985486D01*
X12316013Y-14985486D02*
X12306489Y-14966438D01*
X12306489Y-14966438D02*
X12296965Y-14928343D01*
X12296965Y-14928343D02*
X12296965Y-14880724D01*
X12296965Y-14880724D02*
X12306489Y-14842629D01*
X12306489Y-14842629D02*
X12316013Y-14823581D01*
X12316013Y-14823581D02*
X12325536Y-14814058D01*
X12325536Y-14814058D02*
X12344584Y-14804534D01*
X12496965Y-14985486D02*
X12506489Y-14995010D01*
X12506489Y-14995010D02*
X12496965Y-15004534D01*
X12496965Y-15004534D02*
X12487441Y-14995010D01*
X12487441Y-14995010D02*
X12496965Y-14985486D01*
X12496965Y-14985486D02*
X12496965Y-15004534D01*
X12630298Y-14804534D02*
X12649346Y-14804534D01*
X12649346Y-14804534D02*
X12668394Y-14814058D01*
X12668394Y-14814058D02*
X12677917Y-14823581D01*
X12677917Y-14823581D02*
X12687441Y-14842629D01*
X12687441Y-14842629D02*
X12696965Y-14880724D01*
X12696965Y-14880724D02*
X12696965Y-14928343D01*
X12696965Y-14928343D02*
X12687441Y-14966438D01*
X12687441Y-14966438D02*
X12677917Y-14985486D01*
X12677917Y-14985486D02*
X12668394Y-14995010D01*
X12668394Y-14995010D02*
X12649346Y-15004534D01*
X12649346Y-15004534D02*
X12630298Y-15004534D01*
X12630298Y-15004534D02*
X12611251Y-14995010D01*
X12611251Y-14995010D02*
X12601727Y-14985486D01*
X12601727Y-14985486D02*
X12592203Y-14966438D01*
X12592203Y-14966438D02*
X12582679Y-14928343D01*
X12582679Y-14928343D02*
X12582679Y-14880724D01*
X12582679Y-14880724D02*
X12592203Y-14842629D01*
X12592203Y-14842629D02*
X12601727Y-14823581D01*
X12601727Y-14823581D02*
X12611251Y-14814058D01*
X12611251Y-14814058D02*
X12630298Y-14804534D01*
X12763632Y-14804534D02*
X12887441Y-14804534D01*
X12887441Y-14804534D02*
X12820775Y-14880724D01*
X12820775Y-14880724D02*
X12849346Y-14880724D01*
X12849346Y-14880724D02*
X12868394Y-14890248D01*
X12868394Y-14890248D02*
X12877917Y-14899772D01*
X12877917Y-14899772D02*
X12887441Y-14918819D01*
X12887441Y-14918819D02*
X12887441Y-14966438D01*
X12887441Y-14966438D02*
X12877917Y-14985486D01*
X12877917Y-14985486D02*
X12868394Y-14995010D01*
X12868394Y-14995010D02*
X12849346Y-15004534D01*
X12849346Y-15004534D02*
X12792203Y-15004534D01*
X12792203Y-15004534D02*
X12773156Y-14995010D01*
X12773156Y-14995010D02*
X12763632Y-14985486D01*
X13068394Y-14804534D02*
X12973156Y-14804534D01*
X12973156Y-14804534D02*
X12963632Y-14899772D01*
X12963632Y-14899772D02*
X12973156Y-14890248D01*
X12973156Y-14890248D02*
X12992203Y-14880724D01*
X12992203Y-14880724D02*
X13039822Y-14880724D01*
X13039822Y-14880724D02*
X13058870Y-14890248D01*
X13058870Y-14890248D02*
X13068394Y-14899772D01*
X13068394Y-14899772D02*
X13077917Y-14918819D01*
X13077917Y-14918819D02*
X13077917Y-14966438D01*
X13077917Y-14966438D02*
X13068394Y-14985486D01*
X13068394Y-14985486D02*
X13058870Y-14995010D01*
X13058870Y-14995010D02*
X13039822Y-15004534D01*
X13039822Y-15004534D02*
X12992203Y-15004534D01*
X12992203Y-15004534D02*
X12973156Y-14995010D01*
X12973156Y-14995010D02*
X12963632Y-14985486D01*
X13201727Y-14804534D02*
X13220775Y-14804534D01*
X13220775Y-14804534D02*
X13239822Y-14814058D01*
X13239822Y-14814058D02*
X13249346Y-14823581D01*
X13249346Y-14823581D02*
X13258870Y-14842629D01*
X13258870Y-14842629D02*
X13268394Y-14880724D01*
X13268394Y-14880724D02*
X13268394Y-14928343D01*
X13268394Y-14928343D02*
X13258870Y-14966438D01*
X13258870Y-14966438D02*
X13249346Y-14985486D01*
X13249346Y-14985486D02*
X13239822Y-14995010D01*
X13239822Y-14995010D02*
X13220775Y-15004534D01*
X13220775Y-15004534D02*
X13201727Y-15004534D01*
X13201727Y-15004534D02*
X13182679Y-14995010D01*
X13182679Y-14995010D02*
X13173156Y-14985486D01*
X13173156Y-14985486D02*
X13163632Y-14966438D01*
X13163632Y-14966438D02*
X13154108Y-14928343D01*
X13154108Y-14928343D02*
X13154108Y-14880724D01*
X13154108Y-14880724D02*
X13163632Y-14842629D01*
X13163632Y-14842629D02*
X13173156Y-14823581D01*
X13173156Y-14823581D02*
X13182679Y-14814058D01*
X13182679Y-14814058D02*
X13201727Y-14804534D01*
X13344584Y-14804534D02*
X13344584Y-14842629D01*
X13420775Y-14804534D02*
X13420775Y-14842629D01*
X13716013Y-15080724D02*
X13706489Y-15071200D01*
X13706489Y-15071200D02*
X13687441Y-15042629D01*
X13687441Y-15042629D02*
X13677918Y-15023581D01*
X13677918Y-15023581D02*
X13668394Y-14995010D01*
X13668394Y-14995010D02*
X13658870Y-14947391D01*
X13658870Y-14947391D02*
X13658870Y-14909296D01*
X13658870Y-14909296D02*
X13668394Y-14861677D01*
X13668394Y-14861677D02*
X13677918Y-14833105D01*
X13677918Y-14833105D02*
X13687441Y-14814058D01*
X13687441Y-14814058D02*
X13706489Y-14785486D01*
X13706489Y-14785486D02*
X13716013Y-14775962D01*
X13877918Y-14871200D02*
X13877918Y-15004534D01*
X13830298Y-14795010D02*
X13782679Y-14937867D01*
X13782679Y-14937867D02*
X13906489Y-14937867D01*
X14135060Y-15004534D02*
X14135060Y-14804534D01*
X14220775Y-15004534D02*
X14220775Y-14899772D01*
X14220775Y-14899772D02*
X14211251Y-14880724D01*
X14211251Y-14880724D02*
X14192203Y-14871200D01*
X14192203Y-14871200D02*
X14163632Y-14871200D01*
X14163632Y-14871200D02*
X14144584Y-14880724D01*
X14144584Y-14880724D02*
X14135060Y-14890248D01*
X14344584Y-15004534D02*
X14325537Y-14995010D01*
X14325537Y-14995010D02*
X14316013Y-14985486D01*
X14316013Y-14985486D02*
X14306489Y-14966438D01*
X14306489Y-14966438D02*
X14306489Y-14909296D01*
X14306489Y-14909296D02*
X14316013Y-14890248D01*
X14316013Y-14890248D02*
X14325537Y-14880724D01*
X14325537Y-14880724D02*
X14344584Y-14871200D01*
X14344584Y-14871200D02*
X14373156Y-14871200D01*
X14373156Y-14871200D02*
X14392203Y-14880724D01*
X14392203Y-14880724D02*
X14401727Y-14890248D01*
X14401727Y-14890248D02*
X14411251Y-14909296D01*
X14411251Y-14909296D02*
X14411251Y-14966438D01*
X14411251Y-14966438D02*
X14401727Y-14985486D01*
X14401727Y-14985486D02*
X14392203Y-14995010D01*
X14392203Y-14995010D02*
X14373156Y-15004534D01*
X14373156Y-15004534D02*
X14344584Y-15004534D01*
X14525537Y-15004534D02*
X14506489Y-14995010D01*
X14506489Y-14995010D02*
X14496965Y-14975962D01*
X14496965Y-14975962D02*
X14496965Y-14804534D01*
X14677918Y-14995010D02*
X14658870Y-15004534D01*
X14658870Y-15004534D02*
X14620775Y-15004534D01*
X14620775Y-15004534D02*
X14601727Y-14995010D01*
X14601727Y-14995010D02*
X14592203Y-14975962D01*
X14592203Y-14975962D02*
X14592203Y-14899772D01*
X14592203Y-14899772D02*
X14601727Y-14880724D01*
X14601727Y-14880724D02*
X14620775Y-14871200D01*
X14620775Y-14871200D02*
X14658870Y-14871200D01*
X14658870Y-14871200D02*
X14677918Y-14880724D01*
X14677918Y-14880724D02*
X14687441Y-14899772D01*
X14687441Y-14899772D02*
X14687441Y-14918819D01*
X14687441Y-14918819D02*
X14592203Y-14937867D01*
X14763632Y-14995010D02*
X14782680Y-15004534D01*
X14782680Y-15004534D02*
X14820775Y-15004534D01*
X14820775Y-15004534D02*
X14839822Y-14995010D01*
X14839822Y-14995010D02*
X14849346Y-14975962D01*
X14849346Y-14975962D02*
X14849346Y-14966438D01*
X14849346Y-14966438D02*
X14839822Y-14947391D01*
X14839822Y-14947391D02*
X14820775Y-14937867D01*
X14820775Y-14937867D02*
X14792203Y-14937867D01*
X14792203Y-14937867D02*
X14773156Y-14928343D01*
X14773156Y-14928343D02*
X14763632Y-14909296D01*
X14763632Y-14909296D02*
X14763632Y-14899772D01*
X14763632Y-14899772D02*
X14773156Y-14880724D01*
X14773156Y-14880724D02*
X14792203Y-14871200D01*
X14792203Y-14871200D02*
X14820775Y-14871200D01*
X14820775Y-14871200D02*
X14839822Y-14880724D01*
X14916013Y-15080724D02*
X14925537Y-15071200D01*
X14925537Y-15071200D02*
X14944584Y-15042629D01*
X14944584Y-15042629D02*
X14954108Y-15023581D01*
X14954108Y-15023581D02*
X14963632Y-14995010D01*
X14963632Y-14995010D02*
X14973156Y-14947391D01*
X14973156Y-14947391D02*
X14973156Y-14909296D01*
X14973156Y-14909296D02*
X14963632Y-14861677D01*
X14963632Y-14861677D02*
X14954108Y-14833105D01*
X14954108Y-14833105D02*
X14944584Y-14814058D01*
X14944584Y-14814058D02*
X14925537Y-14785486D01*
X14925537Y-14785486D02*
X14916013Y-14775962D01*
D12*
X10095950Y-15222050D02*
X10140950Y-15177050D01*
X10095950Y-15132050D01*
X10050950Y-15177050D01*
X10095950Y-15222050D01*
D11*
X10439822Y-15068534D02*
X10458870Y-15068534D01*
X10458870Y-15068534D02*
X10477917Y-15078058D01*
X10477917Y-15078058D02*
X10487441Y-15087581D01*
X10487441Y-15087581D02*
X10496965Y-15106629D01*
X10496965Y-15106629D02*
X10506489Y-15144724D01*
X10506489Y-15144724D02*
X10506489Y-15192343D01*
X10506489Y-15192343D02*
X10496965Y-15230438D01*
X10496965Y-15230438D02*
X10487441Y-15249486D01*
X10487441Y-15249486D02*
X10477917Y-15259010D01*
X10477917Y-15259010D02*
X10458870Y-15268534D01*
X10458870Y-15268534D02*
X10439822Y-15268534D01*
X10439822Y-15268534D02*
X10420774Y-15259010D01*
X10420774Y-15259010D02*
X10411251Y-15249486D01*
X10411251Y-15249486D02*
X10401727Y-15230438D01*
X10401727Y-15230438D02*
X10392203Y-15192343D01*
X10392203Y-15192343D02*
X10392203Y-15144724D01*
X10392203Y-15144724D02*
X10401727Y-15106629D01*
X10401727Y-15106629D02*
X10411251Y-15087581D01*
X10411251Y-15087581D02*
X10420774Y-15078058D01*
X10420774Y-15078058D02*
X10439822Y-15068534D01*
X10592203Y-15249486D02*
X10601727Y-15259010D01*
X10601727Y-15259010D02*
X10592203Y-15268534D01*
X10592203Y-15268534D02*
X10582679Y-15259010D01*
X10582679Y-15259010D02*
X10592203Y-15249486D01*
X10592203Y-15249486D02*
X10592203Y-15268534D01*
X10696965Y-15268534D02*
X10735060Y-15268534D01*
X10735060Y-15268534D02*
X10754108Y-15259010D01*
X10754108Y-15259010D02*
X10763632Y-15249486D01*
X10763632Y-15249486D02*
X10782679Y-15220915D01*
X10782679Y-15220915D02*
X10792203Y-15182819D01*
X10792203Y-15182819D02*
X10792203Y-15106629D01*
X10792203Y-15106629D02*
X10782679Y-15087581D01*
X10782679Y-15087581D02*
X10773155Y-15078058D01*
X10773155Y-15078058D02*
X10754108Y-15068534D01*
X10754108Y-15068534D02*
X10716013Y-15068534D01*
X10716013Y-15068534D02*
X10696965Y-15078058D01*
X10696965Y-15078058D02*
X10687441Y-15087581D01*
X10687441Y-15087581D02*
X10677917Y-15106629D01*
X10677917Y-15106629D02*
X10677917Y-15154248D01*
X10677917Y-15154248D02*
X10687441Y-15173296D01*
X10687441Y-15173296D02*
X10696965Y-15182819D01*
X10696965Y-15182819D02*
X10716013Y-15192343D01*
X10716013Y-15192343D02*
X10754108Y-15192343D01*
X10754108Y-15192343D02*
X10773155Y-15182819D01*
X10773155Y-15182819D02*
X10782679Y-15173296D01*
X10782679Y-15173296D02*
X10792203Y-15154248D01*
X10916013Y-15068534D02*
X10935060Y-15068534D01*
X10935060Y-15068534D02*
X10954108Y-15078058D01*
X10954108Y-15078058D02*
X10963632Y-15087581D01*
X10963632Y-15087581D02*
X10973155Y-15106629D01*
X10973155Y-15106629D02*
X10982679Y-15144724D01*
X10982679Y-15144724D02*
X10982679Y-15192343D01*
X10982679Y-15192343D02*
X10973155Y-15230438D01*
X10973155Y-15230438D02*
X10963632Y-15249486D01*
X10963632Y-15249486D02*
X10954108Y-15259010D01*
X10954108Y-15259010D02*
X10935060Y-15268534D01*
X10935060Y-15268534D02*
X10916013Y-15268534D01*
X10916013Y-15268534D02*
X10896965Y-15259010D01*
X10896965Y-15259010D02*
X10887441Y-15249486D01*
X10887441Y-15249486D02*
X10877917Y-15230438D01*
X10877917Y-15230438D02*
X10868394Y-15192343D01*
X10868394Y-15192343D02*
X10868394Y-15144724D01*
X10868394Y-15144724D02*
X10877917Y-15106629D01*
X10877917Y-15106629D02*
X10887441Y-15087581D01*
X10887441Y-15087581D02*
X10896965Y-15078058D01*
X10896965Y-15078058D02*
X10916013Y-15068534D01*
X11106489Y-15068534D02*
X11125536Y-15068534D01*
X11125536Y-15068534D02*
X11144584Y-15078058D01*
X11144584Y-15078058D02*
X11154108Y-15087581D01*
X11154108Y-15087581D02*
X11163632Y-15106629D01*
X11163632Y-15106629D02*
X11173155Y-15144724D01*
X11173155Y-15144724D02*
X11173155Y-15192343D01*
X11173155Y-15192343D02*
X11163632Y-15230438D01*
X11163632Y-15230438D02*
X11154108Y-15249486D01*
X11154108Y-15249486D02*
X11144584Y-15259010D01*
X11144584Y-15259010D02*
X11125536Y-15268534D01*
X11125536Y-15268534D02*
X11106489Y-15268534D01*
X11106489Y-15268534D02*
X11087441Y-15259010D01*
X11087441Y-15259010D02*
X11077917Y-15249486D01*
X11077917Y-15249486D02*
X11068394Y-15230438D01*
X11068394Y-15230438D02*
X11058870Y-15192343D01*
X11058870Y-15192343D02*
X11058870Y-15144724D01*
X11058870Y-15144724D02*
X11068394Y-15106629D01*
X11068394Y-15106629D02*
X11077917Y-15087581D01*
X11077917Y-15087581D02*
X11087441Y-15078058D01*
X11087441Y-15078058D02*
X11106489Y-15068534D01*
X11258870Y-15268534D02*
X11258870Y-15135200D01*
X11258870Y-15154248D02*
X11268393Y-15144724D01*
X11268393Y-15144724D02*
X11287441Y-15135200D01*
X11287441Y-15135200D02*
X11316013Y-15135200D01*
X11316013Y-15135200D02*
X11335060Y-15144724D01*
X11335060Y-15144724D02*
X11344584Y-15163772D01*
X11344584Y-15163772D02*
X11344584Y-15268534D01*
X11344584Y-15163772D02*
X11354108Y-15144724D01*
X11354108Y-15144724D02*
X11373155Y-15135200D01*
X11373155Y-15135200D02*
X11401727Y-15135200D01*
X11401727Y-15135200D02*
X11420774Y-15144724D01*
X11420774Y-15144724D02*
X11430298Y-15163772D01*
X11430298Y-15163772D02*
X11430298Y-15268534D01*
X11525536Y-15268534D02*
X11525536Y-15135200D01*
X11525536Y-15154248D02*
X11535060Y-15144724D01*
X11535060Y-15144724D02*
X11554108Y-15135200D01*
X11554108Y-15135200D02*
X11582679Y-15135200D01*
X11582679Y-15135200D02*
X11601727Y-15144724D01*
X11601727Y-15144724D02*
X11611251Y-15163772D01*
X11611251Y-15163772D02*
X11611251Y-15268534D01*
X11611251Y-15163772D02*
X11620774Y-15144724D01*
X11620774Y-15144724D02*
X11639822Y-15135200D01*
X11639822Y-15135200D02*
X11668393Y-15135200D01*
X11668393Y-15135200D02*
X11687441Y-15144724D01*
X11687441Y-15144724D02*
X11696965Y-15163772D01*
X11696965Y-15163772D02*
X11696965Y-15268534D01*
X12087441Y-15059010D02*
X11916013Y-15316153D01*
X12344584Y-15068534D02*
X12363632Y-15068534D01*
X12363632Y-15068534D02*
X12382679Y-15078058D01*
X12382679Y-15078058D02*
X12392203Y-15087581D01*
X12392203Y-15087581D02*
X12401727Y-15106629D01*
X12401727Y-15106629D02*
X12411251Y-15144724D01*
X12411251Y-15144724D02*
X12411251Y-15192343D01*
X12411251Y-15192343D02*
X12401727Y-15230438D01*
X12401727Y-15230438D02*
X12392203Y-15249486D01*
X12392203Y-15249486D02*
X12382679Y-15259010D01*
X12382679Y-15259010D02*
X12363632Y-15268534D01*
X12363632Y-15268534D02*
X12344584Y-15268534D01*
X12344584Y-15268534D02*
X12325536Y-15259010D01*
X12325536Y-15259010D02*
X12316013Y-15249486D01*
X12316013Y-15249486D02*
X12306489Y-15230438D01*
X12306489Y-15230438D02*
X12296965Y-15192343D01*
X12296965Y-15192343D02*
X12296965Y-15144724D01*
X12296965Y-15144724D02*
X12306489Y-15106629D01*
X12306489Y-15106629D02*
X12316013Y-15087581D01*
X12316013Y-15087581D02*
X12325536Y-15078058D01*
X12325536Y-15078058D02*
X12344584Y-15068534D01*
X12496965Y-15249486D02*
X12506489Y-15259010D01*
X12506489Y-15259010D02*
X12496965Y-15268534D01*
X12496965Y-15268534D02*
X12487441Y-15259010D01*
X12487441Y-15259010D02*
X12496965Y-15249486D01*
X12496965Y-15249486D02*
X12496965Y-15268534D01*
X12630298Y-15068534D02*
X12649346Y-15068534D01*
X12649346Y-15068534D02*
X12668394Y-15078058D01*
X12668394Y-15078058D02*
X12677917Y-15087581D01*
X12677917Y-15087581D02*
X12687441Y-15106629D01*
X12687441Y-15106629D02*
X12696965Y-15144724D01*
X12696965Y-15144724D02*
X12696965Y-15192343D01*
X12696965Y-15192343D02*
X12687441Y-15230438D01*
X12687441Y-15230438D02*
X12677917Y-15249486D01*
X12677917Y-15249486D02*
X12668394Y-15259010D01*
X12668394Y-15259010D02*
X12649346Y-15268534D01*
X12649346Y-15268534D02*
X12630298Y-15268534D01*
X12630298Y-15268534D02*
X12611251Y-15259010D01*
X12611251Y-15259010D02*
X12601727Y-15249486D01*
X12601727Y-15249486D02*
X12592203Y-15230438D01*
X12592203Y-15230438D02*
X12582679Y-15192343D01*
X12582679Y-15192343D02*
X12582679Y-15144724D01*
X12582679Y-15144724D02*
X12592203Y-15106629D01*
X12592203Y-15106629D02*
X12601727Y-15087581D01*
X12601727Y-15087581D02*
X12611251Y-15078058D01*
X12611251Y-15078058D02*
X12630298Y-15068534D01*
X12763632Y-15068534D02*
X12887441Y-15068534D01*
X12887441Y-15068534D02*
X12820775Y-15144724D01*
X12820775Y-15144724D02*
X12849346Y-15144724D01*
X12849346Y-15144724D02*
X12868394Y-15154248D01*
X12868394Y-15154248D02*
X12877917Y-15163772D01*
X12877917Y-15163772D02*
X12887441Y-15182819D01*
X12887441Y-15182819D02*
X12887441Y-15230438D01*
X12887441Y-15230438D02*
X12877917Y-15249486D01*
X12877917Y-15249486D02*
X12868394Y-15259010D01*
X12868394Y-15259010D02*
X12849346Y-15268534D01*
X12849346Y-15268534D02*
X12792203Y-15268534D01*
X12792203Y-15268534D02*
X12773156Y-15259010D01*
X12773156Y-15259010D02*
X12763632Y-15249486D01*
X13068394Y-15068534D02*
X12973156Y-15068534D01*
X12973156Y-15068534D02*
X12963632Y-15163772D01*
X12963632Y-15163772D02*
X12973156Y-15154248D01*
X12973156Y-15154248D02*
X12992203Y-15144724D01*
X12992203Y-15144724D02*
X13039822Y-15144724D01*
X13039822Y-15144724D02*
X13058870Y-15154248D01*
X13058870Y-15154248D02*
X13068394Y-15163772D01*
X13068394Y-15163772D02*
X13077917Y-15182819D01*
X13077917Y-15182819D02*
X13077917Y-15230438D01*
X13077917Y-15230438D02*
X13068394Y-15249486D01*
X13068394Y-15249486D02*
X13058870Y-15259010D01*
X13058870Y-15259010D02*
X13039822Y-15268534D01*
X13039822Y-15268534D02*
X12992203Y-15268534D01*
X12992203Y-15268534D02*
X12973156Y-15259010D01*
X12973156Y-15259010D02*
X12963632Y-15249486D01*
X13249346Y-15135200D02*
X13249346Y-15268534D01*
X13201727Y-15059010D02*
X13154108Y-15201867D01*
X13154108Y-15201867D02*
X13277917Y-15201867D01*
X13344584Y-15068534D02*
X13344584Y-15106629D01*
X13420775Y-15068534D02*
X13420775Y-15106629D01*
X13716013Y-15344724D02*
X13706489Y-15335200D01*
X13706489Y-15335200D02*
X13687441Y-15306629D01*
X13687441Y-15306629D02*
X13677918Y-15287581D01*
X13677918Y-15287581D02*
X13668394Y-15259010D01*
X13668394Y-15259010D02*
X13658870Y-15211391D01*
X13658870Y-15211391D02*
X13658870Y-15173296D01*
X13658870Y-15173296D02*
X13668394Y-15125677D01*
X13668394Y-15125677D02*
X13677918Y-15097105D01*
X13677918Y-15097105D02*
X13687441Y-15078058D01*
X13687441Y-15078058D02*
X13706489Y-15049486D01*
X13706489Y-15049486D02*
X13716013Y-15039962D01*
X13820775Y-15154248D02*
X13801727Y-15144724D01*
X13801727Y-15144724D02*
X13792203Y-15135200D01*
X13792203Y-15135200D02*
X13782679Y-15116153D01*
X13782679Y-15116153D02*
X13782679Y-15106629D01*
X13782679Y-15106629D02*
X13792203Y-15087581D01*
X13792203Y-15087581D02*
X13801727Y-15078058D01*
X13801727Y-15078058D02*
X13820775Y-15068534D01*
X13820775Y-15068534D02*
X13858870Y-15068534D01*
X13858870Y-15068534D02*
X13877918Y-15078058D01*
X13877918Y-15078058D02*
X13887441Y-15087581D01*
X13887441Y-15087581D02*
X13896965Y-15106629D01*
X13896965Y-15106629D02*
X13896965Y-15116153D01*
X13896965Y-15116153D02*
X13887441Y-15135200D01*
X13887441Y-15135200D02*
X13877918Y-15144724D01*
X13877918Y-15144724D02*
X13858870Y-15154248D01*
X13858870Y-15154248D02*
X13820775Y-15154248D01*
X13820775Y-15154248D02*
X13801727Y-15163772D01*
X13801727Y-15163772D02*
X13792203Y-15173296D01*
X13792203Y-15173296D02*
X13782679Y-15192343D01*
X13782679Y-15192343D02*
X13782679Y-15230438D01*
X13782679Y-15230438D02*
X13792203Y-15249486D01*
X13792203Y-15249486D02*
X13801727Y-15259010D01*
X13801727Y-15259010D02*
X13820775Y-15268534D01*
X13820775Y-15268534D02*
X13858870Y-15268534D01*
X13858870Y-15268534D02*
X13877918Y-15259010D01*
X13877918Y-15259010D02*
X13887441Y-15249486D01*
X13887441Y-15249486D02*
X13896965Y-15230438D01*
X13896965Y-15230438D02*
X13896965Y-15192343D01*
X13896965Y-15192343D02*
X13887441Y-15173296D01*
X13887441Y-15173296D02*
X13877918Y-15163772D01*
X13877918Y-15163772D02*
X13858870Y-15154248D01*
X14135060Y-15268534D02*
X14135060Y-15068534D01*
X14220775Y-15268534D02*
X14220775Y-15163772D01*
X14220775Y-15163772D02*
X14211251Y-15144724D01*
X14211251Y-15144724D02*
X14192203Y-15135200D01*
X14192203Y-15135200D02*
X14163632Y-15135200D01*
X14163632Y-15135200D02*
X14144584Y-15144724D01*
X14144584Y-15144724D02*
X14135060Y-15154248D01*
X14344584Y-15268534D02*
X14325537Y-15259010D01*
X14325537Y-15259010D02*
X14316013Y-15249486D01*
X14316013Y-15249486D02*
X14306489Y-15230438D01*
X14306489Y-15230438D02*
X14306489Y-15173296D01*
X14306489Y-15173296D02*
X14316013Y-15154248D01*
X14316013Y-15154248D02*
X14325537Y-15144724D01*
X14325537Y-15144724D02*
X14344584Y-15135200D01*
X14344584Y-15135200D02*
X14373156Y-15135200D01*
X14373156Y-15135200D02*
X14392203Y-15144724D01*
X14392203Y-15144724D02*
X14401727Y-15154248D01*
X14401727Y-15154248D02*
X14411251Y-15173296D01*
X14411251Y-15173296D02*
X14411251Y-15230438D01*
X14411251Y-15230438D02*
X14401727Y-15249486D01*
X14401727Y-15249486D02*
X14392203Y-15259010D01*
X14392203Y-15259010D02*
X14373156Y-15268534D01*
X14373156Y-15268534D02*
X14344584Y-15268534D01*
X14525537Y-15268534D02*
X14506489Y-15259010D01*
X14506489Y-15259010D02*
X14496965Y-15239962D01*
X14496965Y-15239962D02*
X14496965Y-15068534D01*
X14677918Y-15259010D02*
X14658870Y-15268534D01*
X14658870Y-15268534D02*
X14620775Y-15268534D01*
X14620775Y-15268534D02*
X14601727Y-15259010D01*
X14601727Y-15259010D02*
X14592203Y-15239962D01*
X14592203Y-15239962D02*
X14592203Y-15163772D01*
X14592203Y-15163772D02*
X14601727Y-15144724D01*
X14601727Y-15144724D02*
X14620775Y-15135200D01*
X14620775Y-15135200D02*
X14658870Y-15135200D01*
X14658870Y-15135200D02*
X14677918Y-15144724D01*
X14677918Y-15144724D02*
X14687441Y-15163772D01*
X14687441Y-15163772D02*
X14687441Y-15182819D01*
X14687441Y-15182819D02*
X14592203Y-15201867D01*
X14763632Y-15259010D02*
X14782680Y-15268534D01*
X14782680Y-15268534D02*
X14820775Y-15268534D01*
X14820775Y-15268534D02*
X14839822Y-15259010D01*
X14839822Y-15259010D02*
X14849346Y-15239962D01*
X14849346Y-15239962D02*
X14849346Y-15230438D01*
X14849346Y-15230438D02*
X14839822Y-15211391D01*
X14839822Y-15211391D02*
X14820775Y-15201867D01*
X14820775Y-15201867D02*
X14792203Y-15201867D01*
X14792203Y-15201867D02*
X14773156Y-15192343D01*
X14773156Y-15192343D02*
X14763632Y-15173296D01*
X14763632Y-15173296D02*
X14763632Y-15163772D01*
X14763632Y-15163772D02*
X14773156Y-15144724D01*
X14773156Y-15144724D02*
X14792203Y-15135200D01*
X14792203Y-15135200D02*
X14820775Y-15135200D01*
X14820775Y-15135200D02*
X14839822Y-15144724D01*
X14916013Y-15344724D02*
X14925537Y-15335200D01*
X14925537Y-15335200D02*
X14944584Y-15306629D01*
X14944584Y-15306629D02*
X14954108Y-15287581D01*
X14954108Y-15287581D02*
X14963632Y-15259010D01*
X14963632Y-15259010D02*
X14973156Y-15211391D01*
X14973156Y-15211391D02*
X14973156Y-15173296D01*
X14973156Y-15173296D02*
X14963632Y-15125677D01*
X14963632Y-15125677D02*
X14954108Y-15097105D01*
X14954108Y-15097105D02*
X14944584Y-15078058D01*
X14944584Y-15078058D02*
X14925537Y-15049486D01*
X14925537Y-15049486D02*
X14916013Y-15039962D01*
D12*
X10040950Y-15391050D02*
X10140950Y-15491050D01*
X10140950Y-15391050D02*
X10040950Y-15491050D01*
X10140950Y-15441050D02*
G75*
G03*
X10040950Y-15441050I-50000J0D01*
G01*
X10040950Y-15441050D02*
G75*
G03*
X10140950Y-15441050I50000J0D01*
G01*
D11*
X10506489Y-15532534D02*
X10392203Y-15532534D01*
X10449346Y-15532534D02*
X10449346Y-15332534D01*
X10449346Y-15332534D02*
X10430298Y-15361105D01*
X10430298Y-15361105D02*
X10411251Y-15380153D01*
X10411251Y-15380153D02*
X10392203Y-15389677D01*
X10592203Y-15513486D02*
X10601727Y-15523010D01*
X10601727Y-15523010D02*
X10592203Y-15532534D01*
X10592203Y-15532534D02*
X10582679Y-15523010D01*
X10582679Y-15523010D02*
X10592203Y-15513486D01*
X10592203Y-15513486D02*
X10592203Y-15532534D01*
X10725536Y-15332534D02*
X10744584Y-15332534D01*
X10744584Y-15332534D02*
X10763632Y-15342058D01*
X10763632Y-15342058D02*
X10773155Y-15351581D01*
X10773155Y-15351581D02*
X10782679Y-15370629D01*
X10782679Y-15370629D02*
X10792203Y-15408724D01*
X10792203Y-15408724D02*
X10792203Y-15456343D01*
X10792203Y-15456343D02*
X10782679Y-15494438D01*
X10782679Y-15494438D02*
X10773155Y-15513486D01*
X10773155Y-15513486D02*
X10763632Y-15523010D01*
X10763632Y-15523010D02*
X10744584Y-15532534D01*
X10744584Y-15532534D02*
X10725536Y-15532534D01*
X10725536Y-15532534D02*
X10706489Y-15523010D01*
X10706489Y-15523010D02*
X10696965Y-15513486D01*
X10696965Y-15513486D02*
X10687441Y-15494438D01*
X10687441Y-15494438D02*
X10677917Y-15456343D01*
X10677917Y-15456343D02*
X10677917Y-15408724D01*
X10677917Y-15408724D02*
X10687441Y-15370629D01*
X10687441Y-15370629D02*
X10696965Y-15351581D01*
X10696965Y-15351581D02*
X10706489Y-15342058D01*
X10706489Y-15342058D02*
X10725536Y-15332534D01*
X10916013Y-15332534D02*
X10935060Y-15332534D01*
X10935060Y-15332534D02*
X10954108Y-15342058D01*
X10954108Y-15342058D02*
X10963632Y-15351581D01*
X10963632Y-15351581D02*
X10973155Y-15370629D01*
X10973155Y-15370629D02*
X10982679Y-15408724D01*
X10982679Y-15408724D02*
X10982679Y-15456343D01*
X10982679Y-15456343D02*
X10973155Y-15494438D01*
X10973155Y-15494438D02*
X10963632Y-15513486D01*
X10963632Y-15513486D02*
X10954108Y-15523010D01*
X10954108Y-15523010D02*
X10935060Y-15532534D01*
X10935060Y-15532534D02*
X10916013Y-15532534D01*
X10916013Y-15532534D02*
X10896965Y-15523010D01*
X10896965Y-15523010D02*
X10887441Y-15513486D01*
X10887441Y-15513486D02*
X10877917Y-15494438D01*
X10877917Y-15494438D02*
X10868394Y-15456343D01*
X10868394Y-15456343D02*
X10868394Y-15408724D01*
X10868394Y-15408724D02*
X10877917Y-15370629D01*
X10877917Y-15370629D02*
X10887441Y-15351581D01*
X10887441Y-15351581D02*
X10896965Y-15342058D01*
X10896965Y-15342058D02*
X10916013Y-15332534D01*
X11106489Y-15332534D02*
X11125536Y-15332534D01*
X11125536Y-15332534D02*
X11144584Y-15342058D01*
X11144584Y-15342058D02*
X11154108Y-15351581D01*
X11154108Y-15351581D02*
X11163632Y-15370629D01*
X11163632Y-15370629D02*
X11173155Y-15408724D01*
X11173155Y-15408724D02*
X11173155Y-15456343D01*
X11173155Y-15456343D02*
X11163632Y-15494438D01*
X11163632Y-15494438D02*
X11154108Y-15513486D01*
X11154108Y-15513486D02*
X11144584Y-15523010D01*
X11144584Y-15523010D02*
X11125536Y-15532534D01*
X11125536Y-15532534D02*
X11106489Y-15532534D01*
X11106489Y-15532534D02*
X11087441Y-15523010D01*
X11087441Y-15523010D02*
X11077917Y-15513486D01*
X11077917Y-15513486D02*
X11068394Y-15494438D01*
X11068394Y-15494438D02*
X11058870Y-15456343D01*
X11058870Y-15456343D02*
X11058870Y-15408724D01*
X11058870Y-15408724D02*
X11068394Y-15370629D01*
X11068394Y-15370629D02*
X11077917Y-15351581D01*
X11077917Y-15351581D02*
X11087441Y-15342058D01*
X11087441Y-15342058D02*
X11106489Y-15332534D01*
X11258870Y-15532534D02*
X11258870Y-15399200D01*
X11258870Y-15418248D02*
X11268393Y-15408724D01*
X11268393Y-15408724D02*
X11287441Y-15399200D01*
X11287441Y-15399200D02*
X11316013Y-15399200D01*
X11316013Y-15399200D02*
X11335060Y-15408724D01*
X11335060Y-15408724D02*
X11344584Y-15427772D01*
X11344584Y-15427772D02*
X11344584Y-15532534D01*
X11344584Y-15427772D02*
X11354108Y-15408724D01*
X11354108Y-15408724D02*
X11373155Y-15399200D01*
X11373155Y-15399200D02*
X11401727Y-15399200D01*
X11401727Y-15399200D02*
X11420774Y-15408724D01*
X11420774Y-15408724D02*
X11430298Y-15427772D01*
X11430298Y-15427772D02*
X11430298Y-15532534D01*
X11525536Y-15532534D02*
X11525536Y-15399200D01*
X11525536Y-15418248D02*
X11535060Y-15408724D01*
X11535060Y-15408724D02*
X11554108Y-15399200D01*
X11554108Y-15399200D02*
X11582679Y-15399200D01*
X11582679Y-15399200D02*
X11601727Y-15408724D01*
X11601727Y-15408724D02*
X11611251Y-15427772D01*
X11611251Y-15427772D02*
X11611251Y-15532534D01*
X11611251Y-15427772D02*
X11620774Y-15408724D01*
X11620774Y-15408724D02*
X11639822Y-15399200D01*
X11639822Y-15399200D02*
X11668393Y-15399200D01*
X11668393Y-15399200D02*
X11687441Y-15408724D01*
X11687441Y-15408724D02*
X11696965Y-15427772D01*
X11696965Y-15427772D02*
X11696965Y-15532534D01*
X12087441Y-15323010D02*
X11916013Y-15580153D01*
X12344584Y-15332534D02*
X12363632Y-15332534D01*
X12363632Y-15332534D02*
X12382679Y-15342058D01*
X12382679Y-15342058D02*
X12392203Y-15351581D01*
X12392203Y-15351581D02*
X12401727Y-15370629D01*
X12401727Y-15370629D02*
X12411251Y-15408724D01*
X12411251Y-15408724D02*
X12411251Y-15456343D01*
X12411251Y-15456343D02*
X12401727Y-15494438D01*
X12401727Y-15494438D02*
X12392203Y-15513486D01*
X12392203Y-15513486D02*
X12382679Y-15523010D01*
X12382679Y-15523010D02*
X12363632Y-15532534D01*
X12363632Y-15532534D02*
X12344584Y-15532534D01*
X12344584Y-15532534D02*
X12325536Y-15523010D01*
X12325536Y-15523010D02*
X12316013Y-15513486D01*
X12316013Y-15513486D02*
X12306489Y-15494438D01*
X12306489Y-15494438D02*
X12296965Y-15456343D01*
X12296965Y-15456343D02*
X12296965Y-15408724D01*
X12296965Y-15408724D02*
X12306489Y-15370629D01*
X12306489Y-15370629D02*
X12316013Y-15351581D01*
X12316013Y-15351581D02*
X12325536Y-15342058D01*
X12325536Y-15342058D02*
X12344584Y-15332534D01*
X12496965Y-15513486D02*
X12506489Y-15523010D01*
X12506489Y-15523010D02*
X12496965Y-15532534D01*
X12496965Y-15532534D02*
X12487441Y-15523010D01*
X12487441Y-15523010D02*
X12496965Y-15513486D01*
X12496965Y-15513486D02*
X12496965Y-15532534D01*
X12630298Y-15332534D02*
X12649346Y-15332534D01*
X12649346Y-15332534D02*
X12668394Y-15342058D01*
X12668394Y-15342058D02*
X12677917Y-15351581D01*
X12677917Y-15351581D02*
X12687441Y-15370629D01*
X12687441Y-15370629D02*
X12696965Y-15408724D01*
X12696965Y-15408724D02*
X12696965Y-15456343D01*
X12696965Y-15456343D02*
X12687441Y-15494438D01*
X12687441Y-15494438D02*
X12677917Y-15513486D01*
X12677917Y-15513486D02*
X12668394Y-15523010D01*
X12668394Y-15523010D02*
X12649346Y-15532534D01*
X12649346Y-15532534D02*
X12630298Y-15532534D01*
X12630298Y-15532534D02*
X12611251Y-15523010D01*
X12611251Y-15523010D02*
X12601727Y-15513486D01*
X12601727Y-15513486D02*
X12592203Y-15494438D01*
X12592203Y-15494438D02*
X12582679Y-15456343D01*
X12582679Y-15456343D02*
X12582679Y-15408724D01*
X12582679Y-15408724D02*
X12592203Y-15370629D01*
X12592203Y-15370629D02*
X12601727Y-15351581D01*
X12601727Y-15351581D02*
X12611251Y-15342058D01*
X12611251Y-15342058D02*
X12630298Y-15332534D01*
X12763632Y-15332534D02*
X12887441Y-15332534D01*
X12887441Y-15332534D02*
X12820775Y-15408724D01*
X12820775Y-15408724D02*
X12849346Y-15408724D01*
X12849346Y-15408724D02*
X12868394Y-15418248D01*
X12868394Y-15418248D02*
X12877917Y-15427772D01*
X12877917Y-15427772D02*
X12887441Y-15446819D01*
X12887441Y-15446819D02*
X12887441Y-15494438D01*
X12887441Y-15494438D02*
X12877917Y-15513486D01*
X12877917Y-15513486D02*
X12868394Y-15523010D01*
X12868394Y-15523010D02*
X12849346Y-15532534D01*
X12849346Y-15532534D02*
X12792203Y-15532534D01*
X12792203Y-15532534D02*
X12773156Y-15523010D01*
X12773156Y-15523010D02*
X12763632Y-15513486D01*
X12982679Y-15532534D02*
X13020775Y-15532534D01*
X13020775Y-15532534D02*
X13039822Y-15523010D01*
X13039822Y-15523010D02*
X13049346Y-15513486D01*
X13049346Y-15513486D02*
X13068394Y-15484915D01*
X13068394Y-15484915D02*
X13077917Y-15446819D01*
X13077917Y-15446819D02*
X13077917Y-15370629D01*
X13077917Y-15370629D02*
X13068394Y-15351581D01*
X13068394Y-15351581D02*
X13058870Y-15342058D01*
X13058870Y-15342058D02*
X13039822Y-15332534D01*
X13039822Y-15332534D02*
X13001727Y-15332534D01*
X13001727Y-15332534D02*
X12982679Y-15342058D01*
X12982679Y-15342058D02*
X12973156Y-15351581D01*
X12973156Y-15351581D02*
X12963632Y-15370629D01*
X12963632Y-15370629D02*
X12963632Y-15418248D01*
X12963632Y-15418248D02*
X12973156Y-15437296D01*
X12973156Y-15437296D02*
X12982679Y-15446819D01*
X12982679Y-15446819D02*
X13001727Y-15456343D01*
X13001727Y-15456343D02*
X13039822Y-15456343D01*
X13039822Y-15456343D02*
X13058870Y-15446819D01*
X13058870Y-15446819D02*
X13068394Y-15437296D01*
X13068394Y-15437296D02*
X13077917Y-15418248D01*
X13249346Y-15399200D02*
X13249346Y-15532534D01*
X13201727Y-15323010D02*
X13154108Y-15465867D01*
X13154108Y-15465867D02*
X13277917Y-15465867D01*
X13344584Y-15332534D02*
X13344584Y-15370629D01*
X13420775Y-15332534D02*
X13420775Y-15370629D01*
X13716013Y-15608724D02*
X13706489Y-15599200D01*
X13706489Y-15599200D02*
X13687441Y-15570629D01*
X13687441Y-15570629D02*
X13677918Y-15551581D01*
X13677918Y-15551581D02*
X13668394Y-15523010D01*
X13668394Y-15523010D02*
X13658870Y-15475391D01*
X13658870Y-15475391D02*
X13658870Y-15437296D01*
X13658870Y-15437296D02*
X13668394Y-15389677D01*
X13668394Y-15389677D02*
X13677918Y-15361105D01*
X13677918Y-15361105D02*
X13687441Y-15342058D01*
X13687441Y-15342058D02*
X13706489Y-15313486D01*
X13706489Y-15313486D02*
X13716013Y-15303962D01*
X13782679Y-15351581D02*
X13792203Y-15342058D01*
X13792203Y-15342058D02*
X13811251Y-15332534D01*
X13811251Y-15332534D02*
X13858870Y-15332534D01*
X13858870Y-15332534D02*
X13877918Y-15342058D01*
X13877918Y-15342058D02*
X13887441Y-15351581D01*
X13887441Y-15351581D02*
X13896965Y-15370629D01*
X13896965Y-15370629D02*
X13896965Y-15389677D01*
X13896965Y-15389677D02*
X13887441Y-15418248D01*
X13887441Y-15418248D02*
X13773156Y-15532534D01*
X13773156Y-15532534D02*
X13896965Y-15532534D01*
X14068394Y-15332534D02*
X14030298Y-15332534D01*
X14030298Y-15332534D02*
X14011251Y-15342058D01*
X14011251Y-15342058D02*
X14001727Y-15351581D01*
X14001727Y-15351581D02*
X13982679Y-15380153D01*
X13982679Y-15380153D02*
X13973156Y-15418248D01*
X13973156Y-15418248D02*
X13973156Y-15494438D01*
X13973156Y-15494438D02*
X13982679Y-15513486D01*
X13982679Y-15513486D02*
X13992203Y-15523010D01*
X13992203Y-15523010D02*
X14011251Y-15532534D01*
X14011251Y-15532534D02*
X14049346Y-15532534D01*
X14049346Y-15532534D02*
X14068394Y-15523010D01*
X14068394Y-15523010D02*
X14077918Y-15513486D01*
X14077918Y-15513486D02*
X14087441Y-15494438D01*
X14087441Y-15494438D02*
X14087441Y-15446819D01*
X14087441Y-15446819D02*
X14077918Y-15427772D01*
X14077918Y-15427772D02*
X14068394Y-15418248D01*
X14068394Y-15418248D02*
X14049346Y-15408724D01*
X14049346Y-15408724D02*
X14011251Y-15408724D01*
X14011251Y-15408724D02*
X13992203Y-15418248D01*
X13992203Y-15418248D02*
X13982679Y-15427772D01*
X13982679Y-15427772D02*
X13973156Y-15446819D01*
X14325537Y-15532534D02*
X14325537Y-15332534D01*
X14411251Y-15532534D02*
X14411251Y-15427772D01*
X14411251Y-15427772D02*
X14401727Y-15408724D01*
X14401727Y-15408724D02*
X14382680Y-15399200D01*
X14382680Y-15399200D02*
X14354108Y-15399200D01*
X14354108Y-15399200D02*
X14335060Y-15408724D01*
X14335060Y-15408724D02*
X14325537Y-15418248D01*
X14535060Y-15532534D02*
X14516013Y-15523010D01*
X14516013Y-15523010D02*
X14506489Y-15513486D01*
X14506489Y-15513486D02*
X14496965Y-15494438D01*
X14496965Y-15494438D02*
X14496965Y-15437296D01*
X14496965Y-15437296D02*
X14506489Y-15418248D01*
X14506489Y-15418248D02*
X14516013Y-15408724D01*
X14516013Y-15408724D02*
X14535060Y-15399200D01*
X14535060Y-15399200D02*
X14563632Y-15399200D01*
X14563632Y-15399200D02*
X14582680Y-15408724D01*
X14582680Y-15408724D02*
X14592203Y-15418248D01*
X14592203Y-15418248D02*
X14601727Y-15437296D01*
X14601727Y-15437296D02*
X14601727Y-15494438D01*
X14601727Y-15494438D02*
X14592203Y-15513486D01*
X14592203Y-15513486D02*
X14582680Y-15523010D01*
X14582680Y-15523010D02*
X14563632Y-15532534D01*
X14563632Y-15532534D02*
X14535060Y-15532534D01*
X14716013Y-15532534D02*
X14696965Y-15523010D01*
X14696965Y-15523010D02*
X14687441Y-15503962D01*
X14687441Y-15503962D02*
X14687441Y-15332534D01*
X14868394Y-15523010D02*
X14849346Y-15532534D01*
X14849346Y-15532534D02*
X14811251Y-15532534D01*
X14811251Y-15532534D02*
X14792203Y-15523010D01*
X14792203Y-15523010D02*
X14782680Y-15503962D01*
X14782680Y-15503962D02*
X14782680Y-15427772D01*
X14782680Y-15427772D02*
X14792203Y-15408724D01*
X14792203Y-15408724D02*
X14811251Y-15399200D01*
X14811251Y-15399200D02*
X14849346Y-15399200D01*
X14849346Y-15399200D02*
X14868394Y-15408724D01*
X14868394Y-15408724D02*
X14877918Y-15427772D01*
X14877918Y-15427772D02*
X14877918Y-15446819D01*
X14877918Y-15446819D02*
X14782680Y-15465867D01*
X14954108Y-15523010D02*
X14973156Y-15532534D01*
X14973156Y-15532534D02*
X15011251Y-15532534D01*
X15011251Y-15532534D02*
X15030299Y-15523010D01*
X15030299Y-15523010D02*
X15039822Y-15503962D01*
X15039822Y-15503962D02*
X15039822Y-15494438D01*
X15039822Y-15494438D02*
X15030299Y-15475391D01*
X15030299Y-15475391D02*
X15011251Y-15465867D01*
X15011251Y-15465867D02*
X14982680Y-15465867D01*
X14982680Y-15465867D02*
X14963632Y-15456343D01*
X14963632Y-15456343D02*
X14954108Y-15437296D01*
X14954108Y-15437296D02*
X14954108Y-15427772D01*
X14954108Y-15427772D02*
X14963632Y-15408724D01*
X14963632Y-15408724D02*
X14982680Y-15399200D01*
X14982680Y-15399200D02*
X15011251Y-15399200D01*
X15011251Y-15399200D02*
X15030299Y-15408724D01*
X15106489Y-15608724D02*
X15116013Y-15599200D01*
X15116013Y-15599200D02*
X15135061Y-15570629D01*
X15135061Y-15570629D02*
X15144584Y-15551581D01*
X15144584Y-15551581D02*
X15154108Y-15523010D01*
X15154108Y-15523010D02*
X15163632Y-15475391D01*
X15163632Y-15475391D02*
X15163632Y-15437296D01*
X15163632Y-15437296D02*
X15154108Y-15389677D01*
X15154108Y-15389677D02*
X15144584Y-15361105D01*
X15144584Y-15361105D02*
X15135061Y-15342058D01*
X15135061Y-15342058D02*
X15116013Y-15313486D01*
X15116013Y-15313486D02*
X15106489Y-15303962D01*
D13*
X9980950Y-15625050D02*
X10140950Y-15785050D01*
X10140950Y-15625050D02*
X9980950Y-15785050D01*
X10060950Y-15625050D02*
X10060950Y-15785050D01*
X9980950Y-15705050D02*
X10140950Y-15705050D01*
D11*
X10506489Y-15796534D02*
X10392203Y-15796534D01*
X10449346Y-15796534D02*
X10449346Y-15596534D01*
X10449346Y-15596534D02*
X10430298Y-15625105D01*
X10430298Y-15625105D02*
X10411251Y-15644153D01*
X10411251Y-15644153D02*
X10392203Y-15653677D01*
X10592203Y-15777486D02*
X10601727Y-15787010D01*
X10601727Y-15787010D02*
X10592203Y-15796534D01*
X10592203Y-15796534D02*
X10582679Y-15787010D01*
X10582679Y-15787010D02*
X10592203Y-15777486D01*
X10592203Y-15777486D02*
X10592203Y-15796534D01*
X10773155Y-15596534D02*
X10735060Y-15596534D01*
X10735060Y-15596534D02*
X10716013Y-15606058D01*
X10716013Y-15606058D02*
X10706489Y-15615581D01*
X10706489Y-15615581D02*
X10687441Y-15644153D01*
X10687441Y-15644153D02*
X10677917Y-15682248D01*
X10677917Y-15682248D02*
X10677917Y-15758438D01*
X10677917Y-15758438D02*
X10687441Y-15777486D01*
X10687441Y-15777486D02*
X10696965Y-15787010D01*
X10696965Y-15787010D02*
X10716013Y-15796534D01*
X10716013Y-15796534D02*
X10754108Y-15796534D01*
X10754108Y-15796534D02*
X10773155Y-15787010D01*
X10773155Y-15787010D02*
X10782679Y-15777486D01*
X10782679Y-15777486D02*
X10792203Y-15758438D01*
X10792203Y-15758438D02*
X10792203Y-15710819D01*
X10792203Y-15710819D02*
X10782679Y-15691772D01*
X10782679Y-15691772D02*
X10773155Y-15682248D01*
X10773155Y-15682248D02*
X10754108Y-15672724D01*
X10754108Y-15672724D02*
X10716013Y-15672724D01*
X10716013Y-15672724D02*
X10696965Y-15682248D01*
X10696965Y-15682248D02*
X10687441Y-15691772D01*
X10687441Y-15691772D02*
X10677917Y-15710819D01*
X10916013Y-15596534D02*
X10935060Y-15596534D01*
X10935060Y-15596534D02*
X10954108Y-15606058D01*
X10954108Y-15606058D02*
X10963632Y-15615581D01*
X10963632Y-15615581D02*
X10973155Y-15634629D01*
X10973155Y-15634629D02*
X10982679Y-15672724D01*
X10982679Y-15672724D02*
X10982679Y-15720343D01*
X10982679Y-15720343D02*
X10973155Y-15758438D01*
X10973155Y-15758438D02*
X10963632Y-15777486D01*
X10963632Y-15777486D02*
X10954108Y-15787010D01*
X10954108Y-15787010D02*
X10935060Y-15796534D01*
X10935060Y-15796534D02*
X10916013Y-15796534D01*
X10916013Y-15796534D02*
X10896965Y-15787010D01*
X10896965Y-15787010D02*
X10887441Y-15777486D01*
X10887441Y-15777486D02*
X10877917Y-15758438D01*
X10877917Y-15758438D02*
X10868394Y-15720343D01*
X10868394Y-15720343D02*
X10868394Y-15672724D01*
X10868394Y-15672724D02*
X10877917Y-15634629D01*
X10877917Y-15634629D02*
X10887441Y-15615581D01*
X10887441Y-15615581D02*
X10896965Y-15606058D01*
X10896965Y-15606058D02*
X10916013Y-15596534D01*
X11106489Y-15596534D02*
X11125536Y-15596534D01*
X11125536Y-15596534D02*
X11144584Y-15606058D01*
X11144584Y-15606058D02*
X11154108Y-15615581D01*
X11154108Y-15615581D02*
X11163632Y-15634629D01*
X11163632Y-15634629D02*
X11173155Y-15672724D01*
X11173155Y-15672724D02*
X11173155Y-15720343D01*
X11173155Y-15720343D02*
X11163632Y-15758438D01*
X11163632Y-15758438D02*
X11154108Y-15777486D01*
X11154108Y-15777486D02*
X11144584Y-15787010D01*
X11144584Y-15787010D02*
X11125536Y-15796534D01*
X11125536Y-15796534D02*
X11106489Y-15796534D01*
X11106489Y-15796534D02*
X11087441Y-15787010D01*
X11087441Y-15787010D02*
X11077917Y-15777486D01*
X11077917Y-15777486D02*
X11068394Y-15758438D01*
X11068394Y-15758438D02*
X11058870Y-15720343D01*
X11058870Y-15720343D02*
X11058870Y-15672724D01*
X11058870Y-15672724D02*
X11068394Y-15634629D01*
X11068394Y-15634629D02*
X11077917Y-15615581D01*
X11077917Y-15615581D02*
X11087441Y-15606058D01*
X11087441Y-15606058D02*
X11106489Y-15596534D01*
X11258870Y-15796534D02*
X11258870Y-15663200D01*
X11258870Y-15682248D02*
X11268393Y-15672724D01*
X11268393Y-15672724D02*
X11287441Y-15663200D01*
X11287441Y-15663200D02*
X11316013Y-15663200D01*
X11316013Y-15663200D02*
X11335060Y-15672724D01*
X11335060Y-15672724D02*
X11344584Y-15691772D01*
X11344584Y-15691772D02*
X11344584Y-15796534D01*
X11344584Y-15691772D02*
X11354108Y-15672724D01*
X11354108Y-15672724D02*
X11373155Y-15663200D01*
X11373155Y-15663200D02*
X11401727Y-15663200D01*
X11401727Y-15663200D02*
X11420774Y-15672724D01*
X11420774Y-15672724D02*
X11430298Y-15691772D01*
X11430298Y-15691772D02*
X11430298Y-15796534D01*
X11525536Y-15796534D02*
X11525536Y-15663200D01*
X11525536Y-15682248D02*
X11535060Y-15672724D01*
X11535060Y-15672724D02*
X11554108Y-15663200D01*
X11554108Y-15663200D02*
X11582679Y-15663200D01*
X11582679Y-15663200D02*
X11601727Y-15672724D01*
X11601727Y-15672724D02*
X11611251Y-15691772D01*
X11611251Y-15691772D02*
X11611251Y-15796534D01*
X11611251Y-15691772D02*
X11620774Y-15672724D01*
X11620774Y-15672724D02*
X11639822Y-15663200D01*
X11639822Y-15663200D02*
X11668393Y-15663200D01*
X11668393Y-15663200D02*
X11687441Y-15672724D01*
X11687441Y-15672724D02*
X11696965Y-15691772D01*
X11696965Y-15691772D02*
X11696965Y-15796534D01*
X12087441Y-15587010D02*
X11916013Y-15844153D01*
X12344584Y-15596534D02*
X12363632Y-15596534D01*
X12363632Y-15596534D02*
X12382679Y-15606058D01*
X12382679Y-15606058D02*
X12392203Y-15615581D01*
X12392203Y-15615581D02*
X12401727Y-15634629D01*
X12401727Y-15634629D02*
X12411251Y-15672724D01*
X12411251Y-15672724D02*
X12411251Y-15720343D01*
X12411251Y-15720343D02*
X12401727Y-15758438D01*
X12401727Y-15758438D02*
X12392203Y-15777486D01*
X12392203Y-15777486D02*
X12382679Y-15787010D01*
X12382679Y-15787010D02*
X12363632Y-15796534D01*
X12363632Y-15796534D02*
X12344584Y-15796534D01*
X12344584Y-15796534D02*
X12325536Y-15787010D01*
X12325536Y-15787010D02*
X12316013Y-15777486D01*
X12316013Y-15777486D02*
X12306489Y-15758438D01*
X12306489Y-15758438D02*
X12296965Y-15720343D01*
X12296965Y-15720343D02*
X12296965Y-15672724D01*
X12296965Y-15672724D02*
X12306489Y-15634629D01*
X12306489Y-15634629D02*
X12316013Y-15615581D01*
X12316013Y-15615581D02*
X12325536Y-15606058D01*
X12325536Y-15606058D02*
X12344584Y-15596534D01*
X12496965Y-15777486D02*
X12506489Y-15787010D01*
X12506489Y-15787010D02*
X12496965Y-15796534D01*
X12496965Y-15796534D02*
X12487441Y-15787010D01*
X12487441Y-15787010D02*
X12496965Y-15777486D01*
X12496965Y-15777486D02*
X12496965Y-15796534D01*
X12630298Y-15596534D02*
X12649346Y-15596534D01*
X12649346Y-15596534D02*
X12668394Y-15606058D01*
X12668394Y-15606058D02*
X12677917Y-15615581D01*
X12677917Y-15615581D02*
X12687441Y-15634629D01*
X12687441Y-15634629D02*
X12696965Y-15672724D01*
X12696965Y-15672724D02*
X12696965Y-15720343D01*
X12696965Y-15720343D02*
X12687441Y-15758438D01*
X12687441Y-15758438D02*
X12677917Y-15777486D01*
X12677917Y-15777486D02*
X12668394Y-15787010D01*
X12668394Y-15787010D02*
X12649346Y-15796534D01*
X12649346Y-15796534D02*
X12630298Y-15796534D01*
X12630298Y-15796534D02*
X12611251Y-15787010D01*
X12611251Y-15787010D02*
X12601727Y-15777486D01*
X12601727Y-15777486D02*
X12592203Y-15758438D01*
X12592203Y-15758438D02*
X12582679Y-15720343D01*
X12582679Y-15720343D02*
X12582679Y-15672724D01*
X12582679Y-15672724D02*
X12592203Y-15634629D01*
X12592203Y-15634629D02*
X12601727Y-15615581D01*
X12601727Y-15615581D02*
X12611251Y-15606058D01*
X12611251Y-15606058D02*
X12630298Y-15596534D01*
X12868394Y-15596534D02*
X12830298Y-15596534D01*
X12830298Y-15596534D02*
X12811251Y-15606058D01*
X12811251Y-15606058D02*
X12801727Y-15615581D01*
X12801727Y-15615581D02*
X12782679Y-15644153D01*
X12782679Y-15644153D02*
X12773156Y-15682248D01*
X12773156Y-15682248D02*
X12773156Y-15758438D01*
X12773156Y-15758438D02*
X12782679Y-15777486D01*
X12782679Y-15777486D02*
X12792203Y-15787010D01*
X12792203Y-15787010D02*
X12811251Y-15796534D01*
X12811251Y-15796534D02*
X12849346Y-15796534D01*
X12849346Y-15796534D02*
X12868394Y-15787010D01*
X12868394Y-15787010D02*
X12877917Y-15777486D01*
X12877917Y-15777486D02*
X12887441Y-15758438D01*
X12887441Y-15758438D02*
X12887441Y-15710819D01*
X12887441Y-15710819D02*
X12877917Y-15691772D01*
X12877917Y-15691772D02*
X12868394Y-15682248D01*
X12868394Y-15682248D02*
X12849346Y-15672724D01*
X12849346Y-15672724D02*
X12811251Y-15672724D01*
X12811251Y-15672724D02*
X12792203Y-15682248D01*
X12792203Y-15682248D02*
X12782679Y-15691772D01*
X12782679Y-15691772D02*
X12773156Y-15710819D01*
X12954108Y-15596534D02*
X13077917Y-15596534D01*
X13077917Y-15596534D02*
X13011251Y-15672724D01*
X13011251Y-15672724D02*
X13039822Y-15672724D01*
X13039822Y-15672724D02*
X13058870Y-15682248D01*
X13058870Y-15682248D02*
X13068394Y-15691772D01*
X13068394Y-15691772D02*
X13077917Y-15710819D01*
X13077917Y-15710819D02*
X13077917Y-15758438D01*
X13077917Y-15758438D02*
X13068394Y-15777486D01*
X13068394Y-15777486D02*
X13058870Y-15787010D01*
X13058870Y-15787010D02*
X13039822Y-15796534D01*
X13039822Y-15796534D02*
X12982679Y-15796534D01*
X12982679Y-15796534D02*
X12963632Y-15787010D01*
X12963632Y-15787010D02*
X12954108Y-15777486D01*
X13201727Y-15596534D02*
X13220775Y-15596534D01*
X13220775Y-15596534D02*
X13239822Y-15606058D01*
X13239822Y-15606058D02*
X13249346Y-15615581D01*
X13249346Y-15615581D02*
X13258870Y-15634629D01*
X13258870Y-15634629D02*
X13268394Y-15672724D01*
X13268394Y-15672724D02*
X13268394Y-15720343D01*
X13268394Y-15720343D02*
X13258870Y-15758438D01*
X13258870Y-15758438D02*
X13249346Y-15777486D01*
X13249346Y-15777486D02*
X13239822Y-15787010D01*
X13239822Y-15787010D02*
X13220775Y-15796534D01*
X13220775Y-15796534D02*
X13201727Y-15796534D01*
X13201727Y-15796534D02*
X13182679Y-15787010D01*
X13182679Y-15787010D02*
X13173156Y-15777486D01*
X13173156Y-15777486D02*
X13163632Y-15758438D01*
X13163632Y-15758438D02*
X13154108Y-15720343D01*
X13154108Y-15720343D02*
X13154108Y-15672724D01*
X13154108Y-15672724D02*
X13163632Y-15634629D01*
X13163632Y-15634629D02*
X13173156Y-15615581D01*
X13173156Y-15615581D02*
X13182679Y-15606058D01*
X13182679Y-15606058D02*
X13201727Y-15596534D01*
X13344584Y-15596534D02*
X13344584Y-15634629D01*
X13420775Y-15596534D02*
X13420775Y-15634629D01*
X13716013Y-15872724D02*
X13706489Y-15863200D01*
X13706489Y-15863200D02*
X13687441Y-15834629D01*
X13687441Y-15834629D02*
X13677918Y-15815581D01*
X13677918Y-15815581D02*
X13668394Y-15787010D01*
X13668394Y-15787010D02*
X13658870Y-15739391D01*
X13658870Y-15739391D02*
X13658870Y-15701296D01*
X13658870Y-15701296D02*
X13668394Y-15653677D01*
X13668394Y-15653677D02*
X13677918Y-15625105D01*
X13677918Y-15625105D02*
X13687441Y-15606058D01*
X13687441Y-15606058D02*
X13706489Y-15577486D01*
X13706489Y-15577486D02*
X13716013Y-15567962D01*
X13782679Y-15615581D02*
X13792203Y-15606058D01*
X13792203Y-15606058D02*
X13811251Y-15596534D01*
X13811251Y-15596534D02*
X13858870Y-15596534D01*
X13858870Y-15596534D02*
X13877918Y-15606058D01*
X13877918Y-15606058D02*
X13887441Y-15615581D01*
X13887441Y-15615581D02*
X13896965Y-15634629D01*
X13896965Y-15634629D02*
X13896965Y-15653677D01*
X13896965Y-15653677D02*
X13887441Y-15682248D01*
X13887441Y-15682248D02*
X13773156Y-15796534D01*
X13773156Y-15796534D02*
X13896965Y-15796534D01*
X14135060Y-15796534D02*
X14135060Y-15596534D01*
X14220775Y-15796534D02*
X14220775Y-15691772D01*
X14220775Y-15691772D02*
X14211251Y-15672724D01*
X14211251Y-15672724D02*
X14192203Y-15663200D01*
X14192203Y-15663200D02*
X14163632Y-15663200D01*
X14163632Y-15663200D02*
X14144584Y-15672724D01*
X14144584Y-15672724D02*
X14135060Y-15682248D01*
X14344584Y-15796534D02*
X14325537Y-15787010D01*
X14325537Y-15787010D02*
X14316013Y-15777486D01*
X14316013Y-15777486D02*
X14306489Y-15758438D01*
X14306489Y-15758438D02*
X14306489Y-15701296D01*
X14306489Y-15701296D02*
X14316013Y-15682248D01*
X14316013Y-15682248D02*
X14325537Y-15672724D01*
X14325537Y-15672724D02*
X14344584Y-15663200D01*
X14344584Y-15663200D02*
X14373156Y-15663200D01*
X14373156Y-15663200D02*
X14392203Y-15672724D01*
X14392203Y-15672724D02*
X14401727Y-15682248D01*
X14401727Y-15682248D02*
X14411251Y-15701296D01*
X14411251Y-15701296D02*
X14411251Y-15758438D01*
X14411251Y-15758438D02*
X14401727Y-15777486D01*
X14401727Y-15777486D02*
X14392203Y-15787010D01*
X14392203Y-15787010D02*
X14373156Y-15796534D01*
X14373156Y-15796534D02*
X14344584Y-15796534D01*
X14525537Y-15796534D02*
X14506489Y-15787010D01*
X14506489Y-15787010D02*
X14496965Y-15767962D01*
X14496965Y-15767962D02*
X14496965Y-15596534D01*
X14677918Y-15787010D02*
X14658870Y-15796534D01*
X14658870Y-15796534D02*
X14620775Y-15796534D01*
X14620775Y-15796534D02*
X14601727Y-15787010D01*
X14601727Y-15787010D02*
X14592203Y-15767962D01*
X14592203Y-15767962D02*
X14592203Y-15691772D01*
X14592203Y-15691772D02*
X14601727Y-15672724D01*
X14601727Y-15672724D02*
X14620775Y-15663200D01*
X14620775Y-15663200D02*
X14658870Y-15663200D01*
X14658870Y-15663200D02*
X14677918Y-15672724D01*
X14677918Y-15672724D02*
X14687441Y-15691772D01*
X14687441Y-15691772D02*
X14687441Y-15710819D01*
X14687441Y-15710819D02*
X14592203Y-15729867D01*
X14763632Y-15787010D02*
X14782680Y-15796534D01*
X14782680Y-15796534D02*
X14820775Y-15796534D01*
X14820775Y-15796534D02*
X14839822Y-15787010D01*
X14839822Y-15787010D02*
X14849346Y-15767962D01*
X14849346Y-15767962D02*
X14849346Y-15758438D01*
X14849346Y-15758438D02*
X14839822Y-15739391D01*
X14839822Y-15739391D02*
X14820775Y-15729867D01*
X14820775Y-15729867D02*
X14792203Y-15729867D01*
X14792203Y-15729867D02*
X14773156Y-15720343D01*
X14773156Y-15720343D02*
X14763632Y-15701296D01*
X14763632Y-15701296D02*
X14763632Y-15691772D01*
X14763632Y-15691772D02*
X14773156Y-15672724D01*
X14773156Y-15672724D02*
X14792203Y-15663200D01*
X14792203Y-15663200D02*
X14820775Y-15663200D01*
X14820775Y-15663200D02*
X14839822Y-15672724D01*
X14916013Y-15872724D02*
X14925537Y-15863200D01*
X14925537Y-15863200D02*
X14944584Y-15834629D01*
X14944584Y-15834629D02*
X14954108Y-15815581D01*
X14954108Y-15815581D02*
X14963632Y-15787010D01*
X14963632Y-15787010D02*
X14973156Y-15739391D01*
X14973156Y-15739391D02*
X14973156Y-15701296D01*
X14973156Y-15701296D02*
X14963632Y-15653677D01*
X14963632Y-15653677D02*
X14954108Y-15625105D01*
X14954108Y-15625105D02*
X14944584Y-15606058D01*
X14944584Y-15606058D02*
X14925537Y-15577486D01*
X14925537Y-15577486D02*
X14916013Y-15567962D01*
X9940950Y-15885050D02*
X10140950Y-16085050D01*
X10140950Y-15885050D02*
X9940950Y-16085050D01*
X10111661Y-16055761D02*
X10111661Y-15914339D01*
X9970239Y-15914339D01*
X9970239Y-16055761D01*
X10111661Y-16055761D01*
X10382679Y-15876534D02*
X10506489Y-15876534D01*
X10506489Y-15876534D02*
X10439822Y-15952724D01*
X10439822Y-15952724D02*
X10468394Y-15952724D01*
X10468394Y-15952724D02*
X10487441Y-15962248D01*
X10487441Y-15962248D02*
X10496965Y-15971772D01*
X10496965Y-15971772D02*
X10506489Y-15990819D01*
X10506489Y-15990819D02*
X10506489Y-16038438D01*
X10506489Y-16038438D02*
X10496965Y-16057486D01*
X10496965Y-16057486D02*
X10487441Y-16067010D01*
X10487441Y-16067010D02*
X10468394Y-16076534D01*
X10468394Y-16076534D02*
X10411251Y-16076534D01*
X10411251Y-16076534D02*
X10392203Y-16067010D01*
X10392203Y-16067010D02*
X10382679Y-16057486D01*
X10592203Y-16057486D02*
X10601727Y-16067010D01*
X10601727Y-16067010D02*
X10592203Y-16076534D01*
X10592203Y-16076534D02*
X10582679Y-16067010D01*
X10582679Y-16067010D02*
X10592203Y-16057486D01*
X10592203Y-16057486D02*
X10592203Y-16076534D01*
X10677917Y-15895581D02*
X10687441Y-15886058D01*
X10687441Y-15886058D02*
X10706489Y-15876534D01*
X10706489Y-15876534D02*
X10754108Y-15876534D01*
X10754108Y-15876534D02*
X10773155Y-15886058D01*
X10773155Y-15886058D02*
X10782679Y-15895581D01*
X10782679Y-15895581D02*
X10792203Y-15914629D01*
X10792203Y-15914629D02*
X10792203Y-15933677D01*
X10792203Y-15933677D02*
X10782679Y-15962248D01*
X10782679Y-15962248D02*
X10668394Y-16076534D01*
X10668394Y-16076534D02*
X10792203Y-16076534D01*
X10916013Y-15876534D02*
X10935060Y-15876534D01*
X10935060Y-15876534D02*
X10954108Y-15886058D01*
X10954108Y-15886058D02*
X10963632Y-15895581D01*
X10963632Y-15895581D02*
X10973155Y-15914629D01*
X10973155Y-15914629D02*
X10982679Y-15952724D01*
X10982679Y-15952724D02*
X10982679Y-16000343D01*
X10982679Y-16000343D02*
X10973155Y-16038438D01*
X10973155Y-16038438D02*
X10963632Y-16057486D01*
X10963632Y-16057486D02*
X10954108Y-16067010D01*
X10954108Y-16067010D02*
X10935060Y-16076534D01*
X10935060Y-16076534D02*
X10916013Y-16076534D01*
X10916013Y-16076534D02*
X10896965Y-16067010D01*
X10896965Y-16067010D02*
X10887441Y-16057486D01*
X10887441Y-16057486D02*
X10877917Y-16038438D01*
X10877917Y-16038438D02*
X10868394Y-16000343D01*
X10868394Y-16000343D02*
X10868394Y-15952724D01*
X10868394Y-15952724D02*
X10877917Y-15914629D01*
X10877917Y-15914629D02*
X10887441Y-15895581D01*
X10887441Y-15895581D02*
X10896965Y-15886058D01*
X10896965Y-15886058D02*
X10916013Y-15876534D01*
X11106489Y-15876534D02*
X11125536Y-15876534D01*
X11125536Y-15876534D02*
X11144584Y-15886058D01*
X11144584Y-15886058D02*
X11154108Y-15895581D01*
X11154108Y-15895581D02*
X11163632Y-15914629D01*
X11163632Y-15914629D02*
X11173155Y-15952724D01*
X11173155Y-15952724D02*
X11173155Y-16000343D01*
X11173155Y-16000343D02*
X11163632Y-16038438D01*
X11163632Y-16038438D02*
X11154108Y-16057486D01*
X11154108Y-16057486D02*
X11144584Y-16067010D01*
X11144584Y-16067010D02*
X11125536Y-16076534D01*
X11125536Y-16076534D02*
X11106489Y-16076534D01*
X11106489Y-16076534D02*
X11087441Y-16067010D01*
X11087441Y-16067010D02*
X11077917Y-16057486D01*
X11077917Y-16057486D02*
X11068394Y-16038438D01*
X11068394Y-16038438D02*
X11058870Y-16000343D01*
X11058870Y-16000343D02*
X11058870Y-15952724D01*
X11058870Y-15952724D02*
X11068394Y-15914629D01*
X11068394Y-15914629D02*
X11077917Y-15895581D01*
X11077917Y-15895581D02*
X11087441Y-15886058D01*
X11087441Y-15886058D02*
X11106489Y-15876534D01*
X11258870Y-16076534D02*
X11258870Y-15943200D01*
X11258870Y-15962248D02*
X11268393Y-15952724D01*
X11268393Y-15952724D02*
X11287441Y-15943200D01*
X11287441Y-15943200D02*
X11316013Y-15943200D01*
X11316013Y-15943200D02*
X11335060Y-15952724D01*
X11335060Y-15952724D02*
X11344584Y-15971772D01*
X11344584Y-15971772D02*
X11344584Y-16076534D01*
X11344584Y-15971772D02*
X11354108Y-15952724D01*
X11354108Y-15952724D02*
X11373155Y-15943200D01*
X11373155Y-15943200D02*
X11401727Y-15943200D01*
X11401727Y-15943200D02*
X11420774Y-15952724D01*
X11420774Y-15952724D02*
X11430298Y-15971772D01*
X11430298Y-15971772D02*
X11430298Y-16076534D01*
X11525536Y-16076534D02*
X11525536Y-15943200D01*
X11525536Y-15962248D02*
X11535060Y-15952724D01*
X11535060Y-15952724D02*
X11554108Y-15943200D01*
X11554108Y-15943200D02*
X11582679Y-15943200D01*
X11582679Y-15943200D02*
X11601727Y-15952724D01*
X11601727Y-15952724D02*
X11611251Y-15971772D01*
X11611251Y-15971772D02*
X11611251Y-16076534D01*
X11611251Y-15971772D02*
X11620774Y-15952724D01*
X11620774Y-15952724D02*
X11639822Y-15943200D01*
X11639822Y-15943200D02*
X11668393Y-15943200D01*
X11668393Y-15943200D02*
X11687441Y-15952724D01*
X11687441Y-15952724D02*
X11696965Y-15971772D01*
X11696965Y-15971772D02*
X11696965Y-16076534D01*
X12087441Y-15867010D02*
X11916013Y-16124153D01*
X12344584Y-15876534D02*
X12363632Y-15876534D01*
X12363632Y-15876534D02*
X12382679Y-15886058D01*
X12382679Y-15886058D02*
X12392203Y-15895581D01*
X12392203Y-15895581D02*
X12401727Y-15914629D01*
X12401727Y-15914629D02*
X12411251Y-15952724D01*
X12411251Y-15952724D02*
X12411251Y-16000343D01*
X12411251Y-16000343D02*
X12401727Y-16038438D01*
X12401727Y-16038438D02*
X12392203Y-16057486D01*
X12392203Y-16057486D02*
X12382679Y-16067010D01*
X12382679Y-16067010D02*
X12363632Y-16076534D01*
X12363632Y-16076534D02*
X12344584Y-16076534D01*
X12344584Y-16076534D02*
X12325536Y-16067010D01*
X12325536Y-16067010D02*
X12316013Y-16057486D01*
X12316013Y-16057486D02*
X12306489Y-16038438D01*
X12306489Y-16038438D02*
X12296965Y-16000343D01*
X12296965Y-16000343D02*
X12296965Y-15952724D01*
X12296965Y-15952724D02*
X12306489Y-15914629D01*
X12306489Y-15914629D02*
X12316013Y-15895581D01*
X12316013Y-15895581D02*
X12325536Y-15886058D01*
X12325536Y-15886058D02*
X12344584Y-15876534D01*
X12496965Y-16057486D02*
X12506489Y-16067010D01*
X12506489Y-16067010D02*
X12496965Y-16076534D01*
X12496965Y-16076534D02*
X12487441Y-16067010D01*
X12487441Y-16067010D02*
X12496965Y-16057486D01*
X12496965Y-16057486D02*
X12496965Y-16076534D01*
X12696965Y-16076534D02*
X12582679Y-16076534D01*
X12639822Y-16076534D02*
X12639822Y-15876534D01*
X12639822Y-15876534D02*
X12620775Y-15905105D01*
X12620775Y-15905105D02*
X12601727Y-15924153D01*
X12601727Y-15924153D02*
X12582679Y-15933677D01*
X12773156Y-15895581D02*
X12782679Y-15886058D01*
X12782679Y-15886058D02*
X12801727Y-15876534D01*
X12801727Y-15876534D02*
X12849346Y-15876534D01*
X12849346Y-15876534D02*
X12868394Y-15886058D01*
X12868394Y-15886058D02*
X12877917Y-15895581D01*
X12877917Y-15895581D02*
X12887441Y-15914629D01*
X12887441Y-15914629D02*
X12887441Y-15933677D01*
X12887441Y-15933677D02*
X12877917Y-15962248D01*
X12877917Y-15962248D02*
X12763632Y-16076534D01*
X12763632Y-16076534D02*
X12887441Y-16076534D01*
X13058870Y-15876534D02*
X13020775Y-15876534D01*
X13020775Y-15876534D02*
X13001727Y-15886058D01*
X13001727Y-15886058D02*
X12992203Y-15895581D01*
X12992203Y-15895581D02*
X12973156Y-15924153D01*
X12973156Y-15924153D02*
X12963632Y-15962248D01*
X12963632Y-15962248D02*
X12963632Y-16038438D01*
X12963632Y-16038438D02*
X12973156Y-16057486D01*
X12973156Y-16057486D02*
X12982679Y-16067010D01*
X12982679Y-16067010D02*
X13001727Y-16076534D01*
X13001727Y-16076534D02*
X13039822Y-16076534D01*
X13039822Y-16076534D02*
X13058870Y-16067010D01*
X13058870Y-16067010D02*
X13068394Y-16057486D01*
X13068394Y-16057486D02*
X13077917Y-16038438D01*
X13077917Y-16038438D02*
X13077917Y-15990819D01*
X13077917Y-15990819D02*
X13068394Y-15971772D01*
X13068394Y-15971772D02*
X13058870Y-15962248D01*
X13058870Y-15962248D02*
X13039822Y-15952724D01*
X13039822Y-15952724D02*
X13001727Y-15952724D01*
X13001727Y-15952724D02*
X12982679Y-15962248D01*
X12982679Y-15962248D02*
X12973156Y-15971772D01*
X12973156Y-15971772D02*
X12963632Y-15990819D01*
X13201727Y-15876534D02*
X13220775Y-15876534D01*
X13220775Y-15876534D02*
X13239822Y-15886058D01*
X13239822Y-15886058D02*
X13249346Y-15895581D01*
X13249346Y-15895581D02*
X13258870Y-15914629D01*
X13258870Y-15914629D02*
X13268394Y-15952724D01*
X13268394Y-15952724D02*
X13268394Y-16000343D01*
X13268394Y-16000343D02*
X13258870Y-16038438D01*
X13258870Y-16038438D02*
X13249346Y-16057486D01*
X13249346Y-16057486D02*
X13239822Y-16067010D01*
X13239822Y-16067010D02*
X13220775Y-16076534D01*
X13220775Y-16076534D02*
X13201727Y-16076534D01*
X13201727Y-16076534D02*
X13182679Y-16067010D01*
X13182679Y-16067010D02*
X13173156Y-16057486D01*
X13173156Y-16057486D02*
X13163632Y-16038438D01*
X13163632Y-16038438D02*
X13154108Y-16000343D01*
X13154108Y-16000343D02*
X13154108Y-15952724D01*
X13154108Y-15952724D02*
X13163632Y-15914629D01*
X13163632Y-15914629D02*
X13173156Y-15895581D01*
X13173156Y-15895581D02*
X13182679Y-15886058D01*
X13182679Y-15886058D02*
X13201727Y-15876534D01*
X13344584Y-15876534D02*
X13344584Y-15914629D01*
X13420775Y-15876534D02*
X13420775Y-15914629D01*
X13716013Y-16152724D02*
X13706489Y-16143200D01*
X13706489Y-16143200D02*
X13687441Y-16114629D01*
X13687441Y-16114629D02*
X13677918Y-16095581D01*
X13677918Y-16095581D02*
X13668394Y-16067010D01*
X13668394Y-16067010D02*
X13658870Y-16019391D01*
X13658870Y-16019391D02*
X13658870Y-15981296D01*
X13658870Y-15981296D02*
X13668394Y-15933677D01*
X13668394Y-15933677D02*
X13677918Y-15905105D01*
X13677918Y-15905105D02*
X13687441Y-15886058D01*
X13687441Y-15886058D02*
X13706489Y-15857486D01*
X13706489Y-15857486D02*
X13716013Y-15847962D01*
X13782679Y-15895581D02*
X13792203Y-15886058D01*
X13792203Y-15886058D02*
X13811251Y-15876534D01*
X13811251Y-15876534D02*
X13858870Y-15876534D01*
X13858870Y-15876534D02*
X13877918Y-15886058D01*
X13877918Y-15886058D02*
X13887441Y-15895581D01*
X13887441Y-15895581D02*
X13896965Y-15914629D01*
X13896965Y-15914629D02*
X13896965Y-15933677D01*
X13896965Y-15933677D02*
X13887441Y-15962248D01*
X13887441Y-15962248D02*
X13773156Y-16076534D01*
X13773156Y-16076534D02*
X13896965Y-16076534D01*
X14135060Y-16076534D02*
X14135060Y-15876534D01*
X14220775Y-16076534D02*
X14220775Y-15971772D01*
X14220775Y-15971772D02*
X14211251Y-15952724D01*
X14211251Y-15952724D02*
X14192203Y-15943200D01*
X14192203Y-15943200D02*
X14163632Y-15943200D01*
X14163632Y-15943200D02*
X14144584Y-15952724D01*
X14144584Y-15952724D02*
X14135060Y-15962248D01*
X14344584Y-16076534D02*
X14325537Y-16067010D01*
X14325537Y-16067010D02*
X14316013Y-16057486D01*
X14316013Y-16057486D02*
X14306489Y-16038438D01*
X14306489Y-16038438D02*
X14306489Y-15981296D01*
X14306489Y-15981296D02*
X14316013Y-15962248D01*
X14316013Y-15962248D02*
X14325537Y-15952724D01*
X14325537Y-15952724D02*
X14344584Y-15943200D01*
X14344584Y-15943200D02*
X14373156Y-15943200D01*
X14373156Y-15943200D02*
X14392203Y-15952724D01*
X14392203Y-15952724D02*
X14401727Y-15962248D01*
X14401727Y-15962248D02*
X14411251Y-15981296D01*
X14411251Y-15981296D02*
X14411251Y-16038438D01*
X14411251Y-16038438D02*
X14401727Y-16057486D01*
X14401727Y-16057486D02*
X14392203Y-16067010D01*
X14392203Y-16067010D02*
X14373156Y-16076534D01*
X14373156Y-16076534D02*
X14344584Y-16076534D01*
X14525537Y-16076534D02*
X14506489Y-16067010D01*
X14506489Y-16067010D02*
X14496965Y-16047962D01*
X14496965Y-16047962D02*
X14496965Y-15876534D01*
X14677918Y-16067010D02*
X14658870Y-16076534D01*
X14658870Y-16076534D02*
X14620775Y-16076534D01*
X14620775Y-16076534D02*
X14601727Y-16067010D01*
X14601727Y-16067010D02*
X14592203Y-16047962D01*
X14592203Y-16047962D02*
X14592203Y-15971772D01*
X14592203Y-15971772D02*
X14601727Y-15952724D01*
X14601727Y-15952724D02*
X14620775Y-15943200D01*
X14620775Y-15943200D02*
X14658870Y-15943200D01*
X14658870Y-15943200D02*
X14677918Y-15952724D01*
X14677918Y-15952724D02*
X14687441Y-15971772D01*
X14687441Y-15971772D02*
X14687441Y-15990819D01*
X14687441Y-15990819D02*
X14592203Y-16009867D01*
X14763632Y-16067010D02*
X14782680Y-16076534D01*
X14782680Y-16076534D02*
X14820775Y-16076534D01*
X14820775Y-16076534D02*
X14839822Y-16067010D01*
X14839822Y-16067010D02*
X14849346Y-16047962D01*
X14849346Y-16047962D02*
X14849346Y-16038438D01*
X14849346Y-16038438D02*
X14839822Y-16019391D01*
X14839822Y-16019391D02*
X14820775Y-16009867D01*
X14820775Y-16009867D02*
X14792203Y-16009867D01*
X14792203Y-16009867D02*
X14773156Y-16000343D01*
X14773156Y-16000343D02*
X14763632Y-15981296D01*
X14763632Y-15981296D02*
X14763632Y-15971772D01*
X14763632Y-15971772D02*
X14773156Y-15952724D01*
X14773156Y-15952724D02*
X14792203Y-15943200D01*
X14792203Y-15943200D02*
X14820775Y-15943200D01*
X14820775Y-15943200D02*
X14839822Y-15952724D01*
X14916013Y-16152724D02*
X14925537Y-16143200D01*
X14925537Y-16143200D02*
X14944584Y-16114629D01*
X14944584Y-16114629D02*
X14954108Y-16095581D01*
X14954108Y-16095581D02*
X14963632Y-16067010D01*
X14963632Y-16067010D02*
X14973156Y-16019391D01*
X14973156Y-16019391D02*
X14973156Y-15981296D01*
X14973156Y-15981296D02*
X14963632Y-15933677D01*
X14963632Y-15933677D02*
X14954108Y-15905105D01*
X14954108Y-15905105D02*
X14944584Y-15886058D01*
X14944584Y-15886058D02*
X14925537Y-15857486D01*
X14925537Y-15857486D02*
X14916013Y-15847962D01*
M02*
